<?xml version="1.0" encoding="utf-8"?>
<!-- Generator: Adobe Illustrator 16.0.0, SVG Export Plug-In . SVG Version: 6.00 Build 0)  -->
<!DOCTYPE svg PUBLIC "-//W3C//DTD SVG 1.1//EN" "http://www.w3.org/Graphics/SVG/1.1/DTD/svg11.dtd">
<svg version="1.1" id="t1" xmlns="http://www.w3.org/2000/svg" xmlns:xlink="http://www.w3.org/1999/xlink" x="0px" y="0px"
	 width="600px" height="600px" viewBox="0 0 600 600" enable-background="new 0 0 600 600" xml:space="preserve">
<g>
	<path fill="#FFFFFF" stroke="#000000" stroke-width="1.5" stroke-miterlimit="10" d="M25,25v550h550V25H25z M557.343,409.724
		c0,36.656-12.092,73.448-35.854,101.891c-23.791,28.481-58.009,46.695-95.887,46.695c-84.185,0-168.369,0-252.552,0
		c-37.882,0-72.104-18.218-95.896-46.702c-23.756-28.442-35.847-65.231-35.847-101.884c0-73.065,0-146.133,0-219.201
		c0-36.655,12.092-73.446,35.854-101.891c23.792-28.48,58.01-46.693,95.889-46.693c84.185,0,168.368,0,252.552,0
		c37.881,0,72.104,18.218,95.894,46.703c23.757,28.443,35.847,65.23,35.847,101.883C557.343,263.59,557.343,336.658,557.343,409.724
		z"/>
	<path fill="#FFFFFF" stroke="#000000" stroke-width="1.5" stroke-miterlimit="10" d="M233.204,434.582c43.38,0,86.76,0,130.14,0
		c19.789,0,37.473-9.818,49.636-24.807c12.148-14.972,18.25-34.205,18.25-53.254c0-38.386,0-76.77,0-115.155
		c0-19.049-6.103-38.284-18.253-53.255c-12.163-14.988-29.845-24.804-49.633-24.804c-43.38,0-86.76,0-130.14,0
		c-19.788,0-37.472,9.817-49.636,24.807c-12.148,14.97-18.25,34.204-18.25,53.252c0,38.386,0,76.771,0,115.155
		c0,19.05,6.104,38.285,18.252,53.256C195.733,424.766,213.417,434.582,233.204,434.582z"/>
	<path fill="#FFFFFF" stroke="#000000" stroke-width="1.5" stroke-miterlimit="10" d="M521.496,88.641
		c-23.791-28.485-58.013-46.703-95.894-46.703c-84.185,0-168.369,0-252.552,0c-37.878,0-72.097,18.213-95.889,46.694
		c-23.761,28.444-35.854,65.236-35.854,101.89c0,73.067,0,146.135,0,219.201c0,36.652,12.091,73.44,35.847,101.884
		c23.792,28.485,58.013,46.702,95.896,46.702c84.185,0,168.368,0,252.552,0c37.878,0,72.097-18.213,95.887-46.695
		c23.762-28.442,35.854-65.235,35.854-101.891c0-73.065,0-146.133,0-219.201C557.343,153.871,545.253,117.083,521.496,88.641z
		 M503.301,386.209c0,28.896-9.628,57.839-28.456,80.163c-18.855,22.356-45.882,36.543-75.692,36.543c-66.552,0-133.103,0-199.652,0
		c-29.813,0-56.841-14.189-75.696-36.548c-18.827-22.323-28.453-51.265-28.453-80.158c0-57.392,0-114.781,0-172.17
		c0-28.896,9.626-57.839,28.457-80.163c18.855-22.356,45.881-36.543,75.692-36.543c66.551,0,133.102,0,199.652,0
		c29.812,0,56.841,14.188,75.695,36.548c18.826,22.324,28.452,51.265,28.452,80.158
		C503.301,271.428,503.301,328.817,503.301,386.209z"/>
	<path fill="#FFFFFF" stroke="#000000" stroke-width="1.5" stroke-miterlimit="10" d="M475.313,133.894
		c-18.855-22.36-45.883-36.548-75.694-36.548c-66.552,0-133.103,0-199.652,0c-29.812,0-56.837,14.187-75.692,36.543
		c-18.83,22.325-28.456,51.267-28.456,80.164c0,57.389,0,114.779,0,172.17c0,28.895,9.625,57.835,28.452,80.157
		c18.855,22.359,45.883,36.549,75.696,36.549c66.551,0,133.102,0,199.652,0c29.81,0,56.836-14.187,75.691-36.544
		c18.828-22.324,28.456-51.265,28.456-80.162c0-57.391,0-114.781,0-172.17C503.766,185.158,494.14,156.217,475.313,133.894z
		 M460.531,368.442c0,22.839-7.53,45.766-22.331,63.495c-14.818,17.749-36.138,29.105-59.741,29.105c-52.444,0-104.889,0-157.333,0
		c-23.606,0-44.927-11.358-59.746-29.11c-14.797-17.729-22.327-40.654-22.327-63.49c0-45.538,0-91.074,0-136.61
		c0-22.839,7.531-45.767,22.331-63.494c14.819-17.75,36.138-29.108,59.742-29.108c52.444,0,104.889,0,157.333,0
		c23.605,0,44.928,11.36,59.745,29.113c14.798,17.727,22.327,40.651,22.327,63.489C460.531,277.369,460.531,322.904,460.531,368.442
		z"/>
	<path fill="#FFFFFF" stroke="#000000" stroke-width="1.5" stroke-miterlimit="10" d="M438.336,168.2
		c-14.818-17.753-36.139-29.113-59.744-29.113c-52.446,0-104.89,0-157.334,0c-23.604,0-44.922,11.357-59.741,29.107
		c-14.801,17.728-22.331,40.655-22.331,63.495c0,45.537,0,91.075,0,136.612c0,22.837,7.529,45.761,22.327,63.488
		c14.819,17.753,36.139,29.112,59.745,29.112c52.444,0,104.89,0,157.334,0c23.604,0,44.923-11.357,59.741-29.108
		c14.8-17.727,22.329-40.653,22.329-63.492c0-45.537,0-91.075,0-136.612C460.662,208.851,453.134,185.926,438.336,168.2z
		 M431.23,357.441c0,19.007-6.088,38.196-18.209,53.135c-12.136,14.954-29.78,24.749-49.524,24.749c-43.282,0-86.565,0-129.847,0
		c-19.743,0-37.386-9.793-49.523-24.747c-12.122-14.938-18.21-34.13-18.21-53.137c0-38.299,0-76.598,0-114.897
		c0-19.004,6.088-38.194,18.208-53.132c12.137-14.957,29.781-24.751,49.525-24.751c43.283,0,86.564,0,129.847,0
		c19.743,0,37.386,9.793,49.521,24.748c12.122,14.938,18.212,34.13,18.212,53.135C431.23,280.844,431.23,319.143,431.23,357.441z"/>
</g>
</svg>
