<?xml version="1.0" encoding="utf-8"?>
<!-- Generator: Adobe Illustrator 16.0.0, SVG Export Plug-In . SVG Version: 6.00 Build 0)  -->
<!DOCTYPE svg PUBLIC "-//W3C//DTD SVG 1.1//EN" "http://www.w3.org/Graphics/SVG/1.1/DTD/svg11.dtd">
<svg version="1.1" id="t1" xmlns="http://www.w3.org/2000/svg" xmlns:xlink="http://www.w3.org/1999/xlink" x="0px" y="0px"
	 width="600px" height="600px" viewBox="0 0 600 600" enable-background="new 0 0 600 600" xml:space="preserve">
    <g>
<path fill="#FFFFFF" stroke="#000000" stroke-width="1.5" stroke-miterlimit="10" d="M420.75,358.438
	c-19.607-36.8-47.015-69.271-76.798-99.179c-21.505-21.595-44.246-41.854-69.708-57.854c-21.082-13.249-44.03-23.578-67.343-33.059
	C187.282,160.368,167.4,153,147.114,147.4c5.604,20.272,12.977,40.14,20.961,59.747c9.487,23.298,19.824,46.231,33.081,67.299
	c16.011,25.444,36.283,48.169,57.892,69.66c29.927,29.765,62.421,57.155,99.246,76.747c23.498,12.502,48.76,21.826,74.433,29.517
	c8.039,2.407,16.12,4.65,24.244,6.681c-2.032-8.118-4.276-16.193-6.686-24.229C442.591,407.166,433.26,381.921,420.75,358.438z"/>
<path fill="#FFFFFF" stroke="#000000" stroke-width="1.5" stroke-miterlimit="10" d="M561.517,124.724
	c-11.439-0.389-22.943-2.624-33.497-7.025c-12.097-5.047-22.947-12.94-32.259-22.318c-10.179-10.253-18.517-22.281-23.986-35.542
	c-4.51-10.937-7.068-22.712-7.857-34.471H25v438.623c11.766,0.788,23.549,3.344,34.494,7.853
	c13.271,5.466,25.306,13.798,35.566,23.97c9.383,9.304,17.283,20.147,22.332,32.237c4.406,10.547,6.642,22.043,7.03,33.475
	c0.154,4.506,0.02,9.002-0.414,13.475h450.99V124.312C570.523,124.744,566.025,124.877,561.517,124.724z M573.933,483.46
	c-5.73,0.581-11.481,1.023-17.234,1.256c-19.678,0.793-39.372-0.876-59.022-3.139c-6.196-0.714-12.386-1.498-18.552-2.391
	c0.893,6.162,1.678,12.347,2.393,18.539c2.265,19.637,3.933,39.319,3.14,58.983c-0.231,5.748-0.675,11.495-1.256,17.222h-16.288
	c1.808-23.752,1.484-47.807-1.465-71.45c-1.099-8.812-2.563-17.565-4.322-26.269c-6.784-1.313-13.514-2.838-20.157-4.674
	c-17.378-4.807-34.177-11.689-50.858-18.824c-21.505-9.198-42.814-18.814-62.789-30.746c-22.024-13.159-42.427-29.136-61.533-46.434
	c-19.26-17.437-37.202-36.215-53.37-56.472c-15.069-18.88-28.597-39.044-40.185-60.236c-13.861-25.348-24.948-52.167-33.906-79.689
	c-3.903-11.994-7.399-24.123-10.314-36.377c-4.858-1.037-9.737-1.97-14.647-2.751c-28.791-4.586-58.521-4.517-87.498-1.181v-17.582
	c26.718-2.823,53.928-2.825,80.601,0.627c5.929,0.767,11.829,1.709,17.705,2.8c-1.091-5.872-2.033-11.77-2.802-17.694
	c-3.454-26.655-3.452-53.846-0.627-80.547h17.594c-3.338,28.957-3.407,58.667,1.182,87.439c0.783,4.907,1.716,9.784,2.753,14.637
	c12.262,2.913,24.399,6.406,36.402,10.307c27.54,8.951,54.375,20.031,79.742,33.882c21.207,11.58,41.384,25.1,60.277,40.158
	c20.271,16.157,39.063,34.087,56.51,53.334c17.31,19.092,33.297,39.481,46.465,61.492c11.94,19.961,21.562,41.257,30.767,62.747
	c7.139,16.669,14.028,33.458,18.837,50.825c1.837,6.639,3.362,13.362,4.678,20.143c8.708,1.758,17.468,3.222,26.285,4.319
	c23.66,2.946,47.73,3.271,71.499,1.463v16.28H573.933z"/>
<path fill="#FFFFFF" stroke="#000000" stroke-width="1.5" stroke-miterlimit="10" d="M25,482.174
	c2.549,0.134,5.098,0.394,7.613,0.827c5.969,1.027,11.743,3.023,17.37,5.373c8.365,3.493,16.405,7.768,23.573,13.226
	c8.459,6.44,15.704,14.529,21.505,23.557c5.39,8.389,9.534,17.589,11.58,27.276c1.56,7.389,1.898,15.061,1.24,22.565h16.129
	c0.434-4.473,0.567-8.968,0.414-13.475c-0.389-11.432-2.625-22.929-7.03-33.475c-5.049-12.089-12.949-22.933-22.332-32.237
	c-10.261-10.172-22.296-18.504-35.566-23.97c-10.944-4.508-22.728-7.064-34.494-7.853L25,482.174L25,482.174z"/>
<path fill="#FFFFFF" stroke="#000000" stroke-width="1.5" stroke-miterlimit="10" d="M25,481.806
	c2.549,0.134,5.098,0.394,7.613,0.827c5.969,1.027,11.743,3.023,17.37,5.372c8.365,3.494,16.405,7.77,23.573,13.226
	c8.459,6.441,15.704,14.529,21.505,23.558c5.39,8.39,9.534,17.589,11.58,27.277c1.56,7.388,1.898,15.061,1.24,22.564H25V481.806z"/>
<path fill="#FFFFFF" stroke="#000000" stroke-width="1.5" stroke-miterlimit="10" d="M481.727,25.434
	c0.145,2.546,0.418,5.094,0.862,7.604c1.057,5.96,3.081,11.72,5.458,17.332c3.534,8.343,7.851,16.358,13.345,23.496
	c6.484,8.423,14.61,15.625,23.674,21.38c8.419,5.348,17.644,9.445,27.348,11.443c7.402,1.525,15.08,1.827,22.587,1.135L574.61,25
	L481.727,25.434z"/>
<path fill="#FFFFFF" stroke="#000000" stroke-width="1.5" stroke-miterlimit="10" d="M574.999,124.311
	c-4.476,0.434-8.974,0.568-13.483,0.414c-11.439-0.389-22.943-2.624-33.497-7.025c-12.097-5.047-22.947-12.94-32.259-22.318
	c-10.179-10.253-18.518-22.281-23.986-35.542c-4.51-10.937-7.068-22.712-7.857-34.471h18.196c0.133,2.547,0.394,5.094,0.826,7.607
	c1.029,5.966,3.025,11.736,5.377,17.358c3.495,8.359,7.773,16.395,13.234,23.557c6.445,8.454,14.539,15.693,23.573,21.49
	c8.396,5.388,17.601,9.528,27.294,11.572c7.395,1.559,15.071,1.897,22.58,1.24v16.118H574.999z"/>
<path fill="#FFFFFF" stroke="#000000" stroke-width="1.5" stroke-miterlimit="10" d="M138.538,26.434
	c-3.338,28.957-3.407,58.667,1.182,87.439c5.115,32.074,16.02,62.984,28.355,93.275c9.487,23.298,19.824,46.231,33.081,67.299
	c16.011,25.444,36.283,48.17,57.892,69.661c29.927,29.764,62.421,57.154,99.246,76.746c23.498,12.502,48.76,21.826,74.433,29.517
	c22.884,6.854,46.092,12.409,69.707,15.35c23.66,2.946,47.73,3.271,71.499,1.463v16.278c-5.73,0.581-11.481,1.023-17.234,1.256
	c-19.678,0.793-39.372-0.876-59.022-3.139c-19.08-2.196-38.117-4.953-56.51-10.038c-17.378-4.806-34.178-11.689-50.858-18.824
	c-21.505-9.198-42.814-18.813-62.789-30.746c-22.024-13.159-42.428-29.136-61.533-46.434c-19.26-17.437-37.202-36.215-53.37-56.472
	c-15.069-18.879-28.597-39.044-40.185-60.236c-13.861-25.348-24.948-52.167-33.906-79.689
	c-7.667-23.558-13.774-47.631-16.953-72.159c-3.454-26.655-3.452-53.846-0.628-80.547H138.538z"/>
<path fill="#FFFFFF" stroke="#000000" stroke-width="1.5" stroke-miterlimit="10" d="M26.067,138.83
	c28.976-3.336,58.706-3.405,87.498,1.181c32.096,5.112,63.026,16.009,93.337,28.336c23.313,9.481,46.261,19.811,67.343,33.059
	c25.461,16,48.203,36.258,69.708,57.854c29.783,29.908,57.19,62.379,76.797,99.179c12.51,23.482,21.841,48.728,29.536,74.382
	c6.859,22.87,12.418,46.063,15.36,69.662c2.949,23.644,3.273,47.698,1.464,71.451h16.29c0.581-5.728,1.023-11.475,1.255-17.223
	c0.794-19.665-0.875-39.347-3.14-58.983c-2.197-19.067-4.956-38.092-10.045-56.471c-4.809-17.367-11.697-34.156-18.837-50.825
	c-9.205-21.49-18.826-42.786-30.767-62.747c-13.167-22.011-29.155-42.399-46.465-61.492c-17.447-19.247-36.239-37.177-56.509-53.334
	c-18.893-15.058-39.071-28.578-60.278-40.158c-25.365-13.852-52.202-24.931-79.742-33.882
	c-23.574-7.662-47.664-13.765-72.207-16.943c-26.673-3.452-53.883-3.45-80.601-0.627L26.067,138.83L26.067,138.83z"/>
</g>
</svg>
