<?xml version="1.0" encoding="utf-8"?>
<!-- Generator: Adobe Illustrator 16.0.0, SVG Export Plug-In . SVG Version: 6.00 Build 0)  -->
<!DOCTYPE svg PUBLIC "-//W3C//DTD SVG 1.1//EN" "http://www.w3.org/Graphics/SVG/1.1/DTD/svg11.dtd">
<svg version="1.1" id="Layer_1" xmlns="http://www.w3.org/2000/svg" xmlns:xlink="http://www.w3.org/1999/xlink" x="0px" y="0px"
	 width="600px" height="600px" viewBox="-16.5 -16.5 600 600" enable-background="new -16.5 -16.5 600 600" xml:space="preserve">
<g>
	<polygon fill="#FFFFFF" stroke="#000000" stroke-width="1.5" stroke-miterlimit="10" points="375.594,192.321 283.5,101.142 
		191.406,192.321 283.5,192.321 	"/>
	<polygon fill="#FFFFFF" stroke="#000000" stroke-width="1.5" stroke-miterlimit="10" points="375.594,374.68 467.688,283.5 
		375.594,192.321 375.594,283.5 	"/>
	<polygon fill="#FFFFFF" stroke="#000000" stroke-width="1.5" stroke-miterlimit="10" points="283.5,374.68 191.406,374.68 
		283.5,465.858 375.593,374.68 	"/>
	<polygon fill="#FFFFFF" stroke="#000000" stroke-width="1.5" stroke-miterlimit="10" points="191.406,283.5 191.406,192.321 
		99.312,283.5 191.406,374.68 	"/>
	<polygon fill="#FFFFFF" stroke="#000000" stroke-width="1.5" stroke-miterlimit="10" points="283.5,192.321 375.594,192.321 
		375.594,283.5 375.594,374.68 283.5,374.68 191.406,374.68 191.406,283.5 191.406,192.321 	"/>
	<polygon fill="#FFFFFF" stroke="#000000" stroke-width="1.5" stroke-miterlimit="10" points="468.217,558.5 468.217,485.497 
		488.3,466.633 558.5,466.633 558.5,558.5 	"/>
	<polygon fill="#FFFFFF" stroke="#000000" stroke-width="1.5" stroke-miterlimit="10" points="98.784,558.5 98.784,485.497 
		78.701,466.633 8.5,466.633 8.5,558.5 	"/>
	<polygon fill="#FFFFFF" stroke="#000000" stroke-width="1.5" stroke-miterlimit="10" points="468.217,8.5 468.217,81.502 
		488.3,100.367 558.5,100.367 558.5,8.5 	"/>
	<polygon fill="#FFFFFF" stroke="#000000" stroke-width="1.5" stroke-miterlimit="10" points="468.217,81.502 468.217,8.5 
		376.904,8.5 376.904,100.696 468.799,192.589 558.5,192.589 558.5,100.367 488.3,100.367 	"/>
	<polygon fill="#FFFFFF" stroke="#000000" stroke-width="1.5" stroke-miterlimit="10" points="376.904,100.696 376.904,8.5 
		283.5,8.5 283.5,101.142 467.688,283.499 558.5,283.499 558.5,192.588 468.799,192.588 	"/>
	<polygon fill="#FFFFFF" stroke="#000000" stroke-width="1.5" stroke-miterlimit="10" points="190.096,100.696 190.096,8.5 
		283.5,8.5 283.5,101.142 99.312,283.499 8.5,283.499 8.5,192.588 98.202,192.588 	"/>
	<polygon fill="#FFFFFF" stroke="#000000" stroke-width="1.5" stroke-miterlimit="10" points="190.096,466.305 190.096,558.5 
		283.5,558.5 283.5,465.859 99.312,283.502 8.5,283.502 8.5,374.414 98.202,374.414 	"/>
	<polygon fill="#FFFFFF" stroke="#000000" stroke-width="1.5" stroke-miterlimit="10" points="376.904,466.305 376.904,558.5 
		283.5,558.5 283.5,465.859 467.688,283.502 558.5,283.502 558.5,374.414 468.799,374.414 	"/>
	<polygon fill="#FFFFFF" stroke="#000000" stroke-width="1.5" stroke-miterlimit="10" points="468.217,485.497 468.217,558.5 
		376.904,558.5 376.904,466.304 468.799,374.412 558.5,374.412 558.5,466.633 488.3,466.633 	"/>
	<polygon fill="#FFFFFF" stroke="#000000" stroke-width="1.5" stroke-miterlimit="10" points="98.784,81.502 98.784,8.5 
		190.096,8.5 190.096,100.696 98.202,192.589 8.5,192.589 8.5,100.367 78.701,100.367 	"/>
	<polygon fill="#FFFFFF" stroke="#000000" stroke-width="1.5" stroke-miterlimit="10" points="98.784,485.497 98.784,558.5 
		190.096,558.5 190.096,466.304 98.202,374.412 8.5,374.412 8.5,466.633 78.701,466.633 	"/>
	<polygon fill="#FFFFFF" stroke="#000000" stroke-width="1.5" stroke-miterlimit="10" points="98.784,8.5 98.784,81.502 
		78.701,100.367 8.5,100.367 8.5,8.5 	"/>
</g>
</svg>
