<?xml version="1.0" encoding="utf-8"?>
<!-- Generator: Adobe Illustrator 16.0.0, SVG Export Plug-In . SVG Version: 6.00 Build 0)  -->
<!DOCTYPE svg PUBLIC "-//W3C//DTD SVG 1.1//EN" "http://www.w3.org/Graphics/SVG/1.1/DTD/svg11.dtd" [
	<!ENTITY ns_flows "http://ns.adobe.com/Flows/1.0/">
	<!ENTITY ns_extend "http://ns.adobe.com/Extensibility/1.0/">
	<!ENTITY ns_ai "http://ns.adobe.com/AdobeIllustrator/10.0/">
	<!ENTITY ns_graphs "http://ns.adobe.com/Graphs/1.0/">
]>
<svg version="1.1" id="Layer_1" xmlns:x="&ns_extend;" xmlns:i="&ns_ai;" xmlns:graph="&ns_graphs;"
	 xmlns="http://www.w3.org/2000/svg" xmlns:xlink="http://www.w3.org/1999/xlink" xmlns:a="http://ns.adobe.com/AdobeSVGViewerExtensions/3.0/"
	 x="0px" y="0px" width="550px" height="550px" viewBox="0 0 550 550" enable-background="new 0 0 550 550" xml:space="preserve">
<g>
	<polygon fill="#FFFFFF" stroke="#000000" stroke-width="1.5" stroke-miterlimit="10" points="367.094,183.821 275,92.642 
		182.906,183.821 275,183.821 	"/>
	<polygon fill="#FFFFFF" stroke="#000000" stroke-width="1.5" stroke-miterlimit="10" points="367.094,366.18 459.188,275 
		367.094,183.821 367.094,275 	"/>
	<polygon fill="#FFFFFF" stroke="#000000" stroke-width="1.5" stroke-miterlimit="10" points="275,366.18 182.906,366.18 
		275,457.358 367.093,366.18 	"/>
	<polygon fill="#FFFFFF" stroke="#000000" stroke-width="1.5" stroke-miterlimit="10" points="182.906,275 182.906,183.821 
		90.812,275 182.906,366.18 	"/>
	<polygon fill="#FFFFFF" stroke="#000000" stroke-width="1.5" stroke-miterlimit="10" points="275,183.821 367.094,183.821 
		367.094,275 367.094,366.18 275,366.18 182.906,366.18 182.906,275 182.906,183.821 	"/>
	<polygon fill="#FFFFFF" stroke="#000000" stroke-width="1.5" stroke-miterlimit="10" points="459.717,550 459.717,476.997 
		479.8,458.133 550,458.133 550,550 	"/>
	<polygon fill="#FFFFFF" stroke="#000000" stroke-width="1.5" stroke-miterlimit="10" points="90.284,550 90.284,476.997 
		70.201,458.133 0,458.133 0,550 	"/>
	<polygon fill="#FFFFFF" stroke="#000000" stroke-width="1.5" stroke-miterlimit="10" points="459.717,0 459.717,73.002 
		479.8,91.867 550,91.867 550,0 	"/>
	<polygon fill="#FFFFFF" stroke="#000000" stroke-width="1.5" stroke-miterlimit="10" points="459.717,73.002 459.717,0 368.404,0 
		368.404,92.196 460.299,184.089 550,184.089 550,91.867 479.8,91.867 	"/>
	<polygon fill="#FFFFFF" stroke="#000000" stroke-width="1.5" stroke-miterlimit="10" points="368.404,92.196 368.404,0 275,0 
		275,92.642 459.188,274.999 550,274.999 550,184.088 460.299,184.088 	"/>
	<polygon fill="#FFFFFF" stroke="#000000" stroke-width="1.5" stroke-miterlimit="10" points="181.596,92.196 181.596,0 275,0 
		275,92.642 90.812,274.999 0,274.999 0,184.088 89.702,184.088 	"/>
	<polygon fill="#FFFFFF" stroke="#000000" stroke-width="1.5" stroke-miterlimit="10" points="181.596,457.805 181.596,550 275,550 
		275,457.359 90.812,275.002 0,275.002 0,365.914 89.702,365.914 	"/>
	<polygon fill="#FFFFFF" stroke="#000000" stroke-width="1.5" stroke-miterlimit="10" points="368.404,457.805 368.404,550 275,550 
		275,457.359 459.188,275.002 550,275.002 550,365.914 460.299,365.914 	"/>
	<polygon fill="#FFFFFF" stroke="#000000" stroke-width="1.5" stroke-miterlimit="10" points="459.717,476.997 459.717,550 
		368.404,550 368.404,457.804 460.299,365.912 550,365.912 550,458.133 479.8,458.133 	"/>
	<polygon fill="#FFFFFF" stroke="#000000" stroke-width="1.5" stroke-miterlimit="10" points="90.284,73.002 90.284,0 181.596,0 
		181.596,92.196 89.702,184.089 0,184.089 0,91.867 70.201,91.867 	"/>
	<polygon fill="#FFFFFF" stroke="#000000" stroke-width="1.5" stroke-miterlimit="10" points="90.284,476.997 90.284,550 
		181.596,550 181.596,457.804 89.702,365.912 0,365.912 0,458.133 70.201,458.133 	"/>
	<polygon fill="#FFFFFF" stroke="#000000" stroke-width="1.5" stroke-miterlimit="10" points="90.284,0 90.284,73.002 
		70.201,91.867 0,91.867 0,0 	"/>
</g>
</svg>
