<?xml version="1.0" encoding="utf-8"?>
<!-- Generator: Adobe Illustrator 16.0.0, SVG Export Plug-In . SVG Version: 6.00 Build 0)  -->
<!DOCTYPE svg PUBLIC "-//W3C//DTD SVG 1.1//EN" "http://www.w3.org/Graphics/SVG/1.1/DTD/svg11.dtd">
<svg version="1.1" id="t1" xmlns="http://www.w3.org/2000/svg" xmlns:xlink="http://www.w3.org/1999/xlink" x="0px" y="0px"
	 width="600px" height="600px" viewBox="0 0 600 600" enable-background="new 0 0 600 600" xml:space="preserve">
<g>
	<polygon fill="#FFFFFF" stroke="#000000" stroke-width="1.5" stroke-miterlimit="10" points="318.256,575 446.505,446.506 
		575,318.257 575,156.927 366.439,366.438 156.926,575 	"/>
	<polygon fill="#FFFFFF" stroke="#000000" stroke-width="1.5" stroke-miterlimit="10" points="318.256,575 575,575 575,318.257 
		446.505,446.506 	"/>
	<polygon fill="#FFFFFF" stroke="#000000" stroke-width="1.5" stroke-miterlimit="10" points="371.336,25 491.585,146.918 
		411.868,229.334 206.501,25 	"/>
	<polygon fill="#FFFFFF" stroke="#000000" stroke-width="1.5" stroke-miterlimit="10" points="25,371.335 146.918,491.584 
		229.335,411.869 25,206.502 	"/>
	<polygon fill="#FFFFFF" stroke="#000000" stroke-width="1.5" stroke-miterlimit="10" points="25,110.278 277.23,362.917 
		319.63,319.629 362.916,277.23 110.277,25 25,25 	"/>
	<path fill="#FFFFFF" stroke="#000000" stroke-width="1.5" stroke-miterlimit="10" d="M25,25L25,25l85.277,0.001L362.916,277.23
		l-43.286,42.4l-42.4,43.286L25,110.278v96.226l204.335,205.366l-82.417,79.717L25,371.337v203.662h131.926l209.514-208.561
		L575,156.926V25H25z M411.868,229.334L206.501,25.001h164.834l120.249,121.918L411.868,229.334z"/>
</g>
</svg>
