<?xml version="1.0" encoding="utf-8"?>
<!-- Generator: Adobe Illustrator 16.0.0, SVG Export Plug-In . SVG Version: 6.00 Build 0)  -->
<!DOCTYPE svg PUBLIC "-//W3C//DTD SVG 1.1//EN" "http://www.w3.org/Graphics/SVG/1.1/DTD/svg11.dtd" [
	<!ENTITY ns_flows "http://ns.adobe.com/Flows/1.0/">
	<!ENTITY ns_extend "http://ns.adobe.com/Extensibility/1.0/">
	<!ENTITY ns_ai "http://ns.adobe.com/AdobeIllustrator/10.0/">
	<!ENTITY ns_graphs "http://ns.adobe.com/Graphs/1.0/">
]>
<svg version="1.1" id="t1" xmlns:x="&ns_extend;" xmlns:i="&ns_ai;" xmlns:graph="&ns_graphs;"
	 xmlns="http://www.w3.org/2000/svg" xmlns:xlink="http://www.w3.org/1999/xlink" xmlns:a="http://ns.adobe.com/AdobeSVGViewerExtensions/3.0/"
	 x="0px" y="0px" width="550px" height="550px" viewBox="0 0 550 550" enable-background="new 0 0 550 550" xml:space="preserve">
<g>
	<polygon fill="#FFFFFF" stroke="#000000" stroke-width="1.5" stroke-miterlimit="10" points="550,550 550,480.227 480.469,550 	"/>
	<polygon fill="#FFFFFF" stroke="#000000" stroke-width="1.5" stroke-miterlimit="10" points="0,0 0,69.771 69.531,0 	"/>
	<polygon fill="#FFFFFF" stroke="#000000" stroke-width="1.5" stroke-miterlimit="10" points="0,550 69.531,550 0,480.227 	"/>
	<polygon fill="#FFFFFF" stroke="#000000" stroke-width="1.5" stroke-miterlimit="10" points="480.469,0 550,69.771 550,0 	"/>
	<polygon fill="#FFFFFF" stroke="#000000" stroke-width="1.5" stroke-miterlimit="10" points="344.51,213.393 313.504,166.66 
		480.469,0 69.531,0 236.495,166.66 205.49,213.393 167.291,237.745 0,69.771 0,480.227 167.291,312.254 205.49,336.605 
		236.495,383.338 69.531,550 480.469,550 313.504,383.338 344.51,336.605 382.707,312.254 550,480.227 550,69.771 382.707,237.745 	
		"/>
	<path fill="#FFFFFF" stroke="#000000" stroke-width="1.5" stroke-miterlimit="10" d="M382.707,237.745l-38.197-24.352
		l-31.006-46.733L275,109.868l-38.504,56.792l-31.005,46.733l-38.2,24.352L105.236,275l62.054,37.254l38.2,24.354l31.005,46.732
		L275,440.133l38.504-56.793l31.006-46.732l38.197-24.354L444.764,275L382.707,237.745z M275,323.275
		c-26.662,0-48.276-21.613-48.276-48.276c0-26.661,21.614-48.274,48.276-48.274c26.663,0,48.276,21.613,48.276,48.274
		C323.275,301.662,301.662,323.275,275,323.275z"/>
	<circle fill="#FFFFFF" stroke="#000000" stroke-width="1.5" stroke-miterlimit="10" cx="275" cy="274.999" r="48.276"/>
	<polygon fill="#FFFFFF" stroke="#000000" stroke-width="1.5" stroke-miterlimit="10" points="382.707,237.745 550,69.771 
		480.469,0 313.504,166.66 344.51,213.393 	"/>
	<polygon fill="#FFFFFF" stroke="#000000" stroke-width="1.5" stroke-miterlimit="10" points="382.707,312.254 550,480.227 
		480.469,550 313.504,383.338 344.51,336.605 	"/>
	<polygon fill="#FFFFFF" stroke="#000000" stroke-width="1.5" stroke-miterlimit="10" points="167.291,237.745 0,69.771 69.531,0 
		236.495,166.66 205.49,213.393 	"/>
	<polygon fill="#FFFFFF" stroke="#000000" stroke-width="1.5" stroke-miterlimit="10" points="167.291,312.254 0,480.227 
		69.531,550 236.495,383.338 205.49,336.605 	"/>
</g>
</svg>
