<?xml version="1.0" encoding="utf-8"?>
<!-- Generator: Adobe Illustrator 16.0.0, SVG Export Plug-In . SVG Version: 6.00 Build 0)  -->
<!DOCTYPE svg PUBLIC "-//W3C//DTD SVG 1.1//EN" "http://www.w3.org/Graphics/SVG/1.1/DTD/svg11.dtd" [
	<!ENTITY ns_flows "http://ns.adobe.com/Flows/1.0/">
	<!ENTITY ns_extend "http://ns.adobe.com/Extensibility/1.0/">
	<!ENTITY ns_ai "http://ns.adobe.com/AdobeIllustrator/10.0/">
	<!ENTITY ns_graphs "http://ns.adobe.com/Graphs/1.0/">
]>
<svg version="1.1" id="t1" xmlns:x="&ns_extend;" xmlns:i="&ns_ai;" xmlns:graph="&ns_graphs;"
	 xmlns="http://www.w3.org/2000/svg" xmlns:xlink="http://www.w3.org/1999/xlink" xmlns:a="http://ns.adobe.com/AdobeSVGViewerExtensions/3.0/"
	 x="0px" y="0px" width="550px" height="550px" viewBox="25 25 550 550" enable-background="new 25 25 550 550"
	 xml:space="preserve">
<g>
	<path fill="#FFFFFF" stroke="#000000" stroke-width="1.5" stroke-miterlimit="10" d="M301.301,83.257L83.221,299.512
		l217.464,217.423L518.15,299.471L301.301,83.257z M134.676,299.727l166.752-166.752l166.528,166.529L301.205,466.256
		L134.676,299.727z"/>
	
		<rect x="263.013" y="261.726" transform="matrix(-0.7071 0.7071 -0.7071 -0.7071 727.774 299.5603)" fill="#FFFFFF" stroke="#000000" stroke-width="1.5" stroke-miterlimit="10" width="77.666" height="77.561"/>
	<path fill="#FFFFFF" stroke="#000000" stroke-width="1.5" stroke-miterlimit="10" d="M301.368,132.867l-166.56,166.804
		l167.051,167.553l166.094-167.73L301.368,132.867z M193.329,299.39l108.674-108.674l108.53,108.53L301.859,407.921L193.329,299.39z
		"/>
	<path fill="#FFFFFF" stroke="#000000" stroke-width="1.5" stroke-miterlimit="10" d="M302.003,190.715L193.329,299.389
		l108.53,108.532l108.675-108.676L302.003,190.715z M301.854,355.386l-54.844-54.844l54.92-54.917l54.845,54.845L301.854,355.386z"
		/>
	
		<rect x="25.724" y="462.979" fill="#FFFFFF" stroke="#000000" stroke-width="1.5" stroke-miterlimit="10" width="111.408" height="111.638"/>
	
		<rect x="463.594" y="462.979" fill="#FFFFFF" stroke="#000000" stroke-width="1.5" stroke-miterlimit="10" width="111.406" height="111.638"/>
	<polygon fill="#FFFFFF" stroke="#000000" stroke-width="1.5" stroke-miterlimit="10" points="575,242.796 575,356.787 
		518.05,300.113 	"/>
	<polygon fill="#FFFFFF" stroke="#000000" stroke-width="1.5" stroke-miterlimit="10" points="25,241.098 25,357.757 
		83.208,299.549 	"/>
	<polygon fill="#FFFFFF" stroke="#000000" stroke-width="1.5" stroke-miterlimit="10" points="359.213,575 243.28,575 
		300.723,516.941 	"/>
	<polygon fill="#FFFFFF" stroke="#000000" stroke-width="1.5" stroke-miterlimit="10" points="359.783,25 243.125,25 
		301.334,83.209 	"/>
	
		<rect x="25.724" y="25" fill="#FFFFFF" stroke="#000000" stroke-width="1.5" stroke-miterlimit="10" width="111.408" height="111.637"/>
	
		<rect x="463.594" y="25" fill="#FFFFFF" stroke="#000000" stroke-width="1.5" stroke-miterlimit="10" width="111.406" height="111.637"/>
	<path fill="#FFFFFF" stroke="#000000" stroke-width="1.5" stroke-miterlimit="10" d="M463.594,136.637V25H359.279
		c-0.137,0.132-0.224,0.247-0.224,0.247l-57.765,57.887L517.81,300.259c0,0,57.188-57.366,57.189-57.367l-0.231-106.254H463.594
		V136.637z"/>
	<path fill="#FFFFFF" stroke="#000000" stroke-width="1.5" stroke-miterlimit="10" d="M463.594,463.362V575H359.279
		c-0.137-0.134-0.224-0.246-0.224-0.246l-58.295-57.813l217.048-217.2c0,0,57.188,57.366,57.189,57.368l-0.231,106.252
		L463.594,463.362L463.594,463.362z"/>
	<polygon fill="#FFFFFF" stroke="#000000" stroke-width="1.5" stroke-miterlimit="10" points="136.406,463.362 136.406,575 
		243.145,575 300.67,516.936 83.221,299.574 25,357.109 25.231,463.362 	"/>
	<polygon fill="#FFFFFF" stroke="#000000" stroke-width="1.5" stroke-miterlimit="10" points="136.406,136.637 136.406,25 
		243.145,25 301.262,83.132 83.2,299.512 25,242.892 25.231,136.637 	"/>
</g>
</svg>
