<?xml version="1.0" encoding="utf-8"?>
<!-- Generator: Adobe Illustrator 16.0.0, SVG Export Plug-In . SVG Version: 6.00 Build 0)  -->
<!DOCTYPE svg PUBLIC "-//W3C//DTD SVG 1.1//EN" "http://www.w3.org/Graphics/SVG/1.1/DTD/svg11.dtd" [
	<!ENTITY ns_flows "http://ns.adobe.com/Flows/1.0/">
	<!ENTITY ns_extend "http://ns.adobe.com/Extensibility/1.0/">
	<!ENTITY ns_ai "http://ns.adobe.com/AdobeIllustrator/10.0/">
	<!ENTITY ns_graphs "http://ns.adobe.com/Graphs/1.0/">
]>
<svg version="1.1" id="t1" xmlns:x="&ns_extend;" xmlns:i="&ns_ai;" xmlns:graph="&ns_graphs;"
	 xmlns="http://www.w3.org/2000/svg" xmlns:xlink="http://www.w3.org/1999/xlink" xmlns:a="http://ns.adobe.com/AdobeSVGViewerExtensions/3.0/"
	 x="0px" y="0px" width="550px" height="550px" viewBox="0 0 550 550" enable-background="new 0 0 550 550" xml:space="preserve">
<g>
	<path fill="#FFFFFF" stroke="#000000" stroke-width="1.5" stroke-miterlimit="10" d="M276.301,58.257L58.221,274.512
		l217.464,217.423L493.15,274.471L276.301,58.257z M109.676,274.727l166.752-166.751l166.528,166.529L276.205,441.256
		L109.676,274.727z"/>
	
		<rect x="238.018" y="236.728" transform="matrix(0.7071 -0.7071 0.7071 0.7071 -113.7257 276.4575)" fill="#FFFFFF" stroke="#000000" stroke-width="1.5" stroke-miterlimit="10" width="77.666" height="77.56"/>
	<path fill="#FFFFFF" stroke="#000000" stroke-width="1.5" stroke-miterlimit="10" d="M276.368,107.867l-166.56,166.804
		l167.051,167.553l166.094-167.729L276.368,107.867z M168.329,274.391l108.674-108.675l108.53,108.53L276.859,382.921
		L168.329,274.391z"/>
	<path fill="#FFFFFF" stroke="#000000" stroke-width="1.5" stroke-miterlimit="10" d="M277.003,165.715L168.329,274.389
		l108.53,108.532l108.675-108.676L277.003,165.715z M276.854,330.386l-54.844-54.844l54.92-54.917l54.846,54.846L276.854,330.386z"
		/>
	
		<rect x="0.724" y="437.979" fill="#FFFFFF" stroke="#000000" stroke-width="1.5" stroke-miterlimit="10" width="111.408" height="111.639"/>
	
		<rect x="438.594" y="437.979" fill="#FFFFFF" stroke="#000000" stroke-width="1.5" stroke-miterlimit="10" width="111.406" height="111.639"/>
	<polygon fill="#FFFFFF" stroke="#000000" stroke-width="1.5" stroke-miterlimit="10" points="550,217.796 550,331.787 
		493.05,275.113 	"/>
	<polygon fill="#FFFFFF" stroke="#000000" stroke-width="1.5" stroke-miterlimit="10" points="0,216.098 0,332.757 58.208,274.549 	
		"/>
	<polygon fill="#FFFFFF" stroke="#000000" stroke-width="1.5" stroke-miterlimit="10" points="334.213,550 218.28,550 
		275.723,491.941 	"/>
	<polygon fill="#FFFFFF" stroke="#000000" stroke-width="1.5" stroke-miterlimit="10" points="334.783,0 218.125,0 276.334,58.209 	
		"/>
	<rect x="0.724" fill="#FFFFFF" stroke="#000000" stroke-width="1.5" stroke-miterlimit="10" width="111.408" height="111.637"/>
	<rect x="438.594" fill="#FFFFFF" stroke="#000000" stroke-width="1.5" stroke-miterlimit="10" width="111.406" height="111.637"/>
	<path fill="#FFFFFF" stroke="#000000" stroke-width="1.5" stroke-miterlimit="10" d="M438.594,111.637V0H334.279
		c-0.138,0.132-0.225,0.247-0.225,0.247L276.29,58.134l216.52,217.125c0,0,57.188-57.366,57.189-57.367l-0.231-106.254H438.594
		V111.637z"/>
	<path fill="#FFFFFF" stroke="#000000" stroke-width="1.5" stroke-miterlimit="10" d="M438.594,438.362V550H334.279
		c-0.138-0.134-0.225-0.246-0.225-0.246l-58.295-57.813l217.048-217.2c0,0,57.188,57.366,57.189,57.368l-0.231,106.252
		L438.594,438.362L438.594,438.362z"/>
	<polygon fill="#FFFFFF" stroke="#000000" stroke-width="1.5" stroke-miterlimit="10" points="111.406,438.362 111.406,550 
		218.145,550 275.67,491.936 58.221,274.574 0,332.109 0.231,438.362 	"/>
	<polygon fill="#FFFFFF" stroke="#000000" stroke-width="1.5" stroke-miterlimit="10" points="111.406,111.637 111.406,0 218.145,0 
		276.262,58.132 58.2,274.512 0,217.892 0.231,111.637 	"/>
</g>
</svg>
