<?xml version="1.0" encoding="utf-8"?>
<!-- Generator: Adobe Illustrator 16.0.0, SVG Export Plug-In . SVG Version: 6.00 Build 0)  -->
<!DOCTYPE svg PUBLIC "-//W3C//DTD SVG 1.1//EN" "http://www.w3.org/Graphics/SVG/1.1/DTD/svg11.dtd" [
	<!ENTITY ns_flows "http://ns.adobe.com/Flows/1.0/">
	<!ENTITY ns_extend "http://ns.adobe.com/Extensibility/1.0/">
	<!ENTITY ns_ai "http://ns.adobe.com/AdobeIllustrator/10.0/">
	<!ENTITY ns_graphs "http://ns.adobe.com/Graphs/1.0/">
]>
<svg version="1.1" id="t1" xmlns:x="&ns_extend;" xmlns:i="&ns_ai;" xmlns:graph="&ns_graphs;"
	 xmlns="http://www.w3.org/2000/svg" xmlns:xlink="http://www.w3.org/1999/xlink" xmlns:a="http://ns.adobe.com/AdobeSVGViewerExtensions/3.0/"
	 x="0px" y="0px" width="550px" height="550px" viewBox="25 25 550 550" enable-background="new 25 25 550 550"
	 xml:space="preserve">
<g>
	<path fill="#FFFFFF" stroke="#000000" stroke-width="1.5" stroke-miterlimit="10" d="M501.539,57.971
		c6.511,2.419,11.365-0.35,16.564-2.691c5.895-2.656,12.234-4.76,16.762-9.04c5.479-5.182,8.302-13.552,9.189-21.209h30.896V25
		H25.017v518.96c7.6-1.056,15.863-4.067,20.9-9.677c4.165-4.637,6.125-11.046,8.643-17.022c2.22-5.271,4.875-10.204,2.326-16.688
		c-1.677-4.271-5.61-9.216-3.989-10.349c0.997-0.695,4.094,0.05,6.794,0.073c2.808,0.022,5.186-0.73,7.065,0.176
		c1.264,0.611,2.303,1.976,3.18,3.549c1.751,3.145,2.856,7.136,5.779,7.564c0.605,0.092,1.287,0.027,1.965-0.025
		c6.719-0.546,12.982-0.3,19.469-0.584c-0.144,6.52,0.235,12.804-0.164,19.562c-0.04,0.682-0.088,1.369,0.014,1.974
		c0.493,2.926,4.487,3.95,7.655,5.643c1.587,0.846,2.966,1.859,3.6,3.116c0.943,1.865,0.243,4.271,0.327,7.091
		c0.082,2.709,0.889,5.802,0.218,6.818c-1.093,1.652-6.099-2.19-10.387-3.783c-6.511-2.42-11.364,0.35-16.564,2.69
		c-5.896,2.655-12.236,4.76-16.762,9.039c-5.48,5.182-8.303,14.144-9.19,21.801l-30.878,0.072h549.936v-0.086h-30.847
		c-0.89-7.659-3.711-16.03-9.19-21.211c-4.526-4.279-10.867-6.384-16.762-9.039c-5.199-2.342-10.055-5.111-16.564-2.691
		c-4.287,1.595-9.293,5.437-10.386,3.784c-0.672-1.017,0.136-4.109,0.218-6.818c0.085-2.819-0.616-5.226,0.327-7.091
		c0.635-1.257,2.014-2.271,3.599-3.116c3.17-1.692,7.164-2.719,7.656-5.643c0.103-0.604,0.054-1.29,0.014-1.974
		c-0.396-6.758-0.02-13.041-0.163-19.561c6.486,0.283,12.752,0.037,19.47,0.582c0.678,0.056,1.36,0.118,1.966,0.026
		c2.921-0.43,4.026-4.42,5.778-7.564c0.878-1.573,1.915-2.938,3.179-3.548c1.88-0.907,4.258-0.151,7.066-0.177
		c2.697-0.024,5.795-0.77,6.794-0.073c1.62,1.132-2.313,6.077-3.988,10.349c-2.548,6.484,0.106,11.417,2.326,16.688
		c2.518,5.977,4.478,12.386,8.641,17.022c5.031,5.602,13.278,8.612,20.87,9.672V55.403c-7.605,1.055-15.877,4.067-20.918,9.68
		c-4.163,4.636-6.124,11.046-8.641,17.023c-2.222,5.27-4.875,10.203-2.326,16.688c1.677,4.271,5.608,9.215,3.988,10.347
		c-1,0.696-4.097-0.048-6.795-0.073c-2.809-0.024-5.187,0.731-7.065-0.177c-1.264-0.61-2.303-1.974-3.179-3.547
		c-1.752-3.145-2.857-7.134-5.779-7.566c-0.604-0.089-1.286-0.026-1.965,0.029c-6.719,0.544-12.982,0.297-19.47,0.582
		c0.146-6.518-0.233-12.803,0.163-19.561c0.04-0.681,0.088-1.369-0.014-1.974c-0.492-2.924-4.486-3.949-7.656-5.64
		c-1.585-0.847-2.964-1.861-3.599-3.117c-0.943-1.868-0.242-4.271-0.327-7.09c-0.082-2.71-0.889-5.804-0.219-6.821
		C492.245,52.535,497.253,56.378,501.539,57.971z M25.08,25.007h30.896c0.889,7.658,3.711,16.028,9.19,21.21
		c4.527,4.28,10.867,6.384,16.762,9.04c5.2,2.341,10.054,5.112,16.564,2.691c4.288-1.593,9.294-5.436,10.386-3.785
		c0.672,1.017-0.135,4.11-0.217,6.821c-0.084,2.819,0.616,5.222-0.327,7.09c-0.635,1.256-2.015,2.27-3.6,3.116
		c-3.168,1.692-7.163,2.718-7.655,5.641c-0.102,0.605-0.054,1.292-0.014,1.974c0.399,6.758,0.02,13.042,0.164,19.561
		c-6.487-0.285-12.75-0.038-19.469-0.583c-0.677-0.055-1.36-0.118-1.965-0.028c-2.921,0.432-4.027,4.422-5.779,7.566
		c-0.877,1.575-1.916,2.938-3.179,3.547c-1.879,0.908-4.257,0.152-7.065,0.177c-2.7,0.023-5.796,0.769-6.794,0.073
		c-1.621-1.132,2.312-6.077,3.989-10.348c2.548-6.486-0.105-11.418-2.326-16.688c-2.518-5.977-4.478-12.387-8.642-17.023
		c-5.042-5.612-13.313-8.625-20.917-9.68L25.08,25.007L25.08,25.007z M573.318,191.205v213.729L407.378,573.1H193.12L26.574,408.552
		v-214.8L193.557,26.017h211.452L573.318,191.205z"/>
	<polygon fill="#FFFFFF" stroke="#000000" stroke-width="1.5" stroke-miterlimit="10" points="207.528,64.475 64.021,208.628 
		64.021,393.229 207.152,534.642 391.288,534.642 533.898,390.119 533.898,206.438 389.251,64.475 	"/>
	<polygon fill="#FFFFFF" stroke="#000000" stroke-width="1.5" stroke-miterlimit="10" points="227.967,112.689 374.861,112.689 
		491.784,227.444 491.784,375.92 376.507,492.743 227.663,492.743 111.964,378.434 111.964,229.214 	"/>
	<path fill="#FFFFFF" stroke="#000000" stroke-width="1.5" stroke-miterlimit="10" d="M405.009,26.017H193.557L26.574,193.752v214.8
		L193.12,573.1h214.258l165.94-168.164V191.206L405.009,26.017z M533.898,390.119L391.287,534.642H207.152L64.021,393.229v-184.6
		L207.528,64.475h181.723L533.898,206.44V390.119z"/>
	<path fill="#FFFFFF" stroke="#000000" stroke-width="1.5" stroke-miterlimit="10" d="M25.08,55.38
		c7.605,1.055,15.875,4.067,20.917,9.68c4.165,4.637,6.124,11.046,8.642,17.023c2.22,5.271,4.875,10.203,2.326,16.689
		c-1.677,4.271-5.61,9.215-3.989,10.347c0.997,0.696,4.095-0.048,6.794-0.073c2.808-0.025,5.185,0.73,7.065-0.177
		c1.264-0.61,2.303-1.974,3.179-3.547c1.752-3.146,2.856-7.134,5.779-7.566c0.605-0.089,1.287-0.026,1.965,0.028
		c6.719,0.544,12.982,0.297,19.469,0.583c-0.144-6.519,0.235-12.803-0.164-19.561c-0.04-0.681-0.088-1.369,0.014-1.974
		c0.492-2.924,4.487-3.949,7.655-5.641c1.586-0.847,2.965-1.86,3.6-3.116c0.943-1.868,0.243-4.271,0.327-7.09
		c0.081-2.709,0.889-5.804,0.217-6.82c-1.092-1.652-6.099,2.191-10.386,3.784c-6.511,2.419-11.365-0.35-16.564-2.691
		c-5.896-2.656-12.236-4.761-16.762-9.04c-5.48-5.182-8.302-13.552-9.19-21.21H25.08V55.38z"/>
	<path fill="#FFFFFF" stroke="#000000" stroke-width="1.5" stroke-miterlimit="10" d="M574.951,55.403
		c-7.605,1.055-15.877,4.067-20.919,9.68c-4.163,4.636-6.123,11.046-8.641,17.023c-2.221,5.27-4.875,10.203-2.325,16.688
		c1.677,4.271,5.609,9.215,3.986,10.347c-0.998,0.696-4.095-0.048-6.793-0.073c-2.809-0.024-5.187,0.731-7.065-0.177
		c-1.265-0.61-2.304-1.974-3.18-3.547c-1.752-3.145-2.856-7.134-5.778-7.566c-0.604-0.089-1.286-0.026-1.966,0.029
		c-6.718,0.544-12.981,0.297-19.469,0.582c0.145-6.518-0.233-12.803,0.163-19.561c0.04-0.681,0.088-1.369-0.014-1.974
		c-0.492-2.924-4.486-3.949-7.656-5.64c-1.585-0.847-2.964-1.861-3.599-3.117c-0.943-1.868-0.242-4.271-0.327-7.09
		c-0.082-2.71-0.89-5.804-0.218-6.821c1.093-1.652,6.1,2.191,10.386,3.784c6.511,2.419,11.365-0.35,16.563-2.691
		c5.896-2.656,12.235-4.76,16.763-9.04c5.479-5.182,8.302-13.552,9.189-21.209h30.896L574.951,55.403L574.951,55.403z"/>
	<path fill="#FFFFFF" stroke="#000000" stroke-width="1.5" stroke-miterlimit="10" d="M575,544.538
		c-7.605-1.054-15.877-4.066-20.918-9.68c-4.163-4.637-6.123-11.046-8.641-17.022c-2.221-5.271-4.874-10.204-2.326-16.689
		c1.677-4.271,5.608-9.216,3.988-10.348c-1-0.695-4.097,0.049-6.795,0.073c-2.809,0.022-5.187-0.731-7.065,0.177
		c-1.264,0.61-2.302,1.976-3.179,3.547c-1.752,3.146-2.857,7.137-5.778,7.565c-0.604,0.091-1.287,0.027-1.966-0.026
		c-6.719-0.545-12.982-0.299-19.47-0.583c0.146,6.52-0.233,12.805,0.163,19.562c0.04,0.683,0.088,1.369-0.014,1.974
		c-0.492,2.925-4.486,3.95-7.656,5.643c-1.585,0.846-2.963,1.859-3.599,3.116c-0.943,1.865-0.242,4.271-0.327,7.091
		c-0.082,2.709-0.889,5.802-0.218,6.818c1.093,1.652,6.1-2.189,10.386-3.784c6.511-2.42,11.365,0.351,16.564,2.691
		c5.896,2.655,12.234,4.761,16.762,9.04c5.479,5.181,8.302,13.551,9.189,21.209h30.896L575,544.538L575,544.538z"/>
	<path fill="#FFFFFF" stroke="#000000" stroke-width="1.5" stroke-miterlimit="10" d="M55.895,574.927
		c0.888-7.658,3.71-16.619,9.19-21.801c4.527-4.279,10.867-6.384,16.762-9.038c5.2-2.343,10.053-5.112,16.564-2.692
		c4.287,1.595,9.293,5.437,10.386,3.784c0.672-1.017-0.135-4.109-0.217-6.819c-0.084-2.818,0.616-5.225-0.327-7.091
		c-0.634-1.256-2.014-2.271-3.6-3.115c-3.167-1.692-7.162-2.719-7.655-5.643c-0.102-0.604-0.054-1.29-0.014-1.974
		c0.399-6.758,0.02-13.041,0.164-19.561c-6.487,0.283-12.75,0.037-19.469,0.582c-0.678,0.056-1.36,0.118-1.965,0.026
		c-2.921-0.43-4.027-4.42-5.779-7.565c-0.877-1.573-1.917-2.937-3.18-3.548c-1.879-0.907-4.257-0.15-7.065-0.177
		c-2.7-0.023-5.796-0.77-6.794-0.072c-1.622,1.132,2.312,6.077,3.989,10.349c2.548,6.484-0.105,11.417-2.326,16.688
		c-2.518,5.977-4.478,12.386-8.643,17.022c-5.041,5.612-13.313,8.626-20.917,9.681V575L55.895,574.927z"/>
	<path fill="#FFFFFF" stroke="#000000" stroke-width="1.5" stroke-miterlimit="10" d="M389.251,64.475H207.528L64.021,208.628
		v184.601l143.131,141.412h184.135l142.611-144.521v-183.68L389.251,64.475z M490.82,375.92L375.544,492.743H226.7l-115.698-114.31
		v-149.22l116.003-116.525H373.9l116.92,114.755V375.92z"/>
</g>
</svg>
