<?xml version="1.0" encoding="utf-8"?>
<!-- Generator: Adobe Illustrator 16.0.0, SVG Export Plug-In . SVG Version: 6.00 Build 0)  -->
<!DOCTYPE svg PUBLIC "-//W3C//DTD SVG 1.1//EN" "http://www.w3.org/Graphics/SVG/1.1/DTD/svg11.dtd" [
	<!ENTITY ns_flows "http://ns.adobe.com/Flows/1.0/">
	<!ENTITY ns_extend "http://ns.adobe.com/Extensibility/1.0/">
	<!ENTITY ns_ai "http://ns.adobe.com/AdobeIllustrator/10.0/">
	<!ENTITY ns_graphs "http://ns.adobe.com/Graphs/1.0/">
]>
<svg version="1.1" id="t1" xmlns:x="&ns_extend;" xmlns:i="&ns_ai;" xmlns:graph="&ns_graphs;"
	 xmlns="http://www.w3.org/2000/svg" xmlns:xlink="http://www.w3.org/1999/xlink" xmlns:a="http://ns.adobe.com/AdobeSVGViewerExtensions/3.0/"
	 x="0px" y="0px" width="550px" height="550px" viewBox="0 0 550 550" enable-background="new 0 0 550 550" xml:space="preserve">
<g>
	<path fill="#FFFFFF" stroke="#000000" stroke-width="1.5" stroke-miterlimit="10" d="M184.327,0L0.493,183.834l-0.007-2.511
		c-0.159,0.129-0.323,0.25-0.486,0.373v185.972L367.668,0H184.327z"/>
	<polygon fill="#FFFFFF" stroke="#000000" stroke-width="1.5" stroke-miterlimit="10" points="367.668,0 0.001,367.67 0.001,550 
		550,0 	"/>
	<path fill="#FFFFFF" stroke="#000000" stroke-width="1.5" stroke-miterlimit="10" d="M549.512,367.988
		c0.162-0.207,0.318-0.418,0.488-0.619V182.331L182.333,550h183.341l183.834-183.836L549.512,367.988z"/>
	<polygon fill="#FFFFFF" stroke="#000000" stroke-width="1.5" stroke-miterlimit="10" points="549.508,366.164 365.674,550 550,550 
			"/>
	<polygon fill="#FFFFFF" stroke="#000000" stroke-width="1.5" stroke-miterlimit="10" points="182.333,550 550,182.331 550,0 
		0.001,550 	"/>
	<polygon fill="#FFFFFF" stroke="#000000" stroke-width="1.5" stroke-miterlimit="10" points="0.493,183.834 184.327,0 0.001,0 	"/>
</g>
</svg>
