<?xml version="1.0" encoding="utf-8"?>
<!-- Generator: Adobe Illustrator 16.0.0, SVG Export Plug-In . SVG Version: 6.00 Build 0)  -->
<!DOCTYPE svg PUBLIC "-//W3C//DTD SVG 1.1//EN" "http://www.w3.org/Graphics/SVG/1.1/DTD/svg11.dtd" [
	<!ENTITY ns_flows "http://ns.adobe.com/Flows/1.0/">
	<!ENTITY ns_extend "http://ns.adobe.com/Extensibility/1.0/">
	<!ENTITY ns_ai "http://ns.adobe.com/AdobeIllustrator/10.0/">
	<!ENTITY ns_graphs "http://ns.adobe.com/Graphs/1.0/">
]>
<svg version="1.1" id="t1" xmlns:x="&ns_extend;" xmlns:i="&ns_ai;" xmlns:graph="&ns_graphs;"
	 xmlns="http://www.w3.org/2000/svg" xmlns:xlink="http://www.w3.org/1999/xlink" xmlns:a="http://ns.adobe.com/AdobeSVGViewerExtensions/3.0/"
	 x="0px" y="0px" width="550px" height="550px" viewBox="0 0 550 550" enable-background="new 0 0 550 550" xml:space="preserve">
<g>
	<polygon fill="#FFFFFF" stroke="#000000" stroke-width="1.5" stroke-miterlimit="10" points="171.775,549.973 171.787,411.809 
		410.365,548.695 277.039,415.107 412.446,278.027 277.488,141.364 410.146,0 0.021,0 0.021,454.689 168.475,549.973 0.021,549.973 
		0.021,549.994 411.661,549.994 411.641,549.973 	"/>
	<polygon fill="#FFFFFF" stroke="#000000" stroke-width="1.5" stroke-miterlimit="10" points="0,454.678 168.475,549.973 0,549.973 
			"/>
	<polyline fill="#FFFFFF" stroke="#000000" stroke-width="1.5" stroke-miterlimit="10" points="412.629,549.994 171.787,411.809 
		171.775,549.973 412.629,549.973 	"/>
	<polygon fill="#FFFFFF" stroke="#000000" stroke-width="1.5" stroke-miterlimit="10" points="411.661,549.994 277.039,415.107 
		412.446,278.027 546.635,413.732 	"/>
	<polygon fill="#FFFFFF" stroke="#000000" stroke-width="1.5" stroke-miterlimit="10" points="412.446,278.027 546.646,141.387 
		410.146,0 277.488,141.364 	"/>
	<path fill="#FFFFFF" stroke="#000000" stroke-width="1.5" stroke-miterlimit="10" d="M493.08,0.008L549.999,0H410.146
		l136.502,141.387L412.447,278.027l134.188,135.705L411.661,549.994h83.044c0.007-30.514,24.744-55.244,55.257-55.242l0.02,55.242
		H550V56.914C518.564,56.924,493.078,31.442,493.08,0.008z M549.976,330.42c-29.354,0.004-53.151-23.795-53.148-53.148
		c0.003-29.354,23.805-53.148,53.159-53.14L549.976,330.42z"/>
	<path fill="#FFFFFF" stroke="#000000" stroke-width="1.5" stroke-miterlimit="10" d="M549.985,224.131
		c-29.355-0.01-53.157,23.785-53.16,53.139c-0.003,29.354,23.796,53.153,53.148,53.149L549.985,224.131z"/>
	<path fill="#FFFFFF" stroke="#000000" stroke-width="1.5" stroke-miterlimit="10" d="M493.08,0.008
		c-0.002,31.434,25.484,56.917,56.919,56.906V0L493.08,0.008z"/>
	<path fill="#FFFFFF" stroke="#000000" stroke-width="1.5" stroke-miterlimit="10" d="M549.961,494.752
		c-30.515-0.002-55.254,24.732-55.257,55.248h55.272L549.961,494.752z"/>
</g>
</svg>
