<?xml version="1.0" encoding="utf-8"?>
<!-- Generator: Adobe Illustrator 16.0.0, SVG Export Plug-In . SVG Version: 6.00 Build 0)  -->
<!DOCTYPE svg PUBLIC "-//W3C//DTD SVG 1.1//EN" "http://www.w3.org/Graphics/SVG/1.1/DTD/svg11.dtd" [
	<!ENTITY ns_flows "http://ns.adobe.com/Flows/1.0/">
	<!ENTITY ns_extend "http://ns.adobe.com/Extensibility/1.0/">
	<!ENTITY ns_ai "http://ns.adobe.com/AdobeIllustrator/10.0/">
	<!ENTITY ns_graphs "http://ns.adobe.com/Graphs/1.0/">
]>
<svg version="1.1" id="t1" xmlns:x="&ns_extend;" xmlns:i="&ns_ai;" xmlns:graph="&ns_graphs;"
	 xmlns="http://www.w3.org/2000/svg" xmlns:xlink="http://www.w3.org/1999/xlink" xmlns:a="http://ns.adobe.com/AdobeSVGViewerExtensions/3.0/"
	 x="0px" y="0px" width="550px" height="550px" viewBox="25 25 550 550" enable-background="new 25 25 550 550"
	 xml:space="preserve">
<g>
	<path fill="#FFFFFF" stroke="#000000" stroke-width="1.5" stroke-miterlimit="10" d="M25,25v550h550V25H25z M255.828,83.167
		c1.747-1.835,5.869-3.913,9.161-3.854c3.473,0.062,6.725,1.496,10.692,3.915c3.182,1.939,5.329,4.888,7.292,7.492
		c2.312,3.065,4.137,5.903,4.555,7.065c0.248,0.687,0.604,1.658,1.083,2.08c0.636,0.56,1.336,0.634,2.175,1.192
		c0.412,0.274,1.778,2.283,1.948,2.077c1.725-2.094,4.339-3.429,7.266-3.43c-0.934,0.123-1.375-0.16-1.809-0.527
		c-0.435-0.368-0.863-0.82-1.035-1.473c-0.172-0.654-0.089-1.508-0.238-2.219c-0.147-0.711-0.524-1.277-1.329-2.79
		c-0.804-1.511-2.035-3.967-3.099-6.188c-1.066-2.22-1.964-4.204-2.508-6.14c-0.545-1.937-0.734-3.826-0.712-5.691
		c0.024-1.867,0.261-3.708,0.592-5.575c0.333-1.865,0.757-3.755,1.397-5.242c0.638-1.489,1.491-2.574,2.662-3.508
		c1.171-0.933,2.661-1.711,6.079-1.995c3.418,0.284,4.908,1.063,6.08,1.995c1.17,0.934,2.021,2.019,2.66,3.508
		c0.639,1.488,1.065,3.377,1.396,5.242c0.332,1.867,0.568,3.708,0.592,5.575c0.024,1.866-0.166,3.754-0.709,5.691
		c-0.545,1.937-1.442,3.921-2.509,6.14c-1.064,2.221-2.296,4.677-3.101,6.188c-0.804,1.512-1.183,2.079-1.328,2.79
		c-0.147,0.711-0.063,1.565-0.237,2.219c-0.173,0.653-0.6,1.105-1.035,1.473c-0.433,0.367-0.875,0.65-1.81,0.527
		c3.006,0,5.683,1.409,7.402,3.602c0.132,0.167,1.286-2.197,3.084-2.809c0.2-0.068,1.225-0.734,1.43-1.509
		c0.124-0.472,6.413-11.723,11.887-15.333c3.785-2.496,8.09-4.782,11.563-4.404c6.739,0.734,10.356,4.806,10.6,7.707
		c0.186,2.202-0.467,4.862-1.839,7.095c-1.633,2.66-4.656,5.078-6.065,6.239c-2.571,2.121-5.557,5.138-21.937,4.464
		c-3.002-0.123-2.859,0.795-3.8,1.346c-0.8,0.469-3.313,0.198-3.269,0.367c0.214,0.786,0.344,1.762,0.344,2.615
		c0,5.182-4.207,9.383-9.398,9.383c-5.19,0-9.4-4.202-9.4-9.383c0-0.896,0.125-1.761,0.359-2.583
		c0.081-0.283-2.145,0.171-3.084-0.521c-1.723-1.271-2.544-1.164-2.9-1.203c-0.756-0.081-10.534,0.761-16.708-0.999
		c-1.93-0.55-8.035-3.677-11.305-8.318C253.409,90.415,253.004,86.135,255.828,83.167z M129.071,185.645
		c0.361-3.888,1.154-7.414,2.921-11.339c1.768-3.923,4.508-8.243,7.176-11.733c2.669-3.493,5.265-6.157,8.438-8.028
		c3.173-1.874,6.923-2.954,10.607-3.634c3.682-0.684,7.297-0.967,10.623-0.935c3.327,0.033,6.364,0.382,9.051,1.315
		c2.688,0.934,5.024,2.45,7.683,4.344c2.658,1.896,5.637,4.171,7.71,6.59c2.075,2.42,3.243,4.985,4.09,8.427
		c0.847,3.44,1.372,7.755,1.285,11.313c-0.087,3.558-0.789,6.358-1.985,8.982c-1.198,2.623-2.893,5.072-5.36,7.564
		c-2.469,2.493-5.71,5.03-12.359,6.801c4.618-3.622,6.761-8.396,7.284-12.813c0.521-4.415-0.578-8.476-1.731-11.822
		c-1.155-3.348-2.363-5.979-4.782-7.572c-2.418-1.59-6.046-2.139-9.62-1.865c-3.573,0.274-7.089,1.371-9.784,3.237
		c-2.694,1.865-4.562,4.5-5.771,7.9c-1.21,3.403-1.759,7.572-1.375,11.084c0.384,3.513,1.704,6.364,3.573,9.328
		c1.869,2.963,4.287,6.035,7.311,8.285c3.022,2.248,6.65,3.675,10.389,4.498c3.738,0.823,7.584,1.042,11.487,0.768
		c3.902-0.274,7.861-1.042,11.763-2.908c3.902-1.865,7.749-4.829,10.817-7.652c3.069-2.825,5.356-5.509,7.172-7.843
		c1.815-2.333,3.159-4.317,4.035-5.542c0.876-1.225,1.286-1.691,1.074-2.428c-0.21-0.737-1.043-1.746-2.217-3.005
		c-1.172-1.26-2.686-2.77-4.421-5.17c-1.736-2.4-3.696-5.688-5.431-9.2c-1.736-3.509-3.25-7.243-4.273-10.976
		c-1.024-3.733-1.559-7.466-1.604-11.6c-0.045-4.133,0.4-8.666,1.158-12.399c0.756-3.733,1.824-6.666,3.635-9.781
		c1.811-3.116,4.363-6.414,6.468-8.866c2.104-2.45,3.76-4.058,4.943-5.214c1.183-1.158,1.893-1.866,2.153-2.882
		c0.261-1.016,0.071-2.339-0.427-4.133c-0.497-1.794-1.302-4.062-2.129-6.023c-0.829-1.96-1.68-3.612-2.745-4.984
		c-1.065-1.37-2.342-2.456-4.046-3.542c-1.703-1.087-3.832-2.173-6.222-2.716c-2.39-0.543-5.04-0.543-7.642-0.142
		c-2.603,0.402-5.159,1.205-7.168,2.315c-2.012,1.109-3.479,2.528-4.425,4.346c-0.947,1.818-1.373,4.039-1.302,6.094
		c0.071,2.056,0.639,3.943,1.539,5.503c0.899,1.559,2.129,2.788,4.068,3.59c1.94,0.803,4.59,1.181,6.696,1.04
		c2.104-0.143,3.666-0.804,5.228-2.055c1.562-1.252,3.124-3.095,5.253-11.172c1.277,1.842,1.49,4.18,1.502,6.317
		c0.012,2.138-0.177,4.074-0.593,5.933c-0.416,1.858-1.059,3.64-2.27,5.24c-1.211,1.602-2.993,3.023-5.397,4.001
		c-2.404,0.978-5.431,1.51-8.504,1.688c-3.071,0.178-6.188,0-9.082-1.2c-2.894-1.2-5.566-3.423-7.39-6.4
		c-1.825-2.977-2.805-6.711-3.294-10.221c-0.49-3.511-0.49-6.801,0.132-9.645c0.624-2.844,1.871-5.243,3.518-7.554
		c1.647-2.312,3.695-4.534,5.85-6.391c2.154-1.855,4.415-3.346,8.598-4.159c4.184-0.813,10.291-0.948,14.948-0.432
		c4.657,0.516,7.863,1.681,10.692,3.46c2.831,1.778,5.284,4.17,7.182,6.618c1.898,2.449,3.243,4.956,4.119,7.64
		c0.876,2.682,1.285,5.54,1.751,7.582c0.468,2.041,0.993,3.266,1.754,3.587c0.759,0.32,1.752-0.263,4.177-0.787
		c2.425-0.525,6.28-0.992,9.785-1.167c3.505-0.174,6.66-0.058,9.698,0.612c3.038,0.672,5.958,1.896,8.676,3.411
		c2.715,1.517,5.228,3.325,7.565,5.481c2.337,2.158,4.499,4.667,6.163,7.436c1.665,2.77,2.833,5.803,3.447,9.855
		c0.614,4.055,0.673,9.127,0.205,13.209c-0.469,4.082-1.461,7.173-3.125,9.944c-1.665,2.771-4.002,5.219-7.537,7.844
		c-3.534,2.625-8.266,5.422-20.36,4.723c5.083-1.749,8.5-4.373,10.822-7.084c2.323-2.711,3.549-5.511,4.046-8.748
		c0.498-3.236,0.263-6.911-0.321-9.972s-1.519-5.511-2.746-7.435c-1.227-1.926-2.745-3.325-5.14-4.141
		c-2.395-0.817-5.667-1.051-8.676-0.731c-3.008,0.321-5.754,1.195-8.412,2.624c-2.659,1.43-5.228,3.412-7.156,5.424
		c-1.929,2.011-3.213,4.054-3.769,7.232c-0.554,3.178-0.38,7.493,0.264,11.167c0.642,3.675,1.752,6.708,3.593,9.593
		c1.84,2.886,4.41,5.627,7.36,8.224c2.951,2.594,6.28,5.043,9.64,6.792c3.36,1.751,6.748,2.8,10.6,3.199
		c3.853,0.399,8.167,0.149,12.126-0.36c3.959-0.508,7.562-1.273,10.877-2.861c3.316-1.588,6.344-3.998,10.56-8.131
		c4.217-4.133,9.621-9.985,16.75-19.628c0.828,5.256,0.741,7.968,0.375,10.55c-0.364,2.58-1.006,5.028-1.444,6.662
		c-0.438,1.633-0.673,2.45-0.556,3.12c0.118,0.67,0.584,1.195,1.899,2.012c1.314,0.815,3.476,1.924,5.87,3.003
		c2.396,1.079,5.024,2.127,8.268,2.887c3.242,0.757,7.098,1.223,11.245,1.399c4.148,0.174,8.589,0.058,12.27-0.495
		c3.681-0.554,6.602-1.547,9.846-3.674c3.241-2.128,6.805-5.395,9.258-8.487c2.454-3.09,3.798-6.006,4.499-9.768
		c0.701-3.76,0.759-8.368,0.293-12.333c-0.469-3.965-1.46-7.29-2.979-9.914c-1.521-2.624-3.563-4.548-5.988-5.859
		c-2.425-1.313-5.229-2.014-8.384-2.042c-3.153-0.029-6.658,0.612-9.58,1.896c-2.921,1.284-5.257,3.208-6.719,6.182
		c-1.46,2.974-2.044,6.998-2.088,10.133c-0.044,3.135,0.452,5.382,2.005,8.319c1.554,2.937,4.16,6.564,13.634,11.46
		c-9.089,0.216-13.956-1.621-17.473-3.546c-3.517-1.926-5.68-3.943-7.591-6.426c-1.911-2.484-3.571-5.437-4.761-8.891
		c-1.188-3.457-1.911-7.416-1.838-11.229c0.07-3.816,0.937-7.488,2.449-11.088c1.517-3.601,3.68-7.127,6.455-10.188
		c2.778-3.06,6.167-5.652,9.559-7.416c3.389-1.763,6.778-2.699,11.937-3.275c5.158-0.577,12.08-0.793,21.384,2.231
		c-0.864-3.455,0-7.45,1.3-10.853c1.298-3.403,3.028-6.21,5.085-8.837c2.055-2.627,4.436-5.076,7.537-6.876
		c3.102-1.797,6.923-2.951,10.927-3.563c4.003-0.612,8.188-0.684,11.828-0.108c3.644,0.577,6.744,1.8,9.629,3.817
		c2.884,2.014,5.554,4.822,7.5,7.882c1.948,3.06,3.173,6.372,3.643,10.115c0.47,3.745,0.182,7.92-0.829,11.268
		c-1.011,3.347-2.74,5.868-4.651,7.956c-1.912,2.087-4.003,3.744-7.395,4.607c-3.389,0.865-8.076,0.936-11.323,0.432
		c-3.244-0.503-5.048-1.584-6.671-3.06c-1.623-1.476-3.064-3.349-4.436-5.904c-1.369-2.556-2.669-5.794-0.505-14.219
		c0.865,3.456,1.406,5.508,2.507,7.47c1.099,1.962,2.758,3.833,4.777,4.841c2.021,1.007,4.398,1.153,6.49,0.972
		c2.093-0.181,3.896-0.683,5.302-1.656c1.406-0.972,2.416-2.412,3.138-4.463c0.72-2.053,1.154-4.717,0.938-6.769
		c-0.218-2.051-1.083-3.491-2.669-5.147c-1.587-1.654-3.896-3.527-6.636-4.535s-5.914-1.153-8.907-0.756s-5.805,1.333-8.438,3.06
		c-2.633,1.729-5.085,4.249-6.672,6.73c-1.586,2.485-2.309,4.932-2.74,6.912c-0.434,1.98-0.576,3.492-0.251,4.716
		c0.324,1.225,1.117,2.16,2.452,3.456c1.333,1.296,3.208,2.953,5.228,5.077c2.021,2.123,4.186,4.715,5.879,7.882
		c1.694,3.168,2.92,6.911,3.933,11.411c1.008,4.5,1.803,9.756,1.44,14.867c-0.359,5.112-1.875,10.08-3.268,13.847
		c-1.395,3.766-2.664,6.331-5.287,10.058c-2.624,3.726-6.599,8.615-9.743,13.237c3.029,7.776,8.006,12.635,11.938,16.145
		c3.932,3.509,6.815,5.669,9.917,7.29c3.102,1.619,6.419,2.7,10.134,3.239s7.824,0.539,11.358,0.072
		c3.534-0.467,6.491-1.404,9.09-2.772c2.595-1.366,4.831-3.167,6.742-5.039c1.911-1.872,3.498-3.816,4.904-6.408
		c1.407-2.591,2.632-5.832,3.138-9.035c0.506-3.204,0.287-6.371-0.47-9.107c-0.757-2.737-2.056-5.04-3.533-6.985
		c-1.479-1.943-3.138-3.526-5.338-4.5c-2.2-0.972-4.938-1.332-7.465-1.296c-2.522,0.036-4.832,0.468-6.995,1.367
		c-2.164,0.901-4.184,2.268-5.554,4.175c-1.37,1.909-2.092,4.356-2.453,7.308c-0.359,2.953-0.359,6.407-0.271,9.382
		c0.091,2.975,0.27,5.469,6.13,10.823c-5.275-1.317-8.078-2.964-10.745-5.597c-2.666-2.633-5.194-6.254-6.68-10.095
		c-1.482-3.841-1.923-7.902-1.373-11.961c0.55-4.061,2.089-8.12,4.563-11.962c2.473-3.839,5.882-7.461,9.453-9.82
		c3.574-2.359,7.312-3.456,11.049-4.06c3.737-0.603,7.477-0.713,11.214-0.329s7.475,1.262,11.213,2.907
		c3.736,1.646,7.477,4.061,10.389,6.913c2.913,2.854,5.004,6.146,6.979,10.151c1.98,4.006,3.848,8.724,4.728,13.278
		c0.879,4.553,0.771,8.943,0.109,13.333c-0.66,4.388-1.869,8.778-3.957,12.783c-2.09,4.006-5.058,7.627-8.245,11.139
		c-3.188,3.511-6.597,6.914-10.058,9.437c-3.463,2.524-6.979,4.171-11.104,5.269c-4.12,1.097-8.849,1.646-14.594,1.92
		c-5.742,0.274-12.504,0.274-25.312-7.09c0.283,3.968,0.069,6.873-0.392,9.602s-1.17,5.279-2.117,7.568
		c-0.946,2.292-2.13,4.322-3.82,6.649c-1.692,2.326-3.893,4.947-9.996,8.631c-0.142,5.244,0,8.148,0.545,10.357
		c0.544,2.208,1.49,3.721,2.579,5.185c1.088,1.463,2.318,2.881,3.855,4.087c1.538,1.204,3.385,2.195,5.467,2.809
		c2.082,0.615,4.399,0.852,6.577,0.803c2.177-0.046,4.212-0.377,5.75-0.849c1.535-0.474,2.578-1.087,3.59-2.072
		c1.01-0.989,1.989-2.347,2.713-4.061c0.72-1.712,1.18-3.779,1.083-5.807c-0.098-2.028-0.747-4.017-1.688-5.49
		c-0.941-1.474-2.173-2.429-3.938-3.023c-1.767-0.594-4.065-0.824-6.04-0.69c-1.975,0.134-3.622,0.632-5.224,1.712
		c-1.6,1.082-3.151,2.745-4.814,8.732c-1.298-3.023-0.864-6.803,0.107-9.629c0.975-2.826,2.488-4.698,4.363-6.209
		c1.875-1.512,4.11-2.664,6.094-3.312c1.984-0.648,3.716-0.793,5.625-0.648c1.912,0.145,4.005,0.577,6.097,1.332
		c2.093,0.755,4.184,1.835,6.021,3.491c1.839,1.657,3.427,3.888,4.58,7.128c1.155,3.24,1.875,7.486,1.875,10.871
		c0,3.385-0.72,5.904-2.02,8.459c-1.298,2.557-3.174,5.148-5.336,7.308c-2.164,2.161-4.617,3.888-7.142,5.003
		c-2.523,1.116-5.121,1.621-8.043,1.834c-2.92,0.215-6.166,0.145-9.591-0.646c-3.426-0.794-7.033-2.305-10.134-4.141
		c-3.102-1.835-5.698-3.996-8.351-7.776c-2.648-3.779-5.354-9.18-5.794-19.209c-5.607,1.224-10.776,0.875-15.67-0.467
		c-4.894-1.342-9.508-3.673-12.839-6.444c-3.33-2.771-5.375-5.978-6.775-9.535c-1.403-3.556-2.161-7.463-2.074-10.992
		c0.088-3.528,1.021-6.676,2.542-9.825c1.519-3.15,3.622-6.299,6.427-8.457c2.804-2.158,6.31-3.324,9.259-3.907
		c2.951-0.584,5.346-0.584,8.34-0.059c2.994,0.524,6.586,1.576,13.772,11.371c-2.608-2.819-4.752-3.807-7.252-4.3
		c-2.502-0.493-5.359-0.493-8.107,0.329c-2.749,0.823-5.387,2.468-7.2,4.829c-1.813,2.36-2.804,5.432-2.639,8.34
		s1.485,5.65,3.298,7.736c1.814,2.085,4.122,3.511,6.598,4.114c2.472,0.603,5.11,0.384,7.859-0.275
		c2.747-0.659,5.605-1.754,8.244-4.004c2.638-2.25,5.058-5.652,6.431-9.438c1.374-3.786,1.703-7.956,1.154-11.741
		c-0.55-3.788-1.979-7.188-3.957-10.152c-1.979-2.962-4.508-5.486-7.585-8.011c-3.077-2.523-6.705-5.047-10.058-6.143
		c-3.354-1.099-6.434-0.77-10.279-0.495c-3.847,0.273-8.464,0.495-13.465-0.055c-5.003-0.549-10.389-1.865-15.172-3.622
		c-4.781-1.754-8.958-3.95-12.351-6.486c-3.392-2.535-5.995-5.412-7.501-6.99c-1.502-1.576-1.906-1.856-3.123-0.923
		c-1.216,0.933-3.244,3.078-5.633,4.948c-2.39,1.874-5.141,3.473-8.177,5.064c-3.035,1.592-6.352,3.176-9.886,4.545
		c-3.534,1.367-7.285,2.52-12.575,3.052c-5.292,0.532-12.123,0.446-16.563,0.404c-4.44-0.044-6.488-0.044-8.27,0.354
		c-1.78,0.4-3.294,1.2-5.386,2.667c-2.093,1.466-4.764,3.6-7.079,5.822c-2.315,2.224-4.274,4.534-5.833,7.155
		c-1.558,2.622-2.716,5.556-3.206,8.8c-0.489,3.244-0.312,6.8,0.534,10.044c0.846,3.243,2.36,6.177,4.095,8.443
		c1.737,2.266,3.696,3.867,6.1,5.156c2.404,1.289,5.253,2.266,7.881,2.355c2.626,0.089,5.03-0.71,7.124-1.823
		c2.092-1.11,3.873-2.533,5.209-4.354c1.335-1.823,2.226-4.045,2.334-6.41c0.108-2.365-0.566-4.873-1.703-6.901
		c-1.138-2.028-2.74-3.576-4.885-4.549c-2.146-0.976-4.838-1.376-7.862-1.107c-3.024,0.27-6.382,1.212-10.346,4.075
		c1.515-3.456,2.813-5.615,4.599-7.3c1.786-1.682,4.061-2.89,6.627-3.768c2.565-0.879,5.423-1.426,8.611-1.208
		c3.188,0.22,6.705,1.208,9.563,3.018c2.859,1.811,5.058,4.445,6.706,7.299c1.649,2.853,2.749,5.925,3.132,9.491
		c0.386,3.567,0.056,7.626-0.824,11.303c-0.878,3.674-2.308,6.967-4.452,9.656c-2.145,2.688-5.002,4.772-9.234,6.967
		c-4.231,2.194-9.838,4.5-21.769,2.171c-0.175,6.823-1.139,10.759-2.351,14.099c-1.212,3.339-2.674,6.079-4.572,8.323
		c-1.899,2.246-4.235,3.996-6.747,5.542c-2.512,1.544-5.2,2.886-8.618,3.613c-3.417,0.729-7.566,0.847-11.508,0.176
		c-3.943-0.671-7.683-2.129-10.925-3.966c-3.242-1.837-5.988-4.052-7.945-6.648c-1.958-2.593-3.125-5.568-3.739-8.892
		c-0.613-3.323-0.671-6.999-0.409-9.651c0.264-2.653,0.847-4.286,1.986-6.065c1.139-1.779,2.833-3.703,4.995-5.395
		c2.162-1.691,4.791-3.149,7.39-3.877c2.599-0.728,5.169-0.728,7.492-0.429c2.323,0.301,4.395,0.898,6.161,1.869
		c1.764,0.97,3.221,2.309,4.458,3.402c1.237,1.095,2.254,1.944,3.045,4.043c0.791,2.1,1.357,5.452,0.115,10.694
		c-0.567-3.542-0.923-4.888-1.692-6.199c-0.769-1.312-1.952-2.586-3.514-3.531c-1.561-0.945-3.501-1.56-5.11-1.819
		c-1.608-0.26-2.886-0.164-4.258,0.167c-1.373,0.331-2.839,0.896-4.094,2.197c-1.253,1.298-2.295,3.329-2.863,5.219
		c-0.568,1.888-0.662,3.637-0.544,5.29c0.118,1.652,0.45,3.212,1.585,4.771c1.135,1.559,3.076,3.118,5.277,4.085
		c2.2,0.968,4.661,1.346,6.624,1.393c1.964,0.049,3.432-0.236,5.253-0.943c1.821-0.709,3.998-1.843,5.938-3.307
		c1.94-1.464,3.644-3.258,5.134-5.431c1.491-2.173,2.768-4.723,2.099-13.346c-4.76-2.809-7.682-6.696-10.386-11.177
		c-2.705-4.481-5.193-9.559-7.14-20.142c-4.976,3.456-9.412,4.212-13.686,4.841c-4.272,0.63-8.384,1.135-12.748,0.882
		c-4.363-0.252-8.979-1.26-13.415-2.988c-4.436-1.729-8.691-4.177-12.226-6.805c-3.534-2.627-6.347-5.435-8.943-8.459
		c-2.597-3.024-4.977-6.262-6.745-9.97c-1.766-3.708-2.92-7.884-3.533-12.095C128.783,193.78,128.711,189.533,129.071,185.645z
		 M120.292,314.23c-0.284-0.08,0.171,2.143-0.523,3.08c-1.273,1.719-1.166,2.539-1.205,2.895
		c-0.082,0.754,0.762,10.516-1.001,16.678c-0.551,1.928-3.684,8.021-8.333,11.285c-5.055,3.548-9.342,3.952-12.316,1.132
		c-1.838-1.743-3.919-5.858-3.86-9.146c0.062-3.467,1.499-6.713,3.921-10.674c1.942-3.176,4.896-5.318,7.505-7.277
		c3.071-2.307,5.913-4.13,7.078-4.547c0.688-0.247,1.661-0.604,2.083-1.081c0.561-0.636,0.635-1.333,1.195-2.173
		c0.275-0.41,2.288-1.772,2.081-1.943c-2.098-1.721-3.435-4.331-3.436-7.253c0.124,0.933-0.16,1.374-0.528,1.806
		c-0.368,0.436-0.821,0.86-1.475,1.034c-0.655,0.17-1.511,0.088-2.223,0.236c-0.713,0.146-1.279,0.524-2.795,1.327
		c-1.514,0.804-3.974,2.031-6.199,3.094c-2.224,1.063-4.21,1.961-6.151,2.504c-1.94,0.545-3.833,0.732-5.701,0.711
		c-1.871-0.023-3.716-0.261-5.585-0.592c-1.869-0.33-3.762-0.756-5.252-1.395c-1.491-0.637-2.579-1.488-3.514-2.656
		s-1.715-2.655-2-6.068c0.285-3.411,1.065-4.899,2-6.068c0.935-1.168,2.022-2.019,3.514-2.656c1.492-0.637,3.383-1.064,5.252-1.394
		c1.87-0.332,3.714-0.566,5.585-0.59c1.868-0.024,3.761,0.165,5.701,0.708s3.928,1.442,6.151,2.504
		c2.226,1.063,4.685,2.291,6.199,3.096c1.515,0.801,2.083,1.18,2.795,1.326s1.568,0.064,2.223,0.236
		c0.654,0.172,1.107,0.6,1.475,1.033c0.368,0.434,0.651,0.873,0.528,1.806c0-3.001,1.412-5.672,3.608-7.39
		c0.167-0.131-2.201-1.283-2.814-3.078c-0.068-0.202-0.735-1.223-1.512-1.427c-0.472-0.125-11.744-6.402-15.36-11.866
		c-2.5-3.778-4.79-8.075-4.412-11.54c0.735-6.729,4.815-10.339,7.721-10.582c2.206-0.184,4.87,0.466,7.108,1.835
		c2.665,1.632,5.086,4.649,6.25,6.056c2.125,2.568,5.147,5.546,4.472,21.897c-0.123,2.996,0.796,2.855,1.348,3.792
		c0.47,0.799,0.198,3.308,0.368,3.262c0.787-0.213,1.766-0.342,2.62-0.342c5.191,0,9.4,4.2,9.4,9.383c0,5.182-4.209,9.383-9.4,9.383
		C121.982,314.59,121.115,314.465,120.292,314.23z M344.134,525.056c-1.745,1.835-5.868,3.912-9.16,3.854
		c-3.473-0.063-6.725-1.497-10.691-3.915c-3.183-1.938-5.328-4.888-7.292-7.492c-2.312-3.064-4.136-5.903-4.556-7.064
		c-0.246-0.688-0.604-1.658-1.083-2.079c-0.636-0.562-1.336-0.636-2.176-1.193c-0.411-0.273-1.776-2.283-1.946-2.077
		c-1.726,2.095-4.339,3.431-7.267,3.432c0.934-0.123,1.375,0.159,1.809,0.526c0.437,0.367,0.863,0.819,1.035,1.474
		c0.172,0.653,0.088,1.508,0.237,2.218c0.147,0.712,0.524,1.276,1.329,2.79c0.805,1.512,2.035,3.968,3.1,6.188
		c1.065,2.22,1.965,4.203,2.509,6.141c0.545,1.937,0.733,3.825,0.712,5.689c-0.024,1.867-0.262,3.709-0.594,5.576
		c-0.332,1.865-0.756,3.755-1.396,5.242c-0.639,1.487-1.491,2.573-2.662,3.508c-1.17,0.933-2.66,1.712-6.078,1.996
		c-3.417-0.284-4.909-1.063-6.079-1.996c-1.171-0.935-2.023-2.021-2.661-3.508c-0.638-1.488-1.067-3.377-1.397-5.242
		c-0.333-1.867-0.568-3.709-0.591-5.576c-0.024-1.864,0.166-3.754,0.709-5.689c0.545-1.938,1.444-3.922,2.509-6.141
		c1.066-2.222,2.295-4.677,3.1-6.188c0.803-1.513,1.183-2.078,1.33-2.79c0.147-0.71,0.063-1.564,0.236-2.218s0.6-1.105,1.037-1.474
		c0.432-0.367,0.874-0.649,1.809-0.526c-3.006,0-5.683-1.409-7.403-3.603c-0.132-0.167-1.287,2.197-3.083,2.809
		c-0.202,0.069-1.226,0.734-1.429,1.51c-0.125,0.473-6.414,11.724-11.888,15.333c-3.785,2.495-8.089,4.78-11.561,4.402
		c-6.74-0.732-10.358-4.806-10.6-7.706c-0.184-2.201,0.467-4.861,1.838-7.096c1.633-2.659,4.657-5.077,6.066-6.239
		c2.572-2.12,5.556-5.138,21.937-4.464c3.001,0.123,2.859-0.795,3.799-1.346c0.8-0.469,3.314-0.197,3.268-0.367
		c-0.214-0.786-0.343-1.763-0.343-2.614c0-5.183,4.208-9.384,9.399-9.384c5.189,0,9.4,4.201,9.4,9.384
		c0,0.896-0.126,1.763-0.36,2.582c-0.08,0.283,2.146-0.171,3.085,0.522c1.723,1.271,2.543,1.163,2.899,1.202
		c0.756,0.081,10.534-0.763,16.708,0.999c1.93,0.55,8.035,3.677,11.305,8.318C346.555,517.808,346.958,522.087,344.134,525.056z
		 M473.517,424.222c-0.879,4.555-2.747,9.272-4.727,13.277c-1.978,4.005-4.067,7.297-6.98,10.15
		c-2.911,2.854-6.649,5.268-10.388,6.912c-3.738,1.646-7.475,2.523-11.213,2.908c-3.737,0.383-7.476,0.272-11.214-0.329
		c-3.737-0.604-7.476-1.701-11.049-4.061c-3.571-2.359-6.98-5.98-9.453-9.821c-2.475-3.841-4.013-7.899-4.563-11.96
		c-0.55-4.062-0.108-8.121,1.373-11.961c1.483-3.841,4.014-7.462,6.68-10.097c2.667-2.633,5.47-4.279,10.745-5.598
		c-5.86,5.356-6.04,7.85-6.131,10.824c-0.089,2.975-0.089,6.431,0.271,9.382c0.359,2.952,1.081,5.4,2.452,7.308
		c1.37,1.908,3.39,3.274,5.554,4.176c2.163,0.9,4.472,1.333,6.995,1.368c2.524,0.036,5.265-0.324,7.465-1.296
		c2.2-0.974,3.858-2.557,5.338-4.501c1.479-1.942,2.776-4.246,3.533-6.983c0.757-2.736,0.974-5.903,0.47-9.104
		c-0.507-3.205-1.73-6.446-3.138-9.037s-2.993-4.534-4.904-6.407c-1.911-1.872-4.146-3.672-6.743-5.04
		c-2.597-1.367-5.555-2.303-9.089-2.771c-3.535-0.468-7.645-0.468-11.358,0.072c-3.715,0.54-7.032,1.62-10.135,3.24
		c-3.101,1.619-5.985,3.779-9.917,7.289c-3.931,3.509-8.906,8.37-11.937,16.145c3.145,4.624,7.12,9.513,9.743,13.238
		s3.895,6.291,5.287,10.059c1.393,3.766,2.906,8.732,3.268,13.846c0.361,5.111-0.433,10.367-1.441,14.867
		c-1.011,4.498-2.236,8.242-3.933,11.41c-1.694,3.166-3.858,5.76-5.878,7.885c-2.021,2.123-3.896,3.778-5.229,5.074
		c-1.335,1.297-2.129,2.232-2.452,3.456c-0.324,1.225-0.182,2.735,0.252,4.718c0.433,1.979,1.153,4.427,2.74,6.909
		c1.586,2.484,4.038,5.005,6.672,6.731c2.634,1.729,5.444,2.664,8.438,3.063c2.993,0.395,6.167,0.25,8.907-0.758
		c2.741-1.008,5.048-2.88,6.636-4.535c1.586-1.655,2.452-3.095,2.668-5.146c0.218-2.053-0.216-4.718-0.938-6.769
		c-0.722-2.053-1.73-3.492-3.137-4.465c-1.407-0.973-3.21-1.475-5.302-1.655s-4.472-0.034-6.491,0.972
		c-2.02,1.009-3.679,2.882-4.776,4.842c-1.102,1.962-1.643,4.016-2.508,7.47c-2.162-8.423-0.865-11.661,0.506-14.218
		c1.369-2.556,2.813-4.428,4.436-5.902c1.623-1.478,3.427-2.559,6.671-3.062c3.246-0.504,7.936-0.432,11.324,0.432
		c3.389,0.864,5.48,2.521,7.393,4.607c1.911,2.088,3.644,4.607,4.652,7.957c1.009,3.348,1.298,7.523,0.829,11.267
		c-0.469,3.742-1.694,7.056-3.644,10.115c-1.946,3.061-4.615,5.868-7.5,7.884c-2.885,2.018-5.984,3.24-9.629,3.816
		c-3.642,0.575-7.824,0.504-11.827-0.109c-4.004-0.61-7.824-1.764-10.928-3.563c-3.101-1.801-5.479-4.25-7.537-6.877
		c-2.056-2.627-3.785-5.435-5.085-8.837c-1.299-3.401-2.164-7.397-1.299-10.854c-9.304,3.024-16.227,2.81-21.385,2.231
		c-5.156-0.574-8.547-1.511-11.937-3.274c-3.391-1.765-6.778-4.354-9.558-7.416c-2.776-3.061-4.938-6.588-6.455-10.188
		c-1.514-3.601-2.379-7.271-2.45-11.088c-0.072-3.814,0.647-7.776,1.838-11.231c1.191-3.455,2.851-6.408,4.762-8.892
		c1.911-2.484,4.073-4.499,7.591-6.426c3.516-1.926,8.385-3.761,17.471-3.545c-9.472,4.896-12.079,8.521-13.632,11.458
		c-1.553,2.938-2.05,5.186-2.005,8.32c0.044,3.136,0.628,7.16,2.088,10.133c1.46,2.976,3.797,4.899,6.718,6.182
		c2.922,1.283,6.428,1.925,9.581,1.896c3.155-0.028,5.959-0.729,8.383-2.039c2.427-1.313,4.471-3.238,5.988-5.861
		c1.521-2.624,2.512-5.947,2.979-9.913c0.467-3.967,0.407-8.572-0.292-12.334c-0.701-3.763-2.045-6.678-4.499-9.769
		c-2.453-3.091-6.019-6.355-9.26-8.485c-3.242-2.128-6.163-3.119-9.845-3.673c-3.68-0.554-8.119-0.672-12.269-0.496
		c-4.146,0.176-8.003,0.642-11.245,1.399c-3.242,0.757-5.871,1.808-8.269,2.888c-2.395,1.079-4.555,2.187-5.868,3.003
		c-1.316,0.814-1.782,1.342-1.9,2.013c-0.116,0.67,0.117,1.485,0.555,3.118c0.438,1.634,1.081,4.081,1.445,6.662
		c0.365,2.582,0.453,5.292-0.375,10.549c-7.129-9.643-12.534-15.495-16.75-19.629c-4.216-4.133-7.245-6.544-10.56-8.131
		c-3.315-1.589-6.918-2.354-10.877-2.86c-3.958-0.51-8.273-0.761-12.125-0.361c-3.853,0.399-7.241,1.448-10.6,3.199
		c-3.36,1.749-6.689,4.197-9.639,6.793c-2.952,2.596-5.521,5.337-7.361,8.224c-1.842,2.886-2.951,5.917-3.593,9.592
		c-0.642,3.675-0.817,7.989-0.264,11.168c0.555,3.179,1.84,5.22,3.769,7.23c1.929,2.013,4.498,3.995,7.157,5.424
		c2.658,1.429,5.403,2.305,8.411,2.626c3.009,0.319,6.281,0.087,8.677-0.729c2.396-0.816,3.914-2.217,5.14-4.142
		c1.228-1.925,2.162-4.374,2.746-7.436s0.818-6.735,0.321-9.974c-0.497-3.234-1.723-6.033-4.046-8.745
		c-2.322-2.714-5.739-5.338-10.822-7.086c12.093-0.699,16.825,2.101,20.36,4.723c3.534,2.625,5.871,5.075,7.537,7.844
		c1.666,2.771,2.658,5.861,3.125,9.943c0.467,4.082,0.409,9.156-0.205,13.21c-0.614,4.054-1.781,7.086-3.447,9.854
		c-1.665,2.771-3.826,5.277-6.164,7.437c-2.336,2.157-4.849,3.965-7.564,5.48c-2.717,1.517-5.638,2.741-8.677,3.411
		c-3.039,0.672-6.192,0.787-9.698,0.612c-3.504-0.175-7.36-0.642-9.785-1.166c-2.424-0.524-3.417-1.108-4.176-0.788
		c-0.759,0.32-1.286,1.545-1.754,3.587c-0.467,2.042-0.875,4.898-1.752,7.581c-0.877,2.684-2.221,5.191-4.119,7.64
		c-1.899,2.449-4.352,4.842-7.182,6.62c-2.831,1.778-6.036,2.943-10.692,3.461c-4.657,0.516-10.764,0.379-14.948-0.434
		c-4.183-0.813-6.444-2.303-8.598-4.159c-2.155-1.854-4.203-4.078-5.85-6.388c-1.648-2.313-2.895-4.711-3.518-7.557
		c-0.623-2.845-0.623-6.134-0.133-9.644c0.489-3.512,1.469-7.245,3.294-10.223c1.824-2.979,4.496-5.198,7.39-6.4
		c2.894-1.199,6.011-1.377,9.082-1.199c3.073,0.178,6.101,0.711,8.504,1.689c2.404,0.978,4.186,2.398,5.397,4.001
		c1.211,1.602,1.855,3.381,2.27,5.24c0.416,1.856,0.605,3.794,0.593,5.933c-0.012,2.139-0.225,4.476-1.502,6.317
		c-2.13-8.077-3.692-9.92-5.253-11.173c-1.561-1.253-3.124-1.913-5.229-2.055c-2.106-0.142-4.756,0.236-6.696,1.039
		c-1.94,0.804-3.169,2.031-4.068,3.59c-0.899,1.562-1.468,3.448-1.538,5.503c-0.071,2.058,0.354,4.275,1.302,6.094
		c0.946,1.818,2.413,3.237,4.424,4.347s4.566,1.914,7.168,2.313c2.603,0.401,5.252,0.401,7.643-0.141
		c2.39-0.544,4.519-1.631,6.223-2.718c1.704-1.086,2.981-2.172,4.046-3.542c1.064-1.369,1.917-3.022,2.745-4.982
		c0.827-1.961,1.632-4.229,2.129-6.023c0.497-1.793,0.686-3.117,0.427-4.134c-0.261-1.016-0.97-1.723-2.153-2.881
		c-1.184-1.155-2.839-2.764-4.943-5.214c-2.104-2.453-4.657-5.751-6.467-8.864c-1.811-3.116-2.879-6.049-3.635-9.782
		c-0.757-3.731-1.203-8.268-1.158-12.399c0.043-4.132,0.578-7.865,1.603-11.599c1.023-3.733,2.537-7.469,4.273-10.979
		c1.736-3.512,3.695-6.799,5.431-9.199c1.736-2.398,3.249-3.909,4.421-5.17c1.173-1.26,2.006-2.268,2.217-3.006
		c0.212-0.736-0.197-1.202-1.074-2.428c-0.875-1.224-2.22-3.207-4.035-5.541c-1.817-2.335-4.104-5.021-7.172-7.844
		c-3.068-2.825-6.915-5.788-10.816-7.652c-3.902-1.865-7.861-2.633-11.763-2.908c-3.902-0.275-7.749-0.056-11.487,0.77
		c-3.738,0.822-7.365,2.25-10.388,4.499c-3.023,2.25-5.442,5.321-7.311,8.284c-1.869,2.963-3.188,5.813-3.573,9.325
		c-0.384,3.514,0.165,7.683,1.375,11.083c1.208,3.402,3.078,6.035,5.771,7.9s6.211,2.964,9.784,3.238
		c3.573,0.272,7.201-0.274,9.62-1.866c2.418-1.591,3.627-4.226,4.782-7.572c1.154-3.347,2.253-7.406,1.731-11.823
		c-0.522-4.418-2.666-9.189-7.284-12.81c6.649,1.769,9.891,4.306,12.359,6.798c2.468,2.492,4.163,4.942,5.361,7.566
		c1.197,2.625,1.899,5.424,1.985,8.979c0.088,3.559-0.438,7.872-1.285,11.314c-0.847,3.439-2.016,6.006-4.09,8.426
		c-2.074,2.422-5.053,4.694-7.711,6.59c-2.658,1.896-4.995,3.412-7.682,4.345c-2.687,0.934-5.725,1.282-9.051,1.314
		c-3.327,0.034-6.941-0.251-10.624-0.934c-3.684-0.682-7.434-1.762-10.607-3.635c-3.173-1.872-5.77-4.535-8.438-8.025
		c-2.668-3.492-5.409-7.813-7.175-11.736c-1.768-3.923-2.56-7.45-2.921-11.339c-0.361-3.887-0.288-8.136,0.325-12.348
		c0.613-4.213,1.768-8.388,3.533-12.095c1.768-3.707,4.147-6.947,6.744-9.972c2.597-3.022,5.41-5.831,8.943-8.458
		c3.533-2.629,7.789-5.076,12.226-6.805c4.435-1.729,9.051-2.735,13.415-2.987c4.364-0.252,8.475,0.252,12.748,0.881
		c4.273,0.632,8.71,1.388,13.686,4.843c1.947-10.582,4.435-15.658,7.14-20.142c2.706-4.481,5.625-8.369,10.387-11.177
		c0.669-8.622-0.608-11.174-2.099-13.348c-1.491-2.172-3.194-3.966-5.135-5.431c-1.94-1.464-4.116-2.599-5.938-3.308
		c-1.821-0.709-3.289-0.991-5.252-0.944c-1.964,0.049-4.425,0.426-6.625,1.396c-2.201,0.969-4.141,2.526-5.276,4.084
		c-1.135,1.559-1.467,3.119-1.585,4.771c-0.118,1.652-0.023,3.4,0.545,5.291c0.567,1.889,1.609,3.92,2.862,5.22
		s2.721,1.866,4.093,2.196c1.373,0.331,2.65,0.425,4.259,0.167c1.61-0.261,3.549-0.875,5.11-1.82c1.562-0.944,2.746-2.22,3.514-3.53
		c0.77-1.311,1.125-2.656,1.692-6.199c1.242,5.242,0.675,8.596-0.115,10.695c-0.792,2.101-1.808,2.947-3.045,4.043
		c-1.236,1.092-2.693,2.433-4.458,3.401c-1.766,0.97-3.839,1.569-6.161,1.868c-2.321,0.301-4.892,0.301-7.492-0.43
		c-2.6-0.728-5.229-2.187-7.39-3.877c-2.162-1.691-3.856-3.614-4.996-5.395c-1.139-1.779-1.723-3.412-1.986-6.064
		c-0.263-2.653-0.204-6.328,0.409-9.65c0.614-3.323,1.781-6.299,3.739-8.893c1.957-2.597,4.703-4.813,7.945-6.649
		c3.243-1.837,6.981-3.295,10.926-3.964c3.942-0.672,8.091-0.555,11.507,0.174c3.418,0.729,6.106,2.068,8.618,3.615
		c2.512,1.545,4.849,3.295,6.748,5.54s3.36,4.985,4.572,8.323c1.211,3.338,2.176,7.274,2.351,14.098
		c11.93-2.326,17.537-0.021,21.768,2.173c4.233,2.194,7.091,4.28,9.234,6.97c2.145,2.688,3.573,5.979,4.452,9.654
		c0.88,3.677,1.209,7.736,0.825,11.303c-0.385,3.568-1.485,6.641-3.133,9.491c-1.649,2.854-3.847,5.488-6.706,7.298
		c-2.858,1.813-6.375,2.799-9.563,3.02c-3.188,0.22-6.046-0.329-8.612-1.207c-2.565-0.879-4.841-2.086-6.626-3.77
		c-1.786-1.684-3.084-3.844-4.599-7.3c3.964,2.865,7.321,3.808,10.346,4.077c3.023,0.27,5.715-0.135,7.862-1.105
		c2.145-0.976,3.748-2.523,4.885-4.55c1.137-2.028,1.812-4.536,1.703-6.901c-0.108-2.364-0.999-4.588-2.334-6.41
		s-3.118-3.244-5.209-4.355c-2.093-1.109-4.497-1.91-7.123-1.82c-2.628,0.09-5.477,1.065-7.88,2.354
		c-2.404,1.29-4.363,2.891-6.1,5.157c-1.735,2.265-3.249,5.198-4.095,8.442c-0.846,3.244-1.024,6.801-0.535,10.045
		c0.49,3.244,1.647,6.176,3.207,8.797c1.559,2.623,3.518,4.935,5.832,7.157c2.314,2.224,4.986,4.354,7.08,5.821
		c2.092,1.467,3.605,2.266,5.386,2.668c1.78,0.398,3.829,0.398,8.27,0.355c4.439-0.043,11.271-0.129,16.563,0.401
		c5.291,0.533,9.042,1.687,12.576,3.056c3.533,1.366,6.851,2.949,9.886,4.542c3.036,1.592,5.786,3.19,8.176,5.063
		s4.418,4.018,5.634,4.949c1.215,0.934,1.618,0.654,3.124-0.924c1.504-1.578,4.107-4.454,7.5-6.99s7.568-4.73,12.352-6.486
		c4.781-1.755,10.169-3.071,15.17-3.62c5.003-0.55,9.62-0.329,13.466-0.056c3.848,0.274,6.925,0.604,10.279-0.494
		c3.352-1.096,6.979-3.621,10.058-6.144c3.078-2.525,5.606-5.049,7.584-8.012c1.979-2.963,3.409-6.364,3.957-10.15
		c0.55-3.785,0.222-7.955-1.153-11.741s-3.793-7.188-6.431-9.438c-2.639-2.25-5.497-3.348-8.244-4.004
		c-2.749-0.66-5.388-0.877-7.861-0.275c-2.473,0.604-4.78,2.029-6.596,4.115c-1.813,2.086-3.133,4.828-3.298,7.734
		c-0.165,2.91,0.824,5.981,2.638,8.342c1.814,2.356,4.452,4.004,7.201,4.828c2.747,0.822,5.605,0.822,8.107,0.329
		c2.501-0.493,4.645-1.481,7.252-4.302c-7.188,9.797-10.778,10.848-13.772,11.37c-2.994,0.524-5.389,0.524-8.34-0.06
		c-2.95-0.582-6.455-1.748-9.259-3.904c-2.806-2.158-4.908-5.309-6.427-8.457c-1.521-3.149-2.453-6.299-2.542-9.826
		s0.673-7.436,2.072-10.992c1.402-3.558,3.448-6.765,6.777-9.533c3.33-2.771,7.945-5.104,12.839-6.443
		c4.893-1.344,10.063-1.693,15.67-0.469c0.439-10.03,3.146-15.431,5.795-19.211c2.65-3.778,5.247-5.938,8.35-7.774
		c3.101-1.834,6.708-3.347,10.133-4.14c3.426-0.791,6.672-0.863,9.593-0.646c2.921,0.216,5.519,0.72,8.042,1.836
		s4.977,2.846,7.141,5.004c2.162,2.159,4.038,4.75,5.336,7.309c1.299,2.555,2.021,5.074,2.021,8.459s-0.721,7.631-1.875,10.871
		s-2.74,5.472-4.58,7.127c-1.839,1.656-3.93,2.736-6.021,3.494c-2.095,0.754-4.186,1.187-6.098,1.33c-1.91,0.144-3.642,0-5.624-0.65
		c-1.983-0.646-4.22-1.799-6.096-3.312c-1.875-1.511-3.39-3.384-4.362-6.21c-0.973-2.824-1.405-6.605-0.107-9.628
		c1.663,5.986,3.216,7.649,4.814,8.731c1.603,1.08,3.248,1.578,5.224,1.713c1.975,0.134,4.272-0.096,6.04-0.689
		c1.766-0.592,2.994-1.549,3.938-3.021c0.941-1.475,1.592-3.465,1.688-5.49c0.096-2.027-0.364-4.094-1.083-5.807
		c-0.723-1.713-1.702-3.073-2.715-4.061c-1.01-0.986-2.053-1.602-3.59-2.072c-1.537-0.473-3.572-0.803-5.749-0.851
		c-2.178-0.049-4.494,0.188-6.577,0.804c-2.082,0.612-3.928,1.604-5.466,2.811c-1.537,1.203-2.768,2.621-3.856,4.085
		c-1.088,1.465-2.034,2.977-2.579,5.185c-0.544,2.208-0.686,5.114-0.544,10.358c6.104,3.684,8.305,6.304,9.996,8.632
		c1.691,2.325,2.875,4.357,3.819,6.646c0.947,2.291,1.656,4.842,2.118,7.568c0.461,2.729,0.674,5.635,0.392,9.604
		c12.808-7.364,19.568-7.364,25.312-7.092c5.744,0.273,10.473,0.823,14.594,1.922c4.122,1.099,7.642,2.742,11.104,5.268
		c3.462,2.521,6.871,5.925,10.059,9.438c3.188,3.512,6.155,7.133,8.244,11.138c2.089,4.007,3.298,8.396,3.957,12.784
		C474.286,415.277,474.396,419.667,473.517,424.222z M525.919,311.275c-0.935,1.168-2.021,2.019-3.514,2.656
		c-1.49,0.639-3.383,1.063-5.251,1.395c-1.87,0.33-3.715,0.566-5.586,0.591c-1.869,0.022-3.762-0.167-5.7-0.71
		c-1.94-0.544-3.929-1.439-6.151-2.504c-2.226-1.063-4.686-2.291-6.199-3.096c-1.515-0.803-2.082-1.181-2.795-1.326
		c-0.712-0.148-1.567-0.065-2.223-0.236c-0.653-0.173-1.107-0.6-1.476-1.033s-0.651-0.875-0.527-1.807
		c0,2.922-1.338,5.531-3.438,7.253c-0.208,0.171,1.806,1.534,2.08,1.944c0.561,0.838,0.635,1.537,1.195,2.172
		c0.423,0.479,1.396,0.835,2.083,1.08c1.165,0.418,4.008,2.24,7.078,4.547c2.609,1.961,5.563,4.104,7.506,7.279
		c2.423,3.961,3.859,7.207,3.921,10.672c0.062,3.287-2.021,7.402-3.86,9.146c-2.974,2.819-7.261,2.416-12.314-1.132
		c-4.649-3.263-7.782-9.356-8.334-11.284c-1.764-6.162-0.919-15.924-1-16.68c-0.04-0.355,0.068-1.176-1.206-2.895
		c-0.692-0.938-0.239-3.16-0.521-3.078c-0.822,0.233-1.69,0.358-2.589,0.358c-5.19,0-9.398-4.2-9.398-9.384
		c0-5.182,4.208-9.382,9.398-9.382c0.855,0,1.833,0.129,2.619,0.342c0.171,0.046-0.102-2.463,0.368-3.262
		c0.552-0.938,1.473-0.796,1.348-3.792c-0.674-16.351,2.35-19.329,4.475-21.897c1.164-1.407,3.585-4.424,6.25-6.056
		c2.236-1.369,4.9-2.018,7.106-1.835c2.906,0.242,6.985,3.854,7.722,10.581c0.378,3.465-1.912,7.761-4.412,11.54
		c-3.615,5.464-14.887,11.742-15.359,11.866c-0.775,0.204-1.443,1.225-1.512,1.427c-0.613,1.794-2.981,2.946-2.814,3.078
		c2.196,1.717,3.608,4.388,3.608,7.389c-0.124-0.933,0.159-1.372,0.527-1.806c0.367-0.436,0.82-0.861,1.477-1.033
		c0.654-0.172,1.51-0.09,2.222-0.236s1.279-0.525,2.795-1.328c1.515-0.803,3.976-2.03,6.199-3.094
		c2.225-1.063,4.211-1.96,6.151-2.504c1.938-0.542,3.831-0.733,5.7-0.708c1.871,0.023,3.716,0.258,5.586,0.59
		c1.868,0.33,3.762,0.756,5.252,1.393c1.491,0.638,2.578,1.488,3.514,2.657c0.935,1.168,1.714,2.657,1.998,6.068
		C527.635,308.619,526.854,310.105,525.919,311.275z"/>
	<path fill="#FFFFFF" stroke="#000000" stroke-width="1.5" stroke-miterlimit="10" d="M352.228,442.347
		c-9.473,4.896-12.079,8.521-13.633,11.458c-1.553,2.938-2.049,5.186-2.005,8.32s0.628,7.16,2.088,10.132
		c1.461,2.976,3.797,4.9,6.719,6.183c2.921,1.282,6.428,1.925,9.58,1.895c3.154-0.027,5.959-0.728,8.384-2.039
		c2.426-1.313,4.47-3.237,5.988-5.86c1.521-2.625,2.512-5.947,2.979-9.913c0.467-3.967,0.408-8.572-0.293-12.334
		c-0.701-3.763-2.045-6.679-4.499-9.769c-2.453-3.091-6.019-6.355-9.259-8.486c-3.243-2.127-6.164-3.118-9.845-3.673
		c-3.681-0.553-8.119-0.671-12.27-0.495c-4.146,0.176-8.003,0.642-11.246,1.399c-3.242,0.757-5.87,1.808-8.266,2.887
		c-2.396,1.08-4.558,2.188-5.871,3.004c-1.314,0.814-1.781,1.342-1.898,2.012c-0.117,0.671,0.115,1.487,0.554,3.119
		c0.438,1.634,1.081,4.081,1.446,6.662s0.453,5.292-0.376,10.549c-7.13-9.644-12.533-15.495-16.75-19.629
		c-4.217-4.133-7.245-6.544-10.56-8.131c-3.315-1.589-6.918-2.354-10.877-2.86c-3.959-0.511-8.273-0.761-12.126-0.361
		c-3.852,0.399-7.24,1.448-10.6,3.199c-3.36,1.748-6.689,4.197-9.64,6.793c-2.951,2.596-5.52,5.337-7.36,8.224
		c-1.841,2.886-2.951,5.918-3.593,9.592c-0.643,3.675-0.817,7.989-0.264,11.168c0.555,3.179,1.84,5.22,3.769,7.23
		c1.929,2.013,4.498,3.995,7.157,5.424c2.658,1.429,5.404,2.305,8.412,2.626c3.009,0.319,6.28,0.087,8.676-0.729
		c2.396-0.816,3.914-2.218,5.141-4.142c1.228-1.925,2.162-4.374,2.746-7.436c0.584-3.062,0.819-6.735,0.321-9.974
		c-0.497-3.234-1.723-6.034-4.046-8.745c-2.321-2.714-5.739-5.338-10.822-7.086c12.093-0.699,16.825,2.101,20.36,4.723
		c3.534,2.625,5.871,5.074,7.537,7.844c1.666,2.771,2.658,5.861,3.125,9.943c0.467,4.082,0.409,9.155-0.205,13.21
		c-0.614,4.054-1.781,7.086-3.447,9.854c-1.665,2.771-3.826,5.277-6.163,7.437c-2.337,2.157-4.85,3.965-7.565,5.48
		c-2.717,1.517-5.639,2.741-8.676,3.411c-3.039,0.672-6.192,0.786-9.698,0.612c-3.505-0.175-7.361-0.643-9.785-1.166
		c-2.425-0.524-3.417-1.109-4.177-0.788c-0.76,0.32-1.286,1.545-1.754,3.587c-0.467,2.041-0.875,4.897-1.752,7.581
		s-2.22,5.191-4.119,7.64c-1.899,2.449-4.352,4.842-7.183,6.62c-2.83,1.778-6.035,2.943-10.692,3.461
		c-4.657,0.515-10.764,0.379-14.948-0.434c-4.184-0.813-6.444-2.303-8.598-4.159c-2.155-1.854-4.203-4.078-5.85-6.389
		c-1.648-2.312-2.894-4.71-3.518-7.556c-0.623-2.846-0.623-6.134-0.132-9.644c0.489-3.512,1.469-7.245,3.294-10.223
		c1.824-2.979,4.496-5.198,7.39-6.4c2.895-1.199,6.011-1.377,9.082-1.199c3.073,0.179,6.101,0.711,8.504,1.689
		c2.404,0.978,4.186,2.398,5.397,4.001c1.21,1.601,1.855,3.381,2.27,5.24c0.416,1.856,0.605,3.794,0.593,5.933
		c-0.012,2.139-0.225,4.476-1.502,6.317c-2.13-8.077-3.692-9.92-5.253-11.173s-3.123-1.912-5.228-2.055
		c-2.106-0.142-4.756,0.235-6.696,1.039c-1.94,0.804-3.169,2.031-4.069,3.59c-0.899,1.562-1.467,3.448-1.539,5.504
		c-0.07,2.057,0.355,4.274,1.302,6.094c0.946,1.817,2.413,3.236,4.425,4.346c2.011,1.11,4.565,1.914,7.168,2.313
		c2.602,0.401,5.252,0.401,7.642-0.141c2.39-0.544,4.519-1.631,6.222-2.718c1.705-1.086,2.981-2.172,4.046-3.542
		s1.917-3.022,2.745-4.982c0.827-1.961,1.632-4.229,2.129-6.023c0.498-1.793,0.687-3.117,0.427-4.133
		c-0.261-1.017-0.97-1.724-2.153-2.882c-1.184-1.155-2.839-2.764-4.943-5.214c-2.104-2.453-4.657-5.751-6.468-8.864
		c-1.811-3.117-2.879-6.049-3.635-9.782c-0.757-3.732-1.203-8.268-1.158-12.399c0.043-4.133,0.579-7.865,1.604-11.6
		c1.023-3.732,2.537-7.468,4.273-10.978c1.736-3.512,3.695-6.8,5.431-9.199c1.736-2.398,3.249-3.909,4.421-5.17
		c1.174-1.26,2.006-2.268,2.217-3.006c0.212-0.736-0.197-1.202-1.074-2.428c-0.875-1.224-2.219-3.207-4.035-5.541
		c-1.817-2.334-4.104-5.02-7.172-7.845c-3.068-2.824-6.915-5.786-10.817-7.651s-7.861-2.633-11.763-2.906
		c-3.902-0.275-7.749-0.058-11.487,0.766c-3.738,0.824-7.366,2.25-10.389,4.5c-3.023,2.25-5.442,5.322-7.311,8.283
		c-1.869,2.966-3.188,5.815-3.573,9.327c-0.384,3.514,0.165,7.683,1.375,11.083c1.208,3.402,3.077,6.036,5.771,7.9
		c2.693,1.865,6.211,2.964,9.784,3.238c3.573,0.272,7.201-0.274,9.62-1.866s3.627-4.226,4.782-7.572
		c1.154-3.347,2.253-7.406,1.731-11.822c-0.522-4.418-2.666-9.189-7.284-12.811c6.649,1.769,9.892,4.305,12.359,6.799
		c2.468,2.492,4.163,4.941,5.361,7.565c1.197,2.624,1.899,5.424,1.985,8.979c0.088,3.558-0.437,7.872-1.285,11.314
		c-0.847,3.439-2.016,6.006-4.09,8.426c-2.074,2.422-5.053,4.693-7.711,6.59c-2.658,1.896-4.995,3.412-7.682,4.344
		c-2.687,0.935-5.725,1.283-9.051,1.315c-3.326,0.034-6.941-0.251-10.623-0.934c-3.684-0.682-7.434-1.762-10.607-3.634
		c-3.174-1.873-5.77-4.536-8.438-8.026c-2.669-3.492-5.409-7.813-7.176-11.736c-1.768-3.923-2.56-7.451-2.921-11.339
		c-0.36-3.887-0.288-8.137,0.325-12.348c0.613-4.212,1.768-8.389,3.533-12.096c1.768-3.706,4.147-6.946,6.744-9.971
		c2.598-3.022,5.41-5.832,8.943-8.459c3.533-2.628,7.79-5.075,12.226-6.806c4.435-1.728,9.051-2.734,13.415-2.986
		c4.364-0.25,8.476,0.252,12.748,0.882c4.273,0.63,8.709,1.388,13.686,4.843c1.947-10.582,4.435-15.658,7.14-20.142
		c2.705-4.481,5.626-8.369,10.387-11.177c0.669-8.623-0.608-11.174-2.099-13.346c-1.491-2.174-3.194-3.968-5.134-5.432
		c-1.94-1.466-4.117-2.6-5.938-3.309s-3.289-0.99-5.253-0.943c-1.963,0.047-4.424,0.424-6.625,1.393s-4.141,2.527-5.276,4.088
		c-1.135,1.558-1.467,3.117-1.585,4.769c-0.117,1.653-0.023,3.401,0.545,5.292c0.567,1.891,1.609,3.92,2.862,5.221
		c1.253,1.299,2.721,1.865,4.094,2.195c1.372,0.331,2.649,0.426,4.258,0.167c1.61-0.26,3.549-0.875,5.11-1.821
		c1.562-0.943,2.745-2.219,3.514-3.529c0.77-1.312,1.125-2.656,1.692-6.199c1.242,5.244,0.675,8.595-0.115,10.695
		c-0.792,2.101-1.809,2.946-3.045,4.041c-1.236,1.094-2.693,2.435-4.458,3.403c-1.766,0.97-3.839,1.568-6.161,1.869
		c-2.322,0.3-4.893,0.3-7.492-0.431c-2.6-0.729-5.229-2.186-7.39-3.877c-2.162-1.69-3.856-3.615-4.996-5.395
		c-1.139-1.779-1.723-3.412-1.986-6.064c-0.263-2.653-0.204-6.327,0.409-9.649c0.614-3.324,1.781-6.299,3.739-8.896
		c1.957-2.596,4.703-4.812,7.945-6.647c3.243-1.837,6.981-3.295,10.926-3.965c3.942-0.671,8.091-0.554,11.508,0.174
		c3.417,0.729,6.106,2.069,8.618,3.615c2.511,1.546,4.848,3.295,6.747,5.541c1.899,2.245,3.359,4.985,4.572,8.323
		c1.211,3.338,2.176,7.275,2.351,14.099c11.931-2.328,17.537-0.022,21.769,2.172s7.09,4.28,9.234,6.969
		c2.144,2.688,3.573,5.979,4.452,9.656c0.879,3.676,1.209,7.735,0.824,11.304c-0.384,3.565-1.484,6.637-3.132,9.49
		c-1.649,2.854-3.848,5.487-6.707,7.298c-2.857,1.812-6.374,2.798-9.563,3.019c-3.188,0.22-6.046-0.33-8.611-1.207
		c-2.566-0.877-4.842-2.086-6.627-3.769c-1.786-1.685-3.084-3.845-4.599-7.3c3.964,2.863,7.321,3.807,10.346,4.075
		c3.023,0.271,5.715-0.134,7.862-1.104c2.145-0.977,3.748-2.522,4.886-4.55c1.137-2.028,1.812-4.536,1.703-6.901
		c-0.108-2.365-0.999-4.588-2.334-6.408c-1.336-1.823-3.118-3.246-5.209-4.356c-2.093-1.112-4.498-1.913-7.124-1.821
		c-2.628,0.09-5.477,1.065-7.88,2.354c-2.404,1.289-4.363,2.89-6.101,5.156c-1.735,2.265-3.249,5.198-4.095,8.442
		s-1.023,6.801-0.534,10.043c0.49,3.246,1.647,6.178,3.206,8.799c1.559,2.625,3.518,4.935,5.832,7.156
		c2.315,2.224,4.986,4.355,7.08,5.822c2.092,1.466,3.605,2.266,5.386,2.668c1.78,0.397,3.828,0.397,8.269,0.355
		c4.44-0.042,11.271-0.13,16.563,0.402c5.29,0.531,9.042,1.686,12.576,3.054c3.533,1.367,6.851,2.95,9.886,4.543
		c3.035,1.592,5.786,3.19,8.176,5.063s4.418,4.017,5.634,4.949c1.215,0.934,1.618,0.653,3.123-0.924
		c1.504-1.578,4.109-4.455,7.501-6.99c3.393-2.536,7.569-4.73,12.352-6.486c4.781-1.755,10.168-3.071,15.17-3.621
		c5.003-0.549,9.62-0.327,13.466-0.055c3.848,0.274,6.926,0.604,10.279-0.494c3.352-1.096,6.979-3.621,10.058-6.145
		s5.606-5.046,7.585-8.011c1.979-2.963,3.408-6.365,3.956-10.15c0.55-3.785,0.222-7.955-1.153-11.741
		c-1.374-3.786-3.793-7.188-6.431-9.437c-2.639-2.25-5.497-3.348-8.244-4.008c-2.749-0.657-5.388-0.875-7.86-0.272
		c-2.474,0.604-4.782,2.03-6.597,4.114c-1.813,2.085-3.133,4.828-3.298,7.736c-0.165,2.907,0.825,5.979,2.638,8.34
		c1.814,2.357,4.452,4.004,7.201,4.828c2.747,0.823,5.605,0.823,8.107,0.328c2.501-0.492,4.645-1.479,7.252-4.301
		c-7.188,9.797-10.778,10.846-13.772,11.371c-2.995,0.525-5.389,0.525-8.34-0.061c-2.95-0.582-6.455-1.748-9.259-3.905
		c-2.804-2.158-4.908-5.308-6.427-8.456c-1.521-3.15-2.454-6.299-2.542-9.826s0.672-7.438,2.072-10.991
		c1.402-3.559,3.448-6.765,6.777-9.536c3.33-2.77,7.945-5.102,12.839-6.442c4.893-1.343,10.063-1.692,15.67-0.468
		c0.439-10.03,3.146-15.431,5.794-19.211c2.651-3.779,5.249-5.938,8.35-7.774c3.102-1.835,6.709-3.347,10.135-4.138
		c3.425-0.793,6.671-0.865,9.592-0.648c2.921,0.216,5.519,0.721,8.042,1.836c2.523,1.117,4.977,2.844,7.141,5.004
		c2.162,2.158,4.038,4.75,5.336,7.309c1.299,2.556,2.021,5.076,2.021,8.459c0,3.384-0.721,7.631-1.875,10.871
		c-1.154,3.239-2.741,5.472-4.58,7.127c-1.839,1.656-3.93,2.736-6.021,3.492c-2.093,0.756-4.185,1.188-6.097,1.332
		c-1.91,0.145-3.642,0-5.625-0.649c-1.982-0.647-4.219-1.8-6.094-3.313c-1.875-1.511-3.39-3.384-4.363-6.209
		c-0.973-2.825-1.406-6.604-0.107-9.63c1.663,5.988,3.216,7.65,4.814,8.73c1.602,1.082,3.248,1.582,5.224,1.714
		c1.975,0.135,4.272-0.097,6.04-0.688c1.765-0.592,2.994-1.55,3.938-3.021c0.941-1.474,1.592-3.464,1.688-5.49
		c0.096-2.028-0.364-4.097-1.083-5.81c-0.723-1.711-1.702-3.071-2.715-4.059c-1.01-0.986-2.053-1.601-3.589-2.072
		c-1.538-0.473-3.573-0.804-5.75-0.852c-2.177-0.047-4.495,0.189-6.577,0.803c-2.082,0.615-3.928,1.607-5.466,2.813
		c-1.537,1.204-2.768,2.62-3.855,4.084c-1.089,1.465-2.035,2.978-2.58,5.185c-0.544,2.209-0.686,5.114-0.544,10.357
		c6.104,3.684,8.305,6.305,9.996,8.633c1.691,2.325,2.875,4.357,3.819,6.646c0.948,2.291,1.656,4.843,2.118,7.569
		c0.462,2.728,0.674,5.634,0.392,9.603c12.808-7.365,19.568-7.365,25.312-7.092c5.744,0.273,10.473,0.824,14.594,1.922
		c4.123,1.098,7.642,2.742,11.104,5.267s6.871,5.926,10.059,9.438c3.188,3.512,6.155,7.133,8.245,11.138
		c2.088,4.006,3.297,8.396,3.956,12.783c0.661,4.39,0.77,8.778-0.109,13.335c-0.879,4.553-2.746,9.271-4.727,13.275
		c-1.979,4.005-4.066,7.297-6.98,10.15c-2.911,2.854-6.649,5.268-10.388,6.914c-3.738,1.645-7.475,2.521-11.213,2.907
		c-3.737,0.383-7.476,0.272-11.214-0.329c-3.737-0.604-7.475-1.702-11.049-4.062c-3.571-2.358-6.979-5.979-9.453-9.821
		c-2.475-3.841-4.014-7.899-4.563-11.96c-0.549-4.061-0.107-8.12,1.374-11.961c1.483-3.84,4.014-7.462,6.68-10.097
		c2.667-2.633,5.47-4.278,10.746-5.597c-5.861,5.356-6.041,7.85-6.132,10.823c-0.089,2.975-0.089,6.431,0.271,9.384
		c0.359,2.95,1.082,5.398,2.452,7.307c1.369,1.908,3.39,3.274,5.554,4.175c2.163,0.9,4.472,1.333,6.995,1.369
		c2.524,0.036,5.265-0.325,7.465-1.297c2.2-0.973,3.859-2.556,5.338-4.501c1.479-1.942,2.776-4.246,3.533-6.983
		c0.757-2.735,0.974-5.902,0.47-9.104c-0.507-3.205-1.73-6.445-3.138-9.036c-1.406-2.592-2.993-4.535-4.904-6.408
		c-1.911-1.872-4.146-3.672-6.743-5.04c-2.597-1.366-5.555-2.303-9.089-2.771c-3.535-0.469-7.645-0.469-11.358,0.072
		c-3.716,0.539-7.032,1.619-10.135,3.239c-3.101,1.619-5.984,3.779-9.917,7.289c-3.931,3.509-8.906,8.37-11.937,16.146
		c3.145,4.623,7.12,9.511,9.743,13.236c2.623,3.729,3.894,6.291,5.287,10.06c1.393,3.765,2.906,8.731,3.268,13.845
		c0.361,5.112-0.433,10.368-1.441,14.867c-1.011,4.499-2.236,8.243-3.932,11.411c-1.695,3.167-3.859,5.759-5.879,7.884
		c-2.021,2.123-3.896,3.779-5.229,5.076c-1.335,1.295-2.129,2.23-2.451,3.455c-0.325,1.224-0.184,2.735,0.251,4.717
		c0.433,1.979,1.153,4.428,2.739,6.911c1.588,2.483,4.039,5.003,6.673,6.73c2.634,1.729,5.444,2.663,8.438,3.062
		c2.993,0.395,6.167,0.251,8.907-0.757c2.74-1.009,5.048-2.88,6.636-4.535c1.586-1.656,2.452-3.096,2.668-5.146
		c0.218-2.053-0.216-4.718-0.937-6.769c-0.723-2.053-1.731-3.492-3.138-4.464c-1.407-0.974-3.21-1.476-5.302-1.655
		s-4.471-0.035-6.491,0.972c-2.02,1.008-3.679,2.881-4.776,4.841c-1.102,1.962-1.643,4.016-2.508,7.471
		c-2.162-8.423-0.864-11.662,0.506-14.219c1.369-2.556,2.813-4.428,4.436-5.902c1.623-1.478,3.427-2.559,6.671-3.062
		c3.246-0.503,7.936-0.432,11.323,0.434c3.391,0.862,5.48,2.52,7.394,4.605c1.911,2.089,3.643,4.608,4.652,7.958
		c1.009,3.348,1.298,7.522,0.829,11.267c-0.469,3.743-1.694,7.055-3.643,10.114c-1.946,3.061-4.616,5.868-7.5,7.885
		c-2.886,2.017-5.985,3.239-9.63,3.815c-3.642,0.575-7.824,0.504-11.827-0.109c-4.004-0.61-7.824-1.764-10.928-3.563
		c-3.101-1.801-5.48-4.249-7.537-6.877c-2.056-2.627-3.785-5.434-5.085-8.836c-1.299-3.402-2.164-7.398-1.299-10.854
		c-9.304,3.024-16.227,2.81-21.384,2.231c-5.157-0.574-8.548-1.51-11.938-3.274c-3.391-1.765-6.778-4.354-9.558-7.416
		c-2.776-3.061-4.938-6.588-6.454-10.188c-1.514-3.601-2.381-7.271-2.452-11.088c-0.07-3.813,0.649-7.776,1.84-11.231
		c1.189-3.455,2.85-6.407,4.761-8.891c1.911-2.484,4.074-4.5,7.591-6.426C338.271,443.965,343.141,442.131,352.228,442.347z"/>
	<path fill="#FFFFFF" stroke="#000000" stroke-width="1.5" stroke-miterlimit="10" d="M352.228,165.836
		c-9.473-4.897-12.079-8.523-13.633-11.46c-1.553-2.937-2.049-5.184-2.005-8.319c0.044-3.136,0.628-7.16,2.088-10.133
		c1.461-2.974,3.797-4.898,6.719-6.182c2.921-1.283,6.428-1.924,9.58-1.895c3.154,0.029,5.959,0.729,8.384,2.042
		c2.426,1.311,4.47,3.236,5.988,5.859c1.52,2.624,2.512,5.95,2.979,9.914c0.467,3.964,0.408,8.572-0.293,12.333
		c-0.701,3.762-2.045,6.678-4.499,9.768c-2.453,3.092-6.019,6.358-9.259,8.487c-3.243,2.128-6.164,3.12-9.845,3.674
		c-3.681,0.553-8.119,0.669-12.27,0.495c-4.146-0.175-8.003-0.641-11.246-1.399c-3.242-0.759-5.87-1.808-8.266-2.887
		c-2.396-1.08-4.558-2.188-5.871-3.004c-1.314-0.817-1.781-1.341-1.898-2.012c-0.118-0.67,0.115-1.487,0.554-3.12
		c0.439-1.633,1.081-4.081,1.446-6.662c0.365-2.582,0.453-5.293-0.376-10.55c-7.13,9.644-12.533,15.495-16.75,19.629
		c-4.217,4.133-7.245,6.542-10.56,8.131c-3.314,1.588-6.918,2.354-10.877,2.861c-3.959,0.509-8.273,0.758-12.126,0.36
		c-3.852-0.398-7.24-1.448-10.6-3.199c-3.36-1.749-6.689-4.198-9.64-6.792c-2.951-2.596-5.52-5.338-7.36-8.224
		c-1.841-2.886-2.951-5.919-3.593-9.594c-0.643-3.674-0.817-7.989-0.264-11.167c0.555-3.179,1.84-5.22,3.769-7.232
		c1.929-2.012,4.498-3.995,7.157-5.424c2.658-1.428,5.404-2.303,8.412-2.624c3.009-0.32,6.28-0.087,8.676,0.731
		c2.396,0.815,3.914,2.214,5.141,4.141c1.228,1.924,2.162,4.373,2.746,7.435c0.584,3.062,0.819,6.736,0.321,9.972
		c-0.497,3.235-1.723,6.037-4.046,8.748c-2.321,2.711-5.739,5.336-10.822,7.084c12.093,0.699,16.825-2.099,20.36-4.723
		c3.534-2.625,5.871-5.072,7.537-7.844c1.665-2.771,2.658-5.861,3.125-9.944c0.467-4.081,0.409-9.154-0.205-13.208
		c-0.614-4.052-1.781-7.085-3.447-9.855s-3.826-5.278-6.163-7.436c-2.337-2.157-4.85-3.965-7.565-5.481
		c-2.717-1.516-5.639-2.74-8.676-3.411c-3.039-0.669-6.192-0.786-9.698-0.612c-3.505,0.176-7.361,0.643-9.785,1.167
		c-2.425,0.524-3.417,1.107-4.177,0.787c-0.76-0.321-1.286-1.545-1.754-3.587c-0.467-2.042-0.875-4.899-1.752-7.582
		c-0.877-2.684-2.22-5.191-4.119-7.64c-1.898-2.449-4.352-4.84-7.183-6.618c-2.83-1.779-6.035-2.944-10.692-3.46
		c-4.657-0.516-10.764-0.381-14.948,0.432c-4.184,0.813-6.444,2.304-8.598,4.159c-2.155,1.856-4.203,4.079-5.85,6.391
		c-1.648,2.311-2.894,4.71-3.518,7.554c-0.623,2.844-0.623,6.133-0.132,9.645c0.489,3.509,1.469,7.244,3.294,10.221
		c1.824,2.977,4.496,5.201,7.39,6.4c2.895,1.2,6.011,1.378,9.082,1.2c3.073-0.178,6.101-0.711,8.504-1.688
		c2.404-0.979,4.186-2.4,5.397-4.001c1.21-1.601,1.855-3.381,2.27-5.24c0.416-1.858,0.605-3.794,0.593-5.933
		c-0.012-2.138-0.225-4.475-1.502-6.317c-2.13,8.077-3.692,9.919-5.253,11.172c-1.562,1.251-3.123,1.912-5.228,2.055
		c-2.106,0.142-4.756-0.237-6.696-1.04c-1.94-0.802-3.169-2.03-4.069-3.59c-0.899-1.56-1.467-3.447-1.539-5.503
		c-0.07-2.055,0.355-4.275,1.302-6.094c0.946-1.818,2.413-3.236,4.425-4.346c2.011-1.109,4.565-1.913,7.168-2.314
		c2.602-0.401,5.252-0.401,7.642,0.142c2.39,0.543,4.519,1.629,6.222,2.716c1.705,1.086,2.981,2.172,4.046,3.542
		c1.065,1.372,1.917,3.023,2.745,4.984c0.827,1.961,1.632,4.228,2.129,6.023c0.498,1.794,0.687,3.118,0.427,4.133
		c-0.261,1.016-0.97,1.724-2.153,2.882c-1.184,1.156-2.839,2.764-4.943,5.214c-2.104,2.452-4.657,5.75-6.468,8.866
		c-1.811,3.115-2.879,6.048-3.635,9.781c-0.757,3.732-1.203,8.266-1.158,12.399c0.043,4.132,0.579,7.866,1.604,11.6
		c1.023,3.733,2.537,7.466,4.273,10.976c1.736,3.512,3.695,6.801,5.431,9.2c1.736,2.401,3.249,3.911,4.421,5.17
		c1.174,1.26,2.006,2.269,2.217,3.005c0.212,0.737-0.197,1.203-1.074,2.428c-0.875,1.225-2.219,3.208-4.035,5.542
		c-1.817,2.334-4.104,5.019-7.172,7.843c-3.068,2.824-6.915,5.788-10.817,7.652c-3.902,1.866-7.861,2.633-11.763,2.908
		c-3.902,0.275-7.749,0.055-11.487-0.768c-3.738-0.823-7.366-2.25-10.389-4.498c-3.023-2.25-5.442-5.322-7.311-8.285
		c-1.869-2.963-3.188-5.815-3.573-9.327c-0.385-3.512,0.165-7.682,1.375-11.084c1.208-3.4,3.077-6.035,5.771-7.899
		c2.693-1.866,6.211-2.963,9.784-3.238c3.573-0.274,7.201,0.274,9.62,1.865c2.419,1.591,3.627,4.225,4.782,7.572
		c1.154,3.347,2.253,7.407,1.731,11.823c-0.522,4.417-2.666,9.19-7.284,12.813c6.649-1.771,9.892-4.307,12.359-6.801
		c2.468-2.493,4.163-4.942,5.361-7.565c1.197-2.625,1.899-5.424,1.985-8.982c0.088-3.558-0.437-7.872-1.285-11.313
		c-0.848-3.441-2.016-6.006-4.09-8.426c-2.074-2.42-5.053-4.695-7.711-6.59c-2.658-1.894-4.995-3.411-7.682-4.344
		c-2.687-0.934-5.725-1.283-9.051-1.315c-3.326-0.034-6.941,0.251-10.623,0.935c-3.684,0.68-7.434,1.76-10.607,3.633
		c-3.174,1.872-5.77,4.535-8.438,8.028c-2.669,3.491-5.409,7.811-7.176,11.733c-1.768,3.925-2.56,7.452-2.921,11.339
		c-0.36,3.887-0.288,8.135,0.325,12.349c0.613,4.211,1.768,8.387,3.533,12.095c1.768,3.708,4.147,6.947,6.744,9.97
		c2.597,3.024,5.41,5.832,8.943,8.459c3.533,2.628,7.79,5.077,12.226,6.805c4.436,1.727,9.051,2.735,13.415,2.987
		c4.364,0.253,8.476-0.252,12.748-0.881c4.273-0.63,8.709-1.386,13.686-4.841c1.947,10.582,4.435,15.659,7.14,20.142
		c2.705,4.481,5.626,8.368,10.387,11.177c0.669,8.623-0.608,11.172-2.099,13.345c-1.491,2.173-3.194,3.969-5.134,5.432
		s-4.117,2.597-5.938,3.307c-1.821,0.708-3.289,0.993-5.253,0.943c-1.963-0.047-4.424-0.425-6.625-1.393
		c-2.201-0.969-4.141-2.528-5.276-4.086c-1.135-1.558-1.467-3.119-1.585-4.771c-0.117-1.653-0.023-3.401,0.545-5.291
		c0.567-1.89,1.609-3.92,2.862-5.219c1.253-1.3,2.721-1.865,4.094-2.197c1.372-0.332,2.649-0.427,4.258-0.167
		c1.61,0.26,3.549,0.875,5.11,1.819c1.562,0.944,2.745,2.219,3.514,3.531c0.77,1.31,1.125,2.656,1.692,6.199
		c1.242-5.243,0.675-8.595-0.115-10.695c-0.792-2.099-1.809-2.948-3.045-4.043c-1.236-1.094-2.693-2.433-4.458-3.402
		c-1.766-0.969-3.839-1.568-6.161-1.869c-2.322-0.299-4.893-0.299-7.492,0.429c-2.599,0.729-5.229,2.186-7.39,3.877
		c-2.162,1.692-3.856,3.615-4.996,5.395c-1.139,1.78-1.723,3.412-1.986,6.065c-0.263,2.652-0.204,6.328,0.409,9.651
		c0.614,3.324,1.781,6.299,3.739,8.892c1.957,2.596,4.703,4.811,7.945,6.648c3.243,1.837,6.981,3.295,10.926,3.967
		c3.942,0.671,8.091,0.553,11.508-0.177c3.417-0.728,6.106-2.069,8.618-3.613c2.511-1.546,4.848-3.296,6.747-5.542
		c1.899-2.244,3.359-4.985,4.572-8.324c1.211-3.338,2.176-7.275,2.351-14.099c11.931,2.327,17.537,0.022,21.769-2.171
		c4.232-2.195,7.09-4.281,9.234-6.967c2.144-2.69,3.573-5.981,4.452-9.657c0.879-3.676,1.209-7.737,0.824-11.303
		c-0.384-3.566-1.484-6.638-3.132-9.491c-1.649-2.854-3.848-5.488-6.707-7.299c-2.857-1.811-6.374-2.798-9.563-3.019
		c-3.188-0.218-6.046,0.329-8.611,1.208c-2.566,0.877-4.842,2.084-6.627,3.768c-1.786,1.685-3.084,3.843-4.599,7.3
		c3.964-2.863,7.321-3.806,10.346-4.075c3.023-0.27,5.715,0.132,7.862,1.107c2.145,0.974,3.748,2.521,4.886,4.548
		c1.137,2.029,1.812,4.536,1.703,6.901c-0.108,2.365-0.999,4.587-2.334,6.41c-1.336,1.822-3.118,3.243-5.209,4.354
		c-2.093,1.112-4.498,1.912-7.124,1.823c-2.628-0.089-5.477-1.066-7.88-2.355c-2.404-1.29-4.363-2.89-6.101-5.157
		c-1.735-2.266-3.249-5.199-4.095-8.443c-0.846-3.244-1.023-6.8-0.534-10.043c0.49-3.243,1.647-6.178,3.206-8.8
		c1.559-2.621,3.518-4.931,5.832-7.155c2.315-2.223,4.986-4.355,7.08-5.822c2.092-1.466,3.605-2.266,5.386-2.667
		c1.78-0.399,3.828-0.399,8.269-0.354c4.44,0.042,11.271,0.13,16.563-0.404c5.29-0.532,9.042-1.684,12.576-3.052
		c3.533-1.368,6.851-2.953,9.886-4.545c3.036-1.591,5.786-3.19,8.176-5.063c2.39-1.871,4.418-4.017,5.634-4.949
		c1.215-0.933,1.618-0.653,3.123,0.924c1.504,1.578,4.109,4.454,7.501,6.99c3.393,2.536,7.569,4.73,12.352,6.486
		c4.781,1.755,10.168,3.072,15.17,3.622c5.003,0.549,9.62,0.328,13.466,0.055c3.848-0.275,6.926-0.605,10.279,0.494
		c3.352,1.097,6.979,3.62,10.058,6.143c3.078,2.525,5.606,5.049,7.585,8.011c1.979,2.963,3.408,6.364,3.956,10.151
		c0.551,3.786,0.222,7.955-1.153,11.741c-1.374,3.785-3.793,7.188-6.431,9.438c-2.639,2.25-5.497,3.346-8.244,4.004
		c-2.749,0.659-5.388,0.877-7.86,0.275c-2.474-0.604-4.782-2.029-6.597-4.114c-1.813-2.086-3.133-4.829-3.298-7.737
		c-0.165-2.909,0.825-5.98,2.638-8.34c1.814-2.36,4.452-4.005,7.201-4.829c2.747-0.823,5.605-0.823,8.107-0.329
		c2.501,0.493,4.645,1.481,7.252,4.3c-7.188-9.795-10.778-10.846-13.772-11.371c-2.995-0.525-5.389-0.525-8.34,0.059
		c-2.95,0.583-6.455,1.749-9.259,3.907c-2.804,2.158-4.908,5.306-6.427,8.457c-1.521,3.149-2.454,6.297-2.542,9.826
		c-0.088,3.528,0.672,7.436,2.072,10.992c1.402,3.557,3.448,6.764,6.777,9.535c3.33,2.771,7.945,5.104,12.839,6.444
		c4.893,1.341,10.063,1.691,15.67,0.467c0.439,10.03,3.146,15.431,5.794,19.21c2.651,3.779,5.249,5.94,8.35,7.775
		c3.102,1.836,6.709,3.347,10.135,4.141c3.425,0.792,6.671,0.864,9.592,0.647c2.921-0.214,5.519-0.719,8.042-1.835
		c2.523-1.116,4.977-2.843,7.141-5.003c2.162-2.16,4.038-4.751,5.336-7.308c1.299-2.556,2.021-5.076,2.021-8.459
		c0-3.384-0.721-7.63-1.875-10.871c-1.154-3.24-2.741-5.47-4.58-7.127c-1.839-1.656-3.93-2.735-6.021-3.491
		c-2.093-0.756-4.185-1.187-6.097-1.332c-1.91-0.144-3.642,0-5.625,0.647c-1.982,0.649-4.219,1.8-6.094,3.312
		c-1.875,1.511-3.39,3.384-4.363,6.209c-0.973,2.826-1.406,6.606-0.107,9.629c1.663-5.989,3.216-7.651,4.814-8.733
		c1.602-1.081,3.248-1.579,5.224-1.713c1.975-0.134,4.272,0.096,6.04,0.69c1.765,0.593,2.994,1.549,3.938,3.023
		c0.941,1.473,1.592,3.462,1.688,5.489c0.096,2.028-0.364,4.094-1.083,5.807c-0.723,1.714-1.702,3.073-2.715,4.061
		c-1.01,0.985-2.053,1.599-3.589,2.073c-1.538,0.472-3.573,0.803-5.75,0.849c-2.177,0.049-4.495-0.188-6.577-0.802
		c-2.082-0.613-3.928-1.605-5.466-2.81c-1.537-1.206-2.768-2.624-3.855-4.087c-1.089-1.464-2.035-2.977-2.58-5.185
		c-0.544-2.208-0.686-5.112-0.544-10.357c6.104-3.684,8.305-6.304,9.996-8.63c1.691-2.327,2.875-4.358,3.819-6.649
		c0.948-2.292,1.656-4.842,2.118-7.569s0.674-5.633,0.392-9.601c12.808,7.365,19.568,7.365,25.312,7.09
		c5.744-0.273,10.473-0.823,14.594-1.92c4.123-1.097,7.642-2.744,11.104-5.268c3.462-2.524,6.871-5.926,10.059-9.438
		c3.188-3.512,6.155-7.132,8.245-11.138c2.088-4.006,3.297-8.396,3.956-12.784c0.661-4.389,0.77-8.779-0.109-13.332
		c-0.879-4.555-2.746-9.273-4.727-13.279c-1.979-4.005-4.066-7.296-6.98-10.15c-2.911-2.853-6.649-5.267-10.388-6.914
		c-3.738-1.646-7.475-2.523-11.213-2.907c-3.737-0.385-7.476-0.274-11.214,0.329c-3.737,0.604-7.475,1.702-11.049,4.06
		c-3.571,2.359-6.979,5.981-9.453,9.821c-2.475,3.842-4.014,7.901-4.563,11.962c-0.549,4.06-0.107,8.12,1.374,11.961
		c1.484,3.841,4.014,7.461,6.68,10.095c2.667,2.633,5.47,4.279,10.746,5.597c-5.861-5.354-6.041-7.849-6.132-10.823
		c-0.089-2.975-0.089-6.43,0.271-9.382c0.359-2.952,1.082-5.399,2.452-7.308c1.369-1.907,3.39-3.274,5.554-4.174
		c2.163-0.899,4.472-1.333,6.995-1.368c2.524-0.036,5.265,0.324,7.465,1.296c2.2,0.973,3.859,2.555,5.338,4.5
		c1.479,1.943,2.776,4.246,3.533,6.984c0.757,2.735,0.974,5.902,0.47,9.107c-0.507,3.203-1.73,6.443-3.138,9.035
		c-1.407,2.592-2.993,4.536-4.904,6.409c-1.911,1.872-4.146,3.671-6.743,5.039c-2.597,1.368-5.555,2.305-9.089,2.772
		c-3.535,0.468-7.645,0.468-11.358-0.072c-3.715-0.54-7.032-1.62-10.135-3.239c-3.101-1.621-5.984-3.781-9.917-7.29
		c-3.931-3.509-8.906-8.37-11.937-16.145c3.145-4.623,7.12-9.512,9.743-13.237c2.623-3.728,3.894-6.293,5.287-10.059
		c1.393-3.767,2.906-8.734,3.268-13.847c0.361-5.11-0.433-10.367-1.441-14.866c-1.011-4.5-2.236-8.242-3.932-11.412
		c-1.695-3.167-3.859-5.759-5.879-7.881c-2.021-2.125-3.896-3.782-5.229-5.078c-1.335-1.296-2.129-2.23-2.451-3.456
		c-0.325-1.224-0.184-2.735,0.251-4.716c0.433-1.979,1.153-4.427,2.739-6.912c1.588-2.482,4.039-5.003,6.673-6.73
		c2.634-1.729,5.444-2.664,8.438-3.059c2.993-0.397,6.167-0.253,8.907,0.755c2.74,1.008,5.048,2.881,6.636,4.535
		c1.586,1.657,2.452,3.096,2.668,5.148c0.218,2.052-0.216,4.716-0.937,6.769c-0.723,2.05-1.731,3.491-3.138,4.463
		c-1.407,0.972-3.21,1.475-5.302,1.656c-2.092,0.181-4.471,0.035-6.491-0.972c-2.02-1.008-3.679-2.879-4.776-4.841
		c-1.102-1.962-1.643-4.015-2.508-7.47c-2.162,8.424-0.864,11.663,0.506,14.219c1.369,2.555,2.813,4.428,4.436,5.904
		s3.427,2.557,6.671,3.059c3.246,0.504,7.936,0.433,11.323-0.431c3.391-0.863,5.48-2.52,7.394-4.608
		c1.911-2.087,3.643-4.608,4.652-7.955c1.009-3.348,1.298-7.523,0.829-11.269c-0.47-3.743-1.694-7.055-3.643-10.115
		c-1.946-3.06-4.616-5.868-7.5-7.881c-2.886-2.017-5.985-3.241-9.63-3.818c-3.642-0.575-7.824-0.502-11.827,0.109
		c-4.004,0.612-7.824,1.765-10.928,3.563c-3.101,1.801-5.48,4.25-7.537,6.876c-2.056,2.627-3.785,5.435-5.085,8.837
		c-1.299,3.403-2.164,7.397-1.299,10.853c-9.304-3.024-16.227-2.807-21.384-2.231c-5.157,0.576-8.548,1.512-11.938,3.275
		c-3.391,1.764-6.778,4.356-9.558,7.417c-2.776,3.059-4.938,6.586-6.454,10.188c-1.514,3.601-2.381,7.272-2.452,11.088
		c-0.07,3.815,0.649,7.774,1.84,11.231c1.189,3.455,2.85,6.406,4.761,8.891c1.911,2.482,4.074,4.5,7.591,6.426
		C338.271,164.215,343.141,166.052,352.228,165.836z"/>
	<path fill="#FFFFFF" stroke="#000000" stroke-width="1.5" stroke-miterlimit="10" d="M72.059,305.206
		c0.285-3.411,1.065-4.899,2-6.068c0.935-1.169,2.022-2.019,3.514-2.656c1.492-0.637,3.383-1.064,5.252-1.394
		c1.87-0.332,3.714-0.566,5.585-0.59c1.869-0.024,3.761,0.165,5.701,0.708s3.928,1.442,6.151,2.504
		c2.226,1.063,4.685,2.291,6.199,3.095c1.515,0.803,2.083,1.18,2.795,1.326s1.568,0.064,2.223,0.237
		c0.654,0.172,1.107,0.599,1.475,1.034c0.368,0.432,0.651,0.873,0.528,1.805c0-3,1.412-5.672,3.608-7.389
		c0.167-0.132-2.201-1.283-2.814-3.078c-0.068-0.202-0.735-1.223-1.512-1.427c-0.472-0.125-11.744-6.402-15.36-11.866
		c-2.5-3.778-4.79-8.075-4.412-11.54c0.735-6.729,4.815-10.339,7.721-10.582c2.206-0.184,4.87,0.466,7.108,1.835
		c2.665,1.632,5.086,4.649,6.25,6.056c2.125,2.568,5.147,5.546,4.473,21.897c-0.124,2.996,0.796,2.855,1.348,3.792
		c0.47,0.799,0.198,3.308,0.368,3.262c0.787-0.213,1.766-0.342,2.62-0.342c5.191,0,9.4,4.2,9.4,9.382c0,5.184-4.209,9.384-9.4,9.384
		c-0.898,0-1.765-0.125-2.587-0.358c-0.283-0.082,0.172,2.142-0.522,3.078c-1.273,1.721-1.166,2.539-1.205,2.896
		c-0.082,0.754,0.762,10.516-1.001,16.678c-0.551,1.929-3.684,8.022-8.333,11.285c-5.055,3.548-9.342,3.952-12.316,1.132
		c-1.838-1.742-3.919-5.859-3.86-9.145c0.062-3.467,1.499-6.713,3.921-10.674c1.942-3.177,4.896-5.319,7.506-7.278
		c3.071-2.308,5.913-4.13,7.078-4.548c0.688-0.246,1.661-0.604,2.083-1.08c0.561-0.635,0.635-1.333,1.195-2.172
		c0.275-0.411,2.288-1.773,2.081-1.944c-2.098-1.722-3.435-4.331-3.436-7.253c0.124,0.934-0.16,1.374-0.527,1.806
		c-0.369,0.435-0.822,0.86-1.476,1.034c-0.655,0.17-1.511,0.088-2.223,0.236c-0.713,0.146-1.28,0.523-2.795,1.326
		c-1.514,0.805-3.974,2.031-6.199,3.095c-2.224,1.063-4.21,1.961-6.151,2.504c-1.94,0.545-3.833,0.733-5.701,0.711
		c-1.871-0.024-3.715-0.261-5.585-0.592c-1.869-0.33-3.762-0.755-5.252-1.394c-1.491-0.638-2.579-1.488-3.514-2.658
		C73.124,310.105,72.344,308.619,72.059,305.206z"/>
	<path fill="#FFFFFF" stroke="#000000" stroke-width="1.5" stroke-miterlimit="10" d="M527.918,305.206
		c-0.283-3.411-1.064-4.899-1.999-6.068c-0.935-1.169-2.021-2.019-3.514-2.656c-1.49-0.637-3.383-1.064-5.251-1.394
		c-1.87-0.332-3.715-0.566-5.586-0.59c-1.869-0.024-3.762,0.165-5.7,0.708c-1.94,0.543-3.929,1.442-6.151,2.504
		c-2.226,1.063-4.686,2.291-6.199,3.095c-1.515,0.803-2.082,1.18-2.795,1.326c-0.712,0.146-1.567,0.064-2.223,0.237
		c-0.653,0.172-1.107,0.599-1.476,1.034c-0.368,0.432-0.651,0.873-0.527,1.805c0-3-1.412-5.672-3.608-7.389
		c-0.167-0.132,2.201-1.283,2.814-3.078c0.068-0.202,0.734-1.223,1.512-1.427c0.473-0.125,11.743-6.402,15.359-11.866
		c2.5-3.778,4.79-8.075,4.412-11.54c-0.735-6.729-4.814-10.339-7.722-10.582c-2.206-0.184-4.87,0.466-7.106,1.835
		c-2.665,1.632-5.087,4.649-6.25,6.056c-2.125,2.568-5.147,5.546-4.474,21.897c0.123,2.996-0.796,2.855-1.348,3.792
		c-0.471,0.799-0.198,3.308-0.368,3.262c-0.788-0.213-1.766-0.342-2.62-0.342c-5.19,0-9.398,4.2-9.398,9.382
		c0,5.184,4.208,9.384,9.398,9.384c0.898,0,1.767-0.125,2.589-0.358c0.282-0.082-0.173,2.142,0.521,3.078
		c1.273,1.721,1.165,2.539,1.205,2.896c0.081,0.754-0.764,10.516,1.001,16.678c0.551,1.929,3.684,8.022,8.333,11.285
		c5.055,3.548,9.342,3.952,12.314,1.132c1.84-1.742,3.921-5.859,3.861-9.145c-0.063-3.467-1.499-6.713-3.922-10.674
		c-1.941-3.177-4.896-5.319-7.506-7.278c-3.07-2.308-5.913-4.13-7.077-4.548c-0.688-0.246-1.661-0.604-2.083-1.08
		c-0.562-0.635-0.636-1.333-1.196-2.172c-0.273-0.411-2.286-1.773-2.08-1.944c2.1-1.722,3.437-4.331,3.438-7.253
		c-0.124,0.934,0.159,1.374,0.527,1.806c0.367,0.435,0.82,0.86,1.477,1.034c0.654,0.17,1.51,0.088,2.222,0.236
		c0.712,0.146,1.279,0.523,2.795,1.326c1.515,0.805,3.976,2.031,6.199,3.095c2.225,1.063,4.211,1.961,6.151,2.504
		c1.938,0.545,3.831,0.733,5.7,0.711c1.871-0.024,3.716-0.261,5.586-0.592c1.868-0.33,3.762-0.755,5.252-1.394
		c1.491-0.638,2.578-1.488,3.514-2.658C526.854,310.105,527.635,308.619,527.918,305.206z"/>
	<path fill="#FFFFFF" stroke="#000000" stroke-width="1.5" stroke-miterlimit="10" d="M300,58.355
		c3.418,0.284,4.908,1.063,6.08,1.995c1.17,0.934,2.021,2.019,2.66,3.508c0.639,1.488,1.065,3.377,1.396,5.242
		c0.332,1.866,0.568,3.708,0.592,5.575c0.024,1.866-0.165,3.755-0.709,5.691c-0.545,1.937-1.442,3.921-2.509,6.14
		c-1.064,2.221-2.296,4.677-3.101,6.188c-0.804,1.512-1.183,2.079-1.328,2.79c-0.147,0.711-0.063,1.565-0.237,2.219
		c-0.173,0.653-0.6,1.105-1.035,1.473c-0.433,0.367-0.875,0.649-1.81,0.526c3.006,0,5.683,1.409,7.402,3.602
		c0.132,0.167,1.286-2.197,3.084-2.809c0.2-0.068,1.225-0.734,1.43-1.509c0.125-0.472,6.413-11.723,11.887-15.333
		c3.785-2.496,8.09-4.782,11.563-4.404c6.739,0.734,10.356,4.806,10.6,7.707c0.186,2.202-0.467,4.861-1.839,7.095
		c-1.633,2.66-4.656,5.077-6.065,6.239c-2.571,2.121-5.557,5.138-21.937,4.464c-3.002-0.123-2.859,0.795-3.8,1.346
		c-0.8,0.469-3.313,0.198-3.269,0.367c0.214,0.786,0.344,1.762,0.344,2.615c0,5.182-4.207,9.383-9.398,9.383
		c-5.19,0-9.4-4.202-9.4-9.383c0-0.896,0.125-1.761,0.359-2.583c0.081-0.282-2.145,0.172-3.084-0.521
		c-1.723-1.272-2.544-1.164-2.9-1.203c-0.756-0.081-10.534,0.761-16.708-0.999c-1.93-0.55-8.035-3.677-11.305-8.318
		c-3.554-5.046-3.958-9.326-1.134-12.294c1.747-1.835,5.869-3.913,9.161-3.854c3.473,0.062,6.725,1.496,10.692,3.915
		c3.182,1.939,5.329,4.888,7.292,7.492c2.312,3.066,4.137,5.903,4.555,7.065c0.248,0.687,0.604,1.658,1.082,2.08
		c0.637,0.56,1.337,0.634,2.176,1.193c0.412,0.274,1.778,2.283,1.948,2.077c1.725-2.094,4.339-3.429,7.266-3.43
		c-0.934,0.124-1.375-0.16-1.809-0.526c-0.435-0.368-0.863-0.82-1.035-1.473c-0.172-0.653-0.089-1.508-0.238-2.218
		c-0.147-0.712-0.524-1.277-1.329-2.791c-0.804-1.511-2.035-3.967-3.099-6.188c-1.066-2.22-1.964-4.204-2.508-6.14
		c-0.545-1.938-0.734-3.826-0.712-5.691c0.024-1.867,0.261-3.709,0.592-5.575c0.333-1.865,0.757-3.755,1.397-5.242
		c0.638-1.489,1.491-2.574,2.662-3.508C295.092,59.418,296.583,58.64,300,58.355z"/>
	<path fill="#FFFFFF" stroke="#000000" stroke-width="1.5" stroke-miterlimit="10" d="M299.963,549.867
		c-3.417-0.284-4.909-1.063-6.079-1.996c-1.171-0.934-2.023-2.021-2.661-3.508c-0.638-1.488-1.067-3.377-1.397-5.242
		c-0.333-1.867-0.568-3.709-0.591-5.576c-0.024-1.864,0.166-3.754,0.709-5.689c0.545-1.938,1.444-3.922,2.508-6.141
		c1.066-2.222,2.295-4.677,3.1-6.188c0.803-1.513,1.183-2.078,1.33-2.79c0.147-0.71,0.063-1.564,0.236-2.218
		c0.173-0.653,0.6-1.105,1.037-1.474c0.432-0.367,0.874-0.649,1.809-0.526c-3.006,0-5.683-1.409-7.403-3.603
		c-0.132-0.167-1.287,2.197-3.083,2.81c-0.202,0.068-1.226,0.733-1.429,1.509c-0.125,0.473-6.414,11.724-11.888,15.333
		c-3.785,2.495-8.089,4.78-11.561,4.402c-6.74-0.732-10.358-4.806-10.6-7.706c-0.184-2.201,0.467-4.861,1.838-7.096
		c1.633-2.659,4.657-5.077,6.066-6.239c2.572-2.119,5.556-5.138,21.937-4.464c3.001,0.123,2.859-0.795,3.799-1.346
		c0.8-0.469,3.314-0.197,3.268-0.367c-0.214-0.786-0.343-1.763-0.343-2.614c0-5.183,4.208-9.384,9.399-9.384
		c5.188,0,9.4,4.201,9.4,9.384c0,0.896-0.126,1.763-0.36,2.582c-0.08,0.283,2.146-0.171,3.085,0.522
		c1.722,1.271,2.543,1.163,2.899,1.202c0.756,0.081,10.533-0.763,16.708,0.999c1.93,0.55,8.035,3.677,11.305,8.318
		c3.555,5.045,3.958,9.324,1.133,12.293c-1.745,1.835-5.868,3.912-9.16,3.854c-3.473-0.063-6.725-1.497-10.691-3.915
		c-3.182-1.939-5.328-4.888-7.292-7.492c-2.312-3.064-4.138-5.903-4.556-7.064c-0.247-0.688-0.604-1.658-1.082-2.079
		c-0.637-0.562-1.337-0.636-2.176-1.193c-0.412-0.272-1.776-2.283-1.948-2.076c-1.724,2.095-4.338,3.43-7.266,3.431
		c0.934-0.123,1.376,0.159,1.809,0.526c0.437,0.367,0.862,0.819,1.037,1.474c0.17,0.652,0.088,1.508,0.235,2.218
		c0.146,0.711,0.524,1.276,1.33,2.791c0.804,1.511,2.034,3.967,3.099,6.187c1.065,2.222,1.964,4.204,2.509,6.142
		c0.545,1.937,0.733,3.826,0.712,5.689c-0.025,1.867-0.262,3.709-0.593,5.576c-0.333,1.865-0.758,3.755-1.396,5.242
		c-0.638,1.488-1.491,2.574-2.661,3.508C304.871,548.804,303.381,549.583,299.963,549.867z"/>
</g>
</svg>
