<?xml version="1.0" encoding="utf-8"?>
<!-- Generator: Adobe Illustrator 16.0.0, SVG Export Plug-In . SVG Version: 6.00 Build 0)  -->
<!DOCTYPE svg PUBLIC "-//W3C//DTD SVG 1.1//EN" "http://www.w3.org/Graphics/SVG/1.1/DTD/svg11.dtd" [
	<!ENTITY ns_flows "http://ns.adobe.com/Flows/1.0/">
	<!ENTITY ns_extend "http://ns.adobe.com/Extensibility/1.0/">
	<!ENTITY ns_ai "http://ns.adobe.com/AdobeIllustrator/10.0/">
	<!ENTITY ns_graphs "http://ns.adobe.com/Graphs/1.0/">
]>
<svg version="1.1" id="t1" xmlns:x="&ns_extend;" xmlns:i="&ns_ai;" xmlns:graph="&ns_graphs;"
	 xmlns="http://www.w3.org/2000/svg" xmlns:xlink="http://www.w3.org/1999/xlink" xmlns:a="http://ns.adobe.com/AdobeSVGViewerExtensions/3.0/"
	 x="0px" y="0px" width="550px" height="550px" viewBox="0 0 550 550" enable-background="new 0 0 550 550" xml:space="preserve">
<g>
	<path fill="#FFFFFF" stroke="#000000" stroke-width="1.5" stroke-miterlimit="10" d="M0,0v550h550V0H0z M230.828,58.167
		c1.747-1.835,5.869-3.913,9.161-3.854c3.473,0.062,6.725,1.496,10.692,3.915c3.182,1.939,5.328,4.888,7.291,7.492
		c2.313,3.065,4.137,5.903,4.555,7.065c0.248,0.687,0.604,1.658,1.084,2.08c0.636,0.56,1.336,0.634,2.175,1.192
		c0.411,0.274,1.778,2.283,1.948,2.077c1.725-2.094,4.338-3.429,7.266-3.43c-0.934,0.123-1.375-0.16-1.809-0.527
		c-0.436-0.368-0.863-0.82-1.035-1.473c-0.172-0.654-0.09-1.508-0.238-2.219c-0.146-0.711-0.523-1.277-1.329-2.79
		c-0.804-1.511-2.035-3.967-3.099-6.188c-1.066-2.22-1.965-4.204-2.508-6.14c-0.545-1.937-0.734-3.826-0.713-5.691
		c0.024-1.867,0.262-3.708,0.592-5.575c0.334-1.865,0.758-3.755,1.397-5.242c0.638-1.489,1.491-2.574,2.662-3.508
		c1.171-0.933,2.661-1.711,6.079-1.995c3.418,0.284,4.908,1.063,6.08,1.995c1.17,0.934,2.021,2.019,2.66,3.508
		c0.639,1.488,1.064,3.377,1.396,5.242c0.332,1.867,0.568,3.708,0.592,5.575c0.024,1.866-0.166,3.754-0.709,5.691
		c-0.545,1.937-1.441,3.921-2.509,6.14c-1.063,2.221-2.296,4.677-3.101,6.188c-0.804,1.512-1.183,2.079-1.328,2.79
		c-0.147,0.711-0.063,1.565-0.237,2.219c-0.173,0.653-0.6,1.105-1.035,1.473c-0.433,0.367-0.875,0.65-1.81,0.527
		c3.006,0,5.683,1.409,7.402,3.602c0.132,0.167,1.285-2.197,3.084-2.809c0.199-0.068,1.225-0.734,1.43-1.509
		c0.124-0.472,6.413-11.723,11.887-15.333c3.785-2.496,8.09-4.782,11.563-4.404c6.738,0.734,10.355,4.806,10.6,7.707
		c0.187,2.202-0.467,4.862-1.839,7.095c-1.633,2.66-4.656,5.078-6.065,6.239c-2.57,2.121-5.557,5.138-21.937,4.464
		c-3.002-0.123-2.859,0.795-3.8,1.346c-0.8,0.469-3.313,0.198-3.27,0.367c0.214,0.786,0.344,1.762,0.344,2.615
		c0,5.182-4.207,9.383-9.397,9.383s-9.399-4.202-9.399-9.383c0-0.896,0.125-1.761,0.358-2.583c0.081-0.283-2.146,0.171-3.084-0.521
		c-1.724-1.271-2.544-1.164-2.899-1.203c-0.757-0.081-10.535,0.761-16.708-0.999c-1.93-0.55-8.035-3.677-11.305-8.318
		C228.409,65.415,228.004,61.135,230.828,58.167z M104.071,160.645c0.361-3.888,1.154-7.414,2.921-11.339
		c1.768-3.923,4.508-8.243,7.176-11.733c2.669-3.493,5.265-6.157,8.438-8.028c3.173-1.874,6.923-2.954,10.607-3.634
		c3.682-0.684,7.297-0.967,10.623-0.935c3.327,0.033,6.364,0.382,9.051,1.315c2.688,0.934,5.024,2.45,7.683,4.344
		c2.658,1.896,5.637,4.171,7.71,6.59c2.075,2.42,3.243,4.985,4.09,8.427c0.847,3.44,1.372,7.755,1.285,11.313
		c-0.087,3.558-0.789,6.358-1.985,8.982c-1.198,2.623-2.893,5.072-5.36,7.563c-2.469,2.493-5.71,5.03-12.359,6.801
		c4.618-3.622,6.761-8.396,7.284-12.813c0.521-4.415-0.578-8.476-1.731-11.822c-1.155-3.348-2.363-5.979-4.782-7.572
		c-2.418-1.59-6.046-2.139-9.62-1.865c-3.573,0.274-7.089,1.371-9.784,3.237c-2.694,1.865-4.562,4.5-5.771,7.9
		c-1.21,3.403-1.759,7.572-1.375,11.084c0.384,3.513,1.704,6.364,3.573,9.328c1.869,2.963,4.287,6.035,7.311,8.285
		c3.022,2.248,6.65,3.675,10.389,4.498c3.738,0.823,7.584,1.042,11.487,0.768c3.902-0.274,7.861-1.042,11.763-2.908
		c3.902-1.865,7.749-4.829,10.817-7.652c3.069-2.825,5.356-5.509,7.172-7.843c1.815-2.333,3.159-4.317,4.035-5.542
		c0.876-1.225,1.286-1.691,1.074-2.428c-0.21-0.737-1.043-1.746-2.217-3.005c-1.172-1.26-2.686-2.77-4.421-5.17
		c-1.736-2.4-3.696-5.688-5.431-9.2c-1.736-3.509-3.25-7.243-4.273-10.976c-1.024-3.733-1.559-7.466-1.604-11.6
		c-0.045-4.133,0.4-8.666,1.158-12.399c0.756-3.733,1.824-6.666,3.635-9.781c1.811-3.116,4.363-6.414,6.468-8.866
		c2.104-2.45,3.76-4.058,4.943-5.214c1.183-1.158,1.893-1.866,2.153-2.882c0.261-1.016,0.071-2.339-0.427-4.133
		c-0.497-1.794-1.302-4.063-2.129-6.023c-0.829-1.96-1.68-3.612-2.745-4.984c-1.065-1.37-2.342-2.456-4.046-3.542
		c-1.703-1.087-3.832-2.173-6.222-2.716c-2.39-0.543-5.04-0.543-7.642-0.142c-2.603,0.402-5.159,1.205-7.168,2.315
		c-2.012,1.109-3.479,2.528-4.425,4.346c-0.947,1.818-1.373,4.039-1.302,6.094c0.071,2.056,0.639,3.943,1.539,5.503
		c0.899,1.559,2.129,2.788,4.068,3.59c1.94,0.803,4.59,1.181,6.696,1.04c2.104-0.143,3.666-0.804,5.228-2.055
		c1.562-1.252,3.124-3.095,5.253-11.172c1.277,1.842,1.49,4.18,1.502,6.317c0.012,2.138-0.177,4.074-0.593,5.933
		c-0.416,1.858-1.059,3.64-2.27,5.24c-1.211,1.602-2.993,3.023-5.397,4.001c-2.404,0.978-5.431,1.51-8.504,1.688
		c-3.071,0.178-6.188,0-9.082-1.2c-2.894-1.2-5.566-3.423-7.39-6.4c-1.825-2.977-2.805-6.711-3.294-10.221
		c-0.49-3.511-0.49-6.801,0.132-9.645c0.624-2.844,1.871-5.243,3.518-7.554c1.647-2.312,3.695-4.534,5.85-6.391
		c2.154-1.854,4.415-3.346,8.598-4.159c4.184-0.813,10.291-0.948,14.948-0.432c4.657,0.516,7.863,1.681,10.692,3.46
		c2.831,1.778,5.284,4.17,7.182,6.618c1.898,2.449,3.243,4.956,4.119,7.64c0.876,2.682,1.285,5.54,1.751,7.582
		c0.468,2.041,0.993,3.266,1.754,3.587c0.759,0.32,1.752-0.263,4.177-0.787c2.425-0.525,6.28-0.992,9.785-1.167
		c3.505-0.174,6.66-0.058,9.698,0.612c3.038,0.672,5.958,1.896,8.676,3.411c2.715,1.517,5.228,3.325,7.565,5.481
		c2.337,2.158,4.499,4.667,6.163,7.436c1.665,2.77,2.833,5.803,3.447,9.855c0.614,4.055,0.673,9.127,0.204,13.209
		s-1.461,7.173-3.125,9.944c-1.664,2.771-4.001,5.219-7.536,7.844c-3.534,2.625-8.266,5.422-20.36,4.723
		c5.083-1.749,8.5-4.373,10.822-7.084c2.323-2.711,3.549-5.511,4.046-8.748c0.498-3.236,0.263-6.911-0.321-9.972
		s-1.519-5.511-2.746-7.435c-1.227-1.926-2.745-3.325-5.14-4.141c-2.395-0.817-5.667-1.051-8.676-0.731
		c-3.008,0.321-5.754,1.195-8.412,2.624c-2.659,1.43-5.228,3.412-7.156,5.424c-1.929,2.011-3.213,4.054-3.769,7.232
		c-0.554,3.178-0.38,7.493,0.264,11.167c0.642,3.675,1.752,6.708,3.593,9.593c1.84,2.886,4.41,5.627,7.36,8.224
		c2.951,2.594,6.28,5.043,9.64,6.792c3.36,1.751,6.748,2.8,10.6,3.199c3.853,0.399,8.167,0.149,12.126-0.36
		c3.959-0.508,7.562-1.273,10.877-2.861s6.344-3.998,10.56-8.131c4.217-4.133,9.621-9.985,16.75-19.628
		c0.828,5.256,0.741,7.968,0.375,10.55c-0.364,2.58-1.006,5.028-1.443,6.662c-0.438,1.633-0.674,2.45-0.557,3.12
		c0.118,0.67,0.584,1.195,1.899,2.012c1.313,0.815,3.476,1.924,5.87,3.003c2.396,1.079,5.023,2.127,8.268,2.887
		c3.242,0.757,7.098,1.223,11.245,1.399c4.148,0.174,8.589,0.058,12.27-0.495c3.682-0.554,6.603-1.547,9.847-3.674
		c3.241-2.128,6.805-5.395,9.258-8.487c2.454-3.09,3.798-6.006,4.499-9.768c0.701-3.76,0.759-8.368,0.293-12.333
		c-0.469-3.965-1.46-7.29-2.979-9.914c-1.521-2.624-3.563-4.548-5.987-5.859c-2.425-1.313-5.229-2.014-8.384-2.042
		c-3.153-0.029-6.658,0.612-9.58,1.896c-2.922,1.284-5.258,3.208-6.72,6.182c-1.46,2.974-2.044,6.998-2.088,10.133
		c-0.044,3.135,0.452,5.382,2.005,8.319c1.555,2.937,4.16,6.564,13.635,11.46c-9.09,0.216-13.956-1.621-17.474-3.546
		c-3.517-1.926-5.68-3.943-7.591-6.426c-1.911-2.484-3.571-5.437-4.761-8.891c-1.188-3.457-1.911-7.416-1.838-11.229
		c0.069-3.816,0.937-7.488,2.448-11.088c1.518-3.601,3.681-7.127,6.455-10.188c2.778-3.06,6.167-5.652,9.56-7.416
		c3.389-1.763,6.777-2.699,11.937-3.275c5.158-0.577,12.08-0.793,21.384,2.231c-0.863-3.455,0-7.45,1.301-10.853
		c1.298-3.403,3.027-6.21,5.085-8.837c2.055-2.627,4.436-5.076,7.537-6.876c3.102-1.797,6.923-2.951,10.927-3.563
		c4.003-0.612,8.188-0.684,11.828-0.108c3.644,0.577,6.744,1.8,9.629,3.817c2.884,2.014,5.554,4.822,7.5,7.882
		c1.948,3.06,3.173,6.372,3.643,10.115c0.47,3.745,0.183,7.92-0.829,11.268c-1.011,3.347-2.739,5.868-4.65,7.956
		c-1.912,2.087-4.003,3.744-7.396,4.607c-3.389,0.865-8.076,0.936-11.323,0.432c-3.243-0.503-5.048-1.584-6.671-3.06
		c-1.623-1.476-3.063-3.349-4.436-5.904c-1.369-2.556-2.669-5.794-0.505-14.219c0.865,3.456,1.406,5.508,2.507,7.47
		c1.099,1.962,2.758,3.833,4.777,4.841c2.021,1.007,4.397,1.153,6.489,0.972c2.094-0.181,3.896-0.683,5.303-1.656
		c1.405-0.972,2.416-2.412,3.138-4.463c0.72-2.053,1.154-4.717,0.938-6.769c-0.218-2.051-1.083-3.491-2.669-5.147
		c-1.587-1.654-3.896-3.527-6.636-4.535s-5.914-1.153-8.907-0.756s-5.805,1.333-8.438,3.06c-2.633,1.729-5.085,4.249-6.672,6.73
		c-1.586,2.485-2.31,4.932-2.74,6.912c-0.434,1.98-0.576,3.492-0.251,4.716c0.324,1.225,1.117,2.16,2.452,3.456
		c1.333,1.296,3.208,2.953,5.228,5.077c2.021,2.123,4.187,4.715,5.879,7.882c1.694,3.168,2.92,6.911,3.934,11.411
		c1.008,4.5,1.803,9.756,1.439,14.867c-0.358,5.112-1.875,10.08-3.268,13.847c-1.396,3.766-2.664,6.331-5.287,10.058
		c-2.624,3.726-6.599,8.615-9.743,13.237c3.029,7.776,8.006,12.635,11.938,16.145c3.932,3.509,6.814,5.669,9.917,7.29
		c3.102,1.619,6.419,2.7,10.134,3.239s7.824,0.539,11.357,0.072c3.534-0.467,6.491-1.404,9.091-2.772
		c2.595-1.366,4.83-3.167,6.741-5.039s3.498-3.816,4.904-6.408c1.407-2.591,2.632-5.832,3.138-9.035
		c0.507-3.204,0.287-6.371-0.47-9.107c-0.757-2.737-2.056-5.04-3.533-6.985c-1.479-1.943-3.138-3.526-5.338-4.5
		c-2.2-0.972-4.938-1.332-7.465-1.296c-2.522,0.036-4.832,0.468-6.995,1.367c-2.164,0.901-4.184,2.268-5.554,4.175
		c-1.37,1.909-2.092,4.356-2.453,7.308c-0.359,2.953-0.359,6.407-0.271,9.382c0.091,2.975,0.27,5.469,6.13,10.823
		c-5.275-1.317-8.078-2.964-10.745-5.597c-2.666-2.633-5.194-6.254-6.681-10.095c-1.481-3.841-1.923-7.902-1.372-11.961
		c0.55-4.061,2.089-8.12,4.563-11.962c2.473-3.839,5.882-7.461,9.453-9.82c3.574-2.359,7.312-3.456,11.049-4.06
		c3.737-0.603,7.477-0.713,11.214-0.329s7.476,1.262,11.213,2.907c3.736,1.646,7.478,4.061,10.39,6.913
		c2.913,2.854,5.004,6.146,6.979,10.151c1.98,4.006,3.848,8.724,4.729,13.278c0.879,4.553,0.771,8.943,0.108,13.333
		c-0.66,4.388-1.869,8.778-3.957,12.783c-2.09,4.006-5.058,7.627-8.245,11.139c-3.188,3.511-6.597,6.914-10.058,9.437
		c-3.463,2.524-6.979,4.171-11.104,5.269c-4.119,1.097-8.849,1.646-14.594,1.92c-5.742,0.274-12.504,0.274-25.312-7.09
		c0.283,3.968,0.068,6.873-0.393,9.602s-1.17,5.279-2.116,7.568c-0.946,2.292-2.131,4.322-3.82,6.649
		c-1.692,2.326-3.894,4.947-9.996,8.631c-0.142,5.244,0,8.147,0.545,10.356c0.544,2.208,1.49,3.722,2.579,5.186
		c1.088,1.463,2.318,2.881,3.854,4.087c1.538,1.203,3.386,2.195,5.468,2.809c2.082,0.615,4.398,0.852,6.577,0.803
		c2.177-0.045,4.212-0.377,5.75-0.849c1.534-0.474,2.577-1.087,3.59-2.071c1.01-0.99,1.988-2.348,2.713-4.062
		c0.72-1.712,1.18-3.779,1.083-5.807c-0.099-2.028-0.747-4.017-1.688-5.49c-0.94-1.474-2.173-2.429-3.938-3.023
		c-1.768-0.594-4.065-0.824-6.04-0.69c-1.976,0.134-3.622,0.632-5.224,1.712c-1.601,1.082-3.151,2.745-4.814,8.732
		c-1.298-3.023-0.864-6.803,0.107-9.629c0.975-2.826,2.487-4.698,4.362-6.209c1.875-1.512,4.11-2.664,6.095-3.312
		c1.983-0.648,3.716-0.793,5.625-0.648c1.911,0.145,4.005,0.577,6.097,1.332c2.093,0.755,4.184,1.835,6.021,3.491
		c1.839,1.657,3.428,3.888,4.58,7.128c1.155,3.24,1.875,7.486,1.875,10.871c0,3.385-0.72,5.904-2.02,8.459
		c-1.298,2.557-3.174,5.148-5.336,7.309c-2.164,2.16-4.617,3.887-7.143,5.002c-2.522,1.116-5.121,1.621-8.043,1.834
		c-2.92,0.215-6.166,0.146-9.591-0.646c-3.426-0.794-7.033-2.306-10.134-4.142c-3.103-1.834-5.698-3.996-8.352-7.775
		c-2.647-3.779-5.354-9.18-5.794-19.209c-5.606,1.224-10.775,0.875-15.67-0.467c-4.894-1.342-9.508-3.673-12.839-6.444
		c-3.33-2.771-5.375-5.978-6.774-9.535c-1.403-3.556-2.161-7.463-2.074-10.992c0.088-3.528,1.021-6.676,2.542-9.825
		c1.519-3.15,3.622-6.299,6.427-8.457c2.804-2.158,6.31-3.324,9.259-3.907c2.951-0.584,5.347-0.584,8.34-0.059
		c2.994,0.524,6.586,1.576,13.772,11.371c-2.608-2.819-4.752-3.807-7.252-4.3c-2.502-0.493-5.359-0.493-8.107,0.329
		c-2.749,0.823-5.387,2.468-7.2,4.829c-1.813,2.36-2.804,5.432-2.639,8.34c0.165,2.908,1.485,5.65,3.298,7.736
		c1.814,2.085,4.122,3.511,6.599,4.114c2.472,0.603,5.109,0.384,7.858-0.275c2.747-0.659,5.605-1.754,8.244-4.004
		c2.638-2.25,5.058-5.652,6.431-9.438c1.374-3.786,1.703-7.956,1.154-11.741c-0.55-3.788-1.979-7.188-3.957-10.152
		c-1.979-2.962-4.508-5.486-7.585-8.011c-3.077-2.523-6.705-5.047-10.058-6.143c-3.354-1.099-6.435-0.77-10.279-0.495
		c-3.847,0.273-8.464,0.495-13.465-0.055c-5.003-0.549-10.389-1.865-15.172-3.622c-4.781-1.754-8.958-3.95-12.352-6.486
		c-3.392-2.535-5.994-5.412-7.5-6.99c-1.503-1.576-1.906-1.856-3.123-0.923s-3.244,3.078-5.634,4.948
		c-2.39,1.874-5.141,3.473-8.177,5.064c-3.035,1.592-6.352,3.176-9.887,4.545c-3.533,1.367-7.284,2.52-12.574,3.052
		c-5.292,0.532-12.123,0.446-16.563,0.404c-4.44-0.044-6.488-0.044-8.27,0.354c-1.78,0.4-3.294,1.2-5.386,2.667
		c-2.093,1.466-4.764,3.6-7.079,5.822c-2.315,2.224-4.274,4.534-5.833,7.155c-1.558,2.622-2.716,5.556-3.206,8.8
		c-0.489,3.244-0.313,6.8,0.534,10.044c0.846,3.243,2.36,6.177,4.095,8.443c1.737,2.266,3.696,3.867,6.1,5.156
		c2.404,1.289,5.253,2.266,7.881,2.355c2.626,0.089,5.03-0.71,7.124-1.823c2.092-1.11,3.873-2.533,5.209-4.354
		c1.335-1.823,2.226-4.045,2.334-6.41c0.108-2.365-0.566-4.873-1.703-6.901c-1.138-2.028-2.74-3.576-4.885-4.549
		c-2.146-0.976-4.838-1.376-7.862-1.107c-3.024,0.27-6.382,1.212-10.346,4.075c1.515-3.456,2.813-5.615,4.599-7.3
		c1.786-1.682,4.061-2.89,6.627-3.768c2.565-0.879,5.423-1.426,8.611-1.208c3.188,0.22,6.705,1.208,9.563,3.018
		c2.859,1.811,5.058,4.445,6.706,7.299c1.649,2.853,2.749,5.925,3.132,9.491c0.386,3.567,0.056,7.626-0.824,11.303
		c-0.878,3.674-2.308,6.967-4.452,9.656c-2.145,2.688-5.002,4.772-9.234,6.967c-4.231,2.194-9.838,4.5-21.769,2.171
		c-0.175,6.823-1.139,10.758-2.351,14.098s-2.674,6.08-4.572,8.324c-1.899,2.246-4.235,3.996-6.747,5.541
		c-2.512,1.545-5.2,2.887-8.618,3.613c-3.417,0.729-7.566,0.848-11.508,0.176c-3.943-0.67-7.683-2.129-10.925-3.966
		s-5.988-4.052-7.945-6.647c-1.958-2.594-3.125-5.568-3.739-8.893c-0.613-3.322-0.671-6.999-0.409-9.651
		c0.264-2.653,0.847-4.286,1.986-6.065c1.139-1.779,2.833-3.703,4.995-5.395c2.162-1.691,4.791-3.149,7.39-3.877
		c2.599-0.728,5.169-0.728,7.492-0.429c2.323,0.301,4.395,0.898,6.161,1.869c1.764,0.97,3.221,2.309,4.458,3.402
		c1.237,1.095,2.254,1.944,3.045,4.043c0.791,2.1,1.357,5.452,0.115,10.694c-0.567-3.542-0.923-4.888-1.692-6.199
		c-0.769-1.312-1.952-2.586-3.514-3.531c-1.561-0.945-3.501-1.56-5.11-1.819c-1.608-0.26-2.886-0.164-4.258,0.167
		c-1.373,0.331-2.839,0.896-4.094,2.197c-1.253,1.298-2.295,3.329-2.863,5.219c-0.568,1.888-0.662,3.637-0.544,5.29
		c0.118,1.652,0.45,3.212,1.585,4.771c1.135,1.56,3.076,3.119,5.277,4.086c2.2,0.968,4.661,1.346,6.624,1.393
		c1.964,0.049,3.432-0.236,5.253-0.943c1.821-0.709,3.998-1.842,5.938-3.307c1.94-1.464,3.644-3.258,5.134-5.431
		c1.491-2.173,2.768-4.723,2.099-13.346c-4.76-2.809-7.682-6.696-10.386-11.177c-2.705-4.481-5.193-9.559-7.14-20.142
		c-4.976,3.456-9.412,4.212-13.686,4.841c-4.272,0.63-8.384,1.135-12.748,0.882c-4.363-0.252-8.979-1.26-13.415-2.988
		c-4.436-1.729-8.691-4.177-12.226-6.805c-3.534-2.627-6.347-5.435-8.943-8.459c-2.597-3.024-4.977-6.262-6.745-9.97
		c-1.766-3.708-2.92-7.884-3.533-12.095C103.783,168.78,103.711,164.533,104.071,160.645z M95.292,289.23
		c-0.284-0.08,0.171,2.143-0.523,3.08c-1.273,1.719-1.166,2.539-1.205,2.895c-0.082,0.754,0.762,10.516-1.001,16.678
		c-0.551,1.928-3.684,8.021-8.333,11.285c-5.055,3.548-9.342,3.952-12.316,1.132c-1.838-1.743-3.919-5.858-3.86-9.146
		c0.062-3.467,1.499-6.713,3.921-10.674c1.942-3.176,4.896-5.318,7.505-7.277c3.071-2.307,5.913-4.131,7.078-4.547
		c0.688-0.247,1.661-0.604,2.083-1.081c0.561-0.636,0.635-1.333,1.195-2.173c0.275-0.41,2.288-1.772,2.081-1.943
		c-2.098-1.721-3.435-4.331-3.436-7.253c0.124,0.933-0.16,1.374-0.528,1.806c-0.368,0.437-0.821,0.86-1.475,1.034
		c-0.655,0.17-1.511,0.088-2.223,0.236c-0.713,0.146-1.279,0.524-2.795,1.327c-1.514,0.804-3.974,2.031-6.199,3.094
		c-2.224,1.063-4.21,1.961-6.151,2.504c-1.94,0.545-3.833,0.732-5.701,0.711c-1.871-0.023-3.716-0.261-5.585-0.592
		c-1.869-0.33-3.762-0.756-5.252-1.395c-1.491-0.638-2.579-1.488-3.514-2.656s-1.715-2.655-2-6.068c0.285-3.411,1.065-4.898,2-6.068
		c0.935-1.168,2.022-2.019,3.514-2.656c1.492-0.637,3.383-1.063,5.252-1.394c1.87-0.332,3.714-0.565,5.585-0.59
		c1.868-0.024,3.761,0.165,5.701,0.708s3.928,1.441,6.151,2.504c2.226,1.063,4.685,2.291,6.199,3.096
		c1.515,0.801,2.083,1.18,2.795,1.326s1.568,0.064,2.223,0.236c0.654,0.172,1.107,0.6,1.475,1.033
		c0.368,0.434,0.651,0.873,0.528,1.806c0-3.001,1.412-5.672,3.608-7.39c0.167-0.131-2.201-1.283-2.814-3.078
		c-0.068-0.202-0.735-1.223-1.512-1.428c-0.472-0.125-11.744-6.401-15.36-11.865c-2.5-3.778-4.79-8.075-4.412-11.541
		c0.735-6.729,4.815-10.339,7.721-10.582c2.206-0.184,4.87,0.466,7.108,1.835c2.665,1.632,5.086,4.649,6.25,6.056
		c2.125,2.568,5.147,5.546,4.472,21.897c-0.123,2.996,0.796,2.854,1.348,3.791c0.47,0.8,0.198,3.309,0.368,3.263
		c0.787-0.213,1.766-0.343,2.62-0.343c5.191,0,9.4,4.201,9.4,9.384c0,5.182-4.209,9.383-9.4,9.383
		C96.982,289.59,96.115,289.465,95.292,289.23z M319.134,500.056c-1.745,1.835-5.868,3.912-9.16,3.854
		c-3.473-0.063-6.725-1.497-10.69-3.915c-3.184-1.938-5.328-4.888-7.292-7.492c-2.313-3.063-4.136-5.903-4.557-7.063
		c-0.245-0.688-0.604-1.658-1.083-2.079c-0.636-0.563-1.336-0.637-2.176-1.193c-0.411-0.272-1.775-2.283-1.945-2.077
		c-1.727,2.096-4.34,3.432-7.268,3.433c0.934-0.123,1.375,0.158,1.809,0.525c0.438,0.367,0.863,0.819,1.035,1.475
		c0.172,0.652,0.088,1.508,0.237,2.218c0.147,0.712,0.524,1.275,1.329,2.79c0.805,1.512,2.035,3.968,3.1,6.188
		c1.065,2.22,1.965,4.203,2.51,6.142c0.545,1.937,0.732,3.824,0.712,5.688c-0.024,1.867-0.263,3.709-0.595,5.576
		c-0.332,1.865-0.756,3.755-1.396,5.242c-0.639,1.487-1.491,2.573-2.662,3.508c-1.17,0.933-2.66,1.712-6.078,1.996
		c-3.417-0.284-4.909-1.063-6.079-1.996c-1.171-0.935-2.023-2.021-2.66-3.508c-0.639-1.488-1.067-3.377-1.397-5.242
		c-0.333-1.867-0.568-3.709-0.591-5.576c-0.024-1.864,0.166-3.754,0.709-5.688c0.545-1.938,1.443-3.922,2.509-6.142
		c1.065-2.222,2.295-4.677,3.101-6.188c0.803-1.514,1.182-2.078,1.329-2.79c0.147-0.71,0.063-1.564,0.236-2.218
		c0.173-0.654,0.601-1.105,1.037-1.475c0.432-0.367,0.874-0.648,1.809-0.525c-3.006,0-5.683-1.409-7.403-3.604
		c-0.131-0.167-1.287,2.197-3.082,2.81c-0.203,0.068-1.227,0.733-1.43,1.51c-0.125,0.473-6.414,11.724-11.888,15.333
		c-3.785,2.495-8.089,4.78-11.561,4.401c-6.74-0.731-10.358-4.806-10.6-7.706c-0.184-2.2,0.467-4.86,1.838-7.096
		c1.633-2.659,4.657-5.077,6.066-6.239c2.572-2.119,5.556-5.138,21.937-4.464c3.001,0.123,2.859-0.795,3.8-1.346
		c0.799-0.469,3.313-0.197,3.268-0.367c-0.215-0.786-0.344-1.763-0.344-2.614c0-5.183,4.209-9.384,9.399-9.384
		c5.188,0,9.4,4.201,9.4,9.384c0,0.896-0.126,1.764-0.36,2.582c-0.08,0.283,2.146-0.171,3.085,0.522
		c1.724,1.271,2.543,1.163,2.899,1.202c0.756,0.081,10.534-0.764,16.708,0.999c1.93,0.55,8.035,3.677,11.305,8.317
		C321.555,492.808,321.958,497.087,319.134,500.056z M448.517,399.222c-0.879,4.556-2.747,9.272-4.727,13.277
		c-1.978,4.005-4.067,7.297-6.98,10.15c-2.91,2.854-6.648,5.268-10.388,6.911c-3.738,1.646-7.475,2.523-11.213,2.908
		c-3.737,0.383-7.476,0.272-11.214-0.329c-3.737-0.604-7.477-1.7-11.049-4.061c-3.571-2.359-6.98-5.98-9.453-9.821
		c-2.476-3.841-4.013-7.898-4.563-11.96c-0.55-4.062-0.107-8.121,1.373-11.961c1.483-3.841,4.015-7.462,6.681-10.097
		c2.667-2.633,5.47-4.279,10.744-5.599c-5.859,5.356-6.04,7.851-6.131,10.824c-0.089,2.976-0.089,6.431,0.271,9.382
		c0.358,2.952,1.081,5.4,2.452,7.309c1.369,1.907,3.39,3.273,5.554,4.176c2.163,0.9,4.472,1.333,6.995,1.368
		c2.523,0.036,5.265-0.324,7.465-1.296c2.2-0.975,3.857-2.558,5.338-4.501c1.479-1.942,2.776-4.246,3.533-6.983
		c0.757-2.736,0.974-5.903,0.47-9.104c-0.507-3.205-1.729-6.446-3.138-9.037c-1.408-2.592-2.993-4.534-4.904-6.407
		c-1.911-1.872-4.146-3.672-6.743-5.04c-2.597-1.367-5.555-2.303-9.089-2.771c-3.535-0.468-7.645-0.468-11.357,0.072
		c-3.716,0.54-7.032,1.62-10.136,3.24c-3.101,1.619-5.984,3.779-9.917,7.289c-3.931,3.509-8.905,8.37-11.937,16.145
		c3.145,4.624,7.12,9.514,9.743,13.238s3.895,6.291,5.287,10.059c1.393,3.767,2.905,8.732,3.268,13.847
		c0.361,5.11-0.433,10.367-1.441,14.867c-1.011,4.497-2.235,8.241-3.933,11.409c-1.694,3.166-3.858,5.761-5.878,7.886
		c-2.021,2.123-3.896,3.777-5.229,5.073c-1.335,1.298-2.129,2.232-2.451,3.456c-0.324,1.226-0.183,2.735,0.252,4.719
		c0.433,1.979,1.152,4.427,2.739,6.908c1.586,2.484,4.038,5.005,6.672,6.731c2.635,1.729,5.444,2.664,8.438,3.063
		c2.993,0.396,6.167,0.25,8.907-0.758c2.741-1.008,5.048-2.88,6.636-4.535c1.586-1.654,2.452-3.095,2.668-5.146
		c0.218-2.053-0.216-4.718-0.938-6.77c-0.723-2.053-1.73-3.491-3.138-4.465c-1.406-0.973-3.21-1.475-5.302-1.654
		c-2.092-0.181-4.472-0.034-6.491,0.972c-2.02,1.009-3.679,2.882-4.775,4.842c-1.103,1.962-1.644,4.016-2.509,7.47
		c-2.161-8.423-0.864-11.66,0.507-14.218c1.368-2.556,2.813-4.428,4.436-5.901c1.623-1.479,3.427-2.56,6.671-3.063
		c3.246-0.504,7.937-0.432,11.324,0.432c3.389,0.864,5.479,2.521,7.393,4.607c1.911,2.088,3.645,4.607,4.652,7.957
		c1.009,3.348,1.298,7.522,0.829,11.267c-0.469,3.742-1.694,7.057-3.645,10.115c-1.945,3.062-4.614,5.868-7.5,7.884
		c-2.885,2.019-5.983,3.24-9.629,3.816c-3.642,0.575-7.823,0.504-11.826-0.109c-4.005-0.609-7.824-1.764-10.929-3.563
		c-3.101-1.802-5.479-4.25-7.537-6.877c-2.056-2.627-3.784-5.436-5.085-8.837c-1.299-3.401-2.164-7.397-1.299-10.854
		c-9.304,3.024-16.227,2.811-21.385,2.231c-5.156-0.574-8.547-1.512-11.938-3.274c-3.391-1.765-6.777-4.354-9.558-7.416
		c-2.776-3.061-4.938-6.588-6.455-10.188c-1.514-3.602-2.379-7.271-2.45-11.089c-0.071-3.813,0.647-7.775,1.838-11.23
		c1.191-3.455,2.852-6.408,4.763-8.892c1.911-2.484,4.072-4.499,7.591-6.427c3.516-1.926,8.385-3.761,17.471-3.545
		c-9.472,4.896-12.079,8.521-13.632,11.458c-1.553,2.938-2.05,5.187-2.005,8.32c0.044,3.136,0.628,7.16,2.088,10.133
		c1.46,2.977,3.797,4.899,6.718,6.183c2.922,1.282,6.429,1.925,9.581,1.896c3.155-0.028,5.959-0.729,8.383-2.039
		c2.428-1.313,4.472-3.238,5.988-5.861c1.521-2.624,2.512-5.946,2.979-9.913c0.467-3.967,0.406-8.571-0.292-12.334
		c-0.701-3.763-2.045-6.678-4.499-9.769c-2.453-3.091-6.02-6.354-9.261-8.485c-3.241-2.128-6.163-3.118-9.845-3.673
		c-3.68-0.554-8.119-0.672-12.269-0.496c-4.146,0.177-8.003,0.643-11.245,1.399s-5.871,1.808-8.27,2.888
		c-2.395,1.079-4.555,2.188-5.868,3.003c-1.315,0.814-1.781,1.342-1.899,2.014c-0.116,0.67,0.117,1.484,0.555,3.117
		c0.438,1.635,1.081,4.081,1.445,6.662c0.365,2.582,0.453,5.292-0.375,10.549c-7.129-9.643-12.534-15.494-16.75-19.629
		c-4.216-4.133-7.245-6.544-10.56-8.131c-3.315-1.589-6.918-2.354-10.877-2.859c-3.958-0.511-8.273-0.762-12.125-0.361
		c-3.853,0.399-7.241,1.448-10.6,3.199c-3.36,1.749-6.689,4.196-9.639,6.793c-2.952,2.596-5.521,5.337-7.361,8.224
		c-1.842,2.886-2.951,5.917-3.593,9.592c-0.642,3.676-0.817,7.989-0.264,11.168c0.555,3.18,1.84,5.221,3.769,7.23
		c1.929,2.013,4.498,3.995,7.157,5.424c2.658,1.429,5.403,2.305,8.411,2.626c3.009,0.319,6.281,0.087,8.677-0.729
		c2.396-0.816,3.914-2.218,5.14-4.143c1.228-1.925,2.162-4.374,2.746-7.436c0.584-3.063,0.818-6.735,0.321-9.975
		c-0.497-3.233-1.723-6.032-4.046-8.744c-2.322-2.715-5.739-5.339-10.822-7.087c12.093-0.698,16.825,2.102,20.36,4.724
		c3.534,2.625,5.872,5.075,7.538,7.844c1.666,2.771,2.657,5.861,3.125,9.943c0.467,4.082,0.408,9.155-0.205,13.21
		c-0.615,4.054-1.781,7.086-3.447,9.854c-1.665,2.771-3.826,5.277-6.164,7.438c-2.336,2.157-4.849,3.965-7.564,5.479
		c-2.717,1.518-5.638,2.741-8.677,3.411c-3.039,0.672-6.192,0.787-9.698,0.612c-3.504-0.175-7.36-0.643-9.785-1.166
		c-2.424-0.524-3.417-1.108-4.176-0.788c-0.759,0.32-1.286,1.545-1.754,3.587c-0.467,2.042-0.875,4.898-1.752,7.581
		c-0.877,2.684-2.221,5.191-4.119,7.64c-1.899,2.449-4.352,4.843-7.182,6.62c-2.831,1.778-6.036,2.943-10.692,3.461
		c-4.657,0.517-10.764,0.379-14.948-0.434c-4.183-0.813-6.444-2.303-8.598-4.159c-2.155-1.854-4.203-4.078-5.85-6.388
		c-1.648-2.313-2.895-4.711-3.518-7.558c-0.623-2.845-0.623-6.134-0.133-9.644c0.489-3.512,1.469-7.245,3.294-10.223
		c1.824-2.979,4.496-5.198,7.39-6.4c2.894-1.199,6.011-1.377,9.082-1.199c3.073,0.178,6.101,0.711,8.504,1.689
		c2.404,0.978,4.186,2.397,5.397,4.001c1.211,1.602,1.855,3.381,2.27,5.24c0.416,1.855,0.605,3.794,0.593,5.933
		c-0.012,2.139-0.225,4.476-1.502,6.317c-2.13-8.077-3.692-9.921-5.253-11.174s-3.124-1.913-5.229-2.055
		c-2.106-0.142-4.756,0.236-6.696,1.039c-1.94,0.804-3.169,2.031-4.068,3.59c-0.899,1.563-1.468,3.448-1.538,5.503
		c-0.071,2.059,0.354,4.275,1.302,6.094c0.946,1.818,2.413,3.237,4.424,4.348c2.011,1.109,4.566,1.914,7.168,2.313
		c2.603,0.401,5.252,0.401,7.643-0.141c2.39-0.544,4.519-1.631,6.223-2.718c1.704-1.086,2.981-2.172,4.046-3.542
		c1.064-1.369,1.917-3.022,2.745-4.982c0.827-1.961,1.632-4.229,2.129-6.022c0.497-1.794,0.686-3.117,0.427-4.135
		c-0.261-1.016-0.97-1.723-2.153-2.881c-1.184-1.155-2.839-2.764-4.943-5.214c-2.104-2.453-4.657-5.751-6.467-8.864
		c-1.811-3.116-2.879-6.049-3.635-9.782c-0.757-3.73-1.203-8.268-1.158-12.398c0.043-4.132,0.578-7.865,1.603-11.599
		c1.023-3.733,2.537-7.47,4.273-10.979c1.736-3.512,3.695-6.799,5.431-9.199c1.736-2.397,3.249-3.909,4.421-5.17
		c1.173-1.26,2.006-2.268,2.217-3.006c0.212-0.736-0.197-1.202-1.074-2.428c-0.875-1.225-2.22-3.207-4.035-5.541
		c-1.817-2.335-4.104-5.021-7.172-7.845c-3.068-2.824-6.915-5.787-10.816-7.651c-3.902-1.865-7.861-2.634-11.763-2.908
		s-7.749-0.056-11.487,0.771c-3.738,0.821-7.365,2.25-10.388,4.498c-3.023,2.25-5.442,5.321-7.311,8.284s-3.188,5.813-3.573,9.325
		c-0.384,3.514,0.165,7.684,1.375,11.083c1.208,3.402,3.078,6.035,5.771,7.9c2.693,1.864,6.211,2.964,9.784,3.237
		c3.573,0.272,7.201-0.273,9.62-1.865c2.418-1.592,3.627-4.227,4.782-7.572c1.154-3.347,2.253-7.406,1.731-11.823
		c-0.522-4.418-2.666-9.188-7.284-12.81c6.649,1.769,9.891,4.306,12.359,6.798c2.468,2.492,4.163,4.942,5.361,7.565
		c1.197,2.625,1.899,5.425,1.985,8.979c0.088,3.559-0.438,7.872-1.285,11.314c-0.847,3.438-2.016,6.006-4.09,8.426
		c-2.074,2.422-5.053,4.693-7.711,6.59c-2.658,1.896-4.995,3.412-7.682,4.345c-2.687,0.935-5.725,1.282-9.051,1.314
		c-3.327,0.034-6.941-0.251-10.624-0.935c-3.684-0.682-7.434-1.762-10.607-3.635c-3.173-1.872-5.77-4.535-8.438-8.025
		c-2.668-3.491-5.409-7.813-7.175-11.735c-1.768-3.923-2.56-7.45-2.921-11.339c-0.361-3.888-0.288-8.137,0.325-12.349
		c0.613-4.213,1.768-8.388,3.533-12.095c1.768-3.707,4.147-6.946,6.744-9.972c2.597-3.022,5.41-5.831,8.943-8.458
		c3.533-2.63,7.789-5.076,12.226-6.806c4.435-1.729,9.051-2.734,13.415-2.986c4.364-0.252,8.475,0.252,12.748,0.881
		c4.273,0.632,8.71,1.388,13.686,4.843c1.947-10.582,4.435-15.657,7.14-20.142c2.706-4.481,5.625-8.369,10.387-11.178
		c0.669-8.621-0.608-11.174-2.099-13.348c-1.491-2.172-3.194-3.966-5.135-5.431c-1.94-1.464-4.116-2.599-5.938-3.308
		c-1.821-0.709-3.289-0.992-5.252-0.945c-1.964,0.05-4.425,0.427-6.625,1.396c-2.201,0.969-4.141,2.526-5.276,4.084
		c-1.135,1.559-1.467,3.119-1.585,4.771s-0.023,3.4,0.545,5.291c0.567,1.889,1.609,3.92,2.862,5.22s2.721,1.866,4.093,2.196
		c1.373,0.33,2.65,0.425,4.259,0.166c1.61-0.26,3.549-0.875,5.11-1.819c1.562-0.944,2.746-2.22,3.514-3.53
		c0.77-1.311,1.125-2.656,1.692-6.199c1.242,5.242,0.675,8.597-0.115,10.695c-0.792,2.102-1.808,2.947-3.045,4.043
		c-1.236,1.092-2.693,2.434-4.458,3.401c-1.766,0.97-3.839,1.569-6.161,1.868c-2.321,0.301-4.892,0.301-7.492-0.43
		c-2.6-0.729-5.229-2.188-7.39-3.877c-2.162-1.691-3.856-3.615-4.996-5.396c-1.139-1.779-1.723-3.412-1.986-6.063
		c-0.263-2.654-0.204-6.328,0.409-9.65c0.614-3.323,1.781-6.299,3.739-8.893c1.957-2.598,4.703-4.813,7.945-6.649
		c3.243-1.837,6.981-3.296,10.926-3.964c3.942-0.672,8.091-0.555,11.507,0.174c3.418,0.729,6.106,2.068,8.618,3.615
		c2.512,1.545,4.849,3.295,6.748,5.539c1.899,2.246,3.36,4.985,4.572,8.324c1.211,3.338,2.176,7.273,2.351,14.098
		c11.93-2.326,17.537-0.021,21.768,2.173c4.233,2.194,7.091,4.28,9.234,6.97c2.145,2.688,3.573,5.979,4.452,9.654
		c0.88,3.677,1.209,7.736,0.825,11.303c-0.385,3.568-1.485,6.641-3.133,9.491c-1.649,2.854-3.847,5.487-6.706,7.298
		c-2.858,1.813-6.375,2.799-9.563,3.02s-6.046-0.328-8.612-1.207c-2.565-0.879-4.841-2.086-6.626-3.77
		c-1.786-1.684-3.084-3.844-4.599-7.3c3.964,2.864,7.321,3.808,10.346,4.077c3.023,0.27,5.715-0.135,7.862-1.105
		c2.145-0.977,3.748-2.523,4.885-4.55c1.137-2.028,1.812-4.536,1.703-6.901c-0.108-2.363-0.999-4.588-2.334-6.41
		c-1.335-1.821-3.118-3.244-5.209-4.354c-2.093-1.108-4.497-1.91-7.123-1.82c-2.628,0.091-5.477,1.065-7.88,2.354
		c-2.404,1.289-4.363,2.891-6.1,5.156c-1.735,2.266-3.249,5.199-4.095,8.442c-0.846,3.244-1.024,6.802-0.535,10.045
		c0.49,3.244,1.647,6.177,3.207,8.798c1.559,2.623,3.518,4.935,5.832,7.156c2.314,2.225,4.986,4.354,7.08,5.821
		c2.092,1.467,3.605,2.266,5.386,2.668c1.78,0.397,3.829,0.397,8.27,0.354c4.439-0.043,11.271-0.129,16.563,0.401
		c5.291,0.533,9.042,1.688,12.576,3.056c3.533,1.366,6.852,2.949,9.887,4.542s5.785,3.19,8.176,5.063
		c2.39,1.873,4.418,4.018,5.634,4.949c1.215,0.934,1.618,0.653,3.124-0.925c1.504-1.577,4.107-4.453,7.5-6.989
		s7.568-4.73,12.352-6.486c4.781-1.755,10.17-3.071,15.171-3.62c5.003-0.55,9.619-0.329,13.466-0.056
		c3.848,0.273,6.925,0.604,10.278-0.494c3.353-1.096,6.979-3.621,10.059-6.144c3.078-2.525,5.605-5.05,7.584-8.013
		s3.409-6.363,3.957-10.15c0.55-3.784,0.222-7.954-1.153-11.74s-3.793-7.188-6.431-9.438c-2.64-2.25-5.497-3.349-8.244-4.004
		c-2.749-0.66-5.388-0.878-7.861-0.275c-2.473,0.604-4.779,2.029-6.596,4.115c-1.813,2.086-3.133,4.828-3.298,7.733
		c-0.165,2.91,0.824,5.981,2.638,8.343c1.814,2.355,4.452,4.004,7.201,4.827c2.747,0.822,5.605,0.822,8.107,0.329
		c2.501-0.493,4.645-1.48,7.252-4.302c-7.188,9.797-10.778,10.848-13.772,11.37c-2.994,0.523-5.389,0.523-8.34-0.061
		c-2.95-0.582-6.455-1.748-9.259-3.904c-2.807-2.157-4.908-5.309-6.428-8.457c-1.521-3.148-2.452-6.299-2.542-9.825
		c-0.089-3.527,0.674-7.437,2.072-10.992c1.402-3.558,3.448-6.765,6.777-9.533c3.33-2.771,7.945-5.104,12.839-6.442
		c4.893-1.344,10.063-1.693,15.67-0.469c0.439-10.031,3.146-15.432,5.795-19.212c2.65-3.778,5.247-5.938,8.351-7.774
		c3.101-1.834,6.708-3.346,10.133-4.139c3.426-0.791,6.672-0.863,9.593-0.646c2.921,0.216,5.519,0.72,8.042,1.836
		c2.523,1.115,4.977,2.846,7.141,5.004c2.162,2.159,4.038,4.75,5.336,7.309c1.3,2.555,2.021,5.074,2.021,8.459
		s-0.721,7.631-1.875,10.871s-2.74,5.473-4.58,7.127c-1.839,1.656-3.93,2.736-6.021,3.494c-2.095,0.754-4.186,1.188-6.098,1.33
		c-1.91,0.145-3.642,0-5.624-0.65c-1.982-0.646-4.22-1.799-6.096-3.312c-1.875-1.511-3.39-3.384-4.362-6.21
		c-0.973-2.824-1.405-6.605-0.106-9.628c1.663,5.985,3.216,7.649,4.813,8.731c1.604,1.08,3.248,1.578,5.225,1.713
		c1.975,0.134,4.271-0.097,6.039-0.689c1.767-0.592,2.994-1.549,3.938-3.021c0.941-1.475,1.592-3.465,1.688-5.489
		c0.096-2.027-0.364-4.095-1.084-5.808c-0.723-1.713-1.701-3.072-2.715-4.061c-1.01-0.986-2.053-1.602-3.59-2.072
		c-1.537-0.473-3.572-0.803-5.749-0.851c-2.178-0.05-4.494,0.188-6.577,0.804c-2.082,0.612-3.928,1.604-5.466,2.811
		c-1.537,1.203-2.768,2.621-3.855,4.086s-2.034,2.977-2.579,5.185c-0.544,2.208-0.687,5.114-0.544,10.358
		c6.104,3.684,8.305,6.304,9.996,8.632c1.69,2.325,2.875,4.356,3.818,6.646c0.947,2.291,1.656,4.842,2.118,7.568
		c0.461,2.729,0.674,5.635,0.393,9.604c12.808-7.363,19.567-7.363,25.312-7.092c5.744,0.273,10.473,0.823,14.594,1.922
		c4.122,1.1,7.643,2.742,11.104,5.268c3.462,2.521,6.871,5.926,10.059,9.438c3.188,3.513,6.155,7.134,8.244,11.139
		c2.089,4.007,3.298,8.396,3.957,12.783C449.286,390.277,449.396,394.667,448.517,399.222z M500.919,286.275
		c-0.935,1.168-2.021,2.019-3.514,2.656c-1.49,0.639-3.383,1.063-5.251,1.395c-1.87,0.33-3.715,0.566-5.586,0.591
		c-1.869,0.022-3.763-0.167-5.7-0.71c-1.94-0.544-3.929-1.439-6.151-2.504c-2.226-1.063-4.686-2.291-6.199-3.096
		c-1.515-0.803-2.082-1.182-2.795-1.326c-0.712-0.148-1.566-0.065-2.223-0.236c-0.653-0.173-1.107-0.6-1.476-1.033
		c-0.369-0.433-0.651-0.875-0.527-1.807c0,2.922-1.338,5.531-3.438,7.253c-0.208,0.171,1.807,1.534,2.08,1.944
		c0.562,0.838,0.636,1.537,1.195,2.172c0.423,0.479,1.396,0.835,2.083,1.08c1.165,0.418,4.008,2.24,7.078,4.547
		c2.608,1.961,5.563,4.104,7.506,7.279c2.423,3.961,3.859,7.207,3.921,10.672c0.063,3.287-2.021,7.402-3.859,9.146
		c-2.975,2.819-7.262,2.416-12.314-1.132c-4.649-3.264-7.782-9.355-8.334-11.284c-1.764-6.161-0.919-15.924-1-16.68
		c-0.04-0.354,0.068-1.177-1.206-2.896c-0.692-0.938-0.239-3.16-0.521-3.078c-0.822,0.233-1.69,0.358-2.59,0.358
		c-5.189,0-9.397-4.2-9.397-9.384c0-5.182,4.208-9.383,9.397-9.383c0.855,0,1.833,0.13,2.619,0.343
		c0.171,0.046-0.102-2.463,0.368-3.263c0.552-0.938,1.474-0.795,1.349-3.791c-0.675-16.352,2.35-19.329,4.475-21.897
		c1.164-1.407,3.585-4.424,6.25-6.056c2.236-1.369,4.9-2.018,7.105-1.835c2.906,0.242,6.985,3.854,7.723,10.581
		c0.378,3.465-1.912,7.761-4.412,11.54c-3.615,5.465-14.887,11.742-15.359,11.867c-0.774,0.203-1.442,1.225-1.512,1.426
		c-0.613,1.795-2.981,2.947-2.814,3.078c2.196,1.718,3.608,4.389,3.608,7.39c-0.124-0.933,0.159-1.372,0.527-1.806
		c0.366-0.437,0.819-0.861,1.477-1.033c0.654-0.172,1.51-0.09,2.222-0.236c0.713-0.146,1.279-0.525,2.795-1.328
		s3.977-2.029,6.199-3.094c2.226-1.063,4.211-1.96,6.151-2.504c1.938-0.542,3.831-0.732,5.7-0.708
		c1.871,0.022,3.716,0.258,5.586,0.59c1.868,0.33,3.762,0.756,5.252,1.394c1.491,0.638,2.578,1.487,3.514,2.656
		c0.936,1.168,1.714,2.657,1.998,6.068C502.635,283.619,501.854,285.105,500.919,286.275z"/>
	<path fill="#FFFFFF" stroke="#000000" stroke-width="1.5" stroke-miterlimit="10" d="M327.228,417.347
		c-9.473,4.896-12.078,8.521-13.633,11.458c-1.553,2.938-2.049,5.187-2.005,8.32s0.628,7.16,2.088,10.132
		c1.461,2.977,3.797,4.9,6.72,6.184c2.921,1.281,6.428,1.925,9.579,1.895c3.154-0.027,5.959-0.728,8.385-2.039
		c2.426-1.313,4.47-3.237,5.987-5.86c1.521-2.625,2.513-5.946,2.979-9.912c0.467-3.968,0.408-8.572-0.293-12.334
		c-0.701-3.764-2.045-6.68-4.499-9.77c-2.453-3.091-6.02-6.354-9.259-8.486c-3.243-2.127-6.164-3.117-9.846-3.673
		c-3.681-0.553-8.118-0.671-12.27-0.495c-4.146,0.177-8.003,0.643-11.246,1.399c-3.242,0.757-5.87,1.808-8.266,2.887
		c-2.396,1.08-4.559,2.188-5.871,3.004c-1.314,0.814-1.781,1.343-1.898,2.013c-0.117,0.671,0.115,1.486,0.554,3.118
		c0.438,1.635,1.081,4.081,1.446,6.662s0.453,5.292-0.376,10.55c-7.13-9.645-12.532-15.495-16.75-19.63
		c-4.217-4.133-7.245-6.544-10.56-8.131c-3.315-1.589-6.918-2.354-10.877-2.859c-3.959-0.512-8.273-0.762-12.126-0.361
		c-3.852,0.399-7.24,1.448-10.6,3.199c-3.36,1.748-6.689,4.196-9.64,6.793c-2.951,2.596-5.52,5.337-7.36,8.224
		c-1.841,2.886-2.951,5.918-3.593,9.592c-0.643,3.676-0.817,7.989-0.264,11.168c0.555,3.18,1.84,5.221,3.769,7.23
		c1.929,2.013,4.498,3.995,7.157,5.424c2.658,1.429,5.404,2.305,8.412,2.626c3.009,0.319,6.28,0.087,8.676-0.729
		c2.396-0.816,3.914-2.219,5.141-4.143c1.228-1.925,2.162-4.374,2.746-7.436c0.584-3.063,0.819-6.735,0.321-9.975
		c-0.497-3.233-1.723-6.033-4.046-8.744c-2.321-2.715-5.739-5.339-10.822-7.087c12.093-0.698,16.825,2.102,20.36,4.724
		c3.534,2.625,5.871,5.074,7.537,7.844c1.666,2.771,2.658,5.861,3.125,9.943s0.408,9.154-0.205,13.21
		c-0.614,4.054-1.781,7.086-3.447,9.854c-1.665,2.771-3.826,5.277-6.163,7.438c-2.337,2.157-4.85,3.965-7.565,5.479
		c-2.717,1.518-5.639,2.741-8.676,3.411c-3.039,0.672-6.192,0.786-9.698,0.612c-3.505-0.175-7.361-0.644-9.785-1.166
		c-2.425-0.524-3.417-1.109-4.177-0.788c-0.76,0.32-1.286,1.545-1.754,3.587c-0.467,2.041-0.875,4.897-1.752,7.581
		s-2.22,5.191-4.119,7.64c-1.899,2.449-4.352,4.843-7.183,6.62c-2.83,1.778-6.035,2.943-10.692,3.461
		c-4.657,0.516-10.764,0.379-14.948-0.434c-4.184-0.813-6.444-2.303-8.598-4.159c-2.155-1.854-4.203-4.078-5.85-6.389
		c-1.648-2.313-2.894-4.71-3.518-7.557c-0.623-2.846-0.623-6.134-0.132-9.644c0.489-3.512,1.469-7.245,3.294-10.223
		c1.824-2.979,4.496-5.198,7.39-6.4c2.895-1.199,6.011-1.377,9.082-1.199c3.073,0.179,6.101,0.711,8.504,1.689
		c2.404,0.978,4.186,2.397,5.397,4.001c1.21,1.601,1.855,3.381,2.27,5.239c0.416,1.856,0.605,3.795,0.593,5.934
		c-0.012,2.139-0.225,4.476-1.502,6.316c-2.13-8.076-3.692-9.92-5.253-11.173s-3.123-1.912-5.228-2.055
		c-2.106-0.142-4.756,0.235-6.696,1.039c-1.94,0.804-3.169,2.031-4.069,3.59c-0.899,1.563-1.467,3.448-1.539,5.504
		c-0.07,2.058,0.355,4.274,1.302,6.095c0.946,1.816,2.413,3.235,4.425,4.346c2.011,1.109,4.565,1.914,7.168,2.313
		c2.602,0.401,5.252,0.401,7.642-0.141c2.39-0.544,4.519-1.631,6.222-2.718c1.705-1.086,2.981-2.172,4.046-3.542
		s1.917-3.022,2.745-4.982c0.827-1.961,1.632-4.229,2.129-6.022c0.498-1.793,0.687-3.117,0.427-4.134
		c-0.261-1.017-0.97-1.724-2.153-2.882c-1.184-1.155-2.839-2.764-4.943-5.214c-2.104-2.453-4.657-5.751-6.468-8.864
		c-1.811-3.116-2.879-6.049-3.635-9.781c-0.757-3.732-1.203-8.269-1.158-12.399c0.043-4.133,0.579-7.865,1.604-11.6
		c1.023-3.732,2.537-7.469,4.273-10.979c1.736-3.512,3.695-6.8,5.431-9.199c1.736-2.397,3.249-3.908,4.421-5.17
		c1.174-1.26,2.006-2.268,2.217-3.006c0.212-0.736-0.197-1.202-1.074-2.428c-0.875-1.225-2.219-3.207-4.035-5.541
		c-1.817-2.334-4.104-5.021-7.172-7.845c-3.068-2.824-6.915-5.786-10.817-7.651s-7.861-2.633-11.763-2.906
		c-3.902-0.275-7.749-0.058-11.487,0.766c-3.738,0.824-7.366,2.25-10.389,4.501c-3.023,2.25-5.442,5.321-7.311,8.282
		c-1.869,2.967-3.188,5.815-3.573,9.327c-0.384,3.515,0.165,7.684,1.375,11.083c1.208,3.402,3.077,6.036,5.771,7.9
		c2.693,1.865,6.211,2.964,9.784,3.238c3.573,0.271,7.201-0.274,9.62-1.866c2.419-1.593,3.627-4.227,4.782-7.572
		c1.154-3.347,2.253-7.406,1.731-11.822c-0.522-4.418-2.666-9.188-7.284-12.811c6.649,1.769,9.892,4.305,12.359,6.799
		c2.468,2.492,4.163,4.941,5.361,7.565c1.197,2.624,1.899,5.424,1.985,8.979c0.088,3.558-0.437,7.872-1.285,11.314
		c-0.847,3.438-2.016,6.006-4.09,8.426c-2.074,2.422-5.053,4.692-7.711,6.59c-2.658,1.896-4.995,3.412-7.682,4.344
		c-2.687,0.936-5.725,1.283-9.051,1.315c-3.326,0.034-6.941-0.251-10.623-0.935c-3.684-0.682-7.434-1.762-10.607-3.634
		c-3.174-1.873-5.77-4.536-8.438-8.025c-2.669-3.492-5.409-7.813-7.176-11.736c-1.768-3.923-2.56-7.451-2.921-11.339
		c-0.36-3.888-0.288-8.138,0.325-12.349c0.613-4.212,1.768-8.389,3.533-12.096c1.768-3.706,4.147-6.946,6.744-9.971
		c2.598-3.022,5.41-5.832,8.943-8.459c3.533-2.628,7.79-5.075,12.226-6.806c4.435-1.729,9.051-2.734,13.415-2.986
		c4.364-0.25,8.476,0.252,12.748,0.882c4.273,0.63,8.709,1.388,13.686,4.843c1.947-10.582,4.435-15.658,7.14-20.143
		c2.705-4.48,5.626-8.368,10.387-11.176c0.669-8.623-0.608-11.174-2.099-13.347c-1.491-2.174-3.194-3.968-5.134-5.432
		c-1.94-1.466-4.117-2.601-5.938-3.31c-1.821-0.709-3.289-0.99-5.253-0.942c-1.963,0.047-4.424,0.424-6.625,1.393
		c-2.201,0.97-4.141,2.527-5.276,4.089c-1.135,1.557-1.467,3.116-1.585,4.769c-0.117,1.653-0.023,3.401,0.545,5.292
		c0.567,1.891,1.609,3.92,2.862,5.221c1.253,1.299,2.721,1.865,4.094,2.195c1.372,0.33,2.649,0.426,4.258,0.167
		c1.61-0.261,3.549-0.875,5.11-1.821c1.562-0.943,2.745-2.219,3.514-3.529c0.77-1.312,1.125-2.656,1.692-6.199
		c1.242,5.244,0.675,8.596-0.115,10.695c-0.792,2.102-1.809,2.946-3.045,4.041c-1.236,1.094-2.693,2.436-4.458,3.403
		c-1.766,0.97-3.839,1.567-6.161,1.869c-2.322,0.3-4.893,0.3-7.492-0.431c-2.6-0.729-5.229-2.187-7.39-3.877
		c-2.162-1.69-3.856-3.615-4.996-5.396c-1.139-1.779-1.723-3.412-1.986-6.063c-0.263-2.654-0.204-6.328,0.409-9.649
		c0.614-3.324,1.781-6.3,3.739-8.896c1.957-2.597,4.703-4.813,7.945-6.647c3.243-1.837,6.981-3.296,10.926-3.966
		c3.942-0.67,8.091-0.553,11.508,0.175c3.417,0.729,6.106,2.069,8.618,3.614c2.511,1.547,4.848,3.295,6.747,5.541
		s3.359,4.985,4.572,8.324c1.211,3.338,2.176,7.274,2.351,14.098c11.931-2.327,17.537-0.021,21.769,2.173s7.09,4.28,9.234,6.969
		c2.144,2.688,3.573,5.979,4.452,9.656c0.879,3.676,1.209,7.735,0.824,11.304c-0.384,3.564-1.484,6.637-3.132,9.49
		c-1.649,2.854-3.848,5.486-6.707,7.298c-2.857,1.812-6.374,2.798-9.563,3.019c-3.188,0.221-6.046-0.33-8.611-1.207
		c-2.566-0.877-4.842-2.086-6.627-3.769c-1.786-1.685-3.084-3.845-4.599-7.3c3.964,2.863,7.321,3.807,10.346,4.074
		c3.023,0.271,5.715-0.133,7.862-1.104c2.145-0.977,3.748-2.521,4.886-4.55c1.137-2.028,1.812-4.536,1.703-6.901
		c-0.108-2.365-0.999-4.588-2.334-6.408c-1.336-1.822-3.118-3.246-5.209-4.355c-2.093-1.111-4.498-1.913-7.124-1.82
		c-2.628,0.09-5.477,1.064-7.88,2.354c-2.404,1.289-4.363,2.89-6.101,5.156c-1.735,2.265-3.249,5.197-4.095,8.441
		c-0.846,3.244-1.023,6.801-0.534,10.043c0.49,3.246,1.647,6.178,3.206,8.799c1.559,2.625,3.518,4.936,5.832,7.156
		c2.315,2.224,4.986,4.355,7.08,5.822c2.092,1.466,3.605,2.266,5.386,2.668c1.78,0.396,3.828,0.396,8.269,0.354
		c4.44-0.042,11.271-0.13,16.563,0.402c5.29,0.531,9.042,1.687,12.576,3.054c3.533,1.367,6.852,2.95,9.887,4.543
		s5.785,3.19,8.176,5.063s4.418,4.017,5.634,4.949c1.216,0.934,1.618,0.652,3.123-0.925c1.504-1.577,4.109-4.454,7.501-6.989
		c3.394-2.536,7.569-4.73,12.353-6.486c4.78-1.755,10.168-3.071,15.17-3.621c5.003-0.549,9.62-0.327,13.466-0.055
		c3.848,0.273,6.926,0.604,10.279-0.494c3.352-1.096,6.979-3.621,10.058-6.146c3.079-2.523,5.605-5.045,7.585-8.011
		c1.979-2.963,3.408-6.364,3.956-10.149c0.55-3.785,0.222-7.955-1.153-11.741c-1.374-3.786-3.793-7.188-6.431-9.437
		c-2.639-2.25-5.497-3.349-8.244-4.009c-2.749-0.657-5.388-0.875-7.86-0.272c-2.474,0.604-4.781,2.031-6.597,4.115
		c-1.813,2.084-3.133,4.828-3.298,7.735s0.825,5.979,2.638,8.34c1.814,2.357,4.452,4.005,7.201,4.828
		c2.747,0.823,5.605,0.823,8.107,0.328c2.501-0.492,4.645-1.479,7.252-4.301c-7.188,9.797-10.778,10.846-13.772,11.37
		c-2.995,0.525-5.389,0.525-8.34-0.061c-2.95-0.582-6.455-1.748-9.259-3.904c-2.805-2.158-4.908-5.309-6.427-8.457
		c-1.521-3.149-2.454-6.299-2.543-9.826c-0.088-3.526,0.673-7.438,2.072-10.99c1.402-3.559,3.448-6.766,6.777-9.536
		c3.33-2.771,7.945-5.103,12.839-6.442c4.893-1.343,10.063-1.691,15.67-0.468c0.439-10.03,3.146-15.431,5.794-19.211
		c2.651-3.778,5.249-5.938,8.351-7.774c3.102-1.834,6.709-3.346,10.135-4.137c3.425-0.793,6.671-0.865,9.592-0.648
		c2.921,0.216,5.519,0.721,8.042,1.836c2.523,1.117,4.977,2.844,7.141,5.004c2.162,2.158,4.038,4.75,5.336,7.309
		c1.3,2.557,2.021,5.076,2.021,8.459c0,3.385-0.721,7.631-1.875,10.871c-1.154,3.239-2.741,5.473-4.58,7.127
		c-1.839,1.656-3.93,2.736-6.021,3.492c-2.094,0.756-4.186,1.188-6.098,1.332c-1.91,0.145-3.642,0-5.625-0.648
		c-1.981-0.647-4.219-1.801-6.094-3.313c-1.875-1.511-3.39-3.384-4.363-6.209c-0.973-2.825-1.405-6.604-0.106-9.63
		c1.663,5.988,3.216,7.65,4.813,8.73c1.603,1.082,3.248,1.582,5.225,1.713c1.975,0.136,4.271-0.097,6.04-0.688
		c1.765-0.592,2.993-1.55,3.938-3.021c0.941-1.474,1.592-3.463,1.688-5.489c0.096-2.028-0.364-4.097-1.083-5.81
		c-0.724-1.712-1.702-3.072-2.716-4.06c-1.01-0.986-2.053-1.601-3.589-2.072c-1.538-0.473-3.572-0.804-5.75-0.852
		c-2.177-0.048-4.495,0.188-6.577,0.803c-2.081,0.615-3.928,1.606-5.466,2.813c-1.537,1.203-2.768,2.619-3.854,4.084
		c-1.089,1.465-2.035,2.978-2.58,5.185c-0.544,2.209-0.687,5.114-0.544,10.356c6.104,3.685,8.305,6.306,9.996,8.634
		c1.69,2.325,2.875,4.356,3.818,6.646c0.948,2.291,1.656,4.844,2.118,7.569c0.462,2.728,0.674,5.634,0.393,9.603
		c12.808-7.365,19.567-7.365,25.312-7.092s10.473,0.824,14.594,1.922c4.123,1.098,7.643,2.742,11.104,5.268
		s6.871,5.926,10.059,9.438c3.188,3.512,6.155,7.133,8.245,11.139c2.088,4.006,3.297,8.396,3.956,12.782
		c0.661,4.391,0.771,8.778-0.109,13.335c-0.879,4.554-2.745,9.271-4.727,13.275c-1.979,4.005-4.066,7.297-6.979,10.15
		c-2.911,2.854-6.649,5.268-10.389,6.913c-3.738,1.646-7.475,2.521-11.213,2.907c-3.737,0.383-7.476,0.272-11.214-0.329
		c-3.737-0.604-7.476-1.702-11.049-4.062c-3.571-2.358-6.979-5.979-9.453-9.821c-2.476-3.841-4.015-7.898-4.563-11.96
		c-0.549-4.061-0.106-8.12,1.374-11.961c1.483-3.84,4.015-7.462,6.681-10.097c2.667-2.634,5.47-4.278,10.746-5.598
		c-5.861,5.356-6.041,7.851-6.133,10.823c-0.089,2.976-0.089,6.431,0.271,9.384c0.359,2.95,1.082,5.398,2.452,7.308
		c1.369,1.908,3.39,3.273,5.554,4.175c2.163,0.899,4.472,1.333,6.995,1.369s5.265-0.325,7.465-1.297
		c2.2-0.974,3.859-2.557,5.338-4.501c1.479-1.942,2.776-4.246,3.533-6.983c0.757-2.735,0.974-5.902,0.47-9.104
		c-0.507-3.204-1.729-6.444-3.138-9.035c-1.406-2.593-2.993-4.535-4.904-6.408c-1.911-1.872-4.146-3.672-6.743-5.04
		c-2.597-1.366-5.555-2.304-9.089-2.771c-3.535-0.47-7.645-0.47-11.357,0.071c-3.717,0.539-7.032,1.619-10.136,3.239
		c-3.101,1.619-5.983,3.779-9.917,7.289c-3.931,3.509-8.905,8.37-11.937,16.146c3.145,4.623,7.12,9.512,9.743,13.236
		c2.623,3.729,3.894,6.291,5.287,10.06c1.393,3.766,2.905,8.731,3.268,13.846c0.361,5.111-0.433,10.367-1.441,14.866
		c-1.011,4.499-2.235,8.243-3.932,11.411c-1.695,3.167-3.859,5.76-5.879,7.885c-2.021,2.123-3.896,3.778-5.229,5.075
		c-1.335,1.295-2.129,2.23-2.45,3.455c-0.325,1.225-0.185,2.735,0.251,4.718c0.433,1.979,1.152,4.428,2.738,6.91
		c1.589,2.483,4.039,5.003,6.674,6.73c2.634,1.729,5.443,2.663,8.438,3.062c2.993,0.396,6.167,0.251,8.907-0.757
		c2.74-1.009,5.048-2.88,6.636-4.535c1.586-1.655,2.452-3.096,2.668-5.146c0.218-2.053-0.216-4.718-0.937-6.77
		c-0.724-2.053-1.731-3.491-3.139-4.464c-1.406-0.974-3.21-1.476-5.302-1.654c-2.092-0.18-4.471-0.035-6.491,0.972
		c-2.02,1.008-3.679,2.881-4.775,4.841c-1.103,1.962-1.644,4.016-2.508,7.471c-2.162-8.423-0.864-11.662,0.506-14.219
		c1.369-2.556,2.813-4.428,4.436-5.902c1.623-1.478,3.427-2.559,6.671-3.062c3.246-0.503,7.937-0.432,11.323,0.434
		c3.391,0.862,5.479,2.521,7.394,4.605c1.911,2.089,3.644,4.608,4.652,7.958c1.009,3.348,1.298,7.521,0.829,11.267
		c-0.469,3.743-1.694,7.056-3.643,10.114c-1.946,3.061-4.616,5.868-7.5,7.885c-2.887,2.018-5.985,3.239-9.631,3.815
		c-3.642,0.575-7.823,0.504-11.826-0.109c-4.004-0.609-7.824-1.764-10.929-3.563c-3.101-1.802-5.479-4.249-7.537-6.877
		c-2.056-2.627-3.784-5.435-5.085-8.836c-1.299-3.402-2.163-7.398-1.299-10.854c-9.304,3.024-16.227,2.811-21.384,2.231
		c-5.157-0.574-8.548-1.511-11.938-3.274c-3.392-1.765-6.778-4.354-9.559-7.416c-2.775-3.061-4.938-6.588-6.454-10.188
		c-1.514-3.602-2.381-7.271-2.452-11.088c-0.069-3.813,0.649-7.776,1.841-11.231c1.188-3.455,2.85-6.407,4.761-8.891
		c1.911-2.484,4.074-4.5,7.591-6.427C313.271,418.965,318.141,417.131,327.228,417.347z"/>
	<path fill="#FFFFFF" stroke="#000000" stroke-width="1.5" stroke-miterlimit="10" d="M327.228,140.836
		c-9.473-4.897-12.078-8.523-13.633-11.46c-1.553-2.937-2.049-5.184-2.005-8.319c0.044-3.136,0.628-7.16,2.088-10.133
		c1.461-2.974,3.797-4.898,6.72-6.182c2.921-1.283,6.428-1.924,9.579-1.895c3.154,0.029,5.959,0.729,8.385,2.042
		c2.426,1.311,4.47,3.236,5.987,5.859c1.521,2.624,2.513,5.95,2.979,9.914s0.408,8.572-0.293,12.333
		c-0.701,3.762-2.045,6.678-4.499,9.768c-2.453,3.092-6.02,6.358-9.259,8.487c-3.243,2.128-6.164,3.12-9.846,3.674
		c-3.681,0.553-8.118,0.669-12.27,0.495c-4.146-0.175-8.003-0.641-11.246-1.399c-3.242-0.759-5.87-1.808-8.266-2.887
		c-2.396-1.08-4.559-2.188-5.871-3.004c-1.314-0.817-1.781-1.341-1.898-2.012c-0.118-0.67,0.115-1.487,0.554-3.12
		c0.439-1.633,1.081-4.081,1.446-6.662c0.365-2.582,0.453-5.293-0.376-10.55c-7.13,9.644-12.532,15.495-16.75,19.629
		c-4.217,4.133-7.245,6.542-10.56,8.131c-3.314,1.588-6.918,2.354-10.877,2.861c-3.959,0.509-8.273,0.758-12.126,0.36
		c-3.852-0.398-7.24-1.448-10.6-3.199c-3.36-1.749-6.689-4.198-9.64-6.792c-2.951-2.596-5.52-5.338-7.36-8.224
		c-1.841-2.886-2.951-5.919-3.593-9.594c-0.643-3.674-0.817-7.989-0.264-11.167c0.555-3.179,1.84-5.22,3.769-7.232
		c1.929-2.012,4.498-3.995,7.157-5.424c2.658-1.428,5.404-2.303,8.412-2.624c3.009-0.32,6.28-0.087,8.676,0.731
		c2.396,0.815,3.914,2.214,5.141,4.141c1.228,1.924,2.162,4.373,2.746,7.435s0.819,6.736,0.321,9.972
		c-0.497,3.235-1.723,6.037-4.046,8.748c-2.321,2.711-5.739,5.336-10.822,7.084c12.093,0.699,16.825-2.099,20.36-4.723
		c3.534-2.625,5.871-5.072,7.537-7.844c1.664-2.771,2.658-5.861,3.125-9.944c0.467-4.081,0.408-9.154-0.205-13.208
		c-0.614-4.052-1.781-7.085-3.447-9.855s-3.826-5.278-6.163-7.436c-2.337-2.157-4.85-3.965-7.565-5.481
		c-2.717-1.516-5.639-2.74-8.676-3.411c-3.039-0.669-6.192-0.786-9.698-0.612c-3.505,0.176-7.361,0.643-9.785,1.167
		c-2.425,0.524-3.417,1.107-4.177,0.787c-0.76-0.321-1.286-1.545-1.754-3.587c-0.467-2.042-0.875-4.899-1.752-7.582
		c-0.877-2.684-2.22-5.191-4.119-7.64c-1.898-2.449-4.352-4.84-7.183-6.618c-2.83-1.779-6.035-2.944-10.692-3.46
		c-4.657-0.516-10.764-0.381-14.948,0.432c-4.184,0.813-6.444,2.304-8.598,4.159c-2.155,1.856-4.203,4.079-5.85,6.391
		c-1.648,2.311-2.894,4.71-3.518,7.554c-0.623,2.844-0.623,6.133-0.132,9.645c0.489,3.509,1.469,7.244,3.294,10.221
		c1.824,2.977,4.496,5.201,7.39,6.4c2.895,1.2,6.011,1.378,9.082,1.2c3.073-0.178,6.101-0.711,8.504-1.688
		c2.404-0.979,4.186-2.4,5.397-4.001c1.21-1.601,1.855-3.381,2.27-5.24c0.416-1.858,0.605-3.794,0.593-5.933
		c-0.012-2.138-0.225-4.475-1.502-6.317c-2.13,8.077-3.692,9.919-5.253,11.172c-1.562,1.251-3.123,1.912-5.228,2.055
		c-2.106,0.142-4.756-0.237-6.696-1.04c-1.94-0.802-3.169-2.03-4.069-3.59c-0.899-1.56-1.467-3.447-1.539-5.503
		c-0.07-2.055,0.355-4.275,1.302-6.094c0.946-1.818,2.413-3.236,4.425-4.346c2.011-1.109,4.565-1.913,7.168-2.314
		c2.602-0.401,5.252-0.401,7.642,0.142c2.39,0.543,4.519,1.629,6.222,2.716c1.705,1.086,2.981,2.172,4.046,3.542
		c1.065,1.372,1.917,3.023,2.745,4.984c0.827,1.961,1.632,4.228,2.129,6.023c0.498,1.794,0.687,3.118,0.427,4.133
		c-0.261,1.016-0.97,1.724-2.153,2.882c-1.184,1.156-2.839,2.764-4.943,5.214c-2.104,2.452-4.657,5.75-6.468,8.866
		c-1.811,3.115-2.879,6.048-3.635,9.781c-0.757,3.732-1.203,8.266-1.158,12.399c0.043,4.132,0.579,7.866,1.604,11.6
		c1.023,3.733,2.537,7.466,4.273,10.976c1.736,3.512,3.695,6.801,5.431,9.2c1.736,2.401,3.249,3.911,4.421,5.17
		c1.174,1.26,2.006,2.269,2.217,3.005c0.212,0.737-0.197,1.203-1.074,2.428c-0.875,1.225-2.219,3.208-4.035,5.542
		c-1.817,2.334-4.104,5.019-7.172,7.843c-3.068,2.824-6.915,5.788-10.817,7.652c-3.902,1.866-7.861,2.633-11.763,2.908
		c-3.902,0.275-7.749,0.055-11.487-0.768c-3.738-0.823-7.366-2.25-10.389-4.498c-3.023-2.25-5.442-5.322-7.311-8.285
		c-1.869-2.963-3.188-5.815-3.573-9.327c-0.385-3.512,0.165-7.682,1.375-11.084c1.208-3.4,3.077-6.035,5.771-7.899
		c2.693-1.866,6.211-2.963,9.784-3.238c3.573-0.274,7.201,0.274,9.62,1.865c2.419,1.591,3.627,4.225,4.782,7.572
		c1.154,3.347,2.253,7.407,1.731,11.823c-0.522,4.417-2.666,9.19-7.284,12.813c6.649-1.771,9.892-4.307,12.359-6.801
		c2.468-2.493,4.163-4.942,5.361-7.565c1.197-2.625,1.899-5.424,1.985-8.982c0.088-3.558-0.437-7.872-1.285-11.313
		c-0.848-3.441-2.016-6.006-4.09-8.426c-2.074-2.42-5.053-4.695-7.711-6.59c-2.658-1.894-4.995-3.411-7.682-4.344
		c-2.687-0.934-5.725-1.283-9.051-1.315c-3.326-0.034-6.941,0.251-10.623,0.935c-3.684,0.68-7.434,1.76-10.607,3.633
		c-3.174,1.872-5.77,4.535-8.438,8.028c-2.669,3.491-5.409,7.811-7.176,11.733c-1.768,3.925-2.56,7.452-2.921,11.339
		c-0.36,3.887-0.288,8.135,0.325,12.349c0.613,4.211,1.768,8.387,3.533,12.095c1.768,3.708,4.147,6.947,6.744,9.97
		c2.597,3.024,5.41,5.832,8.943,8.459c3.533,2.628,7.79,5.077,12.226,6.805c4.436,1.727,9.051,2.735,13.415,2.987
		c4.364,0.253,8.476-0.252,12.748-0.881c4.273-0.63,8.709-1.386,13.686-4.841c1.947,10.582,4.435,15.659,7.14,20.142
		c2.705,4.481,5.626,8.368,10.387,11.177c0.669,8.623-0.608,11.172-2.099,13.345c-1.491,2.174-3.194,3.969-5.134,5.432
		s-4.117,2.598-5.938,3.308c-1.821,0.708-3.289,0.993-5.253,0.942c-1.963-0.047-4.424-0.424-6.625-1.393
		c-2.201-0.969-4.141-2.527-5.276-4.086c-1.135-1.559-1.467-3.119-1.585-4.771c-0.117-1.652-0.023-3.4,0.545-5.291
		c0.567-1.89,1.609-3.92,2.862-5.219c1.253-1.3,2.721-1.865,4.094-2.197c1.372-0.332,2.649-0.427,4.258-0.167
		c1.61,0.26,3.549,0.875,5.11,1.819c1.562,0.944,2.745,2.219,3.514,3.531c0.77,1.31,1.125,2.656,1.692,6.199
		c1.242-5.243,0.675-8.595-0.115-10.695c-0.792-2.099-1.809-2.948-3.045-4.043c-1.236-1.094-2.693-2.433-4.458-3.402
		c-1.766-0.969-3.839-1.568-6.161-1.869c-2.322-0.299-4.893-0.299-7.492,0.429c-2.599,0.729-5.229,2.186-7.39,3.877
		c-2.162,1.692-3.856,3.615-4.996,5.395c-1.139,1.78-1.723,3.412-1.986,6.065c-0.263,2.652-0.204,6.328,0.409,9.651
		c0.614,3.324,1.781,6.299,3.739,8.892c1.957,2.597,4.703,4.812,7.945,6.647c3.243,1.838,6.981,3.295,10.926,3.968
		c3.942,0.671,8.091,0.553,11.508-0.177c3.417-0.729,6.106-2.069,8.618-3.613c2.511-1.547,4.848-3.297,6.747-5.542
		c1.899-2.244,3.359-4.985,4.572-8.324c1.211-3.338,2.176-7.275,2.351-14.099c11.931,2.327,17.537,0.022,21.769-2.171
		c4.232-2.195,7.09-4.281,9.234-6.967c2.144-2.69,3.573-5.981,4.452-9.657c0.879-3.676,1.209-7.737,0.824-11.303
		c-0.384-3.566-1.484-6.638-3.132-9.491c-1.649-2.854-3.848-5.488-6.707-7.299c-2.857-1.811-6.374-2.798-9.563-3.019
		c-3.188-0.218-6.046,0.329-8.611,1.208c-2.566,0.877-4.842,2.084-6.627,3.768c-1.786,1.685-3.084,3.843-4.599,7.3
		c3.964-2.863,7.321-3.806,10.346-4.075c3.023-0.27,5.715,0.132,7.862,1.107c2.145,0.974,3.748,2.521,4.886,4.548
		c1.137,2.029,1.812,4.536,1.703,6.901c-0.108,2.365-0.999,4.587-2.334,6.41c-1.336,1.822-3.118,3.243-5.209,4.354
		c-2.093,1.112-4.498,1.912-7.124,1.823c-2.628-0.089-5.477-1.066-7.88-2.355c-2.404-1.29-4.363-2.89-6.101-5.157
		c-1.735-2.266-3.249-5.199-4.095-8.443c-0.846-3.244-1.023-6.8-0.534-10.043c0.49-3.243,1.647-6.178,3.206-8.8
		c1.559-2.621,3.518-4.931,5.832-7.155c2.315-2.223,4.986-4.354,7.08-5.822c2.092-1.466,3.605-2.266,5.386-2.667
		c1.78-0.399,3.828-0.399,8.269-0.354c4.44,0.042,11.271,0.13,16.563-0.404c5.29-0.532,9.042-1.684,12.576-3.052
		c3.533-1.368,6.852-2.953,9.887-4.545c3.035-1.591,5.785-3.19,8.176-5.063c2.391-1.871,4.418-4.017,5.634-4.949
		c1.216-0.933,1.618-0.653,3.123,0.924c1.504,1.578,4.109,4.454,7.501,6.99c3.394,2.536,7.569,4.73,12.353,6.486
		c4.78,1.755,10.168,3.072,15.17,3.622c5.003,0.549,9.62,0.328,13.466,0.055c3.848-0.275,6.926-0.605,10.279,0.494
		c3.352,1.097,6.979,3.62,10.058,6.143c3.078,2.525,5.605,5.049,7.585,8.011c1.979,2.963,3.408,6.364,3.956,10.151
		c0.551,3.786,0.222,7.955-1.153,11.741c-1.374,3.785-3.793,7.188-6.431,9.438c-2.639,2.25-5.497,3.346-8.244,4.004
		c-2.749,0.659-5.388,0.877-7.86,0.275c-2.474-0.604-4.781-2.029-6.597-4.114c-1.813-2.086-3.133-4.829-3.298-7.737
		c-0.165-2.909,0.825-5.98,2.638-8.34c1.814-2.36,4.452-4.005,7.201-4.829c2.747-0.823,5.605-0.823,8.107-0.329
		c2.501,0.493,4.645,1.481,7.252,4.3c-7.188-9.795-10.778-10.846-13.772-11.371c-2.995-0.525-5.389-0.525-8.34,0.059
		c-2.95,0.583-6.455,1.749-9.259,3.907c-2.805,2.158-4.908,5.306-6.427,8.457c-1.521,3.149-2.454,6.297-2.543,9.826
		c-0.088,3.528,0.673,7.436,2.072,10.992c1.402,3.557,3.448,6.764,6.777,9.535c3.33,2.771,7.945,5.104,12.839,6.444
		c4.893,1.341,10.063,1.691,15.67,0.467c0.439,10.03,3.146,15.432,5.794,19.21c2.651,3.779,5.249,5.94,8.351,7.775
		c3.102,1.836,6.709,3.347,10.135,4.141c3.425,0.792,6.671,0.864,9.592,0.647c2.921-0.215,5.519-0.719,8.042-1.836
		c2.523-1.115,4.977-2.842,7.141-5.002c2.162-2.16,4.038-4.752,5.336-7.309c1.3-2.556,2.021-5.076,2.021-8.459
		c0-3.384-0.721-7.63-1.875-10.871c-1.154-3.24-2.741-5.47-4.58-7.127c-1.839-1.656-3.93-2.735-6.021-3.491
		c-2.094-0.756-4.186-1.187-6.098-1.332c-1.91-0.144-3.642,0-5.625,0.647c-1.981,0.649-4.219,1.8-6.094,3.312
		c-1.875,1.511-3.39,3.384-4.363,6.209c-0.973,2.826-1.405,6.606-0.106,9.629c1.663-5.989,3.216-7.651,4.813-8.733
		c1.603-1.081,3.248-1.579,5.225-1.713c1.975-0.134,4.271,0.096,6.04,0.69c1.765,0.593,2.993,1.549,3.938,3.023
		c0.941,1.473,1.592,3.462,1.688,5.489c0.096,2.027-0.364,4.094-1.083,5.807c-0.724,1.714-1.702,3.073-2.716,4.061
		c-1.01,0.985-2.053,1.6-3.589,2.074c-1.538,0.471-3.572,0.803-5.75,0.849c-2.177,0.049-4.495-0.188-6.577-0.802
		c-2.081-0.613-3.928-1.605-5.466-2.811c-1.537-1.206-2.768-2.624-3.854-4.087c-1.089-1.464-2.035-2.978-2.58-5.185
		c-0.544-2.208-0.687-5.112-0.544-10.357c6.104-3.684,8.305-6.304,9.996-8.63c1.69-2.327,2.875-4.358,3.818-6.649
		c0.948-2.292,1.656-4.842,2.118-7.569s0.674-5.633,0.393-9.601c12.808,7.365,19.567,7.365,25.312,7.09
		c5.744-0.273,10.473-0.823,14.594-1.92c4.123-1.097,7.643-2.744,11.104-5.268c3.462-2.524,6.871-5.926,10.059-9.438
		c3.188-3.512,6.155-7.132,8.245-11.138c2.088-4.006,3.297-8.396,3.956-12.784c0.661-4.389,0.771-8.779-0.109-13.332
		c-0.879-4.555-2.745-9.273-4.727-13.279c-1.979-4.005-4.066-7.296-6.979-10.15c-2.911-2.853-6.649-5.267-10.389-6.914
		c-3.738-1.646-7.475-2.523-11.213-2.907c-3.737-0.385-7.476-0.274-11.214,0.329c-3.737,0.604-7.476,1.702-11.049,4.06
		c-3.571,2.359-6.979,5.981-9.453,9.821c-2.476,3.842-4.015,7.901-4.563,11.962c-0.549,4.06-0.106,8.12,1.374,11.961
		c1.484,3.841,4.015,7.461,6.681,10.095c2.667,2.633,5.47,4.279,10.746,5.597c-5.861-5.354-6.041-7.849-6.133-10.823
		c-0.089-2.975-0.089-6.43,0.271-9.382c0.359-2.952,1.082-5.399,2.452-7.308c1.369-1.907,3.39-3.274,5.554-4.174
		c2.163-0.899,4.472-1.333,6.995-1.368c2.523-0.036,5.265,0.324,7.465,1.296c2.2,0.973,3.859,2.555,5.338,4.5
		c1.479,1.943,2.776,4.246,3.533,6.984c0.757,2.735,0.974,5.902,0.47,9.107c-0.507,3.203-1.729,6.443-3.138,9.035
		c-1.407,2.592-2.993,4.536-4.904,6.409c-1.911,1.872-4.146,3.671-6.743,5.039c-2.597,1.368-5.555,2.305-9.089,2.772
		c-3.535,0.468-7.645,0.468-11.357-0.072c-3.716-0.54-7.032-1.62-10.136-3.239c-3.101-1.621-5.983-3.781-9.917-7.29
		c-3.931-3.509-8.905-8.37-11.937-16.145c3.145-4.623,7.12-9.512,9.743-13.237c2.623-3.728,3.894-6.293,5.287-10.059
		c1.393-3.767,2.905-8.734,3.268-13.847c0.361-5.11-0.433-10.367-1.441-14.866c-1.011-4.5-2.235-8.242-3.932-11.412
		c-1.695-3.167-3.859-5.759-5.879-7.881c-2.021-2.125-3.896-3.782-5.229-5.078c-1.335-1.296-2.129-2.23-2.45-3.456
		c-0.325-1.224-0.185-2.735,0.251-4.716c0.433-1.979,1.152-4.427,2.738-6.912c1.589-2.482,4.039-5.003,6.674-6.73
		c2.634-1.729,5.443-2.664,8.438-3.059c2.993-0.397,6.167-0.253,8.907,0.755c2.74,1.008,5.048,2.881,6.636,4.535
		c1.586,1.657,2.452,3.096,2.668,5.148c0.218,2.052-0.216,4.716-0.937,6.769c-0.724,2.05-1.731,3.491-3.139,4.463
		c-1.406,0.972-3.21,1.475-5.302,1.656c-2.092,0.181-4.471,0.035-6.491-0.972c-2.02-1.008-3.679-2.879-4.775-4.841
		c-1.103-1.962-1.644-4.015-2.508-7.47c-2.162,8.424-0.864,11.663,0.506,14.219c1.369,2.555,2.813,4.428,4.436,5.904
		s3.427,2.557,6.671,3.059c3.246,0.504,7.937,0.433,11.323-0.431c3.391-0.863,5.479-2.52,7.394-4.608
		c1.911-2.087,3.644-4.608,4.652-7.955c1.009-3.348,1.298-7.523,0.829-11.269c-0.47-3.743-1.694-7.055-3.643-10.115
		c-1.946-3.06-4.616-5.868-7.5-7.881c-2.887-2.017-5.985-3.241-9.631-3.818c-3.642-0.575-7.823-0.502-11.826,0.109
		c-4.004,0.612-7.824,1.765-10.929,3.563c-3.101,1.801-5.479,4.25-7.537,6.876c-2.056,2.627-3.784,5.435-5.085,8.837
		c-1.299,3.403-2.163,7.397-1.299,10.853c-9.304-3.024-16.227-2.807-21.384-2.231c-5.157,0.576-8.548,1.512-11.938,3.275
		c-3.392,1.764-6.778,4.356-9.559,7.417c-2.775,3.059-4.938,6.586-6.454,10.188c-1.514,3.601-2.381,7.272-2.452,11.088
		c-0.069,3.815,0.649,7.774,1.841,11.231c1.188,3.455,2.85,6.406,4.761,8.891c1.911,2.482,4.074,4.5,7.591,6.426
		C313.271,139.215,318.141,141.052,327.228,140.836z"/>
	<path fill="#FFFFFF" stroke="#000000" stroke-width="1.5" stroke-miterlimit="10" d="M47.059,280.206
		c0.285-3.411,1.065-4.899,2-6.067c0.935-1.17,2.022-2.02,3.514-2.656c1.492-0.637,3.383-1.064,5.252-1.395
		c1.87-0.332,3.714-0.566,5.585-0.59c1.869-0.023,3.761,0.165,5.701,0.708s3.928,1.442,6.151,2.504
		c2.226,1.063,4.685,2.291,6.199,3.095c1.515,0.803,2.083,1.18,2.795,1.326s1.568,0.064,2.223,0.237
		c0.654,0.172,1.107,0.599,1.475,1.034c0.368,0.432,0.651,0.873,0.528,1.805c0-3,1.412-5.672,3.608-7.389
		c0.167-0.133-2.201-1.283-2.814-3.078c-0.068-0.202-0.735-1.223-1.512-1.428c-0.472-0.125-11.744-6.401-15.36-11.865
		c-2.5-3.778-4.79-8.075-4.412-11.54c0.735-6.729,4.815-10.339,7.721-10.582c2.206-0.184,4.87,0.466,7.108,1.835
		c2.665,1.632,5.086,4.649,6.25,6.056c2.125,2.568,5.147,5.546,4.473,21.897c-0.124,2.996,0.796,2.854,1.348,3.791
		c0.47,0.8,0.198,3.309,0.368,3.263c0.787-0.213,1.766-0.343,2.62-0.343c5.191,0,9.4,4.201,9.4,9.383c0,5.184-4.209,9.384-9.4,9.384
		c-0.898,0-1.765-0.125-2.587-0.358c-0.283-0.082,0.172,2.143-0.522,3.078c-1.273,1.721-1.166,2.539-1.205,2.896
		c-0.082,0.754,0.762,10.516-1.001,16.678c-0.551,1.93-3.684,8.021-8.333,11.285c-5.055,3.548-9.342,3.952-12.316,1.132
		c-1.838-1.741-3.919-5.858-3.86-9.146c0.062-3.467,1.499-6.713,3.921-10.674c1.942-3.177,4.896-5.318,7.506-7.277
		c3.071-2.309,5.913-4.131,7.078-4.549c0.688-0.245,1.661-0.604,2.083-1.079c0.561-0.636,0.635-1.333,1.195-2.173
		c0.275-0.41,2.288-1.772,2.081-1.943c-2.098-1.723-3.435-4.331-3.436-7.253c0.124,0.935-0.16,1.374-0.527,1.806
		c-0.369,0.436-0.822,0.86-1.476,1.034c-0.655,0.17-1.511,0.088-2.223,0.235c-0.713,0.146-1.28,0.523-2.795,1.326
		c-1.514,0.806-3.974,2.031-6.199,3.096c-2.224,1.063-4.21,1.961-6.151,2.504c-1.94,0.545-3.833,0.732-5.701,0.711
		c-1.871-0.023-3.715-0.262-5.585-0.592c-1.869-0.33-3.762-0.756-5.252-1.395c-1.491-0.638-2.579-1.488-3.514-2.658
		C48.124,285.105,47.344,283.619,47.059,280.206z"/>
	<path fill="#FFFFFF" stroke="#000000" stroke-width="1.5" stroke-miterlimit="10" d="M502.918,280.206
		c-0.283-3.411-1.064-4.899-1.999-6.067c-0.935-1.17-2.021-2.02-3.514-2.656c-1.49-0.637-3.383-1.064-5.251-1.395
		c-1.87-0.332-3.715-0.566-5.586-0.59c-1.869-0.023-3.763,0.165-5.7,0.708c-1.94,0.543-3.929,1.442-6.151,2.504
		c-2.226,1.063-4.686,2.291-6.199,3.095c-1.515,0.803-2.082,1.18-2.795,1.326c-0.712,0.146-1.566,0.064-2.223,0.237
		c-0.653,0.172-1.107,0.599-1.476,1.034c-0.368,0.432-0.651,0.873-0.527,1.805c0-3-1.412-5.672-3.608-7.389
		c-0.167-0.133,2.201-1.283,2.814-3.078c0.068-0.202,0.734-1.223,1.512-1.428c0.473-0.125,11.743-6.401,15.359-11.865
		c2.5-3.778,4.79-8.075,4.412-11.54c-0.735-6.729-4.814-10.339-7.723-10.582c-2.206-0.184-4.87,0.466-7.105,1.835
		c-2.665,1.632-5.087,4.649-6.25,6.056c-2.125,2.568-5.147,5.546-4.475,21.897c0.123,2.996-0.796,2.854-1.348,3.791
		c-0.471,0.8-0.198,3.309-0.368,3.263c-0.788-0.213-1.766-0.343-2.62-0.343c-5.189,0-9.397,4.201-9.397,9.383
		c0,5.184,4.208,9.384,9.397,9.384c0.898,0,1.768-0.125,2.59-0.358c0.281-0.082-0.174,2.143,0.521,3.078
		c1.272,1.721,1.165,2.539,1.205,2.896c0.081,0.754-0.765,10.516,1.001,16.678c0.551,1.93,3.684,8.021,8.333,11.285
		c5.055,3.548,9.342,3.952,12.313,1.132c1.841-1.741,3.922-5.858,3.861-9.146c-0.063-3.467-1.499-6.713-3.922-10.674
		c-1.941-3.177-4.896-5.318-7.506-7.277c-3.07-2.309-5.913-4.131-7.077-4.549c-0.688-0.245-1.661-0.604-2.083-1.079
		c-0.563-0.636-0.636-1.333-1.196-2.173c-0.272-0.41-2.286-1.772-2.08-1.943c2.101-1.723,3.438-4.331,3.438-7.253
		c-0.124,0.935,0.159,1.374,0.527,1.806c0.366,0.436,0.819,0.86,1.477,1.034c0.654,0.17,1.51,0.088,2.222,0.235
		c0.712,0.146,1.279,0.523,2.795,1.326c1.516,0.806,3.977,2.031,6.199,3.096c2.226,1.063,4.211,1.961,6.151,2.504
		c1.938,0.545,3.831,0.732,5.7,0.711c1.87-0.023,3.716-0.262,5.586-0.592c1.867-0.33,3.762-0.756,5.252-1.395
		c1.491-0.638,2.578-1.488,3.514-2.658C501.854,285.105,502.635,283.619,502.918,280.206z"/>
	<path fill="#FFFFFF" stroke="#000000" stroke-width="1.5" stroke-miterlimit="10" d="M275,33.355
		c3.418,0.284,4.908,1.063,6.08,1.995c1.17,0.934,2.021,2.019,2.66,3.508c0.639,1.488,1.064,3.377,1.396,5.242
		c0.332,1.866,0.568,3.708,0.592,5.575c0.024,1.866-0.165,3.755-0.709,5.691c-0.545,1.937-1.441,3.921-2.509,6.14
		c-1.063,2.221-2.296,4.677-3.101,6.188c-0.804,1.512-1.183,2.079-1.328,2.79c-0.147,0.711-0.063,1.565-0.237,2.219
		c-0.173,0.653-0.6,1.105-1.035,1.473c-0.433,0.367-0.875,0.649-1.81,0.526c3.006,0,5.683,1.409,7.402,3.602
		c0.132,0.167,1.285-2.197,3.084-2.809c0.199-0.068,1.225-0.734,1.43-1.509c0.125-0.472,6.413-11.723,11.887-15.333
		c3.785-2.496,8.09-4.782,11.563-4.404c6.738,0.734,10.355,4.806,10.6,7.707c0.187,2.202-0.467,4.861-1.839,7.095
		c-1.633,2.66-4.656,5.077-6.065,6.239c-2.57,2.121-5.557,5.138-21.937,4.464c-3.002-0.123-2.859,0.795-3.8,1.346
		c-0.8,0.469-3.313,0.198-3.27,0.367c0.214,0.786,0.345,1.762,0.345,2.615c0,5.182-4.208,9.383-9.398,9.383
		s-9.399-4.202-9.399-9.383c0-0.896,0.125-1.761,0.358-2.583c0.081-0.282-2.146,0.172-3.084-0.521
		c-1.724-1.272-2.544-1.164-2.899-1.203c-0.757-0.081-10.535,0.761-16.708-0.999c-1.93-0.55-8.035-3.677-11.305-8.318
		c-3.554-5.046-3.958-9.326-1.134-12.294c1.747-1.835,5.869-3.913,9.161-3.854c3.473,0.062,6.725,1.496,10.692,3.915
		c3.182,1.939,5.329,4.888,7.293,7.492c2.312,3.066,4.137,5.903,4.555,7.065c0.248,0.687,0.604,1.658,1.082,2.08
		c0.637,0.56,1.336,0.634,2.176,1.193c0.412,0.274,1.777,2.283,1.947,2.077c1.726-2.094,4.34-3.429,7.267-3.43
		c-0.935,0.124-1.375-0.16-1.81-0.526c-0.435-0.368-0.862-0.82-1.035-1.473c-0.172-0.653-0.088-1.508-0.237-2.218
		c-0.147-0.712-0.524-1.277-1.329-2.791c-0.804-1.511-2.035-3.967-3.1-6.188c-1.065-2.22-1.963-4.204-2.508-6.14
		c-0.545-1.938-0.733-3.826-0.711-5.691c0.023-1.867,0.26-3.709,0.592-5.575c0.332-1.865,0.757-3.755,1.396-5.242
		c0.639-1.489,1.491-2.574,2.662-3.508C270.092,34.418,271.583,33.64,275,33.355z"/>
	<path fill="#FFFFFF" stroke="#000000" stroke-width="1.5" stroke-miterlimit="10" d="M274.963,524.867
		c-3.417-0.284-4.908-1.063-6.079-1.996c-1.171-0.934-2.022-2.021-2.661-3.508c-0.638-1.488-1.066-3.377-1.396-5.242
		c-0.333-1.867-0.568-3.709-0.592-5.576c-0.023-1.864,0.166-3.754,0.709-5.688c0.546-1.938,1.445-3.923,2.509-6.142
		c1.065-2.222,2.295-4.677,3.1-6.188c0.804-1.514,1.183-2.078,1.33-2.79c0.147-0.71,0.063-1.564,0.236-2.218s0.6-1.105,1.036-1.475
		c0.433-0.367,0.875-0.648,1.81-0.525c-3.006,0-5.683-1.409-7.403-3.604c-0.131-0.167-1.287,2.197-3.082,2.811
		c-0.203,0.067-1.227,0.732-1.43,1.509c-0.125,0.473-6.414,11.724-11.888,15.333c-3.785,2.495-8.089,4.779-11.561,4.401
		c-6.74-0.731-10.358-4.806-10.6-7.706c-0.184-2.2,0.467-4.86,1.838-7.096c1.633-2.659,4.657-5.077,6.066-6.239
		c2.572-2.119,5.556-5.138,21.937-4.464c3.001,0.123,2.859-0.795,3.8-1.346c0.799-0.469,3.313-0.197,3.268-0.367
		c-0.215-0.786-0.344-1.763-0.344-2.614c0-5.183,4.209-9.384,9.399-9.384c5.188,0,9.4,4.201,9.4,9.384
		c0,0.896-0.126,1.764-0.36,2.582c-0.08,0.283,2.146-0.171,3.085,0.522c1.722,1.271,2.543,1.163,2.899,1.202
		c0.756,0.081,10.532-0.764,16.708,0.999c1.93,0.55,8.035,3.677,11.305,8.317c3.555,5.045,3.958,9.324,1.133,12.293
		c-1.745,1.835-5.868,3.912-9.16,3.854c-3.473-0.063-6.725-1.497-10.69-3.915c-3.183-1.939-5.328-4.888-7.292-7.492
		c-2.313-3.063-4.139-5.903-4.557-7.063c-0.247-0.688-0.604-1.658-1.082-2.079c-0.637-0.563-1.337-0.637-2.176-1.193
		c-0.412-0.272-1.775-2.283-1.948-2.076c-1.724,2.095-4.338,3.431-7.266,3.432c0.934-0.123,1.376,0.158,1.809,0.525
		c0.438,0.367,0.862,0.819,1.037,1.475c0.17,0.651,0.088,1.508,0.235,2.218c0.146,0.711,0.524,1.275,1.33,2.791
		c0.804,1.511,2.034,3.967,3.099,6.187c1.065,2.223,1.964,4.204,2.51,6.143c0.545,1.937,0.732,3.825,0.712,5.688
		c-0.025,1.867-0.263,3.709-0.594,5.576c-0.333,1.865-0.758,3.755-1.396,5.242c-0.638,1.488-1.491,2.574-2.661,3.508
		C279.871,523.804,278.381,524.583,274.963,524.867z"/>
</g>
</svg>
