<?xml version="1.0" encoding="utf-8"?>
<!-- Generator: Adobe Illustrator 16.0.0, SVG Export Plug-In . SVG Version: 6.00 Build 0)  -->
<!DOCTYPE svg PUBLIC "-//W3C//DTD SVG 1.1//EN" "http://www.w3.org/Graphics/SVG/1.1/DTD/svg11.dtd">
<svg version="1.1" id="t1" xmlns="http://www.w3.org/2000/svg" xmlns:xlink="http://www.w3.org/1999/xlink" x="0px" y="0px"
     width="600px" height="600px" viewBox="0 0 600 600" enable-background="new 0 0 600 600" xml:space="preserve">
<g>
	
    <rect x="25.363" y="25.363" fill="#FFFFFF" stroke="#000000" stroke-width="1.5" stroke-linecap="round" stroke-linejoin="round" width="549.273" height="549.273"/>
    <path fill="#FFFFFF" stroke="#000000" stroke-width="1.5" stroke-miterlimit="10" d="M25,25v550h550V25H25z M301.322,186.885
            c0.061-1.974,0.183-4.369,0.592-6.693c0.414-2.324,1.116-4.577,2.002-6.915c0.888-2.339,1.955-4.762,3.773-7.15
            c1.816-2.387,4.383-4.74,7.698-6.771c3.313-2.031,7.376-3.742,11.652-4.597c4.276-0.856,8.767-0.856,12.688-0.393
            c3.919,0.463,7.271,1.39,10.549,3.313c3.279,1.925,6.486,4.847,8.624,7.84c2.139,2.994,3.209,6.058,3.921,9.088
            c0.712,3.029,1.07,6.023,1.141,8.945c0.07,2.923-0.143,5.773-1.07,8.588c-0.926,2.815-2.565,5.595-4.419,8.054
            c-1.853,2.46-3.922,4.598-6.129,6.486c-2.21,1.889-4.563,3.528-6.772,4.525c-2.208,0.998-4.276,1.354-6.629,1.461
            c-2.352,0.106-4.988-0.036-7.199-0.499c-2.207-0.464-3.99-1.247-5.63-2.495c-1.641-1.247-3.137-2.958-4.242-4.881
            c-1.104-1.925-1.816-4.063-2.172-6.629c-0.357-2.565-0.357-5.559,0.105-8.053c0.464-2.496,1.391-4.49,2.564-5.917
            c1.178-1.425,2.604-2.281,5.133-2.886s6.165-0.962,9.054-0.962c2.886,0,5.023,0.357,6.52,0.962
            c1.497,0.606,2.354,1.461,3.029,2.459c0.678,0.998,1.176,2.138,1.712,2.958c0.533,0.82,1.105,1.319,2.103,1.569
            c0.996,0.249,2.424,0.249,3.527-0.036c1.104-0.285,1.891-0.854,2.424-2.031c0.535-1.176,0.819-2.958,0.819-4.989
            c0-2.03-0.284-4.312-1.032-6.593c-0.747-2.281-1.96-4.562-3.527-6.45c-1.568-1.889-3.493-3.386-5.952-4.704
            c-2.46-1.318-5.453-2.46-8.27-2.923c-2.813-0.461-5.451-0.249-8.373,0.25c-2.925,0.499-6.131,1.282-8.911,2.602
            c-2.78,1.318-5.132,3.171-7.198,5.773c-2.066,2.601-3.85,5.95-4.847,9.372c-0.999,3.421-1.213,6.913-1.247,10.406
            c-0.035,3.492,0.105,6.985,0.961,10.121c0.856,3.136,2.424,5.915,4.35,8.624c1.924,2.709,4.205,5.346,6.879,7.627
            c2.672,2.281,5.737,4.205,8.837,5.346c3.101,1.141,6.236,1.497,9.871,1.569c3.634,0.071,7.769-0.142,11.902-1.033
            c4.136-0.892,8.268-2.46,12.688-4.669s9.123-5.06,13.506-7.876c4.383-2.815,8.447-5.595,12.116-8.553
            c3.671-2.957,6.95-6.094,10.441-9.516c3.492-3.42,7.2-7.127,11.583-11.795c4.384-4.668,9.444-10.299,13.365-14.933
            c3.919-4.633,6.698-8.269,9.586-12.081c2.887-3.813,5.88-7.805,9.087-12.366c3.209-4.562,6.63-9.694,9.623-14.327
            c2.994-4.633,5.56-8.768,8.518-13.151c2.958-4.384,6.308-9.016,9.769-13.205c3.46-4.189,7.033-7.935,10.435-11.482
            c3.402-3.548,6.638-6.896,9.669-9.609c3.029-2.713,5.858-4.792,8.688-6.494c2.829-1.704,5.658-3.032,8.169-3.812
            c2.511-0.779,4.706-1.01,8.054-0.692c3.35,0.317,7.852,1.183,12.735,5.373c4.21,4.864,5.096,9.364,5.428,12.711
            c0.333,3.346,0.108,5.541-0.659,8.056c-0.769,2.516-2.083,5.349-3.774,8.186c-1.689,2.836-3.756,5.674-6.456,8.717
            c-2.701,3.042-6.037,6.291-9.568,9.708c-3.532,3.417-7.263,7.004-11.437,10.484c-4.176,3.478-8.794,6.848-13.166,9.825
            c-4.371,2.977-8.492,5.56-13.112,8.575c-4.62,3.013-9.737,6.456-14.285,9.683c-4.547,3.228-8.524,6.238-12.327,9.142
            c-3.802,2.903-7.424,5.698-12.041,9.638c-4.615,3.939-10.224,9.024-14.873,13.427s-8.342,8.125-11.748,11.634
            c-3.406,3.506-6.526,6.8-9.469,10.481c-2.942,3.684-5.705,7.758-8.501,12.153c-2.796,4.396-5.627,9.112-7.817,13.541
            c-2.191,4.428-3.741,8.57-4.613,12.708c-0.874,4.138-1.07,8.272-0.982,11.907c0.087,3.635,0.456,6.77,1.609,9.866
            c1.153,3.096,3.091,6.152,5.385,8.815c2.291,2.663,4.939,4.932,7.653,6.845c2.718,1.914,5.505,3.47,8.645,4.311
            c3.14,0.842,6.633,0.969,10.126,0.919c3.492-0.051,6.982-0.279,10.399-1.292c3.417-1.013,6.76-2.808,9.351-4.887
            c2.594-2.078,4.436-4.438,5.744-7.223c1.306-2.786,2.076-5.997,2.563-8.921c0.486-2.925,0.688-5.563,0.214-8.376
            c-0.474-2.814-1.629-5.802-2.958-8.256c-1.33-2.453-2.834-4.371-4.73-5.931c-1.895-1.56-4.18-2.763-6.464-3.501
            c-2.284-0.739-4.566-1.013-6.6-1.004c-2.03,0.008-3.812,0.301-4.984,0.841c-1.175,0.539-1.741,1.327-2.021,2.432
            c-0.282,1.106-0.274,2.531-0.021,3.528c0.255,0.997,0.755,1.564,1.576,2.096c0.824,0.531,1.965,1.025,2.967,1.699
            c1.001,0.672,1.86,1.523,2.471,3.018c0.613,1.494,0.979,3.63,0.992,6.518c0.011,2.886-0.33,6.523-0.924,9.056
            c-0.596,2.532-1.443,3.961-2.865,5.145c-1.421,1.182-3.411,2.118-5.903,2.591c-2.494,0.475-5.488,0.486-8.054,0.141
            c-2.568-0.346-4.71-1.049-6.639-2.145c-1.93-1.097-3.646-2.587-4.901-4.22c-1.255-1.634-2.045-3.412-2.519-5.621
            c-0.474-2.207-0.627-4.844-0.53-7.195c0.097-2.353,0.444-4.421,1.433-6.635s2.617-4.573,4.499-6.791
            c1.878-2.219,4.008-4.295,6.458-6.159c2.45-1.863,5.225-3.515,8.035-4.454s5.661-1.165,8.584-1.106
            c2.923,0.059,5.918,0.402,8.949,1.102c3.033,0.7,6.103,1.756,9.103,3.881c3.004,2.125,5.941,5.32,7.879,8.591
            c1.939,3.27,2.88,6.616,3.36,10.534c0.479,3.919,0.5,8.409-0.34,12.689c-0.835,4.279-2.528,8.35-4.546,11.672
            c-2.018,3.324-4.358,5.9-6.736,7.727c-2.381,1.828-4.799,2.907-7.134,3.804c-2.336,0.896-4.583,1.609-6.907,2.031
            c-2.321,0.422-4.718,0.553-6.689,0.623c-1.971,0.069-3.523,0.076-5.41,0.054c-1.886-0.021-4.109-0.069-6.283-0.433
            c-2.173-0.362-4.297-1.038-7.46-2.52c-3.161-1.482-7.364-3.771-10.57-5.923c-3.205-2.15-5.413-4.166-7.051-6.403
            c-1.638-2.237-2.703-4.696-3.55-6.981c-0.845-2.284-1.472-4.394-1.748-7.251c-0.276-2.859-0.202-6.467,0.091-9.944
            c0.294-3.478,0.806-6.823,1.96-11.085c1.154-4.262,2.95-9.439,4.737-13.533c1.787-4.093,3.563-7.104,5.478-10.34
            c1.918-3.237,3.974-6.701,5.465-9.227c1.489-2.526,2.415-4.116,2.932-5.035c0.515-0.92,0.62-1.171,0.656-1.397
            c0.034-0.226-0.002-0.424-0.108-0.556c-0.11-0.132-0.293-0.196-0.926-0.514c-0.319-0.632-0.386-0.813-0.519-0.921
            c-0.13-0.11-0.331-0.145-0.556-0.108c-0.226,0.036-0.476,0.142-1.394,0.663c-0.917,0.52-2.504,1.452-5.024,2.953
            c-2.519,1.502-5.975,3.572-9.202,5.504c-3.23,1.93-6.231,3.72-10.316,5.523c-4.086,1.804-9.256,3.621-13.513,4.794
            c-4.257,1.172-7.602,1.7-11.076,2.009c-3.477,0.308-7.084,0.396-9.944,0.131c-2.859-0.263-4.971-0.879-7.259-1.716
            c-2.287-0.836-4.752-1.892-6.996-3.521c-2.244-1.627-4.267-3.827-6.434-7.024c-2.164-3.195-4.472-7.388-5.967-10.545
            c-1.496-3.157-2.182-5.276-2.553-7.449c-0.371-2.172-0.43-4.396-0.461-6.283C301.263,190.408,301.263,188.858,301.322,186.885z
             M545.971,523.394c-1.511-6.907-3.119-13.077-5.197-19.582c-2.079-6.504-4.627-13.345-8.249-20.988
            c-3.621-7.645-8.315-16.094-12.473-22.667c-4.157-6.571-7.777-11.266-12.473-16.696c-4.694-5.432-10.462-11.601-17.436-17.771
            c-6.973-6.169-15.155-12.339-21.996-17.369c-6.839-5.028-12.337-8.918-15.891-12.07c-3.555-3.15-5.164-5.565-6.17-8.181
            s-1.407-5.432-1.273-8.181c0.135-2.749,0.805-5.431,2.147-7.576c1.34-2.146,3.354-3.757,6.167-4.762
            c2.817-1.006,6.439-1.409,9.926-1.409c3.487,0,6.841,0.403,11.533,2.482c4.694,2.08,10.729,5.834,15.625,9.388
            s8.65,6.907,13.009,12.271c4.359,5.365,9.321,12.74,13.479,19.849c4.157,7.108,7.51,13.948,10.597,21.325
            c3.083,7.376,5.9,15.289,8.717,24.544c2.814,9.253,5.632,19.849,9.254,35.407c3.621,15.557,8.047,36.075,12.07,65.851
            c-7.272-1.788-15.328-2.654-24.778-4.243c-9.451-1.592-20.3-3.904-30.687-6.336c-10.386-2.431-20.311-4.979-30.437-7.729
            s-20.453-5.7-30.847-9.79c-10.396-4.091-20.855-9.32-29.305-14.149c-8.45-4.828-14.887-9.255-20.387-14.082
            c-5.497-4.828-10.058-10.06-13.411-14.418c-3.353-4.359-5.5-7.847-6.841-12.474c-1.342-4.625-1.878-10.395-1.878-14.552
            s0.536-6.705,1.543-9.053c1.006-2.347,2.481-4.494,4.56-5.834c2.079-1.342,4.762-1.877,8.114-1.408
            c3.354,0.47,7.377,1.945,11.064,4.762c3.689,2.815,7.041,6.974,11.535,13.143c4.493,6.17,10.124,14.351,15.891,21.728
            c5.769,7.376,11.668,13.948,18.911,20.52s15.827,13.144,24.276,18.71s16.764,10.127,29.572,15.021
            c12.809,4.896,30.107,10.127,55.858,12.941C548.887,537.945,547.479,530.3,545.971,523.394z M474.586,233.645
            c-4.693,2.079-8.047,2.481-11.533,2.481c-3.487,0-7.108-0.402-9.926-1.408c-2.813-1.006-4.826-2.615-6.167-4.761
            c-1.343-2.146-2.013-4.828-2.147-7.577c-0.134-2.75,0.268-5.566,1.273-8.181s2.615-5.029,6.17-8.181
            c3.554-3.151,9.053-7.042,15.891-12.07c6.842-5.029,15.023-11.199,21.996-17.368c6.974-6.17,12.741-12.339,17.436-17.77
            c4.694-5.432,8.315-10.125,12.473-16.697s8.852-15.021,12.473-22.667c3.621-7.645,6.17-14.484,8.249-20.989
            c2.079-6.505,3.688-12.674,5.197-19.581c1.509-6.907,2.916-14.552,4.123-26.622c-25.751,2.816-43.051,8.047-55.858,12.942
            c-12.81,4.895-21.124,9.455-29.572,15.021c-8.449,5.565-17.033,12.138-24.276,18.709s-13.142,13.144-18.911,20.52
            c-5.767,7.376-11.398,15.558-15.891,21.727c-4.494,6.168-7.847,10.327-11.535,13.144c-3.688,2.816-7.711,4.292-11.064,4.761
            c-3.353,0.469-6.035-0.067-8.113-1.409c-2.08-1.342-3.555-3.487-4.561-5.833c-1.007-2.347-1.543-4.896-1.543-9.052
            c0-4.158,0.536-9.925,1.878-14.552c1.341-4.627,3.487-8.114,6.841-12.473s7.914-9.59,13.411-14.417
            c5.5-4.829,11.937-9.254,20.387-14.083c8.449-4.828,18.91-10.059,29.305-14.148c10.394-4.091,20.721-7.042,30.847-9.791
            c10.126-2.749,20.05-5.297,30.437-7.728c10.387-2.431,21.235-4.745,30.687-6.334c9.45-1.59,17.506-2.456,24.778-4.244
            c-4.023,29.774-8.45,50.294-12.07,65.851c-3.621,15.557-6.439,26.153-9.254,35.407c-2.816,9.255-5.634,17.167-8.717,24.543
            c-3.087,7.377-6.439,14.216-10.597,21.324c-4.158,7.109-9.12,14.485-13.479,19.849c-4.358,5.365-8.113,8.718-13.009,12.271
            C485.315,227.811,479.28,231.566,474.586,233.645z M323.529,245.458c12.403,0,22.458,10.055,22.458,22.459
            s-10.055,22.459-22.458,22.459c-12.404,0-22.459-10.055-22.459-22.459S311.125,245.458,323.529,245.458z M29.077,28.172
            c7.682-0.066,14.445-0.033,24.623,0.168c10.178,0.202,23.768,0.57,33.229,0.804c9.462,0.235,14.795,0.333,22.051,0.587
            c7.255,0.255,16.431,0.663,27.966,1.512c11.537,0.85,25.43,2.143,36.728,3.593c11.297,1.452,19.996,3.063,27.783,4.459
            c7.787,1.396,14.661,2.578,23.631,4.916c8.969,2.339,20.034,5.833,28.225,8.685c8.191,2.852,13.51,5.062,18.022,7.178
            c4.513,2.116,8.221,4.138,10.785,5.731c2.564,1.59,3.989,2.751,5.505,4.269c1.516,1.516,3.126,3.389,4.457,5.056
            c1.33,1.666,2.379,3.127,3.146,4.887c0.768,1.76,1.255,3.82,1.349,5.88c0.093,2.06-0.207,4.119-1.368,6.183
            c-1.16,2.065-3.186,4.133-4.937,5.951c-1.751,1.817-3.232,3.383-5.057,4.558c-1.827,1.174-4.002,1.958-6.481,2.392
            c-2.48,0.435-5.264,0.522-8.481-0.565c-3.22-1.088-6.873-3.35-11.615-6.524c-4.742-3.176-10.57-7.264-17.965-12.18
            c-7.394-4.915-16.355-10.657-25.925-15.833c-9.569-5.177-19.749-9.788-30.753-13.703c-11.005-3.916-22.838-7.134-34.277-9.744
            c-11.44-2.609-22.489-4.611-33.842-6.265c-11.353-1.653-23.011-2.957-36.083-3.871C66.72,35.383,52.234,34.861,35.532,34.6
            c1.044,9.917,1.173,16.964,1.283,24.229c0.109,7.265,0.195,14.746,0.63,22.141c0.434,7.395,1.218,14.702,2.305,23.272
            c1.087,8.569,2.48,18.401,3.916,26.665c1.435,8.265,2.914,14.964,4.437,21.401c1.523,6.438,3.089,12.615,5.003,18.835
            c1.914,6.22,4.176,12.485,6.508,18.763c2.332,6.278,4.733,12.571,7.021,17.774s4.46,9.318,6.771,13.433
            c2.312,4.115,4.763,8.23,7.375,12.229c2.613,3.999,5.385,7.883,8.392,12.044c3.006,4.161,6.243,8.6,8.693,12.159
            s4.115,6.241,5.317,8.669c1.203,2.427,1.941,4.6,2.358,7.051c0.416,2.45,0.508,5.178-0.116,7.605
            c-0.624,2.427-1.964,4.554-3.768,6.889c-1.804,2.335-4.07,4.877-6.034,6.681c-1.964,1.803-3.63,2.866-5.456,3.397
            c-1.827,0.532-3.815,0.532-5.688,0.277c-1.872-0.254-3.63-0.764-5.594-1.539c-1.964-0.777-4.137-1.821-6.681-4.397
            c-2.544-2.578-5.463-6.688-8.114-11.528c-2.652-4.841-5.039-10.41-7.691-17.238c-2.651-6.828-5.569-14.917-7.89-22.542
            c-2.32-7.625-4.043-14.785-5.77-23.206c-1.721-8.42-3.446-18.1-4.84-27.491s-2.459-18.493-3.76-32.439
            c-1.303-13.95-2.84-32.741-5.061-104.104C29.077,45.146,29.077,36.659,29.077,28.172z M56.27,78.874
            c1.511,6.907,3.119,13.077,5.198,19.581c2.078,6.505,4.626,13.344,8.248,20.99c3.621,7.644,8.316,16.093,12.473,22.666
            c4.157,6.573,7.779,11.266,12.472,16.697c4.695,5.432,10.462,11.601,17.436,17.77c6.974,6.168,15.156,12.338,21.995,17.368
            c6.84,5.028,12.338,8.919,15.892,12.07c3.555,3.152,5.164,5.566,6.17,8.181c1.006,2.615,1.406,5.431,1.274,8.181
            c-0.135,2.75-0.805,5.432-2.146,7.577c-1.342,2.146-3.354,3.755-6.17,4.761s-6.438,1.408-9.924,1.408
            c-3.488,0-6.841-0.402-11.534-2.481c-4.693-2.08-10.729-5.833-15.625-9.388c-4.894-3.554-8.65-6.908-13.008-12.272
            c-4.36-5.363-9.321-12.741-13.479-19.849c-4.157-7.108-7.51-13.948-10.595-21.324c-3.085-7.376-5.902-15.289-8.717-24.543
            c-2.817-9.255-5.633-19.85-9.255-35.407c-3.621-15.558-8.047-36.078-12.07-65.852c7.274,1.789,15.327,2.655,24.778,4.244
            c9.452,1.59,20.3,3.903,30.685,6.334c10.387,2.431,20.312,4.98,30.438,7.729c10.125,2.749,20.452,5.699,30.846,9.79
            c10.395,4.091,20.855,9.321,29.304,14.149c8.45,4.828,14.888,9.253,20.387,14.083c5.498,4.828,10.058,10.058,13.412,14.417
            c3.353,4.359,5.5,7.846,6.84,12.473c1.341,4.627,1.878,10.394,1.878,14.552c0,4.158-0.538,6.706-1.542,9.052
            c-1.006,2.347-2.482,4.493-4.56,5.833c-2.079,1.341-4.761,1.878-8.114,1.409c-3.354-0.469-7.376-1.944-11.064-4.761
            c-3.688-2.816-7.042-6.974-11.534-13.144c-4.493-6.169-10.126-14.351-15.893-21.726c-5.768-7.377-11.668-13.948-18.911-20.521
            c-7.244-6.571-15.826-13.143-24.276-18.71c-8.449-5.565-16.764-10.125-29.572-15.021c-12.805-4.892-30.106-10.123-55.856-12.939
            C53.354,64.322,54.763,71.967,56.27,78.874z M108.006,537.072c12.809-4.894,21.124-9.454,29.572-15.021
            c8.45-5.565,17.032-12.138,24.276-18.71c7.243-6.571,13.142-13.143,18.911-20.52c5.767-7.377,11.4-15.558,15.893-21.728
            c4.493-6.169,7.846-10.327,11.534-13.143c3.688-2.816,7.711-4.292,11.064-4.762c3.353-0.469,6.035,0.066,8.114,1.408
            c2.08,1.341,3.554,3.487,4.561,5.834c1.005,2.348,1.542,4.896,1.542,9.053s-0.538,9.926-1.878,14.552
            c-1.34,4.628-3.486,8.114-6.84,12.474c-3.354,4.358-7.914,9.589-13.412,14.417c-5.499,4.828-11.937,9.256-20.387,14.083
            c-8.449,4.828-18.91,10.059-29.304,14.149s-20.721,7.041-30.846,9.79c-10.126,2.748-20.051,5.298-30.438,7.729
            c-10.385,2.432-21.233,4.744-30.686,6.336c-9.45,1.589-17.503,2.454-24.777,4.243c4.022-29.774,8.449-50.294,12.07-65.852
            c3.621-15.558,6.438-26.153,9.255-35.407c2.815-9.254,5.632-17.167,8.717-24.544c3.085-7.375,6.438-14.216,10.595-21.324
            c4.158-7.108,9.119-14.484,13.479-19.85c4.358-5.364,8.114-8.718,13.008-12.271c4.896-3.554,10.931-7.308,15.625-9.387
            c4.694-2.078,8.047-2.481,11.534-2.481c3.487,0,7.107,0.401,9.924,1.407c2.816,1.007,4.828,2.615,6.17,4.762
            c1.341,2.146,2.011,4.828,2.146,7.577c0.132,2.749-0.269,5.565-1.274,8.18c-1.006,2.615-2.615,5.03-6.17,8.183
            c-3.554,3.15-9.053,7.041-15.892,12.07c-6.84,5.028-15.021,11.199-21.995,17.368c-6.974,6.169-12.74,12.338-17.436,17.771
            c-4.693,5.431-8.315,10.126-12.472,16.696c-4.157,6.572-8.852,15.021-12.473,22.667c-3.621,7.645-6.169,14.484-8.248,20.988
            c-2.079,6.505-3.688,12.675-5.198,19.582c-1.508,6.906-2.916,14.552-4.123,26.621C77.898,547.199,95.199,541.968,108.006,537.072z
             M296.575,512.972c-0.094,2.059-0.581,4.118-1.349,5.878c-0.767,1.761-1.816,3.221-3.146,4.887c-1.33,1.668-2.94,3.54-4.457,5.057
            c-1.516,1.516-2.942,2.678-5.505,4.269c-2.564,1.593-6.273,3.614-10.785,5.73c-4.513,2.116-9.83,4.326-18.022,7.179
            c-8.191,2.853-19.255,6.347-28.225,8.685c-8.969,2.339-15.844,3.521-23.631,4.917c-7.787,1.396-16.486,3.007-27.783,4.459
            c-11.299,1.452-25.191,2.743-36.728,3.594c-11.535,0.849-20.71,1.257-27.966,1.511c-7.255,0.255-12.589,0.354-22.051,0.588
            c-9.462,0.233-23.052,0.603-33.229,0.803c-10.178,0.203-16.941,0.235-24.623,0.169c0-8.487,0-16.975,0-25.46
            c2.222-71.363,3.758-90.154,5.06-104.103c1.301-13.946,2.366-23.049,3.76-32.439c1.394-9.392,3.119-19.071,4.84-27.491
            c1.727-8.42,3.449-15.581,5.77-23.206c2.321-7.624,5.239-15.713,7.889-22.542c2.653-6.828,5.039-12.398,7.691-17.237
            c2.652-4.84,5.57-8.951,8.114-11.527c2.544-2.578,4.716-3.622,6.681-4.398c1.965-0.775,3.723-1.285,5.594-1.539
            c1.873-0.254,3.861-0.254,5.687,0.277c1.826,0.533,3.492,1.596,5.456,3.399c1.965,1.804,4.23,4.347,6.034,6.682
            c1.804,2.335,3.144,4.46,3.768,6.888c0.625,2.428,0.531,5.156,0.116,7.606c-0.417,2.451-1.156,4.623-2.358,7.051
            c-1.202,2.428-2.867,5.109-5.317,8.67s-5.687,7.998-8.692,12.159c-3.006,4.161-5.779,8.045-8.393,12.044
            c-2.612,3.998-5.063,8.114-7.374,12.229c-2.312,4.115-4.484,8.23-6.772,13.434c-2.287,5.203-4.688,11.496-7.02,17.774
            c-2.332,6.279-4.594,12.543-6.508,18.763c-1.915,6.221-3.48,12.397-5.003,18.836c-1.522,6.438-3.001,13.137-4.436,21.401
            c-1.436,8.265-2.829,18.096-3.916,26.664c-1.087,8.57-1.871,15.879-2.305,23.272c-0.436,7.395-0.522,14.876-0.63,22.142
            c-0.109,7.265-0.239,14.312-1.283,24.229c16.703-0.262,31.188-0.783,44.259-1.695c13.072-0.914,24.729-2.219,36.083-3.872
            c11.354-1.652,22.402-3.653,33.842-6.264c11.44-2.609,23.272-5.829,34.277-9.744c11.004-3.915,21.184-8.526,30.753-13.702
            c9.569-5.177,18.531-10.919,25.925-15.834c7.395-4.915,13.224-9.004,17.965-12.18c4.742-3.175,8.396-5.437,11.615-6.524
            c3.218-1.088,6.002-1.001,8.481-0.564c2.479,0.435,4.655,1.218,6.482,2.392c1.825,1.174,3.305,2.741,5.057,4.558
            c1.751,1.817,3.775,3.886,4.937,5.95C296.369,508.852,296.668,510.912,296.575,512.972z M298.68,412.572
            c-0.06,1.975-0.182,4.368-0.594,6.692c-0.413,2.324-1.114,4.578-2.001,6.917c-0.886,2.337-1.955,4.761-3.772,7.147
            c-1.818,2.389-4.384,4.74-7.697,6.771c-3.315,2.031-7.378,3.74-11.654,4.597c-4.276,0.855-8.768,0.855-12.687,0.393
            c-3.921-0.464-7.27-1.391-10.55-3.315c-3.277-1.925-6.484-4.847-8.623-7.841c-2.138-2.992-3.208-6.058-3.92-9.087
            c-0.713-3.028-1.07-6.022-1.141-8.945c-0.07-2.921,0.143-5.773,1.069-8.587c0.927-2.816,2.566-5.595,4.42-8.055
            c1.853-2.459,3.919-4.597,6.129-6.486c2.208-1.889,4.561-3.528,6.77-4.525c2.21-0.998,4.277-1.354,6.629-1.462
            c2.353-0.107,4.989,0.036,7.199,0.5s3.992,1.247,5.631,2.495c1.638,1.248,3.135,2.958,4.241,4.883
            c1.105,1.924,1.816,4.063,2.174,6.629c0.355,2.564,0.355,5.56-0.107,8.055c-0.464,2.493-1.39,4.489-2.565,5.913
            c-1.175,1.427-2.601,2.282-5.132,2.887c-2.53,0.606-6.166,0.962-9.051,0.962c-2.887,0-5.027-0.355-6.522-0.962
            c-1.497-0.604-2.352-1.461-3.028-2.459c-0.677-0.996-1.177-2.139-1.711-2.958c-0.536-0.819-1.105-1.318-2.104-1.566
            c-0.997-0.251-2.422-0.251-3.527,0.034s-1.888,0.855-2.424,2.032c-0.534,1.175-0.819,2.957-0.819,4.99
            c0,2.03,0.286,4.31,1.033,6.592c0.749,2.279,1.96,4.561,3.53,6.449c1.566,1.891,3.492,3.387,5.952,4.703
            c2.458,1.319,5.452,2.46,8.267,2.924s5.454,0.25,8.375-0.25c2.922-0.499,6.129-1.281,8.909-2.602
            c2.78-1.319,5.132-3.173,7.199-5.773c2.069-2.602,3.849-5.952,4.848-9.372c0.997-3.422,1.211-6.914,1.247-10.406
            c0.036-3.493-0.107-6.985-0.963-10.122c-0.855-3.137-2.422-5.915-4.346-8.625c-1.924-2.708-4.207-5.346-6.879-7.626
            c-2.672-2.28-5.737-4.204-8.839-5.344c-3.099-1.142-6.236-1.497-9.871-1.568c-3.635-0.071-7.771,0.143-11.905,1.033
            c-4.132,0.891-8.267,2.458-12.686,4.668c-4.419,2.208-9.123,5.061-13.507,7.877c-4.382,2.814-8.446,5.593-12.117,8.553
            c-3.671,2.958-6.949,6.095-10.441,9.516s-7.198,7.127-11.583,11.796c-4.382,4.667-9.442,10.299-13.364,14.932
            c-3.921,4.632-6.701,8.267-9.587,12.082c-2.887,3.813-5.881,7.804-9.086,12.366c-3.208,4.562-6.629,9.692-9.623,14.325
            c-2.994,4.635-5.56,8.768-8.517,13.15c-2.96,4.383-6.31,9.017-9.77,13.206c-3.461,4.19-7.034,7.935-10.436,11.482
            c-3.402,3.547-6.634,6.896-9.666,9.608c-3.032,2.715-5.861,4.793-8.69,6.496c-2.829,1.702-5.658,3.03-8.169,3.811
            c-2.511,0.779-4.704,1.011-8.053,0.692c-3.347-0.317-7.852-1.185-12.735-5.372c-4.208-4.865-5.094-9.365-5.427-12.711
            c-0.332-3.348-0.11-5.543,0.659-8.057c0.768-2.516,2.084-5.349,3.774-8.187c1.692-2.835,3.758-5.674,6.458-8.716
            c2.7-3.043,6.035-6.291,9.567-9.708c3.533-3.419,7.263-7.005,11.438-10.484s8.793-6.85,13.163-9.826
            c4.371-2.977,8.495-5.561,13.113-8.573c4.622-3.014,9.738-6.457,14.285-9.685c4.549-3.227,8.527-6.238,12.329-9.141
            c3.8-2.903,7.424-5.698,12.04-9.638c4.615-3.94,10.226-9.025,14.875-13.429c4.649-4.403,8.339-8.125,11.746-11.631
            c3.406-3.508,6.528-6.8,9.471-10.484c2.94-3.683,5.703-7.757,8.5-12.153c2.797-4.395,5.628-9.11,7.816-13.54
            c2.192-4.428,3.741-8.57,4.616-12.707c0.872-4.139,1.069-8.272,0.982-11.907c-0.087-3.634-0.458-6.768-1.61-9.865
            c-1.154-3.095-3.092-6.152-5.384-8.814c-2.293-2.662-4.939-4.932-7.656-6.845c-2.718-1.912-5.503-3.47-8.643-4.312
            c-3.141-0.841-6.634-0.969-10.125-0.918c-3.493,0.051-6.984,0.279-10.399,1.292c-3.417,1.013-6.76,2.807-9.352,4.886
            c-2.594,2.078-4.436,4.439-5.743,7.225c-1.308,2.783-2.078,5.995-2.563,8.92c-0.485,2.924-0.689,5.563-0.212,8.376
            c0.475,2.813,1.628,5.801,2.958,8.255c1.329,2.454,2.833,4.372,4.729,5.932s4.182,2.763,6.466,3.501
            c2.284,0.737,4.567,1.013,6.597,1.005c2.033-0.01,3.813-0.302,4.986-0.842c1.173-0.54,1.741-1.324,2.021-2.433
            c0.28-1.104,0.274-2.53,0.02-3.525c-0.253-0.999-0.754-1.566-1.578-2.096c-0.822-0.533-1.963-1.026-2.965-1.699
            c-1.001-0.672-1.858-1.523-2.472-3.017c-0.613-1.495-0.979-3.632-0.989-6.52c-0.014-2.886,0.328-6.522,0.924-9.057
            c0.594-2.531,1.443-3.96,2.862-5.144c1.422-1.183,3.413-2.118,5.906-2.592c2.492-0.474,5.486-0.486,8.053-0.142
            c2.567,0.346,4.708,1.05,6.639,2.146c1.928,1.098,3.646,2.585,4.9,4.22c1.254,1.635,2.047,3.412,2.519,5.62
            c0.473,2.208,0.627,4.845,0.53,7.196c-0.097,2.353-0.443,4.422-1.433,6.635c-0.988,2.215-2.617,4.573-4.497,6.79
            c-1.878,2.219-4.008,4.295-6.46,6.159c-2.451,1.862-5.224,3.514-8.035,4.452c-2.812,0.94-5.662,1.165-8.583,1.107
            c-2.924-0.06-5.917-0.403-8.95-1.102c-3.032-0.7-6.101-1.756-9.104-3.882c-3.003-2.126-5.938-5.32-7.877-8.591
            c-1.938-3.271-2.879-6.617-3.359-10.534c-0.48-3.919-0.5-8.408,0.337-12.688c0.836-4.28,2.529-8.352,4.546-11.674
            c2.017-3.323,4.358-5.899,6.739-7.727c2.38-1.827,4.799-2.907,7.132-3.804c2.334-0.896,4.584-1.609,6.907-2.031
            c2.323-0.422,4.717-0.554,6.691-0.623c1.972-0.068,3.522-0.076,5.408-0.054c1.889,0.02,4.112,0.07,6.284,0.432
            c2.174,0.362,4.297,1.037,7.459,2.521c3.163,1.48,7.365,3.77,10.57,5.921c3.205,2.15,5.416,4.166,7.052,6.402
            c1.636,2.238,2.704,4.697,3.55,6.98c0.846,2.285,1.471,4.395,1.747,7.254c0.276,2.856,0.205,6.466-0.089,9.943
            c-0.293,3.477-0.806,6.824-1.962,11.083c-1.154,4.262-2.948,9.441-4.735,13.533c-1.786,4.094-3.563,7.104-5.479,10.342
            c-1.917,3.234-3.973,6.701-5.464,9.227c-1.491,2.525-2.416,4.114-2.931,5.036c-0.516,0.92-0.623,1.17-0.657,1.396
            c-0.036,0.225,0,0.424,0.109,0.556c0.107,0.131,0.292,0.195,0.924,0.514c0.321,0.632,0.385,0.813,0.518,0.923
            c0.133,0.108,0.332,0.143,0.556,0.106s0.477-0.142,1.394-0.661c0.918-0.521,2.501-1.452,5.023-2.953
            c2.521-1.503,5.976-3.573,9.204-5.505c3.228-1.93,6.229-3.718,10.316-5.523c4.085-1.804,9.255-3.621,13.511-4.794
            c4.258-1.173,7.602-1.7,11.078-2.009c3.476-0.307,7.083-0.396,9.942-0.132c2.861,0.264,4.973,0.879,7.26,1.716
            c2.288,0.836,4.751,1.893,6.997,3.52c2.242,1.628,4.267,3.828,6.432,7.024c2.166,3.195,4.471,7.389,5.968,10.547
            c1.496,3.155,2.18,5.274,2.553,7.446c0.371,2.172,0.429,4.396,0.458,6.283C298.738,409.049,298.738,410.599,298.68,412.572z
             M268.955,306.812c12.404,0,22.46,10.055,22.46,22.459c0,12.403-10.056,22.459-22.46,22.459s-22.459-10.056-22.459-22.459
            C246.496,316.866,256.551,306.812,268.955,306.812z M246.496,267.917c0-12.404,10.055-22.459,22.459-22.459
            s22.46,10.055,22.46,22.459s-10.056,22.459-22.46,22.459S246.496,280.32,246.496,267.917z M298.709,192.294
            c-0.028,1.887-0.087,4.111-0.458,6.283c-0.373,2.172-1.058,4.292-2.553,7.448c-1.497,3.156-3.803,7.349-5.968,10.545
            c-2.165,3.196-4.189,5.396-6.433,7.024c-2.244,1.629-4.708,2.685-6.996,3.521c-2.287,0.835-4.399,1.452-7.261,1.715
            c-2.859,0.264-6.466,0.177-9.942-0.131c-3.477-0.307-6.82-0.835-11.078-2.009c-4.256-1.172-9.426-2.99-13.511-4.794
            c-4.088-1.803-7.088-3.593-10.316-5.523c-3.229-1.932-6.684-4.002-9.205-5.504s-4.104-2.434-5.022-2.953
            c-0.917-0.52-1.169-0.626-1.394-0.663s-0.424-0.001-0.557,0.108c-0.132,0.107-0.197,0.289-0.518,0.921
            c-0.632,0.318-0.816,0.383-0.923,0.514c-0.109,0.131-0.146,0.33-0.109,0.556c0.034,0.226,0.14,0.477,0.657,1.397
            c0.514,0.919,1.44,2.508,2.931,5.035c1.491,2.526,3.546,5.991,5.464,9.227c1.917,3.237,3.693,6.247,5.479,10.341
            c1.787,4.094,3.58,9.271,4.735,13.533c1.156,4.262,1.669,7.607,1.962,11.085c0.293,3.476,0.365,7.084,0.089,9.944
            c-0.276,2.857-0.9,4.967-1.747,7.251c-0.846,2.284-1.914,4.744-3.55,6.981c-1.636,2.237-3.848,4.252-7.053,6.403
            c-3.206,2.152-7.407,4.44-10.57,5.923c-3.163,1.481-5.285,2.157-7.459,2.52c-2.172,0.363-4.396,0.412-6.284,0.433
            c-1.887,0.021-3.437,0.015-5.408-0.055c-1.974-0.068-4.368-0.2-6.691-0.622c-2.321-0.422-4.572-1.135-6.907-2.031
            c-2.333-0.896-4.751-1.976-7.131-3.804c-2.381-1.827-4.722-4.404-6.739-7.727c-2.017-3.323-3.711-7.392-4.546-11.672
            c-0.836-4.281-0.818-8.77-0.337-12.689c0.48-3.918,1.421-7.265,3.359-10.535c1.939-3.271,4.874-6.465,7.877-8.591
            c3.003-2.125,6.073-3.181,9.104-3.881c3.033-0.7,6.027-1.044,8.95-1.102c2.922-0.058,5.772,0.168,8.583,1.106
            c2.812,0.939,5.584,2.59,8.035,4.454c2.452,1.863,4.582,3.939,6.46,6.158c1.878,2.218,3.508,4.576,4.496,6.791
            c0.989,2.214,1.336,4.282,1.433,6.635c0.099,2.352-0.057,4.988-0.53,7.195c-0.471,2.208-1.265,3.986-2.519,5.621
            c-1.253,1.634-2.971,3.124-4.899,4.22c-1.93,1.097-4.07,1.799-6.639,2.145c-2.567,0.345-5.562,0.333-8.053-0.142
            c-2.492-0.473-4.484-1.41-5.906-2.59c-1.419-1.183-2.269-2.611-2.863-5.145c-0.596-2.533-0.937-6.17-0.923-9.056
            c0.012-2.886,0.377-5.023,0.989-6.518c0.614-1.494,1.471-2.346,2.472-3.018c1-0.674,2.144-1.169,2.965-1.699
            c0.824-0.531,1.325-1.099,1.578-2.096c0.254-0.997,0.26-2.422-0.02-3.528c-0.28-1.106-0.848-1.894-2.021-2.432
            c-1.173-0.541-2.954-0.833-4.986-0.841c-2.031-0.009-4.313,0.266-6.597,1.005c-2.283,0.738-4.57,1.94-6.466,3.5
            c-1.896,1.56-3.401,3.478-4.729,5.932c-1.33,2.454-2.481,5.442-2.958,8.255c-0.477,2.814-0.274,5.451,0.212,8.377
            c0.487,2.924,1.257,6.135,2.563,8.921c1.308,2.785,3.149,5.145,5.744,7.223c2.592,2.079,5.934,3.875,9.352,4.887
            c3.415,1.012,6.907,1.242,10.399,1.291c3.492,0.05,6.984-0.076,10.125-0.918c3.14-0.841,5.925-2.397,8.642-4.311
            c2.718-1.913,5.363-4.182,7.656-6.845c2.292-2.663,4.229-5.718,5.384-8.814c1.152-3.095,1.523-6.231,1.61-9.866
            c0.087-3.635-0.109-7.769-0.982-11.907c-0.874-4.138-2.424-8.279-4.616-12.707c-2.189-4.429-5.021-9.144-7.816-13.541
            c-2.797-4.396-5.56-8.47-8.5-12.153c-2.942-3.683-6.065-6.976-9.471-10.481c-3.407-3.508-7.096-7.229-11.746-11.634
            c-4.649-4.403-10.26-9.488-14.875-13.427c-4.615-3.94-8.239-6.736-12.039-9.638c-3.802-2.903-7.779-5.914-12.329-9.142
            c-4.547-3.227-9.665-6.67-14.285-9.683c-4.62-3.013-8.742-5.597-13.113-8.575c-4.37-2.977-8.989-6.346-13.163-9.825
            c-4.175-3.479-7.904-7.068-11.438-10.485c-3.532-3.417-6.867-6.666-9.567-9.708c-2.7-3.043-4.767-5.881-6.458-8.717
            c-1.69-2.837-3.007-5.67-3.774-8.186c-0.768-2.515-0.989-4.709-0.659-8.056c0.333-3.348,1.219-7.847,5.428-12.712
            c4.884-4.19,9.387-5.055,12.735-5.372c3.35-0.317,5.543-0.087,8.053,0.692c2.512,0.779,5.34,2.107,8.169,3.811
            c2.829,1.703,5.658,3.781,8.689,6.494c3.032,2.714,6.264,6.063,9.667,9.609c3.403,3.547,6.975,7.293,10.436,11.482
            c3.461,4.19,6.81,8.821,9.77,13.205c2.958,4.384,5.523,8.518,8.517,13.151c2.994,4.633,6.415,9.765,9.623,14.326
            c3.206,4.562,6.199,8.553,9.087,12.366c2.886,3.813,5.666,7.449,9.587,12.081c3.921,4.633,8.981,10.264,13.363,14.933
            c4.384,4.668,8.09,8.375,11.583,11.795c3.493,3.422,6.77,6.56,10.441,9.516c3.671,2.958,7.734,5.738,12.117,8.553
            c4.384,2.815,9.088,5.667,13.507,7.875c4.419,2.21,8.553,3.778,12.686,4.669c4.135,0.89,8.27,1.104,11.905,1.033
            c3.635-0.072,6.771-0.427,9.871-1.569c3.102-1.141,6.167-3.065,8.839-5.346s4.954-4.918,6.879-7.627
            c1.924-2.708,3.492-5.487,4.346-8.624c0.854-3.136,0.999-6.629,0.963-10.121c-0.036-3.493-0.25-6.985-1.247-10.407
            c-0.999-3.42-2.78-6.771-4.848-9.372c-2.067-2.603-4.419-4.456-7.199-5.773c-2.779-1.319-5.987-2.102-8.909-2.601
            c-2.921-0.499-5.56-0.712-8.375-0.25c-2.816,0.464-5.81,1.604-8.268,2.923c-2.46,1.319-4.384,2.815-5.952,4.704
            c-1.568,1.889-2.779,4.169-3.529,6.45c-0.747,2.282-1.033,4.563-1.033,6.594s0.286,3.813,0.82,4.989
            c0.536,1.176,1.318,1.746,2.424,2.031c1.105,0.286,2.529,0.285,3.527,0.036c0.999-0.25,1.569-0.749,2.104-1.569
            c0.534-0.819,1.033-1.96,1.711-2.958c0.675-0.998,1.531-1.853,3.028-2.459c1.497-0.605,3.635-0.962,6.522-0.962
            c2.886,0,6.521,0.357,9.051,0.962c2.532,0.606,3.957,1.461,5.132,2.886c1.177,1.426,2.102,3.421,2.565,5.917
            c0.464,2.494,0.464,5.488,0.107,8.053c-0.358,2.566-1.07,4.704-2.174,6.629c-1.104,1.925-2.602,3.635-4.241,4.882
            c-1.638,1.248-3.421,2.031-5.631,2.495c-2.208,0.464-4.846,0.605-7.198,0.499c-2.353-0.107-4.419-0.464-6.629-1.461
            c-2.209-0.999-4.563-2.638-6.77-4.526c-2.21-1.889-4.277-4.027-6.129-6.486c-1.854-2.459-3.493-5.239-4.42-8.054
            c-0.925-2.815-1.139-5.666-1.069-8.588c0.072-2.922,0.427-5.916,1.142-8.945c0.714-3.03,1.782-6.094,3.92-9.088
            c2.139-2.994,5.346-5.916,8.623-7.84c3.28-1.924,6.629-2.851,10.55-3.314c3.919-0.464,8.41-0.464,12.686,0.393
            c4.276,0.854,8.339,2.566,11.655,4.597c3.313,2.032,5.879,4.384,7.697,6.771c1.816,2.388,2.886,4.811,3.772,7.15
            c0.887,2.338,1.59,4.591,2.001,6.915c0.412,2.324,0.534,4.72,0.594,6.693C298.738,188.858,298.738,190.408,298.709,192.294z
             M323.529,306.812c12.403,0,22.458,10.055,22.458,22.459c0,12.403-10.055,22.459-22.458,22.459
            c-12.404,0-22.459-10.056-22.459-22.459C301.07,316.866,311.125,306.812,323.529,306.812z M301.914,419.264
            c-0.41-2.323-0.531-4.717-0.592-6.691c-0.06-1.974-0.06-3.523-0.031-5.409c0.029-1.887,0.089-4.111,0.46-6.283
            s1.056-4.291,2.554-7.447c1.494-3.157,3.801-7.351,5.965-10.546c2.166-3.196,4.189-5.397,6.435-7.024
            c2.243-1.627,4.708-2.684,6.996-3.52c2.288-0.835,4.399-1.451,7.259-1.717c2.859-0.263,6.468-0.176,9.944,0.133
            c3.475,0.309,6.819,0.836,11.076,2.008c4.258,1.173,9.427,2.991,13.513,4.795c4.086,1.805,7.086,3.594,10.316,5.523
            c3.228,1.932,6.684,4.002,9.202,5.505c2.521,1.502,4.106,2.434,5.024,2.952c0.917,0.521,1.167,0.626,1.393,0.662
            c0.226,0.037,0.426,0.001,0.557-0.106c0.133-0.109,0.199-0.291,0.519-0.923c0.633-0.318,0.815-0.384,0.926-0.514
            c0.106-0.134,0.143-0.332,0.108-0.557c-0.036-0.225-0.141-0.476-0.656-1.396c-0.517-0.922-1.442-2.509-2.932-5.036
            c-1.491-2.526-3.547-5.992-5.465-9.228c-1.915-3.236-3.691-6.247-5.479-10.341c-1.786-4.092-3.581-9.271-4.736-13.533
            c-1.154-4.259-1.667-7.606-1.96-11.084c-0.293-3.476-0.367-7.086-0.091-9.942c0.276-2.859,0.903-4.969,1.748-7.254
            c0.846-2.283,1.912-4.742,3.55-6.98c1.638-2.236,3.847-4.251,7.051-6.402c3.205-2.152,7.408-4.44,10.57-5.922
            c3.164-1.482,5.287-2.159,7.46-2.521c2.174-0.363,4.397-0.412,6.283-0.432c1.887-0.021,3.439-0.015,5.41,0.054
            c1.972,0.069,4.368,0.2,6.689,0.622c2.323,0.423,4.571,1.135,6.906,2.032c2.336,0.896,4.754,1.977,7.135,3.803
            c2.378,1.828,4.719,4.404,6.736,7.727c2.017,3.323,3.711,7.395,4.546,11.675c0.839,4.279,0.818,8.77,0.34,12.688
            c-0.48,3.918-1.421,7.266-3.36,10.535c-1.938,3.271-4.875,6.465-7.879,8.591c-3.001,2.124-6.07,3.182-9.103,3.882
            c-3.032,0.698-6.027,1.042-8.949,1.102c-2.924,0.059-5.773-0.167-8.584-1.107c-2.811-0.938-5.585-2.591-8.035-4.452
            c-2.45-1.864-4.58-3.94-6.458-6.159c-1.881-2.217-3.511-4.576-4.499-6.79c-0.988-2.213-1.336-4.282-1.433-6.635
            c-0.098-2.352,0.057-4.988,0.53-7.196c0.472-2.206,1.264-3.985,2.519-5.62c1.254-1.635,2.971-3.122,4.901-4.22
            c1.928-1.096,4.069-1.8,6.639-2.146c2.565-0.345,5.56-0.332,8.053,0.142c2.492,0.474,4.483,1.407,5.904,2.592
            c1.422,1.182,2.27,2.61,2.865,5.144c0.594,2.534,0.935,6.171,0.924,9.057c-0.015,2.888-0.38,5.023-0.992,6.519
            c-0.611,1.494-1.47,2.346-2.471,3.018c-1.001,0.673-2.143,1.167-2.967,1.699c-0.821,0.529-1.321,1.097-1.576,2.096
            c-0.253,0.994-0.261,2.422,0.021,3.525c0.279,1.108,0.846,1.894,2.021,2.432c1.173,0.542,2.954,0.833,4.984,0.843
            c2.033,0.007,4.314-0.268,6.6-1.005c2.283-0.739,4.569-1.941,6.464-3.501c1.896-1.561,3.4-3.479,4.73-5.932
            c1.328-2.453,2.483-5.441,2.958-8.255s0.272-5.452-0.214-8.376c-0.486-2.925-1.257-6.137-2.563-8.92
            c-1.309-2.786-3.151-5.147-5.744-7.225c-2.592-2.079-5.934-3.875-9.351-4.886c-3.417-1.013-6.909-1.242-10.4-1.292
            c-3.492-0.051-6.986,0.077-10.125,0.918c-3.14,0.843-5.927,2.398-8.645,4.312c-2.715,1.913-5.362,4.183-7.653,6.845
            c-2.293,2.664-4.231,5.719-5.385,8.814s-1.522,6.231-1.61,9.865c-0.087,3.635,0.108,7.77,0.983,11.907
            c0.871,4.138,2.422,8.279,4.613,12.707s5.022,9.146,7.817,13.54c2.797,4.396,5.559,8.471,8.501,12.153
            c2.942,3.684,6.063,6.977,9.469,10.483c3.406,3.507,7.098,7.229,11.748,11.632c4.649,4.403,10.258,9.488,14.873,13.428
            c4.618,3.94,8.239,6.735,12.041,9.639c3.803,2.902,7.779,5.914,12.327,9.141c4.548,3.228,9.666,6.671,14.285,9.685
            c4.621,3.013,8.741,5.597,13.112,8.573c4.372,2.977,8.99,6.347,13.166,9.826c4.174,3.479,7.903,7.065,11.437,10.484
            c3.531,3.417,6.867,6.665,9.567,9.707c2.701,3.043,4.768,5.882,6.457,8.716c1.691,2.839,3.007,5.672,3.774,8.188
            c0.768,2.514,0.991,4.709,0.659,8.057c-0.332,3.346-1.217,7.846-5.428,12.711c-4.883,4.188-9.386,5.056-12.735,5.372
            c-3.348,0.318-5.544,0.086-8.054-0.692c-2.511-0.779-5.34-2.108-8.169-3.811c-2.829-1.703-5.658-3.782-8.688-6.496
            c-3.032-2.713-6.267-6.062-9.669-9.608c-3.402-3.549-6.975-7.292-10.435-11.482c-3.462-4.189-6.811-8.822-9.769-13.206
            c-2.959-4.384-5.523-8.517-8.518-13.15c-2.994-4.632-6.414-9.764-9.623-14.325c-3.207-4.563-6.2-8.554-9.087-12.366
            c-2.887-3.815-5.667-7.449-9.586-12.083c-3.921-4.632-8.982-10.264-13.365-14.931c-4.383-4.668-8.091-8.375-11.583-11.797
            c-3.492-3.42-6.771-6.557-10.441-9.516c-3.669-2.959-7.731-5.737-12.116-8.552c-4.383-2.816-9.087-5.669-13.506-7.877
            c-4.419-2.21-8.552-3.777-12.688-4.668c-4.135-0.891-8.268-1.105-11.902-1.033c-3.636,0.071-6.771,0.427-9.872,1.567
            c-3.099,1.141-6.165,3.064-8.837,5.345c-2.674,2.28-4.953,4.918-6.879,7.626c-1.926,2.71-3.492,5.488-4.348,8.625
            s-0.998,6.629-0.961,10.122c0.033,3.491,0.248,6.984,1.246,10.406c0.997,3.419,2.779,6.77,4.847,9.372
            c2.066,2.601,4.419,4.455,7.198,5.773c2.779,1.319,5.987,2.103,8.911,2.602c2.922,0.5,5.56,0.714,8.373,0.25
            c2.815-0.464,5.81-1.604,8.27-2.924c2.458-1.316,4.383-2.814,5.952-4.703c1.565-1.889,2.779-4.17,3.527-6.449
            c0.749-2.281,1.033-4.562,1.033-6.592c0-2.033-0.284-3.816-0.82-4.99c-0.534-1.177-1.318-1.747-2.424-2.032
            c-1.104-0.285-2.529-0.285-3.527-0.034c-0.997,0.248-1.569,0.747-2.103,1.566c-0.536,0.819-1.033,1.961-1.712,2.958
            c-0.676,0.998-1.532,1.854-3.029,2.459c-1.497,0.606-3.635,0.962-6.52,0.962c-2.888,0-6.523-0.355-9.054-0.962
            c-2.529-0.604-3.955-1.461-5.132-2.887c-1.176-1.425-2.103-3.42-2.565-5.913c-0.464-2.496-0.464-5.49-0.106-8.056
            c0.356-2.565,1.07-4.703,2.173-6.628c1.104-1.925,2.603-3.635,4.242-4.883c1.639-1.248,3.422-2.031,5.631-2.495
            s4.846-0.606,7.198-0.5s4.42,0.464,6.629,1.462c2.21,0.997,4.563,2.637,6.772,4.525c2.208,1.89,4.276,4.027,6.129,6.486
            c1.853,2.46,3.492,5.238,4.419,8.055c0.927,2.813,1.141,5.667,1.07,8.587c-0.07,2.924-0.428,5.917-1.141,8.945
            c-0.713,3.029-1.782,6.095-3.921,9.087c-2.138,2.994-5.346,5.916-8.624,7.841s-6.63,2.851-10.549,3.315
            c-3.921,0.463-8.411,0.463-12.688-0.394c-4.277-0.855-8.34-2.564-11.652-4.596c-3.316-2.032-5.881-4.383-7.697-6.771
            c-1.819-2.387-2.887-4.811-3.774-7.147C303.031,423.843,302.328,421.589,301.914,419.264z M572.134,570.694
            c-7.681,0.066-14.444,0.033-24.622-0.168c-10.177-0.202-23.768-0.569-33.229-0.804s-14.795-0.334-22.052-0.588
            c-7.254-0.254-16.431-0.662-27.966-1.511c-11.536-0.852-25.43-2.143-36.727-3.594c-11.296-1.451-19.997-3.063-27.784-4.459
            c-7.787-1.396-14.66-2.578-23.63-4.917c-8.969-2.338-20.033-5.832-28.225-8.685s-13.509-5.063-18.022-7.179
            c-4.514-2.115-8.22-4.138-10.785-5.73c-2.564-1.591-3.988-2.752-5.506-4.269c-1.516-1.517-3.127-3.389-4.456-5.057
            c-1.329-1.666-2.378-3.126-3.146-4.887c-0.768-1.76-1.256-3.819-1.35-5.878c-0.093-2.06,0.207-4.12,1.369-6.185
            c1.16-2.064,3.185-4.133,4.936-5.95c1.752-1.816,3.23-3.383,5.059-4.558c1.826-1.174,4.002-1.956,6.48-2.392
            c2.48-0.437,5.264-0.523,8.482,0.564c3.219,1.089,6.872,3.351,11.615,6.525c4.74,3.175,10.569,7.264,17.964,12.179
            c7.395,4.916,16.355,10.657,25.925,15.834c9.569,5.176,19.749,9.787,30.755,13.702c11.003,3.916,22.837,7.135,34.275,9.744
            c11.44,2.61,22.489,4.611,33.842,6.265c11.354,1.652,23.011,2.957,36.084,3.871c13.07,0.912,27.557,1.435,44.26,1.695
            c-1.045-9.917-1.175-16.965-1.283-24.229s-0.196-14.746-0.63-22.141c-0.436-7.395-1.218-14.702-2.306-23.272
            c-1.088-8.569-2.48-18.4-3.915-26.665c-1.437-8.265-2.915-14.964-4.438-21.401c-1.523-6.438-3.09-12.615-5.004-18.836
            c-1.913-6.219-4.175-12.483-6.507-18.763c-2.332-6.277-4.734-12.571-7.021-17.773c-2.288-5.204-4.462-9.319-6.772-13.435
            c-2.311-4.114-4.763-8.229-7.374-12.229c-2.612-3.999-5.387-7.883-8.393-12.044c-3.005-4.16-6.24-8.599-8.691-12.159
            c-2.45-3.561-4.115-6.242-5.316-8.67c-1.203-2.427-1.943-4.6-2.358-7.051c-0.416-2.45-0.509-5.178,0.115-7.606
            c0.624-2.428,1.966-4.553,3.768-6.888c1.804-2.335,4.069-4.878,6.035-6.681c1.964-1.804,3.629-2.867,5.455-3.399
            c1.827-0.531,3.815-0.531,5.688-0.278c1.872,0.255,3.63,0.764,5.594,1.54c1.964,0.775,4.138,1.82,6.682,4.397
            c2.544,2.576,5.462,6.688,8.114,11.527c2.652,4.841,5.038,10.409,7.69,17.237c2.649,6.829,5.568,14.918,7.89,22.542
            c2.32,7.625,4.044,14.785,5.769,23.206c1.722,8.419,3.447,18.101,4.842,27.491c1.393,9.391,2.46,18.494,3.76,32.44
            c1.301,13.947,2.837,32.738,5.059,104.102C572.134,553.721,572.134,562.207,572.134,570.694z M572.134,53.632
            c-2.222,71.363-3.758,90.155-5.059,104.103c-1.3,13.947-2.367,23.049-3.76,32.439c-1.395,9.391-3.119,19.071-4.842,27.491
            c-1.725,8.419-3.448,15.581-5.769,23.206c-2.321,7.625-5.24,15.713-7.889,22.542c-2.653,6.828-5.04,12.397-7.691,17.238
            c-2.652,4.84-5.57,8.95-8.114,11.528c-2.544,2.577-4.717,3.621-6.681,4.397c-1.965,0.776-3.723,1.285-5.595,1.539
            c-1.872,0.255-3.86,0.255-5.688-0.277c-1.826-0.532-3.49-1.595-5.455-3.397c-1.966-1.804-4.23-4.346-6.034-6.681
            c-1.803-2.335-3.144-4.461-3.769-6.889c-0.623-2.427-0.53-5.155-0.115-7.605c0.416-2.451,1.155-4.624,2.357-7.051
            c1.203-2.428,2.867-5.109,5.317-8.669c2.451-3.56,5.687-7.998,8.692-12.159c3.005-4.161,5.779-8.045,8.393-12.044
            c2.611-3.999,5.062-8.114,7.373-12.229c2.313-4.115,4.484-8.229,6.771-13.433c2.288-5.204,4.689-11.496,7.021-17.774
            s4.594-12.542,6.507-18.763c1.915-6.22,3.48-12.397,5.004-18.835c1.521-6.438,3.002-13.137,4.437-21.401
            c1.437-8.264,2.828-18.096,3.916-26.665s1.87-15.877,2.306-23.272c0.435-7.396,0.521-14.876,0.63-22.141s0.239-14.312,1.284-24.229
            c-16.704,0.261-31.19,0.784-44.261,1.696c-13.071,0.914-24.729,2.219-36.084,3.871c-11.353,1.654-22.4,3.654-33.842,6.265
            c-11.439,2.61-23.271,5.83-34.276,9.744c-11.005,3.915-21.185,8.526-30.754,13.703s-18.53,10.919-25.925,15.833
            c-7.395,4.916-13.224,9.005-17.964,12.18c-4.742,3.175-8.396,5.438-11.615,6.524c-3.218,1.087-6.002,1.001-8.482,0.565
            c-2.479-0.435-4.654-1.218-6.48-2.392c-1.827-1.174-3.307-2.741-5.059-4.558c-1.752-1.817-3.774-3.886-4.936-5.951
            c-1.162-2.064-1.461-4.124-1.369-6.183c0.095-2.06,0.582-4.12,1.35-5.88c0.767-1.76,1.816-3.221,3.146-4.887
            c1.33-1.667,2.94-3.539,4.456-5.056c1.518-1.517,2.941-2.678,5.506-4.269c2.565-1.592,6.273-3.614,10.785-5.731
            c4.514-2.116,9.83-4.325,18.022-7.178c8.191-2.852,19.256-6.346,28.225-8.685c8.969-2.338,15.844-3.519,23.63-4.916
            c7.787-1.396,16.487-3.007,27.785-4.459c11.298-1.451,25.19-2.744,36.726-3.593s20.711-1.257,27.966-1.512
            c7.257-0.254,12.59-0.354,22.052-0.587c9.462-0.233,23.054-0.602,33.23-0.804c10.178-0.201,16.94-0.234,24.622-0.168
            C572.134,36.659,572.134,45.146,572.134,53.632z"/>

    <path fill="#FFFFFF" stroke="#000000" stroke-width="1.5" stroke-miterlimit="10" d="M71.836,527.421
            c-4.208-4.865-5.094-9.365-5.427-12.711c-0.332-3.348-0.11-5.543,0.659-8.057c0.768-2.515,2.084-5.349,3.774-8.188
            c1.692-2.834,3.758-5.673,6.458-8.715c2.7-3.043,6.035-6.291,9.567-9.708c3.532-3.419,7.263-7.005,11.438-10.484
            s8.793-6.85,13.163-9.826c4.371-2.977,8.495-5.561,13.113-8.573c4.621-3.014,9.738-6.457,14.285-9.685
            c4.549-3.227,8.527-6.238,12.329-9.141c3.8-2.903,7.424-5.698,12.04-9.638c4.615-3.94,10.226-9.025,14.875-13.429
            c4.649-4.403,8.339-8.126,11.745-11.631c3.407-3.508,6.528-6.801,9.471-10.484c2.94-3.683,5.703-7.757,8.5-12.153
            c2.797-4.395,5.628-9.111,7.816-13.541c2.192-4.427,3.741-8.569,4.616-12.706c0.872-4.138,1.069-8.271,0.982-11.907
            c-0.087-3.634-0.458-6.769-1.61-9.864c-1.154-3.096-3.092-6.152-5.384-8.815c-2.293-2.663-4.939-4.933-7.656-6.845
            s-5.502-3.47-8.642-4.312c-3.141-0.841-6.634-0.97-10.125-0.919c-3.493,0.052-6.984,0.281-10.4,1.293
            c-3.417,1.012-6.759,2.807-9.352,4.886c-2.594,2.078-4.436,4.439-5.743,7.224c-1.308,2.785-2.078,5.995-2.563,8.921
            c-0.485,2.925-0.689,5.563-0.212,8.375c0.475,2.813,1.628,5.802,2.958,8.256c1.328,2.454,2.833,4.371,4.729,5.932
            s4.182,2.762,6.466,3.502c2.284,0.737,4.567,1.012,6.597,1.003c2.033-0.009,3.813-0.301,4.986-0.841
            c1.173-0.54,1.741-1.324,2.021-2.432c0.28-1.104,0.274-2.531,0.02-3.526c-0.253-0.998-0.754-1.566-1.578-2.096
            c-0.822-0.533-1.963-1.027-2.965-1.699c-1.001-0.673-1.858-1.524-2.472-3.018c-0.613-1.495-0.979-3.632-0.989-6.519
            c-0.014-2.887,0.328-6.522,0.923-9.056c0.594-2.532,1.444-3.962,2.863-5.145c1.422-1.184,3.413-2.117,5.906-2.592
            c2.492-0.473,5.486-0.486,8.053-0.141c2.567,0.344,4.708,1.048,6.639,2.146c1.928,1.096,3.646,2.585,4.899,4.219
            c1.255,1.634,2.047,3.413,2.519,5.621c0.473,2.207,0.627,4.845,0.53,7.196s-0.443,4.421-1.433,6.634
            c-0.988,2.215-2.617,4.573-4.497,6.79c-1.878,2.219-4.008,4.294-6.46,6.158c-2.45,1.863-5.223,3.514-8.035,4.453
            c-2.812,0.94-5.662,1.165-8.583,1.106c-2.923-0.059-5.917-0.401-8.95-1.101c-3.032-0.7-6.101-1.757-9.104-3.882
            c-3.003-2.125-5.938-5.32-7.877-8.591c-1.938-3.271-2.879-6.617-3.359-10.535s-0.5-8.407,0.337-12.688
            c0.836-4.28,2.529-8.352,4.546-11.674c2.017-3.323,4.358-5.899,6.739-7.727c2.38-1.828,4.799-2.908,7.131-3.804
            c2.335-0.896,4.585-1.609,6.907-2.032c2.323-0.421,4.717-0.553,6.691-0.622c1.972-0.069,3.522-0.076,5.408-0.054
            c1.889,0.02,4.112,0.069,6.284,0.432c2.174,0.361,4.298,1.037,7.459,2.521c3.163,1.48,7.365,3.77,10.57,5.921
            c3.205,2.15,5.416,4.165,7.052,6.401c1.636,2.24,2.704,4.697,3.55,6.982c0.846,2.284,1.471,4.394,1.747,7.253
            c0.276,2.856,0.205,6.466-0.089,9.942c-0.293,3.479-0.806,6.824-1.962,11.084c-1.154,4.263-2.948,9.44-4.735,13.533
            c-1.786,4.095-3.563,7.104-5.479,10.342c-1.917,3.235-3.973,6.7-5.464,9.227c-1.491,2.526-2.417,4.114-2.931,5.035
            c-0.517,0.92-0.623,1.172-0.657,1.396c-0.036,0.226,0,0.424,0.109,0.557c0.107,0.131,0.292,0.195,0.924,0.513
            c0.321,0.632,0.385,0.814,0.518,0.924c0.133,0.107,0.332,0.143,0.557,0.106c0.225-0.035,0.477-0.143,1.394-0.661
            c0.917-0.521,2.501-1.452,5.022-2.954c2.521-1.501,5.976-3.572,9.205-5.503c3.228-1.93,6.229-3.72,10.316-5.525
            c4.085-1.803,9.255-3.62,13.511-4.793c4.258-1.174,7.602-1.699,11.078-2.009c3.476-0.308,7.083-0.396,9.942-0.132
            c2.861,0.265,4.973,0.88,7.26,1.716c2.288,0.836,4.751,1.893,6.996,3.521c2.242,1.627,4.267,3.827,6.433,7.024
            c2.165,3.195,4.471,7.387,5.968,10.546c1.495,3.155,2.18,5.273,2.553,7.446c0.371,2.172,0.429,4.396,0.458,6.283
            c0.028,1.886,0.028,3.436-0.03,5.41c-0.06,1.974-0.182,4.367-0.594,6.691c-0.413,2.324-1.115,4.578-2.002,6.917
            c-0.885,2.337-1.955,4.761-3.771,7.147c-1.819,2.389-4.384,4.74-7.698,6.771c-3.315,2.031-7.377,3.74-11.654,4.597
            c-4.276,0.855-8.768,0.855-12.687,0.393c-3.921-0.464-7.27-1.391-10.549-3.315c-3.278-1.925-6.485-4.847-8.624-7.841
            c-2.138-2.992-3.207-6.058-3.92-9.087c-0.713-3.028-1.07-6.022-1.141-8.945c-0.07-2.921,0.143-5.773,1.069-8.588
            c0.927-2.815,2.565-5.594,4.42-8.054c1.852-2.459,3.919-4.597,6.129-6.485c2.208-1.889,4.561-3.529,6.771-4.526
            c2.21-0.999,4.277-1.354,6.629-1.462c2.353-0.106,4.989,0.036,7.199,0.501c2.209,0.463,3.993,1.247,5.631,2.494
            c1.638,1.248,3.135,2.957,4.241,4.883c1.105,1.924,1.816,4.063,2.174,6.628c0.355,2.565,0.355,5.561-0.108,8.056
            c-0.464,2.493-1.39,4.489-2.565,5.913c-1.175,1.427-2.601,2.282-5.132,2.887c-2.53,0.606-6.166,0.962-9.051,0.962
            c-2.887,0-5.027-0.355-6.522-0.962c-1.497-0.604-2.352-1.461-3.028-2.459c-0.677-0.996-1.177-2.139-1.71-2.958
            c-0.536-0.819-1.105-1.318-2.105-1.566c-0.997-0.251-2.422-0.251-3.527,0.034s-1.888,0.855-2.424,2.032
            c-0.534,1.175-0.819,2.958-0.819,4.99c0,2.03,0.286,4.311,1.033,6.592c0.749,2.279,1.96,4.562,3.53,6.449
            c1.567,1.891,3.492,3.387,5.952,4.704c2.458,1.318,5.452,2.459,8.267,2.923s5.454,0.25,8.375-0.249
            c2.922-0.5,6.129-1.282,8.909-2.603c2.779-1.319,5.132-3.172,7.198-5.773c2.069-2.602,3.849-5.952,4.849-9.372
            c0.997-3.422,1.211-6.914,1.247-10.406s-0.107-6.985-0.963-10.121c-0.856-3.137-2.422-5.916-4.347-8.625
            c-1.924-2.709-4.207-5.346-6.879-7.627c-2.672-2.281-5.737-4.205-8.838-5.345c-3.1-1.141-6.236-1.496-9.871-1.568
            c-3.635-0.07-7.77,0.144-11.904,1.034c-4.133,0.891-8.267,2.458-12.686,4.668c-4.419,2.209-9.123,5.061-13.507,7.877
            c-4.382,2.813-8.445,5.594-12.117,8.553c-3.671,2.958-6.949,6.095-10.441,9.516c-3.493,3.421-7.199,7.127-11.583,11.796
            c-4.382,4.667-9.442,10.299-13.363,14.932c-3.921,4.632-6.701,8.267-9.587,12.082c-2.887,3.813-5.881,7.804-9.087,12.366
            c-3.208,4.562-6.629,9.692-9.623,14.325c-2.994,4.635-5.56,8.768-8.517,13.15c-2.96,4.383-6.31,9.017-9.77,13.206
            c-3.461,4.19-7.034,7.935-10.436,11.482c-3.403,3.547-6.635,6.896-9.667,9.608c-3.031,2.715-5.861,4.793-8.69,6.496
            c-2.829,1.702-5.658,3.03-8.169,3.811c-2.512,0.779-4.704,1.011-8.053,0.692C81.224,532.477,76.72,531.608,71.836,527.421z"/>
    <path fill="#FFFFFF" stroke="#000000" stroke-width="1.5" stroke-miterlimit="10" d="M528.164,527.421
            c4.21-4.865,5.096-9.365,5.428-12.711c0.333-3.348,0.108-5.543-0.659-8.057c-0.769-2.515-2.083-5.349-3.774-8.188
            c-1.689-2.834-3.756-5.673-6.457-8.715c-2.7-3.043-6.036-6.291-9.567-9.708c-3.532-3.419-7.263-7.005-11.438-10.484
            s-8.793-6.85-13.165-9.826c-4.371-2.977-8.492-5.561-13.113-8.573c-4.619-3.014-9.736-6.457-14.284-9.685
            c-4.547-3.227-8.525-6.238-12.327-9.141c-3.802-2.903-7.424-5.698-12.041-9.638c-4.615-3.94-10.224-9.025-14.873-13.429
            c-4.65-4.403-8.342-8.126-11.748-11.631c-3.406-3.508-6.526-6.801-9.469-10.484c-2.942-3.683-5.705-7.757-8.502-12.153
            c-2.795-4.395-5.626-9.111-7.816-13.541c-2.191-4.427-3.741-8.569-4.613-12.706c-0.874-4.138-1.07-8.271-0.983-11.907
            c0.088-3.634,0.457-6.769,1.61-9.864s3.091-6.152,5.384-8.815c2.292-2.663,4.94-4.933,7.654-6.845
            c2.718-1.912,5.505-3.47,8.645-4.312c3.139-0.841,6.632-0.97,10.125-0.919c3.492,0.052,6.983,0.281,10.4,1.293
            s6.76,2.807,9.351,4.886c2.594,2.078,4.436,4.439,5.744,7.224c1.306,2.785,2.076,5.995,2.563,8.921
            c0.486,2.925,0.688,5.563,0.214,8.375c-0.474,2.813-1.63,5.802-2.958,8.256c-1.33,2.454-2.834,4.371-4.73,5.932
            c-1.895,1.561-4.18,2.762-6.464,3.502c-2.284,0.737-4.566,1.012-6.6,1.003c-2.03-0.009-3.812-0.301-4.984-0.841
            c-1.175-0.54-1.741-1.324-2.021-2.432c-0.282-1.104-0.274-2.531-0.021-3.526c0.255-0.998,0.755-1.566,1.576-2.096
            c0.824-0.533,1.965-1.027,2.967-1.699c1.001-0.673,1.859-1.524,2.471-3.018c0.613-1.495,0.979-3.632,0.992-6.519
            c0.011-2.887-0.33-6.522-0.924-9.056c-0.596-2.532-1.443-3.962-2.865-5.145c-1.421-1.184-3.411-2.117-5.904-2.592
            c-2.493-0.473-5.487-0.486-8.053-0.141c-2.568,0.344-4.71,1.048-6.639,2.146c-1.93,1.096-3.647,2.585-4.901,4.219
            c-1.255,1.634-2.046,3.413-2.519,5.621c-0.475,2.208-0.627,4.845-0.53,7.196s0.444,4.421,1.433,6.634
            c0.988,2.215,2.617,4.573,4.499,6.79c1.878,2.219,4.008,4.294,6.458,6.158c2.45,1.863,5.225,3.514,8.035,4.453
            c2.811,0.94,5.661,1.165,8.584,1.106s5.917-0.401,8.949-1.101c3.033-0.7,6.103-1.757,9.103-3.882
            c3.004-2.125,5.94-5.32,7.878-8.591c1.94-3.271,2.881-6.617,3.361-10.535c0.479-3.918,0.5-8.407-0.34-12.688
            c-0.835-4.28-2.529-8.352-4.546-11.674c-2.018-3.323-4.358-5.899-6.736-7.727c-2.381-1.828-4.799-2.908-7.135-3.804
            c-2.335-0.896-4.582-1.609-6.906-2.032c-2.321-0.421-4.718-0.553-6.689-0.622c-1.971-0.069-3.523-0.076-5.41-0.054
            c-1.886,0.02-4.109,0.069-6.283,0.432c-2.173,0.361-4.297,1.037-7.46,2.521c-3.162,1.48-7.365,3.77-10.57,5.921
            c-3.204,2.15-5.413,4.165-7.051,6.401c-1.638,2.24-2.704,4.697-3.55,6.982c-0.846,2.284-1.472,4.394-1.748,7.253
            c-0.276,2.856-0.202,6.466,0.091,9.942c0.294,3.479,0.806,6.824,1.96,11.084c1.154,4.263,2.95,9.44,4.736,13.533
            c1.788,4.095,3.564,7.104,5.479,10.342c1.917,3.235,3.974,6.7,5.465,9.227c1.489,2.526,2.415,4.114,2.932,5.035
            c0.515,0.92,0.62,1.172,0.656,1.396c0.034,0.226-0.002,0.424-0.109,0.557c-0.109,0.131-0.292,0.195-0.925,0.513
            c-0.319,0.632-0.386,0.814-0.519,0.924c-0.131,0.107-0.331,0.143-0.556,0.106c-0.226-0.035-0.476-0.143-1.395-0.661
            c-0.916-0.521-2.503-1.452-5.023-2.954c-2.519-1.501-5.975-3.572-9.202-5.503c-3.23-1.93-6.231-3.72-10.317-5.525
            c-4.085-1.803-9.255-3.62-13.512-4.793c-4.257-1.174-7.603-1.699-11.076-2.009c-3.477-0.308-7.084-0.396-9.944-0.132
            c-2.859,0.265-4.971,0.88-7.259,1.716c-2.287,0.836-4.752,1.893-6.996,3.521c-2.244,1.627-4.268,3.827-6.434,7.024
            c-2.165,3.195-4.472,7.387-5.967,10.546c-1.497,3.155-2.182,5.273-2.553,7.446c-0.371,2.172-0.43,4.396-0.461,6.283
            c-0.027,1.886-0.027,3.436,0.033,5.41c0.06,1.974,0.182,4.367,0.592,6.691c0.412,2.324,1.115,4.578,2.001,6.917
            c0.888,2.337,1.955,4.761,3.774,7.147c1.816,2.389,4.381,4.74,7.697,6.771c3.313,2.031,7.376,3.74,11.652,4.597
            c4.276,0.855,8.767,0.855,12.688,0.393c3.919-0.464,7.271-1.391,10.549-3.315c3.279-1.925,6.486-4.847,8.624-7.841
            c2.139-2.992,3.209-6.058,3.921-9.087c0.712-3.028,1.07-6.022,1.141-8.945c0.07-2.921-0.143-5.773-1.07-8.588
            c-0.926-2.815-2.566-5.594-4.419-8.054c-1.853-2.459-3.922-4.597-6.129-6.485c-2.21-1.889-4.563-3.529-6.772-4.526
            c-2.208-0.999-4.276-1.354-6.629-1.462c-2.352-0.106-4.988,0.036-7.198,0.501c-2.208,0.463-3.991,1.247-5.631,2.494
            c-1.64,1.248-3.138,2.957-4.242,4.883c-1.104,1.924-1.816,4.063-2.173,6.628c-0.355,2.565-0.355,5.561,0.106,8.056
            c0.464,2.493,1.392,4.489,2.565,5.913c1.177,1.427,2.603,2.282,5.132,2.887c2.53,0.606,6.165,0.962,9.054,0.962
            c2.886,0,5.023-0.355,6.52-0.962c1.497-0.604,2.353-1.461,3.029-2.459c0.678-0.996,1.176-2.139,1.712-2.958
            c0.534-0.819,1.105-1.318,2.103-1.566c0.996-0.251,2.424-0.251,3.527,0.034c1.105,0.285,1.891,0.855,2.424,2.032
            c0.535,1.175,0.82,2.958,0.82,4.99c0,2.03-0.285,4.311-1.033,6.592c-0.747,2.279-1.96,4.562-3.527,6.449
            c-1.568,1.891-3.493,3.387-5.952,4.704c-2.46,1.318-5.453,2.459-8.27,2.923c-2.813,0.464-5.451,0.25-8.373-0.249
            c-2.925-0.5-6.132-1.282-8.911-2.603c-2.779-1.319-5.132-3.172-7.198-5.773c-2.067-2.602-3.849-5.952-4.847-9.372
            c-0.998-3.422-1.213-6.914-1.246-10.406c-0.036-3.492,0.105-6.985,0.961-10.121c0.855-3.137,2.424-5.916,4.348-8.625
            s4.205-5.346,6.879-7.627c2.672-2.281,5.738-4.205,8.838-5.345c3.101-1.141,6.236-1.496,9.871-1.568
            c3.635-0.07,7.769,0.144,11.902,1.034s8.268,2.458,12.688,4.668c4.42,2.209,9.123,5.061,13.506,7.877
            c4.384,2.813,8.447,5.594,12.116,8.553c3.671,2.958,6.95,6.095,10.441,9.516c3.492,3.421,7.2,7.127,11.583,11.796
            c4.384,4.667,9.444,10.299,13.365,14.932c3.919,4.632,6.698,8.267,9.586,12.082c2.887,3.813,5.88,7.804,9.087,12.366
            c3.209,4.562,6.629,9.692,9.624,14.325c2.993,4.635,5.559,8.768,8.517,13.15s6.308,9.017,9.769,13.206
            c3.46,4.19,7.033,7.935,10.435,11.482c3.402,3.547,6.637,6.896,9.669,9.608c3.029,2.715,5.858,4.793,8.688,6.496
            c2.829,1.702,5.658,3.03,8.169,3.811c2.511,0.779,4.706,1.011,8.054,0.692C518.778,532.477,523.281,531.608,528.164,527.421z"/>
    <path fill="#FFFFFF" stroke="#000000" stroke-width="1.5" stroke-miterlimit="10" d="M528.164,72.037
            c4.21,4.865,5.096,9.364,5.428,12.712c0.333,3.346,0.108,5.541-0.659,8.056c-0.769,2.516-2.083,5.349-3.774,8.186
            c-1.689,2.836-3.756,5.674-6.457,8.717c-2.7,3.042-6.036,6.291-9.567,9.708c-3.532,3.417-7.263,7.005-11.438,10.485
            c-4.175,3.478-8.793,6.848-13.165,9.825c-4.371,2.977-8.492,5.56-13.113,8.575c-4.619,3.013-9.736,6.456-14.284,9.683
            c-4.547,3.228-8.525,6.238-12.327,9.142c-3.802,2.902-7.424,5.698-12.041,9.638c-4.615,3.939-10.224,9.024-14.873,13.427
            c-4.65,4.403-8.342,8.125-11.748,11.634c-3.406,3.506-6.526,6.8-9.469,10.481c-2.942,3.684-5.705,7.757-8.502,12.153
            c-2.795,4.396-5.626,9.112-7.816,13.541c-2.191,4.428-3.741,8.57-4.613,12.708c-0.874,4.138-1.07,8.272-0.983,11.907
            c0.088,3.635,0.457,6.77,1.61,9.866c1.153,3.096,3.091,6.152,5.384,8.814c2.292,2.664,4.94,4.933,7.654,6.845
            c2.718,1.914,5.505,3.47,8.645,4.311c3.139,0.842,6.632,0.969,10.125,0.918c3.492-0.05,6.983-0.279,10.4-1.291
            c3.417-1.013,6.76-2.808,9.351-4.887c2.594-2.078,4.436-4.438,5.744-7.223c1.306-2.786,2.076-5.997,2.563-8.921
            c0.486-2.925,0.688-5.563,0.214-8.377c-0.474-2.813-1.63-5.802-2.958-8.255c-1.33-2.454-2.834-4.371-4.73-5.932
            c-1.895-1.56-4.18-2.762-6.464-3.5c-2.284-0.739-4.566-1.013-6.6-1.004c-2.03,0.008-3.812,0.301-4.984,0.841
            c-1.175,0.539-1.741,1.326-2.021,2.432c-0.282,1.106-0.274,2.531-0.021,3.528c0.255,0.997,0.755,1.564,1.576,2.096
            c0.824,0.531,1.965,1.025,2.967,1.699c1.001,0.672,1.859,1.523,2.471,3.018c0.613,1.494,0.979,3.63,0.992,6.518
            c0.011,2.886-0.33,6.523-0.924,9.056c-0.596,2.532-1.443,3.961-2.865,5.145c-1.421,1.182-3.411,2.118-5.904,2.59
            c-2.493,0.475-5.487,0.486-8.053,0.142c-2.568-0.346-4.71-1.049-6.639-2.145c-1.93-1.097-3.647-2.587-4.901-4.22
            c-1.255-1.634-2.046-3.412-2.519-5.621c-0.474-2.207-0.627-4.844-0.53-7.195c0.097-2.353,0.444-4.421,1.433-6.635
            c0.988-2.214,2.617-4.573,4.499-6.791c1.878-2.219,4.008-4.295,6.458-6.159c2.45-1.863,5.225-3.515,8.035-4.454
            s5.661-1.165,8.584-1.106c2.923,0.059,5.917,0.402,8.949,1.102c3.033,0.7,6.103,1.756,9.103,3.881
            c3.004,2.125,5.94,5.32,7.878,8.591c1.94,3.27,2.881,6.616,3.361,10.534c0.479,3.919,0.5,8.409-0.34,12.689
            c-0.835,4.279-2.529,8.35-4.546,11.672c-2.018,3.323-4.358,5.9-6.736,7.727c-2.381,1.828-4.799,2.907-7.135,3.804
            c-2.335,0.896-4.582,1.609-6.906,2.031c-2.321,0.422-4.718,0.553-6.689,0.622c-1.971,0.07-3.523,0.076-5.41,0.055
            c-1.886-0.021-4.109-0.069-6.283-0.433c-2.173-0.362-4.297-1.038-7.46-2.52c-3.162-1.482-7.365-3.771-10.57-5.923
            c-3.205-2.15-5.413-4.166-7.051-6.403c-1.638-2.237-2.704-4.696-3.55-6.981c-0.846-2.284-1.472-4.394-1.748-7.251
            c-0.276-2.859-0.202-6.468,0.091-9.944c0.294-3.478,0.806-6.824,1.96-11.085s2.95-9.439,4.736-13.533
            c1.788-4.094,3.564-7.104,5.479-10.34c1.917-3.237,3.974-6.701,5.465-9.227c1.489-2.527,2.415-4.116,2.932-5.035
            c0.515-0.92,0.62-1.171,0.656-1.397c0.034-0.226-0.002-0.425-0.109-0.556c-0.109-0.132-0.292-0.196-0.925-0.514
            c-0.319-0.632-0.386-0.813-0.519-0.921c-0.131-0.11-0.331-0.145-0.556-0.108c-0.226,0.036-0.476,0.142-1.395,0.663
            c-0.916,0.52-2.503,1.451-5.023,2.953c-2.519,1.502-5.975,3.572-9.202,5.504c-3.23,1.93-6.231,3.719-10.317,5.523
            c-4.085,1.804-9.255,3.621-13.512,4.794c-4.257,1.172-7.603,1.7-11.076,2.009c-3.477,0.308-7.084,0.396-9.944,0.131
            c-2.859-0.263-4.971-0.879-7.259-1.716c-2.287-0.836-4.752-1.892-6.996-3.521c-2.244-1.627-4.268-3.827-6.434-7.024
            c-2.165-3.195-4.472-7.388-5.967-10.545c-1.497-3.157-2.182-5.276-2.553-7.449c-0.371-2.172-0.43-4.396-0.461-6.283
            c-0.027-1.887-0.027-3.437,0.033-5.409c0.06-1.974,0.182-4.369,0.592-6.693c0.412-2.324,1.115-4.576,2.001-6.915
            c0.888-2.339,1.955-4.762,3.774-7.15c1.816-2.387,4.381-4.74,7.697-6.771c3.313-2.031,7.376-3.742,11.652-4.597
            s8.767-0.855,12.688-0.393c3.919,0.463,7.271,1.39,10.549,3.313c3.279,1.924,6.486,4.846,8.624,7.84
            c2.139,2.994,3.209,6.058,3.921,9.088c0.712,3.029,1.07,6.023,1.141,8.945c0.07,2.923-0.143,5.773-1.07,8.588
            c-0.926,2.815-2.566,5.595-4.419,8.054c-1.853,2.46-3.922,4.597-6.129,6.486c-2.21,1.888-4.563,3.528-6.772,4.525
            c-2.208,0.997-4.276,1.354-6.629,1.461c-2.352,0.106-4.988-0.036-7.198-0.499c-2.208-0.464-3.991-1.247-5.631-2.495
            c-1.64-1.247-3.138-2.958-4.242-4.882s-1.816-4.063-2.173-6.629c-0.355-2.565-0.355-5.559,0.106-8.053
            c0.464-2.496,1.392-4.49,2.565-5.917c1.177-1.425,2.603-2.281,5.132-2.886c2.53-0.605,6.165-0.962,9.054-0.962
            c2.886,0,5.023,0.357,6.52,0.962c1.497,0.606,2.353,1.461,3.029,2.459c0.678,0.998,1.176,2.138,1.712,2.958
            c0.534,0.82,1.105,1.319,2.103,1.569c0.996,0.249,2.424,0.249,3.527-0.036c1.105-0.285,1.891-0.854,2.424-2.031
            c0.535-1.176,0.82-2.958,0.82-4.989c0-2.03-0.285-4.312-1.033-6.593c-0.747-2.281-1.96-4.562-3.527-6.45
            c-1.568-1.889-3.493-3.386-5.952-4.704c-2.46-1.318-5.453-2.46-8.27-2.923c-2.813-0.462-5.451-0.249-8.373,0.25
            c-2.925,0.499-6.132,1.282-8.911,2.602c-2.779,1.318-5.132,3.171-7.198,5.773c-2.067,2.601-3.849,5.95-4.847,9.372
            c-0.998,3.42-1.213,6.913-1.246,10.406c-0.036,3.492,0.105,6.985,0.961,10.121c0.855,3.136,2.424,5.915,4.348,8.624
            c1.924,2.709,4.205,5.346,6.879,7.627c2.672,2.281,5.738,4.205,8.838,5.346c3.101,1.14,6.236,1.497,9.871,1.568
            c3.634,0.072,7.769-0.142,11.902-1.033c4.135-0.891,8.268-2.459,12.688-4.668s9.123-5.061,13.506-7.876
            c4.384-2.815,8.447-5.595,12.116-8.553c3.671-2.957,6.95-6.094,10.441-9.516c3.492-3.42,7.2-7.127,11.583-11.795
            c4.384-4.668,9.444-10.299,13.365-14.933c3.919-4.633,6.698-8.268,9.586-12.081c2.887-3.813,5.88-7.805,9.087-12.366
            c3.209-4.562,6.629-9.693,9.624-14.326c2.993-4.633,5.559-8.768,8.517-13.151c2.958-4.384,6.308-9.016,9.769-13.205
            c3.46-4.189,7.033-7.935,10.435-11.482c3.402-3.548,6.637-6.896,9.669-9.609c3.029-2.714,5.858-4.792,8.688-6.494
            c2.829-1.704,5.658-3.032,8.169-3.812c2.511-0.779,4.706-1.01,8.054-0.692C518.778,66.981,523.281,67.848,528.164,72.037z"/>
    <path fill="#FFFFFF" stroke="#000000" stroke-width="1.5" stroke-miterlimit="10" d="M71.836,72.037
            c-4.208,4.865-5.094,9.364-5.427,12.712c-0.332,3.346-0.11,5.541,0.659,8.056c0.768,2.516,2.084,5.349,3.774,8.186
            c1.692,2.836,3.758,5.674,6.458,8.717c2.7,3.042,6.035,6.291,9.567,9.708c3.532,3.417,7.263,7.005,11.438,10.485
            c4.175,3.478,8.793,6.848,13.163,9.825c4.371,2.977,8.495,5.56,13.113,8.575c4.621,3.013,9.738,6.456,14.285,9.683
            c4.549,3.228,8.527,6.238,12.329,9.142c3.8,2.902,7.424,5.698,12.04,9.638c4.615,3.939,10.226,9.024,14.875,13.427
            c4.649,4.403,8.339,8.125,11.745,11.634c3.407,3.506,6.528,6.8,9.471,10.481c2.94,3.684,5.703,7.757,8.5,12.153
            c2.797,4.396,5.628,9.112,7.816,13.541c2.192,4.428,3.741,8.57,4.616,12.708c0.872,4.138,1.069,8.272,0.982,11.907
            c-0.087,3.635-0.458,6.77-1.61,9.866c-1.154,3.096-3.092,6.152-5.384,8.814c-2.293,2.664-4.939,4.933-7.656,6.845
            c-2.717,1.914-5.502,3.47-8.642,4.311c-3.141,0.842-6.634,0.969-10.125,0.918c-3.493-0.05-6.984-0.279-10.4-1.291
            c-3.417-1.013-6.759-2.808-9.352-4.887c-2.594-2.078-4.436-4.438-5.743-7.223c-1.308-2.786-2.078-5.997-2.563-8.921
            c-0.486-2.925-0.689-5.563-0.212-8.377c0.475-2.813,1.628-5.802,2.958-8.255c1.328-2.454,2.833-4.371,4.729-5.932
            c1.896-1.56,4.182-2.762,6.466-3.5c2.284-0.739,4.567-1.013,6.597-1.004c2.033,0.008,3.813,0.301,4.986,0.841
            c1.173,0.539,1.741,1.326,2.021,2.432c0.28,1.106,0.274,2.531,0.02,3.528c-0.253,0.997-0.754,1.564-1.578,2.096
            c-0.822,0.531-1.963,1.025-2.965,1.699c-1.001,0.672-1.858,1.523-2.472,3.018s-0.979,3.63-0.989,6.518
            c-0.014,2.886,0.328,6.523,0.923,9.056c0.594,2.532,1.444,3.961,2.863,5.145c1.422,1.182,3.413,2.118,5.906,2.59
            c2.492,0.475,5.486,0.486,8.053,0.142c2.567-0.346,4.708-1.049,6.639-2.145c1.928-1.097,3.646-2.587,4.899-4.22
            c1.255-1.634,2.047-3.412,2.519-5.621c0.473-2.207,0.627-4.844,0.53-7.195c-0.097-2.353-0.443-4.421-1.433-6.635
            c-0.988-2.214-2.617-4.573-4.497-6.791c-1.878-2.219-4.008-4.295-6.46-6.159c-2.45-1.863-5.223-3.515-8.035-4.454
            s-5.662-1.165-8.583-1.106c-2.923,0.059-5.917,0.402-8.95,1.102c-3.032,0.7-6.101,1.756-9.104,3.881
            c-3.003,2.125-5.938,5.32-7.877,8.591c-1.938,3.27-2.879,6.616-3.359,10.534c-0.48,3.919-0.5,8.409,0.337,12.689
            c0.836,4.279,2.529,8.35,4.546,11.672c2.017,3.323,4.358,5.9,6.739,7.727c2.38,1.828,4.799,2.907,7.131,3.804
            c2.335,0.896,4.585,1.609,6.907,2.031c2.323,0.422,4.717,0.553,6.691,0.622c1.972,0.069,3.522,0.076,5.408,0.055
            c1.889-0.021,4.112-0.069,6.284-0.433c2.174-0.362,4.298-1.038,7.459-2.52c3.163-1.482,7.365-3.771,10.57-5.923
            c3.206-2.15,5.416-4.166,7.052-6.403c1.636-2.237,2.704-4.696,3.55-6.981c0.846-2.284,1.471-4.394,1.747-7.251
            c0.276-2.859,0.205-6.468-0.089-9.944c-0.293-3.478-0.806-6.824-1.962-11.085c-1.154-4.262-2.948-9.439-4.735-13.533
            c-1.786-4.094-3.563-7.104-5.479-10.34c-1.917-3.237-3.973-6.701-5.464-9.227c-1.491-2.527-2.417-4.116-2.931-5.035
            c-0.517-0.92-0.623-1.171-0.657-1.397c-0.036-0.226,0-0.425,0.109-0.556c0.107-0.132,0.292-0.196,0.924-0.514
            c0.321-0.632,0.385-0.813,0.518-0.921c0.133-0.11,0.332-0.145,0.557-0.108c0.225,0.036,0.477,0.142,1.394,0.663
            c0.917,0.52,2.501,1.451,5.022,2.953s5.976,3.572,9.205,5.504c3.228,1.93,6.229,3.719,10.316,5.523
            c4.085,1.804,9.255,3.621,13.511,4.794c4.258,1.172,7.602,1.7,11.078,2.009c3.476,0.308,7.083,0.396,9.942,0.131
            c2.861-0.263,4.973-0.879,7.26-1.716c2.288-0.836,4.751-1.892,6.996-3.521c2.242-1.627,4.267-3.827,6.433-7.024
            c2.165-3.195,4.471-7.388,5.968-10.545c1.495-3.157,2.18-5.276,2.553-7.449c0.371-2.172,0.429-4.396,0.458-6.283
            c0.029-1.887,0.028-3.437-0.03-5.409c-0.06-1.974-0.182-4.369-0.594-6.693c-0.412-2.324-1.115-4.576-2.002-6.915
            c-0.885-2.339-1.955-4.762-3.771-7.15c-1.819-2.387-4.384-4.74-7.698-6.771c-3.315-2.031-7.377-3.742-11.654-4.597
            c-4.276-0.855-8.768-0.855-12.687-0.393c-3.921,0.463-7.27,1.39-10.549,3.313c-3.278,1.924-6.485,4.846-8.624,7.84
            c-2.138,2.994-3.207,6.058-3.92,9.088c-0.713,3.029-1.07,6.023-1.141,8.945c-0.07,2.923,0.143,5.773,1.069,8.588
            c0.927,2.815,2.565,5.595,4.42,8.054c1.852,2.46,3.919,4.597,6.129,6.486c2.208,1.888,4.561,3.528,6.771,4.525
            c2.21,0.997,4.277,1.354,6.629,1.461c2.353,0.106,4.989-0.036,7.199-0.499c2.209-0.464,3.993-1.247,5.631-2.495
            c1.638-1.247,3.135-2.958,4.241-4.882s1.816-4.063,2.174-6.629c0.355-2.565,0.355-5.559-0.108-8.053
            c-0.464-2.496-1.39-4.49-2.565-5.917c-1.175-1.425-2.601-2.281-5.132-2.886c-2.53-0.605-6.166-0.962-9.051-0.962
            c-2.887,0-5.027,0.357-6.522,0.962c-1.497,0.606-2.352,1.461-3.028,2.459c-0.677,0.998-1.177,2.138-1.71,2.958
            c-0.536,0.82-1.105,1.319-2.105,1.569c-0.997,0.249-2.422,0.249-3.527-0.036c-1.105-0.285-1.888-0.854-2.424-2.031
            c-0.534-1.176-0.819-2.958-0.819-4.989c0-2.03,0.286-4.312,1.033-6.593c0.749-2.281,1.96-4.562,3.53-6.45
            c1.567-1.889,3.492-3.386,5.952-4.704c2.458-1.318,5.452-2.46,8.267-2.923c2.815-0.462,5.454-0.249,8.375,0.25
            c2.922,0.499,6.129,1.282,8.909,2.602c2.779,1.318,5.132,3.171,7.198,5.773c2.069,2.601,3.849,5.95,4.849,9.372
            c0.997,3.42,1.211,6.913,1.247,10.406c0.036,3.492-0.107,6.985-0.963,10.121c-0.856,3.136-2.422,5.915-4.347,8.624
            c-1.924,2.709-4.207,5.346-6.879,7.627c-2.672,2.281-5.737,4.205-8.838,5.346c-3.1,1.14-6.236,1.497-9.871,1.568
            c-3.635,0.072-7.77-0.142-11.904-1.033c-4.133-0.891-8.267-2.459-12.686-4.668s-9.123-5.061-13.507-7.876
            c-4.382-2.815-8.445-5.595-12.117-8.553c-3.671-2.957-6.949-6.094-10.441-9.516c-3.493-3.42-7.199-7.127-11.583-11.795
            c-4.382-4.668-9.442-10.299-13.363-14.933c-3.921-4.633-6.701-8.268-9.587-12.081c-2.887-3.813-5.881-7.805-9.087-12.366
            c-3.208-4.562-6.629-9.693-9.623-14.326c-2.994-4.633-5.56-8.768-8.517-13.151c-2.96-4.384-6.31-9.016-9.77-13.205
            c-3.461-4.189-7.034-7.935-10.436-11.482c-3.403-3.548-6.635-6.896-9.667-9.609c-3.031-2.713-5.861-4.792-8.69-6.494
            c-2.829-1.704-5.658-3.032-8.169-3.812c-2.512-0.779-4.704-1.01-8.053-0.692C81.224,66.981,76.72,67.848,71.836,72.037z"/>

    <circle fill="#FFFFFF" stroke="#000000" stroke-width="1.5" stroke-miterlimit="10" cx="268.955" cy="329.271" r="22.459"/>
    <circle fill="#FFFFFF" stroke="#000000" stroke-width="1.5" stroke-miterlimit="10" cx="323.529" cy="329.271" r="22.459"/>
    <circle fill="#FFFFFF" stroke="#000000" stroke-width="1.5" stroke-miterlimit="10" cx="323.529" cy="267.917" r="22.459"/>
    <circle fill="#FFFFFF" stroke="#000000" stroke-width="1.5" stroke-miterlimit="10" cx="268.955" cy="267.917" r="22.459"/>

    <path fill="#FFFFFF" stroke="#000000" stroke-width="1.5" stroke-miterlimit="10" d="M29.077,570.761c0-8.508,0-17.018,0-25.527
            c2.222-71.363,3.758-90.154,5.06-104.103c1.301-13.945,2.366-23.049,3.76-32.439c1.394-9.392,3.119-19.071,4.84-27.491
            c1.727-8.42,3.449-15.581,5.77-23.206c2.322-7.624,5.239-15.713,7.889-22.542c2.653-6.828,5.039-12.398,7.691-17.237
            c2.652-4.84,5.57-8.951,8.114-11.527c2.544-2.578,4.716-3.622,6.681-4.398c1.965-0.775,3.723-1.285,5.595-1.539
            s3.86-0.254,5.687,0.277c1.826,0.533,3.492,1.596,5.456,3.4c1.965,1.803,4.229,4.346,6.034,6.681
            c1.804,2.335,3.144,4.46,3.768,6.888c0.625,2.428,0.531,5.156,0.116,7.606c-0.417,2.451-1.156,4.623-2.358,7.051
            c-1.202,2.428-2.867,5.109-5.317,8.67s-5.687,7.999-8.692,12.159c-3.007,4.161-5.779,8.045-8.393,12.044
            c-2.612,3.999-5.062,8.114-7.374,12.229c-2.311,4.115-4.483,8.23-6.771,13.434s-4.688,11.496-7.021,17.774
            c-2.332,6.279-4.594,12.543-6.508,18.763c-1.914,6.221-3.48,12.397-5.003,18.836c-1.522,6.438-3.001,13.137-4.436,21.401
            c-1.436,8.265-2.829,18.096-3.916,26.665c-1.087,8.569-1.871,15.878-2.305,23.272c-0.436,7.394-0.522,14.875-0.63,22.141
            c-0.109,7.265-0.239,14.312-1.283,24.229c16.703-0.262,31.188-0.783,44.259-1.695c13.072-0.914,24.729-2.219,36.083-3.872
            c11.354-1.652,22.402-3.653,33.842-6.264c11.44-2.609,23.272-5.828,34.277-9.744c11.004-3.915,21.184-8.526,30.753-13.702
            c9.57-5.177,18.532-10.919,25.925-15.834c7.395-4.915,13.224-9.004,17.965-12.18c4.742-3.175,8.396-5.437,11.615-6.524
            c3.218-1.088,6.002-1.001,8.481-0.564c2.479,0.436,4.654,1.218,6.482,2.392c1.825,1.174,3.306,2.741,5.057,4.558
            c1.751,1.817,3.775,3.886,4.937,5.95s1.46,4.124,1.368,6.185c-0.094,2.059-0.581,4.118-1.349,5.878
            c-0.767,1.761-1.816,3.221-3.146,4.887c-1.33,1.667-2.94,3.54-4.457,5.057c-1.516,1.516-2.942,2.678-5.505,4.269
            c-2.564,1.593-6.273,3.614-10.785,5.73c-4.513,2.116-9.83,4.326-18.022,7.178c-8.191,2.854-19.255,6.348-28.225,8.686
            c-8.969,2.339-15.844,3.52-23.63,4.917c-7.787,1.396-16.486,3.007-27.783,4.459c-11.299,1.452-25.191,2.744-36.728,3.594
            c-11.535,0.849-20.71,1.257-27.966,1.511c-7.255,0.255-12.589,0.354-22.051,0.588c-9.462,0.233-23.052,0.602-33.229,0.804
            c-10.178,0.201-16.941,0.233-24.623,0.168"/>
    <path fill="#FFFFFF" stroke="#000000" stroke-width="1.5" stroke-miterlimit="10" d="M572.134,570.761c0-8.508,0-17.018,0-25.527
            c-2.222-71.363-3.758-90.154-5.059-104.103c-1.3-13.945-2.367-23.049-3.76-32.439c-1.395-9.392-3.119-19.071-4.842-27.491
            c-1.725-8.42-3.448-15.581-5.769-23.206c-2.321-7.624-5.24-15.713-7.889-22.542c-2.653-6.828-5.04-12.398-7.691-17.237
            c-2.652-4.84-5.57-8.951-8.114-11.527c-2.544-2.578-4.717-3.622-6.681-4.398c-1.966-0.775-3.723-1.285-5.595-1.539
            s-3.86-0.254-5.688,0.277c-1.826,0.533-3.49,1.596-5.455,3.4c-1.966,1.803-4.23,4.346-6.034,6.681
            c-1.803,2.335-3.144,4.46-3.769,6.888c-0.623,2.428-0.53,5.156-0.115,7.606c0.416,2.451,1.155,4.623,2.357,7.051
            c1.203,2.428,2.867,5.109,5.317,8.67c2.451,3.561,5.687,7.999,8.692,12.159c3.005,4.161,5.779,8.045,8.393,12.044
            c2.611,3.999,5.062,8.114,7.373,12.229c2.313,4.115,4.484,8.23,6.771,13.434c2.288,5.203,4.689,11.496,7.021,17.774
            c2.332,6.279,4.594,12.543,6.507,18.763c1.915,6.221,3.48,12.397,5.004,18.836c1.521,6.438,3.002,13.137,4.437,21.401
            c1.437,8.265,2.828,18.096,3.916,26.665s1.87,15.878,2.306,23.272c0.435,7.394,0.521,14.875,0.63,22.141
            c0.108,7.265,0.239,14.312,1.284,24.229c-16.704-0.262-31.19-0.783-44.261-1.695c-13.071-0.914-24.729-2.219-36.084-3.872
            c-11.354-1.652-22.4-3.653-33.842-6.264c-11.439-2.609-23.271-5.828-34.276-9.744c-11.005-3.915-21.185-8.526-30.754-13.702
            c-9.569-5.177-18.53-10.919-25.925-15.834s-13.224-9.004-17.964-12.18c-4.742-3.175-8.396-5.437-11.615-6.524
            c-3.218-1.088-6.002-1.001-8.482-0.564c-2.479,0.436-4.654,1.218-6.48,2.392c-1.827,1.174-3.307,2.741-5.059,4.558
            c-1.752,1.817-3.774,3.886-4.936,5.95c-1.162,2.064-1.461,4.124-1.369,6.185c0.095,2.059,0.582,4.118,1.35,5.878
            c0.767,1.761,1.816,3.221,3.146,4.887c1.33,1.667,2.94,3.54,4.456,5.057c1.518,1.516,2.941,2.678,5.506,4.269
            c2.565,1.593,6.273,3.614,10.785,5.73c4.514,2.116,9.83,4.326,18.022,7.178c8.191,2.854,19.256,6.348,28.225,8.686
            c8.969,2.339,15.844,3.52,23.63,4.917c7.787,1.396,16.487,3.007,27.785,4.459c11.298,1.451,25.19,2.744,36.726,3.594
            c11.535,0.849,20.711,1.257,27.966,1.511c7.257,0.255,12.59,0.354,22.052,0.588c9.462,0.233,23.054,0.602,33.23,0.804
            c10.178,0.201,16.94,0.233,24.622,0.168"/>
    <path fill="#FFFFFF" stroke="#000000" stroke-width="1.5" stroke-miterlimit="10" d="M572.134,28.105c0,8.509,0,17.018,0,25.527
            c-2.222,71.363-3.758,90.155-5.059,104.103c-1.3,13.947-2.367,23.049-3.76,32.439c-1.395,9.391-3.119,19.071-4.842,27.491
            c-1.725,8.419-3.448,15.581-5.769,23.206c-2.321,7.625-5.24,15.713-7.889,22.542c-2.653,6.828-5.04,12.397-7.691,17.238
            c-2.652,4.84-5.57,8.95-8.114,11.528c-2.544,2.577-4.717,3.621-6.681,4.397c-1.965,0.776-3.723,1.285-5.595,1.539
            c-1.872,0.255-3.86,0.255-5.688-0.277c-1.826-0.532-3.49-1.595-5.455-3.397c-1.966-1.804-4.23-4.346-6.034-6.681
            c-1.803-2.335-3.144-4.461-3.769-6.889c-0.623-2.427-0.53-5.155-0.115-7.605c0.416-2.451,1.155-4.624,2.357-7.051
            c1.203-2.428,2.867-5.109,5.317-8.669c2.451-3.56,5.687-7.998,8.692-12.159c3.005-4.161,5.779-8.045,8.393-12.044
            c2.611-3.999,5.062-8.114,7.373-12.229c2.313-4.115,4.484-8.229,6.771-13.433c2.288-5.204,4.689-11.496,7.021-17.774
            s4.594-12.542,6.507-18.763c1.915-6.22,3.48-12.397,5.004-18.835c1.521-6.438,3.002-13.137,4.437-21.401
            c1.437-8.264,2.828-18.096,3.916-26.665s1.87-15.877,2.306-23.272c0.435-7.396,0.521-14.876,0.63-22.141
            s0.239-14.312,1.284-24.229c-16.704,0.261-31.19,0.784-44.261,1.696c-13.071,0.914-24.729,2.219-36.084,3.871
            c-11.353,1.654-22.4,3.654-33.842,6.265c-11.439,2.61-23.271,5.83-34.276,9.744c-11.005,3.915-21.185,8.526-30.754,13.703
            s-18.53,10.919-25.925,15.833c-7.395,4.916-13.224,9.005-17.964,12.18c-4.742,3.175-8.396,5.438-11.615,6.524
            c-3.218,1.087-6.002,1.001-8.482,0.565c-2.479-0.435-4.654-1.218-6.48-2.392c-1.827-1.174-3.307-2.741-5.059-4.558
            c-1.752-1.817-3.774-3.886-4.936-5.951c-1.162-2.064-1.461-4.124-1.369-6.183c0.095-2.06,0.582-4.12,1.35-5.88
            c0.767-1.76,1.816-3.221,3.146-4.887c1.33-1.667,2.94-3.539,4.456-5.056c1.518-1.517,2.941-2.678,5.506-4.269
            c2.565-1.592,6.273-3.614,10.785-5.731c4.514-2.116,9.83-4.325,18.022-7.178c8.191-2.852,19.256-6.346,28.225-8.685
            c8.969-2.338,15.844-3.519,23.63-4.916c7.787-1.396,16.487-3.007,27.785-4.459c11.298-1.451,25.19-2.744,36.726-3.593
            s20.711-1.257,27.966-1.512c7.257-0.254,12.59-0.354,22.052-0.587c9.462-0.233,23.054-0.602,33.23-0.804
            c10.178-0.201,16.94-0.234,24.622-0.168"/>
    <path fill="#FFFFFF" stroke="#000000" stroke-width="1.5" stroke-miterlimit="10" d="M29.077,28.105c0,8.509,0,17.018,0,25.527
            c2.222,71.363,3.758,90.155,5.06,104.103c1.301,13.947,2.366,23.049,3.76,32.439c1.394,9.391,3.119,19.071,4.84,27.491
            c1.727,8.419,3.449,15.581,5.77,23.206c2.322,7.625,5.239,15.713,7.889,22.542c2.653,6.828,5.039,12.397,7.691,17.238
            c2.652,4.84,5.57,8.95,8.114,11.528c2.544,2.577,4.716,3.621,6.681,4.397c1.964,0.776,3.723,1.285,5.595,1.539
            c1.872,0.255,3.86,0.255,5.687-0.277c1.826-0.532,3.492-1.595,5.456-3.397c1.965-1.804,4.229-4.346,6.034-6.681
            c1.804-2.335,3.144-4.461,3.768-6.889c0.625-2.427,0.531-5.155,0.116-7.605c-0.417-2.451-1.156-4.624-2.358-7.051
            c-1.202-2.428-2.867-5.109-5.317-8.669s-5.687-7.998-8.692-12.159c-3.007-4.161-5.779-8.045-8.393-12.044
            c-2.612-3.999-5.062-8.114-7.374-12.229c-2.311-4.115-4.483-8.229-6.771-13.433s-4.688-11.496-7.021-17.774
            s-4.594-12.542-6.508-18.763c-1.914-6.22-3.48-12.397-5.003-18.835c-1.522-6.438-3.001-13.137-4.436-21.401
            c-1.436-8.264-2.829-18.096-3.916-26.665c-1.087-8.569-1.871-15.877-2.305-23.272c-0.436-7.396-0.522-14.876-0.63-22.141
            c-0.109-7.265-0.239-14.312-1.283-24.229c16.703,0.261,31.188,0.784,44.259,1.696c13.072,0.914,24.729,2.219,36.083,3.871
            c11.353,1.654,22.402,3.654,33.842,6.265c11.44,2.61,23.272,5.83,34.277,9.744c11.004,3.915,21.184,8.526,30.753,13.703
            c9.57,5.177,18.532,10.919,25.925,15.833c7.395,4.916,13.224,9.005,17.965,12.18c4.742,3.175,8.396,5.438,11.615,6.524
            c3.218,1.088,6.002,1.001,8.481,0.565c2.479-0.435,4.654-1.218,6.482-2.392c1.825-1.174,3.306-2.741,5.057-4.558
            c1.751-1.817,3.775-3.886,4.937-5.951c1.161-2.064,1.46-4.124,1.368-6.183c-0.094-2.06-0.581-4.12-1.349-5.88
            c-0.767-1.76-1.816-3.221-3.146-4.887c-1.33-1.667-2.94-3.539-4.457-5.056s-2.942-2.678-5.505-4.269
            c-2.564-1.592-6.273-3.614-10.785-5.731c-4.513-2.116-9.83-4.325-18.022-7.178c-8.191-2.852-19.255-6.346-28.225-8.685
            c-8.969-2.338-15.844-3.519-23.63-4.916c-7.787-1.396-16.486-3.007-27.783-4.459c-11.299-1.451-25.191-2.744-36.728-3.593
            c-11.533-0.85-20.709-1.256-27.964-1.511c-7.256-0.254-12.589-0.354-22.051-0.587c-9.462-0.233-23.052-0.602-33.229-0.804
            c-10.178-0.201-16.941-0.234-24.623-0.168"/>

    <path fill="#FFFFFF" stroke="#000000" stroke-width="1.5" stroke-miterlimit="10" d="M52.147,550.015
            c25.75-2.814,43.052-8.047,55.858-12.941c12.809-4.894,21.124-9.454,29.572-15.021c8.45-5.565,17.032-12.138,24.276-18.71
            c7.243-6.57,13.142-13.143,18.911-20.52c5.767-7.377,11.4-15.558,15.893-21.728c4.493-6.169,7.846-10.327,11.534-13.143
            c3.688-2.816,7.711-4.292,11.064-4.762c3.353-0.469,6.035,0.066,8.114,1.408c2.08,1.341,3.554,3.488,4.561,5.834
            c1.005,2.348,1.542,4.896,1.542,9.053s-0.538,9.926-1.878,14.552c-1.34,4.628-3.486,8.114-6.84,12.474
            c-3.354,4.358-7.914,9.589-13.412,14.418c-5.499,4.827-11.937,9.254-20.387,14.082c-8.449,4.828-18.91,10.059-29.304,14.149
            s-20.721,7.041-30.846,9.79c-10.126,2.748-20.051,5.298-30.438,7.729c-10.385,2.432-21.233,4.744-30.686,6.336
            c-9.45,1.589-17.503,2.454-24.777,4.243c4.022-29.774,8.449-50.294,12.07-65.851c3.621-15.559,6.438-26.154,9.255-35.407
            c2.815-9.255,5.632-17.168,8.717-24.545c3.085-7.375,6.438-14.216,10.595-21.324c4.158-7.108,9.119-14.483,13.479-19.849
            c4.358-5.364,8.114-8.718,13.008-12.271c4.896-3.554,10.931-7.31,15.625-9.388c4.694-2.079,8.047-2.482,11.534-2.482
            c3.487,0,7.107,0.403,9.924,1.409c2.816,1.005,4.828,2.614,6.17,4.762c1.341,2.146,2.011,4.827,2.146,7.576
            c0.132,2.749-0.269,5.565-1.274,8.181c-1.006,2.615-2.615,5.03-6.17,8.181c-3.554,3.152-9.053,7.042-15.892,12.07
            c-6.84,5.029-15.021,11.2-21.995,17.369c-6.974,6.169-12.74,12.338-17.436,17.771c-4.693,5.431-8.315,10.126-12.472,16.696
            c-4.157,6.572-8.852,15.022-12.473,22.667c-3.621,7.644-6.169,14.484-8.248,20.988c-2.079,6.505-3.688,12.675-5.198,19.582
            C54.763,530.3,53.354,537.945,52.147,550.015z"/>
    <path fill="#FFFFFF" stroke="#000000" stroke-width="1.5" stroke-miterlimit="10" d="M550.094,550.015
            c-25.751-2.814-43.051-8.047-55.858-12.941c-12.81-4.894-21.124-9.454-29.572-15.021c-8.449-5.565-17.033-12.138-24.276-18.71
            c-7.243-6.57-13.142-13.143-18.911-20.52c-5.767-7.377-11.398-15.558-15.891-21.728c-4.495-6.169-7.847-10.327-11.535-13.143
            c-3.688-2.816-7.711-4.292-11.064-4.762c-3.353-0.469-6.035,0.066-8.114,1.408c-2.079,1.341-3.554,3.488-4.56,5.834
            c-1.007,2.347-1.543,4.896-1.543,9.053s0.536,9.926,1.878,14.552c1.341,4.628,3.488,8.114,6.841,12.474
            c3.354,4.358,7.914,9.589,13.411,14.418c5.5,4.827,11.938,9.254,20.387,14.082s18.91,10.059,29.305,14.149
            c10.394,4.091,20.721,7.041,30.847,9.79c10.126,2.748,20.051,5.298,30.437,7.729c10.387,2.432,21.235,4.744,30.687,6.336
            c9.45,1.589,17.506,2.454,24.778,4.243c-4.023-29.774-8.449-50.294-12.07-65.851c-3.621-15.559-6.439-26.154-9.254-35.407
            c-2.816-9.255-5.634-17.168-8.717-24.545c-3.087-7.375-6.439-14.216-10.597-21.324c-4.158-7.108-9.12-14.483-13.479-19.849
            c-4.358-5.364-8.113-8.718-13.009-12.271s-10.931-7.31-15.625-9.388c-4.693-2.079-8.047-2.482-11.533-2.482
            c-3.487,0-7.108,0.403-9.926,1.409c-2.813,1.005-4.827,2.614-6.167,4.762c-1.343,2.146-2.013,4.827-2.147,7.576
            c-0.134,2.749,0.268,5.565,1.273,8.181s2.615,5.03,6.17,8.181c3.554,3.152,9.053,7.042,15.891,12.07
            c6.842,5.029,15.023,11.2,21.996,17.369c6.974,6.169,12.741,12.338,17.436,17.771c4.695,5.431,8.315,10.126,12.473,16.696
            c4.157,6.572,8.852,15.022,12.473,22.667c3.621,7.644,6.17,14.484,8.249,20.988c2.079,6.505,3.688,12.675,5.197,19.582
            C547.479,530.3,548.887,537.945,550.094,550.015z"/>
    <path fill="#FFFFFF" stroke="#000000" stroke-width="1.5" stroke-miterlimit="10" d="M550.094,52.252
            c-25.751,2.816-43.051,8.047-55.858,12.942c-12.81,4.896-21.124,9.455-29.572,15.021c-8.449,5.566-17.033,12.138-24.276,18.709
            c-7.243,6.572-13.142,13.144-18.911,20.521c-5.767,7.376-11.398,15.558-15.891,21.727c-4.494,6.168-7.847,10.327-11.535,13.144
            c-3.688,2.816-7.711,4.292-11.064,4.76c-3.353,0.469-6.035-0.066-8.114-1.408c-2.079-1.342-3.554-3.487-4.56-5.833
            c-1.007-2.346-1.543-4.896-1.543-9.052c0-4.158,0.536-9.925,1.878-14.552c1.341-4.627,3.488-8.114,6.841-12.473
            c3.354-4.359,7.914-9.589,13.411-14.417c5.5-4.829,11.938-9.254,20.387-14.083c8.449-4.828,18.91-10.058,29.305-14.149
            c10.394-4.09,20.721-7.042,30.847-9.791c10.126-2.749,20.051-5.297,30.437-7.728c10.387-2.431,21.235-4.745,30.687-6.334
            c9.45-1.59,17.506-2.456,24.778-4.244c-4.023,29.774-8.449,50.294-12.07,65.851c-3.621,15.557-6.439,26.153-9.254,35.407
            c-2.816,9.254-5.634,17.167-8.717,24.543c-3.087,7.376-6.439,14.216-10.597,21.324c-4.158,7.109-9.12,14.485-13.479,19.849
            c-4.358,5.365-8.113,8.718-13.009,12.271c-4.896,3.555-10.931,7.31-15.625,9.388c-4.693,2.079-8.047,2.481-11.533,2.481
            c-3.487,0-7.108-0.402-9.926-1.408c-2.813-1.006-4.827-2.615-6.167-4.761c-1.343-2.146-2.013-4.828-2.147-7.577
            c-0.134-2.75,0.268-5.566,1.273-8.181s2.615-5.029,6.17-8.181c3.554-3.151,9.053-7.042,15.891-12.07
            c6.842-5.029,15.023-11.199,21.996-17.368c6.974-6.17,12.741-12.339,17.436-17.77c4.695-5.432,8.315-10.125,12.473-16.697
            s8.852-15.021,12.473-22.667c3.621-7.645,6.17-14.484,8.249-20.989c2.079-6.505,3.688-12.674,5.197-19.581
            C547.479,71.967,548.887,64.322,550.094,52.252z"/>
    <path fill="#FFFFFF" stroke="#000000" stroke-width="1.5" stroke-miterlimit="10" d="M52.147,52.252
            c25.75,2.816,43.052,8.047,55.858,12.942c12.809,4.896,21.124,9.455,29.572,15.021c8.45,5.566,17.032,12.138,24.276,18.709
            c7.243,6.572,13.142,13.144,18.911,20.521c5.767,7.376,11.4,15.558,15.893,21.727c4.493,6.169,7.846,10.327,11.534,13.144
            c3.688,2.816,7.711,4.292,11.064,4.76c3.353,0.469,6.035-0.066,8.114-1.408c2.08-1.342,3.554-3.487,4.561-5.833
            c1.005-2.346,1.542-4.896,1.542-9.052c0-4.158-0.538-9.925-1.878-14.552c-1.34-4.627-3.486-8.114-6.84-12.473
            s-7.914-9.589-13.412-14.417c-5.499-4.829-11.937-9.254-20.387-14.083c-8.449-4.828-18.91-10.058-29.304-14.149
            c-10.394-4.09-20.721-7.042-30.846-9.791c-10.126-2.749-20.051-5.297-30.438-7.728c-10.385-2.431-21.233-4.745-30.686-6.334
            c-9.45-1.59-17.503-2.456-24.777-4.244c4.022,29.774,8.449,50.294,12.07,65.851c3.621,15.557,6.438,26.153,9.255,35.407
            c2.815,9.254,5.632,17.167,8.717,24.543c3.085,7.376,6.438,14.216,10.595,21.324c4.158,7.108,9.119,14.485,13.479,19.849
            c4.358,5.365,8.114,8.718,13.008,12.271c4.896,3.555,10.931,7.31,15.625,9.388c4.694,2.079,8.047,2.481,11.534,2.481
            c3.487,0,7.107-0.402,9.924-1.408c2.816-1.006,4.828-2.615,6.17-4.761c1.341-2.146,2.011-4.828,2.146-7.577
            c0.132-2.75-0.269-5.566-1.274-8.181c-1.006-2.615-2.615-5.029-6.17-8.181c-3.554-3.151-9.053-7.042-15.892-12.07
            c-6.84-5.029-15.021-11.199-21.995-17.368c-6.974-6.169-12.74-12.339-17.436-17.77c-4.693-5.432-8.315-10.125-12.472-16.697
            s-8.852-15.021-12.473-22.667c-3.621-7.645-6.169-14.484-8.248-20.989c-2.079-6.505-3.688-12.674-5.198-19.581
            C54.763,71.967,53.354,64.322,52.147,52.252z"/>
		
</g>
</svg>
