<?xml version="1.0" encoding="utf-8"?>
<!-- Generator: Adobe Illustrator 16.0.0, SVG Export Plug-In . SVG Version: 6.00 Build 0)  -->
<!DOCTYPE svg PUBLIC "-//W3C//DTD SVG 1.1//EN" "http://www.w3.org/Graphics/SVG/1.1/DTD/svg11.dtd" [
	<!ENTITY ns_flows "http://ns.adobe.com/Flows/1.0/">
	<!ENTITY ns_extend "http://ns.adobe.com/Extensibility/1.0/">
	<!ENTITY ns_ai "http://ns.adobe.com/AdobeIllustrator/10.0/">
	<!ENTITY ns_graphs "http://ns.adobe.com/Graphs/1.0/">
]>
<svg version="1.1" id="t1" xmlns:x="&ns_extend;" xmlns:i="&ns_ai;" xmlns:graph="&ns_graphs;"
	 xmlns="http://www.w3.org/2000/svg" xmlns:xlink="http://www.w3.org/1999/xlink" xmlns:a="http://ns.adobe.com/AdobeSVGViewerExtensions/3.0/"
	 x="0px" y="0px" width="550px" height="550px" viewBox="0 0 550 550" enable-background="new 0 0 550 550" xml:space="preserve">
<g>
	
		<rect x="0.363" y="0.363" fill="#FFFFFF" stroke="#000000" stroke-width="1.5" stroke-linecap="round" stroke-linejoin="round" width="549.273" height="549.273"/>
	<path fill="#FFFFFF" stroke="#000000" stroke-width="1.5" stroke-miterlimit="10" d="M0,0v550h550V0H0z M276.322,161.885
		c0.061-1.974,0.183-4.369,0.592-6.693c0.414-2.324,1.115-4.577,2.002-6.915c0.889-2.339,1.955-4.762,3.773-7.15
		c1.814-2.387,4.383-4.74,7.696-6.771c3.313-2.031,7.376-3.742,11.652-4.597c4.276-0.856,8.767-0.856,12.688-0.393
		c3.921,0.463,7.271,1.39,10.551,3.313c3.277,1.925,6.484,4.847,8.624,7.84c2.139,2.994,3.209,6.058,3.921,9.088
		c0.712,3.029,1.068,6.023,1.141,8.945c0.07,2.923-0.143,5.773-1.07,8.588c-0.926,2.815-2.563,5.595-4.419,8.054
		c-1.853,2.46-3.922,4.598-6.129,6.486c-2.21,1.889-4.563,3.528-6.771,4.525c-2.208,0.998-4.276,1.354-6.629,1.461
		c-2.354,0.106-4.988-0.036-7.199-0.499c-2.207-0.464-3.99-1.247-5.63-2.495c-1.643-1.247-3.139-2.958-4.242-4.881
		c-1.104-1.925-1.816-4.063-2.172-6.629c-0.357-2.565-0.357-5.559,0.104-8.053c0.464-2.496,1.393-4.49,2.564-5.917
		c1.178-1.425,2.604-2.281,5.133-2.886s6.165-0.962,9.054-0.962c2.888,0,5.023,0.357,6.521,0.962
		c1.497,0.606,2.354,1.461,3.027,2.459c0.68,0.998,1.178,2.138,1.714,2.958c0.531,0.82,1.104,1.319,2.103,1.569
		c0.996,0.249,2.424,0.249,3.527-0.036c1.104-0.285,1.891-0.854,2.424-2.031c0.535-1.176,0.819-2.958,0.819-4.989
		c0-2.03-0.284-4.312-1.032-6.593c-0.747-2.281-1.96-4.562-3.527-6.45c-1.567-1.889-3.493-3.386-5.952-4.704
		c-2.46-1.318-5.453-2.46-8.27-2.923c-2.813-0.461-5.451-0.249-8.373,0.25c-2.925,0.499-6.131,1.282-8.911,2.602
		c-2.78,1.318-5.132,3.171-7.198,5.773c-2.064,2.601-3.85,5.95-4.847,9.372c-0.999,3.421-1.213,6.913-1.247,10.406
		c-0.035,3.492,0.104,6.985,0.961,10.121c0.856,3.136,2.424,5.915,4.35,8.624s4.205,5.346,6.881,7.627
		c2.672,2.281,5.735,4.205,8.837,5.346c3.101,1.141,6.234,1.497,9.87,1.569c3.635,0.071,7.77-0.142,11.901-1.033
		c4.136-0.892,8.27-2.46,12.688-4.669c4.42-2.209,9.123-5.06,13.506-7.876c4.383-2.815,8.447-5.595,12.116-8.553
		c3.671-2.957,6.948-6.094,10.439-9.516c3.492-3.42,7.2-7.127,11.583-11.795c4.384-4.668,9.444-10.299,13.365-14.933
		c3.919-4.633,6.698-8.269,9.586-12.081c2.887-3.813,5.88-7.805,9.087-12.366c3.209-4.562,6.63-9.694,9.623-14.327
		c2.994-4.633,5.56-8.768,8.519-13.151c2.957-4.384,6.309-9.016,9.77-13.205c3.46-4.189,7.033-7.935,10.435-11.482
		c3.402-3.548,6.64-6.896,9.669-9.609s5.858-4.792,8.688-6.494c2.829-1.704,5.658-3.032,8.169-3.812
		c2.511-0.779,4.706-1.01,8.054-0.692c3.352,0.317,7.854,1.183,12.735,5.373c4.21,4.864,5.096,9.364,5.428,12.711
		c0.333,3.346,0.108,5.541-0.659,8.056c-0.769,2.516-2.083,5.349-3.772,8.186c-1.689,2.836-3.756,5.674-6.456,8.717
		c-2.701,3.042-6.037,6.291-9.568,9.708c-3.532,3.417-7.263,7.004-11.437,10.484c-4.176,3.478-8.794,6.848-13.166,9.825
		c-4.371,2.977-8.492,5.56-13.112,8.575c-4.62,3.013-9.737,6.456-14.285,9.683c-4.547,3.228-8.522,6.238-12.327,9.142
		c-3.802,2.903-7.424,5.698-12.041,9.638c-4.613,3.939-10.224,9.024-14.873,13.427c-4.647,4.403-8.342,8.125-11.747,11.634
		c-3.405,3.506-6.525,6.8-9.47,10.481c-2.94,3.684-5.705,7.758-8.501,12.153c-2.796,4.396-5.627,9.112-7.815,13.541
		c-2.191,4.428-3.741,8.57-4.613,12.708c-0.874,4.138-1.07,8.272-0.982,11.907c0.088,3.635,0.456,6.77,1.609,9.866
		s3.091,6.152,5.385,8.815c2.291,2.663,4.939,4.933,7.653,6.845c2.718,1.914,5.505,3.471,8.645,4.312
		c3.142,0.842,6.635,0.969,10.126,0.919c3.492-0.051,6.982-0.279,10.399-1.292s6.76-2.808,9.351-4.888
		c2.596-2.078,4.438-4.438,5.744-7.223c1.308-2.785,2.076-5.997,2.563-8.921c0.484-2.925,0.688-5.563,0.214-8.376
		c-0.475-2.814-1.629-5.802-2.958-8.256c-1.33-2.453-2.834-4.371-4.73-5.931c-1.895-1.56-4.18-2.763-6.464-3.501
		c-2.284-0.739-4.564-1.013-6.6-1.004c-2.03,0.008-3.813,0.301-4.984,0.841c-1.175,0.539-1.741,1.327-2.021,2.432
		c-0.282,1.106-0.274,2.531-0.021,3.528c0.255,0.997,0.755,1.564,1.576,2.096c0.824,0.531,1.965,1.025,2.967,1.699
		c1.001,0.672,1.86,1.523,2.472,3.018c0.612,1.494,0.979,3.63,0.991,6.518c0.013,2.886-0.329,6.523-0.924,9.056
		c-0.596,2.532-1.442,3.961-2.865,5.145c-1.421,1.183-3.409,2.118-5.901,2.592c-2.494,0.475-5.488,0.485-8.056,0.141
		c-2.566-0.346-4.71-1.049-6.639-2.145c-1.93-1.098-3.646-2.588-4.901-4.221c-1.255-1.634-2.045-3.412-2.519-5.621
		c-0.474-2.207-0.627-4.844-0.53-7.195c0.099-2.353,0.444-4.421,1.435-6.635c0.987-2.214,2.616-4.573,4.499-6.791
		c1.878-2.219,4.008-4.295,6.458-6.159c2.448-1.863,5.225-3.515,8.034-4.454c2.811-0.939,5.66-1.165,8.584-1.106
		c2.924,0.059,5.918,0.402,8.948,1.102c3.033,0.7,6.104,1.756,9.104,3.881c3.004,2.125,5.939,5.32,7.879,8.591
		c1.938,3.27,2.88,6.616,3.359,10.534c0.479,3.919,0.5,8.409-0.341,12.689c-0.835,4.279-2.526,8.35-4.546,11.671
		c-2.018,3.324-4.356,5.9-6.734,7.728c-2.383,1.828-4.801,2.907-7.136,3.804c-2.336,0.896-4.583,1.609-6.905,2.031
		c-2.321,0.422-4.72,0.553-6.689,0.623c-1.971,0.068-3.522,0.076-5.41,0.054c-1.886-0.021-4.107-0.069-6.283-0.433
		c-2.173-0.362-4.297-1.038-7.46-2.521c-3.16-1.481-7.362-3.771-10.568-5.923c-3.205-2.15-5.413-4.166-7.052-6.402
		c-1.639-2.237-2.702-4.696-3.551-6.981c-0.845-2.284-1.472-4.394-1.748-7.251c-0.274-2.859-0.2-6.467,0.093-9.944
		c0.294-3.478,0.806-6.823,1.96-11.085c1.152-4.262,2.948-9.439,4.735-13.533c1.787-4.093,3.563-7.104,5.479-10.34
		c1.918-3.237,3.974-6.701,5.465-9.227c1.489-2.526,2.415-4.116,2.932-5.035c0.517-0.92,0.62-1.171,0.656-1.397
		c0.034-0.226-0.002-0.424-0.107-0.556c-0.109-0.132-0.294-0.196-0.927-0.514c-0.317-0.632-0.386-0.813-0.519-0.921
		c-0.13-0.11-0.331-0.145-0.558-0.108c-0.226,0.036-0.476,0.142-1.394,0.663c-0.917,0.52-2.504,1.452-5.024,2.953
		c-2.519,1.502-5.975,3.572-9.201,5.504c-3.229,1.93-6.23,3.72-10.315,5.523c-4.086,1.804-9.256,3.621-13.513,4.794
		c-4.259,1.172-7.604,1.7-11.076,2.009c-3.479,0.308-7.084,0.396-9.944,0.131c-2.857-0.263-4.971-0.879-7.259-1.716
		c-2.287-0.836-4.752-1.892-6.996-3.521c-2.244-1.627-4.267-3.827-6.434-7.024c-2.164-3.195-4.474-7.388-5.968-10.545
		c-1.496-3.157-2.183-5.276-2.554-7.449c-0.37-2.172-0.43-4.396-0.461-6.283C276.264,165.408,276.264,163.858,276.322,161.885z
		 M520.971,498.394c-1.511-6.905-3.119-13.075-5.195-19.582c-2.079-6.504-4.628-13.345-8.249-20.986
		c-3.621-7.646-8.315-16.094-12.475-22.667c-4.157-6.571-7.775-11.268-12.473-16.696c-4.694-5.432-10.462-11.601-17.438-17.771
		c-6.973-6.17-15.153-12.341-21.995-17.369c-6.84-5.028-12.338-8.918-15.892-12.07c-3.555-3.148-5.164-5.564-6.17-8.182
		c-1.006-2.615-1.407-5.432-1.272-8.182c0.136-2.748,0.806-5.431,2.146-7.576c1.34-2.146,3.354-3.756,6.167-4.762
		c2.817-1.006,6.438-1.408,9.926-1.408s6.841,0.402,11.533,2.481c4.694,2.08,10.729,5.834,15.625,9.388
		c4.896,3.555,8.65,6.907,13.009,12.271c4.359,5.365,9.321,12.74,13.479,19.849c4.155,7.108,7.51,13.948,10.597,21.325
		c3.083,7.376,5.9,15.289,8.717,24.544c2.814,9.253,5.632,19.849,9.254,35.407c3.621,15.557,8.047,36.075,12.07,65.851
		c-7.271-1.788-15.328-2.652-24.778-4.243c-9.45-1.592-20.3-3.902-30.687-6.336c-10.386-2.431-20.313-4.979-30.438-7.729
		s-20.453-5.7-30.847-9.79c-10.396-4.091-20.855-9.32-29.305-14.149c-8.45-4.828-14.889-9.255-20.389-14.082
		c-5.497-4.826-10.058-10.06-13.409-14.418c-3.354-4.357-5.5-7.847-6.843-12.474c-1.342-4.625-1.878-10.395-1.878-14.552
		s0.536-6.705,1.543-9.055c1.006-2.347,2.481-4.492,4.562-5.834c2.079-1.342,4.762-1.877,8.112-1.406
		c3.354,0.47,7.379,1.943,11.064,4.762c3.689,2.813,7.041,6.974,11.535,13.143c4.493,6.17,10.124,14.353,15.891,21.729
		c5.771,7.376,11.668,13.948,18.911,20.52c7.243,6.572,15.827,13.146,24.276,18.71c8.448,5.566,16.764,10.127,29.571,15.021
		c12.81,4.896,30.106,10.127,55.857,12.939C523.887,512.945,522.479,505.3,520.971,498.394z M449.586,208.645
		c-4.693,2.079-8.047,2.481-11.533,2.481c-3.485,0-7.106-0.402-9.926-1.408c-2.813-1.006-4.826-2.615-6.167-4.761
		c-1.343-2.146-2.013-4.828-2.147-7.577c-0.134-2.75,0.27-5.566,1.273-8.181c1.005-2.615,2.615-5.029,6.17-8.181
		c3.555-3.151,9.053-7.042,15.893-12.07c6.842-5.029,15.021-11.199,21.994-17.368c6.976-6.17,12.741-12.339,17.438-17.77
		c4.694-5.432,8.314-10.125,12.473-16.697c4.158-6.572,8.854-15.021,12.475-22.667c3.621-7.645,6.17-14.484,8.249-20.989
		s3.688-12.674,5.195-19.581c1.511-6.907,2.916-14.552,4.123-26.622c-25.751,2.816-43.051,8.047-55.856,12.942
		c-12.812,4.895-21.124,9.455-29.572,15.021c-8.449,5.565-17.033,12.138-24.276,18.709c-7.241,6.571-13.142,13.144-18.909,20.52
		c-5.769,7.376-11.398,15.558-15.893,21.727c-4.494,6.168-7.847,10.327-11.535,13.144c-3.688,2.816-7.711,4.292-11.063,4.761
		c-3.354,0.469-6.035-0.067-8.113-1.409c-2.08-1.342-3.555-3.487-4.561-5.833c-1.009-2.347-1.543-4.896-1.543-9.052
		c0-4.158,0.534-9.925,1.878-14.552c1.341-4.627,3.485-8.114,6.841-12.473c3.354-4.359,7.914-9.59,13.411-14.417
		c5.5-4.829,11.937-9.254,20.387-14.083c8.449-4.828,18.91-10.059,29.305-14.148c10.396-4.091,20.723-7.042,30.849-9.791
		s20.05-5.297,30.437-7.728c10.387-2.431,21.235-4.745,30.688-6.334c9.448-1.59,17.506-2.456,24.776-4.244
		c-4.021,29.774-8.45,50.294-12.068,65.851c-3.621,15.557-6.439,26.153-9.255,35.407c-2.815,9.255-5.635,17.167-8.718,24.543
		c-3.087,7.377-6.438,14.216-10.597,21.324c-4.158,7.109-9.12,14.485-13.479,19.849c-4.357,5.365-8.112,8.718-13.01,12.271
		C460.315,202.811,454.28,206.566,449.586,208.645z M298.529,220.458c12.401,0,22.458,10.055,22.458,22.459
		c0,12.403-10.057,22.459-22.458,22.459c-12.404,0-22.459-10.056-22.459-22.459C276.07,230.513,286.125,220.458,298.529,220.458z
		 M4.077,3.172C11.759,3.106,18.522,3.139,28.7,3.34c10.178,0.202,23.768,0.57,33.229,0.804c9.462,0.235,14.795,0.333,22.051,0.587
		c7.255,0.255,16.431,0.663,27.966,1.512c11.537,0.85,25.43,2.143,36.728,3.593c11.297,1.452,19.996,3.063,27.783,4.459
		s14.661,2.578,23.631,4.916c8.969,2.339,20.034,5.833,28.225,8.685s13.51,5.062,18.022,7.178c4.513,2.116,8.222,4.138,10.785,5.731
		c2.563,1.59,3.989,2.751,5.505,4.269c1.516,1.516,3.126,3.389,4.457,5.056c1.33,1.666,2.379,3.127,3.146,4.887
		c0.768,1.76,1.254,3.82,1.349,5.88c0.093,2.06-0.207,4.119-1.368,6.183c-1.16,2.065-3.186,4.133-4.938,5.951
		c-1.75,1.817-3.231,3.383-5.057,4.558c-1.826,1.174-4.002,1.958-6.48,2.392c-2.48,0.435-5.265,0.522-8.481-0.565
		c-3.22-1.088-6.873-3.35-11.615-6.524c-4.742-3.176-10.57-7.264-17.965-12.18c-7.394-4.915-16.355-10.657-25.925-15.833
		c-9.569-5.177-19.749-9.788-30.753-13.703c-11.005-3.916-22.838-7.134-34.277-9.744c-11.44-2.609-22.489-4.611-33.842-6.265
		c-11.353-1.653-23.011-2.957-36.083-3.871C41.72,10.383,27.234,9.861,10.532,9.6c1.044,9.917,1.173,16.964,1.283,24.229
		c0.109,7.265,0.195,14.746,0.63,22.141c0.434,7.396,1.218,14.702,2.305,23.272c1.087,8.569,2.48,18.401,3.916,26.665
		c1.435,8.265,2.914,14.964,4.437,21.401c1.523,6.438,3.089,12.615,5.003,18.835c1.914,6.22,4.176,12.485,6.508,18.763
		c2.332,6.278,4.733,12.571,7.021,17.774c2.288,5.203,4.46,9.318,6.771,13.433c2.312,4.115,4.763,8.229,7.375,12.229
		c2.613,3.999,5.385,7.883,8.392,12.044c3.006,4.161,6.243,8.6,8.693,12.159c2.45,3.559,4.115,6.241,5.317,8.669
		c1.203,2.427,1.941,4.6,2.358,7.051c0.416,2.45,0.508,5.178-0.116,7.605s-1.964,4.554-3.768,6.889
		c-1.804,2.335-4.07,4.878-6.034,6.681c-1.964,1.804-3.63,2.867-5.456,3.397c-1.827,0.532-3.815,0.532-5.688,0.277
		c-1.872-0.255-3.63-0.765-5.594-1.539c-1.964-0.777-4.137-1.821-6.681-4.397c-2.544-2.578-5.463-6.688-8.114-11.527
		c-2.652-4.842-5.039-10.41-7.691-17.238c-2.651-6.828-5.569-14.917-7.89-22.542c-2.32-7.625-4.043-14.785-5.77-23.206
		c-1.721-8.42-3.446-18.1-4.84-27.491c-1.394-9.391-2.459-18.493-3.76-32.439c-1.303-13.95-2.84-32.741-5.061-104.104
		C4.077,20.146,4.077,11.659,4.077,3.172z M31.27,53.874c1.511,6.907,3.119,13.077,5.198,19.581
		c2.078,6.505,4.626,13.344,8.248,20.99c3.621,7.644,8.316,16.093,12.473,22.666c4.157,6.573,7.779,11.266,12.472,16.697
		c4.695,5.432,10.462,11.601,17.436,17.77c6.974,6.168,15.156,12.338,21.995,17.368c6.84,5.028,12.338,8.919,15.892,12.07
		c3.555,3.152,5.164,5.566,6.17,8.181c1.006,2.615,1.406,5.431,1.274,8.181c-0.135,2.75-0.805,5.432-2.146,7.577
		c-1.342,2.146-3.354,3.755-6.17,4.761c-2.816,1.006-6.438,1.408-9.924,1.408c-3.488,0-6.841-0.402-11.534-2.481
		c-4.693-2.08-10.729-5.833-15.625-9.388c-4.894-3.554-8.65-6.908-13.008-12.272c-4.36-5.363-9.321-12.741-13.479-19.849
		c-4.157-7.108-7.51-13.948-10.595-21.324c-3.085-7.376-5.902-15.289-8.717-24.543c-2.817-9.255-5.633-19.85-9.255-35.407
		c-3.621-15.558-8.047-36.078-12.07-65.852c7.274,1.789,15.327,2.655,24.778,4.244c9.452,1.59,20.3,3.903,30.685,6.334
		c10.387,2.431,20.312,4.98,30.438,7.729c10.125,2.749,20.452,5.699,30.846,9.79c10.395,4.091,20.855,9.321,29.304,14.149
		c8.45,4.828,14.888,9.253,20.387,14.083c5.498,4.828,10.058,10.058,13.412,14.417c3.353,4.359,5.5,7.846,6.84,12.473
		c1.341,4.627,1.878,10.394,1.878,14.552c0,4.158-0.538,6.706-1.542,9.052c-1.006,2.347-2.482,4.493-4.56,5.833
		c-2.079,1.341-4.761,1.878-8.114,1.409c-3.354-0.469-7.376-1.944-11.064-4.761c-3.688-2.816-7.042-6.974-11.534-13.144
		c-4.493-6.169-10.126-14.351-15.893-21.726c-5.768-7.377-11.668-13.948-18.911-20.521c-7.244-6.571-15.826-13.143-24.276-18.71
		c-8.449-5.565-16.764-10.125-29.572-15.021c-12.805-4.892-30.106-10.123-55.856-12.939C28.354,39.322,29.763,46.967,31.27,53.874z
		 M83.006,512.072c12.809-4.896,21.124-9.454,29.572-15.021c8.45-5.563,17.032-12.138,24.276-18.71
		c7.243-6.571,13.142-13.143,18.911-20.52c5.767-7.377,11.4-15.56,15.893-21.729c4.493-6.169,7.846-10.327,11.534-13.143
		c3.688-2.816,7.711-4.292,11.064-4.762c3.353-0.471,6.035,0.064,8.114,1.406c2.08,1.343,3.554,3.487,4.561,5.834
		c1.005,2.35,1.542,4.896,1.542,9.055c0,4.155-0.538,9.926-1.878,14.552c-1.34,4.628-3.486,8.114-6.84,12.474
		c-3.354,4.358-7.914,9.589-13.412,14.417c-5.499,4.828-11.937,9.256-20.387,14.083c-8.449,4.828-18.91,10.061-29.304,14.149
		s-20.721,7.041-30.846,9.79c-10.126,2.748-20.051,5.298-30.438,7.729c-10.385,2.434-21.233,4.744-30.686,6.336
		c-9.45,1.589-17.503,2.454-24.777,4.243c4.022-29.772,8.449-50.294,12.07-65.852c3.621-15.56,6.438-26.153,9.255-35.407
		c2.815-9.254,5.632-17.167,8.717-24.544c3.085-7.375,6.438-14.216,10.595-21.324c4.158-7.108,9.119-14.483,13.479-19.851
		c4.358-5.363,8.114-8.719,13.008-12.271c4.896-3.554,10.931-7.308,15.625-9.387c4.694-2.078,8.047-2.479,11.534-2.479
		s7.107,0.399,9.924,1.405c2.816,1.009,4.828,2.615,6.17,4.763c1.341,2.146,2.011,4.827,2.146,7.576
		c0.132,2.749-0.269,5.565-1.274,8.182c-1.006,2.615-2.615,5.028-6.17,8.183c-3.554,3.15-9.053,7.041-15.892,12.07
		c-6.84,5.026-15.021,11.197-21.995,17.368c-6.974,6.169-12.74,12.338-17.436,17.771c-4.693,5.431-8.315,10.126-12.472,16.696
		c-4.157,6.57-8.852,15.021-12.473,22.667c-3.621,7.645-6.169,14.482-8.248,20.986c-2.079,6.507-3.688,12.677-5.198,19.582
		c-1.508,6.906-2.916,14.554-4.123,26.621C52.898,522.199,70.199,516.968,83.006,512.072z M271.575,487.972
		c-0.095,2.061-0.581,4.118-1.349,5.878c-0.768,1.763-1.816,3.223-3.146,4.889c-1.33,1.668-2.939,3.54-4.457,5.057
		c-1.516,1.516-2.941,2.678-5.505,4.27c-2.563,1.594-6.272,3.613-10.785,5.729c-4.513,2.116-9.83,4.326-18.022,7.179
		c-8.191,2.854-19.255,6.349-28.225,8.687c-8.969,2.339-15.844,3.521-23.631,4.917c-7.787,1.396-16.486,3.007-27.783,4.459
		c-11.299,1.452-25.191,2.743-36.728,3.594c-11.535,0.849-20.71,1.257-27.966,1.511c-7.255,0.255-12.589,0.354-22.051,0.588
		c-9.462,0.233-23.052,0.604-33.229,0.805c-10.178,0.203-16.941,0.233-24.623,0.169c0-8.487,0-16.977,0-25.46
		c2.222-71.363,3.758-90.154,5.06-104.104c1.301-13.946,2.366-23.049,3.76-32.438c1.394-9.394,3.119-19.071,4.84-27.491
		c1.727-8.42,3.449-15.581,5.77-23.206c2.321-7.624,5.239-15.713,7.889-22.542c2.653-6.828,5.039-12.397,7.691-17.237
		s5.57-8.949,8.114-11.525c2.544-2.578,4.716-3.623,6.681-4.398c1.965-0.775,3.723-1.285,5.594-1.539
		c1.873-0.254,3.861-0.254,5.687,0.277c1.826,0.533,3.492,1.596,5.456,3.398c1.965,1.805,4.23,4.348,6.034,6.682
		c1.804,2.336,3.144,4.461,3.768,6.889c0.625,2.428,0.531,5.156,0.116,7.605c-0.417,2.451-1.156,4.623-2.358,7.051
		c-1.202,2.429-2.867,5.109-5.317,8.671c-2.45,3.562-5.687,7.998-8.692,12.159c-3.006,4.16-5.779,8.045-8.393,12.043
		c-2.612,3.998-5.063,8.115-7.374,12.229c-2.312,4.115-4.484,8.229-6.772,13.436c-2.287,5.202-4.688,11.496-7.02,17.772
		c-2.332,6.279-4.594,12.543-6.508,18.764c-1.915,6.222-3.48,12.396-5.003,18.837c-1.522,6.438-3.001,13.137-4.436,21.399
		c-1.436,8.267-2.829,18.097-3.916,26.664c-1.087,8.57-1.871,15.879-2.305,23.272c-0.436,7.395-0.522,14.876-0.63,22.142
		c-0.109,7.266-0.239,14.313-1.283,24.229c16.703-0.264,31.188-0.783,44.259-1.695c13.072-0.914,24.729-2.219,36.083-3.872
		c11.354-1.652,22.402-3.653,33.842-6.264c11.44-2.609,23.272-5.829,34.277-9.744c11.004-3.915,21.184-8.526,30.753-13.702
		c9.569-5.177,18.531-10.919,25.925-15.834c7.395-4.915,13.224-9.004,17.965-12.18c4.742-3.177,8.396-5.438,11.615-6.524
		c3.218-1.088,6.002-1.001,8.481-0.563c2.479,0.436,4.654,1.219,6.481,2.393c1.825,1.174,3.306,2.741,5.058,4.558
		c1.75,1.817,3.774,3.888,4.937,5.95C271.369,483.852,271.668,485.912,271.575,487.972z M273.68,387.572
		c-0.06,1.975-0.182,4.368-0.594,6.69c-0.413,2.324-1.113,4.578-2.001,6.917c-0.886,2.337-1.955,4.763-3.772,7.147
		c-1.817,2.389-4.383,4.74-7.696,6.771c-3.315,2.031-7.378,3.74-11.654,4.599c-4.276,0.854-8.768,0.854-12.687,0.393
		c-3.921-0.464-7.27-1.391-10.55-3.313c-3.277-1.927-6.484-4.849-8.623-7.843c-2.138-2.99-3.208-6.058-3.92-9.087
		c-0.713-3.026-1.07-6.021-1.141-8.943c-0.07-2.921,0.143-5.773,1.069-8.587c0.927-2.816,2.566-5.597,4.42-8.057
		c1.853-2.459,3.919-4.597,6.129-6.485c2.208-1.89,4.561-3.527,6.77-4.524c2.21-0.998,4.277-1.354,6.629-1.462
		c2.353-0.105,4.989,0.036,7.199,0.5s3.992,1.247,5.631,2.495c1.637,1.247,3.135,2.956,4.241,4.883
		c1.105,1.924,1.816,4.063,2.174,6.629c0.355,2.564,0.355,5.56-0.107,8.055c-0.463,2.493-1.389,4.489-2.564,5.913
		c-1.175,1.428-2.601,2.282-5.132,2.889c-2.53,0.604-6.166,0.962-9.051,0.962c-2.887,0-5.027-0.355-6.522-0.962
		c-1.497-0.604-2.352-1.463-3.028-2.46c-0.677-0.995-1.177-2.14-1.711-2.958c-0.536-0.818-1.105-1.317-2.104-1.565
		c-0.997-0.251-2.422-0.251-3.527,0.034s-1.888,0.854-2.424,2.031c-0.534,1.176-0.819,2.957-0.819,4.989
		c0,2.03,0.286,4.312,1.033,6.593c0.749,2.278,1.96,4.562,3.53,6.448c1.566,1.893,3.492,3.388,5.952,4.703
		c2.458,1.319,5.452,2.46,8.267,2.924s5.454,0.25,8.375-0.25c2.922-0.499,6.129-1.279,8.909-2.602
		c2.78-1.319,5.133-3.173,7.199-5.773c2.068-2.602,3.85-5.952,4.848-9.372c0.997-3.422,1.211-6.914,1.247-10.404
		c0.036-3.493-0.106-6.985-0.963-10.122c-0.854-3.139-2.422-5.915-4.346-8.626c-1.925-2.707-4.207-5.346-6.88-7.625
		c-2.672-2.28-5.736-4.205-8.838-5.344c-3.099-1.144-6.236-1.498-9.871-1.568c-3.635-0.071-7.771,0.143-11.905,1.033
		c-4.132,0.891-8.267,2.457-12.686,4.668c-4.419,2.207-9.123,5.061-13.507,7.877c-4.382,2.813-8.446,5.593-12.117,8.553
		c-3.671,2.958-6.949,6.095-10.441,9.516c-3.492,3.421-7.198,7.127-11.583,11.796c-4.382,4.667-9.442,10.301-13.364,14.934
		c-3.921,4.632-6.701,8.267-9.587,12.082c-2.887,3.813-5.881,7.804-9.086,12.365c-3.208,4.563-6.629,9.691-9.623,14.324
		c-2.994,4.637-5.56,8.77-8.517,13.15c-2.96,4.383-6.31,9.017-9.77,13.206c-3.461,4.188-7.034,7.935-10.436,11.48
		c-3.402,3.549-6.634,6.896-9.666,9.608c-3.032,2.715-5.861,4.793-8.69,6.496c-2.829,1.702-5.658,3.03-8.169,3.811
		c-2.511,0.779-4.704,1.013-8.053,0.692c-3.347-0.317-7.852-1.185-12.735-5.372c-4.208-4.865-5.094-9.365-5.427-12.711
		c-0.332-3.348-0.11-5.543,0.659-8.057c0.768-2.518,2.084-5.351,3.774-8.188c1.692-2.835,3.758-5.674,6.458-8.716
		c2.7-3.043,6.035-6.291,9.567-9.708c3.533-3.419,7.263-7.005,11.438-10.484c4.175-3.479,8.793-6.85,13.163-9.826
		c4.371-2.977,8.495-5.561,13.113-8.571c4.622-3.016,9.738-6.457,14.285-9.687c4.549-3.227,8.527-6.236,12.329-9.141
		c3.8-2.903,7.424-5.698,12.04-9.638c4.615-3.94,10.226-9.025,14.875-13.431c4.649-4.401,8.339-8.125,11.746-11.631
		c3.406-3.508,6.528-6.8,9.471-10.482c2.94-3.685,5.703-7.758,8.5-12.153s5.628-9.11,7.816-13.54
		c2.192-4.428,3.741-8.57,4.616-12.707c0.872-4.139,1.069-8.271,0.982-11.907c-0.087-3.634-0.458-6.769-1.61-9.864
		c-1.154-3.096-3.092-6.151-5.384-8.813c-2.293-2.662-4.939-4.933-7.656-6.847c-2.718-1.912-5.503-3.469-8.643-4.312
		c-3.141-0.841-6.634-0.969-10.125-0.918c-3.493,0.051-6.984,0.278-10.399,1.292c-3.417,1.014-6.76,2.807-9.352,4.887
		c-2.594,2.077-4.436,4.438-5.743,7.225c-1.308,2.783-2.078,5.994-2.563,8.921c-0.485,2.924-0.689,5.563-0.212,8.376
		c0.475,2.813,1.628,5.801,2.958,8.255c1.329,2.454,2.833,4.372,4.729,5.933s4.182,2.764,6.466,3.502
		c2.284,0.735,4.567,1.012,6.597,1.004c2.033-0.011,3.813-0.303,4.986-0.842c1.173-0.541,1.741-1.324,2.021-2.434
		c0.28-1.104,0.274-2.53,0.02-3.525c-0.253-0.998-0.754-1.564-1.578-2.096c-0.822-0.533-1.963-1.025-2.965-1.699
		c-1.001-0.672-1.858-1.521-2.472-3.017c-0.613-1.495-0.979-3.634-0.989-6.521c-0.014-2.887,0.328-6.522,0.924-9.058
		c0.594-2.531,1.443-3.96,2.862-5.144c1.422-1.185,3.413-2.119,5.906-2.594c2.492-0.474,5.486-0.484,8.053-0.142
		c2.567,0.346,4.708,1.05,6.639,2.146c1.928,1.098,3.646,2.584,4.9,4.219c1.254,1.637,2.047,3.412,2.519,5.621
		c0.473,2.207,0.627,4.844,0.53,7.195c-0.097,2.354-0.443,4.422-1.433,6.635c-0.988,2.215-2.617,4.573-4.497,6.791
		c-1.878,2.219-4.008,4.295-6.46,6.158c-2.451,1.862-5.224,3.514-8.035,4.452c-2.812,0.94-5.662,1.165-8.583,1.106
		c-2.924-0.061-5.917-0.402-8.95-1.103c-3.032-0.698-6.101-1.756-9.104-3.882s-5.938-5.318-7.877-8.591
		c-1.938-3.271-2.879-6.617-3.359-10.534c-0.48-3.919-0.5-8.408,0.337-12.688c0.836-4.279,2.529-8.353,4.546-11.675
		c2.017-3.321,4.358-5.897,6.739-7.727c2.38-1.827,4.799-2.907,7.132-3.806c2.334-0.896,4.584-1.607,6.907-2.029
		c2.323-0.422,4.717-0.555,6.691-0.623c1.972-0.068,3.522-0.076,5.408-0.055c1.889,0.021,4.112,0.07,6.284,0.433
		c2.174,0.36,4.297,1.037,7.459,2.521c3.163,1.479,7.365,3.771,10.57,5.92c3.205,2.15,5.416,4.166,7.052,6.402
		c1.636,2.238,2.704,4.697,3.55,6.98c0.846,2.285,1.471,4.395,1.747,7.254c0.276,2.855,0.205,6.466-0.089,9.943
		c-0.293,3.477-0.806,6.823-1.962,11.082c-1.154,4.262-2.948,9.44-4.735,13.532c-1.786,4.095-3.563,7.104-5.479,10.343
		c-1.917,3.233-3.973,6.7-5.464,9.228c-1.491,2.524-2.416,4.114-2.931,5.036c-0.516,0.92-0.623,1.17-0.657,1.396
		c-0.036,0.226,0,0.425,0.109,0.556c0.107,0.131,0.292,0.194,0.924,0.515c0.321,0.632,0.385,0.813,0.518,0.923
		c0.133,0.107,0.332,0.143,0.556,0.105c0.224-0.036,0.477-0.142,1.394-0.66c0.918-0.521,2.501-1.452,5.023-2.953
		c2.521-1.503,5.976-3.573,9.204-5.505c3.228-1.931,6.229-3.718,10.316-5.523c4.085-1.804,9.255-3.62,13.511-4.794
		c4.258-1.173,7.602-1.699,11.078-2.009c3.476-0.308,7.083-0.396,9.942-0.132c2.861,0.264,4.973,0.879,7.26,1.716
		c2.288,0.836,4.751,1.894,6.997,3.521c2.242,1.627,4.268,3.828,6.432,7.023c2.166,3.195,4.472,7.389,5.969,10.547
		c1.496,3.155,2.18,5.274,2.553,7.446c0.371,2.172,0.43,4.396,0.458,6.283C273.738,384.049,273.738,385.599,273.68,387.572z
		 M243.955,281.813c12.404,0,22.46,10.056,22.46,22.459c0,12.402-10.056,22.459-22.46,22.459s-22.459-10.057-22.459-22.459
		C221.496,291.866,231.551,281.813,243.955,281.813z M221.496,242.917c0-12.404,10.055-22.459,22.459-22.459
		s22.46,10.055,22.46,22.459c0,12.403-10.056,22.459-22.46,22.459S221.496,255.32,221.496,242.917z M273.709,167.294
		c-0.027,1.887-0.087,4.111-0.458,6.283c-0.373,2.172-1.058,4.292-2.553,7.448c-1.497,3.156-3.804,7.349-5.968,10.545
		c-2.166,3.196-4.189,5.396-6.434,7.024c-2.244,1.629-4.708,2.685-6.996,3.521c-2.287,0.835-4.399,1.452-7.261,1.715
		c-2.859,0.264-6.466,0.177-9.942-0.131c-3.477-0.307-6.82-0.835-11.078-2.009c-4.256-1.172-9.426-2.99-13.511-4.794
		c-4.088-1.803-7.088-3.593-10.316-5.523c-3.229-1.932-6.684-4.002-9.205-5.504c-2.521-1.502-4.104-2.434-5.022-2.953
		c-0.917-0.52-1.169-0.626-1.394-0.663c-0.225-0.037-0.424-0.001-0.557,0.108c-0.132,0.107-0.197,0.289-0.518,0.921
		c-0.632,0.318-0.816,0.383-0.923,0.514c-0.109,0.131-0.146,0.33-0.109,0.556c0.034,0.226,0.14,0.477,0.657,1.397
		c0.514,0.919,1.44,2.508,2.931,5.035c1.491,2.526,3.546,5.991,5.464,9.227c1.917,3.237,3.693,6.247,5.479,10.341
		c1.787,4.094,3.58,9.271,4.735,13.533c1.156,4.262,1.669,7.607,1.962,11.085c0.293,3.476,0.365,7.084,0.089,9.944
		c-0.276,2.857-0.9,4.967-1.747,7.251c-0.846,2.284-1.914,4.744-3.55,6.981c-1.636,2.236-3.848,4.252-7.053,6.402
		c-3.206,2.152-7.407,4.44-10.57,5.924c-3.163,1.48-5.285,2.156-7.459,2.52c-2.172,0.363-4.396,0.412-6.284,0.433
		c-1.887,0.021-3.437,0.015-5.408-0.055c-1.974-0.067-4.368-0.2-6.691-0.622c-2.321-0.422-4.572-1.135-6.907-2.031
		c-2.333-0.896-4.751-1.976-7.131-3.804c-2.381-1.827-4.722-4.404-6.739-7.728c-2.017-3.322-3.711-7.392-4.546-11.671
		c-0.836-4.281-0.818-8.77-0.337-12.689c0.48-3.918,1.421-7.265,3.359-10.535c1.939-3.271,4.874-6.465,7.877-8.591
		c3.003-2.125,6.073-3.181,9.104-3.881c3.033-0.7,6.027-1.044,8.95-1.102c2.922-0.058,5.772,0.168,8.583,1.106
		c2.812,0.939,5.584,2.59,8.035,4.454c2.452,1.863,4.582,3.939,6.46,6.158c1.878,2.218,3.508,4.576,4.496,6.791
		c0.989,2.214,1.336,4.282,1.433,6.635c0.099,2.352-0.057,4.988-0.53,7.195c-0.471,2.208-1.265,3.986-2.519,5.621
		c-1.253,1.635-2.971,3.124-4.899,4.221c-1.93,1.097-4.07,1.799-6.639,2.145c-2.567,0.346-5.562,0.333-8.053-0.143
		c-2.492-0.473-4.484-1.409-5.906-2.59c-1.419-1.183-2.269-2.61-2.863-5.145c-0.596-2.533-0.937-6.17-0.923-9.056
		c0.012-2.886,0.377-5.023,0.989-6.518c0.614-1.494,1.471-2.346,2.472-3.018c1-0.674,2.144-1.169,2.965-1.699
		c0.824-0.531,1.325-1.099,1.578-2.096c0.254-0.997,0.26-2.422-0.02-3.528c-0.28-1.106-0.848-1.894-2.021-2.432
		c-1.173-0.541-2.954-0.833-4.986-0.841c-2.031-0.009-4.313,0.266-6.597,1.005c-2.283,0.738-4.57,1.94-6.466,3.5
		c-1.896,1.56-3.401,3.478-4.729,5.932c-1.33,2.454-2.481,5.442-2.958,8.255c-0.477,2.814-0.274,5.451,0.212,8.377
		c0.487,2.924,1.257,6.135,2.563,8.921c1.308,2.785,3.149,5.146,5.744,7.224c2.592,2.078,5.934,3.875,9.352,4.887
		c3.415,1.012,6.907,1.242,10.399,1.291c3.492,0.05,6.984-0.076,10.125-0.918c3.14-0.842,5.925-2.396,8.642-4.311
		c2.718-1.914,5.363-4.183,7.656-6.846c2.292-2.663,4.229-5.718,5.384-8.814c1.152-3.095,1.523-6.231,1.61-9.866
		c0.087-3.635-0.109-7.769-0.982-11.907c-0.874-4.138-2.424-8.279-4.616-12.707c-2.189-4.429-5.021-9.144-7.816-13.541
		c-2.797-4.396-5.56-8.47-8.5-12.153c-2.942-3.683-6.065-6.976-9.471-10.481c-3.407-3.508-7.096-7.229-11.746-11.634
		c-4.649-4.403-10.26-9.488-14.875-13.427c-4.615-3.94-8.239-6.736-12.039-9.638c-3.802-2.903-7.779-5.914-12.329-9.142
		c-4.547-3.227-9.665-6.67-14.285-9.683c-4.62-3.013-8.742-5.597-13.113-8.575c-4.37-2.977-8.989-6.346-13.163-9.825
		c-4.175-3.479-7.904-7.068-11.438-10.485c-3.532-3.417-6.867-6.666-9.567-9.708c-2.7-3.043-4.767-5.881-6.458-8.717
		c-1.69-2.837-3.007-5.67-3.774-8.186c-0.768-2.515-0.989-4.709-0.659-8.056c0.333-3.348,1.219-7.847,5.428-12.712
		c4.884-4.19,9.387-5.055,12.735-5.372c3.35-0.317,5.543-0.087,8.053,0.692c2.512,0.779,5.34,2.107,8.169,3.811
		c2.829,1.703,5.658,3.781,8.689,6.494c3.032,2.714,6.264,6.063,9.667,9.609c3.403,3.547,6.975,7.293,10.436,11.482
		c3.461,4.19,6.81,8.821,9.77,13.205c2.958,4.384,5.523,8.518,8.517,13.151c2.994,4.633,6.415,9.765,9.623,14.326
		c3.206,4.562,6.199,8.553,9.087,12.366c2.886,3.813,5.666,7.449,9.587,12.081c3.921,4.633,8.981,10.264,13.363,14.933
		c4.384,4.668,8.09,8.375,11.583,11.795c3.493,3.422,6.77,6.56,10.441,9.516c3.671,2.958,7.734,5.738,12.117,8.553
		c4.384,2.815,9.088,5.667,13.507,7.875c4.419,2.21,8.553,3.778,12.686,4.669c4.135,0.89,8.27,1.104,11.905,1.033
		c3.635-0.072,6.771-0.427,9.871-1.569c3.102-1.141,6.167-3.065,8.838-5.346c2.673-2.281,4.955-4.918,6.88-7.627
		c1.924-2.708,3.491-5.487,4.346-8.624c0.854-3.136,0.999-6.629,0.963-10.121c-0.036-3.493-0.25-6.985-1.247-10.407
		c-0.998-3.42-2.779-6.771-4.848-9.372c-2.066-2.603-4.419-4.456-7.199-5.773c-2.779-1.319-5.987-2.102-8.909-2.601
		c-2.921-0.499-5.56-0.712-8.375-0.25c-2.816,0.464-5.81,1.604-8.268,2.923c-2.46,1.319-4.384,2.815-5.952,4.704
		c-1.568,1.889-2.779,4.169-3.529,6.45c-0.747,2.282-1.033,4.563-1.033,6.594c0,2.031,0.286,3.813,0.82,4.989
		c0.536,1.176,1.318,1.746,2.424,2.031c1.105,0.286,2.529,0.285,3.527,0.036c0.999-0.25,1.569-0.749,2.104-1.569
		c0.534-0.819,1.033-1.96,1.711-2.958c0.675-0.998,1.531-1.853,3.028-2.459c1.497-0.605,3.635-0.962,6.522-0.962
		c2.886,0,6.521,0.357,9.051,0.962c2.532,0.606,3.957,1.461,5.132,2.886c1.177,1.426,2.103,3.421,2.565,5.917
		c0.464,2.494,0.464,5.488,0.107,8.053c-0.359,2.566-1.07,4.704-2.175,6.629s-2.603,3.635-4.241,4.882
		c-1.638,1.248-3.421,2.031-5.631,2.495c-2.208,0.464-4.846,0.605-7.198,0.499c-2.353-0.107-4.419-0.464-6.629-1.461
		c-2.209-0.999-4.563-2.638-6.77-4.526c-2.21-1.889-4.277-4.027-6.129-6.486c-1.854-2.459-3.493-5.239-4.42-8.054
		c-0.925-2.815-1.139-5.666-1.069-8.588c0.072-2.922,0.427-5.916,1.142-8.945c0.714-3.03,1.782-6.094,3.92-9.088
		c2.139-2.994,5.346-5.916,8.623-7.84c3.28-1.924,6.629-2.851,10.55-3.314c3.919-0.464,8.41-0.464,12.686,0.393
		c4.276,0.854,8.339,2.566,11.655,4.597c3.313,2.032,5.879,4.384,7.697,6.771c1.815,2.388,2.886,4.811,3.771,7.15
		c0.887,2.338,1.59,4.591,2.001,6.915c0.412,2.324,0.534,4.72,0.595,6.693C273.738,163.858,273.738,165.408,273.709,167.294z
		 M298.529,281.813c12.401,0,22.458,10.056,22.458,22.459c0,12.402-10.057,22.459-22.458,22.459
		c-12.404,0-22.459-10.057-22.459-22.459C276.07,291.866,286.125,281.813,298.529,281.813z M276.914,394.264
		c-0.41-2.321-0.531-4.717-0.592-6.689c-0.062-1.976-0.062-3.523-0.031-5.409c0.029-1.887,0.089-4.111,0.46-6.283
		s1.056-4.291,2.554-7.446c1.494-3.156,3.801-7.352,5.965-10.545c2.166-3.197,4.189-5.397,6.437-7.024
		c2.243-1.628,4.708-2.685,6.996-3.521c2.288-0.834,4.397-1.451,7.259-1.718c2.859-0.263,6.468-0.176,9.944,0.134
		c3.475,0.309,6.817,0.836,11.075,2.008c4.259,1.174,9.428,2.99,13.514,4.795c4.086,1.806,7.086,3.595,10.314,5.522
		c3.229,1.933,6.686,4.002,9.202,5.505c2.521,1.504,4.106,2.436,5.024,2.952c0.917,0.521,1.167,0.626,1.393,0.662
		c0.228,0.037,0.426,0.001,0.559-0.104c0.133-0.109,0.197-0.291,0.519-0.925c0.633-0.317,0.815-0.384,0.926-0.514
		c0.106-0.136,0.145-0.332,0.108-0.558s-0.142-0.477-0.656-1.396c-0.517-0.922-1.44-2.509-2.932-5.036
		c-1.491-2.525-3.547-5.99-5.465-9.229c-1.915-3.235-3.691-6.246-5.479-10.342c-1.786-4.092-3.581-9.271-4.735-13.531
		c-1.153-4.26-1.668-7.606-1.961-11.084c-0.293-3.477-0.365-7.088-0.091-9.942c0.276-2.858,0.903-4.969,1.748-7.254
		c0.847-2.283,1.912-4.742,3.55-6.979c1.64-2.235,3.849-4.25,7.053-6.401c3.204-2.152,7.406-4.44,10.568-5.923
		c3.164-1.481,5.287-2.158,7.46-2.521c2.175-0.362,4.397-0.411,6.283-0.432c1.887-0.021,3.439-0.015,5.41,0.054
		c1.972,0.069,4.368,0.2,6.688,0.622c2.322,0.423,4.57,1.136,6.905,2.032c2.336,0.896,4.754,1.977,7.136,3.803
		c2.377,1.828,4.72,4.404,6.735,7.727c2.017,3.324,3.711,7.396,4.546,11.677c0.839,4.278,0.818,8.77,0.34,12.688
		c-0.479,3.918-1.421,7.266-3.358,10.534c-1.938,3.271-4.875,6.466-7.879,8.593c-3.001,2.123-6.07,3.182-9.104,3.881
		c-3.032,0.697-6.027,1.043-8.949,1.103c-2.924,0.06-5.771-0.167-8.584-1.106c-2.811-0.938-5.585-2.592-8.033-4.453
		c-2.45-1.862-4.58-3.938-6.458-6.157c-1.883-2.218-3.513-4.576-4.499-6.791c-0.988-2.214-1.338-4.281-1.435-6.636
		c-0.098-2.352,0.059-4.986,0.53-7.194c0.472-2.206,1.264-3.985,2.519-5.62c1.254-1.636,2.973-3.122,4.901-4.221
		c1.928-1.096,4.069-1.801,6.639-2.146c2.565-0.345,5.562-0.332,8.055,0.144c2.49,0.474,4.481,1.406,5.902,2.592
		c1.422,1.182,2.271,2.609,2.865,5.145c0.594,2.533,0.936,6.17,0.924,9.058c-0.015,2.888-0.38,5.022-0.992,6.519
		c-0.609,1.494-1.47,2.348-2.471,3.02s-2.143,1.166-2.967,1.697c-0.821,0.529-1.321,1.098-1.576,2.098
		c-0.253,0.994-0.261,2.422,0.021,3.523c0.277,1.108,0.846,1.895,2.021,2.434c1.173,0.541,2.954,0.832,4.984,0.843
		c2.032,0.007,4.313-0.269,6.6-1.005c2.283-0.739,4.569-1.941,6.464-3.502c1.896-1.561,3.4-3.479,4.73-5.932
		c1.328-2.453,2.481-5.441,2.958-8.256c0.475-2.813,0.271-5.451-0.214-8.376c-0.486-2.925-1.258-6.137-2.563-8.92
		c-1.309-2.786-3.151-5.146-5.744-7.226c-2.592-2.079-5.934-3.875-9.351-4.887c-3.417-1.013-6.909-1.242-10.4-1.291
		c-3.492-0.052-6.984,0.076-10.125,0.918c-3.14,0.842-5.927,2.397-8.645,4.313c-2.715,1.913-5.362,4.184-7.653,6.846
		c-2.293,2.663-4.229,5.719-5.385,8.813c-1.154,3.095-1.522,6.229-1.61,9.864c-0.087,3.636,0.108,7.771,0.983,11.906
		c0.871,4.139,2.422,8.279,4.613,12.707c2.189,4.428,5.021,9.146,7.815,13.54c2.797,4.396,5.561,8.472,8.501,12.153
		c2.942,3.684,6.063,6.977,9.469,10.482c3.406,3.508,7.1,7.229,11.748,11.633c4.649,4.401,10.26,9.486,14.873,13.428
		c4.618,3.939,8.239,6.734,12.041,9.639c3.805,2.902,7.779,5.914,12.327,9.143c4.548,3.228,9.666,6.671,14.285,9.685
		c4.621,3.013,8.741,5.597,13.112,8.573c4.372,2.977,8.988,6.347,13.166,9.826c4.174,3.479,7.901,7.063,11.437,10.482
		c3.531,3.417,6.867,6.665,9.567,9.707c2.701,3.043,4.768,5.882,6.457,8.716c1.689,2.84,3.007,5.673,3.772,8.188
		c0.77,2.514,0.991,4.709,0.659,8.057c-0.332,3.347-1.217,7.847-5.428,12.711c-4.883,4.188-9.386,5.058-12.735,5.372
		c-3.348,0.318-5.544,0.086-8.054-0.69c-2.511-0.779-5.34-2.108-8.169-3.813s-5.658-3.781-8.688-6.496
		c-3.03-2.713-6.267-6.062-9.669-9.606c-3.4-3.549-6.975-7.292-10.435-11.482c-3.462-4.188-6.813-8.821-9.771-13.206
		c-2.959-4.384-5.521-8.517-8.518-13.148c-2.994-4.633-6.414-9.766-9.623-14.325c-3.207-4.563-6.2-8.554-9.087-12.366
		c-2.887-3.814-5.667-7.449-9.586-12.083c-3.921-4.632-8.982-10.264-13.365-14.931c-4.383-4.668-8.091-8.375-11.583-11.797
		c-3.492-3.421-6.771-6.559-10.439-9.518s-7.731-5.736-12.116-8.552c-4.383-2.815-9.087-5.669-13.506-7.877
		c-4.419-2.21-8.554-3.776-12.688-4.668s-8.268-1.104-11.902-1.033c-3.636,0.071-6.771,0.429-9.87,1.566
		c-3.101,1.142-6.165,3.063-8.839,5.346c-2.674,2.279-4.951,4.918-6.879,7.626c-1.926,2.71-3.49,5.488-4.348,8.625
		s-0.998,6.629-0.961,10.122c0.033,3.491,0.248,6.984,1.246,10.406c0.997,3.419,2.779,6.77,4.847,9.372
		c2.066,2.601,4.419,4.454,7.198,5.771c2.779,1.319,5.987,2.104,8.911,2.604c2.922,0.5,5.56,0.714,8.373,0.25
		c2.813-0.465,5.81-1.604,8.27-2.925c2.458-1.315,4.383-2.813,5.952-4.703c1.565-1.89,2.779-4.17,3.527-6.448
		c0.749-2.281,1.033-4.563,1.033-6.593c0-2.032-0.284-3.815-0.82-4.989c-0.534-1.177-1.318-1.747-2.424-2.032
		c-1.104-0.285-2.529-0.285-3.527-0.034c-0.997,0.248-1.569,0.747-2.104,1.566c-0.534,0.818-1.031,1.961-1.712,2.958
		c-0.676,0.998-1.53,1.854-3.027,2.459c-1.497,0.604-3.637,0.962-6.521,0.962c-2.888,0-6.521-0.354-9.054-0.962
		c-2.529-0.604-3.955-1.461-5.132-2.887c-1.176-1.427-2.104-3.421-2.565-5.913c-0.464-2.496-0.464-5.49-0.104-8.058
		c0.354-2.563,1.068-4.702,2.173-6.628c1.104-1.925,2.603-3.635,4.242-4.883c1.639-1.248,3.422-2.031,5.631-2.494
		c2.209-0.465,4.846-0.606,7.198-0.5c2.352,0.105,4.42,0.463,6.629,1.461c2.21,0.998,4.563,2.637,6.771,4.525
		c2.208,1.891,4.276,4.026,6.129,6.485c1.854,2.46,3.492,5.237,4.419,8.056c0.929,2.813,1.143,5.667,1.07,8.587
		c-0.07,2.924-0.428,5.917-1.141,8.945c-0.713,3.027-1.782,6.095-3.922,9.087c-2.139,2.994-5.347,5.916-8.623,7.841
		c-3.278,1.925-6.631,2.851-10.551,3.314c-3.921,0.464-8.41,0.464-12.688-0.395c-4.277-0.854-8.34-2.563-11.652-4.596
		c-3.314-2.032-5.881-4.384-7.696-6.771c-1.818-2.387-2.888-4.811-3.773-7.146C278.031,398.843,277.328,396.589,276.914,394.264z
		 M547.134,545.694c-7.681,0.064-14.444,0.031-24.622-0.168c-10.177-0.202-23.768-0.569-33.229-0.806
		c-9.461-0.233-14.795-0.334-22.053-0.588c-7.255-0.254-16.432-0.662-27.967-1.511c-11.536-0.854-25.43-2.145-36.727-3.594
		c-11.296-1.451-19.997-3.063-27.784-4.459c-7.787-1.396-14.66-2.578-23.63-4.917c-8.969-2.34-20.033-5.832-28.225-8.687
		c-8.192-2.853-13.511-5.063-18.022-7.179c-4.514-2.115-8.22-4.138-10.785-5.73c-2.563-1.591-3.988-2.752-5.506-4.269
		c-1.516-1.517-3.127-3.389-4.456-5.057c-1.329-1.666-2.378-3.126-3.146-4.889c-0.769-1.76-1.256-3.817-1.351-5.878
		c-0.093-2.06,0.207-4.12,1.369-6.185c1.16-2.064,3.185-4.133,4.936-5.95c1.753-1.816,3.23-3.383,5.061-4.558
		c1.826-1.176,4.002-1.956,6.479-2.394c2.48-0.437,5.266-0.521,8.482,0.564c3.219,1.089,6.872,3.351,11.615,6.523
		c4.738,3.175,10.567,7.266,17.964,12.18c7.395,4.916,16.354,10.656,25.925,15.834c9.569,5.177,19.749,9.786,30.755,13.701
		c11.003,3.916,22.837,7.137,34.275,9.744c11.438,2.61,22.487,4.611,33.842,6.267c11.354,1.65,23.011,2.956,36.084,3.87
		c13.07,0.911,27.557,1.436,44.26,1.694c-1.045-9.917-1.175-16.965-1.283-24.229c-0.106-7.266-0.194-14.746-0.63-22.143
		c-0.436-7.395-1.218-14.701-2.306-23.271s-2.48-18.4-3.915-26.665c-1.438-8.267-2.915-14.964-4.438-21.401
		c-1.521-6.438-3.09-12.614-5.004-18.836c-1.913-6.219-4.175-12.482-6.507-18.763c-2.332-6.277-4.732-12.571-7.021-17.773
		c-2.288-5.203-4.462-9.317-6.772-13.435c-2.311-4.114-4.763-8.229-7.374-12.229c-2.611-3.998-5.387-7.883-8.393-12.043
		c-3.005-4.159-6.24-8.601-8.691-12.159c-2.45-3.562-4.115-6.242-5.314-8.671c-1.203-2.427-1.943-4.6-2.358-7.051
		c-0.416-2.449-0.509-5.179,0.115-7.604c0.624-2.428,1.966-4.554,3.768-6.89c1.804-2.334,4.069-4.877,6.035-6.681
		c1.964-1.805,3.629-2.867,5.455-3.399c1.827-0.53,3.813-0.53,5.688-0.276c1.872,0.254,3.632,0.764,5.596,1.539
		c1.964,0.774,4.138,1.819,6.682,4.396c2.544,2.576,5.462,6.688,8.114,11.527c2.65,4.841,5.038,10.408,7.688,17.236
		c2.649,6.828,5.568,14.918,7.892,22.541c2.318,7.625,4.044,14.785,5.769,23.207c1.722,8.418,3.447,18.102,4.842,27.49
		c1.395,9.392,2.46,18.494,3.762,32.44c1.301,13.946,2.837,32.737,5.059,104.102C547.134,528.721,547.134,537.207,547.134,545.694z
		 M547.134,28.632c-2.222,71.363-3.758,90.155-5.059,104.103c-1.3,13.947-2.367,23.049-3.761,32.439
		c-1.396,9.391-3.118,19.071-4.843,27.491c-1.725,8.419-3.446,15.581-5.769,23.206s-5.24,15.713-7.889,22.542
		c-2.653,6.828-5.04,12.397-7.691,17.237c-2.652,4.841-5.57,8.951-8.114,11.529c-2.544,2.576-4.717,3.62-6.681,4.396
		c-1.965,0.775-3.725,1.285-5.595,1.539c-1.872,0.255-3.86,0.255-5.688-0.277c-1.826-0.531-3.49-1.595-5.455-3.396
		c-1.966-1.805-4.229-4.346-6.034-6.682c-1.803-2.335-3.144-4.461-3.769-6.889c-0.623-2.428-0.53-5.155-0.115-7.605
		c0.416-2.451,1.155-4.624,2.357-7.051c1.203-2.428,2.867-5.109,5.315-8.669c2.451-3.56,5.688-7.998,8.692-12.159
		c3.005-4.161,5.779-8.045,8.393-12.044c2.611-3.999,5.063-8.114,7.373-12.229c2.313-4.115,4.484-8.229,6.771-13.433
		c2.288-5.204,4.688-11.496,7.021-17.774c2.332-6.278,4.596-12.542,6.507-18.763c1.915-6.22,3.48-12.397,5.006-18.835
		c1.521-6.438,3.002-13.137,4.437-21.401c1.438-8.264,2.828-18.096,3.916-26.665c1.088-8.569,1.87-15.877,2.308-23.272
		c0.435-7.396,0.521-14.876,0.63-22.141c0.107-7.265,0.237-14.312,1.282-24.229c-16.702,0.261-31.188,0.784-44.261,1.696
		c-13.069,0.914-24.729,2.219-36.084,3.871c-11.353,1.654-22.398,3.654-33.842,6.265c-11.439,2.61-23.271,5.83-34.276,9.744
		c-11.005,3.915-21.185,8.526-30.754,13.703c-9.567,5.177-18.528,10.919-25.925,15.833c-7.395,4.916-13.224,9.005-17.964,12.18
		c-4.742,3.175-8.396,5.438-11.615,6.524c-3.218,1.087-6.002,1.001-8.48,0.565c-2.479-0.435-4.654-1.218-6.48-2.392
		c-1.827-1.174-3.307-2.741-5.059-4.558c-1.752-1.817-3.774-3.886-4.938-5.951c-1.16-2.064-1.461-4.124-1.367-6.183
		c0.094-2.06,0.582-4.12,1.35-5.88c0.767-1.76,1.814-3.221,3.146-4.887c1.33-1.667,2.94-3.539,4.456-5.056
		c1.52-1.517,2.941-2.678,5.506-4.269c2.565-1.592,6.273-3.614,10.785-5.731c4.516-2.116,9.83-4.325,18.022-7.178
		c8.189-2.852,19.256-6.346,28.225-8.685c8.969-2.338,15.844-3.519,23.63-4.916c7.787-1.396,16.487-3.007,27.785-4.459
		c11.298-1.451,25.19-2.744,36.728-3.593c11.534-0.849,20.711-1.257,27.966-1.512c7.257-0.254,12.59-0.354,22.052-0.587
		s23.054-0.602,33.229-0.804c10.179-0.201,16.939-0.234,24.621-0.168C547.134,11.659,547.134,20.146,547.134,28.632z"/>
	<path fill="#FFFFFF" stroke="#000000" stroke-width="1.5" stroke-miterlimit="10" d="M46.836,502.421
		c-4.208-4.865-5.094-9.365-5.427-12.711c-0.332-3.348-0.11-5.543,0.659-8.057c0.768-2.517,2.084-5.351,3.774-8.188
		c1.692-2.834,3.758-5.673,6.458-8.715c2.7-3.043,6.035-6.291,9.567-9.708c3.532-3.419,7.263-7.005,11.438-10.484
		c4.175-3.479,8.793-6.85,13.163-9.824c4.371-2.979,8.495-5.563,13.113-8.573c4.621-3.016,9.738-6.457,14.285-9.687
		c4.549-3.227,8.527-6.236,12.329-9.141c3.8-2.903,7.424-5.698,12.04-9.638c4.615-3.94,10.226-9.025,14.875-13.431
		c4.649-4.401,8.339-8.126,11.745-11.631c3.407-3.508,6.528-6.801,9.471-10.483c2.94-3.684,5.703-7.756,8.5-12.152
		c2.797-4.395,5.628-9.111,7.816-13.541c2.192-4.428,3.741-8.568,4.616-12.706c0.872-4.138,1.069-8.271,0.982-11.907
		c-0.087-3.634-0.458-6.769-1.61-9.863c-1.154-3.097-3.092-6.151-5.384-8.814c-2.293-2.663-4.939-4.934-7.656-6.846
		c-2.717-1.911-5.502-3.471-8.642-4.313c-3.141-0.841-6.634-0.97-10.125-0.919c-3.493,0.052-6.984,0.281-10.4,1.293
		c-3.417,1.013-6.759,2.808-9.352,4.886c-2.594,2.078-4.436,4.439-5.743,7.226c-1.308,2.784-2.078,5.993-2.563,8.921
		c-0.485,2.925-0.689,5.563-0.212,8.375c0.475,2.813,1.628,5.802,2.958,8.256c1.328,2.454,2.833,4.371,4.729,5.934
		c1.896,1.561,4.182,2.762,6.466,3.502c2.284,0.735,4.567,1.012,6.597,1.002c2.033-0.008,3.813-0.301,4.986-0.84
		c1.173-0.541,1.741-1.324,2.021-2.434c0.28-1.104,0.274-2.531,0.02-3.525c-0.253-0.998-0.754-1.565-1.578-2.097
		c-0.822-0.532-1.963-1.026-2.965-1.698c-1.001-0.674-1.858-1.523-2.472-3.019c-0.613-1.495-0.979-3.634-0.989-6.521
		c-0.014-2.887,0.328-6.521,0.923-9.056c0.594-2.532,1.444-3.962,2.863-5.146c1.422-1.185,3.413-2.117,5.906-2.592
		c2.492-0.474,5.486-0.486,8.053-0.142c2.567,0.344,4.708,1.048,6.639,2.146c1.928,1.097,3.646,2.584,4.899,4.219
		c1.255,1.635,2.047,3.412,2.519,5.621c0.473,2.207,0.627,4.846,0.53,7.195c-0.097,2.352-0.443,4.422-1.433,6.635
		c-0.988,2.215-2.617,4.572-4.497,6.789c-1.878,2.221-4.008,4.295-6.46,6.158c-2.45,1.863-5.223,3.514-8.035,4.453
		s-5.662,1.165-8.583,1.105c-2.923-0.06-5.917-0.4-8.95-1.102c-3.032-0.699-6.101-1.757-9.104-3.882
		c-3.003-2.125-5.938-5.319-7.877-8.591c-1.938-3.271-2.879-6.617-3.359-10.535s-0.5-8.407,0.337-12.688
		c0.836-4.279,2.529-8.353,4.546-11.674c2.017-3.322,4.358-5.898,6.739-7.728c2.38-1.828,4.799-2.908,7.131-3.806
		c2.335-0.896,4.585-1.607,6.907-2.03c2.323-0.421,4.717-0.554,6.691-0.622c1.972-0.069,3.522-0.076,5.408-0.055
		c1.889,0.021,4.112,0.07,6.284,0.433c2.174,0.36,4.298,1.037,7.459,2.521c3.163,1.479,7.365,3.771,10.57,5.92
		c3.205,2.15,5.416,4.166,7.052,6.401c1.636,2.24,2.704,4.697,3.55,6.982c0.846,2.284,1.471,4.394,1.747,7.253
		c0.276,2.855,0.205,6.466-0.089,9.941c-0.293,3.479-0.806,6.823-1.962,11.084c-1.154,4.264-2.948,9.439-4.735,13.532
		c-1.786,4.097-3.563,7.104-5.479,10.343c-1.917,3.234-3.973,6.7-5.464,9.228c-1.491,2.526-2.417,4.114-2.931,5.035
		c-0.517,0.92-0.623,1.172-0.657,1.396c-0.036,0.227,0,0.424,0.109,0.557c0.107,0.133,0.292,0.195,0.924,0.515
		c0.321,0.632,0.385,0.813,0.518,0.924c0.133,0.106,0.332,0.144,0.557,0.104c0.225-0.033,0.477-0.143,1.394-0.659
		c0.917-0.521,2.501-1.452,5.022-2.954c2.521-1.501,5.976-3.572,9.205-5.503c3.228-1.931,6.229-3.722,10.316-5.524
		c4.085-1.804,9.255-3.619,13.511-4.794c4.258-1.174,7.602-1.698,11.078-2.009c3.476-0.309,7.083-0.396,9.942-0.132
		c2.861,0.265,4.973,0.88,7.26,1.716c2.288,0.836,4.751,1.895,6.996,3.521c2.242,1.627,4.267,3.828,6.433,7.023
		s4.472,7.389,5.969,10.546c1.494,3.155,2.18,5.273,2.553,7.446c0.371,2.172,0.429,4.396,0.458,6.283
		c0.028,1.886,0.028,3.436-0.03,5.41c-0.06,1.974-0.182,4.365-0.594,6.689c-0.413,2.324-1.115,4.578-2.002,6.917
		c-0.885,2.337-1.955,4.761-3.771,7.147c-1.818,2.389-4.384,4.738-7.697,6.771c-3.315,2.031-7.377,3.74-11.654,4.597
		c-4.276,0.855-8.768,0.855-12.687,0.395c-3.921-0.464-7.27-1.391-10.549-3.315c-3.278-1.925-6.485-4.847-8.624-7.841
		c-2.138-2.992-3.207-6.058-3.92-9.087c-0.713-3.028-1.07-6.021-1.141-8.945c-0.07-2.921,0.143-5.771,1.069-8.588
		c0.927-2.813,2.565-5.594,4.42-8.054c1.852-2.459,3.919-4.598,6.129-6.484c2.208-1.89,4.561-3.529,6.771-4.525
		c2.21-0.999,4.277-1.354,6.629-1.463c2.353-0.105,4.989,0.037,7.199,0.502c2.209,0.463,3.993,1.246,5.631,2.494
		s3.136,2.957,4.241,4.883c1.105,1.924,1.816,4.063,2.174,6.628c0.355,2.563,0.355,5.561-0.107,8.056
		c-0.465,2.493-1.391,4.489-2.565,5.913c-1.175,1.427-2.601,2.282-5.132,2.887c-2.53,0.606-6.166,0.962-9.051,0.962
		c-2.887,0-5.027-0.354-6.522-0.962c-1.497-0.604-2.352-1.461-3.028-2.459c-0.677-0.996-1.177-2.139-1.71-2.958
		c-0.536-0.817-1.105-1.316-2.105-1.564c-0.997-0.251-2.422-0.251-3.527,0.034c-1.105,0.283-1.888,0.854-2.424,2.03
		c-0.534,1.176-0.819,2.958-0.819,4.99c0,2.03,0.286,4.312,1.033,6.592c0.749,2.279,1.96,4.563,3.53,6.449
		c1.567,1.891,3.492,3.387,5.952,4.704c2.458,1.318,5.452,2.459,8.267,2.923c2.815,0.464,5.454,0.25,8.375-0.249
		c2.922-0.5,6.129-1.282,8.909-2.603c2.778-1.319,5.132-3.172,7.198-5.773c2.068-2.602,3.849-5.952,4.849-9.372
		c0.997-3.422,1.211-6.914,1.247-10.406c0.036-3.49-0.107-6.983-0.963-10.119c-0.855-3.139-2.422-5.917-4.348-8.626
		c-1.924-2.709-4.207-5.347-6.879-7.627s-5.736-4.205-8.837-5.346c-3.1-1.141-6.236-1.496-9.871-1.568
		c-3.635-0.068-7.77,0.146-11.904,1.035c-4.133,0.892-8.267,2.457-12.686,4.668c-4.419,2.209-9.123,5.062-13.507,7.877
		c-4.382,2.813-8.445,5.595-12.117,8.554c-3.671,2.958-6.949,6.095-10.441,9.516c-3.493,3.421-7.199,7.127-11.583,11.796
		c-4.382,4.667-9.442,10.299-13.363,14.934c-3.921,4.632-6.701,8.267-9.587,12.082c-2.887,3.813-5.881,7.804-9.087,12.364
		c-3.208,4.563-6.629,9.692-9.623,14.325c-2.994,4.635-5.56,8.77-8.517,13.15c-2.96,4.383-6.31,9.017-9.77,13.206
		c-3.461,4.188-7.034,7.935-10.436,11.48c-3.403,3.547-6.635,6.896-9.667,9.608c-3.031,2.715-5.861,4.793-8.69,6.496
		c-2.829,1.702-5.658,3.028-8.169,3.811c-2.512,0.779-4.704,1.011-8.053,0.692C56.224,507.477,51.72,506.608,46.836,502.421z"/>
	<path fill="#FFFFFF" stroke="#000000" stroke-width="1.5" stroke-miterlimit="10" d="M503.164,502.421
		c4.21-4.865,5.096-9.365,5.428-12.711c0.333-3.348,0.108-5.543-0.659-8.057c-0.769-2.517-2.083-5.351-3.772-8.188
		c-1.689-2.834-3.756-5.673-6.457-8.715c-2.7-3.043-6.036-6.291-9.567-9.708c-3.53-3.419-7.263-7.005-11.438-10.484
		c-4.175-3.479-8.793-6.85-13.165-9.824c-4.371-2.979-8.492-5.563-13.113-8.573c-4.619-3.016-9.736-6.457-14.284-9.687
		c-4.547-3.227-8.523-6.236-12.327-9.141c-3.802-2.903-7.424-5.698-12.041-9.638c-4.613-3.94-10.224-9.025-14.871-13.431
		c-4.65-4.401-8.344-8.126-11.748-11.631c-3.406-3.508-6.526-6.801-9.471-10.483c-2.94-3.684-5.705-7.756-8.502-12.152
		c-2.795-4.395-5.626-9.111-7.814-13.541c-2.191-4.428-3.741-8.568-4.613-12.706c-0.874-4.138-1.07-8.271-0.983-11.907
		c0.088-3.634,0.457-6.769,1.61-9.863c1.153-3.096,3.091-6.151,5.384-8.814c2.292-2.663,4.94-4.934,7.654-6.846
		c2.718-1.911,5.505-3.471,8.645-4.313c3.141-0.841,6.632-0.97,10.125-0.919c3.492,0.052,6.983,0.281,10.4,1.293
		c3.417,1.013,6.76,2.808,9.351,4.886c2.596,2.078,4.438,4.439,5.744,7.226c1.308,2.784,2.076,5.993,2.563,8.921
		c0.484,2.925,0.688,5.563,0.214,8.375c-0.476,2.813-1.63,5.802-2.958,8.256c-1.33,2.454-2.834,4.371-4.73,5.934
		c-1.895,1.561-4.18,2.762-6.464,3.502c-2.284,0.735-4.564,1.012-6.6,1.002c-2.03-0.008-3.813-0.301-4.984-0.84
		c-1.175-0.541-1.741-1.324-2.021-2.434c-0.282-1.104-0.274-2.531-0.021-3.525c0.255-0.998,0.755-1.565,1.576-2.097
		c0.824-0.532,1.965-1.026,2.967-1.698c1.001-0.674,1.859-1.523,2.472-3.019s0.979-3.634,0.991-6.521
		c0.013-2.887-0.33-6.521-0.924-9.056c-0.596-2.532-1.442-3.962-2.865-5.146c-1.421-1.185-3.411-2.117-5.902-2.592
		c-2.493-0.474-5.487-0.486-8.055-0.142c-2.566,0.344-4.71,1.048-6.639,2.146c-1.93,1.097-3.646,2.584-4.901,4.219
		c-1.255,1.635-2.046,3.412-2.519,5.621c-0.475,2.207-0.627,4.846-0.53,7.195c0.099,2.352,0.444,4.422,1.435,6.635
		c0.986,2.215,2.615,4.572,4.499,6.789c1.878,2.221,4.008,4.295,6.458,6.158c2.448,1.863,5.225,3.514,8.033,4.453
		c2.813,0.939,5.661,1.165,8.585,1.105s5.916-0.4,8.948-1.102c3.033-0.699,6.104-1.757,9.104-3.882
		c3.004-2.125,5.938-5.319,7.878-8.591c1.938-3.271,2.881-6.617,3.36-10.535s0.5-8.407-0.341-12.688
		c-0.835-4.279-2.527-8.353-4.546-11.674c-2.018-3.322-4.356-5.898-6.734-7.728c-2.383-1.828-4.801-2.908-7.137-3.806
		c-2.335-0.896-4.582-1.607-6.904-2.03c-2.321-0.421-4.72-0.554-6.689-0.622c-1.97-0.069-3.523-0.076-5.41-0.055
		c-1.886,0.021-4.107,0.07-6.283,0.433c-2.173,0.36-4.297,1.037-7.46,2.521c-3.161,1.479-7.363,3.771-10.568,5.92
		c-3.204,2.15-5.413,4.166-7.053,6.401c-1.638,2.24-2.702,4.697-3.55,6.982c-0.846,2.284-1.472,4.394-1.748,7.253
		c-0.274,2.855-0.201,6.466,0.093,9.941c0.294,3.479,0.806,6.823,1.96,11.084c1.152,4.264,2.948,9.439,4.734,13.532
		c1.788,4.097,3.564,7.104,5.479,10.343c1.917,3.234,3.974,6.7,5.465,9.228c1.489,2.526,2.415,4.114,2.932,5.035
		c0.517,0.92,0.62,1.172,0.656,1.396c0.034,0.227-0.002,0.424-0.109,0.557s-0.292,0.195-0.925,0.515
		c-0.317,0.632-0.386,0.813-0.519,0.924c-0.131,0.106-0.331,0.144-0.558,0.104c-0.226-0.033-0.476-0.143-1.395-0.659
		c-0.916-0.521-2.503-1.452-5.023-2.954c-2.519-1.501-5.975-3.572-9.201-5.503c-3.229-1.931-6.23-3.722-10.316-5.524
		c-4.085-1.804-9.255-3.619-13.512-4.794c-4.259-1.174-7.604-1.698-11.076-2.009c-3.479-0.309-7.084-0.396-9.944-0.132
		c-2.857,0.265-4.971,0.88-7.259,1.716c-2.287,0.836-4.752,1.895-6.996,3.521s-4.268,3.828-6.434,7.023
		c-2.165,3.195-4.473,7.389-5.969,10.546c-1.496,3.155-2.182,5.273-2.553,7.446c-0.371,2.172-0.43,4.396-0.461,6.283
		c-0.027,1.886-0.027,3.436,0.033,5.41c0.061,1.974,0.182,4.365,0.592,6.689c0.412,2.324,1.115,4.578,2.001,6.917
		c0.888,2.337,1.955,4.761,3.774,7.147c1.814,2.389,4.381,4.738,7.695,6.771c3.313,2.031,7.376,3.74,11.652,4.597
		c4.276,0.855,8.767,0.855,12.688,0.395c3.919-0.464,7.271-1.391,10.549-3.315c3.277-1.924,6.484-4.847,8.624-7.841
		c2.139-2.992,3.209-6.058,3.921-9.087c0.712-3.028,1.068-6.021,1.141-8.945c0.07-2.921-0.143-5.771-1.07-8.588
		c-0.926-2.813-2.564-5.594-4.419-8.054c-1.853-2.459-3.922-4.598-6.129-6.484c-2.21-1.89-4.563-3.529-6.771-4.525
		c-2.208-0.999-4.276-1.354-6.629-1.463c-2.354-0.105-4.988,0.037-7.198,0.502c-2.208,0.463-3.991,1.246-5.631,2.494
		c-1.642,1.248-3.14,2.957-4.242,4.883c-1.104,1.924-1.816,4.063-2.173,6.628c-0.355,2.563-0.355,5.561,0.104,8.056
		c0.465,2.493,1.394,4.489,2.565,5.913c1.177,1.427,2.603,2.282,5.132,2.887c2.53,0.606,6.165,0.962,9.054,0.962
		c2.888,0,5.023-0.354,6.521-0.962c1.497-0.604,2.353-1.461,3.028-2.459c0.679-0.996,1.177-2.139,1.713-2.958
		c0.532-0.817,1.104-1.316,2.103-1.564c0.996-0.251,2.424-0.251,3.527,0.034c1.104,0.283,1.891,0.854,2.424,2.03
		c0.535,1.176,0.82,2.958,0.82,4.99c0,2.03-0.285,4.312-1.033,6.592c-0.747,2.279-1.96,4.563-3.527,6.449
		c-1.566,1.891-3.493,3.387-5.952,4.704c-2.46,1.318-5.452,2.459-8.27,2.923c-2.813,0.464-5.451,0.25-8.373-0.249
		c-2.925-0.5-6.132-1.282-8.911-2.603c-2.779-1.319-5.132-3.172-7.198-5.773c-2.065-2.601-3.849-5.952-4.847-9.372
		c-0.998-3.422-1.213-6.914-1.246-10.406c-0.036-3.49,0.105-6.983,0.961-10.119c0.855-3.139,2.424-5.917,4.349-8.626
		s4.204-5.347,6.88-7.627c2.672-2.28,5.736-4.205,8.838-5.346c3.101-1.141,6.234-1.496,9.871-1.568
		c3.635-0.068,7.769,0.146,11.9,1.035c4.134,0.89,8.27,2.457,12.688,4.668c4.42,2.209,9.123,5.062,13.506,7.877
		c4.384,2.813,8.447,5.595,12.116,8.554c3.671,2.958,6.949,6.095,10.439,9.516c3.492,3.421,7.2,7.127,11.583,11.796
		c4.385,4.667,9.444,10.299,13.365,14.934c3.919,4.632,6.698,8.267,9.586,12.082c2.887,3.813,5.88,7.804,9.087,12.364
		c3.209,4.563,6.629,9.692,9.624,14.325c2.993,4.635,5.561,8.77,8.518,13.15c2.959,4.382,6.309,9.017,9.77,13.206
		c3.46,4.188,7.033,7.935,10.436,11.48c3.401,3.547,6.638,6.896,9.669,9.608c3.028,2.715,5.857,4.793,8.688,6.496
		c2.829,1.702,5.658,3.028,8.169,3.811c2.511,0.779,4.706,1.011,8.054,0.692C493.778,507.477,498.281,506.608,503.164,502.421z"/>
	<path fill="#FFFFFF" stroke="#000000" stroke-width="1.5" stroke-miterlimit="10" d="M503.164,47.037
		c4.21,4.865,5.096,9.364,5.428,12.712c0.333,3.346,0.108,5.541-0.659,8.056c-0.769,2.516-2.083,5.349-3.772,8.186
		c-1.689,2.836-3.756,5.674-6.457,8.717c-2.7,3.042-6.036,6.291-9.567,9.708c-3.53,3.417-7.263,7.005-11.438,10.485
		c-4.175,3.478-8.793,6.848-13.165,9.825c-4.371,2.977-8.492,5.56-13.113,8.575c-4.619,3.013-9.736,6.456-14.284,9.683
		c-4.547,3.228-8.523,6.238-12.327,9.142c-3.802,2.902-7.424,5.698-12.041,9.638c-4.613,3.939-10.224,9.024-14.871,13.427
		c-4.65,4.403-8.344,8.125-11.748,11.634c-3.406,3.506-6.526,6.8-9.471,10.481c-2.94,3.684-5.705,7.757-8.502,12.153
		c-2.795,4.396-5.626,9.112-7.814,13.541c-2.191,4.428-3.741,8.57-4.613,12.708c-0.874,4.138-1.07,8.272-0.983,11.907
		c0.088,3.635,0.457,6.77,1.61,9.866s3.091,6.152,5.384,8.814c2.292,2.664,4.94,4.934,7.654,6.846
		c2.718,1.914,5.505,3.469,8.645,4.311c3.141,0.842,6.632,0.969,10.125,0.918c3.492-0.051,6.983-0.279,10.4-1.291
		c3.417-1.014,6.76-2.809,9.351-4.887c2.596-2.078,4.438-4.438,5.744-7.224c1.308-2.786,2.076-5.997,2.563-8.921
		c0.484-2.925,0.688-5.563,0.214-8.377c-0.476-2.813-1.63-5.802-2.958-8.255c-1.33-2.454-2.834-4.371-4.73-5.932
		c-1.895-1.56-4.18-2.762-6.464-3.5c-2.284-0.739-4.564-1.013-6.6-1.004c-2.03,0.008-3.813,0.301-4.984,0.841
		c-1.175,0.539-1.741,1.326-2.021,2.432c-0.282,1.106-0.274,2.531-0.021,3.528c0.255,0.997,0.755,1.564,1.576,2.096
		c0.824,0.531,1.965,1.025,2.967,1.699c1.001,0.672,1.859,1.523,2.472,3.018c0.612,1.494,0.979,3.63,0.991,6.52
		c0.013,2.886-0.33,6.521-0.924,9.056c-0.596,2.532-1.442,3.961-2.865,5.145c-1.421,1.183-3.411,2.119-5.902,2.591
		c-2.493,0.475-5.487,0.485-8.055,0.142c-2.566-0.346-4.71-1.049-6.639-2.145c-1.93-1.098-3.646-2.588-4.901-4.22
		c-1.255-1.634-2.046-3.412-2.519-5.621c-0.474-2.207-0.627-4.844-0.53-7.195c0.099-2.354,0.444-4.421,1.435-6.635
		c0.986-2.214,2.615-4.573,4.499-6.791c1.878-2.219,4.008-4.295,6.458-6.159c2.448-1.863,5.225-3.515,8.033-4.454
		c2.812-0.939,5.661-1.165,8.585-1.106s5.916,0.402,8.948,1.103c3.033,0.7,6.104,1.756,9.104,3.881
		c3.004,2.125,5.938,5.32,7.878,8.591c1.938,3.27,2.881,6.616,3.36,10.534c0.479,3.919,0.5,8.409-0.341,12.689
		c-0.835,4.279-2.527,8.35-4.546,11.672c-2.018,3.322-4.356,5.899-6.734,7.727c-2.383,1.828-4.801,2.907-7.137,3.805
		c-2.335,0.896-4.582,1.608-6.904,2.03c-2.321,0.422-4.72,0.554-6.689,0.622c-1.971,0.07-3.523,0.076-5.41,0.055
		c-1.886-0.021-4.107-0.068-6.283-0.433c-2.173-0.362-4.297-1.038-7.46-2.521c-3.161-1.481-7.363-3.771-10.568-5.922
		c-3.205-2.15-5.413-4.166-7.053-6.404c-1.638-2.236-2.702-4.695-3.55-6.98c-0.846-2.284-1.472-4.394-1.748-7.251
		c-0.274-2.859-0.201-6.468,0.093-9.944c0.294-3.478,0.806-6.824,1.96-11.085c1.152-4.261,2.948-9.439,4.734-13.533
		c1.788-4.094,3.564-7.104,5.479-10.34c1.917-3.237,3.974-6.701,5.465-9.227c1.489-2.527,2.415-4.116,2.932-5.035
		c0.517-0.92,0.62-1.171,0.656-1.397c0.034-0.226-0.002-0.425-0.109-0.556c-0.107-0.132-0.292-0.196-0.925-0.514
		c-0.317-0.632-0.386-0.813-0.519-0.921c-0.131-0.11-0.331-0.146-0.558-0.108c-0.226,0.036-0.476,0.142-1.395,0.663
		c-0.916,0.52-2.503,1.451-5.023,2.953c-2.519,1.502-5.975,3.572-9.201,5.504c-3.229,1.93-6.23,3.719-10.316,5.523
		c-4.085,1.804-9.255,3.621-13.512,4.794c-4.259,1.172-7.604,1.7-11.076,2.009c-3.479,0.308-7.084,0.396-9.944,0.131
		c-2.857-0.263-4.971-0.879-7.259-1.716c-2.287-0.836-4.752-1.892-6.996-3.521c-2.244-1.627-4.268-3.827-6.434-7.024
		c-2.165-3.195-4.473-7.388-5.969-10.545c-1.496-3.157-2.182-5.276-2.553-7.449c-0.371-2.172-0.43-4.396-0.461-6.283
		c-0.027-1.887-0.027-3.437,0.033-5.409c0.061-1.974,0.182-4.369,0.592-6.693c0.412-2.324,1.115-4.576,2.001-6.915
		c0.888-2.339,1.955-4.762,3.774-7.15c1.814-2.387,4.381-4.74,7.695-6.771c3.313-2.031,7.376-3.742,11.652-4.597
		c4.276-0.854,8.767-0.854,12.688-0.393c3.919,0.463,7.271,1.39,10.549,3.313c3.277,1.924,6.484,4.846,8.624,7.84
		c2.139,2.994,3.209,6.058,3.921,9.088c0.712,3.029,1.068,6.023,1.141,8.945c0.07,2.923-0.143,5.773-1.07,8.588
		c-0.926,2.815-2.564,5.595-4.419,8.054c-1.853,2.46-3.922,4.597-6.129,6.486c-2.21,1.888-4.563,3.528-6.771,4.525
		s-4.276,1.354-6.629,1.461c-2.354,0.106-4.988-0.036-7.198-0.499c-2.208-0.464-3.991-1.247-5.631-2.495
		c-1.642-1.247-3.14-2.958-4.242-4.882c-1.104-1.924-1.816-4.063-2.173-6.629c-0.355-2.565-0.355-5.559,0.104-8.053
		c0.465-2.496,1.394-4.49,2.565-5.917c1.177-1.425,2.603-2.281,5.132-2.886c2.53-0.605,6.165-0.962,9.054-0.962
		c2.888,0,5.023,0.357,6.521,0.962c1.497,0.606,2.353,1.461,3.028,2.459c0.679,0.998,1.177,2.138,1.713,2.958
		c0.532,0.82,1.104,1.319,2.103,1.569c0.996,0.249,2.424,0.249,3.527-0.036c1.104-0.285,1.891-0.854,2.424-2.031
		c0.535-1.176,0.82-2.958,0.82-4.989c0-2.03-0.285-4.312-1.033-6.593c-0.747-2.281-1.96-4.562-3.527-6.45
		c-1.566-1.889-3.493-3.386-5.952-4.704c-2.46-1.318-5.452-2.46-8.27-2.923c-2.813-0.462-5.451-0.249-8.373,0.25
		c-2.925,0.499-6.132,1.282-8.911,2.602c-2.779,1.318-5.132,3.171-7.198,5.773c-2.065,2.601-3.849,5.95-4.847,9.372
		c-0.998,3.42-1.213,6.913-1.246,10.406c-0.036,3.492,0.105,6.985,0.961,10.121c0.855,3.136,2.424,5.915,4.349,8.624
		s4.204,5.346,6.88,7.627c2.672,2.281,5.736,4.205,8.838,5.346c3.101,1.14,6.234,1.497,9.871,1.568
		c3.634,0.072,7.769-0.142,11.9-1.033c4.136-0.891,8.27-2.459,12.688-4.668s9.123-5.061,13.506-7.876
		c4.384-2.814,8.447-5.595,12.116-8.553c3.671-2.957,6.949-6.094,10.439-9.516c3.492-3.42,7.2-7.127,11.583-11.795
		c4.385-4.668,9.444-10.299,13.365-14.933c3.919-4.633,6.698-8.268,9.586-12.081c2.887-3.813,5.88-7.805,9.087-12.366
		c3.209-4.562,6.629-9.693,9.624-14.326c2.993-4.633,5.561-8.768,8.518-13.151c2.959-4.384,6.309-9.016,9.77-13.205
		c3.46-4.189,7.033-7.935,10.436-11.482c3.401-3.548,6.638-6.896,9.669-9.609c3.028-2.714,5.857-4.792,8.688-6.494
		c2.829-1.704,5.658-3.032,8.169-3.812c2.511-0.779,4.706-1.01,8.054-0.692C493.778,41.981,498.281,42.848,503.164,47.037z"/>
	<path fill="#FFFFFF" stroke="#000000" stroke-width="1.5" stroke-miterlimit="10" d="M46.836,47.037
		c-4.208,4.865-5.094,9.364-5.427,12.712c-0.332,3.346-0.11,5.541,0.659,8.056c0.768,2.516,2.084,5.349,3.774,8.186
		c1.692,2.836,3.758,5.674,6.458,8.717c2.7,3.042,6.035,6.291,9.567,9.708c3.532,3.417,7.263,7.005,11.438,10.485
		c4.175,3.478,8.793,6.848,13.163,9.825c4.371,2.977,8.495,5.56,13.113,8.575c4.621,3.013,9.738,6.456,14.285,9.683
		c4.549,3.228,8.527,6.238,12.329,9.142c3.8,2.902,7.424,5.698,12.04,9.638c4.615,3.939,10.226,9.024,14.875,13.427
		s8.339,8.125,11.745,11.634c3.407,3.506,6.528,6.8,9.471,10.481c2.94,3.684,5.703,7.757,8.5,12.153
		c2.797,4.396,5.628,9.112,7.816,13.541c2.192,4.428,3.741,8.57,4.616,12.708c0.872,4.138,1.069,8.272,0.982,11.907
		c-0.087,3.635-0.458,6.77-1.61,9.866c-1.154,3.096-3.092,6.152-5.384,8.814c-2.293,2.664-4.939,4.934-7.656,6.846
		c-2.717,1.914-5.502,3.469-8.642,4.311c-3.141,0.842-6.634,0.969-10.125,0.918c-3.493-0.051-6.984-0.279-10.4-1.291
		c-3.417-1.014-6.759-2.809-9.352-4.887c-2.594-2.078-4.436-4.438-5.743-7.224c-1.308-2.786-2.078-5.997-2.563-8.921
		c-0.486-2.925-0.689-5.563-0.212-8.377c0.475-2.813,1.628-5.802,2.958-8.255c1.328-2.454,2.833-4.371,4.729-5.932
		c1.896-1.56,4.182-2.762,6.466-3.5c2.284-0.739,4.567-1.013,6.597-1.004c2.033,0.008,3.813,0.301,4.986,0.841
		c1.173,0.539,1.741,1.326,2.021,2.432c0.28,1.106,0.274,2.531,0.02,3.528c-0.253,0.997-0.754,1.564-1.578,2.096
		c-0.822,0.531-1.963,1.025-2.965,1.699c-1.001,0.672-1.858,1.523-2.472,3.018c-0.614,1.495-0.979,3.63-0.989,6.52
		c-0.014,2.886,0.328,6.521,0.923,9.056c0.594,2.532,1.444,3.961,2.863,5.145c1.422,1.183,3.413,2.119,5.906,2.591
		c2.492,0.475,5.486,0.485,8.053,0.142c2.567-0.346,4.708-1.049,6.639-2.145c1.928-1.098,3.646-2.588,4.899-4.22
		c1.255-1.634,2.047-3.412,2.519-5.621c0.473-2.207,0.627-4.844,0.53-7.195c-0.097-2.354-0.443-4.421-1.433-6.635
		c-0.988-2.214-2.617-4.573-4.497-6.791c-1.878-2.219-4.008-4.295-6.46-6.159c-2.45-1.863-5.223-3.515-8.035-4.454
		s-5.662-1.165-8.583-1.106c-2.923,0.059-5.917,0.402-8.95,1.103c-3.032,0.7-6.101,1.756-9.104,3.881
		c-3.003,2.125-5.938,5.32-7.877,8.591c-1.938,3.27-2.879,6.616-3.359,10.534c-0.48,3.919-0.5,8.409,0.337,12.689
		c0.836,4.279,2.529,8.35,4.546,11.672c2.017,3.322,4.358,5.899,6.739,7.727c2.38,1.828,4.799,2.907,7.131,3.805
		c2.335,0.896,4.585,1.608,6.907,2.03c2.323,0.422,4.717,0.554,6.691,0.622c1.972,0.068,3.522,0.076,5.408,0.055
		c1.889-0.021,4.112-0.068,6.284-0.433c2.174-0.362,4.298-1.038,7.459-2.521c3.163-1.481,7.365-3.771,10.57-5.922
		c3.206-2.15,5.416-4.166,7.052-6.404c1.636-2.236,2.704-4.695,3.55-6.98c0.846-2.284,1.471-4.394,1.747-7.251
		c0.276-2.859,0.205-6.468-0.089-9.944c-0.293-3.478-0.806-6.824-1.962-11.085c-1.154-4.262-2.948-9.439-4.735-13.533
		c-1.786-4.094-3.563-7.104-5.479-10.34c-1.917-3.237-3.973-6.701-5.464-9.227c-1.491-2.527-2.417-4.116-2.931-5.035
		c-0.517-0.92-0.623-1.171-0.657-1.397c-0.036-0.226,0-0.425,0.109-0.556c0.107-0.132,0.292-0.196,0.924-0.514
		c0.321-0.632,0.385-0.813,0.518-0.921c0.133-0.11,0.332-0.146,0.557-0.108c0.225,0.036,0.477,0.142,1.394,0.663
		c0.917,0.52,2.501,1.451,5.022,2.953s5.976,3.572,9.205,5.504c3.228,1.93,6.229,3.719,10.316,5.523
		c4.085,1.804,9.255,3.621,13.511,4.794c4.258,1.172,7.602,1.7,11.078,2.009c3.476,0.308,7.083,0.396,9.942,0.131
		c2.861-0.263,4.973-0.879,7.26-1.716c2.288-0.836,4.751-1.892,6.996-3.521c2.242-1.627,4.267-3.827,6.433-7.024
		c2.166-3.195,4.472-7.388,5.969-10.545c1.494-3.157,2.18-5.276,2.553-7.449c0.371-2.172,0.429-4.396,0.458-6.283
		c0.028-1.887,0.028-3.437-0.03-5.409c-0.06-1.974-0.182-4.369-0.594-6.693c-0.412-2.324-1.115-4.576-2.002-6.915
		c-0.885-2.339-1.955-4.762-3.771-7.15c-1.818-2.387-4.384-4.74-7.697-6.771c-3.315-2.031-7.377-3.742-11.654-4.597
		c-4.276-0.854-8.768-0.854-12.687-0.393c-3.921,0.463-7.27,1.39-10.549,3.313c-3.278,1.924-6.485,4.846-8.624,7.84
		c-2.138,2.994-3.207,6.058-3.92,9.088c-0.713,3.029-1.07,6.023-1.141,8.945c-0.07,2.923,0.143,5.773,1.069,8.588
		c0.927,2.815,2.565,5.595,4.42,8.054c1.852,2.46,3.919,4.597,6.129,6.486c2.208,1.888,4.561,3.528,6.771,4.525
		s4.277,1.354,6.629,1.461c2.353,0.106,4.989-0.036,7.199-0.499c2.209-0.464,3.993-1.247,5.631-2.495
		c1.638-1.247,3.136-2.958,4.241-4.882s1.816-4.063,2.174-6.629c0.355-2.565,0.355-5.559-0.107-8.053
		c-0.465-2.496-1.391-4.49-2.565-5.917c-1.175-1.425-2.601-2.281-5.132-2.886c-2.53-0.605-6.166-0.962-9.051-0.962
		c-2.887,0-5.027,0.357-6.522,0.962c-1.497,0.606-2.352,1.461-3.028,2.459c-0.677,0.998-1.177,2.138-1.71,2.958
		c-0.536,0.82-1.105,1.319-2.105,1.569c-0.997,0.249-2.422,0.249-3.527-0.036c-1.105-0.285-1.888-0.854-2.424-2.031
		c-0.534-1.176-0.819-2.958-0.819-4.989c0-2.03,0.286-4.312,1.033-6.593c0.749-2.281,1.96-4.562,3.53-6.45
		c1.567-1.889,3.492-3.386,5.952-4.704c2.458-1.318,5.452-2.46,8.267-2.923c2.815-0.462,5.454-0.249,8.375,0.25
		c2.922,0.499,6.129,1.282,8.909,2.602c2.778,1.318,5.132,3.171,7.198,5.773c2.068,2.601,3.849,5.95,4.849,9.372
		c0.997,3.42,1.211,6.913,1.247,10.406c0.036,3.492-0.107,6.985-0.963,10.121c-0.855,3.136-2.422,5.915-4.348,8.624
		c-1.924,2.709-4.207,5.346-6.879,7.627c-2.672,2.281-5.736,4.205-8.837,5.346c-3.1,1.14-6.236,1.497-9.871,1.568
		c-3.635,0.072-7.77-0.142-11.904-1.033c-4.133-0.891-8.267-2.459-12.686-4.668c-4.419-2.209-9.123-5.061-13.507-7.876
		c-4.382-2.814-8.445-5.595-12.117-8.553c-3.671-2.957-6.949-6.094-10.441-9.516c-3.493-3.42-7.199-7.127-11.583-11.795
		c-4.382-4.668-9.442-10.299-13.363-14.933c-3.921-4.633-6.701-8.268-9.587-12.081c-2.887-3.813-5.881-7.805-9.087-12.366
		c-3.208-4.562-6.629-9.693-9.623-14.326c-2.994-4.633-5.56-8.768-8.517-13.151c-2.96-4.384-6.31-9.016-9.77-13.205
		c-3.461-4.189-7.034-7.935-10.436-11.482c-3.403-3.548-6.635-6.896-9.667-9.609c-3.031-2.713-5.861-4.792-8.69-6.494
		c-2.829-1.704-5.658-3.032-8.169-3.812c-2.512-0.779-4.704-1.01-8.053-0.692C56.224,41.981,51.72,42.848,46.836,47.037z"/>
	<circle fill="#FFFFFF" stroke="#000000" stroke-width="1.5" stroke-miterlimit="10" cx="243.955" cy="304.271" r="22.459"/>
	<circle fill="#FFFFFF" stroke="#000000" stroke-width="1.5" stroke-miterlimit="10" cx="298.529" cy="304.271" r="22.459"/>
	<circle fill="#FFFFFF" stroke="#000000" stroke-width="1.5" stroke-miterlimit="10" cx="298.529" cy="242.917" r="22.459"/>
	<circle fill="#FFFFFF" stroke="#000000" stroke-width="1.5" stroke-miterlimit="10" cx="243.955" cy="242.917" r="22.459"/>
	<path fill="#FFFFFF" stroke="#000000" stroke-width="1.5" stroke-miterlimit="10" d="M4.077,545.761c0-8.508,0-17.018,0-25.525
		c2.222-71.363,3.758-90.154,5.06-104.104c1.301-13.945,2.366-23.049,3.76-32.438c1.394-9.394,3.119-19.071,4.84-27.491
		c1.727-8.42,3.449-15.581,5.77-23.206c2.322-7.624,5.239-15.713,7.889-22.542c2.653-6.828,5.039-12.397,7.691-17.237
		s5.57-8.949,8.114-11.525c2.544-2.578,4.716-3.623,6.681-4.398c1.965-0.775,3.723-1.285,5.595-1.539s3.86-0.254,5.687,0.277
		c1.826,0.533,3.492,1.596,5.456,3.4c1.965,1.803,4.229,4.346,6.034,6.68c1.804,2.336,3.144,4.461,3.768,6.889
		c0.625,2.428,0.531,5.156,0.116,7.605c-0.417,2.451-1.156,4.623-2.358,7.051c-1.202,2.429-2.867,5.109-5.317,8.671
		c-2.45,3.562-5.687,7.999-8.692,12.159c-3.007,4.16-5.779,8.045-8.393,12.043c-2.612,4-5.062,8.115-7.374,12.229
		c-2.311,4.115-4.483,8.229-6.771,13.436c-2.288,5.203-4.688,11.496-7.021,17.772c-2.332,6.279-4.594,12.543-6.508,18.763
		c-1.914,6.223-3.48,12.397-5.003,18.838c-1.522,6.438-3.001,13.137-4.436,21.399c-1.436,8.267-2.829,18.097-3.916,26.665
		c-1.087,8.569-1.871,15.878-2.305,23.272c-0.436,7.394-0.522,14.875-0.63,22.141c-0.109,7.265-0.239,14.313-1.283,24.229
		c16.703-0.263,31.188-0.782,44.259-1.694c13.072-0.914,24.729-2.219,36.083-3.872c11.354-1.652,22.402-3.653,33.842-6.264
		c11.44-2.609,23.272-5.828,34.277-9.744c11.004-3.915,21.184-8.526,30.753-13.702c9.57-5.177,18.532-10.919,25.925-15.834
		c7.395-4.915,13.224-9.004,17.965-12.181c4.742-3.176,8.396-5.438,11.615-6.523c3.218-1.088,6.002-1.001,8.48-0.564
		c2.479,0.438,4.654,1.22,6.482,2.394c1.825,1.174,3.307,2.741,5.057,4.558c1.752,1.817,3.775,3.887,4.938,5.95
		c1.162,2.064,1.46,4.124,1.368,6.187c-0.095,2.059-0.581,4.116-1.349,5.878c-0.768,1.761-1.816,3.221-3.146,4.887
		c-1.33,1.667-2.939,3.54-4.457,5.057c-1.516,1.518-2.941,2.68-5.505,4.271c-2.563,1.593-6.273,3.613-10.785,5.729
		c-4.513,2.116-9.83,4.326-18.022,7.179c-8.191,2.854-19.255,6.349-28.225,8.687c-8.969,2.339-15.844,3.521-23.63,4.917
		c-7.787,1.396-16.486,3.007-27.783,4.459c-11.299,1.452-25.191,2.744-36.728,3.594c-11.535,0.851-20.71,1.258-27.966,1.512
		c-7.255,0.255-12.589,0.354-22.051,0.589c-9.462,0.231-23.052,0.602-33.229,0.804c-10.178,0.201-16.941,0.232-24.623,0.168"/>
	<path fill="#FFFFFF" stroke="#000000" stroke-width="1.5" stroke-miterlimit="10" d="M547.134,545.761c0-8.508,0-17.018,0-25.525
		c-2.222-71.363-3.758-90.154-5.059-104.104c-1.3-13.945-2.367-23.049-3.761-32.438c-1.396-9.394-3.118-19.071-4.843-27.491
		s-3.446-15.581-5.769-23.206c-2.321-7.624-5.24-15.713-7.889-22.542c-2.653-6.828-5.04-12.397-7.691-17.237
		c-2.652-4.84-5.57-8.949-8.114-11.525c-2.544-2.578-4.717-3.623-6.681-4.398c-1.966-0.775-3.725-1.285-5.595-1.539
		c-1.872-0.254-3.86-0.254-5.688,0.277c-1.826,0.533-3.49,1.596-5.455,3.4c-1.966,1.803-4.229,4.346-6.034,6.68
		c-1.803,2.336-3.144,4.461-3.769,6.889c-0.623,2.428-0.53,5.156-0.115,7.605c0.416,2.451,1.155,4.623,2.357,7.051
		c1.203,2.429,2.867,5.109,5.315,8.671c2.451,3.562,5.688,7.999,8.692,12.159s5.779,8.045,8.393,12.043
		c2.611,4,5.063,8.115,7.373,12.229c2.313,4.115,4.484,8.229,6.771,13.436c2.288,5.201,4.688,11.496,7.021,17.772
		c2.332,6.279,4.596,12.543,6.507,18.763c1.915,6.223,3.48,12.397,5.006,18.838c1.521,6.438,3.002,13.137,4.437,21.399
		c1.438,8.267,2.828,18.097,3.916,26.665c1.088,8.569,1.87,15.878,2.308,23.272c0.435,7.394,0.521,14.875,0.63,22.141
		c0.106,7.265,0.237,14.313,1.282,24.229c-16.702-0.263-31.188-0.782-44.261-1.694c-13.069-0.914-24.729-2.219-36.084-3.872
		c-11.354-1.652-22.398-3.653-33.842-6.264c-11.439-2.609-23.271-5.828-34.276-9.744c-11.005-3.915-21.185-8.526-30.754-13.702
		c-9.567-5.177-18.528-10.919-25.925-15.834c-7.395-4.915-13.224-9.004-17.964-12.181c-4.742-3.176-8.396-5.438-11.615-6.523
		c-3.218-1.088-6.002-1.001-8.48-0.564c-2.479,0.438-4.654,1.22-6.48,2.394c-1.827,1.174-3.307,2.741-5.059,4.558
		c-1.752,1.817-3.774,3.887-4.938,5.95c-1.16,2.064-1.461,4.124-1.367,6.187c0.094,2.059,0.582,4.116,1.35,5.878
		c0.767,1.761,1.814,3.221,3.146,4.887c1.33,1.667,2.94,3.54,4.456,5.057c1.52,1.518,2.941,2.68,5.506,4.271
		c2.565,1.593,6.273,3.613,10.785,5.729c4.516,2.116,9.83,4.326,18.022,7.179c8.189,2.854,19.256,6.349,28.225,8.687
		c8.969,2.339,15.844,3.521,23.63,4.917c7.787,1.396,16.487,3.007,27.785,4.459c11.298,1.451,25.19,2.744,36.728,3.594
		c11.533,0.851,20.711,1.258,27.966,1.512c7.257,0.255,12.59,0.354,22.052,0.589c9.462,0.231,23.054,0.602,33.229,0.804
		c10.179,0.201,16.939,0.232,24.621,0.168"/>
	<path fill="#FFFFFF" stroke="#000000" stroke-width="1.5" stroke-miterlimit="10" d="M547.134,3.105c0,8.509,0,17.018,0,25.527
		c-2.222,71.363-3.758,90.155-5.059,104.103c-1.3,13.947-2.367,23.049-3.761,32.439c-1.396,9.391-3.118,19.071-4.843,27.491
		c-1.725,8.419-3.446,15.581-5.769,23.206s-5.24,15.713-7.889,22.542c-2.653,6.828-5.04,12.397-7.691,17.237
		c-2.652,4.841-5.57,8.951-8.114,11.529c-2.544,2.576-4.717,3.62-6.681,4.396c-1.965,0.775-3.725,1.285-5.595,1.539
		c-1.872,0.255-3.86,0.255-5.688-0.277c-1.826-0.531-3.49-1.595-5.455-3.396c-1.966-1.805-4.229-4.346-6.034-6.682
		c-1.803-2.335-3.144-4.461-3.769-6.889c-0.623-2.428-0.53-5.155-0.115-7.605c0.416-2.451,1.155-4.624,2.357-7.051
		c1.203-2.428,2.867-5.109,5.315-8.669c2.451-3.56,5.688-7.998,8.692-12.159c3.005-4.161,5.779-8.045,8.393-12.044
		c2.611-3.999,5.063-8.114,7.373-12.229c2.313-4.115,4.484-8.229,6.771-13.433c2.288-5.204,4.688-11.496,7.021-17.774
		c2.332-6.278,4.596-12.542,6.507-18.763c1.915-6.22,3.48-12.397,5.006-18.835c1.521-6.438,3.002-13.137,4.437-21.401
		c1.438-8.264,2.828-18.096,3.916-26.665c1.088-8.569,1.87-15.877,2.308-23.272c0.435-7.396,0.521-14.876,0.63-22.141
		c0.107-7.265,0.237-14.312,1.282-24.229c-16.702,0.261-31.188,0.784-44.261,1.696c-13.069,0.914-24.729,2.219-36.084,3.871
		c-11.353,1.654-22.398,3.654-33.842,6.265c-11.439,2.61-23.271,5.83-34.276,9.744c-11.005,3.915-21.185,8.526-30.754,13.703
		c-9.567,5.177-18.528,10.919-25.925,15.833c-7.395,4.916-13.224,9.005-17.964,12.18c-4.742,3.175-8.396,5.438-11.615,6.524
		c-3.218,1.087-6.002,1.001-8.48,0.565c-2.479-0.435-4.654-1.218-6.48-2.392c-1.827-1.174-3.307-2.741-5.059-4.558
		c-1.752-1.817-3.774-3.886-4.938-5.951c-1.16-2.064-1.461-4.124-1.367-6.183c0.094-2.06,0.582-4.12,1.35-5.88
		c0.767-1.76,1.814-3.221,3.146-4.887c1.33-1.667,2.94-3.539,4.456-5.056c1.52-1.517,2.941-2.678,5.506-4.269
		c2.565-1.592,6.273-3.614,10.785-5.731c4.516-2.116,9.83-4.325,18.022-7.178c8.189-2.852,19.256-6.346,28.225-8.685
		c8.969-2.338,15.844-3.519,23.63-4.916c7.787-1.396,16.487-3.007,27.785-4.459c11.298-1.451,25.19-2.744,36.728-3.593
		c11.534-0.849,20.711-1.257,27.966-1.512c7.257-0.254,12.59-0.354,22.052-0.587s23.054-0.602,33.229-0.804
		c10.179-0.201,16.939-0.234,24.621-0.168"/>
	<path fill="#FFFFFF" stroke="#000000" stroke-width="1.5" stroke-miterlimit="10" d="M4.077,3.105c0,8.509,0,17.018,0,25.527
		c2.222,71.363,3.758,90.155,5.06,104.103c1.301,13.947,2.366,23.049,3.76,32.439c1.394,9.391,3.119,19.071,4.84,27.491
		c1.727,8.419,3.449,15.581,5.77,23.206c2.322,7.625,5.239,15.713,7.889,22.542c2.653,6.828,5.039,12.397,7.691,17.237
		c2.652,4.841,5.57,8.951,8.114,11.529c2.544,2.576,4.716,3.62,6.681,4.396c1.964,0.775,3.723,1.285,5.595,1.539
		c1.872,0.255,3.86,0.255,5.687-0.277c1.826-0.531,3.492-1.595,5.456-3.396c1.965-1.805,4.229-4.346,6.034-6.682
		c1.804-2.335,3.144-4.461,3.768-6.889c0.625-2.428,0.531-5.155,0.116-7.605c-0.417-2.451-1.156-4.624-2.358-7.051
		c-1.202-2.428-2.867-5.109-5.317-8.669c-2.45-3.56-5.687-7.998-8.692-12.159c-3.007-4.161-5.779-8.045-8.393-12.044
		c-2.612-3.999-5.062-8.114-7.374-12.229c-2.311-4.115-4.483-8.229-6.771-13.433c-2.288-5.204-4.688-11.496-7.021-17.774
		c-2.333-6.278-4.594-12.542-6.508-18.763c-1.914-6.22-3.48-12.397-5.003-18.835c-1.522-6.438-3.001-13.137-4.436-21.401
		c-1.436-8.264-2.829-18.096-3.916-26.665c-1.087-8.569-1.871-15.877-2.305-23.272c-0.436-7.396-0.522-14.876-0.63-22.141
		c-0.109-7.265-0.239-14.312-1.283-24.229c16.703,0.261,31.188,0.784,44.259,1.696c13.072,0.914,24.729,2.219,36.083,3.871
		c11.353,1.654,22.402,3.654,33.842,6.265c11.44,2.61,23.272,5.83,34.277,9.744c11.004,3.915,21.184,8.526,30.753,13.703
		c9.57,5.177,18.532,10.919,25.925,15.833c7.395,4.916,13.224,9.005,17.965,12.18c4.742,3.175,8.396,5.438,11.615,6.524
		c3.218,1.088,6.002,1.001,8.48,0.565c2.479-0.435,4.654-1.218,6.482-2.392c1.825-1.174,3.307-2.741,5.057-4.558
		c1.752-1.817,3.775-3.886,4.938-5.951c1.161-2.064,1.46-4.124,1.368-6.183c-0.095-2.06-0.581-4.12-1.349-5.88
		c-0.768-1.76-1.816-3.221-3.146-4.887c-1.33-1.667-2.939-3.539-4.457-5.056c-1.518-1.517-2.941-2.678-5.505-4.269
		c-2.563-1.592-6.273-3.614-10.785-5.731c-4.513-2.116-9.83-4.325-18.022-7.178c-8.191-2.852-19.255-6.346-28.225-8.685
		c-8.969-2.338-15.844-3.519-23.63-4.916c-7.787-1.396-16.486-3.007-27.783-4.459c-11.299-1.451-25.191-2.744-36.728-3.593
		c-11.533-0.85-20.709-1.256-27.964-1.511C76.725,4.479,71.392,4.379,61.93,4.146c-9.462-0.233-23.052-0.602-33.229-0.804
		C18.523,3.141,11.76,3.108,4.078,3.174"/>
	<path fill="#FFFFFF" stroke="#000000" stroke-width="1.5" stroke-miterlimit="10" d="M27.147,525.015
		c25.75-2.813,43.052-8.047,55.858-12.939c12.809-4.896,21.124-9.454,29.572-15.021c8.45-5.563,17.032-12.138,24.276-18.71
		c7.243-6.568,13.142-13.143,18.911-20.52c5.767-7.377,11.4-15.56,15.893-21.729c4.493-6.169,7.846-10.327,11.534-13.143
		c3.688-2.816,7.711-4.292,11.064-4.762c3.353-0.471,6.035,0.064,8.114,1.406c2.08,1.343,3.554,3.488,4.561,5.834
		c1.005,2.35,1.542,4.896,1.542,9.055c0,4.157-0.538,9.926-1.878,14.552c-1.34,4.628-3.486,8.114-6.84,12.474
		c-3.354,4.358-7.914,9.589-13.412,14.418c-5.499,4.827-11.937,9.254-20.387,14.082c-8.449,4.828-18.91,10.061-29.304,14.149
		s-20.721,7.041-30.846,9.79c-10.126,2.748-20.051,5.298-30.438,7.729c-10.385,2.434-21.233,4.744-30.686,6.336
		c-9.45,1.589-17.503,2.454-24.777,4.243c4.022-29.772,8.449-50.294,12.07-65.851c3.621-15.561,6.438-26.154,9.255-35.407
		c2.815-9.255,5.632-17.168,8.717-24.545c3.085-7.375,6.438-14.216,10.595-21.324c4.158-7.106,9.119-14.482,13.479-19.85
		c4.358-5.363,8.114-8.717,13.008-12.271c4.896-3.554,10.931-7.31,15.625-9.388c4.694-2.079,8.047-2.481,11.534-2.481
		s7.107,0.402,9.924,1.408c2.816,1.005,4.828,2.614,6.17,4.764c1.341,2.146,2.011,4.825,2.146,7.574
		c0.132,2.749-0.269,5.565-1.274,8.182c-1.006,2.615-2.615,5.031-6.17,8.182c-3.554,3.152-9.053,7.042-15.892,12.07
		c-6.84,5.027-15.021,11.198-21.995,17.367c-6.974,6.171-12.74,12.34-17.436,17.771c-4.693,5.431-8.315,10.126-12.472,16.696
		c-4.157,6.57-8.852,15.021-12.473,22.667c-3.621,7.644-6.169,14.482-8.248,20.986c-2.079,6.507-3.688,12.677-5.198,19.582
		C29.763,505.3,28.354,512.945,27.147,525.015z"/>
	<path fill="#FFFFFF" stroke="#000000" stroke-width="1.5" stroke-miterlimit="10" d="M525.094,525.015
		c-25.751-2.813-43.051-8.047-55.856-12.939c-12.812-4.896-21.124-9.454-29.572-15.021c-8.449-5.563-17.033-12.138-24.276-18.71
		c-7.242-6.568-13.142-13.143-18.91-20.52c-5.768-7.377-11.397-15.56-15.892-21.729c-4.495-6.169-7.847-10.327-11.535-13.143
		c-3.688-2.816-7.711-4.292-11.063-4.762c-3.354-0.471-6.035,0.064-8.114,1.406c-2.079,1.343-3.554,3.488-4.561,5.834
		c-1.008,2.349-1.543,4.896-1.543,9.055c0,4.157,0.535,9.926,1.879,14.552c1.341,4.628,3.486,8.114,6.841,12.474
		c3.354,4.358,7.914,9.589,13.411,14.418c5.5,4.827,11.938,9.254,20.387,14.082s18.91,10.061,29.305,14.149
		c10.396,4.091,20.722,7.041,30.849,9.79c10.125,2.748,20.051,5.298,30.437,7.729c10.387,2.434,21.235,4.744,30.688,6.336
		c9.449,1.589,17.507,2.454,24.777,4.243c-4.021-29.772-8.449-50.294-12.068-65.851c-3.621-15.561-6.439-26.154-9.256-35.407
		c-2.814-9.255-5.634-17.168-8.717-24.545c-3.087-7.375-6.438-14.216-10.597-21.324c-4.158-7.106-9.12-14.482-13.479-19.85
		c-4.356-5.363-8.111-8.717-13.009-12.271c-4.896-3.553-10.931-7.31-15.625-9.388c-4.692-2.079-8.047-2.481-11.532-2.481
		c-3.486,0-7.107,0.402-9.927,1.408c-2.813,1.005-4.827,2.614-6.167,4.764c-1.343,2.146-2.013,4.825-2.146,7.574
		c-0.136,2.749,0.268,5.565,1.271,8.182c1.005,2.617,2.615,5.031,6.17,8.182c3.556,3.152,9.055,7.042,15.893,12.07
		c6.842,5.027,15.021,11.198,21.996,17.367c6.974,6.171,12.739,12.34,17.436,17.771c4.695,5.431,8.315,10.126,12.474,16.696
		c4.156,6.57,8.853,15.021,12.474,22.667c3.621,7.644,6.17,14.482,8.249,20.986c2.079,6.507,3.688,12.677,5.196,19.582
		C522.479,505.3,523.887,512.945,525.094,525.015z"/>
	<path fill="#FFFFFF" stroke="#000000" stroke-width="1.5" stroke-miterlimit="10" d="M525.094,27.252
		c-25.751,2.816-43.051,8.047-55.856,12.942c-12.812,4.896-21.124,9.455-29.572,15.021c-8.449,5.566-17.033,12.138-24.276,18.709
		c-7.242,6.572-13.142,13.144-18.91,20.521c-5.768,7.376-11.397,15.558-15.892,21.727c-4.494,6.168-7.847,10.327-11.535,13.144
		c-3.688,2.816-7.711,4.292-11.063,4.76c-3.354,0.469-6.035-0.066-8.114-1.408s-3.554-3.487-4.561-5.833
		c-1.008-2.346-1.543-4.896-1.543-9.052c0-4.158,0.535-9.925,1.879-14.552c1.341-4.627,3.486-8.114,6.841-12.473
		c3.354-4.359,7.914-9.589,13.411-14.417c5.5-4.829,11.938-9.254,20.387-14.083c8.449-4.828,18.91-10.058,29.305-14.149
		c10.396-4.09,20.722-7.042,30.849-9.791c10.125-2.749,20.051-5.297,30.437-7.728c10.387-2.431,21.235-4.745,30.688-6.334
		c9.449-1.59,17.507-2.456,24.777-4.244c-4.021,29.774-8.449,50.294-12.068,65.851c-3.621,15.557-6.439,26.153-9.256,35.407
		c-2.815,9.254-5.634,17.167-8.717,24.543c-3.087,7.376-6.438,14.216-10.597,21.324c-4.158,7.109-9.12,14.485-13.479,19.849
		c-4.356,5.365-8.111,8.718-13.009,12.271c-4.896,3.555-10.931,7.31-15.625,9.388c-4.692,2.079-8.047,2.481-11.532,2.481
		c-3.486,0-7.107-0.402-9.927-1.408c-2.813-1.006-4.827-2.615-6.167-4.761c-1.343-2.146-2.013-4.828-2.146-7.577
		c-0.136-2.75,0.268-5.566,1.271-8.181c1.005-2.615,2.615-5.029,6.17-8.181c3.556-3.151,9.055-7.042,15.893-12.07
		c6.842-5.029,15.021-11.199,21.996-17.368c6.974-6.17,12.739-12.339,17.436-17.77c4.695-5.432,8.315-10.125,12.474-16.697
		c4.157-6.572,8.853-15.021,12.474-22.667c3.621-7.645,6.17-14.484,8.249-20.989s3.688-12.674,5.196-19.581
		C522.479,46.967,523.887,39.322,525.094,27.252z"/>
	<path fill="#FFFFFF" stroke="#000000" stroke-width="1.5" stroke-miterlimit="10" d="M27.147,27.252
		c25.75,2.816,43.052,8.047,55.858,12.942c12.809,4.896,21.124,9.455,29.572,15.021c8.45,5.566,17.032,12.138,24.276,18.709
		c7.243,6.572,13.142,13.144,18.911,20.521c5.767,7.376,11.4,15.558,15.893,21.727c4.493,6.169,7.846,10.327,11.534,13.144
		c3.688,2.816,7.711,4.292,11.064,4.76c3.353,0.469,6.035-0.066,8.114-1.408c2.08-1.342,3.554-3.487,4.561-5.833
		c1.005-2.346,1.542-4.896,1.542-9.052c0-4.158-0.538-9.925-1.878-14.552c-1.34-4.627-3.486-8.114-6.84-12.473
		c-3.354-4.359-7.914-9.589-13.412-14.417c-5.499-4.829-11.937-9.254-20.387-14.083c-8.449-4.828-18.91-10.058-29.304-14.149
		c-10.394-4.09-20.721-7.042-30.846-9.791c-10.126-2.749-20.051-5.297-30.438-7.728c-10.385-2.431-21.233-4.745-30.686-6.334
		c-9.45-1.59-17.503-2.456-24.777-4.244c4.022,29.774,8.449,50.294,12.07,65.851c3.621,15.557,6.438,26.153,9.255,35.407
		c2.815,9.254,5.632,17.167,8.717,24.543c3.085,7.376,6.438,14.216,10.595,21.324c4.158,7.108,9.119,14.485,13.479,19.849
		c4.358,5.365,8.114,8.718,13.008,12.271c4.896,3.555,10.931,7.31,15.625,9.388c4.694,2.079,8.047,2.481,11.534,2.481
		s7.107-0.402,9.924-1.408c2.816-1.006,4.828-2.615,6.17-4.761c1.341-2.146,2.011-4.828,2.146-7.577
		c0.132-2.75-0.269-5.566-1.274-8.181c-1.006-2.615-2.615-5.029-6.17-8.181c-3.554-3.151-9.053-7.042-15.892-12.07
		c-6.84-5.029-15.021-11.199-21.995-17.368c-6.974-6.169-12.74-12.339-17.436-17.77c-4.693-5.432-8.315-10.125-12.472-16.697
		c-4.157-6.572-8.852-15.021-12.473-22.667c-3.621-7.645-6.169-14.484-8.248-20.989c-2.079-6.505-3.688-12.674-5.198-19.581
		C29.763,46.967,28.354,39.322,27.147,27.252z"/>
</g>
</svg>
