<?xml version="1.0" encoding="utf-8"?>
<!-- Generator: Adobe Illustrator 16.0.0, SVG Export Plug-In . SVG Version: 6.00 Build 0)  -->
<!DOCTYPE svg PUBLIC "-//W3C//DTD SVG 1.1//EN" "http://www.w3.org/Graphics/SVG/1.1/DTD/svg11.dtd" [
	<!ENTITY ns_flows "http://ns.adobe.com/Flows/1.0/">
	<!ENTITY ns_extend "http://ns.adobe.com/Extensibility/1.0/">
	<!ENTITY ns_ai "http://ns.adobe.com/AdobeIllustrator/10.0/">
	<!ENTITY ns_graphs "http://ns.adobe.com/Graphs/1.0/">
]>
<svg version="1.1" id="Layer_1" xmlns:x="&ns_extend;" xmlns:i="&ns_ai;" xmlns:graph="&ns_graphs;"
	 xmlns="http://www.w3.org/2000/svg" xmlns:xlink="http://www.w3.org/1999/xlink" xmlns:a="http://ns.adobe.com/AdobeSVGViewerExtensions/3.0/"
	 x="0px" y="0px" width="550px" height="550px" viewBox="8.5 8.5 550 550" enable-background="new 8.5 8.5 550 550"
	 xml:space="preserve">
<g>
	<path fill="#FFFFFF" stroke="#58595B" stroke-width="1.5" stroke-miterlimit="10" d="M8.5,8.5v549.469h12.522
		c6.397-37.887,11.923-58.805,17.011-74.492c5.088-15.688,9.742-26.147,14.298-35.638c4.556-9.491,9.015-18.013,15.024-27.213
		c6.01-9.199,13.571-19.077,21.617-28.373c8.045-9.296,16.575-18.013,25.688-25.855c9.111-7.846,18.805-14.818,27.238-20.531
		c8.434-5.715,15.606-10.169,22.586-14.042c6.979-3.873,13.764-7.167,22.488-10.943c8.724-3.775,19.386-8.038,28.498-10.943
		c9.112-2.904,16.672-4.454,23.846-5.907c7.173-1.452,13.958-2.809,19.027-3.775c5.069-0.97,8.42-1.551,10.598-2.425
		c2.177-0.873,3.178-2.041,3.095-3.042c-0.083-1.002-1.252-1.834-6.115-6.533c-4.863-4.701-13.419-13.267-18.797-18.57
		c-5.377-5.303-7.577-7.342-9.461-8.598c-1.884-1.255-3.454-1.725-5.731-3.53c-2.277-1.803-5.26-4.941-10.678-9.413
		c-5.418-4.471-13.27-10.275-21.121-15.296c-7.852-5.021-15.704-9.256-22.534-12.394s-12.641-5.177-18.373-6.746
		s-11.385-2.667-15.938-2.354c-4.554,0.314-8.008,2.039-10.835,4.785c-2.827,2.746-5.025,6.51-5.653,10.668
		c-0.627,4.158,0.314,8.707,2.199,12.707c1.884,4.001,4.711,7.452,7.223,9.962c2.513,2.511,4.711,4.079,7.773,5.099
		c3.063,1.02,6.988,1.491,10.128,2.432c3.14,0.941,5.497,2.353,7.146,4.079c1.649,1.726,2.591,3.765,2.827,5.333
		s-0.236,2.667-1.963,3.922c-1.727,1.255-4.711,2.667-7.616,4.158c-2.906,1.491-5.732,3.059-7.773,4.471
		c-2.042,1.412-3.297,2.666-4.554,4.549c-1.257,1.883-2.513,4.393-6.124,7.059c-3.612,2.668-9.579,5.492-16.096,8.63
		c-6.517,3.137-13.584,6.588-20.179,8.785c-6.595,2.196-12.719,3.137-19.471,3.843c-6.752,0.707-14.133,1.178-21.435,1.021
		c-7.302-0.157-14.526-0.941-23.101-2.442c-8.574-1.501-18.5-3.717-24.179-8.376c16.697-11.79,26.588-18.43,34.367-24.271
		c7.779-5.842,13.445-10.885,18.184-15.723c4.739-4.837,8.552-9.47,12.312-14.153s7.47-9.417,10.2-14.617
		c2.73-5.197,4.481-10.859,5.603-14.976c1.12-4.117,1.611-6.69,1.663-9.817s-0.337-6.807,0.537-10.094
		c0.873-3.287,3.005-6.184,5.484-8.651c2.48-2.468,5.307-4.507,8.604-6.233c3.297-1.725,7.066-3.137,10.756-4.313
		c3.691-1.177,7.302-2.118,10.835-3.437c3.533-1.318,6.988-3.014,9.216-4.571c2.228-1.557,3.229-2.973,3.313-4.266
		c0.083-1.292-0.751-2.46-2.959-5.349c-2.208-2.888-5.789-7.5-7.872-10.181s-2.668-3.431-3.544-3.598s-2.044,0.25-2.921,0.167
		c-0.877-0.083-1.46-0.667-2.628-1.876c-1.169-1.209-2.921-3.043-4.172-4.377c-1.251-1.334-2.002-2.168-2.379-3.127
		c-0.376-0.958-0.375-2.042-0.667-2.918c-0.292-0.875-0.875-1.542-2.212-3.002c-1.336-1.459-3.421-3.71-5.34-5.002
		c-1.92-1.292-3.672-1.626-5.34-1.333c-1.67,0.292-3.255,1.208-4.631,2.543c-1.377,1.334-2.546,3.085-3.678,4.306
		c-1.132,1.222-2.229,1.915-4.112,2.897c-1.884,0.981-4.555,2.253-7.227,2.633c-2.67,0.381-5.342-0.127-7.376-0.827
		c-2.035-0.7-3.435-1.588-4.897-2.986c-1.463-1.398-2.989-3.304-4.007-5.782c-1.018-2.477-1.526-5.528-1.336-8.069
		c0.191-2.541,1.082-4.575,2.545-6.544c1.463-1.969,3.497-3.875,5.087-5.209c1.59-1.333,2.735-2.097,3.558-2.978
		c0.823-0.882,1.323-1.882,1.323-2.716c0-0.833-0.5-1.5-1.585-2c-1.084-0.5-2.754-0.833-4.756-1.417
		c-2.003-0.583-4.339-1.417-6.301-2.584c-1.961-1.168-3.547-2.668-4.673-4.752c-1.126-2.084-1.795-4.752-1.878-7.629
		c-0.083-2.877,0.417-5.96,1.418-8.942c1.001-2.98,2.504-5.857,6.054-10.155c4.303-3.547,7.182-5.048,10.165-6.048
		c2.984-1,6.072-1.501,8.951-1.417c2.879,0.083,5.55,0.75,7.636,1.876c2.085,1.126,3.588,2.71,4.756,4.669
		c1.168,1.958,2.002,4.293,2.587,6.294c0.585,2,0.918,3.669,1.418,4.752c0.5,1.083,1.169,1.583,2.003,1.583s1.836-0.5,2.718-1.322
		c0.882-0.822,1.646-1.966,2.981-3.554c1.336-1.588,3.243-3.621,5.215-5.083c1.971-1.461,4.006-2.351,6.55-2.542
		c2.544-0.19,5.597,0.318,8.077,1.335c2.481,1.016,4.388,2.541,5.787,4.002c1.399,1.462,2.29,2.859,2.989,4.893
		c0.699,2.033,1.208,4.702,0.827,7.37c-0.382,2.668-1.654,5.337-2.636,7.218c-0.983,1.882-1.677,2.978-2.899,4.11
		c-1.223,1.131-2.976,2.298-4.311,3.674c-1.334,1.375-2.252,2.959-2.545,4.627c-0.292,1.667,0.042,3.418,1.335,5.335
		c1.293,1.918,3.547,4.002,5.007,5.335c1.46,1.334,2.128,1.918,3.005,2.21c0.875,0.292,1.96,0.292,2.919,0.667
		c0.961,0.375,1.795,1.125,3.13,2.376c1.335,1.25,3.171,3.002,4.381,4.169c1.21,1.167,1.795,1.75,1.878,2.625
		c0.083,0.875-0.334,2.042-0.167,2.918c0.167,0.875,0.917,1.458,3.601,3.54s7.298,5.659,10.19,7.866
		c2.892,2.207,4.061,3.04,5.354,2.957c1.293-0.083,2.712-1.084,4.27-3.31c1.558-2.227,3.256-5.676,4.576-9.208
		c1.32-3.53,2.262-7.138,3.44-10.825c1.178-3.687,2.591-7.451,4.318-10.747c1.728-3.294,3.769-6.118,6.239-8.595
		c2.47-2.478,5.369-4.608,8.659-5.479c3.291-0.871,6.975-0.484,10.104-0.536c3.13-0.052,5.706-0.542,9.827-1.661
		c4.121-1.121,9.788-2.87,14.99-5.598c5.203-2.727,9.943-6.433,14.631-10.19c4.688-3.756,9.324-7.565,14.167-12.3
		c4.843-4.735,9.891-10.396,15.738-18.168c5.847-7.771,12.492-17.652,24.293-34.334c4.665,5.672,6.883,15.588,8.385,24.156
		c1.501,8.566,2.287,15.783,2.445,23.079c0.156,7.295-0.315,14.667-1.022,21.414c-0.707,6.746-1.647,12.864-3.848,19.453
		c-2.198,6.588-5.653,13.649-8.793,20.159c-3.141,6.512-5.967,12.473-8.636,16.08c-2.67,3.608-5.183,4.863-7.066,6.119
		c-1.885,1.255-3.141,2.51-4.555,4.55c-1.414,2.039-2.984,4.863-4.475,7.765c-1.491,2.902-2.906,5.883-4.162,7.609
		c-1.256,1.726-2.356,2.196-3.926,1.961c-1.571-0.235-3.612-1.177-5.338-2.825c-1.727-1.647-3.141-4-4.083-7.138
		s-1.414-7.06-2.434-10.119c-1.021-3.059-2.591-5.255-5.104-7.765c-2.513-2.51-5.968-5.333-9.972-7.217
		c-4.004-1.882-8.558-2.824-12.719-2.196c-4.161,0.628-7.93,2.824-10.678,5.648c-2.749,2.824-4.476,6.275-4.79,10.825
		c-0.314,4.549,0.785,10.197,2.355,15.923c1.571,5.726,3.612,11.531,6.752,18.355c3.141,6.824,7.381,14.668,12.406,22.513
		c5.025,7.844,10.834,15.688,15.311,21.1c4.476,5.412,7.616,8.394,9.422,10.668c1.806,2.274,2.276,3.844,3.533,5.726
		c1.256,1.882,3.297,4.078,8.605,9.451c5.309,5.373,13.884,13.922,18.586,18.779c4.706,4.858,5.54,6.026,6.541,6.109
		c1.001,0.083,2.169-0.917,3.045-3.092c0.875-2.175,1.457-5.524,2.425-10.587c0.971-5.064,2.327-11.843,3.781-19.009
		c1.453-7.167,3.006-14.72,5.913-23.823c2.908-9.103,7.174-19.755,10.953-28.471c3.78-8.715,7.077-15.495,10.953-22.467
		c3.878-6.973,8.338-14.139,14.056-22.564c5.721-8.425,12.698-18.11,20.551-27.212c7.852-9.103,16.575-17.625,25.881-25.663
		c9.307-8.038,19.193-15.592,28.4-21.596c9.209-6.004,17.739-10.458,27.239-15.01c9.499-4.551,19.968-9.2,35.672-14.284
		c15.703-5.084,36.641-10.604,74.563-16.995V8.5H8.5z"/>
	<path fill="#FFFFFF" stroke="#58595B" stroke-width="1.5" stroke-miterlimit="10" d="M504.639,85.919
		c-6.909,1.804-13.033,3.687-19.314,6.197c-6.28,2.51-12.72,5.647-19.865,9.491c-7.146,3.844-14.996,8.394-22.534,13.178
		c-7.537,4.785-14.762,9.805-20.807,14.041c-6.045,4.236-10.913,7.687-15.31,11.766c-4.397,4.078-8.323,8.785-12.563,14.198
		c-4.24,5.412-8.794,11.531-12.956,18.355c-4.16,6.825-7.93,14.354-11.305,22.591c-3.376,8.236-6.361,17.179-8.637,24.709
		c-2.277,7.531-3.848,13.648-4.79,20.708s-1.256,15.061-1.179,22.277c0.079,7.215,0.55,13.648,1.492,20.081
		s2.356,12.865,4.555,19.217c2.197,6.354,5.182,12.628,8.088,17.834c2.905,5.204,5.733,9.338,7.212,12.295
		c1.478,2.957,1.604,4.735,2.241,6.069c0.636,1.336,1.78,2.226,2.988,2.288c1.209,0.063,2.48-0.7,4.198-2.288
		c1.717-1.588,3.88-4.002,6.612-5.844c2.735-1.843,6.044-3.114,9.351-3.686c3.306-0.572,6.613-0.445,9.729,0.063
		c3.117,0.508,6.042,1.397,8.521,3.048c2.479,1.652,4.517,4.066,6.297,7.689c1.78,3.621,3.307,8.45,4.197,13.469
		s1.145,10.229,1.145,14.423s-0.254,7.371-0.445,9.594c-0.19,2.225-0.317,3.494,0.318,4.448s2.035,1.588,3.498,2.732
		c1.463,1.144,2.988,2.795,4.196,4.955c1.209,2.16,2.099,4.828,2.544,8.324c0.444,3.493,0.444,7.813-0.318,12.547
		c-0.763,4.734-2.288,9.88-9.08,21.623c-11.753,6.785-16.905,8.31-21.644,9.071c-4.737,0.763-9.063,0.763-12.56,0.317
		c-3.498-0.444-6.168-1.334-8.332-2.541c-2.162-1.208-3.816-2.731-4.96-4.194c-1.145-1.461-1.781-2.857-2.734-3.493
		c-0.953-0.635-2.226-0.508-4.451-0.317c-2.227,0.19-5.406,0.444-9.604,0.444s-9.412-0.254-14.437-1.144
		c-5.025-0.89-9.857-2.414-13.482-4.192c-3.625-1.779-6.043-3.813-7.696-6.291c-1.653-2.478-2.544-5.4-3.052-8.515
		c-0.509-3.112-0.636-6.417-0.063-9.719c0.572-3.305,1.845-6.608,3.689-9.341c1.844-2.732,4.261-4.893,5.851-6.607
		c1.591-1.717,2.353-2.986,2.289-4.193c-0.063-1.208-0.954-2.352-2.289-2.986c-1.336-0.636-3.117-0.763-6.075-2.239
		c-2.96-1.476-7.098-4.302-12.308-7.205c-5.21-2.904-11.491-5.883-17.851-8.081c-6.36-2.195-12.797-3.607-19.236-4.549
		c-6.438-0.941-12.875-1.412-20.101-1.489c-7.222-0.08-15.231,0.234-22.298,1.176c-7.066,0.941-13.19,2.511-20.728,4.785
		c-7.538,2.275-16.488,5.257-24.732,8.629s-15.782,7.138-22.613,11.295c-6.832,4.156-12.955,8.706-18.373,12.943
		c-5.417,4.236-10.128,8.157-14.211,12.55c-4.083,4.393-7.538,9.257-11.777,15.296c-4.24,6.04-9.265,13.257-14.054,20.786
		c-4.79,7.531-9.343,15.375-13.191,22.514c-3.847,7.137-6.988,13.57-9.5,19.846c-2.512,6.276-4.396,12.394-6.203,19.297
		c-1.805,6.902-3.533,14.589-5.338,22.081c-1.805,7.49-3.69,14.785-5.574,31.722h314.272c0.587-19.197,1.743-26.687,3.376-34.075
		c1.647-7.457,3.779-14.817,5.815-21.016c2.036-6.197,3.976-11.233,6.205-15.979c2.229-4.745,4.749-9.199,9.063-15.931
		s10.42-15.736,26.16-30.88c15.157-15.724,24.173-21.825,30.91-26.135c6.735-4.31,11.195-6.827,15.945-9.055
		s9.789-4.164,15.994-6.197c6.203-2.034,13.57-4.165,21.033-5.811c7.465-1.646,15.025-2.809,34.641-3.39V75.015
		c-16.953,1.882-24.256,3.766-31.753,5.57C519.243,82.389,511.548,84.115,504.639,85.919z M87.806,554.092
		c7.899-29.852,16.155-43.122,23.754-52.507c7.599-9.386,14.541-14.886,23.874-18.112c9.334-3.229,21.062-4.185,31.952-4.185
		c10.89,0,20.942,0.956,28.427,3.269c7.484,2.313,12.402,5.981,17.595,10.357c5.193,4.377,10.663,9.46,15.433,15.813
		c4.77,6.354,8.839,13.979,11.542,21.889c2.703,7.91,4.039,16.106,5.564,23.478L87.806,554.092L87.806,554.092z M355.821,473.884
		c-0.222,2.122-1.384,4.924-4.099,8.843c-2.714,3.92-6.979,8.955-13.57,13.798c-6.592,4.842-15.509,9.49-23.263,13.363
		c-7.756,3.874-14.347,6.972-21.326,8.425c-6.978,1.451-14.346,1.259-22.197-0.194s-16.188-4.164-22.974-7.65
		c-6.785-3.486-12.02-7.747-17.448-13.461c-5.429-5.714-11.051-12.88-15.121-20.241c-4.071-7.359-6.591-14.912-7.852-22.467
		c-1.26-7.554-1.26-15.106-0.678-21.885c0.582-6.779,1.744-12.783,4.071-19.271c2.326-6.489,5.816-13.461,9.402-19.756
		c3.587-6.295,7.27-11.911,11.439-16.27c4.168-4.357,8.82-7.457,11.947-8.521c3.126-1.066,4.726-0.098,5.313,2.186
		c0.587,2.281,0.162,5.878-0.822,9.58c-0.986,3.703-2.531,7.512-3.818,14.562c-1.289,7.05-2.319,17.344-2.112,25.27
		c0.207,7.925,1.648,13.483,4.121,19.247s5.976,11.734,10.045,16.778c4.07,5.044,8.706,9.161,14.167,12.403
		c5.46,3.242,11.746,5.609,19.01,7.154c7.263,1.543,15.505,2.264,23.644,1.955c8.141-0.308,16.175-1.646,22.356-2.933
		c6.183-1.287,10.51-2.522,13.291-3.5c2.782-0.977,4.02-1.697,4.998-1.338C355.321,470.322,356.042,471.764,355.821,473.884z
		 M518.801,293.29c-1.453,6.974-4.556,13.558-8.432,21.304c-3.878,7.748-8.531,16.657-13.378,23.242
		c-4.846,6.586-9.887,10.846-13.809,13.558c-3.924,2.712-6.729,3.874-8.852,4.095s-3.567-0.5-3.927-1.477
		c-0.361-0.979,0.359-2.213,1.339-4.992s2.216-7.103,3.503-13.277c1.288-6.177,2.627-14.205,2.935-22.337
		c0.311-8.132-0.411-16.366-1.957-23.622c-1.545-7.257-3.914-13.535-7.16-18.991s-7.366-10.087-12.415-14.153
		c-5.049-4.065-11.023-7.566-16.794-10.035s-11.334-3.912-19.266-4.117c-7.935-0.206-18.237,0.824-25.293,2.11
		c-7.059,1.287-10.871,2.831-14.576,3.815c-3.705,0.983-7.304,1.41-9.589,0.822c-2.284-0.586-3.254-2.185-2.188-5.308
		c1.066-3.124,4.168-7.772,8.53-11.936c4.361-4.164,9.984-7.844,16.284-11.428c6.302-3.583,13.279-7.069,19.774-9.394
		s12.504-3.486,19.29-4.067c6.785-0.581,14.346-0.581,21.907,0.679c7.56,1.259,15.121,3.776,22.488,7.843
		c7.367,4.067,14.539,9.685,20.26,15.107c5.719,5.423,9.983,10.653,13.474,17.431c3.489,6.779,6.205,15.107,7.658,22.952
		C520.062,278.958,520.255,286.318,518.801,293.29z M554.615,245.722c-7.378-1.524-15.582-2.858-23.502-5.559
		c-7.919-2.7-15.549-6.767-21.909-11.531c-6.359-4.765-11.447-10.23-15.827-15.418c-4.381-5.188-8.053-10.101-10.367-17.578
		s-3.272-17.521-3.272-28.4c0-10.88,0.958-22.596,4.188-31.922c3.23-9.325,8.736-16.259,18.13-23.851s22.678-15.842,52.558-23.732
		v157.991H554.615z"/>
	<path fill="#FFFFFF" stroke="#58595B" stroke-width="1.5" stroke-miterlimit="10" d="M244.151,368.599
		c-3.127,1.065-7.779,4.164-11.947,8.521c-4.168,4.358-7.851,9.975-11.439,16.27c-3.586,6.295-7.076,13.267-9.402,19.756
		c-2.326,6.488-3.489,12.492-4.07,19.271c-0.583,6.779-0.583,14.332,0.678,21.886c1.26,7.555,3.78,15.107,7.852,22.468
		s9.693,14.526,15.121,20.24c5.428,5.714,10.663,9.975,17.448,13.461c6.785,3.486,15.122,6.198,22.974,7.65
		c7.852,1.453,15.22,1.646,22.197,0.194c6.979-1.453,13.57-4.551,21.326-8.425c7.754-3.873,16.672-8.521,23.263-13.364
		c6.592-4.842,10.856-9.877,13.571-13.797c2.714-3.919,3.876-6.721,4.098-8.843c0.222-2.12-0.5-3.563-1.478-3.923
		c-0.979-0.36-2.216,0.36-4.998,1.338c-2.781,0.978-7.108,2.213-13.29,3.5c-6.183,1.286-14.217,2.625-22.357,2.933
		c-8.139,0.309-16.381-0.412-23.645-1.955c-7.263-1.545-13.549-3.912-19.008-7.154c-5.46-3.242-10.097-7.359-14.167-12.403
		c-4.07-5.043-7.573-11.014-10.045-16.778c-2.472-5.765-3.916-11.322-4.121-19.247c-0.206-7.926,0.825-18.22,2.112-25.27
		c1.287-7.05,2.833-10.858,3.818-14.562c0.986-3.7,1.411-7.297,0.822-9.58C248.877,368.502,247.278,367.533,244.151,368.599z"/>
	<path fill="#FFFFFF" stroke="#58595B" stroke-width="1.5" stroke-miterlimit="10" d="M87.806,554.092
		c7.899-29.852,16.155-43.122,23.754-52.507c7.599-9.386,14.541-14.886,23.874-18.112c9.334-3.229,21.062-4.185,31.952-4.185
		c10.89,0,20.942,0.956,28.427,3.269c7.484,2.313,12.402,5.981,17.595,10.357c5.193,4.377,10.663,9.46,15.433,15.813
		c4.77,6.354,8.839,13.979,11.542,21.889c2.703,7.91,4.039,16.106,5.564,23.478L87.806,554.092L87.806,554.092z"/>
	<path fill="#FFFFFF" stroke="#58595B" stroke-width="1.5" stroke-miterlimit="10" d="M554.615,245.722
		c-7.378-1.524-15.582-2.858-23.502-5.559c-7.919-2.7-15.549-6.767-21.909-11.531c-6.359-4.765-11.447-10.23-15.827-15.418
		c-4.381-5.188-8.053-10.101-10.367-17.578s-3.272-17.521-3.272-28.4c0-10.88,0.958-22.596,4.188-31.922
		c3.23-9.325,8.736-16.259,18.13-23.851s22.678-15.842,52.558-23.732v157.991H554.615z"/>
	<path fill="#FFFFFF" stroke="#58595B" stroke-width="1.5" stroke-miterlimit="10" d="M368.942,243.926
		c1.066-3.124,4.168-7.772,8.53-11.936c4.361-4.164,9.984-7.844,16.284-11.428c6.302-3.583,13.279-7.069,19.774-9.394
		s12.504-3.486,19.29-4.067c6.785-0.581,14.346-0.581,21.907,0.678c7.56,1.259,15.121,3.777,22.489,7.844
		c7.366,4.067,14.538,9.685,20.259,15.107c5.719,5.422,9.983,10.653,13.474,17.431c3.489,6.779,6.205,15.107,7.659,22.952
		c1.452,7.844,1.646,15.203,0.192,22.176c-1.454,6.974-4.556,13.558-8.432,21.305c-3.878,7.746-8.531,16.656-13.378,23.241
		c-4.846,6.585-9.887,10.846-13.809,13.558c-3.924,2.712-6.729,3.874-8.852,4.096c-2.123,0.22-3.567-0.501-3.927-1.478
		c-0.361-0.978,0.359-2.213,1.339-4.992c0.979-2.779,2.215-7.102,3.503-13.278c1.288-6.175,2.627-14.203,2.935-22.335
		c0.311-8.132-0.411-16.367-1.957-23.622c-1.545-7.258-3.914-13.536-7.16-18.992c-3.245-5.456-7.366-10.087-12.415-14.153
		c-5.049-4.065-11.023-7.566-16.794-10.035c-5.77-2.469-11.334-3.912-19.266-4.117c-7.935-0.206-18.237,0.824-25.293,2.11
		c-7.059,1.287-10.871,2.831-14.576,3.815c-3.705,0.983-7.304,1.41-9.589,0.822C368.846,248.647,367.876,247.049,368.942,243.926z"
		/>
	<path fill="#FFFFFF" stroke="#58595B" stroke-width="1.5" stroke-miterlimit="10" d="M21.022,557.969
		c6.397-37.887,11.923-58.805,17.011-74.492c5.088-15.688,9.742-26.147,14.298-35.638c4.556-9.491,9.015-18.013,15.024-27.213
		c6.01-9.199,13.571-19.077,21.617-28.373c8.045-9.296,16.575-18.013,25.688-25.855c9.111-7.846,18.805-14.818,27.238-20.531
		c8.434-5.715,15.606-10.169,22.586-14.042c6.979-3.873,13.764-7.167,22.488-10.943c8.724-3.775,19.386-8.038,28.498-10.943
		c9.112-2.904,16.672-4.454,23.846-5.907c7.173-1.452,13.958-2.809,19.027-3.775c5.069-0.97,8.42-1.551,10.598-2.425
		c2.177-0.873,3.178-2.041,3.095-3.042c-0.083-1.002-1.252-1.834-6.115-6.533c-4.863-4.701-13.419-13.267-18.797-18.57
		c-5.377-5.303-7.577-7.342-9.461-8.598c-1.884-1.255-3.454-1.725-5.731-3.53c-2.277-1.803-5.26-4.941-10.678-9.413
		c-5.418-4.471-13.27-10.275-21.121-15.296c-7.852-5.021-15.704-9.256-22.534-12.394s-12.641-5.177-18.373-6.746
		s-11.385-2.667-15.938-2.354c-4.554,0.314-8.008,2.039-10.835,4.785c-2.827,2.746-5.025,6.51-5.653,10.668
		c-0.627,4.158,0.314,8.707,2.199,12.707c1.884,4.001,4.711,7.452,7.223,9.962c2.513,2.511,4.711,4.079,7.773,5.099
		c3.063,1.02,6.988,1.491,10.128,2.432c3.14,0.941,5.497,2.353,7.146,4.079c1.649,1.726,2.591,3.765,2.827,5.333
		s-0.236,2.667-1.963,3.922c-1.727,1.255-4.711,2.667-7.616,4.158c-2.906,1.491-5.732,3.059-7.773,4.471
		c-2.042,1.412-3.297,2.666-4.554,4.549c-1.257,1.883-2.513,4.393-6.124,7.059c-3.612,2.668-9.579,5.492-16.096,8.63
		c-6.517,3.137-13.584,6.588-20.179,8.785c-6.595,2.196-12.719,3.137-19.471,3.843c-6.752,0.707-14.133,1.178-21.435,1.021
		c-7.302-0.157-14.526-0.941-23.101-2.442c-8.574-1.501-18.5-3.717-24.179-8.376c16.697-11.79,26.588-18.43,34.367-24.271
		c7.779-5.842,13.445-10.885,18.184-15.723c4.739-4.837,8.552-9.47,12.312-14.153s7.47-9.417,10.2-14.617
		c2.73-5.197,4.481-10.859,5.603-14.976c1.12-4.117,1.611-6.69,1.663-9.817s-0.337-6.807,0.537-10.094
		c0.873-3.287,3.005-6.184,5.484-8.651c2.48-2.468,5.307-4.507,8.604-6.233c3.297-1.725,7.066-3.137,10.756-4.313
		c3.691-1.177,7.302-2.118,10.835-3.437c3.533-1.318,6.988-3.014,9.216-4.571c2.228-1.557,3.229-2.973,3.313-4.266
		c0.083-1.292-0.751-2.46-2.959-5.349c-2.208-2.888-5.789-7.5-7.872-10.181s-2.668-3.431-3.544-3.598s-2.044,0.25-2.921,0.167
		c-0.877-0.083-1.46-0.667-2.628-1.876c-1.169-1.209-2.921-3.043-4.172-4.377c-1.251-1.334-2.002-2.168-2.379-3.127
		c-0.376-0.958-0.375-2.042-0.667-2.918c-0.292-0.875-0.875-1.542-2.212-3.002c-1.336-1.459-3.421-3.71-5.34-5.002
		c-1.92-1.292-3.672-1.626-5.34-1.333c-1.67,0.292-3.255,1.208-4.631,2.543c-1.377,1.334-2.546,3.085-3.678,4.306
		c-1.132,1.222-2.229,1.915-4.112,2.897c-1.884,0.981-4.555,2.253-7.227,2.633c-2.67,0.381-5.342-0.127-7.376-0.827
		c-2.035-0.7-3.435-1.588-4.897-2.986c-1.463-1.398-2.989-3.304-4.007-5.782c-1.018-2.477-1.526-5.528-1.336-8.069
		c0.191-2.541,1.082-4.575,2.545-6.544c1.463-1.969,3.497-3.875,5.087-5.209c1.59-1.333,2.735-2.097,3.558-2.978
		c0.823-0.882,1.323-1.882,1.323-2.716c0-0.833-0.5-1.5-1.585-2c-1.084-0.5-2.754-0.833-4.756-1.417
		c-2.003-0.583-4.339-1.417-6.301-2.584c-1.961-1.168-3.547-2.668-4.673-4.752c-1.126-2.084-1.795-4.752-1.878-7.629
		c-0.083-2.877,0.417-5.96,1.418-8.942c1.001-2.98,2.504-5.857,6.054-10.155c4.303-3.547,7.182-5.048,10.165-6.048
		c2.984-1,6.072-1.501,8.951-1.417c2.879,0.083,5.55,0.75,7.636,1.876c2.085,1.126,3.588,2.71,4.756,4.669
		c1.168,1.958,2.002,4.293,2.587,6.294c0.585,2,0.918,3.669,1.418,4.752c0.5,1.083,1.169,1.583,2.003,1.583s1.836-0.5,2.718-1.322
		c0.882-0.822,1.646-1.966,2.981-3.554c1.336-1.588,3.243-3.621,5.215-5.083c1.971-1.461,4.006-2.351,6.55-2.542
		c2.544-0.19,5.597,0.318,8.077,1.335c2.481,1.016,4.388,2.541,5.787,4.002c1.399,1.462,2.29,2.859,2.989,4.893
		c0.699,2.033,1.208,4.702,0.827,7.37c-0.382,2.668-1.654,5.337-2.636,7.218c-0.983,1.882-1.677,2.978-2.899,4.11
		c-1.223,1.131-2.976,2.298-4.311,3.674c-1.334,1.375-2.252,2.959-2.545,4.627c-0.292,1.667,0.042,3.418,1.335,5.335
		c1.293,1.918,3.547,4.002,5.007,5.335c1.46,1.334,2.128,1.918,3.005,2.21c0.875,0.292,1.96,0.292,2.919,0.667
		c0.961,0.375,1.795,1.125,3.13,2.376c1.335,1.25,3.171,3.002,4.381,4.169c1.21,1.167,1.795,1.75,1.878,2.625
		c0.083,0.875-0.334,2.042-0.167,2.918c0.167,0.875,0.917,1.458,3.601,3.54s7.298,5.659,10.19,7.866
		c2.892,2.207,4.061,3.04,5.354,2.957c1.293-0.083,2.712-1.084,4.27-3.31c1.558-2.227,3.256-5.676,4.576-9.208
		c1.32-3.53,2.262-7.138,3.44-10.825c1.178-3.687,2.591-7.451,4.318-10.747c1.728-3.294,3.769-6.118,6.239-8.595
		c2.47-2.478,5.369-4.608,8.659-5.479c3.291-0.871,6.975-0.484,10.104-0.536c3.13-0.052,5.706-0.542,9.827-1.661
		c4.121-1.121,9.788-2.87,14.99-5.598c5.203-2.727,9.943-6.433,14.631-10.19c4.688-3.756,9.324-7.565,14.167-12.3
		c4.843-4.735,9.891-10.396,15.738-18.168c5.847-7.771,12.492-17.652,24.293-34.334c4.665,5.672,6.883,15.588,8.385,24.156
		c1.501,8.566,2.287,15.783,2.445,23.079c0.156,7.295-0.315,14.667-1.022,21.414c-0.707,6.746-1.647,12.864-3.848,19.453
		c-2.198,6.588-5.653,13.649-8.793,20.159c-3.141,6.512-5.967,12.473-8.636,16.08c-2.67,3.608-5.183,4.863-7.066,6.119
		c-1.885,1.255-3.141,2.51-4.555,4.55c-1.414,2.039-2.984,4.863-4.475,7.765c-1.491,2.902-2.906,5.883-4.162,7.609
		c-1.256,1.726-2.356,2.196-3.926,1.961c-1.571-0.235-3.612-1.177-5.338-2.825c-1.727-1.647-3.141-4-4.083-7.138
		s-1.414-7.06-2.434-10.119c-1.021-3.059-2.591-5.255-5.104-7.765c-2.513-2.51-5.968-5.333-9.972-7.217
		c-4.004-1.882-8.558-2.824-12.719-2.196c-4.161,0.628-7.93,2.824-10.678,5.648c-2.749,2.824-4.476,6.275-4.79,10.825
		c-0.314,4.549,0.785,10.197,2.355,15.923c1.571,5.726,3.612,11.531,6.752,18.355c3.141,6.824,7.381,14.668,12.406,22.513
		c5.025,7.844,10.834,15.688,15.311,21.1c4.476,5.412,7.616,8.394,9.422,10.668c1.806,2.274,2.276,3.844,3.533,5.726
		c1.256,1.882,3.297,4.078,8.605,9.451c5.309,5.373,13.884,13.922,18.586,18.779c4.706,4.858,5.54,6.026,6.541,6.109
		c1.001,0.083,2.169-0.917,3.045-3.092c0.875-2.175,1.457-5.524,2.425-10.587c0.971-5.064,2.327-11.843,3.781-19.009
		c1.453-7.167,3.006-14.72,5.913-23.823c2.908-9.103,7.174-19.755,10.953-28.471c3.78-8.715,7.077-15.495,10.953-22.467
		c3.878-6.973,8.338-14.139,14.056-22.564c5.721-8.425,12.698-18.11,20.551-27.212c7.852-9.103,16.575-17.625,25.881-25.663
		c9.307-8.038,19.193-15.592,28.4-21.596c9.209-6.004,17.739-10.458,27.239-15.01c9.499-4.551,19.968-9.2,35.672-14.284
		c15.703-5.084,36.641-10.604,74.563-16.995V75.01c-16.953,1.882-24.256,3.765-31.753,5.57c-7.498,1.804-15.193,3.53-22.103,5.333
		c-6.909,1.804-13.033,3.687-19.314,6.197c-6.28,2.51-12.719,5.647-19.865,9.491c-7.146,3.844-14.996,8.394-22.534,13.179
		c-7.538,4.784-14.762,9.805-20.806,14.041c-6.047,4.236-10.914,7.687-15.311,11.766c-4.397,4.079-8.323,8.785-12.563,14.198
		c-4.24,5.412-8.794,11.531-12.955,18.355c-4.161,6.825-7.931,14.355-11.306,22.591c-3.376,8.236-6.361,17.179-8.637,24.708
		c-2.277,7.531-3.848,13.648-4.79,20.708c-0.942,7.06-1.257,15.061-1.178,22.277s0.549,13.648,1.491,20.082
		c0.942,6.432,2.356,12.864,4.554,19.217c2.198,6.354,5.183,12.629,8.088,17.834c2.906,5.204,5.734,9.338,7.213,12.295
		c1.477,2.957,1.604,4.735,2.24,6.07c0.637,1.334,1.781,2.224,2.989,2.287c1.209,0.063,2.48-0.7,4.198-2.287
		c1.717-1.589,3.879-4.003,6.612-5.845c2.735-1.843,6.044-3.114,9.35-3.686c3.308-0.572,6.614-0.445,9.73,0.063
		c3.116,0.509,6.042,1.398,8.521,3.05c2.48,1.651,4.517,4.065,6.296,7.688c1.781,3.62,3.308,8.45,4.198,13.469
		s1.145,10.229,1.145,14.423s-0.254,7.371-0.445,9.595c-0.19,2.224-0.317,3.493,0.318,4.447s2.035,1.588,3.498,2.731
		c1.463,1.145,2.988,2.796,4.195,4.956c1.209,2.16,2.1,4.829,2.545,8.323c0.444,3.494,0.444,7.815-0.318,12.549
		s-2.289,9.879-9.08,21.622c-11.753,6.785-16.904,8.31-21.644,9.071c-4.738,0.763-9.063,0.763-12.56,0.318
		c-3.498-0.445-6.169-1.335-8.331-2.542c-2.163-1.207-3.817-2.731-4.961-4.193c-1.145-1.462-1.781-2.857-2.734-3.494
		c-0.953-0.635-2.227-0.508-4.451-0.316c-2.227,0.19-5.406,0.443-9.604,0.443c-4.196,0-9.411-0.253-14.436-1.144
		c-5.025-0.89-9.858-2.414-13.482-4.192c-3.625-1.779-6.043-3.813-7.696-6.29c-1.654-2.479-2.544-5.401-3.052-8.515
		c-0.509-3.113-0.636-6.418-0.063-9.72c0.572-3.305,1.844-6.608,3.689-9.341c1.844-2.731,4.261-4.893,5.851-6.608
		c1.591-1.715,2.353-2.985,2.289-4.192c-0.063-1.208-0.954-2.352-2.289-2.986c-1.336-0.636-3.117-0.763-6.076-2.239
		c-2.959-1.476-7.097-4.302-12.307-7.205c-5.21-2.904-11.491-5.883-17.851-8.08c-6.36-2.196-12.797-3.608-19.237-4.55
		c-6.438-0.941-12.875-1.411-20.1-1.489c-7.223-0.079-15.232,0.234-22.299,1.176s-13.19,2.51-20.728,4.785
		c-7.538,2.275-16.488,5.256-24.733,8.628c-8.244,3.373-15.782,7.139-22.613,11.296c-6.832,4.157-12.955,8.707-18.372,12.943
		s-10.128,8.157-14.211,12.55c-4.083,4.392-7.538,9.257-11.777,15.296c-4.241,6.04-9.265,13.257-14.054,20.786
		c-4.79,7.531-9.343,15.375-13.191,22.514c-3.848,7.138-6.988,13.57-9.5,19.846c-2.513,6.275-4.396,12.394-6.203,19.297
		c-1.805,6.903-3.533,14.589-5.338,22.081c-1.806,7.49-3.69,14.786-5.575,31.722H21.022V557.969z"/>
	<path fill="#FFFFFF" stroke="#58595B" stroke-width="1.5" stroke-miterlimit="10" d="M445.17,557.969
		c1.162-21.339,3.198-30.055,4.992-36.445s3.344-10.459,6.736-16.125c3.393-5.665,8.627-12.929,20.586-28.362
		c15.449-11.948,22.719-17.177,28.391-20.566c5.67-3.39,9.741-4.938,16.139-6.73c6.398-1.791,15.122-3.824,36.481-4.987v113.216
		L445.17,557.969L445.17,557.969z"/>
	<path fill="#FFFFFF" stroke="#58595B" stroke-width="1.5" stroke-miterlimit="10" d="M523.854,392.893
		c-7.462,1.646-14.83,3.776-21.033,5.81c-6.206,2.034-11.245,3.971-15.994,6.198s-9.209,4.744-15.945,9.055
		c-6.738,4.311-15.753,10.41-30.91,26.135c-15.74,15.144-21.847,24.149-26.16,30.88s-6.834,11.186-9.063,15.931
		c-2.229,4.745-4.169,9.781-6.205,15.979c-2.036,6.198-4.168,13.558-5.815,21.015c-1.647,7.456-2.811,15.011-3.392,34.606h55.833
		c1.162-21.34,3.198-30.055,4.992-36.445s3.344-10.459,6.736-16.125c3.393-5.665,8.627-12.929,20.586-28.363
		c15.449-11.947,22.719-17.177,28.391-20.565c5.67-3.39,9.741-4.939,16.139-6.73c6.398-1.791,15.122-3.824,36.481-4.987v-55.78
		C538.88,390.083,531.319,391.246,523.854,392.893z"/>
</g>
</svg>
