<?xml version="1.0" encoding="utf-8"?>
<!-- Generator: Adobe Illustrator 16.0.0, SVG Export Plug-In . SVG Version: 6.00 Build 0)  -->
<!DOCTYPE svg PUBLIC "-//W3C//DTD SVG 1.1//EN" "http://www.w3.org/Graphics/SVG/1.1/DTD/svg11.dtd" [
	<!ENTITY ns_flows "http://ns.adobe.com/Flows/1.0/">
	<!ENTITY ns_extend "http://ns.adobe.com/Extensibility/1.0/">
	<!ENTITY ns_ai "http://ns.adobe.com/AdobeIllustrator/10.0/">
	<!ENTITY ns_graphs "http://ns.adobe.com/Graphs/1.0/">
]>
<svg version="1.1" id="Layer_1" xmlns:x="&ns_extend;" xmlns:i="&ns_ai;" xmlns:graph="&ns_graphs;"
	 xmlns="http://www.w3.org/2000/svg" xmlns:xlink="http://www.w3.org/1999/xlink" xmlns:a="http://ns.adobe.com/AdobeSVGViewerExtensions/3.0/"
	 x="0px" y="0px" width="550px" height="550px" viewBox="0 0 550 550" enable-background="new 0 0 550 550" xml:space="preserve">
<g>
	<path fill="#FFFFFF" stroke="#5C5B5F" stroke-width="1.5" stroke-miterlimit="10" d="M291.822,307.242
		c0,0,44.002,10.164,57.483,11.014c0,0,31.927,8.514,61.192,43.631c0,0,23.413,23.418,28.203,21.287
		c0,0-87.055,63.807-155.111-63.846C283.591,319.326,287.27,317.05,291.822,307.242z"/>
	<path fill="#FFFFFF" stroke="#5C5B5F" stroke-width="1.5" stroke-miterlimit="10" d="M0,0v550h550V0H0z M4.737,6.656h172.775
		c-20.356,23.294-51.676,21.56-51.676,21.56c-2.09,33.128-13.573,19.458-13.573,19.458C98.169,28.216,49.625,28.216,49.625,28.216
		C61.629,73.07,116.44,77.123,116.44,77.123c5.22,28.927,28.186,66.259,28.186,66.259c3.132,6.311-71.511-27.874-71.511-27.874
		c-5.743-56.795-46.979-64.152-46.979-64.152c1.043,52.062,25.578,72.047,25.578,72.047c4.697,4.206-22.966,4.73-22.966,4.73
		c1.046,25.769-24.012,51.535-24.012,51.535L4.737,6.656L4.737,6.656z M4.722,545.271V372.496
		c23.294,20.355,21.561,51.675,21.561,51.675c33.128,2.09,19.457,13.572,19.457,13.572c-19.457,14.096-19.458,62.641-19.458,62.641
		c44.854-12.006,48.909-66.814,48.909-66.814c28.926-5.222,66.26-28.188,66.26-28.188c6.31-3.132-27.874,71.511-27.874,71.511
		c-56.795,5.743-64.152,46.98-64.152,46.98c52.062-1.042,72.045-25.579,72.045-25.579c4.207-4.697,4.731,22.967,4.731,22.967
		c25.77-1.046,51.535,24.011,51.535,24.011H4.722L4.722,545.271z M267.665,434.259c0,0-23.25-52.038-10.318-110.384
		c-3.767-1.551-7.082-3.979-9.687-7.029c-8.505,5.354-24.464,26.42-24.464,26.42c-29.797,52.146-69.707,45.761-69.707,45.761
		c-10.643-2.13-47.891,8.515-47.891,8.515c-8.907-79.67,118.96-89.414,136.91-90.389c-0.597-2.158-0.922-4.432-0.922-6.78
		c0-2.644,0.405-5.194,1.156-7.593c-83.321,6.494-97.234-50.62-97.234-50.62C129.545,210.226,105.599,198,105.599,198
		c60.661-48.956,119.193,44.159,119.193,44.159c4.706,9.137,19.51,34.05,23.601,40.914c2.981-3.205,6.778-5.642,11.064-6.97
		c0.009-6.515-19.234-36.863-19.234-36.863c-30.33-51.881,18.358-119.726,18.358-119.726c3.02-3.544,12.771-23.945,12.771-23.945
		c1.596,11.972,10.775,23.945,10.775,23.945c44.299,77.421,10.775,114.936,10.775,114.936
		c-11.986,21.975-18.969,36.718-20.955,41.005c6.23,1.232,11.642,4.744,15.33,9.632c67.88-127.661,149.294-91.344,149.294-91.344
		c-10.646,2.128-17.561,25.011-17.561,25.011c-19.153,66.514-76.091,68.109-76.091,68.109c-34.358,0.846-47.347,5.734-51.207,7.685
		c0.439,1.872,0.68,3.818,0.68,5.823c0,2.361-0.33,4.646-0.934,6.816c5.273,1.205,45.262,10.275,57.846,11.067
		c0,0,31.926,8.513,61.192,43.632c0,0,23.413,23.416,28.203,21.286c0,0-87.232,62.192-155.179-63.522
		c-3.256,2.793-7.229,4.769-11.6,5.631c-2.207,13.178-17.714,125.938,96.004,133.454c0,0,13.307-2.66,21.818,20.752
		c0,0,12.238,12.236-6.385,9.043C383.362,488.53,286.059,481.615,267.665,434.259z M543.346,545.285H370.571
		c20.354-23.294,51.675-21.562,51.675-21.562c2.09-33.127,13.572-19.456,13.572-19.456c14.095,19.456,62.64,19.458,62.64,19.458
		c-12.005-44.853-66.816-48.907-66.816-48.907c-5.221-28.927-28.186-66.26-28.186-66.26c-3.132-6.311,71.511,27.874,71.511,27.874
		c5.743,56.796,46.98,64.152,46.98,64.152c-1.043-52.063-25.579-72.046-25.579-72.046c-4.697-4.207,22.967-4.732,22.967-4.732
		c-1.046-25.768,24.011-51.533,24.011-51.533V545.285L543.346,545.285z M543.375,179.429
		c-23.297-20.357-21.563-51.675-21.563-51.675c-33.128-2.09-19.455-13.573-19.455-13.573c19.455-14.095,19.458-62.638,19.458-62.638
		c-44.854,12.004-48.909,66.815-48.909,66.815c-28.926,5.22-66.26,28.186-66.26,28.186c-6.31,3.132,27.873-71.51,27.873-71.51
		c56.797-5.744,64.153-46.979,64.153-46.979c-52.062,1.042-72.047,25.578-72.047,25.578c-4.207,4.697-4.729-22.966-4.729-22.966
		c-25.769,1.046-51.533-24.011-51.533-24.011h173.012V179.429z"/>
	<path fill="#FFFFFF" stroke="#5C5B5F" stroke-width="1.5" stroke-miterlimit="10" d="M287.279,285.087
		c2.089,2.767,3.617,5.978,4.436,9.461c3.86-1.95,16.85-6.839,51.207-7.687c0,0,56.938-1.596,76.09-68.108
		c0,0,6.916-22.882,17.562-25.011C436.572,193.743,355.158,157.426,287.279,285.087z"/>
	<path fill="#FFFFFF" stroke="#5C5B5F" stroke-width="1.5" stroke-miterlimit="10" d="M282.127,119.514
		c0,0-9.179-11.972-10.775-23.945c0,0-9.75,20.401-12.771,23.945c0,0-48.688,67.844-18.358,119.726c0,0,19.244,30.35,19.234,36.863
		c2.38-0.738,4.91-1.136,7.533-1.136c1.697,0,3.353,0.171,4.955,0.487c1.986-4.287,8.969-19.031,20.955-41.005
		C292.9,234.45,326.426,196.935,282.127,119.514z"/>
	<path fill="#FFFFFF" stroke="#5C5B5F" stroke-width="1.5" stroke-miterlimit="10" d="M248.394,283.072
		c-4.091-6.863-18.895-31.777-23.601-40.914c0,0-58.532-93.115-119.193-44.159c0,0,23.946,12.225,39.909,44.159
		c0,0,13.913,57.115,97.234,50.619C243.887,289.115,245.843,285.813,248.394,283.072z"/>
	<path fill="#FFFFFF" stroke="#5C5B5F" stroke-width="1.5" stroke-miterlimit="10" d="M242.508,307.15
		c-17.948,0.976-145.816,10.72-136.91,90.39c0,0,37.247-10.646,47.891-8.515c0,0,39.91,6.385,69.707-45.762
		c0,0,15.958-21.064,24.464-26.42C245.29,314.066,243.51,310.771,242.508,307.15z"/>
	<path fill="#FFFFFF" stroke="#5C5B5F" stroke-width="1.5" stroke-miterlimit="10" d="M389.747,479.486
		c-8.515-23.412-21.818-20.752-21.818-20.752c-113.688-7.515-98.218-120.219-96.006-133.443c-1.596,0.314-3.243,0.482-4.932,0.482
		c-3.415,0-6.669-0.678-9.644-1.898c-12.933,58.346,10.318,110.384,10.318,110.384c18.394,47.356,115.697,54.271,115.697,54.271
		C401.985,491.724,389.747,479.486,389.747,479.486z"/>
	<circle fill="#FFFFFF" stroke="#5C5B5F" stroke-width="1.5" stroke-miterlimit="10" cx="266.991" cy="300.371" r="25.403"/>
	<path fill="#FFFFFF" stroke="#5C5B5F" stroke-width="1.5" stroke-miterlimit="10" d="M4.737,179.667
		c0,0,25.058-25.765,24.012-51.536c0,0,27.663-0.524,22.966-4.73c0,0-24.536-19.985-25.578-72.047c0,0,41.235,7.357,46.979,64.152
		c0,0,74.643,34.185,71.511,27.874c0,0-22.965-37.333-28.186-66.26c0,0-54.812-4.053-66.816-48.908c0,0,48.544,0.001,62.638,19.458
		c0,0,11.483,13.67,13.573-19.458c0,0,31.318,1.734,51.676-21.56H4.737V179.667z"/>
	<path fill="#FFFFFF" stroke="#5C5B5F" stroke-width="1.5" stroke-miterlimit="10" d="M177.734,545.271
		c0,0-25.765-25.058-51.534-24.012c0,0-0.524-27.664-4.731-22.967c0,0-19.984,24.537-72.045,25.579c0,0,7.356-41.236,64.152-46.98
		c0,0,34.185-74.643,27.874-71.511c0,0-37.333,22.966-66.26,28.188c0,0-4.054,54.81-48.908,66.813c0,0,0.001-48.544,19.458-62.64
		c0,0,13.671-11.482-19.457-13.572c0,0,1.733-31.318-21.561-51.674V545.27L177.734,545.271L177.734,545.271z"/>
	<path fill="#FFFFFF" stroke="#5C5B5F" stroke-width="1.5" stroke-miterlimit="10" d="M543.346,372.273
		c0,0-25.058,25.767-24.012,51.535c0,0-27.664,0.523-22.967,4.731c0,0,24.536,19.983,25.579,72.046c0,0-41.236-7.355-46.981-64.153
		c0,0-74.642-34.184-71.51-27.873c0,0,22.965,37.333,28.186,66.26c0,0,54.813,4.055,66.816,48.907c0,0-48.546-0.002-62.64-19.458
		c0,0-11.482-13.671-13.571,19.456c0,0-31.32-1.732-51.676,21.562h172.773L543.346,372.273L543.346,372.273z"/>
	<path fill="#FFFFFF" stroke="#5C5B5F" stroke-width="1.5" stroke-miterlimit="10" d="M370.363,6.656
		c0,0,25.765,25.057,51.535,24.011c0,0,0.521,27.664,4.729,22.966c0,0,19.984-24.536,72.046-25.578c0,0-7.355,41.235-64.152,46.979
		c0,0-34.184,74.642-27.873,71.51c0,0,37.332-22.965,66.259-28.186c0,0,4.054-54.811,48.909-66.815c0,0-0.002,48.543-19.458,62.638
		c0,0-13.673,11.483,19.456,13.573c0,0-1.735,31.318,21.561,51.675V6.656H370.363z"/>
</g>
</svg>
