<?xml version="1.0" encoding="utf-8"?>
<!-- Generator: Adobe Illustrator 16.0.0, SVG Export Plug-In . SVG Version: 6.00 Build 0)  -->
<!DOCTYPE svg PUBLIC "-//W3C//DTD SVG 1.1//EN" "http://www.w3.org/Graphics/SVG/1.1/DTD/svg11.dtd" [
	<!ENTITY ns_flows "http://ns.adobe.com/Flows/1.0/">
	<!ENTITY ns_extend "http://ns.adobe.com/Extensibility/1.0/">
	<!ENTITY ns_ai "http://ns.adobe.com/AdobeIllustrator/10.0/">
	<!ENTITY ns_graphs "http://ns.adobe.com/Graphs/1.0/">
]>
<svg version="1.1" id="Layer_1" xmlns:x="&ns_extend;" xmlns:i="&ns_ai;" xmlns:graph="&ns_graphs;"
	 xmlns="http://www.w3.org/2000/svg" xmlns:xlink="http://www.w3.org/1999/xlink" xmlns:a="http://ns.adobe.com/AdobeSVGViewerExtensions/3.0/"
	 x="0px" y="0px" width="550px" height="550px" viewBox="0 0 550 550" enable-background="new 0 0 550 550" xml:space="preserve">
<g>
	<path fill="#FFFFFF" stroke="#58595B" stroke-width="1.5" stroke-miterlimit="10" d="M376.43,360.208
		c-1.144-2.335-3.15-5.908-4.828-10.651c-1.675-4.748-3.015-10.664-3.629-18.39c-0.613-7.724-0.503-17.253,0.313-23.123
		c0.813-5.868,2.33-8.073,3.777-11.864c1.446-3.791,2.825-9.166,3.446-13.096s0.482-6.41-1.311-8.133
		c-1.792-1.723-5.237-2.688-8.341-3.239s-5.858-0.688-7.649-1.104c-1.794-0.412-2.62-1.103-2-2.688s2.688-4.067,4.618-7.168
		c1.929-3.102,3.723-6.824,4.619-9.719c0.896-2.895,0.896-4.963,0.065-6.755c-0.826-1.792-2.479-3.308-3.651-5.652
		c-1.171-2.344-1.861-5.514-2.138-9.788c-0.274-4.273-0.138-9.65,0.759-13.579c0.896-3.929,2.551-6.41,3.993-8.773
		c1.443-2.363,2.676-4.607,3.359-6.625c0.686-2.019,0.822-3.811-1.383-4.913c-2.207-1.103-6.754-1.517-11.648-1.104
		c-4.894,0.413-10.132,1.654-15.715,3.86s-11.511,5.376-15.922,9.581c-4.411,4.204-7.307,9.442-10.339,15.784
		c-3.033,6.342-6.204,13.786-8.822,18.679c-2.62,4.894-4.688,7.237-6.824,8.34c-2.136,1.103-4.343,0.965-6.961-0.483
		c-2.619-1.448-5.652-4.204-7.927-7.375c-2.274-3.17-3.791-6.755-4.963-10.338c-1.172-3.584-2-7.168-2.62-10.477
		c-0.62-3.308-1.033-6.342-2.688-9.856c-1.653-3.515-4.549-7.513-5.79-10.614s-0.828-5.308-1.172-7.926
		c-0.344-2.618-1.448-5.652-3.189-8.823c-1.74-3.172-4.12-6.482-5.676-9.017c-1.556-2.535-2.289-4.293-3.204-4.952
		c-0.916-0.66-2.015-0.22-3.992,0.879c-1.978,1.099-4.835,2.857-6.704,4.396c-1.868,1.539-2.747,2.857-3.626,4.322
		c-0.878,1.465-1.758,3.077-2.161,5.312c-0.403,2.235-0.329,5.093-0.842,7.291c-0.513,2.197-1.612,3.736-3.077,4.835
		c-1.465,1.099-3.296,1.758-4.726,1.722c-1.429-0.036-2.454-0.769-3.48-2.271c-1.025-1.501-2.051-3.773-4.212-5.495
		c-2.162-1.722-5.458-2.895-10.019-3.864c-4.561-0.971-10.385-1.74-20.323,2.484c-4.224,9.938-3.456,15.763-2.484,20.323
		c0.97,4.561,2.143,7.857,3.864,10.019c1.722,2.162,3.993,3.188,5.495,4.213c1.501,1.025,2.234,2.051,2.271,3.48
		c0.037,1.429-0.623,3.26-1.721,4.725c-1.099,1.465-2.638,2.564-4.835,3.077c-2.197,0.513-5.054,0.439-7.29,0.843
		c-2.234,0.403-3.847,1.282-5.312,2.162c-1.465,0.88-2.784,1.758-4.322,3.626c-1.539,1.868-3.296,4.725-4.395,6.703
		c-1.099,1.979-1.539,3.077-0.879,3.994c0.66,0.916,2.417,1.648,4.952,3.204c2.535,1.557,5.845,3.937,9.017,5.678
		c3.172,1.741,6.205,2.843,8.824,3.188c2.619,0.345,4.824-0.068,7.926,1.172c3.102,1.241,7.1,4.136,10.614,5.79
		c3.515,1.654,6.548,2.066,9.857,2.688c3.308,0.62,6.892,1.448,10.477,2.62c3.583,1.171,7.168,2.688,10.338,4.962
		c3.17,2.274,5.927,5.309,7.375,7.928c1.448,2.619,1.585,4.824,0.483,6.961c-1.103,2.137-3.447,4.205-8.34,6.824
		s-12.338,5.791-18.679,8.822c-6.342,3.033-11.579,5.93-15.784,10.34c-4.205,4.41-7.376,10.338-9.581,15.922
		c-2.205,5.582-3.446,10.82-3.86,15.715c-0.413,4.895,0,9.441,1.103,11.648c1.103,2.206,2.895,2.067,4.913,1.383
		s4.263-1.918,6.626-3.359c2.363-1.443,4.844-3.096,8.773-3.993c3.929-0.896,9.306-1.034,13.579-0.757
		c4.273,0.273,7.444,0.963,9.787,2.135c2.344,1.172,3.861,2.826,5.652,3.652c1.792,0.828,3.86,0.828,6.754-0.067
		c2.895-0.896,6.618-2.688,9.719-4.617c3.102-1.93,5.583-3.997,7.168-4.618s2.273,0.207,2.688,2
		c0.414,1.791,0.553,4.547,1.104,7.649c0.55,3.103,1.517,6.549,3.239,8.34c1.724,1.794,4.205,1.931,8.133,1.312
		c3.929-0.62,9.304-1.998,13.096-3.445c3.79-1.448,5.996-2.966,11.864-3.779c5.867-0.814,15.396-0.924,23.122-0.31
		c7.724,0.612,13.642,1.954,18.387,3.628c4.746,1.675,8.319,3.686,10.654,4.828c2.335,1.144,3.433,1.417,5.354,1.32
		c1.924-0.098,4.667-0.564,9.435-2.762c2.195-4.766,2.664-7.511,2.76-9.432C377.846,363.643,377.571,362.543,376.43,360.208z"/>
	<path fill="#FFFFFF" stroke="#58595B" stroke-width="1.5" stroke-miterlimit="10" d="M426.691,421.608
		c-1.586-1.454-3.316-2.992-4.757-5.025c-1.438-2.033-2.589-4.56-3.456-7.362c-0.866-2.802-1.453-5.879-2.076-9.613
		c-0.623-3.737-1.281-8.134-1.904-12.125c-0.624-3.992-1.209-7.582-2.272-11.504c-1.062-3.918-2.601-8.168-4.65-10.842
		c-2.05-2.675-4.615-3.775-7.326-4.615c-2.71-0.842-5.567-1.43-8.7-0.514c-3.132,0.915-6.537,3.334-13.804,4.23
		c0.03,0.41,0.03,0.841,0.006,1.324c-0.096,1.92-0.563,4.666-2.76,9.433c-4.768,2.194-7.512,2.663-9.434,2.761
		c-0.481,0.023-0.913,0.023-1.323-0.006c-0.896,7.268-3.314,10.672-4.23,13.804c-0.914,3.134-0.329,5.99,0.513,8.7
		c0.844,2.711,1.942,5.275,4.615,7.326c2.675,2.051,6.924,3.59,10.844,4.651c3.919,1.063,7.51,1.647,11.501,2.271
		c3.993,0.624,8.388,1.281,12.125,1.905c3.736,0.623,6.813,1.209,9.615,2.077c2.802,0.866,5.329,2.018,7.361,3.455
		c2.033,1.439,3.572,3.172,5.024,4.757c1.454,1.586,2.824,3.027,6.479,1.391C429.72,424.433,428.277,423.063,426.691,421.608z"/>
	<path fill="#FFFFFF" stroke="#58595B" stroke-width="1.5" stroke-miterlimit="10" d="M414.24,278.455
		c4.756-10.477,8.478-16.956,12.268-22.677c3.791-5.72,7.651-10.683,12.199-16.267c4.55-5.582,9.788-11.785,16.404-17.163
		c6.617-5.375,14.61-9.924,22.815-14.06c8.202-4.136,16.61-7.858,25.295-10.891c8.685-3.033,17.646-5.376,25.021-7.168
		c7.377-1.793,13.165-3.034,21.75-3.034V0H0v550h549.993V314.439c-12.094-0.67-15.276-1.172-17.369-1.256
		c-2.094-0.084-3.099,0.252-4.049,2.371c-0.948,2.122-1.841,6.031-3.854,12.786c-2.01,6.757-5.136,16.357-8.039,24.396
		c-2.902,8.041-5.583,14.518-11.334,22.109c-5.751,7.594-14.572,16.305-26.435,25.097c-11.85,8.781-26.733,17.646-51.026,22.877
		c0.942,1.152,1.389,2.602,0.192,5.267c-2.766,1.238-4.223,0.715-5.396-0.301c-5.229,24.313-14.099,39.21-22.885,51.063
		c-8.793,11.864-17.503,20.687-25.095,26.437c-7.594,5.751-14.07,8.43-22.109,11.336c-8.04,2.901-17.644,6.029-24.397,8.038
		c-6.756,2.01-10.662,2.902-12.785,3.854c-2.121,0.949-2.456,1.954-2.372,4.047c0.083,2.095,0.586,5.275,1.257,17.37H244.72
		c9.226-16.877,12.753-22.575,16.507-26.555c3.753-3.981,7.733-6.242,10.628-7.779c2.894-1.538,4.703-2.353,5.334-3.167
		c0.633-0.813,0.093-1.628-1.399-4.477c-1.494-2.85-3.935-7.733-5.519-13.114c-1.582-5.382-2.307-11.261-1.492-16.101
		c0.813-4.838,3.166-8.637,6.332-11.441c3.166-2.803,7.146-4.612,10.673-6.24c3.526-1.629,6.602-3.074,8.364-3.392
		c1.764-0.316,2.217,0.497,2.805,3.211s1.313,7.327,3.166,12.028c1.854,4.702,4.839,9.497,8.954,13.16
		c4.113,3.661,9.359,6.194,14.969,8.004c5.605,1.809,11.577,2.894,17.727,2.125c6.15-0.771,12.481-3.393,17.863-6.514
		c5.381-3.119,9.813-6.736,14.832-11.351c5.021-4.612,10.628-10.221,15.105-16.957c4.476-6.738,7.82-14.608,10.648-22.002
		c2.817-7.371,5.115-14.271,5.224-21.869c-1.78-0.392-3.697-0.739-5.84-1.096c-3.737-0.624-8.132-1.281-12.125-1.905
		c-1.96-0.305-3.82-0.604-5.671-0.951c-15.886,5.314-33.414,9.157-47.752,13.25c-14.374,4.104-25.541,8.459-36.204,13.148
		c-10.664,4.689-20.824,9.716-28.361,14.796c-7.538,5.08-12.45,10.218-17.644,16.188c-5.192,5.976-10.664,12.786-15.018,20.657
		c-4.355,7.873-7.593,16.805-10.384,26.047c-2.791,9.238-5.137,18.786-7.816,32.291h-30.461c0-8.585,1.241-14.374,3.033-21.75
		c1.792-7.375,4.136-16.337,7.168-25.021c3.033-8.685,6.755-17.094,10.891-25.294c4.135-8.202,8.685-16.197,14.061-22.816
		c5.376-6.616,11.579-11.854,17.163-16.404c5.583-4.549,10.545-8.408,16.266-12.199c5.721-3.79,12.199-7.514,22.677-12.27
		s24.95-10.545,57.058-18.51c7.92-1.638,15.841-3.276,23.762-4.913l0.001,0.001c-0.088,0.246-0.169,0.49-0.24,0.732
		c-0.345,1.184-0.477,2.326-0.46,3.439c-0.01-1.09,0.121-2.211,0.46-3.371c0.916-3.133,3.335-6.536,4.23-13.805
		c-1.228-0.09-2.281-0.461-4.029-1.315c-2.336-1.143-5.909-3.149-10.653-4.826c-4.746-1.676-10.664-3.016-18.388-3.629
		c-7.725-0.615-17.254-0.504-23.122,0.311c-5.869,0.813-8.074,2.331-11.864,3.777c-3.792,1.447-9.167,2.826-13.096,3.447
		c-3.929,0.62-6.409,0.482-8.134-1.311c-1.723-1.792-2.688-5.238-3.239-8.34c-0.554-3.104-0.69-5.859-1.104-7.651
		c-0.412-1.793-1.103-2.619-2.688-2c-1.585,0.62-4.067,2.688-7.168,4.618c-3.102,1.931-6.824,3.725-9.719,4.618
		c-2.896,0.896-4.962,0.896-6.754,0.069c-1.792-0.828-3.309-2.481-5.652-3.654c-2.343-1.172-5.514-1.86-9.788-2.137
		c-4.273-0.273-9.649-0.139-13.578,0.758c-3.93,0.896-6.41,2.552-8.773,3.992c-2.363,1.444-4.607,2.678-6.626,3.361
		s-3.811,0.822-4.913-1.383c-1.103-2.207-1.517-6.755-1.104-11.648c0.414-4.896,1.654-10.132,3.86-15.716
		c2.206-5.582,5.376-11.51,9.581-15.921c4.204-4.412,9.442-7.307,15.784-10.339c6.341-3.034,13.785-6.205,18.679-8.825
		c4.894-2.617,7.237-4.686,8.34-6.822c1.104-2.137,0.965-4.344-0.483-6.961c-1.448-2.619-4.205-5.652-7.375-7.927
		c-3.17-2.276-6.755-3.792-10.338-4.963c-3.585-1.172-7.168-1.999-10.477-2.62s-6.341-1.033-9.856-2.688
		c-3.515-1.654-7.513-4.549-10.615-5.791c-3.101-1.241-5.307-0.828-7.926-1.172c-2.619-0.344-5.651-1.448-8.824-3.189
		c-3.171-1.741-6.482-4.121-9.017-5.678c-2.534-1.556-4.293-2.289-4.951-3.204c-0.66-0.916-0.22-2.015,0.878-3.993
		c1.099-1.978,2.857-4.835,4.396-6.704c1.538-1.868,2.857-2.748,4.322-3.626c1.465-0.878,3.077-1.758,5.311-2.161
		c2.235-0.404,5.092-0.33,7.29-0.843c2.198-0.512,3.737-1.611,4.835-3.076c1.098-1.466,1.758-3.296,1.721-4.726
		c-0.036-1.429-0.769-2.454-2.271-3.48c-1.502-1.025-3.773-2.051-5.495-4.212c-1.721-2.162-2.894-5.458-3.864-10.019
		c-0.97-4.561-1.74-10.385,2.484-20.324c9.938-4.224,15.763-3.456,20.323-2.485c4.561,0.97,7.857,2.142,10.019,3.865
		c2.161,1.721,3.187,3.993,4.212,5.495c1.025,1.502,2.051,2.234,3.48,2.271c1.429,0.036,3.26-0.623,4.725-1.722
		c1.466-1.099,2.564-2.638,3.078-4.835s0.439-5.056,0.842-7.29c0.404-2.234,1.283-3.846,2.162-5.312
		c0.879-1.466,1.758-2.784,3.626-4.323c1.868-1.539,4.726-3.297,6.704-4.396c1.978-1.099,3.077-1.538,3.992-0.879
		c0.915,0.659,1.648,2.418,3.204,4.952c1.556,2.534,3.936,5.845,5.676,9.016c1.742,3.171,2.844,6.206,3.189,8.824
		c0.344,2.619-0.069,4.824,1.172,7.926c1.241,3.101,4.136,7.099,5.79,10.614c1.654,3.516,2.067,6.548,2.688,9.856
		c0.622,3.308,1.448,6.893,2.62,10.477s2.688,7.168,4.962,10.338c2.274,3.171,5.308,5.928,7.927,7.375
		c2.619,1.448,4.826,1.585,6.963,0.483s4.203-3.446,6.823-8.34c2.618-4.895,5.789-12.338,8.822-18.68
		c3.032-6.34,5.928-11.579,10.339-15.784c4.41-4.205,10.339-7.375,15.922-9.582c5.582-2.205,10.82-3.445,15.715-3.86
		c4.896-0.414,9.441,0,11.648,1.103c2.205,1.104,2.066,2.895,1.383,4.913c-0.685,2.018-1.916,4.263-3.359,6.626
		c-1.442,2.363-3.098,4.844-3.993,8.772c-0.896,3.929-1.032,9.306-0.759,13.58c0.275,4.273,0.966,7.444,2.138,9.788
		c1.172,2.344,2.825,3.86,3.652,5.652c0.828,1.792,0.828,3.86-0.067,6.755c-0.896,2.895-2.688,6.616-4.618,9.719
		c-1.931,3.103-3.997,5.583-4.618,7.168s0.207,2.275,2,2.688c1.791,0.414,4.547,0.551,7.649,1.104
		c3.104,0.551,6.549,1.516,8.34,3.237c1.794,1.725,1.932,4.205,1.312,8.133c-0.619,3.93-2,9.307-3.445,13.097
		c-1.448,3.792-2.966,5.997-3.778,11.865c-0.814,5.868-0.926,15.397-0.313,23.122c0.615,7.724,1.955,13.643,3.629,18.388
		c1.677,4.746,3.686,8.317,4.828,10.653c0.855,1.748,1.225,2.804,1.314,4.029c7.266-0.896,10.673-3.313,13.804-4.229
		c3.133-0.916,5.989-0.329,8.7,0.512c2.711,0.845,5.275,1.942,7.326,4.617c2.051,2.673,3.59,6.922,4.65,10.842
		c1.063,3.921,1.648,7.511,2.272,11.503c0.623,3.991,1.281,8.389,1.905,12.124c0.364,2.198,0.72,4.161,1.125,5.979
		c7.614-0.102,14.525-2.402,21.907-5.227c7.395-2.826,15.264-6.172,22.002-10.648c6.737-4.478,12.347-10.086,16.957-15.105
		c4.612-5.02,8.23-9.451,11.353-14.833c3.119-5.381,5.743-11.713,6.511-17.862c0.771-6.149-0.315-12.119-2.123-17.728
		c-1.81-5.606-4.344-10.854-8.005-14.97c-3.663-4.115-8.457-7.1-13.16-8.953s-9.314-2.577-12.028-3.166
		c-2.714-0.587-3.527-1.04-3.211-2.805c0.315-1.763,1.765-4.838,3.392-8.365c1.629-3.527,3.438-7.508,6.241-10.672
		c2.805-3.166,6.604-5.52,11.44-6.332c4.839-0.813,10.718-0.092,16.101,1.492c5.383,1.582,10.267,4.023,13.114,5.518
		c2.851,1.493,3.663,2.034,4.479,1.4c0.813-0.633,1.627-2.441,3.165-5.336c1.537-2.893,3.799-6.874,7.778-10.626
		s9.678-7.281,26.557-16.507V217.64c-13.505,2.68-23.053,5.025-32.292,7.817s-18.173,6.03-26.045,10.383
		c-7.871,4.355-14.685,9.827-20.658,15.019c-5.973,5.193-11.11,10.105-16.189,17.643s-10.104,17.699-14.795,28.362
		c-4.689,10.663-9.045,21.829-13.146,36.206c-4.104,14.377-7.957,31.962-13.294,47.885h-0.003c-0.369-1.968-0.789-3.923-1.346-5.966
		c-1.062-3.919-2.601-8.168-4.65-10.843c-2.05-2.674-4.616-3.773-7.326-4.614c-2.711-0.843-5.568-1.431-8.7-0.513
		c-0.241,0.07-0.484,0.151-0.731,0.238l-0.001-0.001c1.638-7.921,3.275-15.841,4.913-23.761
		C403.693,303.407,409.484,288.934,414.24,278.455z"/>
	<path fill="#FFFFFF" stroke="#58595B" stroke-width="1.5" stroke-miterlimit="10" d="M424.465,419.513l-0.292-0.293
		C424.271,419.319,424.368,419.416,424.465,419.513z"/>
	<path fill="#FFFFFF" stroke="#58595B" stroke-width="1.5" stroke-miterlimit="10" d="M375.975,412.162
		c-3.92-1.063-8.169-2.602-10.844-4.652c-2.673-2.05-3.771-4.615-4.615-7.326c-0.842-2.71-1.429-5.566-0.513-8.698
		c0.071-0.242,0.152-0.486,0.24-0.732l-0.001-0.001c-7.921,1.637-15.842,3.275-23.762,4.913
		c-32.107,7.965-46.582,13.754-57.059,18.51s-16.957,8.479-22.676,12.27c-5.721,3.791-10.683,7.65-16.266,12.199
		c-5.583,4.55-11.786,9.789-17.163,16.404c-5.376,6.618-9.925,14.613-14.061,22.816c-4.136,8.201-7.858,16.609-10.891,25.294
		c-3.033,8.685-5.376,17.646-7.168,25.021c-1.793,7.376-3.033,13.165-3.033,21.751h30.461c2.68-13.506,5.025-23.054,7.816-32.291
		c2.791-9.242,6.029-18.174,10.384-26.048c4.355-7.871,9.826-14.683,15.018-20.657c5.193-5.972,10.106-11.108,17.644-16.188
		s17.697-10.105,28.361-14.796c10.663-4.689,21.83-9.044,36.204-13.147c14.377-4.104,31.964-7.956,47.884-13.295l-0.002-0.003
		C379.97,413.137,378.016,412.715,375.975,412.162z"/>
	<path fill="#FFFFFF" stroke="#58595B" stroke-width="1.5" stroke-miterlimit="10" d="M528.243,190.23
		c-7.375,1.792-16.336,4.135-25.021,7.168c-8.685,3.033-17.094,6.755-25.296,10.891c-8.202,4.136-16.196,8.685-22.814,14.06
		c-6.616,5.378-11.854,11.582-16.404,17.163c-4.548,5.584-8.409,10.546-12.199,16.267c-3.79,5.722-7.512,12.202-12.268,22.678
		s-10.547,24.951-18.511,57.059c-1.639,7.92-3.276,15.84-4.914,23.76v0.002c0.248-0.086,0.491-0.168,0.732-0.238
		c3.133-0.916,5.989-0.33,8.7,0.513c2.711,0.841,5.275,1.94,7.326,4.615c2.051,2.674,3.59,6.923,4.65,10.842
		c0.556,2.043,0.978,3.998,1.345,5.966h0.004c5.338-15.922,9.189-33.508,13.293-47.885c4.103-14.377,8.459-25.544,13.147-36.205
		c4.689-10.664,9.716-20.826,14.796-28.361c5.078-7.539,10.216-12.45,16.188-17.644c5.975-5.193,12.787-10.664,20.658-15.019
		s16.805-7.593,26.045-10.384c9.239-2.792,18.786-5.137,32.291-7.818v-30.461C541.408,187.196,535.619,188.437,528.243,190.23z"/>
	<path fill="#FFFFFF" stroke="#58595B" stroke-width="1.5" stroke-miterlimit="10" d="M421.604,426.627
		c-1.453-1.586-2.992-3.316-5.025-4.756c-2.033-1.438-4.561-2.589-7.361-3.456c-1.194-0.37-2.447-0.688-3.772-0.98
		c-0.096,7.628-2.4,14.547-5.228,21.939c-2.827,7.392-6.173,15.262-10.649,22.001c-4.478,6.737-10.085,12.346-15.104,16.957
		c-5.02,4.614-9.451,8.23-14.832,11.351c-5.382,3.121-11.713,5.743-17.863,6.514c-6.149,0.769-12.119-0.315-17.728-2.125
		c-5.606-1.81-10.854-4.343-14.968-8.004c-4.115-3.663-7.102-8.458-8.953-13.16c-1.854-4.702-2.578-9.315-3.167-12.028
		c-0.588-2.714-1.039-3.527-2.804-3.211s-4.84,1.763-8.365,3.392c-3.527,1.628-7.508,3.438-10.674,6.24
		c-3.166,2.807-5.518,6.604-6.33,11.442c-0.814,4.838-0.092,10.718,1.49,16.1c1.584,5.381,4.026,10.267,5.519,13.114
		c1.493,2.85,2.035,3.663,1.401,4.477c-0.633,0.814-2.442,1.628-5.336,3.166c-2.894,1.539-6.875,3.8-10.627,7.78
		c-3.754,3.979-7.281,9.678-16.507,26.555h69.577c-0.668-12.094-1.173-15.275-1.256-17.369c-0.084-2.094,0.251-3.099,2.372-4.048
		c2.122-0.949,6.03-1.843,12.785-3.854c6.756-2.009,16.357-5.137,24.397-8.039c8.039-2.904,14.517-5.583,22.109-11.335
		c7.592-5.751,16.302-14.571,25.095-26.437c8.792-11.862,17.67-26.771,22.896-51.118v-0.002
		C422.313,427.399,421.96,427.018,421.604,426.627z"/>
	<path fill="#FFFFFF" stroke="#58595B" stroke-width="1.5" stroke-miterlimit="10" d="M523.438,261.368
		c-3.979,3.753-6.24,7.733-7.777,10.627c-1.538,2.894-2.353,4.704-3.165,5.336c-0.815,0.633-1.63,0.09-4.479-1.401
		c-2.849-1.492-7.731-3.935-13.115-5.518c-5.382-1.583-11.26-2.307-16.1-1.493c-4.838,0.815-8.638,3.167-11.44,6.332
		c-2.805,3.167-4.612,7.144-6.24,10.671c-1.629,3.528-3.075,6.604-3.393,8.367c-0.316,1.763,0.497,2.216,3.211,2.805
		c2.714,0.586,7.325,1.313,12.028,3.165c4.704,1.854,9.498,4.839,13.159,8.954c3.663,4.116,6.196,9.361,8.005,14.971
		c1.81,5.605,2.895,11.576,2.125,17.728c-0.769,6.147-3.392,12.479-6.512,17.86c-3.121,5.383-6.739,9.813-11.353,14.834
		c-4.611,5.021-10.22,10.629-16.958,15.104c-6.736,4.478-14.606,7.822-22.001,10.649c-7.393,2.826-14.312,5.132-21.938,5.229
		c0.294,1.324,0.611,2.575,0.98,3.771c0.868,2.803,2.019,5.33,3.456,7.361c0.305,0.428,0.625,0.821,0.948,1.209l3.906,3.907
		c0.352,0.323,0.691,0.646,0.992,0.99l0.013,0.014c24.351-5.228,39.256-14.104,51.12-22.897
		c11.861-8.792,20.683-17.502,26.435-25.098c5.751-7.592,8.431-14.068,11.334-22.107s6.029-17.643,8.039-24.396
		c2.011-6.755,2.904-10.664,3.854-12.785c0.95-2.121,1.955-2.457,4.048-2.373c2.094,0.084,5.275,0.586,17.37,1.256v-69.58
		C533.114,254.086,527.417,257.614,523.438,261.368z"/>
</g>
</svg>
