<?xml version="1.0" encoding="utf-8"?>
<!-- Generator: Adobe Illustrator 16.0.0, SVG Export Plug-In . SVG Version: 6.00 Build 0)  -->
<!DOCTYPE svg PUBLIC "-//W3C//DTD SVG 1.1//EN" "http://www.w3.org/Graphics/SVG/1.1/DTD/svg11.dtd" [
	<!ENTITY ns_flows "http://ns.adobe.com/Flows/1.0/">
	<!ENTITY ns_extend "http://ns.adobe.com/Extensibility/1.0/">
	<!ENTITY ns_ai "http://ns.adobe.com/AdobeIllustrator/10.0/">
	<!ENTITY ns_graphs "http://ns.adobe.com/Graphs/1.0/">
]>
<svg version="1.1" id="Layer_1" xmlns:x="&ns_extend;" xmlns:i="&ns_ai;" xmlns:graph="&ns_graphs;"
	 xmlns="http://www.w3.org/2000/svg" xmlns:xlink="http://www.w3.org/1999/xlink" xmlns:a="http://ns.adobe.com/AdobeSVGViewerExtensions/3.0/"
	 x="0px" y="0px" width="550px" height="550px" viewBox="0 0 550 550" enable-background="new 0 0 550 550" xml:space="preserve">
<g>
	<path fill="#FFFFFF" stroke="#58595B" stroke-width="1.5" stroke-miterlimit="10" d="M527.718,117.462
		c-5.335-7.756-7.522-17.561-11.966-25.84c-7.021-13.088-19.678-22.359-30.854-32.773c-8.314-7.747-15.813-16.127-25.188-22.059
		c-8.142-5.148-17.698-8.453-25.188-14.495c-7.108-5.733-12.357-13.932-16.338-22.224H131.817
		c-3.98,8.292-9.229,16.49-16.337,22.224c-7.491,6.042-17.048,9.348-25.188,14.495c-9.377,5.932-16.874,14.313-25.188,22.059
		C53.926,69.263,41.271,78.534,34.248,91.622c-4.442,8.278-6.63,18.084-11.964,25.84c-5.213,7.58-13.43,13.199-21.738,17.372
		v280.331c8.308,4.172,16.524,9.792,21.738,17.371c5.334,7.756,7.522,17.561,11.964,25.84c7.023,13.089,19.678,22.358,30.855,32.773
		c8.315,7.745,15.811,16.127,25.188,22.06c8.14,5.146,17.697,8.452,25.188,14.493c7.128,5.751,12.388,13.979,16.373,22.296h286.296
		c3.982-8.316,9.242-16.546,16.371-22.296c7.491-6.041,17.049-9.347,25.189-14.493c9.376-5.933,16.873-14.313,25.188-22.06
		c11.178-10.415,23.832-19.686,30.854-32.773c4.442-8.278,6.631-18.084,11.966-25.84c5.326-7.746,13.79-13.448,22.282-17.647V135.11
		C541.508,130.911,533.044,125.208,527.718,117.462z M503.126,285.273c-1.7,3.063-4.421,6.127-9.18,8.68
		c-4.761,2.551-11.563,4.593-17.259,6.294c-5.696,1.703-10.285,3.063-14.366,3.829c-4.08,0.767-7.652,0.938-10.033,1.531
		c-2.38,0.597-3.569,1.617-4.42,2.724c-0.852,1.106-1.36,2.296-0.936,3.914c0.426,1.616,1.785,3.657,3.654,6.976
		c1.869,3.319,4.25,7.913,6.46,13.359c2.21,5.443,4.251,11.74,5.103,16.249c0.85,4.51,0.51,7.233,0,8.679
		c-0.511,1.446-1.189,1.616-1.956,1.021c-0.766-0.596-1.613-1.957-3.399-3.317c-1.787-1.362-4.507-2.726-8.247-4.085
		c-3.741-1.361-8.501-2.723-13.601-2.977c-5.104-0.258-10.542,0.594-15.134,2.127c-4.59,1.529-8.33,3.742-11.984,4.678
		c-3.656,0.938-7.228,0.596-10.882,0.34c-3.655-0.253-7.396-0.424-10.457-1.021c-3.061-0.594-5.439-1.615-10.534-5.389
		c-5.097-3.772-12.906-10.299-18.076-14.736c-5.171-4.438-7.699-6.789-8.828-8.416c-1.129-1.629-0.859-2.53-0.725-3.12
		c0.136-0.587,0.136-0.86-1.4-2.804c-1.536-1.944-4.606-5.562-6.82-7.957c-2.215-2.397-3.568-3.574-4.881-3.98
		c-1.31-0.407-2.573-0.046-4.426,0.588c-1.853,0.633-4.293,1.537-6.867,2.982c-2.574,1.447-5.285,3.438-7.364,5.652
		c-2.078,2.215-3.523,4.657-5.331,7.28c-1.807,2.621-3.977,5.427-4.924,7.642c-0.948,2.215-0.678,3.844,1.535,6.511
		c2.215,2.669,6.369,6.378,8.811,8.458c2.438,2.078,3.163,2.529,4.065,2.757c0.904,0.228,1.987,0.228,3.523,1.446
		c1.536,1.221,3.524,3.662,7.523,7.597c3.997,3.935,10.009,9.356,14.187,14.11c4.181,4.748,6.529,8.826,8.047,14.312
		c1.52,5.484,2.208,12.376,1.174,19.751c-1.03,7.374-3.785,15.23-5.474,23.397c-1.688,8.167-2.306,16.643,3.065,26.153
		c4.67,4.142,4.138,4.765,3.246,5.432c-0.889,0.668-2.134,1.379-4.416,1.319c-2.281-0.061-5.603-0.89-9.811-2.157
		c-4.206-1.268-9.303-2.971-13.635-4.938s-7.901-4.201-10.745-5.708c-2.846-1.508-4.965-2.29-6.86-2.123
		c-1.896,0.168-3.569,1.284-4.462,2.623c-0.894,1.341-1.005,2.903-1.229,5.92c-0.224,3.013-0.56,7.479-1.729,13.006
		c-1.171,5.525-3.179,12.113-6.859,18.926c-3.682,6.81-9.035,13.843-20.996,20.447c-11.96-6.604-17.315-13.64-20.997-20.447
		c-3.681-6.813-5.689-13.398-6.86-18.926c-1.172-5.526-1.507-9.993-1.729-13.006c-0.223-3.016-0.335-4.578-1.228-5.92
		c-0.892-1.339-2.565-2.455-4.461-2.623c-1.897-0.168-4.017,0.615-6.861,2.123c-2.844,1.507-6.414,3.738-10.746,5.708
		c-4.332,1.968-9.428,3.672-13.635,4.938c-4.208,1.269-7.528,2.098-9.81,2.157c-2.282,0.06-3.527-0.651-4.417-1.319
		c-0.888-0.666-1.422-1.29,3.248-5.432c5.371-9.512,4.751-17.986,3.065-26.153c-1.688-8.167-4.442-16.024-5.474-23.397
		c-1.033-7.376-0.344-14.267,1.174-19.751c1.517-5.483,3.867-9.562,8.045-14.312c4.179-4.754,10.189-10.176,14.188-14.11
		s5.987-6.375,7.523-7.597c1.535-1.221,2.621-1.221,3.524-1.446c0.903-0.226,1.626-0.679,4.066-2.757
		c2.438-2.08,6.595-5.789,8.809-8.458c2.214-2.667,2.485-4.296,1.536-6.511c-0.949-2.215-3.117-5.021-4.924-7.642
		c-1.807-2.623-3.252-5.065-5.33-7.28c-2.08-2.216-4.789-4.205-7.364-5.652c-2.575-1.445-5.015-2.352-6.866-2.982
		c-1.852-0.634-3.117-0.995-4.428-0.588c-1.31,0.406-2.665,1.583-4.88,3.98c-2.213,2.396-5.285,6.013-6.822,7.957
		c-1.536,1.942-1.536,2.217-1.4,2.804c0.135,0.588,0.406,1.491-0.724,3.12c-1.13,1.627-3.66,3.979-8.829,8.416
		c-5.169,4.438-12.98,10.964-18.076,14.736c-5.095,3.772-7.475,4.795-10.536,5.389c-3.061,0.597-6.801,0.769-10.456,1.021
		c-3.655,0.258-7.227,0.598-10.882-0.34c-3.655-0.936-7.396-3.146-11.987-4.678c-4.59-1.533-10.03-2.385-15.131-2.127
		c-5.101,0.255-9.861,1.615-13.603,2.977c-3.74,1.359-6.46,2.723-8.246,4.085c-1.785,1.36-2.635,2.722-3.4,3.317
		c-0.766,0.595-1.445,0.425-1.956-1.021c-0.511-1.445-0.85-4.169,0-8.679c0.85-4.509,2.89-10.806,5.101-16.249
		c2.21-5.446,4.59-10.042,6.46-13.359c1.871-3.316,3.231-5.359,3.656-6.976c0.424-1.618-0.085-2.81-0.935-3.914
		c-0.851-1.106-2.041-2.126-4.422-2.724c-2.381-0.596-5.951-0.766-10.031-1.531s-8.671-2.126-14.367-3.829
		c-5.695-1.701-12.496-3.743-17.257-6.294c-4.761-2.553-7.48-5.617-9.181-8.68c-1.7-3.063-2.38-6.127-2.294-9.273
		c0.085-3.148,0.935-6.382,2.806-9.36c1.87-2.978,4.76-5.7,8.927-8.508c4.165-2.808,9.606-5.7,15.366-7.86
		c5.76-2.159,11.841-3.583,16.276-4.128c4.434-0.545,7.223-0.21,9.23-0.489c2.008-0.278,3.235-1.171,4.295-2.288
		c1.059-1.116,1.952-2.456,1.673-4.41c-0.279-1.953-1.729-4.521-3.736-8.541c-2.007-4.019-4.574-9.49-6.886-14.599
		c-2.313-5.11-4.374-9.857-5.146-12.963c-0.774-3.107-0.262-4.572,0.506-5.817s1.793-2.271,2.781-2.38
		c0.988-0.109,1.939,0.696,3.549,1.885c1.609,1.188,3.877,2.761,6.94,4.167c3.062,1.406,6.918,2.646,11.119,2.922
		c4.2,0.275,8.744-0.413,13.909-1.999c5.164-1.584,10.949-4.066,15.769-5.444c4.821-1.378,8.676-1.654,13.29-0.965
		c4.613,0.688,9.984,2.343,16.729,7.035c6.746,4.692,14.863,12.425,20.116,17.118c5.251,4.691,7.635,6.346,8.658,7.653
		c1.024,1.308,0.688,2.269,0.712,2.942c0.024,0.672,0.408,1.057,1.648,2.65c1.241,1.593,3.338,4.395,4.802,6.418
		c1.462,2.024,2.293,3.27,3.208,4.244c0.915,0.974,1.917,1.678,3.37,1.735c1.453,0.058,3.355-0.528,6.246-1.846
		c2.891-1.318,6.77-3.37,10.1-6.153c3.33-2.784,6.111-6.3,8.396-9.479c2.286-3.179,4.075-6.021,5.008-7.909
		c0.934-1.887,1.011-2.821,0.332-4.028c-0.681-1.207-2.12-2.687-3.56-4.223c-1.439-1.538-2.878-3.133-3.948-3.991
		c-1.07-0.856-1.77-0.973-2.547-1.031c-0.779-0.058-1.634-0.058-6.323-4.302c-4.689-4.244-13.213-12.731-18.814-18.259
		c-5.601-5.528-8.277-8.096-10.173-10.943c-1.897-2.847-3.012-5.973-3.737-10.327c-0.726-4.353-1.061-9.936-0.502-14.792
		c0.559-4.855,2.008-8.988,3.263-12.063c1.254-3.076,2.313-5.096,3.066-9.271c0.755-4.175,1.207-10.505,1.257-14.78
		c0.05-4.274-0.3-6.493-1.047-8.409c-0.748-1.917-1.891-3.532-3.135-5.204c-1.244-1.673-2.589-3.403-3.356-4.508
		c-0.768-1.106-0.96-1.586-0.641-2.146c0.318-0.56,1.149-1.199,2.958-1.629c1.81-0.431,4.599-0.654,7.555-0.431
		c2.957,0.223,6.08,0.894,9.481,2.122c3.402,1.228,7.084,3.013,10.542,5.023c3.458,2.01,6.693,4.243,9.314,5.582
		c2.622,1.34,4.629,1.787,6.08,1.453c1.45-0.335,2.342-1.453,3.011-3.238c0.67-1.787,1.116-4.243,1.673-7.872
		c0.559-3.628,1.227-8.43,2.733-14.012s3.849-11.946,7.592-18.289c3.743-6.343,8.888-12.665,19.415-16.181
		c10.527,3.516,15.671,9.838,19.414,16.181c3.742,6.343,6.086,12.707,7.592,18.289c1.508,5.582,2.176,10.383,2.732,14.012
		c0.559,3.629,1.006,6.085,1.676,7.872c0.668,1.785,1.562,2.902,3.01,3.238c1.45,0.334,3.459-0.111,6.079-1.453
		c2.623-1.339,5.856-3.572,9.313-5.582c3.459-2.01,7.141-3.795,10.542-5.023c3.402-1.229,6.526-1.899,9.481-2.122
		c2.956-0.223,5.745,0,7.555,0.431c1.812,0.43,2.641,1.069,2.961,1.629c0.316,0.56,0.126,1.04-0.643,2.146
		c-0.77,1.105-2.114,2.835-3.356,4.508c-1.245,1.672-2.39,3.287-3.136,5.204c-0.747,1.917-1.098,4.136-1.047,8.409
		c0.05,4.275,0.503,10.605,1.257,14.78c0.755,4.175,1.813,6.195,3.067,9.271c1.254,3.076,2.704,7.206,3.262,12.063
		c0.56,4.857,0.223,10.44-0.502,14.792c-0.727,4.354-1.841,7.481-3.736,10.327c-1.896,2.847-4.574,5.416-10.175,10.943
		c-5.6,5.527-14.123,14.016-18.813,18.259c-4.689,4.244-5.545,4.244-6.322,4.302c-0.779,0.059-1.479,0.175-2.55,1.031
		c-1.068,0.856-2.507,2.452-3.946,3.991c-1.438,1.537-2.879,3.017-3.56,4.223c-0.679,1.207-0.602,2.141,0.331,4.028
		c0.934,1.889,2.724,4.729,5.007,7.909c2.285,3.179,5.066,6.695,8.397,9.479c3.33,2.784,7.209,4.834,10.1,6.153
		c2.893,1.318,4.794,1.904,6.246,1.846c1.451-0.058,2.453-0.76,3.37-1.735c0.916-0.974,1.745-2.22,3.209-4.244
		c1.464-2.023,3.563-4.825,4.8-6.418c1.241-1.594,1.625-1.978,1.648-2.65c0.025-0.673-0.313-1.634,0.712-2.942
		c1.024-1.307,3.407-2.96,8.66-7.653c5.25-4.694,13.369-12.425,20.114-17.118c6.743-4.693,12.114-6.347,16.729-7.035
		c4.613-0.689,8.469-0.413,13.289,0.965s10.604,3.86,15.771,5.444c5.162,1.585,9.709,2.274,13.908,1.999
		c4.2-0.275,8.056-1.516,11.118-2.922c3.063-1.407,5.331-2.98,6.94-4.167c1.609-1.188,2.561-1.994,3.549-1.885
		c0.987,0.11,2.011,1.135,2.78,2.38c0.768,1.246,1.282,2.71,0.507,5.817c-0.774,3.106-2.833,7.854-5.146,12.963
		c-2.313,5.109-4.88,10.58-6.887,14.599c-2.008,4.02-3.459,6.587-3.738,8.541c-0.276,1.954,0.616,3.295,1.677,4.41
		c1.06,1.116,2.286,2.01,4.294,2.288c2.008,0.28,4.798-0.056,9.23,0.489c4.437,0.545,10.516,1.97,16.274,4.128
		c5.762,2.159,11.202,5.052,15.367,7.86c4.165,2.809,7.056,5.531,8.925,8.508c1.871,2.979,2.722,6.211,2.807,9.36
		C505.506,279.146,504.825,282.211,503.126,285.273z"/>
	<path fill="#FFFFFF" stroke="#58595B" stroke-width="1.5" stroke-miterlimit="10" d="M332.498,261.188
		c-2.04-2.467-3.74-3.829-6.631-4.255c-2.892-0.426-6.972,0.085-9.776,0.169c-2.806,0.086-4.336-0.254-7.991-3.232
		c-3.653-2.978-9.436-8.594-11.984-11.827s-1.871-4.083-1.36-5.956c0.511-1.872,0.851-4.764,0.171-7.913
		c-0.68-3.147-2.382-6.551-4.337-9.358c-1.955-2.808-4.166-5.02-6.278-6.397c-2.115-1.376-4.135-1.917-9.035-2.095
		c-4.902,0.178-6.92,0.718-9.035,2.095s-4.325,3.59-6.279,6.397c-1.956,2.807-3.655,6.211-4.336,9.358
		c-0.681,3.149-0.34,6.042,0.17,7.913c0.51,1.873,1.191,2.723-1.36,5.956c-2.55,3.233-8.331,8.849-11.986,11.827
		c-3.656,2.978-5.186,3.319-7.992,3.232c-2.806-0.084-6.885-0.595-9.776-0.169c-2.892,0.426-4.591,1.787-6.631,4.255
		c-2.041,2.468-4.421,6.041-5.441,10.21c-1.02,4.168-0.68,8.934,0.68,12.677c1.361,3.741,3.74,6.467,7.609,8.466
		c3.869,1.999,9.223,3.275,19.274,3.095c17.352,16.126,17.352,17.986,17.008,19.468c-0.345,1.482-1.034,2.586-1.584,4.103
		c-0.551,1.515-0.964,3.446,0,6.133c0.964,2.688,3.305,6.136,5.936,8.688c2.63,2.554,5.547,4.218,7.522,5.269
		c1.979,1.052,3.014,1.49,6.221,1.396c3.207,0.096,4.242-0.344,6.219-1.396c1.979-1.051,4.896-2.715,7.525-5.269
		c2.629-2.553,4.971-6,5.936-8.688c0.964-2.687,0.551-4.616,0-6.133s-1.24-2.618-1.584-4.103c-0.346-1.48-0.346-3.342,17.008-19.468
		c10.051,0.181,15.406-1.096,19.275-3.095c3.867-1.999,6.247-4.723,7.607-8.466c1.359-3.744,1.7-8.509,0.682-12.677
		C336.92,267.229,334.538,263.655,332.498,261.188z"/>
	<path fill="#FFFFFF" stroke="#58595B" stroke-width="1.5" stroke-miterlimit="10" d="M502.615,266.64
		c-1.869-2.978-4.76-5.7-8.925-8.508c-4.166-2.808-9.606-5.7-15.367-7.86c-5.761-2.159-11.839-3.583-16.273-4.128
		s-7.225-0.21-9.231-0.489c-2.006-0.279-3.234-1.171-4.294-2.288c-1.061-1.116-1.953-2.456-1.676-4.41
		c0.278-1.953,1.729-4.521,3.737-8.541c2.007-4.02,4.574-9.49,6.887-14.599c2.313-5.11,4.371-9.857,5.146-12.963
		c0.774-3.107,0.261-4.572-0.507-5.817c-0.771-1.245-1.793-2.271-2.78-2.38c-0.988-0.109-1.938,0.696-3.549,1.885
		c-1.609,1.188-3.877,2.761-6.94,4.167c-3.063,1.406-6.918,2.646-11.119,2.922c-4.199,0.275-8.743-0.413-13.907-1.999
		c-5.166-1.584-10.95-4.066-15.771-5.444c-4.82-1.378-8.676-1.654-13.29-0.965c-4.613,0.688-9.985,2.343-16.729,7.035
		c-6.745,4.693-14.864,12.425-20.114,17.118c-5.253,4.692-7.635,6.346-8.66,7.653c-1.024,1.308-0.687,2.269-0.712,2.942
		c-0.023,0.672-0.407,1.057-1.648,2.65c-1.237,1.593-3.336,4.395-4.8,6.418c-1.464,2.024-2.292,3.27-3.209,4.244
		c-0.916,0.974-1.919,1.678-3.37,1.735c-1.453,0.058-3.355-0.528-6.246-1.846c-2.89-1.318-6.77-3.37-10.1-6.153
		c-3.331-2.784-6.112-6.3-8.396-9.479c-2.284-3.179-4.074-6.021-5.008-7.909c-0.933-1.887-1.01-2.821-0.331-4.028
		c0.681-1.207,2.12-2.687,3.561-4.223c1.438-1.538,2.878-3.133,3.945-3.991c1.071-0.856,1.771-0.973,2.549-1.031
		c0.779-0.058,1.635-0.058,6.323-4.302c4.688-4.244,13.213-12.731,18.813-18.259c5.601-5.528,8.279-8.096,10.175-10.943
		c1.896-2.847,3.011-5.973,3.736-10.327c0.725-4.353,1.061-9.936,0.502-14.792c-0.558-4.856-2.008-8.988-3.262-12.063
		c-1.255-3.076-2.313-5.096-3.067-9.271c-0.754-4.176-1.207-10.505-1.257-14.78c-0.051-4.274,0.301-6.493,1.047-8.409
		c0.747-1.917,1.891-3.532,3.136-5.204c1.242-1.673,2.588-3.403,3.356-4.508c0.769-1.106,0.959-1.586,0.643-2.146
		c-0.32-0.56-1.149-1.199-2.961-1.629c-1.81-0.431-4.599-0.654-7.555-0.431c-2.955,0.223-6.079,0.894-9.481,2.122
		c-3.401,1.228-7.083,3.013-10.542,5.023c-3.457,2.01-6.69,4.243-9.313,5.582c-2.621,1.34-4.63,1.787-6.08,1.453
		c-1.448-0.335-2.342-1.453-3.01-3.238c-0.669-1.787-1.116-4.243-1.676-7.872c-0.559-3.628-1.227-8.43-2.732-14.012
		c-1.505-5.582-3.85-11.946-7.592-18.289c-3.744-6.343-8.887-12.665-19.414-16.181c-10.526,3.516-15.67,9.838-19.415,16.181
		c-3.744,6.343-6.087,12.707-7.592,18.289s-2.175,10.383-2.733,14.012c-0.558,3.629-1.003,6.085-1.674,7.872
		c-0.668,1.785-1.562,2.902-3.011,3.238c-1.451,0.334-3.458-0.111-6.08-1.453c-2.622-1.339-5.857-3.572-9.314-5.582
		c-3.458-2.01-7.14-3.795-10.542-5.023c-3.402-1.229-6.525-1.899-9.481-2.122c-2.956-0.223-5.745,0-7.555,0.431
		c-1.809,0.43-2.64,1.069-2.958,1.629c-0.32,0.56-0.127,1.04,0.641,2.146c0.768,1.105,2.113,2.835,3.356,4.508
		c1.244,1.672,2.388,3.287,3.135,5.204c0.748,1.917,1.097,4.136,1.048,8.409c-0.052,4.275-0.503,10.605-1.258,14.78
		c-0.754,4.175-1.813,6.195-3.067,9.271c-1.254,3.076-2.704,7.206-3.262,12.063c-0.559,4.857-0.223,10.44,0.502,14.792
		c0.725,4.354,1.84,7.481,3.737,10.327c1.897,2.847,4.573,5.416,10.173,10.943c5.6,5.527,14.124,14.016,18.814,18.259
		c4.689,4.244,5.545,4.244,6.323,4.302c0.777,0.059,1.477,0.175,2.546,1.031c1.07,0.856,2.508,2.452,3.948,3.991
		c1.44,1.537,2.878,3.017,3.56,4.223c0.68,1.207,0.603,2.141-0.332,4.028c-0.933,1.889-2.722,4.729-5.008,7.909
		c-2.285,3.179-5.066,6.695-8.397,9.479c-3.33,2.784-7.208,4.834-10.1,6.153c-2.891,1.318-4.793,1.904-6.246,1.846
		c-1.452-0.058-2.454-0.76-3.37-1.735c-0.916-0.975-1.746-2.22-3.208-4.244c-1.464-2.023-3.56-4.825-4.802-6.418
		c-1.24-1.594-1.624-1.978-1.648-2.65c-0.023-0.673,0.313-1.634-0.711-2.942c-1.023-1.307-3.408-2.96-8.658-7.653
		c-5.251-4.694-13.37-12.425-20.116-17.118c-6.745-4.692-12.115-6.347-16.729-7.035c-4.615-0.689-8.47-0.413-13.29,0.965
		c-4.819,1.378-10.604,3.86-15.769,5.444c-5.165,1.585-9.709,2.274-13.909,1.999c-4.201-0.275-8.057-1.516-11.119-2.922
		c-3.063-1.407-5.331-2.98-6.94-4.167c-1.61-1.189-2.562-1.994-3.549-1.885c-0.987,0.11-2.013,1.135-2.781,2.38
		c-0.769,1.246-1.281,2.71-0.506,5.817c0.772,3.106,2.833,7.854,5.146,12.963s4.879,10.58,6.886,14.599
		c2.007,4.019,3.458,6.587,3.737,8.541c0.278,1.954-0.614,3.295-1.673,4.41c-1.06,1.117-2.288,2.01-4.296,2.288
		c-2.008,0.279-4.796-0.056-9.23,0.489c-4.435,0.545-10.515,1.97-16.276,4.128c-5.761,2.159-11.201,5.052-15.366,7.86
		c-4.167,2.809-7.057,5.531-8.927,8.508c-1.871,2.979-2.721,6.211-2.806,9.36c-0.086,3.146,0.595,6.211,2.294,9.273
		c1.7,3.063,4.421,6.127,9.181,8.68c4.761,2.551,11.562,4.593,17.257,6.294c5.696,1.703,10.286,3.063,14.367,3.829
		c4.081,0.767,7.651,0.938,10.031,1.531c2.38,0.597,3.57,1.617,4.422,2.724c0.85,1.106,1.359,2.296,0.935,3.914
		c-0.425,1.616-1.785,3.657-3.656,6.976c-1.87,3.318-4.247,7.914-6.456,13.359c-2.211,5.443-4.251,11.74-5.101,16.251
		c-0.85,4.509-0.51,7.231,0,8.679c0.51,1.445,1.19,1.616,1.956,1.02c0.766-0.594,1.615-1.954,3.4-3.316
		c1.786-1.361,4.505-2.724,8.246-4.085c3.741-1.36,8.5-2.722,13.602-2.976c5.102-0.258,10.541,0.595,15.132,2.125
		c4.591,1.533,8.331,3.744,11.987,4.68c3.655,0.936,7.226,0.596,10.882,0.341c3.655-0.255,7.396-0.425,10.456-1.021
		c3.061-0.596,5.441-1.616,10.536-5.391c5.096-3.773,12.906-10.298,18.076-14.736c5.17-4.438,7.7-6.789,8.83-8.416
		c1.13-1.629,0.858-2.531,0.723-3.12c-0.136-0.587-0.136-0.859,1.4-2.804c1.536-1.945,4.608-5.562,6.822-7.957
		c2.213-2.398,3.57-3.574,4.879-3.979c1.311-0.408,2.575-0.047,4.428,0.587c1.851,0.633,4.291,1.537,6.867,2.982
		c2.574,1.445,5.285,3.438,7.363,5.652c2.078,2.217,3.523,4.656,5.33,7.28c1.808,2.622,3.976,5.426,4.924,7.642
		c0.949,2.217,0.678,3.844-1.536,6.512c-2.214,2.669-6.37,6.375-8.809,8.457c-2.44,2.078-3.163,2.531-4.066,2.757
		c-0.903,0.227-1.988,0.227-3.524,1.446c-1.536,1.222-3.524,3.664-7.523,7.597c-3.999,3.934-10.008,9.356-14.188,14.108
		c-4.179,4.752-6.527,8.828-8.045,14.313c-1.52,5.484-2.207,12.376-1.174,19.751c1.032,7.374,3.787,15.23,5.473,23.397
		c1.688,8.165,2.307,16.643-3.064,26.153c-4.67,4.142-4.137,4.765-3.248,5.432c0.891,0.669,2.134,1.379,4.417,1.319
		c2.282-0.061,5.603-0.89,9.81-2.158c4.208-1.267,9.304-2.97,13.635-4.938c4.332-1.968,7.902-4.201,10.747-5.708
		c2.844-1.508,4.963-2.29,6.861-2.123c1.896,0.168,3.569,1.284,4.461,2.623c0.893,1.342,1.004,2.903,1.228,5.92
		c0.223,3.013,0.559,7.479,1.729,13.006c1.17,5.525,3.178,12.112,6.861,18.925c3.68,6.811,9.035,13.844,20.996,20.448
		c11.96-6.604,17.313-13.64,20.995-20.448c3.682-6.812,5.688-13.397,6.86-18.925c1.171-5.526,1.506-9.993,1.729-13.006
		c0.223-3.016,0.335-4.578,1.229-5.92c0.893-1.339,2.563-2.455,4.462-2.623c1.896-0.168,4.017,0.615,6.86,2.123
		c2.845,1.507,6.413,3.739,10.745,5.708c4.334,1.968,9.43,3.672,13.635,4.938c4.208,1.269,7.528,2.098,9.812,2.157
		c2.28,0.06,3.526-0.651,4.416-1.319c0.891-0.666,1.423-1.29-3.247-5.432c-5.371-9.511-4.752-17.987-3.065-26.153
		c1.688-8.167,4.442-16.024,5.474-23.397c1.033-7.376,0.346-14.267-1.174-19.751c-1.517-5.485-3.864-9.562-8.047-14.313
		c-4.178-4.75-10.188-10.176-14.188-14.108c-3.998-3.933-5.986-6.375-7.521-7.597c-1.537-1.221-2.62-1.221-3.523-1.446
		c-0.904-0.226-1.628-0.679-4.065-2.757c-2.441-2.081-6.597-5.788-8.811-8.457c-2.214-2.668-2.484-4.295-1.536-6.512
		c0.949-2.215,3.118-5.02,4.924-7.642c1.807-2.624,3.253-5.063,5.331-7.28c2.079-2.215,4.789-4.207,7.365-5.652
		c2.575-1.445,5.014-2.351,6.866-2.982c1.854-0.634,3.117-0.995,4.427-0.587c1.313,0.406,2.666,1.581,4.88,3.979
		c2.214,2.396,5.285,6.012,6.82,7.957c1.536,1.943,1.536,2.215,1.4,2.804s-0.405,1.491,0.725,3.12
		c1.13,1.627,3.657,3.979,8.828,8.416c5.17,4.438,12.98,10.965,18.074,14.736c5.096,3.773,7.478,4.793,10.536,5.391
		c3.062,0.595,6.802,0.766,10.457,1.021c3.654,0.257,7.225,0.595,10.882-0.341c3.654-0.936,7.396-3.146,11.985-4.68
		c4.591-1.53,10.031-2.383,15.133-2.125c5.1,0.255,9.859,1.615,13.602,2.976c3.738,1.361,6.46,2.724,8.246,4.085
		c1.785,1.362,2.635,2.723,3.399,3.316c0.767,0.598,1.444,0.427,1.956-1.02c0.511-1.447,0.849-4.17,0-8.679
		c-0.852-4.511-2.892-10.808-5.103-16.251c-2.21-5.445-4.589-10.041-6.46-13.357c-1.869-3.317-3.229-5.361-3.653-6.978
		c-0.427-1.616,0.084-2.808,0.935-3.913c0.851-1.107,2.039-2.126,4.42-2.725c2.382-0.596,5.952-0.766,10.033-1.529
		c4.081-0.766,8.67-2.127,14.366-3.829c5.694-1.701,12.498-3.744,17.259-6.296c4.759-2.553,7.479-5.616,9.18-8.68
		c1.699-3.062,2.38-6.125,2.295-9.272C505.336,272.852,504.485,269.619,502.615,266.64z M337.259,284.075
		c-1.359,3.741-3.74,6.467-7.607,8.466c-3.868,1.999-9.226,3.275-19.275,3.096c-17.353,16.125-17.353,17.985-17.009,19.467
		c0.344,1.482,1.033,2.586,1.585,4.103c0.551,1.515,0.964,3.446,0,6.133c-0.966,2.688-3.306,6.136-5.935,8.688
		c-2.631,2.554-5.547,4.218-7.526,5.269c-1.978,1.052-3.011,1.49-6.218,1.396c-3.209,0.096-4.244-0.344-6.222-1.396
		c-1.976-1.051-4.894-2.715-7.523-5.269c-2.631-2.553-4.972-6-5.936-8.688c-0.964-2.687-0.551-4.616,0-6.133
		c0.55-1.517,1.239-2.618,1.584-4.103c0.344-1.48,0.344-3.342-17.008-19.467c-10.051,0.18-15.406-1.097-19.274-3.096
		s-6.248-4.723-7.609-8.466c-1.359-3.743-1.7-8.509-0.68-12.677c1.021-4.17,3.401-7.743,5.441-10.21
		c2.04-2.467,3.739-3.829,6.631-4.255c2.892-0.426,6.971,0.085,9.776,0.169c2.806,0.086,4.335-0.254,7.992-3.232
		c3.654-2.978,9.436-8.594,11.986-11.827c2.551-3.233,1.871-4.083,1.36-5.956c-0.511-1.872-0.85-4.764-0.17-7.913
		c0.681-3.147,2.38-6.551,4.336-9.358c1.955-2.807,4.165-5.02,6.279-6.397c2.117-1.376,4.133-1.917,9.037-2.095
		c4.9,0.178,6.92,0.718,9.033,2.095c2.115,1.377,4.326,3.59,6.279,6.397c1.955,2.808,3.655,6.211,4.337,9.358
		c0.679,3.149,0.339,6.042-0.171,7.913c-0.509,1.873-1.189,2.723,1.359,5.956c2.55,3.233,8.332,8.849,11.986,11.827
		s5.187,3.319,7.99,3.232c2.806-0.084,6.886-0.595,9.776-0.169c2.891,0.426,4.59,1.787,6.631,4.255
		c2.039,2.468,4.421,6.041,5.44,10.21C338.957,275.566,338.619,280.332,337.259,284.075z"/>
	<path fill="#FFFFFF" stroke="#58595B" stroke-width="1.5" stroke-miterlimit="10" d="M275.271,340.691
		c3.209,0.095,4.244-0.344,6.221-1.396c1.979-1.051,4.896-2.716,7.525-5.271c2.629-2.553,4.969-5.998,5.935-8.687
		c0.964-2.688,0.55-4.618,0-6.134s-1.239-2.618-1.584-4.102c-0.345-1.482-0.345-3.344,17.009-19.47
		c10.05,0.183,15.405-1.096,19.274-3.095c3.866-1.999,6.247-4.723,7.607-8.467c1.359-3.742,1.7-8.506,0.682-12.676
		c-1.021-4.168-3.402-7.743-5.441-10.209c-2.04-2.467-3.739-3.829-6.631-4.255c-2.892-0.426-6.972,0.085-9.776,0.169
		c-2.806,0.086-4.336-0.254-7.991-3.232c-3.654-2.979-9.436-8.594-11.984-11.827c-2.552-3.233-1.87-4.083-1.36-5.956
		c0.51-1.872,0.85-4.764,0.17-7.913c-0.68-3.147-2.38-6.551-4.336-9.358c-1.955-2.808-4.166-5.02-6.279-6.397
		c-2.113-1.376-4.134-1.917-9.035-2.095c-4.9,0.178-6.92,0.718-9.034,2.095c-2.115,1.377-4.325,3.59-6.279,6.397
		c-1.956,2.807-3.655,6.211-4.336,9.358c-0.68,3.149-0.34,6.042,0.17,7.913c0.51,1.873,1.19,2.723-1.36,5.956
		s-8.331,8.849-11.986,11.827c-3.656,2.978-5.186,3.319-7.992,3.232c-2.806-0.084-6.885-0.595-9.776-0.169
		c-2.892,0.426-4.591,1.787-6.631,4.255c-2.041,2.468-4.421,6.042-5.441,10.209c-1.02,4.17-0.681,8.935,0.68,12.676
		c1.361,3.744,3.74,6.468,7.609,8.467c3.869,2.001,9.223,3.275,19.274,3.095c17.351,16.126,17.351,17.986,17.008,19.47
		c-0.345,1.481-1.034,2.584-1.584,4.102c-0.55,1.516-0.964,3.445,0,6.134c0.964,2.688,3.305,6.134,5.936,8.687
		c2.63,2.555,5.546,4.22,7.523,5.271C271.029,340.348,272.064,340.785,275.271,340.691z"/>
	<path fill="#FFFFFF" stroke="#58595B" stroke-width="1.5" stroke-miterlimit="10" d="M489.306,549.999
		c0.307-5.838,1.33-11.649,3.148-17.253c3.804-11.729,11.086-22.548,20.778-30.253c10.441-8.299,23.683-12.983,36.768-14.496v62.002
		H489.306z"/>
	<path fill="#FFFFFF" stroke="#58595B" stroke-width="1.5" stroke-miterlimit="10" d="M489.306,0
		c0.307,5.838,1.33,11.65,3.148,17.252c3.804,11.729,11.086,22.548,20.778,30.253c10.441,8.3,23.683,12.983,36.768,14.496V0H489.306
		z"/>
	<path fill="#FFFFFF" stroke="#58595B" stroke-width="1.5" stroke-miterlimit="10" d="M60.695,549.999
		c-0.307-5.838-1.332-11.649-3.148-17.253c-3.804-11.729-11.087-22.548-20.78-30.253C26.325,494.194,13.086,489.51,0,487.997v62.002
		H60.695z"/>
	<path fill="#FFFFFF" stroke="#58595B" stroke-width="1.5" stroke-miterlimit="10" d="M527.718,432.536
		c-5.335,7.756-7.522,17.561-11.966,25.84c-7.021,13.089-19.678,22.358-30.854,32.773c-8.314,7.745-15.813,16.127-25.188,22.06
		c-8.142,5.147-17.698,8.452-25.188,14.493c-7.129,5.751-12.389,13.979-16.372,22.296h71.156c0.307-5.838,1.33-11.649,3.148-17.253
		c3.804-11.729,11.086-22.548,20.778-30.253c10.441-8.299,23.683-12.983,36.768-14.496v-73.108
		C541.508,419.088,533.044,424.79,527.718,432.536z"/>
	<path fill="#FFFFFF" stroke="#58595B" stroke-width="1.5" stroke-miterlimit="10" d="M492.454,17.252
		c-1.818-5.603-2.843-11.415-3.148-17.252h-71.156c3.982,8.316,9.242,16.545,16.372,22.294c7.49,6.042,17.048,9.348,25.188,14.495
		c9.376,5.932,16.873,14.313,25.188,22.059c11.177,10.414,23.832,19.685,30.854,32.773c4.442,8.278,6.631,18.084,11.966,25.84
		c5.326,7.746,13.79,13.448,22.282,17.648V62.001c-13.085-1.514-26.324-6.198-36.768-14.496
		C503.541,39.801,496.258,28.982,492.454,17.252z"/>
	<path fill="#FFFFFF" stroke="#58595B" stroke-width="1.5" stroke-miterlimit="10" d="M115.479,527.703
		c-7.491-6.041-17.048-9.347-25.188-14.494c-9.377-5.932-16.874-14.313-25.188-22.059c-11.177-10.415-23.833-19.686-30.855-32.773
		c-4.442-8.278-6.63-18.084-11.964-25.84c-5.327-7.746-13.79-13.449-22.283-17.647v73.108c13.086,1.514,26.324,6.197,36.767,14.496
		c9.693,7.704,16.977,18.522,20.78,30.253c1.817,5.604,2.841,11.415,3.148,17.253h71.157
		C127.868,541.683,122.608,533.453,115.479,527.703z"/>
	<path fill="#FFFFFF" stroke="#58595B" stroke-width="1.5" stroke-miterlimit="10" d="M60.695,0
		c-0.307,5.838-1.332,11.65-3.148,17.252C53.743,28.981,46.46,39.8,36.767,47.505C26.324,55.804,13.086,60.488,0,62.001v73.109
		c8.493-4.2,16.956-9.902,22.283-17.648c5.334-7.756,7.522-17.561,11.964-25.84c7.023-13.088,19.678-22.359,30.855-32.773
		c8.315-7.747,15.811-16.127,25.188-22.059c8.14-5.148,17.697-8.453,25.188-14.495c7.128-5.75,12.388-13.978,16.373-22.294L60.695,0
		L60.695,0z"/>
	<path fill="#FFFFFF" stroke="#58595B" stroke-width="1.5" stroke-miterlimit="10" d="M60.695,0
		c-0.307,5.838-1.332,11.65-3.148,17.252C53.743,28.981,46.46,39.8,36.767,47.505C26.324,55.804,13.086,60.488,0,62.001V0H60.695z"
		/>
</g>
</svg>
