<?xml version="1.0" encoding="utf-8"?>
<!-- Generator: Adobe Illustrator 16.0.0, SVG Export Plug-In . SVG Version: 6.00 Build 0)  -->
<!DOCTYPE svg PUBLIC "-//W3C//DTD SVG 1.1//EN" "http://www.w3.org/Graphics/SVG/1.1/DTD/svg11.dtd" [
	<!ENTITY ns_flows "http://ns.adobe.com/Flows/1.0/">
	<!ENTITY ns_extend "http://ns.adobe.com/Extensibility/1.0/">
	<!ENTITY ns_ai "http://ns.adobe.com/AdobeIllustrator/10.0/">
	<!ENTITY ns_graphs "http://ns.adobe.com/Graphs/1.0/">
]>
<svg version="1.1" id="Layer_1" xmlns:x="&ns_extend;" xmlns:i="&ns_ai;" xmlns:graph="&ns_graphs;"
	 xmlns="http://www.w3.org/2000/svg" xmlns:xlink="http://www.w3.org/1999/xlink" xmlns:a="http://ns.adobe.com/AdobeSVGViewerExtensions/3.0/"
	 x="0px" y="0px" width="550px" height="550px" viewBox="0 0 550 550" enable-background="new 0 0 550 550" xml:space="preserve">
<g>
	<polygon fill="#FFFFFF" stroke="#939598" stroke-width="1.5" stroke-miterlimit="10" points="95.745,550 0,453.862 0,550 	"/>
	<polygon fill="#FFFFFF" stroke="#939598" stroke-width="1.5" stroke-miterlimit="10" points="453.554,0 550,96.445 550,0 	"/>
	<path fill="#FFFFFF" stroke="#939598" stroke-width="1.5" stroke-miterlimit="10" d="M476.151,476.398l2.023,2.017
		c0.006-0.004,0.013-0.01,0.017-0.014l-1.791-1.787V344.061l73.6,73.847V136.222L136.224,550h281.221l-73.389-73.602H476.151z"/>
	<path fill="#FFFFFF" stroke="#939598" stroke-width="1.5" stroke-miterlimit="10" d="M132.555,0l73.385,73.601H73.848l-1.393-1.388
		c-0.006,0.004-0.012,0.009-0.017,0.013l1.162,1.159V205.94L0,132.091v321.771L453.554,0H132.555z"/>
	<polygon fill="#FFFFFF" stroke="#939598" stroke-width="1.5" stroke-miterlimit="10" points="205.94,73.601 132.555,0 0,0 
		73.848,73.601 	"/>
	<polygon fill="#FFFFFF" stroke="#939598" stroke-width="1.5" stroke-miterlimit="10" points="0,0 73.601,73.384 73.601,205.939 
		0,132.091 	"/>
	<polygon fill="#FFFFFF" stroke="#939598" stroke-width="1.5" stroke-miterlimit="10" points="136.224,550 550,136.223 550,96.446 
		453.554,0 0,453.862 95.745,550 	"/>
	<polygon fill="#FFFFFF" stroke="#939598" stroke-width="1.5" stroke-miterlimit="10" points="344.058,476.398 417.445,550 550,550 
		476.151,476.398 	"/>
	<polygon fill="#FFFFFF" stroke="#939598" stroke-width="1.5" stroke-miterlimit="10" points="550,550 476.398,476.614 
		476.398,344.061 550,417.906 	"/>
</g>
</svg>
