<?xml version="1.0" encoding="utf-8"?>
<!-- Generator: Adobe Illustrator 16.0.0, SVG Export Plug-In . SVG Version: 6.00 Build 0)  -->
<!DOCTYPE svg PUBLIC "-//W3C//DTD SVG 1.1//EN" "http://www.w3.org/Graphics/SVG/1.1/DTD/svg11.dtd" [
	<!ENTITY ns_flows "http://ns.adobe.com/Flows/1.0/">
	<!ENTITY ns_extend "http://ns.adobe.com/Extensibility/1.0/">
	<!ENTITY ns_ai "http://ns.adobe.com/AdobeIllustrator/10.0/">
	<!ENTITY ns_graphs "http://ns.adobe.com/Graphs/1.0/">
]>
<svg version="1.1" id="Layer_1" xmlns:x="&ns_extend;" xmlns:i="&ns_ai;" xmlns:graph="&ns_graphs;"
	 xmlns="http://www.w3.org/2000/svg" xmlns:xlink="http://www.w3.org/1999/xlink" xmlns:a="http://ns.adobe.com/AdobeSVGViewerExtensions/3.0/"
	 x="0px" y="0px" width="550px" height="550px" viewBox="0 0 550 550" enable-background="new 0 0 550 550" xml:space="preserve">
<g>
	<path fill="#FFFFFF" stroke="#585A5B" stroke-width="1.5" stroke-miterlimit="10" d="M529.709,0
		c0.994,14.733,0.994,19.458,0.829,22.484c-0.166,3.026-0.497,4.352-4.327,4.889s-11.158,0.285-22.531,0.158
		c-11.372-0.126-26.785-0.126-43.59,1.264c-16.805,1.39-34.999,4.169-50.666,7.075c-15.667,2.906-28.808,5.938-44.979,10.866
		c-16.174,4.927-35.378,11.75-54.837,19.963c-19.457,8.213-39.168,17.815-60.963,29.44c-21.795,11.624-45.675,25.269-61.535,42.1
		c-0.134,7.789-0.269,15.577-0.403,23.367c1.209,2.82,12.892,12.288,24.508,22.527c11.617,10.241,23.166,21.253,33.774,31.593
		c10.609,10.341,20.279,20.01,27.329,26.322c7.051,6.312,11.483,9.267,14.908,10.609c3.424,1.343,5.842,1.075,7.317-1.813
		c1.478-2.887,2.017-8.393,2.754-13.766c0.738-5.372,1.677-10.608,3.223-15.846c1.545-5.238,3.693-10.474,5.508-15.31
		c1.813-4.834,3.288-9.266,5.639-13.898c2.35-4.633,5.573-9.468,8.191-14.772c2.619-5.305,4.634-11.079,6.044-16.988
		c1.409-5.909,2.216-11.952,2.216-17.123c0-5.17-0.807-9.467-0.872-12.623c-0.067-3.156,0.604-5.17,3.021-5.305
		c2.418-0.134,6.581,1.612,10.945,5.036c4.364,3.425,8.931,8.527,13.161,14.37c4.229,5.842,8.125,12.423,10.14,19.003
		c2.012,6.58,2.148,13.161,2.352,18.733c0.199,5.574,0.468,10.139,1.342,12.826c0.875,2.686,2.35,3.491,4.634,1.275
		c2.282-2.216,5.37-7.454,9.602-13.094c4.229-5.64,9.603-11.684,16.315-17.391c6.715-5.707,14.772-11.079,21.42-15.981
		c6.647-4.901,11.885-9.333,15.849-11.683c3.961-2.35,6.646-2.618,8.526-1.411c1.88,1.208,2.954,3.895,3.624,6.782
		c0.672,2.887,0.94,5.976,1.612,7.789c0.672,1.813,1.745,2.35,2.687,1.746c0.939-0.604,1.746-2.35,5.474-8.36
		c3.726-6.009,10.375-16.283,39.784-40.456c3.473,8.789-0.212,13.087-2.259,18.511c-2.046,5.424-2.455,11.975-3.58,22.004
		c-1.127,10.029-2.971,23.539-6.551,36.024c-3.582,12.486-8.903,23.948-14.636,33.16c-5.73,9.211-11.871,16.17-22.318,25.243
		c-10.449,9.073-25.205,20.258-38.469,29.085c-13.264,8.825-25.035,15.291-35.729,20.1c-10.694,4.809-20.312,7.959-25.698,10.031
		c-5.39,2.072-6.549,3.065-6.052,4.975c0.499,1.906,2.652,4.724,6.135,6.632c3.479,1.905,8.29,2.899,12.353,3.315
		c4.063,0.414,7.376,0.248,10.443-1.078c3.068-1.325,5.887-3.813,9.534-7.377c3.646-3.564,8.124-8.207,13.845-12.269
		c5.72-4.063,12.683-7.543,18.652-9.698c5.969-2.156,10.941-2.984,18.402-3.647c7.46-0.665,17.408-1.16,25.946-0.332
		c8.538,0.827,15.668,2.981,23.211,6.217c7.544,3.231,15.502,7.543,21.556,13.017c6.051,5.471,10.195,12.103,12.682,18.981
		c2.487,6.882,3.315,14.01,3.15,18.403c-0.166,4.394-1.327,6.053-3.896,6.384c-2.57,0.33-6.548-0.664-10.858-0.416
		c-4.31,0.25-8.953,1.743-12.104,4.146c-3.149,2.404-4.809,5.721-7.378,11.025c-2.568,5.305-6.052,12.6-9.2,16.661
		c-3.15,4.063-5.969,4.891-8.653,5.308c-2.688,0.414-5.236,0.414-8.326,0.213s-6.715-0.604-8.729,0.403
		c-2.015,1.007-2.418,3.424-2.216,5.774c0.201,2.349,1.007,4.632,3.355,6.378c2.352,1.746,6.244,2.955,13.9,8.527
		c7.654,5.572,19.068,15.511,27.865,25.181c8.796,9.669,14.976,19.067,18.867,32.532c3.896,13.463,5.507,30.987-9.546,43.623
		c-12.636,15.054-30.159,13.44-43.624,9.548c-13.464-3.896-22.862-10.073-32.531-18.868c-9.67-8.796-19.607-20.211-25.182-27.867
		c-5.571-7.655-6.781-11.548-8.526-13.898s-4.029-3.155-6.38-3.355c-2.35-0.202-4.768,0.2-5.773,2.214
		c-1.008,2.014-0.604,5.64-0.403,8.729c0.201,3.09,0.201,5.641-0.213,8.325c-0.415,2.688-1.243,5.504-5.306,8.654
		c-4.063,3.149-11.357,6.632-16.662,9.201c-5.307,2.569-8.623,4.228-11.025,7.378c-2.404,3.148-3.896,7.792-4.145,12.104
		c-0.249,4.312,0.746,8.288,0.415,10.858c-0.333,2.567-1.99,3.73-6.383,3.896c-4.396,0.165-11.523-0.663-18.405-3.149
		c-6.88-2.485-13.512-6.632-18.981-12.683c-5.473-6.052-9.782-14.01-13.015-21.555c-3.234-7.544-5.389-14.674-6.218-23.211
		c-0.829-8.538-0.333-18.486,0.331-25.948c0.664-7.46,1.492-12.434,3.648-18.401c2.155-5.971,5.637-12.933,9.696-18.653
		c4.063-5.719,8.707-10.196,12.271-13.843c3.563-3.647,6.052-6.467,7.377-9.534c1.325-3.065,1.491-6.384,1.077-10.445
		c-0.414-4.063-1.408-8.87-3.314-12.351c-1.907-3.482-4.727-5.639-6.632-6.135c-1.906-0.498-2.902,0.664-4.975,6.051
		c-2.072,5.388-5.224,15.004-10.029,25.697c-4.811,10.692-11.276,22.466-20.101,35.729c-8.827,13.264-20.013,28.02-29.085,38.466
		c-9.073,10.449-16.033,16.591-25.243,22.32c-9.21,5.73-20.673,11.055-33.159,14.636s-25.995,5.425-36.024,6.55
		c-10.029,1.126-16.58,1.535-22.004,3.582c-5.424,2.047-9.723,5.73-18.511,2.257c24.173-29.409,34.447-36.058,40.456-39.783
		c6.01-3.727,7.756-4.532,8.36-5.475c0.604-0.938,0.067-2.013-1.746-2.685c-1.813-0.673-4.902-0.941-7.789-1.613
		c-2.887-0.67-5.574-1.745-6.782-3.624c-1.209-1.881-0.94-4.565,1.41-8.528c2.351-3.963,6.782-9.198,11.684-15.847
		c4.902-6.647,10.273-14.705,15.981-21.42c5.707-6.714,11.751-12.087,17.392-16.315c5.639-4.229,10.877-7.318,13.093-9.603
		c2.216-2.282,1.411-3.76-1.276-4.632c-2.686-0.874-7.252-1.145-12.826-1.346c-5.572-0.199-12.152-0.334-18.733-2.35
		c-6.58-2.014-13.161-5.908-19.003-10.139c-5.841-4.23-10.945-8.797-14.37-13.16c-3.423-4.365-5.17-8.527-5.036-10.945
		c0.135-2.418,2.148-3.089,5.305-3.021c3.156,0.066,7.453,0.873,12.623,0.873c5.171,0,11.214-0.807,17.123-2.215
		c5.909-1.41,11.684-3.426,16.988-6.043c5.305-2.621,10.139-5.844,14.772-8.192c4.633-2.351,9.064-3.828,13.899-5.642
		c4.835-1.812,10.072-3.961,15.31-5.506c5.237-1.545,10.475-2.484,15.847-3.224c5.372-0.737,10.877-1.274,13.764-2.753
		c2.888-1.477,3.157-3.895,1.813-7.318c-1.344-3.423-4.297-7.855-10.61-14.906c-6.312-7.05-15.98-16.721-26.321-27.33
		s-21.353-22.158-31.593-33.774c-10.24-11.616-19.708-23.3-22.528-24.508c-7.79,0.133-15.578,0.269-23.367,0.402
		c-16.831,15.86-30.476,39.74-42.101,61.535c-11.624,21.795-21.226,41.506-29.439,60.963c-8.212,19.457-15.035,38.664-19.962,54.836
		c-4.929,16.174-7.96,29.313-10.866,44.979c-2.906,15.668-5.686,33.861-7.076,50.668c-1.39,16.803-1.39,32.218-1.263,43.59
		c0.126,11.371,0.379,18.7-0.158,22.53c-0.536,3.829-1.863,4.161-4.888,4.326c-3.026,0.167-7.751,0.167-22.485-0.828V550h550V0
		H529.709z"/>
	<path fill="#FFFFFF" stroke="#585A5B" stroke-width="1.5" stroke-miterlimit="10" d="M15.787,376.998
		c3.026-2.073,3.855-6.217,5.264-14.342c1.409-8.123,3.399-20.229,7.709-35.147c4.31-14.923,10.942-32.663,18.072-49.077
		c7.128-16.413,14.756-31.5,24.538-49.365c9.782-17.864,21.72-38.506,43.106-65.862c0.996-9.782,1.99-19.564,2.985-29.346
		c-10.943-10.28-32.497-31.998-64.661-65.158c-9.782,0.332-19.564,0.664-29.346,0.995c-4.133,2.905-8.267,5.81-12.4,8.716
		c-0.664,16.082-1.327,32.164-1.99,48.246c33.362,29.513,36.844,32.746,38.252,35.108c1.41,2.362,0.746,3.855-2.291,7.058
		c-3.038,3.204-8.449,8.118-12.179,11.292c-3.729,3.174-5.776,4.607-6.902,7.37c-1.125,2.763-1.33,6.857-1.228,10.951
		c0.103,4.093,0.512,8.187-1.433,12.077c-1.944,3.889-6.243,7.573-23.283,11.872V0v529.709V377.081
		C7.54,379.07,12.761,379.07,15.787,376.998z"/>
	<path fill="#FFFFFF" stroke="#585A5B" stroke-width="1.5" stroke-miterlimit="10" d="M210.513,23.283
		c-3.889,1.945-7.983,1.536-12.076,1.433c-4.094-0.102-8.188,0.103-10.951,1.229c-2.763,1.126-4.196,3.172-7.37,6.902
		c-3.173,3.729-8.088,9.141-11.292,12.179c-3.204,3.037-4.695,3.701-7.058,2.291c-2.362-1.409-5.596-4.89-35.108-38.252
		c-16.083,0.663-32.165,1.326-48.246,1.99c-2.905,4.133-5.811,8.267-8.716,12.4c-0.331,9.782-0.662,19.563-0.994,29.346
		c33.16,32.165,54.878,53.718,65.158,64.661c9.782-0.996,19.563-1.99,29.346-2.985c27.355-21.387,47.998-33.324,65.862-43.106
		c17.865-9.782,32.952-17.408,49.365-24.538c16.413-7.13,34.154-13.762,49.075-18.072c14.922-4.31,27.024-6.3,35.148-7.709
		c8.124-1.409,12.268-2.238,14.34-5.264c2.074-3.026,2.074-8.248,0.084-15.786h152.628H0.001l0,0h222.384
		C218.086,17.041,214.401,21.34,210.513,23.283z"/>
	<path fill="#FFFFFF" stroke="#585A5B" stroke-width="1.5" stroke-miterlimit="10" d="M501.433,501.433
		c15.053-12.635,13.439-30.16,9.547-43.623c-3.895-13.464-10.072-22.863-18.868-32.532c-8.795-9.669-20.211-19.607-27.865-25.181
		c-7.656-5.572-11.55-6.781-13.9-8.527c-2.35-1.746-3.154-4.029-3.355-6.378c-0.202-2.352,0.201-4.769,2.216-5.774
		c2.015-1.009,5.639-0.604,8.729-0.403c3.09,0.202,5.64,0.202,8.326-0.213c2.686-0.416,5.503-1.242,8.653-5.307
		c3.149-4.063,6.632-11.357,9.2-16.662c2.569-5.305,4.229-8.621,7.378-11.025c3.149-2.403,7.793-3.896,12.104-4.145
		c4.312-0.249,8.288,0.746,10.858,0.415s3.73-1.989,3.896-6.383c0.165-4.394-0.663-11.522-3.149-18.404
		c-2.486-6.881-6.632-13.512-12.683-18.981c-6.053-5.474-14.011-9.783-21.556-13.017c-7.542-3.233-14.673-5.389-23.211-6.217
		s-18.486-0.332-25.946,0.332c-7.46,0.663-12.435,1.491-18.402,3.647c-5.97,2.155-12.934,5.637-18.651,9.698
		c-5.721,4.062-10.199,8.705-13.846,12.269c-3.647,3.564-6.467,6.052-9.534,7.377c-3.065,1.326-6.382,1.494-10.443,1.078
		c-4.063-0.416-8.872-1.41-12.353-3.315c-3.481-1.908-5.638-4.726-6.134-6.632c-0.498-1.907,0.662-2.901,6.051-4.975
		c5.39-2.072,15.005-5.224,25.697-10.031c10.694-4.809,22.466-11.273,35.729-20.1c13.264-8.827,28.02-20.013,38.469-29.085
		c10.447-9.073,16.588-16.032,22.318-25.243c5.731-9.211,11.054-20.674,14.636-33.16c3.581-12.485,5.424-25.995,6.551-36.024
		c1.125-10.029,1.534-16.58,3.581-22.003c2.046-5.424,5.729-9.723,2.257-18.511c-29.407,24.173-36.059,34.447-39.783,40.456
		c-3.728,6.01-4.533,7.756-5.474,8.36c-0.939,0.604-2.014,0.068-2.687-1.746c-0.671-1.813-0.94-4.902-1.611-7.789
		c-0.671-2.887-1.746-5.574-3.625-6.782c-1.881-1.208-4.566-0.939-8.527,1.41c-3.963,2.351-9.199,6.782-15.848,11.683
		c-6.648,4.902-14.705,10.274-21.42,15.981c-6.714,5.707-12.086,11.751-16.316,17.391c-4.229,5.641-7.318,10.878-9.601,13.094
		c-2.284,2.216-3.76,1.411-4.634-1.275c-0.872-2.687-1.143-7.252-1.342-12.825c-0.202-5.573-0.339-12.153-2.352-18.733
		c-2.015-6.581-5.91-13.161-10.14-19.003c-4.23-5.843-8.797-10.945-13.161-14.37c-4.364-3.425-8.527-5.17-10.944-5.036
		c-2.417,0.135-3.09,2.149-3.021,5.305c0.066,3.156,0.872,7.454,0.872,12.623c0,5.171-0.806,11.214-2.216,17.124
		c-1.408,5.909-3.424,11.683-6.044,16.988c-2.618,5.305-5.842,10.139-8.191,14.772c-2.352,4.633-3.825,9.065-5.64,13.899
		c-1.813,4.835-3.962,10.072-5.506,15.31c-1.546,5.238-2.485,10.475-3.224,15.846c-0.738,5.373-1.276,10.878-2.753,13.766
		s-3.895,3.156-7.318,1.813c-3.425-1.342-7.857-4.298-14.908-10.609c-7.049-6.312-16.719-15.98-27.329-26.322
		c-10.608-10.34-22.158-21.352-33.774-31.592c-11.616-10.24-23.3-19.708-24.509-22.528c0.134-7.789,0.269-15.578,0.403-23.367
		c15.86-16.831,39.739-30.476,61.535-42.1c21.796-11.625,41.505-21.227,60.963-29.44c19.459-8.212,38.664-15.036,54.836-19.962
		c16.173-4.928,29.313-7.96,44.979-10.867c15.666-2.906,33.86-5.685,50.666-7.075c16.804-1.39,32.218-1.39,43.591-1.264
		c11.372,0.127,18.699,0.379,22.53-0.157c3.83-0.538,4.161-1.864,4.327-4.889c0.165-3.026,0.165-7.751-0.828-22.484h-152.63
		c1.99,7.538,1.99,12.761-0.083,15.786c-2.073,3.026-6.217,3.855-14.341,5.264c-8.124,1.41-20.229,3.399-35.148,7.709
		s-32.662,10.942-49.074,18.072c-16.414,7.129-31.5,14.756-49.366,24.538c-17.864,9.782-38.506,21.72-65.861,43.106
		c-9.782,0.996-19.564,1.99-29.346,2.985c-10.28-10.943-31.998-32.496-65.157-64.661c0.332-9.782,0.664-19.564,0.994-29.346
		c2.906-4.134,5.811-8.267,8.716-12.401c16.082-0.664,32.164-1.327,48.246-1.989c29.513,33.362,32.746,36.845,35.108,38.252
		c2.362,1.41,3.854,0.746,7.058-2.291c3.203-3.038,8.118-8.449,11.292-12.179c3.174-3.729,4.607-5.775,7.37-6.902
		c2.763-1.126,6.857-1.331,10.951-1.229c4.093,0.103,8.187,0.512,12.076-1.433c3.89-1.944,7.573-6.243,11.872-23.283H0.001v222.384
		c17.041-4.299,21.339-7.982,23.283-11.872c1.945-3.889,1.536-7.983,1.433-12.077c-0.102-4.094,0.103-8.188,1.228-10.951
		c1.126-2.763,3.173-4.196,6.902-7.37c3.729-3.173,9.141-8.088,12.179-11.292c3.037-3.202,3.701-4.695,2.291-7.058
		c-1.409-2.362-4.891-5.596-38.252-35.108c0.663-16.082,1.326-32.164,1.99-48.246c4.133-2.906,8.267-5.811,12.4-8.715
		c9.782-0.332,19.564-0.663,29.346-0.995c32.164,33.159,53.717,54.878,64.661,65.157c-0.996,9.782-1.99,19.563-2.985,29.346
		c-21.386,27.356-33.324,47.998-43.106,65.862c-9.782,17.865-17.409,32.952-24.538,49.364c-7.13,16.416-13.762,34.154-18.072,49.078
		c-4.31,14.922-6.3,27.023-7.709,35.147c-1.409,8.124-2.238,12.269-5.264,14.341s-8.248,2.072-15.786,0.083v152.628
		c14.733,0.994,19.459,0.994,22.485,0.828c3.025-0.165,4.352-0.496,4.888-4.326c0.537-3.83,0.284-11.158,0.158-22.529
		c-0.127-11.372-0.127-26.786,1.264-43.591c1.39-16.806,4.169-34.999,7.075-50.667c2.907-15.666,5.938-28.807,10.866-44.979
		c4.927-16.173,11.75-35.378,19.962-54.834c8.213-19.458,17.816-39.171,29.44-60.965c11.625-21.795,25.269-45.675,42.1-61.535
		c7.789-0.134,15.577-0.269,23.367-0.402c2.82,1.208,12.288,12.892,22.528,24.509c10.24,11.616,21.252,23.165,31.593,33.774
		c10.34,10.609,20.009,20.278,26.32,27.329c6.313,7.051,9.267,11.482,10.61,14.906c1.343,3.426,1.075,5.842-1.813,7.318
		c-2.887,1.479-8.393,2.016-13.764,2.754c-5.372,0.738-10.61,1.68-15.847,3.223c-5.238,1.545-10.475,3.695-15.31,5.508
		c-4.834,1.813-9.266,3.291-13.899,5.641c-4.633,2.35-9.468,5.571-14.772,8.191c-5.305,2.617-11.079,4.633-16.988,6.042
		c-5.909,1.409-11.952,2.217-17.123,2.217c-5.17,0-9.467-0.808-12.623-0.873c-3.156-0.065-5.17,0.604-5.305,3.022
		c-0.134,2.416,1.612,6.58,5.036,10.943c3.425,4.365,8.529,8.93,14.37,13.16c5.842,4.23,12.423,8.125,19.003,10.139
		c6.581,2.015,13.161,2.149,18.733,2.351c5.574,0.202,10.14,0.471,12.826,1.345c2.687,0.871,3.492,2.35,1.276,4.633
		c-2.216,2.282-7.454,5.372-13.093,9.602c-5.641,4.229-11.685,9.603-17.392,16.315c-5.708,6.716-11.079,14.772-15.981,21.42
		c-4.901,6.647-9.333,11.886-11.684,15.848c-2.35,3.962-2.619,6.647-1.41,8.527c1.208,1.88,3.895,2.953,6.782,3.624
		c2.887,0.673,5.976,0.941,7.789,1.613c1.813,0.671,2.349,1.745,1.746,2.687c-0.604,0.939-2.351,1.747-8.36,5.473
		c-6.009,3.727-16.283,10.373-40.456,39.784c8.789,3.474,13.087-0.21,18.511-2.257c5.424-2.048,11.975-2.456,22.004-3.583
		c10.029-1.124,23.538-2.969,36.024-6.55s23.949-8.902,33.159-14.636c9.211-5.729,16.17-11.871,25.243-22.318
		c9.073-10.448,20.258-25.204,29.085-38.468c8.825-13.265,15.292-25.036,20.1-35.729c4.808-10.693,7.959-20.312,10.03-25.698
		s3.067-6.548,4.975-6.052c1.905,0.499,4.725,2.653,6.632,6.136c1.906,3.48,2.9,8.289,3.314,12.352
		c0.414,4.062,0.248,7.377-1.078,10.444c-1.323,3.067-3.813,5.886-7.376,9.534c-3.563,3.646-8.206,8.123-12.271,13.844
		c-4.061,5.721-7.541,12.683-9.697,18.652c-2.156,5.968-2.984,10.94-3.648,18.402c-0.663,7.462-1.159,17.409-0.33,25.946
		c0.828,8.538,2.982,15.668,6.218,23.212c3.231,7.545,7.543,15.502,13.015,21.556c5.472,6.05,12.104,10.195,18.981,12.682
		c6.883,2.487,14.01,3.316,18.405,3.15c4.393-0.165,6.05-1.326,6.384-3.896c0.33-2.57-0.665-6.548-0.416-10.857
		c0.248-4.313,1.74-8.953,4.145-12.104c2.403-3.15,5.721-4.808,11.026-7.378c5.304-2.569,12.599-6.052,16.661-9.201
		s4.891-5.968,5.306-8.653c0.414-2.687,0.414-5.236,0.213-8.325c-0.201-3.09-0.604-6.715,0.403-8.729
		c1.007-2.014,3.425-2.416,5.774-2.214c2.35,0.2,4.634,1.006,6.379,3.356c1.746,2.351,2.955,6.244,8.526,13.897
		c5.573,7.656,15.511,19.07,25.182,27.867c9.669,8.795,19.067,14.975,32.532,18.868
		C471.272,514.873,488.797,516.484,501.433,501.433"/>
</g>
</svg>
