<?xml version="1.0" encoding="utf-8"?>
<!-- Generator: Adobe Illustrator 16.0.0, SVG Export Plug-In . SVG Version: 6.00 Build 0)  -->
<!DOCTYPE svg PUBLIC "-//W3C//DTD SVG 1.1//EN" "http://www.w3.org/Graphics/SVG/1.1/DTD/svg11.dtd" [
	<!ENTITY ns_flows "http://ns.adobe.com/Flows/1.0/">
	<!ENTITY ns_extend "http://ns.adobe.com/Extensibility/1.0/">
	<!ENTITY ns_ai "http://ns.adobe.com/AdobeIllustrator/10.0/">
	<!ENTITY ns_graphs "http://ns.adobe.com/Graphs/1.0/">
]>
<svg version="1.1" id="Layer_1" xmlns:x="&ns_extend;" xmlns:i="&ns_ai;" xmlns:graph="&ns_graphs;"
	 xmlns="http://www.w3.org/2000/svg" xmlns:xlink="http://www.w3.org/1999/xlink" xmlns:a="http://ns.adobe.com/AdobeSVGViewerExtensions/3.0/"
	 x="0px" y="0px" width="550px" height="550px" viewBox="0 0 550 550" enable-background="new 0 0 550 550" xml:space="preserve">
<g>
	<path fill="#FFFFFF" stroke="#58595B" stroke-width="1.5" stroke-miterlimit="10" d="M134.239,550c0-107.202,0-214.406,0-321.608
		c2.889-1.013,7.833-4.211,13.212-8.137c5.38-3.927,11.196-8.58,16.722-13.232c5.525-4.653,10.76-9.307,21.861-20.988
		c11.682-11.101,16.335-16.335,20.988-21.861c4.652-5.525,9.305-11.341,13.231-16.721c3.926-5.381,7.125-10.323,8.137-13.211
		c107.203,0,214.406,0,321.608,0v31.053c-102.691,0-205.385,0-308.077,0c-4.24,6.124-7.774,12.248-10.639,16.88
		c-2.865,4.632-5.064,7.774-8.047,11.463c-2.983,3.69-6.752,7.93-14.445,15.152c-7.221,7.692-11.461,11.461-15.151,14.446
		c-3.69,2.984-6.831,5.182-11.463,8.048c-4.633,2.865-10.757,6.398-16.882,10.638c0,102.691,0,205.385,0,308.078L134.239,550
		L134.239,550L134.239,550z"/>
	<path fill="#FFFFFF" stroke="#58595B" stroke-width="1.5" stroke-miterlimit="10" d="M455.019,484.128
		c-5.185,7.067-5.653,12.484-5.731,16.999c-0.079,4.514,0.235,8.126,0.863,10.795c0.63,2.67,1.569,4.397,3.77,5.496
		c2.198,1.1,5.652,1.571,9.578,1.179s8.321-1.647,12.641-3.926c4.318-2.277,8.559-5.575,20.052-18.48
		c12.905-11.492,16.202-15.732,18.48-20.052c2.277-4.318,3.533-8.716,3.926-12.641c0.394-3.926-0.077-7.38-1.179-9.578
		c-1.099-2.199-2.826-3.14-5.496-3.769c-2.67-0.63-6.281-0.943-10.795-0.864c-4.515,0.078-9.933,0.548-16.999,5.73
		c-4.694,5.008-9.39,10.017-14.085,15.023C465.033,474.739,460.025,479.434,455.019,484.128z"/>
	<path fill="#FFFFFF" stroke="#58595B" stroke-width="1.5" stroke-miterlimit="10" d="M57.114,57.114
		c3.428,0.191,6.544,2.014,10.77,3.528c4.226,1.514,9.563,2.721,13.261,3.273c3.698,0.551,5.76,0.448,8.721-0.299
		c2.963-0.747,6.826-2.138,18.262-4.61c-3.091,8.036-4.327,12.828-4.842,17.438c-0.515,4.61-0.31,9.041,0.064,12.471
		c0.374,3.43,0.914,5.861,1.431,7.679c0.518,1.818,1.01,3.022,1.744,4.61c0.735,1.588,1.71,3.56,2.51,7.829
		c-4.269-0.8-6.241-1.775-7.829-2.51c-1.588-0.734-2.792-1.227-4.61-1.744c-1.818-0.517-4.248-1.057-7.68-1.43
		c-3.43-0.374-7.861-0.581-12.471-0.064c-4.61,0.515-9.402,1.751-17.438,4.842c2.473-11.436,3.864-15.3,4.61-18.262
		c0.746-2.962,0.85-5.022,0.299-8.722c-0.552-3.698-1.759-9.035-3.273-13.261C59.126,63.659,57.305,60.543,57.114,57.114z"/>
	<path fill="#FFFFFF" stroke="#58595B" stroke-width="1.5" stroke-miterlimit="10" d="M302.256,0.002
		c-0.926,11.205-4.018,20.941-6.799,27.818c-2.783,6.878-5.256,10.896-8.424,15.918c-3.168,5.021-7.031,11.05-13.213,13.831
		c0,10.263,0,20.524,0,30.788c-88.858,0-91.184,0.29-92.541,1.211s-1.745,2.472-2.424,4.798c-0.678,2.326-1.647,5.428-3.295,9.208
		c-1.648,3.78-3.974,8.24-8.191,14.977c-4.216,6.737-10.323,15.752-20.067,28.751c-13,9.743-22.014,15.85-28.751,20.067
		c-6.737,4.216-11.196,6.542-14.976,8.19c-3.781,1.648-6.882,2.618-9.208,3.295c-2.326,0.68-3.878,1.066-4.798,2.424
		c-0.921,1.357-1.211,3.683-1.211,92.542c-10.262,0-20.524,0-30.786,0c-2.782,6.181-8.809,10.044-13.832,13.212
		c-5.022,3.168-9.041,5.641-15.918,8.424c-6.877,2.781-16.613,5.873-27.818,6.799v-33.156c4.66,0,10.614-1.348,15.083-2.649
		c4.469-1.302,7.453-2.558,11.536-5.424c4.082-2.866,9.265-7.341,12.563-13.936c5.29,0,10.58,0,15.869,0
		c0-73.37,0-75.533,1.186-76.976c1.185-1.442,3.554-2.163,6.21-3.121c2.655-0.957,5.598-2.15,10.3-4.303s11.165-5.264,18.344-9.333
		c7.18-4.069,15.079-9.095,35.56-26.706c17.61-20.481,22.636-28.379,26.706-35.56c4.068-7.18,7.18-13.642,9.332-18.344
		c2.153-4.702,3.347-7.645,4.304-10.301c0.958-2.656,1.678-5.025,3.121-6.21c1.442-1.186,3.606-1.186,76.975-1.186
		c0-5.29,0-10.581,0-15.868c6.595-3.297,11.071-8.48,13.937-12.563c2.866-4.083,4.122-7.066,5.424-11.536
		c1.302-4.469,2.647-10.424,2.647-15.083L302.256,0.002L302.256,0.002z"/>
	<polygon fill="#FFFFFF" stroke="#58595B" stroke-width="1.5" stroke-miterlimit="10" points="486.679,550 486.679,520.862 
		482.577,510.203 510.201,482.58 520.859,486.681 549.997,486.681 549.997,550 	"/>
	<path fill="#FFFFFF" stroke="#58595B" stroke-width="1.5" stroke-miterlimit="10" d="M0.002,47.842
		c4.157-5.006,5.909-5.131,7.912-5.152c2.004-0.021,4.256,0.063,6.969-0.647c2.712-0.709,5.883-2.211,8.373-3.812
		c2.488-1.6,4.295-3.299,7.663-7.313c4.014-3.368,5.713-5.174,7.313-7.664c1.6-2.489,3.102-5.66,3.812-8.372
		c0.709-2.712,0.625-4.965,0.647-6.968c0.021-2.003,0.146-3.755,5.152-7.913H0.002V47.842z"/>
	
		<rect x="516.585" y="516.587" fill="#FFFFFF" stroke="#58595B" stroke-width="1.5" stroke-miterlimit="10" width="33.412" height="33.412"/>
	<path fill="#FFFFFF" stroke="#58595B" stroke-width="1.5" stroke-miterlimit="10" d="M484.126,455.02
		c-8.951-5.184-12.955-12.72-15.271-19.157c-2.316-6.438-2.944-11.778-3.103-16.41s0.157-8.56,1.729-13.978
		c1.569-5.417,4.396-12.326,8.009-18.528c3.611-6.204,8.008-11.7,11.934-15.783c3.928-4.083,7.381-6.753,10.522-9.736
		c3.141-2.982,5.967-6.281,8.32-9.265c2.356-2.983,4.24-5.652,5.575-9.029c1.335-3.378,2.121-7.459,2.199-12.327
		c0.079-4.869-0.549-10.521-1.413-16.018s-1.963-10.836-2.67-15.861c-0.708-5.023-1.021-9.734-1.099-13.426
		c-0.079-3.691,0.078-6.361,1.099-8.637c1.021-2.277,2.906-4.162,5.183-5.417c2.277-1.255,4.946-1.884,7.066-1.648
		s3.689,1.334,5.26,1.728c1.571,0.393,3.143,0.078,4.633-1.021c1.492-1.099,2.905-2.983,3.297-5.26
		c0.394-2.277-0.234-4.947-1.569-7.617c-1.334-2.67-3.375-5.339-6.595-7.93c-3.221-2.591-7.616-5.104-12.328-7.145
		c-4.709-2.042-9.735-3.612-15.075-4.005c-5.338-0.392-10.991,0.393-16.958,1.571c-5.967,1.178-12.248,2.749-18.373,5.339
		c-6.123,2.591-12.091,6.203-17.194,10.835c-5.103,4.633-9.343,10.287-12.563,15.625c-3.219,5.337-5.417,10.364-7.616,16.644
		c-2.198,6.283-4.396,13.819-5.888,20.414c-1.492,6.598-2.277,12.25-2.749,19.002s-0.628,14.604-0.313,22.22
		c0.313,7.616,1.101,14.997,2.787,22.927c1.688,7.932,4.279,16.411,8.99,35.726c-9.893-6.596-16.725-14.604-22.615-21.766
		c-5.892-7.159-10.843-13.476-16.07-20.698c-5.229-7.226-10.731-15.363-15.162-23.859c-4.426-8.496-7.776-17.354-9.452-24.771
		c-1.677-7.418-1.677-13.402-0.718-19.746c0.956-6.343,2.872-13.043,6.319-19.004c3.447-5.958,8.429-11.176,22.547-24.149
		c-4.96-3.434-10.112-6.487-14.214-8.522s-7.154-3.052-10.907-3.562c-3.752-0.509-8.204-0.508-11.766-0.254
		c-3.563,0.254-6.233,0.764-9.095,2.036c-2.86,1.271-5.915,3.307-8.459,6.105c-2.544,2.797-4.578,6.36-6.019,9.29
		c-1.438,2.93-2.283,5.229-3.063,7.615c-0.78,2.388-1.498,4.863-1.823,6.777c-0.326,1.914-0.258,3.265-0.494,4.042
		c-0.237,0.776-0.778,0.979-1.387,0.979c-0.609,0-1.283-0.203-2.067-1.108c-0.784-0.906-1.674-2.518-3.328-4.339
		c-1.652-1.822-4.067-3.857-6.231-5.32c-2.162-1.461-4.07-2.353-6.741-3.117c-2.672-0.763-6.105-1.398-9.794-2.035
		c-3.689-0.635-7.632-1.272-11.702-1.653c-4.069-0.382-8.269-0.508-11.936-1.274c-3.667-0.765-6.803-2.169-9.555-3.716
		c-2.751-1.547-5.118-3.237-7.427-4.804c-2.31-1.567-4.563-3.012-9.793-2.996c-0.016,5.232,1.429,7.484,2.996,9.793
		c1.568,2.309,3.258,4.675,4.804,7.427c1.547,2.751,2.951,5.889,3.717,9.556c0.766,3.667,0.893,7.863,1.274,11.935
		s1.018,8.013,1.653,11.702c0.636,3.688,1.272,7.123,2.035,9.794c0.764,2.672,1.653,4.58,3.118,6.742
		c1.463,2.162,3.498,4.579,5.319,6.231c1.822,1.653,3.433,2.543,4.337,3.328c0.906,0.783,1.109,1.459,1.109,2.065
		c0,0.61-0.203,1.149-0.979,1.388c-0.777,0.236-2.131,0.168-4.043,0.494c-1.914,0.325-4.39,1.043-6.777,1.825
		c-2.387,0.78-4.686,1.623-7.614,3.062c-2.929,1.439-6.492,3.475-9.29,6.019c-2.799,2.545-4.833,5.598-6.105,8.459
		c-1.271,2.86-1.78,5.532-2.035,9.095s-0.254,8.014,0.254,11.768c0.508,3.752,1.526,6.805,3.561,10.906
		c2.036,4.103,5.088,9.253,8.523,14.213c12.975-14.119,18.191-19.101,24.15-22.547c5.958-3.447,12.66-5.361,19.002-6.318
		c6.343-0.959,12.327-0.959,19.747,0.717c7.419,1.677,16.275,5.027,24.772,9.455c8.496,4.427,16.634,9.932,23.858,15.16
		c7.226,5.229,13.538,10.18,20.698,16.069c7.161,5.893,15.169,12.725,21.765,22.616c-19.313-4.71-27.794-7.301-35.724-8.989
		c-7.931-1.688-15.311-2.474-22.927-2.788c-7.617-0.313-15.468-0.156-22.221,0.314c-6.752,0.47-12.404,1.256-19.001,2.748
		c-6.596,1.491-14.134,3.689-20.415,5.887c-6.281,2.2-11.306,4.397-16.644,7.617c-5.339,3.22-10.993,7.459-15.625,12.563
		c-4.632,5.104-8.244,11.071-10.835,17.194c-2.59,6.125-4.161,12.406-5.338,18.373c-1.178,5.967-1.962,11.621-1.571,16.959
		c0.393,5.339,1.962,10.365,4.004,15.074c2.041,4.712,4.553,9.107,7.145,12.328c2.592,3.219,5.26,5.261,7.93,6.596
		c2.669,1.334,5.339,1.962,7.617,1.569c2.276-0.393,4.162-1.807,5.26-3.298c1.099-1.49,1.414-3.062,1.021-4.632
		c-0.393-1.569-1.491-3.141-1.727-5.261c-0.236-2.121,0.393-4.791,1.648-7.065c1.256-2.275,3.141-4.161,5.418-5.184
		c2.274-1.021,4.944-1.178,8.634-1.099c3.689,0.077,8.402,0.392,13.427,1.099c5.025,0.707,10.366,1.807,15.861,2.67
		c5.496,0.864,11.148,1.492,16.018,1.413c4.868-0.078,8.95-0.864,12.327-2.198c3.375-1.336,6.045-3.22,9.029-5.574
		c2.984-2.355,6.282-5.184,9.265-8.322c2.983-3.141,5.653-6.596,9.736-10.521c4.083-3.928,9.579-8.323,15.783-11.936
		c6.202-3.611,13.11-6.438,18.528-8.009s9.345-1.885,13.977-1.729c4.632,0.157,9.972,0.786,16.41,3.103
		c6.438,2.315,13.976,6.32,19.158,15.271L484.126,455.02z"/>
	<path fill="#FFFFFF" stroke="#58595B" stroke-width="1.5" stroke-miterlimit="10" d="M302.256,0.002
		c-0.926,11.206-4.018,20.942-6.799,27.819c-2.783,6.878-5.256,10.895-8.424,15.918c-3.168,5.022-7.031,11.05-13.213,13.832
		c0,10.262,0,20.523,0,30.787c-88.858,0-91.184,0.291-92.541,1.211s-1.745,2.472-2.424,4.797c-0.678,2.326-1.647,5.429-3.295,9.208
		c-1.648,3.78-3.974,8.24-8.191,14.978c-4.216,6.737-10.323,15.751-20.067,28.751c-13,9.743-22.014,15.85-28.751,20.068
		c-6.737,4.217-11.196,6.543-14.976,8.19c-3.781,1.647-6.882,2.618-9.208,3.295c-2.326,0.679-3.878,1.066-4.798,2.424
		c-0.921,1.356-1.211,3.684-1.211,92.542c-10.262,0-20.524,0-30.786,0c-2.782,6.181-8.809,10.042-13.832,13.212
		c-5.022,3.168-9.041,5.64-15.918,8.424c-6.877,2.781-16.613,5.872-27.818,6.8v247.741h134.238c0-107.202,0-214.406,0-321.608
		c2.888-1.013,7.833-4.211,13.211-8.137c5.38-3.927,11.196-8.58,16.722-13.232c5.525-4.653,10.76-9.308,21.861-20.988
		c11.682-11.101,16.335-16.336,20.988-21.861c4.652-5.525,9.305-11.341,13.231-16.72c3.926-5.381,7.125-10.324,8.137-13.211
		c107.203,0,214.406,0,321.608,0V0.002H302.256z"/>
	<path fill="#FFFFFF" stroke="#58595B" stroke-width="1.5" stroke-miterlimit="10" d="M241.92,165.293
		c-4.24,6.124-7.773,12.248-10.639,16.881c-2.866,4.632-5.064,7.773-8.047,11.463c-2.984,3.69-6.752,7.93-14.446,15.151
		c-7.221,7.693-11.461,11.461-15.151,14.447c-3.69,2.983-6.831,5.183-11.463,8.047c-4.633,2.865-10.757,6.398-16.882,10.639
		c0,102.691,0,205.386,0,308.078h321.386v-29.137l-4.102-10.659l0.009-0.009c-2.577,2.219-4.507,3.453-6.448,4.477
		c-4.318,2.277-8.715,3.533-12.641,3.927c-3.926,0.393-7.38-0.079-9.578-1.18c-2.199-1.099-3.14-2.826-3.77-5.496
		c-0.628-2.669-0.942-6.281-0.863-10.795c0.078-4.515,0.548-9.932,5.73-16.999c-5.184-8.951-12.72-12.955-19.157-15.271
		c-6.438-2.316-11.778-2.944-16.41-3.103s-8.559,0.157-13.977,1.729c-5.418,1.57-12.326,4.396-18.528,8.009
		c-6.204,3.612-11.7,8.008-15.783,11.935c-4.083,3.928-6.753,7.38-9.736,10.521c-2.982,3.141-6.281,5.967-9.265,8.322
		c-2.984,2.354-5.653,4.238-9.029,5.573c-3.378,1.335-7.459,2.121-12.327,2.199c-4.869,0.079-10.521-0.549-16.019-1.413
		c-5.495-0.863-10.835-1.963-15.86-2.67c-5.024-0.708-9.735-1.021-13.426-1.099c-3.69-0.079-6.36,0.077-8.637,1.099
		c-2.277,1.021-4.162,2.906-5.417,5.183c-1.256,2.277-1.885,4.946-1.649,7.066c0.236,2.12,1.336,3.69,1.728,5.261
		c0.394,1.57,0.08,3.142-1.021,4.632c-1.101,1.492-2.983,2.905-5.26,3.298c-2.277,0.393-4.947-0.235-7.617-1.569
		c-2.669-1.335-5.338-3.376-7.93-6.596c-2.591-3.222-5.104-7.616-7.146-12.328c-2.042-4.709-3.612-9.735-4.004-15.075
		c-0.392-5.338,0.393-10.991,1.57-16.958c1.178-5.967,2.749-12.248,5.339-18.373c2.591-6.123,6.203-12.091,10.835-17.194
		c4.632-5.103,10.286-9.343,15.625-12.563c5.338-3.22,10.364-5.417,16.644-7.616c6.281-2.198,13.819-4.396,20.414-5.888
		c6.598-1.492,12.249-2.277,19.001-2.749c6.754-0.472,14.604-0.628,22.221-0.313c7.617,0.313,14.996,1.101,22.928,2.788
		c7.93,1.688,16.41,4.278,35.724,8.99c-6.596-9.894-14.604-16.727-21.765-22.617c-7.16-5.892-13.474-10.843-20.698-16.07
		c-7.226-5.229-15.362-10.731-23.858-15.161c-8.498-4.427-17.354-7.777-24.772-9.453s-13.402-1.676-19.747-0.717
		c-6.343,0.957-13.043,2.871-19.002,6.318c-5.959,3.448-11.177,8.428-24.15,22.547c-3.434-4.96-6.487-10.111-8.522-14.214
		s-3.052-7.153-3.561-10.905c-0.51-3.755-0.509-8.205-0.254-11.768c0.254-3.561,0.764-6.232,2.036-9.096
		c1.271-2.86,3.307-5.914,6.105-8.459c2.797-2.543,6.36-4.578,9.29-6.018c2.93-1.438,5.228-2.281,7.616-3.063
		c2.387-0.78,4.861-1.498,6.775-1.824c1.915-0.326,3.266-0.258,4.045-0.494c0.774-0.236,0.978-0.777,0.978-1.387
		c0-0.608-0.203-1.283-1.11-2.068c-0.904-0.783-2.516-1.673-4.337-3.327c-1.821-1.651-3.858-4.069-5.321-6.231
		c-1.462-2.161-2.352-4.069-3.116-6.741c-0.764-2.671-1.398-6.104-2.035-9.794c-0.635-3.689-1.272-7.633-1.653-11.702
		c-0.382-4.069-0.508-8.269-1.274-11.937c-0.765-3.667-2.169-6.803-3.716-9.554c-1.546-2.752-3.236-5.117-4.804-7.427
		c-1.567-2.31-3.011-4.563-2.996-9.794c5.231-0.016,7.483,1.43,9.793,2.997c2.309,1.568,4.675,3.258,7.427,4.804
		c2.75,1.547,5.889,2.951,9.556,3.717c3.665,0.765,7.864,0.893,11.936,1.273c4.069,0.381,8.013,1.018,11.701,1.653
		c3.688,0.636,7.122,1.272,9.794,2.036c2.671,0.763,4.58,1.653,6.741,3.115c2.163,1.464,4.579,3.499,6.231,5.321
		c1.654,1.822,2.544,3.433,3.328,4.339s1.459,1.109,2.067,1.109c0.607,0,1.148-0.203,1.387-0.979
		c0.236-0.779,0.168-2.131,0.494-4.043c0.325-1.914,1.043-4.39,1.823-6.776c0.78-2.388,1.625-4.686,3.063-7.615
		c1.439-2.93,3.475-6.492,6.019-9.289c2.544-2.799,5.599-4.833,8.459-6.106c2.86-1.271,5.532-1.78,9.095-2.036
		c3.562-0.254,8.014-0.254,11.766,0.255c3.753,0.509,6.808,1.526,10.907,3.561c4.104,2.035,9.254,5.088,14.214,8.523
		c-14.119,12.973-19.101,18.19-22.547,24.15c-3.447,5.958-5.362,12.66-6.319,19.002c-0.958,6.344-0.958,12.328,0.717,19.747
		c1.678,7.419,5.027,16.275,9.455,24.771c4.428,8.498,9.932,16.636,15.16,23.861c5.229,7.223,10.181,13.537,16.07,20.697
		c5.892,7.161,12.724,15.17,22.615,21.765c-4.71-19.313-7.302-27.794-8.989-35.725s-2.475-15.31-2.788-22.927
		c-0.313-7.616-0.157-15.467,0.313-22.221c0.472-6.752,1.257-12.403,2.749-19.002c1.491-6.594,3.689-14.131,5.887-20.414
		c2.2-6.28,4.397-11.305,7.617-16.643c3.221-5.338,7.46-10.993,12.563-15.625c5.104-4.631,11.07-8.244,17.194-10.834
		c6.125-2.591,12.406-4.161,18.373-5.34c5.967-1.178,11.621-1.962,16.958-1.57c5.34,0.393,10.366,1.962,15.075,4.005
		c4.712,2.042,9.107,4.553,12.328,7.144c3.219,2.592,5.261,5.261,6.595,7.931c1.335,2.669,1.963,5.338,1.57,7.616
		c-0.393,2.277-1.807,4.162-3.298,5.261c-1.49,1.101-3.062,1.414-4.633,1.021c-1.568-0.392-3.14-1.49-5.26-1.726
		c-2.121-0.237-4.791,0.392-7.066,1.648c-2.274,1.256-4.161,3.14-5.183,5.417c-1.021,2.277-1.178,4.947-1.099,8.636
		c0.077,3.69,0.391,8.401,1.099,13.427c0.707,5.025,1.806,10.364,2.67,15.861c0.864,5.495,1.492,11.148,1.413,16.018
		c-0.078,4.868-0.864,8.95-2.199,12.327c-1.335,3.375-3.219,6.046-5.573,9.029c-2.355,2.983-5.184,6.282-8.322,9.265
		c-3.142,2.983-6.596,5.653-10.522,9.736c-3.926,4.082-8.321,9.579-11.934,15.783c-3.612,6.202-6.438,13.11-8.009,18.528
		c-1.571,5.418-1.886,9.346-1.729,13.978s0.786,9.972,3.103,16.41c2.315,6.438,6.319,13.975,15.271,19.157
		c7.066-5.184,12.483-5.652,16.999-5.73c4.514-0.079,8.125,0.235,10.795,0.863c2.67,0.63,4.397,1.569,5.496,3.771
		c1.1,2.197,1.571,5.651,1.179,9.577s-1.647,8.321-3.926,12.641c-1.023,1.942-2.259,3.871-4.476,6.449l0.008-0.009l10.658,4.101
		h29.138V165.299C447.306,165.293,344.612,165.293,241.92,165.293z"/>
	<path fill="#FFFFFF" stroke="#58595B" stroke-width="1.5" stroke-miterlimit="10" d="M167.215,0.002l-59.088,59.005
		c-3.091,8.035-4.327,12.829-4.842,17.438c-0.515,4.61-0.31,9.04,0.064,12.471c0.374,3.429,0.914,5.86,1.431,7.679
		c0.518,1.817,1.01,3.022,1.744,4.61c0.735,1.588,1.71,3.56,2.51,7.828c-4.269-0.8-6.241-1.775-7.829-2.51
		c-1.588-0.734-2.792-1.227-4.61-1.744c-1.818-0.516-4.248-1.058-7.68-1.432c-3.431-0.374-7.861-0.58-12.471-0.064
		c-4.61,0.516-9.402,1.752-17.438,4.843L0.002,167.216v101.883c4.66,0,10.614-1.347,15.083-2.647
		c4.469-1.301,7.453-2.558,11.536-5.424c4.082-2.866,9.265-7.341,12.563-13.936c5.29,0,10.58,0,15.868,0
		c0-73.37,0-75.533,1.186-76.976c1.185-1.442,3.554-2.163,6.21-3.122c2.655-0.957,5.598-2.151,10.3-4.303
		c4.702-2.154,11.165-5.265,18.344-9.333c7.18-4.069,15.079-9.095,35.56-26.706c17.61-20.48,22.636-28.379,26.706-35.559
		c4.068-7.18,7.18-13.642,9.332-18.344c2.153-4.702,3.347-7.646,4.304-10.299c0.958-2.657,1.678-5.026,3.121-6.211
		c1.442-1.185,3.606-1.185,76.975-1.185c0-5.29,0-10.58,0-15.869c6.595-3.296,11.071-8.479,13.937-12.563
		c2.866-4.083,4.122-7.065,5.424-11.536c1.302-4.47,2.647-10.424,2.647-15.084L167.215,0.002L167.215,0.002z"/>
	<path fill="#FFFFFF" stroke="#58595B" stroke-width="1.5" stroke-miterlimit="10" d="M47.841,0.002
		c-5.006,4.157-5.131,5.91-5.152,7.913c-0.021,2.002,0.063,4.256-0.647,6.969c-0.709,2.711-2.212,5.883-3.812,8.371
		c-1.6,2.49-3.298,4.296-7.313,7.664c-3.368,4.014-5.174,5.713-7.664,7.313c-2.488,1.601-5.66,3.102-8.372,3.813
		c-2.712,0.708-4.965,0.625-6.969,0.646C5.91,42.712,4.157,42.837,0,47.843v119.375l59.004-59.088
		c2.473-11.437,3.864-15.3,4.61-18.262c0.746-2.962,0.85-5.023,0.299-8.722c-0.552-3.698-1.759-9.034-3.273-13.261
		c-1.515-4.225-3.337-7.341-3.528-10.771c3.428,0.191,6.544,2.014,10.77,3.528c4.226,1.515,9.563,2.722,13.261,3.274
		c3.698,0.551,5.76,0.448,8.721-0.3c2.963-0.747,6.826-2.137,18.262-4.61l59.088-59.004H47.841z"/>
</g>
</svg>
