<?xml version="1.0" encoding="utf-8"?>
<!-- Generator: Adobe Illustrator 16.0.0, SVG Export Plug-In . SVG Version: 6.00 Build 0)  -->
<!DOCTYPE svg PUBLIC "-//W3C//DTD SVG 1.1//EN" "http://www.w3.org/Graphics/SVG/1.1/DTD/svg11.dtd">
<svg version="1.1" id="t1" xmlns="http://www.w3.org/2000/svg" xmlns:xlink="http://www.w3.org/1999/xlink" x="0px" y="0px"
	 width="600px" height="600px" viewBox="0 0 600 600" enable-background="new 0 0 600 600" xml:space="preserve">
    <g>
	<path fill="#FFFFFF" stroke="#000000" stroke-width="1.5" stroke-miterlimit="10" d="M574.1,418.799
		c-0.899-8.294-2.698-13.96-5.658-21.482c-2.96-7.521-7.081-16.896-12.914-28.453c-5.834-11.558-13.382-25.296-21.081-36.483
		c-7.698-11.187-15.55-19.824-23.795-27.912c-8.244-8.087-16.879-15.624-27.4-22.063c-10.522-6.439-22.928-11.777-34.154-15.782
		c-11.228-4.004-21.28-6.673-32.434-8.189c-11.153-1.514-23.412-1.874-34.847-1.073c-11.436,0.8-22.049,2.76-31.816,5.734
		s-18.69,6.963-26.633,10.985c-7.943,4.022-14.905,8.079-21.463,12.37c-6.556,4.293-12.708,8.821-17.743,14.061
		c-5.037,5.238-8.957,11.187-12.559,17.125c-3.601,5.939-6.885,11.867-9.155,19.544c-2.269,7.676-3.525,17.098-0.032,32.524
		c3.494,15.43,11.739,36.863,36.235,70.783c0.811-12.57,4.984-21.071,8.46-28.823c3.477-7.753,6.26-14.76,11.564-22.589
		c5.307-7.83,13.137-16.485,19.679-22.926c6.543-6.438,11.797-10.662,17.362-14.629c5.562-3.967,11.435-7.676,18.441-10.716
		c7.006-3.039,15.145-5.408,23.025-6.335c7.883-0.928,15.507-0.412,23.132,0.721c7.623,1.133,15.248,2.885,23.593,5.975
		c8.346,3.092,17.412,7.522,24.16,12.106c6.748,4.587,11.178,9.324,16.639,15.817c5.461,6.489,11.951,14.733,16.846,23.696
		c4.893,8.962,8.189,18.648,10.662,28.539c2.473,9.89,4.121,19.987,4.843,29.568s0.515,18.647-0.876,27.921
		c-1.391,9.272-3.967,18.751-6.902,26.941c-2.937,8.19-6.234,15.095-9.89,21.276c-3.659,6.182-7.676,11.642-15.867,19.549
		c-8.189,7.907-20.554,18.262-28.899,28.418c21.945-5.211,36.318-10.156,47.315-14.639c10.998-4.481,18.623-8.5,24.856-12.98
		c6.233-4.482,11.075-9.428,16.176-15.197c5.1-5.77,10.457-12.364,14.732-18.804c4.276-6.439,7.47-12.723,10.173-19.42
		c2.701-6.697,4.913-13.806,6.019-21.38C575,465.006,575,456.971,575,447.492C575,438.015,574.999,427.093,574.1,418.799z"/>
	<path fill="#FFFFFF" stroke="#000000" stroke-width="1.5" stroke-miterlimit="10" d="M138.383,530.057
		c-5.258-10.377-11.075-22.979-15.34-35.096s-6.979-23.748-9.403-34.8c-2.423-11.051-4.556-21.52-5.816-32.472
		c-1.26-10.954-1.648-22.393-0.969-33.539c0.678-11.147,2.423-22.005,5.137-33.54c2.713-11.534,6.398-23.747,10.178-35.283
		c3.779-11.535,7.658-22.392,11.631-31.697c3.975-9.306,8.045-17.06,13.976-26.496c5.93-9.436,13.721-20.55,21.367-30.559
		c7.647-10.009,15.152-18.914,24.31-27.944c9.158-9.031,19.97-18.189,30.846-26.331c10.875-8.141,21.814-15.263,31.354-21.114
		c9.539-5.851,17.68-10.43,27.029-14.755c9.348-4.325,19.906-8.394,32.308-12.528c12.402-4.133,26.647-8.331,39.748-11.384
		c13.102-3.052,25.059-4.96,40.641-5.341c15.582-0.382,34.788,0.763,50.497,2.67c15.708,1.908,27.919,4.579,41.21,8.396
		c13.292,3.816,27.667,8.776,42.961,16.6c15.297,7.822,31.514,18.507,44.951,25.141c-15.012-34.726-25.505-49.417-33.612-60.578
		c-8.109-11.162-13.833-18.793-22.229-26.934c-8.395-8.141-19.462-16.791-28.873-22.833c-9.413-6.042-17.172-9.476-28.443-14.156
		c-11.271-4.68-26.056-10.606-38.289-14.227c-12.232-3.621-21.913-3.968-33.889-4.627c-11.977-0.659-26.247-0.659-38.014,0
		s-21.03,1.005-29.793,2.707c-8.763,1.701-17.025,3.787-27.651,7.156c-10.625,3.37-23.614,8.023-36.409,13.16
		c-12.795,5.138-25.396,10.759-39.161,18.514c-13.765,7.754-28.693,17.642-43.621,28.401c-14.927,10.76-29.856,22.392-44.299,35.866
		c-14.443,13.473-28.402,28.789-39.646,44.298c-11.244,15.51-19.774,31.212-27.916,47.207
		c-8.143,15.994-15.897,32.278-22.192,46.819c-6.294,14.541-11.129,27.335-13.545,38.676C25,320.777,25,330.665,25,344.623
		c0,13.96,0,31.989,2.125,47.014c2.125,15.023,6.379,27.044,12.285,40.809c5.906,13.764,13.467,29.274,20.543,41.488
		c7.077,12.213,13.668,21.131,21.519,30.242c7.853,9.113,16.964,18.418,28.935,29.324c11.972,10.903,26.802,23.409,57.046,41.5
		c-5.092-6.055-9.751-12.154-14.433-19.282C148.34,548.59,143.641,540.435,138.383,530.057z"/>
	<path fill="#FFFFFF" stroke="#000000" stroke-width="1.5" stroke-miterlimit="10" d="M517.09,450.893
		c-0.722-9.582-2.37-19.679-4.843-29.568c-2.473-9.891-5.77-19.577-10.663-28.54c-4.894-8.962-11.385-17.205-16.846-23.696
		c-5.46-6.492-9.889-11.23-16.638-15.816c-6.748-4.585-15.816-9.015-24.16-12.105c-8.346-3.092-15.969-4.842-23.594-5.977
		c-7.623-1.133-15.248-1.647-23.131-0.72c-7.881,0.927-16.021,3.297-23.025,6.336c-7.006,3.039-12.879,6.748-18.442,10.715
		s-10.817,8.189-17.361,14.63c-6.542,6.439-14.372,15.095-19.679,22.925c-5.306,7.83-8.088,14.836-11.564,22.589
		c-3.478,7.752-7.651,16.253-8.462,28.823c18.43-24.315,29.558-32.971,39.499-38.225c9.942-5.254,18.699-7.109,27.87-7.572
		c9.169-0.466,18.751,0.463,26.736,2.06c7.983,1.597,14.372,3.863,21.378,7.265c7.007,3.399,14.63,7.934,21.019,13.032
		c6.388,5.101,11.538,10.768,16.277,16.588c4.739,5.821,9.067,11.797,13.318,20.967c4.25,9.169,8.422,21.531,9.657,48.424
		c0,0-4.732,54.119-19.781,71.973c8.347-10.156,20.709-20.511,28.899-28.418s12.209-13.367,15.867-19.549
		c3.656-6.182,6.953-13.085,9.89-21.276c2.936-8.19,5.513-17.67,6.902-26.941C517.605,469.54,517.811,460.474,517.09,450.893z"/>
	<path fill="#FFFFFF" stroke="#000000" stroke-width="1.5" stroke-miterlimit="10" d="M155.532,499.984
		c0.918-9.264,2.421-19.028,5.47-31.466c3.05-12.438,7.646-27.548,14.985-42.666c7.338-15.115,17.419-30.237,27.016-43.615
		c9.597-13.377,18.708-25.008,30.05-38.191s24.912-27.917,38.967-41.197c14.055-13.28,28.596-25.105,42.651-35.768
		c14.055-10.663,27.627-20.163,40.905-28.014c13.279-7.852,26.27-14.056,38.482-20.162c12.214-6.107,23.651-12.118,36.447-17.448
		c12.795-5.331,26.947-9.984,39.646-13.667c12.699-3.684,23.942-6.398,34.411-8.627c10.47-2.229,20.163-3.975,32.295-5.328
		c12.133-1.354,26.703-2.318,38.141-3.854c-13.438-6.634-29.654-17.319-44.951-25.141c-15.295-7.822-29.669-12.783-42.96-16.599
		c-13.292-3.816-25.502-6.487-41.211-8.395c-15.708-1.908-34.915-3.052-50.497-2.671s-27.539,2.29-40.641,5.341
		c-13.101,3.053-27.346,7.251-39.749,11.385c-12.4,4.134-22.958,8.204-32.307,12.528c-9.35,4.325-17.49,8.903-27.029,14.754
		c-9.541,5.852-20.479,12.974-31.354,21.114c-10.875,8.142-21.687,17.3-30.846,26.331c-9.159,9.031-16.662,17.935-24.31,27.944
		s-15.437,21.125-21.367,30.559c-5.931,9.435-10.002,17.19-13.976,26.496s-7.852,20.162-11.631,31.696
		c-3.78,11.537-7.464,23.749-10.178,35.285c-2.714,11.535-4.459,22.391-5.138,33.538s-0.29,22.586,0.97,33.54
		c1.26,10.952,3.392,21.421,5.815,32.472c2.424,11.052,5.138,22.683,9.403,34.8c4.265,12.116,10.082,24.719,15.34,35.096
		c5.259,10.378,9.961,18.534,14.641,25.66c4.68,7.127,9.341,13.227,14.433,19.282c-7.749-20.186-10.629-34.206-11.902-45.598
		C154.281,518.008,154.615,509.248,155.532,499.984z"/>
	<path fill="#FFFFFF" stroke="#000000" stroke-width="1.5" stroke-miterlimit="10" d="M567.875,493.959
		c-2.703,6.697-5.897,12.981-10.173,19.421c-4.274,6.439-9.633,13.034-14.732,18.804s-9.942,10.715-16.176,15.197
		c-6.233,4.48-13.857,8.499-24.856,12.98c-10.998,4.482-25.37,9.428-47.315,14.639h120.377V447.492c0,9.479,0,17.515-1.105,25.087
		C572.788,480.153,570.576,487.262,567.875,493.959z"/>
	<path fill="#FFFFFF" stroke="#000000" stroke-width="1.5" stroke-miterlimit="10" d="M25.001,25v549.999h142.455
		c-30.243-18.091-45.075-30.597-57.046-41.5c-11.971-10.905-21.083-20.211-28.936-29.323c-7.851-9.112-14.442-18.03-21.519-30.243
		c-7.076-12.214-14.636-27.724-20.543-41.488c-5.906-13.765-10.159-25.785-12.285-40.809c-2.126-15.023-1.156-33.055-1.156-47.014
		c0-13.958-0.97-23.845,1.447-35.187c2.416-11.342,7.25-24.137,13.545-38.677c6.294-14.54,14.048-30.825,22.191-46.82
		c8.144-15.995,16.673-31.697,27.917-47.207c11.244-15.508,25.203-30.824,39.646-44.298c14.442-13.475,29.371-25.106,44.299-35.865
		c14.928-10.761,29.855-20.647,43.621-28.401c13.765-7.755,26.366-13.376,39.161-18.515c12.795-5.137,25.784-9.79,36.409-13.159
		c10.625-3.369,18.888-5.455,27.651-7.157s18.026-2.048,29.793-2.708c11.767-0.658,26.037-0.658,38.013,0
		c11.977,0.66,21.656,1.006,33.89,4.628c12.233,3.621,27.017,9.547,38.289,14.226c11.271,4.68,19.03,8.115,28.443,14.157
		c9.411,6.042,20.478,14.692,28.873,22.832c8.396,8.141,14.119,15.772,22.229,26.935c8.107,11.161,18.602,25.852,33.612,60.576V25
		H25.001z"/>
	<path fill="#FFFFFF" stroke="#000000" stroke-width="1.5" stroke-miterlimit="10" d="M536.857,173.835
		c-12.132,1.354-21.825,3.098-32.295,5.328c-10.469,2.228-21.712,4.943-34.412,8.627c-12.697,3.684-26.85,8.336-39.645,13.667
		c-12.796,5.332-24.233,11.341-36.447,17.448c-12.213,6.107-25.203,12.31-38.482,20.162c-13.278,7.852-26.851,17.352-40.906,28.015
		c-14.055,10.662-28.595,22.489-42.65,35.768c-14.056,13.279-27.626,28.015-38.967,41.197
		c-11.341,13.184-20.454,24.815-30.05,38.192c-9.597,13.376-19.677,28.499-27.016,43.614c-7.339,15.117-11.936,30.228-14.985,42.666
		c-3.049,12.437-4.551,22.202-5.47,31.466c-0.917,9.264-1.251,18.025,0.021,29.416c1.272,11.392,4.152,25.412,11.903,45.598h287.167
		c0.238-0.291,0.492-0.583,0.739-0.872c14.491-18.68,19.074-71.101,19.074-71.101c-1.235-26.893-5.407-39.255-9.657-48.424
		c-4.251-9.17-8.579-15.146-13.318-20.967c-4.74-5.82-9.891-11.487-16.277-16.588c-6.389-5.099-14.012-9.634-21.019-13.033
		c-7.006-3.4-13.395-5.668-21.378-7.263c-7.984-1.598-17.566-2.526-26.736-2.062c-9.17,0.464-17.906,2.358-27.87,7.573
		c-19.744,10.334-39.499,38.225-39.499,38.225h-0.032c0,0-30.482-40.821-36.235-70.783c-2.983-15.535-2.238-24.849,0.032-32.524
		s5.553-13.604,9.155-19.544c3.602-5.938,7.522-11.887,12.558-17.125c5.036-5.239,11.188-9.768,17.744-14.06
		c6.558-4.292,13.521-8.348,21.462-12.371c7.944-4.022,16.866-8.009,26.634-10.984s20.381-4.934,31.816-5.734
		c11.435-0.801,23.693-0.44,34.847,1.073c11.153,1.516,21.205,4.186,32.434,8.189c11.228,4.004,23.632,9.343,34.153,15.782
		c10.522,6.438,19.157,13.976,27.402,22.063c8.244,8.088,16.097,16.725,23.795,27.912c7.699,11.188,15.246,24.926,21.08,36.483
		c5.833,11.557,9.955,20.932,12.914,28.454c2.959,7.521,4.759,13.188,5.658,21.481s0.899,19.215,0.899,28.693V169.981
		C563.562,171.518,548.99,172.481,536.857,173.835z"/>
    </g>
</svg>
