<?xml version="1.0" encoding="utf-8"?>
<!-- Generator: Adobe Illustrator 16.0.0, SVG Export Plug-In . SVG Version: 6.00 Build 0)  -->
<!DOCTYPE svg PUBLIC "-//W3C//DTD SVG 1.1//EN" "http://www.w3.org/Graphics/SVG/1.1/DTD/svg11.dtd" [
	<!ENTITY ns_flows "http://ns.adobe.com/Flows/1.0/">
	<!ENTITY ns_extend "http://ns.adobe.com/Extensibility/1.0/">
	<!ENTITY ns_ai "http://ns.adobe.com/AdobeIllustrator/10.0/">
	<!ENTITY ns_graphs "http://ns.adobe.com/Graphs/1.0/">
]>
<svg version="1.1" id="t1" xmlns:x="&ns_extend;" xmlns:i="&ns_ai;" xmlns:graph="&ns_graphs;"
	 xmlns="http://www.w3.org/2000/svg" xmlns:xlink="http://www.w3.org/1999/xlink" xmlns:a="http://ns.adobe.com/AdobeSVGViewerExtensions/3.0/"
	 x="0px" y="0px" width="550px" height="550px" viewBox="0 0 550 550" enable-background="new 0 0 550 550" xml:space="preserve">
<g>
	<path fill="#FFFFFF" stroke="#000000" stroke-width="1.5" stroke-miterlimit="10" d="M549.1,393.796
		c-0.897-8.294-2.696-13.96-5.656-21.48c-2.96-7.521-7.081-16.896-12.914-28.452c-5.834-11.559-13.383-25.297-21.081-36.483
		s-15.552-19.823-23.795-27.911c-8.244-8.088-16.879-15.625-27.4-22.063c-10.521-6.439-22.928-11.777-34.154-15.782
		c-11.228-4.003-21.278-6.672-32.434-8.188c-11.153-1.514-23.412-1.874-34.847-1.073c-11.438,0.8-22.051,2.76-31.816,5.734
		c-9.766,2.974-18.69,6.962-26.633,10.984c-7.943,4.021-14.905,8.079-21.465,12.37c-6.555,4.293-12.707,8.821-17.741,14.062
		c-5.037,5.237-8.957,11.188-12.559,17.125c-3.601,5.938-6.885,11.866-9.155,19.545c-2.269,7.676-3.525,17.098-0.032,32.521
		c3.494,15.431,11.739,36.863,36.235,70.783c0.811-12.57,4.983-21.071,8.46-28.823c3.477-7.753,6.26-14.76,11.563-22.589
		c5.309-7.83,13.137-16.485,19.679-22.926c6.543-6.438,11.799-10.661,17.362-14.629c5.563-3.967,11.437-7.676,18.441-10.717
		c7.006-3.039,15.145-5.408,23.023-6.334c7.883-0.929,15.507-0.412,23.134,0.721c7.621,1.134,15.246,2.886,23.593,5.976
		c8.346,3.093,17.412,7.521,24.159,12.104c6.747,4.588,11.179,9.324,16.64,15.816c5.461,6.489,11.951,14.733,16.846,23.696
		c4.895,8.962,8.189,18.646,10.662,28.539c2.473,9.89,4.121,19.985,4.843,29.566c0.724,9.581,0.517,18.647-0.876,27.923
		c-1.391,9.271-3.967,18.751-6.9,26.939c-2.938,8.189-6.234,15.094-9.892,21.275c-3.658,6.182-7.676,11.642-15.867,19.549
		c-8.188,7.907-20.554,18.262-28.897,28.418c21.945-5.211,36.318-10.156,47.313-14.639c10.998-4.481,18.623-8.5,24.856-12.98
		s11.075-9.428,16.176-15.197c5.102-5.769,10.457-12.362,14.732-18.804c4.274-6.438,7.47-12.722,10.173-19.419
		c2.701-6.697,4.913-13.806,6.019-21.38C550,440.003,550,431.968,550,422.489C550,413.012,549.999,402.09,549.1,393.796z"/>
	<path fill="#FFFFFF" stroke="#000000" stroke-width="1.5" stroke-miterlimit="10" d="M113.383,505.053
		c-5.258-10.377-11.075-22.979-15.34-35.095c-4.265-12.117-6.979-23.748-9.403-34.8c-2.423-11.051-4.556-21.521-5.816-32.472
		c-1.26-10.954-1.648-22.395-0.969-33.539c0.678-11.147,2.423-22.006,5.137-33.54c2.713-11.533,6.398-23.746,10.178-35.282
		c3.779-11.535,7.658-22.392,11.631-31.697c3.975-9.306,8.045-17.06,13.976-26.496c5.93-9.435,13.721-20.549,21.367-30.558
		c7.647-10.009,15.152-18.914,24.31-27.944c9.158-9.031,19.97-18.188,30.846-26.331c10.875-8.141,21.814-15.263,31.354-21.114
		c9.539-5.851,17.68-10.43,27.03-14.755c9.348-4.325,19.905-8.394,32.308-12.528c12.4-4.133,26.646-8.33,39.748-11.383
		c13.102-3.052,25.059-4.96,40.641-5.341c15.582-0.382,34.788,0.763,50.497,2.67c15.708,1.908,27.919,4.579,41.21,8.396
		c13.292,3.816,27.667,8.776,42.961,16.6c15.297,7.822,31.514,18.507,44.951,25.141c-15.012-34.726-25.505-49.417-33.612-60.577
		c-8.107-11.162-13.833-18.793-22.229-26.934c-8.396-8.141-19.462-16.791-28.873-22.833c-9.413-6.042-17.172-9.476-28.443-14.156
		c-11.271-4.68-26.056-10.606-38.289-14.227c-12.23-3.621-21.913-3.968-33.889-4.627c-11.979-0.659-26.247-0.659-38.014,0
		c-11.769,0.659-21.03,1.005-29.793,2.707c-8.765,1.701-17.025,3.787-27.651,7.156c-10.625,3.37-23.614,8.023-36.409,13.16
		c-12.795,5.138-25.396,10.759-39.161,18.514c-13.765,7.754-28.693,17.642-43.621,28.401c-14.927,10.76-29.856,22.392-44.299,35.866
		c-14.443,13.473-28.402,28.789-39.646,44.298c-11.244,15.51-19.774,31.211-27.916,47.207
		c-8.143,15.994-15.897,32.278-22.192,46.818c-6.294,14.541-11.129,27.335-13.545,38.676C0,295.775,0,305.663,0,319.621
		c0,13.96,0,31.987,2.125,47.013c2.125,15.023,6.379,27.044,12.285,40.811c5.906,13.764,13.467,29.272,20.543,41.486
		c7.077,12.215,13.668,21.133,21.519,30.242c7.853,9.112,16.964,18.417,28.935,29.323c11.972,10.903,26.802,23.409,57.046,41.5
		c-5.092-6.055-9.751-12.154-14.433-19.282C123.34,523.586,118.641,515.431,113.383,505.053z"/>
	<path fill="#FFFFFF" stroke="#000000" stroke-width="1.5" stroke-miterlimit="10" d="M492.09,425.89
		c-0.722-9.582-2.37-19.679-4.843-29.566c-2.473-9.893-5.771-19.577-10.663-28.54c-4.894-8.962-11.385-17.205-16.846-23.695
		c-5.46-6.49-9.891-11.229-16.64-15.814c-6.748-4.586-15.814-9.017-24.158-12.105c-8.348-3.092-15.971-4.842-23.596-5.977
		c-7.623-1.133-15.248-1.647-23.131-0.721c-7.881,0.928-16.021,3.297-23.023,6.336c-7.008,3.039-12.881,6.748-18.442,10.715
		c-5.563,3.967-10.817,8.188-17.361,14.631c-6.542,6.437-14.372,15.094-19.679,22.924c-5.306,7.83-8.088,14.836-11.564,22.589
		c-3.478,7.752-7.649,16.253-8.46,28.823c18.43-24.315,29.558-32.973,39.498-38.227c9.942-5.254,18.699-7.108,27.87-7.571
		c9.169-0.465,18.751,0.463,26.736,2.061c7.981,1.597,14.372,3.863,21.378,7.265c7.007,3.399,14.63,7.936,21.019,13.032
		c6.39,5.103,11.538,10.77,16.277,16.588c4.739,5.821,9.067,11.797,13.318,20.968c4.25,9.17,8.422,21.53,9.655,48.425
		c0,0-4.73,54.118-19.779,71.972c8.347-10.156,20.709-20.511,28.897-28.418c8.19-7.907,12.209-13.367,15.867-19.549
		c3.656-6.183,6.953-13.085,9.89-21.275c2.938-8.188,5.515-17.67,6.902-26.939C492.605,444.537,492.811,435.471,492.09,425.89z"/>
	<path fill="#FFFFFF" stroke="#000000" stroke-width="1.5" stroke-miterlimit="10" d="M130.532,474.981
		c0.918-9.266,2.421-19.028,5.47-31.468c3.05-12.438,7.646-27.548,14.985-42.666c7.338-15.113,17.419-30.235,27.016-43.614
		c9.597-13.376,18.708-25.007,30.05-38.189c11.342-13.183,24.912-27.917,38.967-41.196c14.055-13.281,28.596-25.104,42.651-35.769
		c14.055-10.664,27.627-20.163,40.905-28.014c13.279-7.852,26.27-14.056,38.48-20.162c12.216-6.107,23.651-12.118,36.447-17.448
		c12.795-5.331,26.947-9.983,39.646-13.667c12.697-3.684,23.94-6.398,34.41-8.627c10.471-2.229,20.162-3.975,32.296-5.328
		c12.133-1.354,26.701-2.318,38.141-3.854c-13.438-6.634-29.654-17.319-44.951-25.141c-15.295-7.822-29.669-12.783-42.96-16.599
		c-13.292-3.816-25.502-6.487-41.211-8.396c-15.708-1.908-34.915-3.052-50.497-2.671c-15.582,0.381-27.539,2.29-40.641,5.341
		c-13.103,3.053-27.348,7.25-39.749,11.384c-12.4,4.134-22.958,8.204-32.307,12.528c-9.351,4.325-17.491,8.903-27.03,14.754
		c-9.541,5.852-20.479,12.974-31.354,21.114c-10.875,8.142-21.687,17.3-30.846,26.331c-9.159,9.031-16.662,17.935-24.31,27.944
		c-7.648,10.009-15.437,21.125-21.367,30.559c-5.931,9.435-10.002,17.19-13.976,26.496c-3.974,9.308-7.852,20.162-11.631,31.694
		c-3.78,11.537-7.464,23.75-10.178,35.285c-2.714,11.534-4.459,22.392-5.138,33.538s-0.29,22.587,0.97,33.539
		c1.26,10.952,3.392,21.423,5.815,32.474c2.424,11.052,5.138,22.683,9.403,34.8c4.265,12.116,10.082,24.718,15.34,35.095
		c5.259,10.378,9.961,18.534,14.641,25.66c4.68,7.127,9.341,13.229,14.433,19.282c-7.749-20.188-10.629-34.206-11.902-45.6
		C129.281,493.004,129.615,484.244,130.532,474.981z"/>
	<path fill="#FFFFFF" stroke="#000000" stroke-width="1.5" stroke-miterlimit="10" d="M542.875,468.956
		c-2.703,6.697-5.896,12.981-10.173,19.42c-4.274,6.439-9.633,13.034-14.732,18.804c-5.099,5.771-9.94,10.717-16.176,15.197
		c-6.233,4.48-13.856,8.499-24.856,12.98c-10.996,4.48-25.368,9.428-47.313,14.639H550V422.489c0,9.479,0,17.515-1.105,25.087
		C547.788,455.15,545.576,462.259,542.875,468.956z"/>
	<path fill="#FFFFFF" stroke="#000000" stroke-width="1.5" stroke-miterlimit="10" d="M0.001,0v549.995h142.455
		c-30.243-18.091-45.075-30.597-57.046-41.5c-11.971-10.905-21.083-20.211-28.936-29.322c-7.851-9.11-14.442-18.028-21.519-30.243
		c-7.076-12.214-14.636-27.724-20.543-41.486c-5.906-13.767-10.159-25.785-12.285-40.81c-2.126-15.023-1.156-33.055-1.156-47.014
		c0-13.958-0.97-23.845,1.447-35.187c2.416-11.344,7.25-24.139,13.545-38.679c6.294-14.54,14.048-30.824,22.191-46.819
		c8.144-15.995,16.673-31.696,27.917-47.207c11.244-15.508,25.203-30.824,39.646-44.298c14.442-13.475,29.371-25.105,44.299-35.865
		c14.928-10.761,29.855-20.647,43.621-28.401c13.765-7.755,26.366-13.375,39.161-18.515c12.795-5.137,25.784-9.79,36.409-13.159
		c10.625-3.369,18.888-5.455,27.651-7.157c8.763-1.702,18.024-2.048,29.793-2.708c11.767-0.658,26.036-0.658,38.013,0
		c11.977,0.66,21.656,1.006,33.89,4.628c12.233,3.621,27.019,9.547,38.289,14.226c11.271,4.68,19.03,8.115,28.443,14.157
		c9.411,6.042,20.478,14.692,28.873,22.832c8.396,8.141,14.119,15.772,22.229,26.937c8.107,11.161,18.604,25.851,33.612,60.575V0
		H0.001z"/>
	<path fill="#FFFFFF" stroke="#000000" stroke-width="1.5" stroke-miterlimit="10" d="M511.857,148.834
		c-12.134,1.354-21.825,3.098-32.295,5.328c-10.471,2.228-21.714,4.943-34.412,8.627c-12.697,3.684-26.852,8.336-39.646,13.667
		c-12.796,5.332-24.231,11.341-36.447,17.448c-12.213,6.105-25.201,12.31-38.48,20.162c-13.278,7.852-26.853,17.352-40.906,28.015
		c-14.055,10.662-28.595,22.488-42.65,35.768c-14.056,13.279-27.626,28.017-38.967,41.197
		c-11.341,13.184-20.454,24.814-30.05,38.191c-9.597,13.376-19.677,28.499-27.016,43.614c-7.339,15.115-11.938,30.228-14.985,42.666
		c-3.049,12.437-4.551,22.2-5.47,31.466c-0.917,9.263-1.251,18.022,0.021,29.415c1.272,11.392,4.152,25.412,11.903,45.598h287.167
		c0.238-0.291,0.492-0.583,0.739-0.872c14.491-18.68,19.073-71.1,19.073-71.1c-1.234-26.895-5.406-39.255-9.656-48.425
		c-4.251-9.171-8.579-15.146-13.318-20.968c-4.74-5.818-9.891-11.485-16.277-16.588c-6.389-5.099-14.012-9.634-21.019-13.033
		c-7.006-3.398-13.395-5.668-21.378-7.263c-7.984-1.6-17.566-2.525-26.736-2.063s-17.904,2.357-27.87,7.572
		c-19.742,10.334-39.499,38.227-39.499,38.227h-0.031c0,0-30.482-40.821-36.235-70.782c-2.983-15.535-2.238-24.85,0.032-32.523
		c2.27-7.676,5.553-13.604,9.155-19.543s7.522-11.889,12.558-17.125c5.036-5.24,11.188-9.77,17.744-14.062
		c6.558-4.292,13.521-8.349,21.462-12.371c7.944-4.022,16.866-8.009,26.634-10.983c9.768-2.975,20.381-4.934,31.816-5.734
		c11.435-0.801,23.691-0.44,34.847,1.073c11.153,1.516,21.205,4.186,32.434,8.188c11.229,4.004,23.634,9.343,34.153,15.782
		c10.522,6.438,19.157,13.976,27.402,22.063c8.244,8.088,16.097,16.725,23.795,27.911c7.699,11.188,15.246,24.927,21.08,36.483
		c5.833,11.556,9.955,20.931,12.914,28.453c2.959,7.521,4.759,13.188,5.658,21.479c0.897,8.293,0.897,19.215,0.897,28.693V144.98
		C538.563,146.517,523.99,147.48,511.857,148.834z"/>
</g>
</svg>
