<?xml version="1.0" encoding="utf-8"?>
<!-- Generator: Adobe Illustrator 16.0.0, SVG Export Plug-In . SVG Version: 6.00 Build 0)  -->
<!DOCTYPE svg PUBLIC "-//W3C//DTD SVG 1.1//EN" "http://www.w3.org/Graphics/SVG/1.1/DTD/svg11.dtd" [
	<!ENTITY ns_flows "http://ns.adobe.com/Flows/1.0/">
	<!ENTITY ns_extend "http://ns.adobe.com/Extensibility/1.0/">
	<!ENTITY ns_ai "http://ns.adobe.com/AdobeIllustrator/10.0/">
	<!ENTITY ns_graphs "http://ns.adobe.com/Graphs/1.0/">
]>
<svg version="1.1" id="Layer_1" xmlns:x="&ns_extend;" xmlns:i="&ns_ai;" xmlns:graph="&ns_graphs;"
	 xmlns="http://www.w3.org/2000/svg" xmlns:xlink="http://www.w3.org/1999/xlink" xmlns:a="http://ns.adobe.com/AdobeSVGViewerExtensions/3.0/"
	 x="0px" y="0px" width="550px" height="550px" viewBox="0 0 550 550" enable-background="new 0 0 550 550" xml:space="preserve">
<g>
	<path fill="#FFFFFF" stroke="#58595B" stroke-width="1.5" stroke-miterlimit="10" d="M0,0v550h550V0H0z M211.506,41.586
		c12.625-3.232,28.063-6.104,63.495-9.694c35.432,3.59,50.871,6.463,63.495,9.694c12.624,3.23,22.438,6.821,33.628,11.667
		c11.188,4.847,23.754,10.95,36.186,19.566c-5.339,9.736-10.678,19.472-16.018,29.208c-18.373-11.778-27.559-16.489-35.686-19.786
		c-8.128-3.297-15.193-5.183-22.652-7.145c-7.459-1.963-15.312-4.003-24.418-5.496c-9.109-1.492-19.474-2.435-34.536-3.376
		c-15.062,0.942-25.425,1.884-34.534,3.376c-9.108,1.492-16.959,3.533-24.418,5.496c-7.459,1.962-14.526,3.848-22.652,7.145
		c-8.127,3.297-17.313,8.008-35.686,19.786c-5.339-9.737-10.678-19.473-16.018-29.208c12.431-8.616,24.997-14.719,36.185-19.566
		C189.065,48.407,198.879,44.818,211.506,41.586z M244.656,312.848c-20.903-16.759-24.261-47.291-7.502-68.192
		c16.759-20.903,47.292-24.262,68.193-7.502c20.902,16.758,24.262,47.291,7.501,68.193
		C296.089,326.248,265.557,329.605,244.656,312.848z M323.766,387.051c4.275,5.357,9.223,9.994,14.167,13.549
		c4.945,3.556,9.892,6.027,19.164,7.573c-7.417,10.816-12.981,14.063-18.134,16.047c-5.152,1.984-9.89,2.704-14.423,2.911
		c-4.534,0.205-8.862-0.104-12.003-0.62c-3.144-0.515-5.102-1.234-6.388-1.133c-1.288,0.104-1.906,1.03-2.37,2.679
		c-0.464,1.649-0.772,4.021-1.234,7.059c-0.464,3.038-1.082,6.748-2.887,11.075c-1.802,4.327-4.791,9.273-7.006,12.774
		c-2.215,3.504-3.658,5.564-5.615,7.367c-1.956,1.804-4.43,3.349-12.036,4.275c-7.604-0.928-10.078-2.474-12.035-4.275
		c-1.958-1.802-3.4-3.862-5.615-7.367c-2.215-3.501-5.203-8.447-7.007-12.774c-1.802-4.327-2.421-8.036-2.885-11.075
		s-0.772-5.409-1.236-7.059c-0.463-1.647-1.082-2.573-2.37-2.679c-1.287-0.103-3.245,0.618-6.387,1.133
		c-3.142,0.517-7.47,0.825-12.003,0.62c-4.534-0.207-9.273-0.928-14.424-2.911c-5.151-1.982-10.715-5.229-18.133-16.047
		c9.272-1.546,14.219-4.019,19.164-7.573c4.944-3.555,9.891-8.189,14.167-13.549c4.276-5.357,7.882-11.438,10.973-17.771
		c3.091-6.336,5.667-12.93,7.418-17.411c1.75-4.481,2.678-6.853,4.379-7.832c1.699-0.979,4.173-0.571,25.996-0.571
		c21.823,0,24.295-0.408,25.997,0.571c1.699,0.979,2.627,3.351,4.38,7.832c1.751,4.481,4.327,11.075,7.417,17.411
		S319.49,381.693,323.766,387.051z M305.376,198.133c-1.753,4.482-2.681,6.852-4.38,7.833c-1.7,0.98-4.174,0.571-25.997,0.571
		s-24.296,0.409-25.996-0.571c-1.7-0.981-2.627-3.35-4.379-7.833c-1.752-4.482-4.327-11.076-7.418-17.412
		c-3.091-6.336-6.697-12.415-10.973-17.772c-4.276-5.357-9.221-9.994-14.167-13.548c-4.945-3.555-9.89-6.027-19.163-7.573
		c7.418-10.818,12.982-14.064,18.133-16.047c5.151-1.983,9.891-2.704,14.424-2.91s8.86,0.103,12.003,0.618
		c3.142,0.515,5.1,1.236,6.388,1.133s1.906-1.03,2.37-2.678c0.464-1.648,0.772-4.019,1.236-7.058
		c0.463-3.039,1.082-6.749,2.885-11.076c1.804-4.328,4.791-9.272,7.007-12.775c2.215-3.503,3.657-5.563,5.615-7.366
		c1.958-1.803,4.429-3.349,12.035-4.276c7.606,0.928,10.08,2.473,12.036,4.276c1.959,1.803,3.4,3.863,5.615,7.366
		s5.201,8.448,7.006,12.775c1.805,4.328,2.422,8.037,2.885,11.076c0.465,3.04,0.773,5.41,1.236,7.058
		c0.464,1.648,1.082,2.576,2.37,2.678c1.285,0.103,3.244-0.618,6.388-1.133c3.141-0.516,7.469-0.825,12.003-0.618
		s9.271,0.927,14.423,2.91c5.152,1.983,10.716,5.229,18.134,16.047c-9.271,1.545-14.219,4.018-19.164,7.573
		c-4.944,3.555-9.891,8.191-14.167,13.548c-4.274,5.357-7.882,11.436-10.973,17.772
		C309.703,187.059,307.127,193.651,305.376,198.133z M17.762,132.3c0.479-5.804,2.155-11.309,6.043-18.01
		c3.889-6.702,9.993-14.6,25.071-22.499C32.362,75.994,28.055,68.096,25.422,61.993c-2.633-6.103-3.591-10.412-3.71-15.438
		c-0.119-5.026,0.599-10.771,7.061-18.668c7.972-6.372,13.724-7.025,18.748-6.848c5.024,0.177,9.321,1.184,15.394,3.885
		c6.073,2.702,13.922,7.099,29.529,23.792c8.069-14.987,16.036-21,22.782-24.814c6.745-3.813,12.268-5.425,18.079-5.838
		c5.809-0.413,11.903,0.375,30.514,5.613c-10.133,7.065-17.746,13.441-23.146,20.082c-5.401,6.641-8.592,13.546-10.215,19.511
		c-1.624,5.966-1.681,10.992-0.796,17.344c0.886,6.354,2.712,14.033,6.215,21.853c3.501,7.819,8.676,15.776,15.392,25.068
		s14.973,19.917,25.322,32.99c10.351,13.074,22.794,28.596,56.335,61.957c-2.144,1.794-4.289,3.589-6.433,5.384
		c-1.819,2.124-3.638,4.247-5.457,6.372c-32.977-33.919-48.356-46.538-61.311-57.037c-12.956-10.498-23.486-18.875-32.702-25.696
		c-9.216-6.821-17.113-12.087-24.892-15.678c-7.779-3.59-15.438-5.504-21.78-6.462c-6.343-0.958-11.369-0.958-17.353,0.599
		c-5.983,1.556-12.924,4.667-19.626,9.993c-6.702,5.325-13.164,12.865-20.345,22.917C18.002,144.208,17.284,138.103,17.762,132.3z
		 M206.714,298.381c-1.688,2.316-5.771,3.887-10.089,5.612c-4.319,1.728-8.873,3.612-13.818,6.204
		c-4.947,2.591-10.287,5.889-15.39,9.265c-5.103,3.377-9.971,6.831-14.643,12.093c-4.672,5.26-9.148,12.326-11.033,24.574
		c-8.951-4.711-13.662-10.599-16.41-15.506c-2.749-4.908-3.534-8.833-3.612-13.544c-0.078-4.711,0.55-10.207,1.256-13.661
		c0.708-3.456,1.492-4.87,1.335-6.205c-0.157-1.335-1.257-2.591-4.633-3.689c-3.376-1.1-9.029-2.041-14.054-3.533
		c-5.025-1.491-9.422-3.534-13.976-6.438c-4.554-2.906-9.265-6.675-13.034-18.552c3.769-11.876,8.48-15.646,13.034-18.551
		c4.554-2.905,8.952-4.946,13.976-6.438c5.025-1.492,10.678-2.434,14.054-3.533c3.376-1.099,4.476-2.355,4.633-3.69
		c0.157-1.335-0.628-2.749-1.335-6.203c-0.707-3.456-1.335-8.952-1.256-13.663c0.079-4.711,0.864-8.637,3.612-13.544
		c2.748-4.907,7.459-10.796,16.41-15.507c1.884,12.248,6.36,19.316,11.033,24.576c4.671,5.261,9.539,8.716,14.643,12.092
		s10.442,6.673,15.39,9.265c4.947,2.591,9.5,4.475,13.818,6.203c4.318,1.729,8.401,3.297,10.089,5.614
		c1.688,2.316,0.982,5.378-0.432,23.379C207.695,293.001,208.401,296.063,206.714,298.381z M68.485,315.521
		c1.495,8.904,3.148,14.119,6.456,23.404c3.308,9.284,8.268,22.641,23.532,49.733c-9.158,5.598-18.316,11.192-27.474,16.79
		c-12.085-18.492-17.847-32.231-23.165-48.631c-5.318-16.4-10.196-35.459-17.288-81.818c7.092-46.359,11.967-65.417,17.287-81.817
		c5.319-16.399,11.08-30.139,23.165-48.632c9.158,5.597,18.316,11.193,27.474,16.791c-15.263,27.093-20.224,40.449-23.532,49.734
		c-3.307,9.285-4.96,14.5-6.456,23.405c-1.495,8.904-2.83,21.496-3.212,40.521C65.655,294.025,66.991,306.617,68.485,315.521z
		 M133.305,531.935c-5.81-0.413-11.333-2.024-18.079-5.838c-6.746-3.813-14.713-9.825-22.782-24.813
		c-15.608,16.692-23.458,21.092-29.529,23.794c-6.072,2.701-10.37,3.707-15.395,3.885c-5.024,0.177-10.776-0.477-18.748-6.849
		c-6.462-7.898-7.18-13.643-7.061-18.67c0.121-5.025,1.077-9.332,3.71-15.437c2.633-6.104,6.94-14.003,23.456-29.8
		c-15.079-7.898-21.182-15.796-25.071-22.497c-3.889-6.702-5.564-12.207-6.043-18.011c-0.479-5.803,0.24-11.906,5.266-30.576
		c7.181,10.053,13.642,17.592,20.345,22.917c6.702,5.325,13.642,8.438,19.626,9.992c5.983,1.557,11.01,1.557,17.353,0.599
		c6.343-0.957,14.001-2.872,21.78-6.462c7.779-3.591,15.677-8.855,24.892-15.678c9.215-6.82,19.746-15.198,32.701-25.695
		c12.956-10.497,28.334-23.115,61.311-57.035c1.819,2.122,3.638,4.246,5.457,6.37c2.144,1.794,4.289,3.591,6.433,5.384
		c-33.542,33.361-45.984,48.885-56.335,61.957c-10.349,13.072-18.606,23.699-25.323,32.991
		c-6.716,9.291-11.891,17.249-15.392,25.068c-3.501,7.818-5.329,15.5-6.215,21.852c-0.884,6.354-0.827,11.378,0.796,17.345
		c1.624,5.966,4.814,12.871,10.215,19.512c5.401,6.642,13.014,13.018,23.147,20.081C145.209,531.56,139.114,532.349,133.305,531.935
		z M338.495,508.414c-12.625,3.23-28.063,6.103-63.495,9.693c-35.432-3.592-50.869-6.463-63.495-9.693
		c-12.625-3.229-22.438-6.82-33.628-11.668c-11.189-4.846-23.754-10.948-36.185-19.565c5.34-9.735,10.678-19.472,16.018-29.208
		c18.372,11.777,27.559,16.488,35.686,19.787c8.126,3.296,15.193,5.184,22.652,7.146s15.311,4.005,24.418,5.497
		c9.107,1.489,19.471,2.434,34.534,3.374c15.063-0.941,25.426-1.885,34.535-3.374c9.107-1.492,16.959-3.535,24.42-5.497
		c7.457-1.962,14.525-3.85,22.65-7.146c8.127-3.298,17.313-8.01,35.686-19.787c5.34,9.736,10.68,19.473,16.02,29.208
		c-12.432,8.617-24.997,14.721-36.186,19.565C360.933,501.594,351.119,505.185,338.495,508.414z M532.238,417.7
		c-0.479,5.804-2.153,11.309-6.044,18.011c-3.89,6.701-9.992,14.6-25.071,22.498c16.516,15.796,20.823,23.695,23.456,29.799
		c2.633,6.104,3.59,10.41,3.71,15.438c0.12,5.026-0.599,10.771-7.061,18.669c-7.973,6.371-13.725,7.023-18.747,6.849
		c-5.025-0.177-9.321-1.184-15.396-3.885c-6.074-2.702-13.922-7.102-29.529-23.794c-8.067,14.987-16.035,21.001-22.78,24.813
		c-6.745,3.813-12.271,5.425-18.079,5.838c-5.809,0.414-11.903-0.375-30.515-5.611c10.134-7.064,17.746-13.44,23.146-20.082
		c5.401-6.642,8.592-13.545,10.216-19.511s1.681-10.991,0.796-17.346c-0.886-6.353-2.714-14.033-6.215-21.852
		c-3.501-7.819-8.677-15.777-15.393-25.068c-6.718-9.292-14.974-19.918-25.322-32.991c-10.352-13.073-22.794-28.597-56.336-61.956
		c2.145-1.795,4.289-3.59,6.434-5.385c1.818-2.123,3.639-4.248,5.457-6.371c32.978,33.92,48.355,46.539,61.313,57.037
		c12.955,10.497,23.485,18.875,32.7,25.694c9.215,6.821,17.112,12.087,24.893,15.678c7.778,3.59,15.437,5.505,21.779,6.462
		c6.342,0.957,11.369,0.957,17.354-0.599c5.983-1.556,12.923-4.667,19.625-9.992c6.701-5.325,13.163-12.864,20.345-22.917
		C531.999,405.794,532.717,411.897,532.238,417.7z M343.286,251.621c1.688-2.316,5.771-3.887,10.089-5.614
		c4.318-1.727,8.873-3.612,13.818-6.203c4.945-2.591,10.287-5.889,15.391-9.265c5.103-3.376,9.971-6.831,14.643-12.092
		c4.672-5.26,9.147-12.328,11.031-24.576c8.951,4.711,13.662,10.6,16.41,15.507c2.749,4.908,3.534,8.833,3.611,13.544
		c0.079,4.711-0.549,10.206-1.256,13.663c-0.706,3.454-1.491,4.868-1.334,6.203c0.155,1.334,1.256,2.591,4.632,3.69
		s9.028,2.041,14.054,3.533c5.025,1.492,9.422,3.533,13.977,6.438c4.555,2.906,9.266,6.674,13.033,18.551
		c-3.769,11.877-8.479,15.646-13.033,18.551c-4.556,2.904-8.95,4.946-13.977,6.439c-5.025,1.49-10.678,2.433-14.054,3.531
		c-3.376,1.1-4.477,2.355-4.632,3.69c-0.157,1.335,0.628,2.749,1.334,6.204c0.707,3.455,1.335,8.951,1.256,13.661
		c-0.077,4.711-0.862,8.637-3.611,13.544c-2.748,4.908-7.459,10.797-16.41,15.507c-1.884-12.249-6.359-19.313-11.031-24.575
		c-4.672-5.261-9.539-8.714-14.643-12.092c-5.105-3.377-10.444-6.674-15.391-9.266c-4.945-2.59-9.5-4.476-13.818-6.202
		c-4.318-1.729-8.401-3.298-10.089-5.614s-0.982-5.378,0.431-23.38C342.304,256.999,341.6,253.937,343.286,251.621z M481.515,234.48
		c-1.493-8.904-3.147-14.12-6.454-23.404c-3.308-9.286-8.268-22.642-23.531-49.734c9.156-5.597,18.314-11.194,27.475-16.791
		c12.084,18.493,17.846,32.233,23.165,48.632c5.318,16.4,10.193,35.458,17.286,81.817c-7.094,46.359-11.968,65.419-17.286,81.818
		c-5.319,16.398-11.081,30.139-23.165,48.631c-9.159-5.598-18.316-11.192-27.475-16.79c15.264-27.095,20.225-40.448,23.53-49.734
		c3.308-9.284,4.962-14.499,6.455-23.403c1.494-8.904,2.83-21.496,3.212-40.521C484.345,255.975,483.009,243.384,481.515,234.48z
		 M526.973,162.876c-7.181-10.053-13.643-17.592-20.345-22.917c-6.701-5.326-13.642-8.437-19.625-9.993
		c-5.983-1.556-11.011-1.556-17.353-0.598c-6.345,0.958-14.003,2.872-21.78,6.462c-7.78,3.591-15.678,8.856-24.892,15.678
		c-9.216,6.822-19.747,15.198-32.701,25.696c-12.955,10.498-28.335,23.117-61.312,57.036c-1.819-2.124-3.639-4.248-5.459-6.371
		c-2.144-1.794-4.288-3.589-6.432-5.384c33.541-33.36,45.983-48.882,56.335-61.956c10.349-13.073,18.605-23.699,25.321-32.99
		c6.717-9.292,11.893-17.25,15.395-25.068c3.5-7.819,5.328-15.499,6.214-21.853c0.885-6.353,0.828-11.379-0.796-17.344
		c-1.624-5.965-4.813-12.871-10.216-19.512c-5.4-6.64-13.014-13.016-23.146-20.082c18.611-5.238,24.706-6.025,30.516-5.613
		c5.808,0.412,11.333,2.025,18.078,5.838c6.744,3.813,14.713,9.826,22.78,24.814c15.608-16.693,23.457-21.091,29.529-23.792
		c6.072-2.701,10.369-3.708,15.396-3.885c5.023-0.177,10.774,0.475,18.748,6.848c6.461,7.899,7.18,13.642,7.06,18.668
		s-1.076,9.334-3.71,15.438c-2.633,6.103-6.939,14.002-23.455,29.798c15.078,7.898,21.182,15.796,25.07,22.498
		c3.892,6.702,5.564,12.207,6.044,18.011C532.717,138.103,531.999,144.208,526.973,162.876z"/>
	<circle fill="#FFFFFF" stroke="#58595B" stroke-width="1.5" stroke-miterlimit="10" cx="275" cy="275.001" r="48.511"/>
	<path fill="#FFFFFF" stroke="#58595B" stroke-width="1.5" stroke-miterlimit="10" d="M157.71,447.972
		c-5.339,9.736-10.678,19.473-16.018,29.208c12.431,8.617,24.997,14.721,36.185,19.566c11.189,4.847,21.002,8.438,33.628,11.668
		c12.626,3.229,28.063,6.103,63.495,9.692c35.432-3.591,50.871-6.462,63.495-9.692c12.625-3.23,22.438-6.821,33.629-11.668
		c11.188-4.847,23.752-10.949,36.185-19.566c-5.339-9.735-10.679-19.472-16.018-29.208c-18.373,11.778-27.56,16.488-35.688,19.787
		c-8.125,3.296-15.19,5.184-22.649,7.146s-15.313,4.005-24.42,5.496c-9.108,1.49-19.472,2.435-34.535,3.375
		c-15.061-0.941-25.425-1.885-34.534-3.375c-9.108-1.491-16.959-3.534-24.419-5.496c-7.458-1.962-14.525-3.85-22.651-7.146
		C185.269,464.46,176.082,459.75,157.71,447.972z"/>
	<path fill="#FFFFFF" stroke="#58595B" stroke-width="1.5" stroke-miterlimit="10" d="M192.904,408.173
		c9.273-1.546,14.219-4.019,19.164-7.573c4.944-3.555,9.891-8.189,14.167-13.549c4.276-5.357,7.882-11.438,10.973-17.771
		c3.091-6.336,5.667-12.93,7.418-17.411s2.679-6.853,4.379-7.832c1.7-0.979,4.173-0.571,25.996-0.571
		c21.824,0,24.296-0.408,25.997,0.571c1.7,0.979,2.628,3.351,4.38,7.832c1.751,4.481,4.326,11.075,7.418,17.411
		c3.091,6.336,6.695,12.414,10.973,17.771c4.275,5.357,9.222,9.994,14.166,13.549c4.945,3.556,9.892,6.027,19.164,7.573
		c-7.418,10.816-12.981,14.063-18.133,16.047s-9.891,2.704-14.424,2.911c-4.533,0.205-8.861-0.104-12.002-0.62
		c-3.144-0.515-5.103-1.234-6.389-1.133c-1.287,0.104-1.906,1.03-2.369,2.679c-0.465,1.648-0.773,4.021-1.236,7.059
		s-1.082,6.748-2.885,11.075s-4.791,9.273-7.007,12.774c-2.215,3.504-3.657,5.564-5.615,7.367
		c-1.957,1.804-4.432,3.349-12.036,4.275c-7.604-0.928-10.078-2.474-12.036-4.275s-3.4-3.862-5.615-7.367
		c-2.214-3.501-5.203-8.447-7.006-12.774c-1.802-4.327-2.421-8.036-2.885-11.075s-0.772-5.409-1.236-7.059
		c-0.464-1.648-1.082-2.573-2.371-2.679c-1.287-0.103-3.245,0.618-6.387,1.133c-3.142,0.517-7.47,0.825-12.003,0.62
		c-4.534-0.207-9.272-0.928-14.424-2.911C205.886,422.236,200.322,418.989,192.904,408.173z"/>
	<path fill="#FFFFFF" stroke="#58595B" stroke-width="1.5" stroke-miterlimit="10" d="M192.904,141.829
		c9.273,1.545,14.219,4.018,19.164,7.573c4.945,3.555,9.891,8.191,14.167,13.548c4.276,5.357,7.882,11.436,10.973,17.772
		c3.091,6.337,5.667,12.93,7.418,17.412c1.751,4.482,2.679,6.852,4.379,7.833c1.7,0.98,4.173,0.571,25.996,0.571
		c21.824,0,24.296,0.409,25.997-0.571c1.7-0.981,2.628-3.35,4.38-7.833c1.751-4.482,4.326-11.076,7.418-17.412
		c3.091-6.336,6.695-12.415,10.973-17.772c4.275-5.357,9.222-9.994,14.166-13.548c4.945-3.555,9.892-6.027,19.164-7.573
		c-7.418-10.818-12.981-14.064-18.133-16.047c-5.151-1.983-9.891-2.704-14.424-2.91s-8.861,0.103-12.002,0.618
		c-3.144,0.515-5.103,1.236-6.389,1.133c-1.287-0.103-1.906-1.03-2.369-2.678c-0.465-1.648-0.773-4.019-1.236-7.058
		c-0.464-3.039-1.082-6.749-2.885-11.076c-1.804-4.328-4.791-9.272-7.007-12.775c-2.217-3.503-3.657-5.563-5.615-7.366
		c-1.957-1.803-4.432-3.349-12.036-4.276c-7.604,0.928-10.078,2.473-12.036,4.276c-1.958,1.803-3.4,3.863-5.615,7.366
		c-2.214,3.503-5.203,8.448-7.006,12.775c-1.803,4.328-2.421,8.037-2.885,11.076c-0.464,3.04-0.772,5.41-1.236,7.058
		c-0.464,1.648-1.082,2.576-2.371,2.678c-1.287,0.103-3.245-0.618-6.387-1.133c-3.142-0.516-7.47-0.825-12.003-0.618
		c-4.534,0.207-9.272,0.927-14.424,2.91C205.888,127.765,200.322,131.01,192.904,141.829z"/>
	<path fill="#FFFFFF" stroke="#58595B" stroke-width="1.5" stroke-miterlimit="10" d="M275,31.893
		c35.432,3.59,50.871,6.463,63.495,9.694c12.625,3.23,22.438,6.821,33.629,11.667c11.188,4.847,23.752,10.95,36.185,19.566
		c-5.339,9.736-10.679,19.472-16.018,29.208c-18.373-11.778-27.56-16.489-35.688-19.786c-8.125-3.297-15.19-5.183-22.649-7.145
		c-7.461-1.963-15.313-4.003-24.42-5.496c-9.108-1.493-19.472-2.435-34.535-3.376c-15.061,0.942-25.425,1.884-34.534,3.376
		c-9.108,1.492-16.959,3.533-24.419,5.496c-7.458,1.962-14.525,3.848-22.651,7.145c-8.127,3.297-17.313,8.008-35.686,19.786
		c-5.339-9.737-10.678-19.473-16.018-29.208c12.431-8.616,24.997-14.719,36.185-19.566c11.188-4.847,21.002-8.436,33.628-11.667
		C224.13,38.355,239.568,35.483,275,31.893z"/>
	<path fill="#FFFFFF" stroke="#58595B" stroke-width="1.5" stroke-miterlimit="10" d="M323.508,227.868
		c-2.145-1.794-4.289-3.589-6.434-5.384c33.542-33.36,45.984-48.882,56.336-61.956c10.35-13.073,18.604-23.699,25.322-32.99
		c6.716-9.292,11.892-17.25,15.394-25.068c3.5-7.819,5.328-15.499,6.214-21.853c0.885-6.353,0.828-11.379-0.796-17.344
		s-4.813-12.871-10.216-19.512c-5.4-6.64-13.014-13.016-23.146-20.082c18.611-5.238,24.706-6.025,30.515-5.613
		s11.334,2.025,18.079,5.838c6.744,3.813,14.713,9.826,22.78,24.814c15.608-16.693,23.457-21.091,29.529-23.792
		c6.072-2.701,10.369-3.708,15.396-3.885c5.023-0.177,10.774,0.475,18.746,6.848c6.463,7.899,7.182,13.642,7.062,18.668
		s-1.077,9.334-3.71,15.438s-6.939,14.002-23.455,29.798c15.078,7.898,21.182,15.796,25.07,22.498
		c3.892,6.702,5.564,12.207,6.044,18.011c0.479,5.803-0.239,11.908-5.267,30.576c-7.181-10.053-13.643-17.592-20.345-22.918
		c-6.701-5.325-13.642-8.436-19.625-9.993c-5.984-1.556-11.011-1.556-17.353-0.598c-6.345,0.958-14.004,2.872-21.78,6.462
		c-7.78,3.59-15.679,8.855-24.893,15.677c-9.215,6.822-19.747,15.198-32.7,25.697c-12.955,10.498-28.334,23.117-61.312,57.036
		C327.146,232.115,325.326,229.992,323.508,227.868z"/>
	<path fill="#FFFFFF" stroke="#58595B" stroke-width="1.5" stroke-miterlimit="10" d="M323.508,322.132
		c-2.145,1.794-4.289,3.591-6.434,5.386c33.542,33.359,45.984,48.883,56.336,61.955c10.35,13.072,18.604,23.699,25.322,32.991
		c6.716,9.291,11.892,17.249,15.394,25.068c3.5,7.818,5.328,15.5,6.214,21.852c0.885,6.354,0.828,11.378-0.796,17.345
		c-1.624,5.968-4.813,12.871-10.216,19.512c-5.4,6.642-13.014,13.018-23.146,20.082c18.611,5.236,24.706,6.025,30.515,5.611
		c5.809-0.412,11.334-2.024,18.079-5.838c6.744-3.813,14.713-9.826,22.78-24.813c15.608,16.692,23.457,21.092,29.529,23.794
		c6.072,2.7,10.369,3.707,15.396,3.885c5.023,0.177,10.774-0.477,18.746-6.849c6.463-7.898,7.182-13.643,7.062-18.669
		s-1.077-9.333-3.71-15.438c-2.633-6.104-6.939-14.003-23.455-29.8c15.078-7.898,21.182-15.796,25.07-22.497
		c3.892-6.702,5.564-12.207,6.044-18.011c0.479-5.803-0.239-11.906-5.267-30.576c-7.181,10.053-13.643,17.592-20.345,22.917
		c-6.701,5.325-13.642,8.437-19.625,9.992c-5.984,1.556-11.011,1.556-17.353,0.599c-6.345-0.957-14.004-2.872-21.78-6.462
		c-7.78-3.591-15.679-8.855-24.893-15.678c-9.215-6.82-19.747-15.198-32.7-25.694c-12.955-10.499-28.334-23.117-61.312-57.037
		C327.146,317.884,325.326,320.008,323.508,322.132z"/>
	<path fill="#FFFFFF" stroke="#58595B" stroke-width="1.5" stroke-miterlimit="10" d="M471.386,275
		c-3.769,11.877-8.479,15.646-13.032,18.551c-4.557,2.904-8.951,4.947-13.978,6.438c-5.026,1.492-10.678,2.436-14.054,3.535
		c-3.376,1.099-4.477,2.354-4.632,3.688c-0.157,1.335,0.628,2.749,1.334,6.205c0.707,3.454,1.335,8.95,1.256,13.661
		c-0.077,4.71-0.862,8.636-3.611,13.544c-2.748,4.907-7.459,10.795-16.41,15.506c-1.884-12.248-6.359-19.313-11.03-24.575
		c-4.672-5.261-9.539-8.715-14.645-12.092c-5.104-3.376-10.443-6.674-15.389-9.266c-4.946-2.59-9.501-4.476-13.819-6.203
		c-4.317-1.727-8.401-3.297-10.088-5.612c-1.688-2.317-0.983-5.38,0.431-23.381c-1.414-18-2.119-21.063-0.431-23.379
		c1.687-2.316,5.771-3.887,10.088-5.614c4.318-1.727,8.874-3.612,13.819-6.203c4.944-2.591,10.285-5.889,15.389-9.265
		c5.104-3.376,9.971-6.831,14.645-12.092c4.671-5.26,9.146-12.328,11.03-24.576c8.951,4.711,13.662,10.6,16.41,15.507
		c2.749,4.908,3.534,8.833,3.611,13.544c0.079,4.711-0.549,10.206-1.256,13.663c-0.706,3.454-1.491,4.868-1.334,6.203
		c0.155,1.334,1.256,2.591,4.632,3.69s9.028,2.041,14.054,3.533c5.026,1.492,9.422,3.533,13.978,6.438
		C462.906,259.355,467.617,263.124,471.386,275z"/>
	<path fill="#FFFFFF" stroke="#58595B" stroke-width="1.5" stroke-miterlimit="10" d="M451.528,161.341
		c9.157-5.597,18.314-11.194,27.475-16.791c12.084,18.493,17.846,32.233,23.165,48.632c5.318,16.4,10.193,35.458,17.286,81.817
		c-7.094,46.358-11.968,65.419-17.286,81.817c-5.319,16.399-11.081,30.14-23.165,48.632c-9.159-5.598-18.317-11.192-27.475-16.79
		c15.264-27.094,20.225-40.448,23.53-49.734c3.308-9.285,4.961-14.499,6.455-23.402c1.494-8.905,2.83-21.496,3.212-40.522
		c-0.382-19.024-1.718-31.617-3.212-40.521c-1.494-8.903-3.147-14.119-6.455-23.404C471.753,201.79,466.793,188.434,451.528,161.341
		z"/>
	<path fill="#FFFFFF" stroke="#58595B" stroke-width="1.5" stroke-miterlimit="10" d="M98.472,161.341
		c-9.158-5.597-18.316-11.194-27.474-16.791c-12.085,18.493-17.847,32.233-23.165,48.632c-5.318,16.4-10.195,35.458-17.287,81.817
		c7.092,46.358,11.967,65.419,17.287,81.817c5.319,16.399,11.08,30.14,23.165,48.632c9.158-5.598,18.316-11.192,27.474-16.79
		c-15.263-27.094-20.224-40.448-23.532-49.734c-3.307-9.285-4.96-14.499-6.456-23.402c-1.495-8.905-2.83-21.496-3.212-40.522
		c0.382-19.024,1.717-31.617,3.212-40.521c1.495-8.903,3.148-14.119,6.456-23.404C78.248,201.79,83.209,188.434,98.472,161.341z"/>
	<path fill="#FFFFFF" stroke="#58595B" stroke-width="1.5" stroke-miterlimit="10" d="M78.614,275
		c3.769,11.877,8.48,15.646,13.034,18.551s8.952,4.947,13.976,6.438c5.025,1.492,10.678,2.436,14.054,3.535
		c3.376,1.099,4.476,2.354,4.633,3.688c0.157,1.335-0.628,2.749-1.335,6.205c-0.707,3.454-1.335,8.95-1.256,13.661
		c0.079,4.71,0.864,8.636,3.612,13.544c2.748,4.907,7.459,10.795,16.41,15.506c1.884-12.248,6.36-19.313,11.033-24.575
		c4.671-5.261,9.539-8.715,14.643-12.092c5.104-3.376,10.442-6.674,15.39-9.266c4.947-2.59,9.5-4.476,13.818-6.203
		c4.318-1.727,8.401-3.297,10.089-5.612c1.688-2.317,0.982-5.38-0.432-23.381c1.414-18,2.12-21.063,0.432-23.379
		c-1.688-2.316-5.771-3.887-10.089-5.614c-4.319-1.727-8.873-3.612-13.818-6.203c-4.947-2.591-10.287-5.889-15.39-9.265
		s-9.971-6.831-14.643-12.092c-4.672-5.26-9.148-12.328-11.033-24.576c-8.951,4.711-13.662,10.6-16.41,15.507
		c-2.749,4.908-3.534,8.833-3.612,13.544c-0.079,4.711,0.55,10.206,1.256,13.663c0.708,3.455,1.492,4.868,1.335,6.203
		c-0.157,1.334-1.257,2.591-4.633,3.69c-3.376,1.099-9.029,2.041-14.054,3.533c-5.025,1.492-9.422,3.533-13.976,6.438
		C87.094,259.355,82.382,263.124,78.614,275z"/>
	<path fill="#FFFFFF" stroke="#58595B" stroke-width="1.5" stroke-miterlimit="10" d="M226.492,322.132
		c2.144,1.794,4.289,3.591,6.433,5.386c-33.541,33.359-45.984,48.883-56.335,61.955c-10.349,13.072-18.606,23.699-25.322,32.991
		c-6.716,9.291-11.891,17.249-15.392,25.068c-3.501,7.818-5.329,15.5-6.215,21.852c-0.885,6.354-0.828,11.378,0.796,17.345
		s4.813,12.871,10.215,19.512c5.4,6.642,13.013,13.018,23.146,20.082c-18.61,5.236-24.705,6.025-30.514,5.611
		c-5.81-0.412-11.333-2.024-18.079-5.838c-6.746-3.813-14.713-9.826-22.782-24.813c-15.607,16.692-23.458,21.092-29.529,23.794
		c-6.072,2.7-10.37,3.707-15.394,3.885c-5.024,0.177-10.776-0.477-18.748-6.849c-6.462-7.898-7.18-13.643-7.061-18.669
		c0.121-5.026,1.077-9.333,3.71-15.438c2.633-6.104,6.94-14.003,23.456-29.8c-15.079-7.898-21.182-15.796-25.071-22.497
		c-3.889-6.702-5.565-12.207-6.043-18.011c-0.479-5.803,0.24-11.906,5.266-30.576c7.181,10.053,13.642,17.592,20.345,22.917
		c6.702,5.325,13.642,8.437,19.626,9.992c5.984,1.555,11.01,1.556,17.353,0.599c6.342-0.957,14.001-2.872,21.78-6.462
		c7.779-3.591,15.677-8.855,24.892-15.678c9.215-6.82,19.746-15.198,32.701-25.694c12.956-10.499,28.334-23.117,61.311-57.037
		C222.854,317.884,224.672,320.008,226.492,322.132z"/>
	<path fill="#FFFFFF" stroke="#58595B" stroke-width="1.5" stroke-miterlimit="10" d="M226.492,227.868
		c2.144-1.794,4.289-3.589,6.433-5.384c-33.541-33.36-45.984-48.882-56.335-61.956c-10.349-13.073-18.606-23.699-25.322-32.99
		c-6.716-9.292-11.891-17.25-15.392-25.068c-3.501-7.819-5.329-15.499-6.215-21.853c-0.885-6.353-0.828-11.379,0.796-17.344
		s4.813-12.871,10.215-19.512c5.4-6.64,13.013-13.016,23.146-20.082c-18.61-5.238-24.705-6.025-30.514-5.613
		c-5.81,0.412-11.333,2.025-18.079,5.838s-14.712,9.825-22.781,24.812c-15.608-16.693-23.458-21.09-29.529-23.792
		c-6.072-2.702-10.37-3.708-15.395-3.885c-5.024-0.177-10.776,0.475-18.748,6.848c-6.462,7.899-7.18,13.642-7.061,18.668
		c0.121,5.026,1.077,9.335,3.71,15.438c2.633,6.103,6.94,14.002,23.456,29.798c-15.079,7.898-21.182,15.796-25.071,22.499
		c-3.889,6.701-5.564,12.206-6.043,18.01c-0.479,5.803,0.24,11.908,5.266,30.576c7.181-10.053,13.642-17.592,20.345-22.917
		c6.702-5.326,13.642-8.437,19.626-9.993c5.983-1.556,11.01-1.556,17.353-0.598c6.343,0.958,14.001,2.872,21.78,6.462
		c7.779,3.591,15.677,8.856,24.892,15.678c9.215,6.822,19.746,15.198,32.701,25.696c12.956,10.498,28.334,23.117,61.311,57.036
		C222.854,232.115,224.672,229.992,226.492,227.868z"/>
</g>
</svg>
