<?xml version="1.0" encoding="utf-8"?>
<!-- Generator: Adobe Illustrator 16.0.0, SVG Export Plug-In . SVG Version: 6.00 Build 0)  -->
<!DOCTYPE svg PUBLIC "-//W3C//DTD SVG 1.1//EN" "http://www.w3.org/Graphics/SVG/1.1/DTD/svg11.dtd" [
	<!ENTITY ns_flows "http://ns.adobe.com/Flows/1.0/">
	<!ENTITY ns_extend "http://ns.adobe.com/Extensibility/1.0/">
	<!ENTITY ns_ai "http://ns.adobe.com/AdobeIllustrator/10.0/">
	<!ENTITY ns_graphs "http://ns.adobe.com/Graphs/1.0/">
]>
<svg version="1.1" id="Layer_1" xmlns:x="&ns_extend;" xmlns:i="&ns_ai;" xmlns:graph="&ns_graphs;"
	 xmlns="http://www.w3.org/2000/svg" xmlns:xlink="http://www.w3.org/1999/xlink" xmlns:a="http://ns.adobe.com/AdobeSVGViewerExtensions/3.0/"
	 x="0px" y="0px" width="550px" height="550px" viewBox="0 0 550 550" enable-background="new 0 0 550 550" xml:space="preserve">
<g>
	<path fill="#FFFFFF" stroke="#58595B" stroke-width="1.5" stroke-miterlimit="10" d="M509.53,549.542h-72.696
		c2.171-16.688,7.604-26.029,12.437-32.17c4.83-6.141,9.06-9.082,14.502-12.179c5.438-3.099,12.087-6.351,35.89-6.564
		c0-23.808,3.194-30.481,6.241-35.951c3.048-5.468,5.952-9.726,12.047-14.612c6.038-4.841,15.222-10.294,31.595-12.654V113.179
		c-16.686-2.171-26.026-7.604-32.166-12.437c-6.14-4.831-9.081-9.063-12.177-14.503c-3.1-5.44-6.351-12.088-6.565-35.894
		c-23.805,0-30.479-3.194-35.945-6.242c-5.469-3.048-9.726-5.952-14.612-12.047c-4.839-6.041-10.294-15.224-12.652-31.599H113.681
		c-2.171,16.688-7.604,26.028-12.436,32.168c-4.83,6.14-9.062,9.082-14.502,12.179c-5.439,3.098-12.087,6.351-35.89,6.565
		c0,23.806-3.194,30.483-6.242,35.951c-3.047,5.467-5.951,9.726-12.046,14.612c-6.095,4.886-15.386,10.402-32.052,12.725v322.235
		c16.36,2.217,25.579,7.581,31.654,12.364c6.14,4.829,9.081,9.062,12.177,14.503c3.098,5.44,6.351,12.088,6.565,35.894
		c23.804,0,30.48,3.194,35.947,6.241c5.467,3.05,9.724,5.952,14.611,12.05c4.84,6.037,10.292,15.223,12.653,31.599h435.421v-0.001
		H509.53L509.53,549.542z M275.028,466.682L200.331,543.8L6.255,351.152l78.558-76.153L6.255,198.847L200.331,6.2l74.697,77.118
		L349.725,6.2l194.076,192.647l-78.558,76.154l78.558,76.151L349.725,543.8L275.028,466.682z"/>
	<path fill="#FFFFFF" stroke="#58595B" stroke-width="1.5" stroke-miterlimit="10" d="M275.028,83.317L84.813,275.001
		l190.215,191.681l190.215-191.681L275.028,83.317z M377.854,305.32c-2.628,4.539-5.494,7.885-9.078,10.514
		c-3.583,2.628-7.886,4.54-14.335,6.212c-6.451,1.675-15.054,3.106-28.672,4.54c0,12.188-1.432,21.505-3.465,28.314
		c-2.029,6.81-4.658,11.111-7.285,14.814c-2.629,3.704-5.257,6.811-10.871,9.977c-5.615,3.166-14.217,6.392-29.119,9.932
		c-14.901-3.54-23.503-6.766-29.117-9.932c-5.614-3.166-8.242-6.271-10.87-9.977c-2.628-3.703-5.257-8.006-7.288-14.814
		c-2.031-6.81-3.464-16.127-3.464-28.314c-13.618-1.432-22.22-2.865-28.67-4.54c-6.451-1.673-10.751-3.584-14.335-6.212
		c-3.583-2.63-6.45-5.975-9.079-10.514c-2.628-4.541-5.017-10.274-6.818-15.11c-1.8-4.837-3.013-8.774-3.013-15.211
		c0-6.435,1.211-10.373,3.013-15.209c1.8-4.835,4.19-10.571,6.818-15.111c2.629-4.54,5.496-7.884,9.079-10.513
		c3.584-2.629,7.884-4.541,14.335-6.213c6.45-1.673,15.052-3.106,28.67-4.541c0-12.186,1.433-21.505,3.464-28.315
		c2.031-6.809,4.659-11.111,7.288-14.814c2.628-3.703,5.256-6.81,10.87-9.976c5.615-3.165,14.217-6.392,29.117-9.931
		c14.904,3.541,23.504,6.766,29.119,9.931c5.613,3.167,8.242,6.273,10.871,9.976c2.629,3.704,5.257,8.005,7.285,14.814
		c2.033,6.81,3.465,16.129,3.465,28.315c13.618,1.434,22.221,2.867,28.672,4.541c6.449,1.674,10.752,3.584,14.335,6.213
		c3.584,2.629,6.45,5.973,9.078,10.513c2.629,4.54,5.018,10.275,6.817,15.111c1.801,4.837,3.014,8.774,3.014,15.209
		c0,6.437-1.213,10.374-3.014,15.211C382.87,295.046,380.481,300.779,377.854,305.32z"/>
	<polygon fill="#FFFFFF" stroke="#58595B" stroke-width="1.5" stroke-miterlimit="10" points="349.725,6.2 543.801,198.847 
		465.243,275.001 275.028,83.317 	"/>
	<polygon fill="#FFFFFF" stroke="#58595B" stroke-width="1.5" stroke-miterlimit="10" points="349.725,543.8 543.801,351.152 
		465.243,275.001 275.028,466.682 	"/>
	<polygon fill="#FFFFFF" stroke="#58595B" stroke-width="1.5" stroke-miterlimit="10" points="200.331,543.8 6.255,351.152 
		84.813,275.001 275.028,466.682 	"/>
	<polygon fill="#FFFFFF" stroke="#58595B" stroke-width="1.5" stroke-miterlimit="10" points="200.331,6.2 6.255,198.847 
		84.813,275.001 275.028,83.317 	"/>
	<path fill="#FFFFFF" stroke="#58595B" stroke-width="1.5" stroke-miterlimit="10" d="M384.671,259.791
		c-1.801-4.835-4.188-10.571-6.816-15.111c-2.629-4.54-5.495-7.885-9.079-10.513c-3.583-2.629-7.886-4.541-14.335-6.213
		c-6.451-1.673-15.054-3.106-28.672-4.541c0-12.186-1.432-21.505-3.465-28.315c-2.029-6.809-4.657-11.111-7.285-14.814
		c-2.628-3.704-5.257-6.81-10.871-9.976c-5.615-3.165-14.217-6.392-29.119-9.931c-14.901,3.541-23.503,6.766-29.117,9.931
		c-5.614,3.167-8.242,6.272-10.87,9.976c-2.628,3.704-5.257,8.005-7.288,14.814c-2.031,6.81-3.464,16.129-3.464,28.315
		c-13.618,1.434-22.22,2.867-28.67,4.541c-6.45,1.674-10.751,3.584-14.335,6.213c-3.583,2.628-6.45,5.973-9.079,10.513
		c-2.628,4.541-5.017,10.275-6.818,15.111c-1.8,4.837-3.013,8.773-3.013,15.21s1.211,10.372,3.013,15.209
		c1.8,4.836,4.19,10.569,6.818,15.11c2.629,4.541,5.496,7.886,9.079,10.514c3.584,2.628,7.884,4.541,14.335,6.212
		c6.45,1.675,15.052,3.108,28.67,4.541c0,12.188,1.433,21.506,3.464,28.315c2.031,6.809,4.659,11.11,7.288,14.813
		c2.628,3.704,5.256,6.811,10.87,9.979c5.615,3.166,14.217,6.391,29.117,9.931c14.904-3.54,23.504-6.765,29.119-9.931
		c5.614-3.168,8.242-6.273,10.871-9.979c2.629-3.702,5.257-8.005,7.285-14.813c2.033-6.811,3.465-16.129,3.465-28.315
		c13.618-1.433,22.221-2.866,28.672-4.541c6.449-1.672,10.752-3.582,14.335-6.212c3.584-2.629,6.45-5.975,9.079-10.514
		c2.628-4.539,5.017-10.273,6.816-15.11s3.014-8.774,3.014-15.209C387.685,268.564,386.472,264.627,384.671,259.791z
		 M310.87,297.768c-12.571,19.797-38.813,25.652-58.606,13.078c-19.795-12.572-25.65-38.815-13.078-58.612
		c12.572-19.798,38.812-25.654,58.608-13.079C317.59,251.729,323.442,277.971,310.87,297.768z"/>
	<circle fill="#FFFFFF" stroke="#58595B" stroke-width="1.5" stroke-miterlimit="10" cx="275.028" cy="275" r="42.465"/>
	<path fill="#FFFFFF" stroke="#58595B" stroke-width="1.5" stroke-miterlimit="10" d="M0.512,0.457L0.512,0.457h40.471
		c0,12.734-2.612,16.798-4.887,20.476c-2.274,3.678-4.209,6.968-8.66,10.791c-4.451,3.823-11.417,8.177-26.924,9.92v73.016
		c16.667-2.323,25.957-7.838,32.053-12.725s8.999-9.145,12.046-14.612c3.048-5.468,6.242-12.146,6.242-35.951
		c23.802-0.214,30.45-3.468,35.89-6.565c5.44-3.097,9.671-6.039,14.502-12.179c4.832-6.141,10.265-15.48,12.436-32.169H0.512V0.457z
		"/>
	<path fill="#FFFFFF" stroke="#58595B" stroke-width="1.5" stroke-miterlimit="10" d="M0.512,41.643
		c15.507-1.743,22.473-6.097,26.924-9.92c4.452-3.823,6.387-7.113,8.66-10.791c2.275-3.677,4.887-7.741,4.887-20.476H0.512V41.643z"
		/>
	<path fill="#FFFFFF" stroke="#58595B" stroke-width="1.5" stroke-miterlimit="10" d="M0.001,550L0.001,550l0.001-40.475
		c12.732,0,16.797,2.611,20.475,4.887c3.677,2.273,6.966,4.209,10.79,8.661c3.822,4.451,8.176,11.418,9.918,26.927h73.009
		c-2.322-16.67-7.839-25.96-12.725-32.056c-4.887-6.099-9.145-9-14.611-12.049c-5.468-3.048-12.143-6.242-35.947-6.242
		c-0.215-23.806-3.467-30.451-6.565-35.894c-3.096-5.439-6.037-9.673-12.177-14.503c-6.14-4.833-15.478-10.268-32.166-12.438
		L0.001,550L0.001,550z"/>
	<path fill="#FFFFFF" stroke="#58595B" stroke-width="1.5" stroke-miterlimit="10" d="M41.183,550
		c-1.742-15.509-6.096-22.476-9.918-26.927c-3.823-4.453-7.113-6.389-10.79-8.661c-3.677-2.274-7.742-4.887-20.475-4.887V550H41.183
		L41.183,550z"/>
	<path fill="#FFFFFF" stroke="#58595B" stroke-width="1.5" stroke-miterlimit="10" d="M550.001,549.542L550.001,549.542H509.53
		c0-12.734,2.611-16.801,4.888-20.478c2.273-3.68,4.208-6.968,8.659-10.79c4.45-3.824,11.418-8.179,26.924-9.921v-73.017
		c-16.668,2.322-25.957,7.84-32.053,12.727c-6.097,4.888-8.999,9.146-12.046,14.612c-3.048,5.468-6.241,12.145-6.241,35.951
		c-23.803,0.216-30.45,3.467-35.891,6.565c-5.439,3.096-9.671,6.036-14.503,12.178c-4.832,6.141-10.266,15.479-12.436,32.17
		L550.001,549.542L550.001,549.542z"/>
	<path fill="#FFFFFF" stroke="#58595B" stroke-width="1.5" stroke-miterlimit="10" d="M550.001,508.355
		c-15.506,1.741-22.474,6.096-26.924,9.92c-4.452,3.821-6.387,7.11-8.659,10.789c-2.275,3.678-4.888,7.742-4.888,20.479h40.471
		V508.355L550.001,508.355z"/>
	<path fill="#FFFFFF" stroke="#58595B" stroke-width="1.5" stroke-miterlimit="10" d="M549.543,0L549.543,0v40.475
		c-12.733,0-16.798-2.612-20.475-4.887c-3.679-2.274-6.968-4.209-10.79-8.661c-3.822-4.451-8.177-11.418-9.919-26.927h-73.009
		c2.323,16.669,7.84,25.959,12.726,32.057c4.887,6.097,9.145,9,14.61,12.047c5.469,3.048,12.144,6.242,35.947,6.242
		c0.217,23.805,3.467,30.453,6.565,35.894c3.096,5.44,6.037,9.671,12.177,14.503s15.479,10.266,32.166,12.437L549.543,0L549.543,0z"
		/>
	<path fill="#FFFFFF" stroke="#58595B" stroke-width="1.5" stroke-miterlimit="10" d="M508.36,0
		c1.742,15.508,6.097,22.476,9.919,26.927c3.821,4.453,7.111,6.388,10.79,8.661c3.677,2.275,7.739,4.887,20.475,4.887V0H508.36z"/>
</g>
</svg>
