<?xml version="1.0" encoding="utf-8"?>
<!-- Generator: Adobe Illustrator 16.0.0, SVG Export Plug-In . SVG Version: 6.00 Build 0)  -->
<!DOCTYPE svg PUBLIC "-//W3C//DTD SVG 1.1//EN" "http://www.w3.org/Graphics/SVG/1.1/DTD/svg11.dtd" [
	<!ENTITY ns_flows "http://ns.adobe.com/Flows/1.0/">
	<!ENTITY ns_extend "http://ns.adobe.com/Extensibility/1.0/">
	<!ENTITY ns_ai "http://ns.adobe.com/AdobeIllustrator/10.0/">
	<!ENTITY ns_graphs "http://ns.adobe.com/Graphs/1.0/">
]>
<svg version="1.1" id="Layer_1" xmlns:x="&ns_extend;" xmlns:i="&ns_ai;" xmlns:graph="&ns_graphs;"
	 xmlns="http://www.w3.org/2000/svg" xmlns:xlink="http://www.w3.org/1999/xlink" xmlns:a="http://ns.adobe.com/AdobeSVGViewerExtensions/3.0/"
	 x="0px" y="0px" width="550px" height="550px" viewBox="0 0 550 550" enable-background="new 0 0 550 550" xml:space="preserve">
<g>
	<path fill="#FFFFFF" stroke="#58595B" stroke-width="1.5" stroke-miterlimit="10" d="M0.001,0.001v549.998h549.998V0.001H0.001z
		 M437.958,284.045c-6.869,3.611-11.424,6.596-16.606,9.266c-5.182,2.67-10.99,5.023-15.703,6.203
		c-4.711,1.178-8.322,1.178-12.326,0.627c-4.006-0.55-8.401-1.648-12.563-3.455c-4.159-1.806-8.087-4.316-11.305-6.518
		c-3.22-2.197-5.731-4.081-8.479-4.71c-2.748-0.628-5.731,0-7.772,1.414c-2.042,1.412-3.142,3.61-3.377,6.202
		c-0.234,2.593,0.394,5.574,1.571,8.167c1.178,2.59,2.903,4.789,6.358,6.28c3.455,1.492,8.638,2.276,12.405,2.67
		c3.77,0.393,6.125,0.393,7.695,1.257c1.568,0.862,2.354,2.591,2.354,4.711s-0.786,4.632-2.354,6.985
		c-1.569,2.356-3.926,4.556-7.399,6.459s-8.065,3.514-12.319,3.441c-4.254-0.07-8.168-1.822-12.549-4.346
		c-4.378-2.525-9.221-5.822-13.343-8.913c-4.121-3.09-7.521-5.976-10.044-7.367c-2.523-1.391-4.172-1.287-5.563-1.081
		c-1.392,0.206-2.524,0.516-2.988,1.959c-0.463,1.44-0.258,4.018,0.722,6.439c0.979,2.42,2.729,4.688,5.101,7.675
		c2.369,2.987,5.356,6.696,7.935,10.664c2.575,3.967,4.739,8.188,6.13,11.743c1.393,3.555,2.008,6.439,1.699,8.604
		c-0.309,2.163-1.545,3.606-2.678,5.564c-1.136,1.957-2.164,4.429-3.607,7.005c-1.441,2.575-3.297,5.255-5.254,6.749
		c-1.958,1.492-4.02,1.802-5.563,1.751c-1.547-0.052-2.574-0.464-3.246-1.599c-0.67-1.133-0.979-2.985-1.494-5.407
		c-0.516-2.421-1.235-5.409-1.598-8.14c-0.361-2.729-0.361-5.203-1.081-7.418c-0.722-2.216-2.163-4.173-4.069-5.771
		c-1.905-1.597-4.275-2.832-6.852-3.604c-2.574-0.773-5.357-1.082-7.212-0.517s-2.782,2.01-3.555,3.762
		c-0.773,1.75-1.392,3.813-1.599,5.614c-0.203,1.805,0,3.35,1.188,5.563c1.186,2.215,3.348,5.101,5.306,8.396
		c1.959,3.297,3.71,7.007,4.997,10.816c1.287,3.813,2.111,7.729,2.523,11.282c0.412,3.555,0.412,6.748,0,9.324
		c-0.412,2.575-1.235,4.533-2.729,7.366c-1.493,2.833-3.657,6.542-6.026,11.023c-2.371,4.481-4.946,9.735-7.471,15.688
		c-2.523,5.949-4.996,12.595-10.212,26.757c-5.214-14.162-7.688-20.808-10.211-26.757c-2.524-5.951-5.1-11.205-7.469-15.688
		c-2.371-4.481-4.534-8.19-6.028-11.023c-1.494-2.833-2.318-4.79-2.73-7.366c-0.412-2.576-0.412-5.77,0-9.324
		c0.413-3.555,1.236-7.47,2.524-11.282c1.289-3.812,3.04-7.521,4.997-10.816c1.958-3.297,4.122-6.184,5.306-8.396
		c1.185-2.215,1.391-3.76,1.185-5.563s-0.825-3.864-1.597-5.614c-0.772-1.752-1.7-3.194-3.555-3.762
		c-1.855-0.565-4.637-0.258-7.212,0.517c-2.576,0.772-4.946,2.01-6.851,3.604c-1.906,1.598-3.349,3.555-4.07,5.771
		c-0.721,2.215-0.721,4.688-1.082,7.418c-0.361,2.729-1.082,5.719-1.597,8.14c-0.515,2.422-0.825,4.274-1.494,5.407
		c-0.669,1.135-1.7,1.547-3.245,1.599c-1.545,0.053-3.606-0.259-5.563-1.751c-1.958-1.494-3.812-4.174-5.254-6.749
		s-2.473-5.048-3.606-7.005c-1.133-1.959-2.37-3.401-2.679-5.564c-0.309-2.162,0.309-5.049,1.7-8.604s3.555-7.777,6.131-11.743
		c2.575-3.968,5.563-7.677,7.932-10.664c2.371-2.987,4.122-5.255,5.101-7.675c0.979-2.422,1.184-4.998,0.721-6.439
		c-0.463-1.443-1.597-1.753-2.988-1.959s-3.04-0.31-5.564,1.081c-2.524,1.392-5.923,4.277-10.044,7.367
		c-4.121,3.091-8.963,6.388-13.342,8.913c-4.379,2.523-8.293,4.273-12.548,4.346c-4.254,0.071-8.846-1.538-12.319-3.441
		c-3.474-1.903-5.83-4.103-7.399-6.459c-1.57-2.354-2.355-4.867-2.355-6.985c0-2.121,0.786-3.849,2.355-4.711
		c1.57-0.864,3.925-0.864,7.694-1.257c3.77-0.394,8.952-1.178,12.406-2.67c3.455-1.491,5.182-3.69,6.36-6.28
		c1.178-2.593,1.805-5.574,1.57-8.167c-0.234-2.592-1.335-4.79-3.376-6.202c-2.041-1.414-5.025-2.042-7.773-1.414
		c-2.749,0.629-5.26,2.513-8.48,4.71c-3.219,2.2-7.145,4.711-11.306,6.518s-8.559,2.905-12.563,3.455
		c-4.004,0.549-7.616,0.549-12.327-0.627c-4.711-1.18-10.521-3.533-15.704-6.203c-5.183-2.67-9.736-5.653-16.606-9.266
		c-6.871-3.611-16.057-7.854-25.95-10.678c9.893-2.827,19.08-7.066,25.95-10.679c6.871-3.612,11.424-6.596,16.606-9.265
		c5.182-2.669,10.993-5.025,15.704-6.203c4.711-1.177,8.323-1.177,12.327-0.627c4.004,0.549,8.402,1.648,12.563,3.455
		c4.162,1.805,8.087,4.318,11.306,6.516c3.219,2.199,5.731,4.083,8.48,4.711s5.731,0,7.773-1.413
		c2.041-1.414,3.141-3.612,3.376-6.203c0.236-2.591-0.393-5.575-1.57-8.166c-1.178-2.591-2.906-4.79-6.36-6.281
		c-3.455-1.492-8.636-2.277-12.406-2.669c-3.769-0.393-6.124-0.393-7.694-1.257c-1.571-0.863-2.355-2.59-2.355-4.711
		c0-2.12,0.786-4.632,2.355-6.988c1.57-2.355,3.925-4.554,7.399-6.457c3.474-1.904,8.065-3.514,12.319-3.442
		c4.253,0.07,8.168,1.822,12.548,4.346c4.379,2.523,9.221,5.821,13.342,8.913c4.121,3.092,7.521,5.976,10.044,7.366
		c2.524,1.392,4.173,1.289,5.564,1.082c1.391-0.206,2.524-0.515,2.988-1.958c0.464-1.443,0.257-4.018-0.721-6.439
		c-0.979-2.422-2.73-4.688-5.101-7.676c-2.37-2.987-5.357-6.696-7.932-10.663c-2.576-3.966-4.74-8.191-6.131-11.745
		c-1.391-3.555-2.009-6.44-1.7-8.603c0.309-2.164,1.546-3.606,2.679-5.564c1.133-1.958,2.164-4.431,3.606-7.006
		c1.443-2.575,3.296-5.255,5.254-6.749c1.958-1.494,4.018-1.803,5.563-1.751c1.545,0.052,2.576,0.464,3.245,1.597
		c0.669,1.133,0.979,2.988,1.494,5.409c0.515,2.422,1.236,5.41,1.597,8.14c0.361,2.73,0.361,5.203,1.082,7.417
		c0.722,2.215,2.164,4.172,4.07,5.771c1.905,1.597,4.275,2.833,6.851,3.606c2.575,0.772,5.357,1.082,7.212,0.515
		c1.854-0.566,2.782-2.009,3.555-3.76c0.772-1.751,1.391-3.812,1.597-5.615c0.206-1.803,0-3.349-1.185-5.563
		c-1.185-2.214-3.349-5.1-5.306-8.396c-1.957-3.297-3.708-7.006-4.997-10.818c-1.288-3.811-2.111-7.727-2.524-11.282
		c-0.412-3.554-0.412-6.748,0-9.324c0.413-2.575,1.236-4.534,2.73-7.366c1.494-2.833,3.657-6.542,6.028-11.023
		c2.369-4.482,4.945-9.736,7.469-15.686c2.524-5.95,4.997-12.595,10.211-26.758c5.216,14.162,7.688,20.807,10.212,26.758
		c2.525,5.95,5.1,11.204,7.471,15.686c2.369,4.482,4.533,8.19,6.026,11.023c1.493,2.833,2.317,4.791,2.729,7.366
		c0.412,2.576,0.412,5.77,0,9.324c-0.412,3.555-1.235,7.471-2.523,11.282c-1.287,3.813-3.04,7.521-4.997,10.818
		c-1.958,3.296-4.12,6.182-5.306,8.396c-1.188,2.215-1.391,3.76-1.188,5.563c0.209,1.803,0.825,3.863,1.599,5.615
		c0.771,1.752,1.698,3.194,3.555,3.76c1.854,0.566,4.638,0.258,7.212-0.515c2.575-0.773,4.946-2.009,6.852-3.606
		c1.904-1.597,3.349-3.555,4.069-5.771c0.722-2.215,0.722-4.688,1.081-7.417c0.36-2.729,1.081-5.718,1.598-8.14
		c0.517-2.421,0.824-4.275,1.494-5.409c0.67-1.133,1.699-1.545,3.246-1.597c1.545-0.051,3.605,0.258,5.563,1.751
		c1.957,1.494,3.813,4.173,5.254,6.749c1.441,2.576,2.473,5.049,3.607,7.006c1.133,1.958,2.369,3.399,2.678,5.564
		c0.309,2.163-0.309,5.048-1.699,8.603c-1.391,3.554-3.555,7.779-6.13,11.745c-2.576,3.967-5.563,7.676-7.935,10.663
		c-2.369,2.988-4.121,5.254-5.101,7.676c-0.979,2.421-1.185,4.997-0.722,6.439c0.465,1.442,1.598,1.752,2.988,1.958
		c1.393,0.207,3.039,0.31,5.563-1.082c2.525-1.391,5.923-4.275,10.044-7.366c4.122-3.091,8.965-6.388,13.343-8.913
		c4.381-2.524,8.295-4.276,12.549-4.346c4.254-0.071,8.846,1.538,12.319,3.442c3.474,1.903,5.83,4.103,7.399,6.457
		c1.568,2.355,2.354,4.868,2.354,6.988c0,2.121-0.786,3.847-2.354,4.711c-1.569,0.864-3.926,0.864-7.695,1.257
		s-8.951,1.177-12.405,2.669c-3.455,1.492-5.182,3.69-6.358,6.281c-1.178,2.591-1.807,5.575-1.571,8.166
		c0.235,2.591,1.335,4.79,3.377,6.203c2.041,1.413,5.024,2.041,7.772,1.413c2.748-0.627,5.26-2.512,8.479-4.711
		c3.218-2.198,7.146-4.711,11.306-6.516c4.161-1.807,8.559-2.906,12.563-3.455c4.004-0.55,7.615-0.55,12.326,0.627
		c4.711,1.178,10.521,3.534,15.703,6.203c5.184,2.669,9.737,5.653,16.606,9.265c6.87,3.612,16.057,7.852,25.949,10.679
		C454.015,276.191,444.828,280.434,437.958,284.045z"/>
	<path fill="#FFFFFF" stroke="#58595B" stroke-width="1.5" stroke-miterlimit="10" d="M275,462.633
		c5.215-14.162,7.689-20.808,10.212-26.757c2.524-5.951,5.101-11.205,7.47-15.688c2.369-4.481,4.534-8.19,6.027-11.023
		c1.494-2.833,2.318-4.79,2.729-7.366c0.412-2.576,0.412-5.77,0-9.324c-0.412-3.554-1.234-7.47-2.523-11.281
		c-1.287-3.813-3.039-7.521-4.997-10.818c-1.959-3.296-4.121-6.182-5.306-8.396c-1.187-2.215-1.393-3.76-1.187-5.563
		c0.207-1.805,0.824-3.863,1.597-5.613c0.772-1.753,1.699-3.195,3.556-3.762c1.854-0.566,4.637-0.259,7.212,0.516
		c2.575,0.771,4.945,2.008,6.852,3.605c1.905,1.597,3.349,3.554,4.069,5.77c0.722,2.215,0.722,4.688,1.081,7.416
		c0.359,2.73,1.081,5.721,1.598,8.142c0.517,2.422,0.824,4.276,1.494,5.409c0.669,1.134,1.699,1.545,3.245,1.597
		s3.606-0.259,5.563-1.751c1.957-1.494,3.813-4.174,5.254-6.749s2.474-5.048,3.606-7.007c1.134-1.957,2.369-3.398,2.679-5.563
		c0.311-2.164-0.309-5.049-1.699-8.604s-3.555-7.778-6.131-11.744c-2.575-3.967-5.563-7.676-7.935-10.663
		c-2.368-2.987-4.121-5.255-5.1-7.675c-0.979-2.422-1.185-4.997-0.722-6.44c0.465-1.442,1.598-1.751,2.988-1.958
		c1.393-0.205,3.039-0.309,5.563,1.081c2.525,1.394,5.924,4.276,10.046,7.367c4.12,3.092,8.964,6.388,13.342,8.912
		c4.38,2.524,8.294,4.276,12.549,4.347c4.253,0.071,8.847-1.537,12.319-3.441c3.474-1.903,5.83-4.104,7.4-6.459
		c1.567-2.354,2.354-4.866,2.354-6.986s-0.787-3.848-2.354-4.71c-1.57-0.865-3.928-0.865-7.697-1.257
		c-3.769-0.394-8.949-1.178-12.404-2.67c-3.455-1.491-5.182-3.689-6.359-6.281c-1.177-2.592-1.806-5.574-1.57-8.165
		c0.236-2.593,1.334-4.791,3.377-6.203c2.041-1.414,5.025-2.041,7.772-1.414c2.747,0.628,5.261,2.513,8.479,4.711
		c3.218,2.198,7.144,4.71,11.305,6.517c4.162,1.806,8.559,2.904,12.563,3.455s7.617,0.551,12.328-0.627
		c4.711-1.179,10.521-3.533,15.703-6.203s9.736-5.653,16.604-9.266c6.871-3.611,16.058-7.854,25.95-10.678
		c-9.894-2.827-19.079-7.067-25.95-10.679c-6.868-3.612-11.423-6.596-16.604-9.265c-5.184-2.669-10.992-5.025-15.703-6.203
		c-4.711-1.177-8.324-1.177-12.328-0.627c-4.004,0.549-8.4,1.648-12.563,3.455c-4.161,1.805-8.087,4.318-11.305,6.516
		c-3.221,2.199-5.732,4.083-8.479,4.711c-2.748,0.628-5.731,0-7.773-1.414c-2.043-1.413-3.141-3.611-3.377-6.203
		c-0.234-2.591,0.394-5.574,1.57-8.166c1.178-2.591,2.904-4.789,6.359-6.281s8.637-2.277,12.404-2.669
		c3.771-0.393,6.125-0.393,7.697-1.257c1.567-0.863,2.354-2.59,2.354-4.711c0-2.12-0.787-4.632-2.354-6.988
		c-1.57-2.355-3.928-4.553-7.4-6.457c-3.473-1.904-8.066-3.514-12.319-3.442c-4.255,0.07-8.169,1.822-12.549,4.346
		c-4.378,2.524-9.222,5.821-13.342,8.913c-4.122,3.092-7.521,5.976-10.045,7.366c-2.524,1.392-4.173,1.289-5.563,1.082
		c-1.392-0.206-2.525-0.516-2.988-1.958c-0.463-1.443-0.258-4.018,0.722-6.44c0.979-2.421,2.729-4.688,5.1-7.675
		c2.371-2.988,5.357-6.697,7.935-10.664c2.576-3.966,4.74-8.191,6.131-11.745c1.392-3.555,2.009-6.44,1.699-8.603
		c-0.309-2.164-1.545-3.606-2.678-5.564c-1.135-1.958-2.164-4.431-3.607-7.006c-1.441-2.576-3.297-5.255-5.254-6.749
		c-1.959-1.494-4.02-1.803-5.563-1.751c-1.546,0.052-2.575,0.464-3.245,1.597s-0.979,2.988-1.494,5.409
		c-0.516,2.422-1.236,5.41-1.598,8.14c-0.359,2.73-0.359,5.203-1.081,7.417c-0.722,2.215-2.164,4.172-4.069,5.77
		c-1.906,1.597-4.275,2.833-6.852,3.606c-2.574,0.772-5.357,1.082-7.212,0.515c-1.854-0.566-2.782-2.009-3.556-3.76
		c-0.772-1.751-1.392-3.812-1.597-5.615c-0.206-1.803,0-3.349,1.187-5.563c1.185-2.215,3.347-5.1,5.306-8.396
		c1.958-3.296,3.71-7.006,4.997-10.818c1.288-3.812,2.111-7.727,2.523-11.282c0.412-3.554,0.412-6.748,0-9.324
		c-0.412-2.575-1.234-4.533-2.729-7.366c-1.493-2.833-3.658-6.542-6.027-11.023c-2.369-4.482-4.945-9.736-7.47-15.686
		c-2.524-5.95-4.997-12.595-10.212-26.758c-5.214,14.162-7.687,20.807-10.211,26.758c-2.524,5.95-5.1,11.204-7.469,15.686
		c-2.371,4.482-4.534,8.19-6.028,11.023s-2.319,4.791-2.73,7.366c-0.412,2.576-0.412,5.77,0,9.324
		c0.413,3.555,1.236,7.47,2.524,11.282c1.288,3.813,3.039,7.522,4.997,10.818s4.121,6.182,5.306,8.396
		c1.184,2.215,1.391,3.76,1.184,5.563c-0.206,1.803-0.824,3.863-1.597,5.615c-0.772,1.752-1.7,3.194-3.554,3.76
		c-1.855,0.566-4.636,0.258-7.212-0.515c-2.576-0.773-4.946-2.009-6.851-3.606c-1.907-1.597-3.349-3.555-4.07-5.77
		c-0.72-2.215-0.72-4.688-1.081-7.417c-0.361-2.73-1.082-5.718-1.597-8.14c-0.515-2.421-0.825-4.275-1.494-5.409
		c-0.669-1.133-1.7-1.545-3.246-1.597c-1.545-0.051-3.606,0.258-5.563,1.751c-1.958,1.494-3.812,4.173-5.254,6.749
		c-1.442,2.576-2.473,5.049-3.605,7.006c-1.133,1.958-2.37,3.399-2.679,5.564c-0.309,2.163,0.309,5.048,1.7,8.603
		c1.392,3.554,3.555,7.779,6.131,11.745c2.575,3.967,5.563,7.676,7.933,10.663c2.37,2.988,4.121,5.254,5.1,7.676
		c0.979,2.422,1.185,4.997,0.722,6.44c-0.464,1.442-1.597,1.752-2.988,1.958c-1.391,0.207-3.039,0.31-5.563-1.082
		c-2.524-1.391-5.924-4.275-10.045-7.366c-4.121-3.091-8.963-6.388-13.342-8.913c-4.379-2.525-8.293-4.276-12.548-4.346
		c-4.254-0.071-8.847,1.538-12.319,3.442c-3.474,1.903-5.83,4.103-7.399,6.457c-1.57,2.356-2.355,4.869-2.355,6.988
		c0,2.121,0.786,3.848,2.355,4.711c1.57,0.864,3.925,0.864,7.694,1.257c3.77,0.393,8.952,1.177,12.406,2.669
		c3.455,1.492,5.182,3.69,6.36,6.281c1.178,2.592,1.805,5.575,1.57,8.166c-0.234,2.591-1.335,4.79-3.376,6.203
		c-2.041,1.414-5.025,2.042-7.773,1.414c-2.749-0.627-5.26-2.512-8.48-4.711c-3.22-2.198-7.145-4.711-11.306-6.516
		c-4.162-1.807-8.559-2.906-12.563-3.455c-4.005-0.55-7.617-0.55-12.328,0.627c-4.711,1.178-10.521,3.534-15.704,6.203
		c-5.182,2.669-9.736,5.653-16.606,9.265s-16.057,7.852-25.95,10.679c9.893,2.826,19.08,7.066,25.95,10.678
		c6.871,3.611,11.424,6.596,16.606,9.266c5.182,2.67,10.993,5.024,15.704,6.203c4.711,1.178,8.323,1.178,12.328,0.627
		c4.003-0.549,8.401-1.647,12.563-3.455c4.161-1.807,8.087-4.317,11.306-6.517c3.219-2.198,5.731-4.083,8.48-4.711
		c2.749-0.627,5.731,0,7.773,1.414c2.041,1.412,3.141,3.61,3.376,6.203c0.236,2.591-0.393,5.573-1.57,8.165
		c-1.178,2.592-2.906,4.79-6.36,6.281c-3.455,1.492-8.636,2.276-12.406,2.67c-3.769,0.392-6.124,0.392-7.694,1.257
		c-1.57,0.862-2.355,2.591-2.355,4.71c0,2.121,0.786,4.633,2.355,6.986c1.57,2.355,3.925,4.556,7.399,6.459
		c3.474,1.904,8.065,3.514,12.319,3.441c4.253-0.07,8.168-1.822,12.548-4.347s9.221-5.82,13.342-8.912
		c4.121-3.091,7.521-5.976,10.045-7.367s4.173-1.286,5.563-1.081c1.391,0.207,2.524,0.516,2.988,1.958
		c0.463,1.441,0.257,4.019-0.722,6.44c-0.979,2.42-2.73,4.688-5.1,7.675c-2.37,2.987-5.357,6.696-7.933,10.663
		c-2.576,3.968-4.739,8.189-6.131,11.744c-1.391,3.555-2.009,6.439-1.7,8.604c0.309,2.165,1.546,3.606,2.679,5.563
		c1.133,1.958,2.163,4.43,3.605,7.006c1.442,2.576,3.296,5.255,5.254,6.749c1.958,1.492,4.019,1.803,5.563,1.751
		c1.546-0.052,2.576-0.463,3.246-1.597c0.669-1.133,0.979-2.987,1.494-5.409c0.515-2.421,1.236-5.409,1.597-8.142
		c0.361-2.729,0.361-5.201,1.081-7.416c0.722-2.216,2.164-4.172,4.07-5.77c1.905-1.598,4.275-2.834,6.851-3.605
		c2.576-0.773,5.357-1.082,7.212-0.516c1.854,0.566,2.782,2.009,3.554,3.762c0.772,1.75,1.391,3.811,1.597,5.613
		c0.206,1.805,0,3.35-1.184,5.563c-1.185,2.215-3.349,5.101-5.306,8.396c-1.958,3.298-3.709,7.008-4.997,10.818
		c-1.289,3.813-2.112,7.728-2.524,11.281c-0.412,3.556-0.412,6.748,0,9.324c0.413,2.575,1.236,4.533,2.73,7.366
		s3.657,6.542,6.028,11.023c2.369,4.481,4.945,9.735,7.469,15.688C267.313,441.825,269.785,448.471,275,462.633z"/>
	<path fill="#FFFFFF" stroke="#58595B" stroke-width="1.5" stroke-miterlimit="10" d="M486.484,302.789
		c-15.809,3.695-27.924,7.536-41.072,13.74c-13.149,6.205-27.332,14.773-40.482,23.787c-13.147,9.013-25.264,18.469-36.345,29.695
		c-11.081,11.229-21.126,24.229-28.957,35.311s-13.444,20.241-18.764,29.695c-5.318,9.456-10.343,19.206-15.069,36.05
		c-4.729,16.842-9.16,40.775-12.707,78.93h56.732c-0.887-26.629,2.66-42.584,6.797-56.325c4.138-13.74,8.865-25.265,14.922-36.198
		c6.059-10.934,13.443-21.274,22.9-32.207c9.455-10.934,20.979-22.457,32.503-31.616c11.523-9.16,23.048-15.955,33.094-21.275
		c10.046-5.316,18.615-9.16,26.595-12.114c7.979-2.956,15.364-5.022,24.598-6.723c9.234-1.699,20.314-3.028,38.769-3.028v-57.619
		C521.795,295.551,502.293,299.098,486.484,302.789z"/>
	<path fill="#FFFFFF" stroke="#58595B" stroke-width="1.5" stroke-miterlimit="10" d="M437.234,456.862
		c-4.436-4.213-6.293-5.091-7.784-4.922c-1.491,0.172-2.615,1.39-4.323,3.757c-1.707,2.367-3.997,5.883-8.311,14.883
		c-4.313,8.998-10.65,23.479-7.696,16.568c3.122-6.838-3.319,7.6-7.069,16.848c-3.751,9.248-4.81,13.309-5.41,16.164
		s-0.744,4.509,0.135,5.726c0.877,1.217,2.777,1.999,8.879,2.442c27.072,2.179,42.335,2.525,52.189,2.655
		c9.856,0.129,14.311,0.048,18.646-1.021c4.336-1.071,8.554-3.128,11.274-8.061c1.815-5.334,0.496-9.838-1.633-13.764
		c-2.128-3.927-5.064-7.273-11.799-14.475C467.603,486.465,457.072,475.412,437.234,456.862z"/>
	<path fill="#FFFFFF" stroke="#58595B" stroke-width="1.5" stroke-miterlimit="10" d="M527.397,405.611
		c-0.382-6.106-1.145-8.016-2.354-8.904c-1.208-0.891-2.862-0.764-5.724-0.191c-2.861,0.573-6.933,1.593-16.219,5.247
		c-9.284,3.658-23.785,9.953-16.916,6.9c6.939-2.886-7.604,3.308-16.646,7.53c-9.042,4.225-12.581,6.478-14.965,8.159
		c-2.385,1.685-3.615,2.798-3.8,4.286c-0.186,1.489,0.674,3.355,4.843,7.833c18.35,20.023,29.296,30.661,36.429,37.469
		c7.132,6.805,10.449,9.774,14.354,11.941c3.903,2.169,8.396,3.533,13.746,1.771c4.961-2.671,7.06-6.868,8.172-11.193
		c1.112-4.324,1.239-8.776,1.209-18.634C529.496,447.967,529.306,432.704,527.397,405.611z"/>
	<path fill="#FFFFFF" stroke="#58595B" stroke-width="1.5" stroke-miterlimit="10" d="M508.979,549.999
		c3.771-14.677,5.418-20.33,6.715-23.864c1.296-3.531,2.237-4.945,5.535-6.947c3.297-2.003,8.951-4.595,28.771-11.659v42.471
		H508.979L508.979,549.999z"/>
	<path fill="#FFFFFF" stroke="#58595B" stroke-width="1.5" stroke-miterlimit="10" d="M511.231,353.54
		c-9.234,1.699-16.621,3.769-24.599,6.722c-7.979,2.956-16.549,6.797-26.595,12.115s-21.57,12.114-33.094,21.275
		c-11.524,9.158-23.048,20.684-32.503,31.616c-9.457,10.934-16.844,21.274-22.9,32.207c-6.057,10.934-10.784,22.457-14.922,36.198
		c-4.139,13.739-7.684,29.695-6.797,56.325H508.98c3.769-14.677,5.417-20.33,6.713-23.864c1.296-3.531,2.237-4.945,5.536-6.947
		c3.296-2.003,8.95-4.594,28.77-11.659V350.512C531.546,350.512,520.465,351.841,511.231,353.54z M487.765,521.902
		c-2.722,4.933-6.938,6.988-11.274,8.061c-4.336,1.069-8.79,1.151-18.646,1.021c-9.855-0.131-25.118-0.476-52.191-2.654
		c-6.101-0.443-8-1.227-8.877-2.442c-0.879-1.218-0.735-2.869-0.135-5.726c0.602-2.854,1.658-6.916,5.409-16.164
		c2.314-5.707,5.65-13.385,7.136-16.824c-0.963,2.126-1.199,2.628-0.065-0.022c1.194-2.616,0.987-2.11,0.065,0.022
		c1.545-3.418,4.972-11.045,7.631-16.593c4.313-8.999,6.604-12.515,8.311-14.883c1.706-2.368,2.831-3.585,4.322-3.757
		c1.491-0.17,3.35,0.709,7.784,4.922c19.837,18.55,30.367,29.604,37.099,36.804c6.733,7.2,9.672,10.548,11.799,14.475
		C488.261,512.064,489.58,516.568,487.765,521.902z M528.319,476.459c-1.111,4.325-3.211,8.522-8.172,11.193
		c-5.353,1.763-9.844,0.397-13.746-1.771c-3.904-2.166-7.224-5.138-14.354-11.941c-7.133-6.808-18.079-17.444-36.43-37.469
		c-4.168-4.478-5.027-6.344-4.842-7.833c0.185-1.488,1.415-2.603,3.8-4.285c2.384-1.684,5.922-3.938,14.965-8.16
		c5.581-2.606,13.253-5.96,16.681-7.47c-2.153,0.903-2.67,1.11-0.034-0.061c2.655-1.105,2.159-0.876,0.034,0.061
		c3.459-1.452,11.159-4.707,16.882-6.962c9.285-3.655,13.356-4.674,16.219-5.247c2.86-0.571,4.516-0.698,5.724,0.191
		c1.209,0.89,1.972,2.798,2.354,8.904c1.906,27.094,2.098,42.354,2.13,52.214C529.56,467.683,529.433,472.135,528.319,476.459z"/>
	<path fill="#FFFFFF" stroke="#58595B" stroke-width="1.5" stroke-miterlimit="10" d="M247.208,486.483
		c-3.693-15.809-7.536-27.924-13.739-41.071c-6.205-13.149-14.775-27.332-23.788-40.483c-9.011-13.146-18.468-25.262-29.695-36.343
		c-11.228-11.082-24.231-21.127-35.311-28.959c-11.081-7.829-20.24-13.441-29.695-18.763c-9.457-5.318-19.208-10.343-36.05-15.069
		c-16.843-4.729-40.776-9.16-78.929-12.707v56.732c26.629-0.885,42.585,2.66,56.325,6.798c13.741,4.137,25.265,8.864,36.198,14.922
		c10.932,6.058,21.274,13.444,32.207,22.899c10.933,9.454,22.457,20.979,31.617,32.503c9.16,11.523,15.956,23.049,21.274,33.095
		c5.32,10.045,9.16,18.615,12.115,26.594c2.954,7.979,5.023,15.364,6.721,24.6c1.7,9.233,3.03,20.313,3.03,38.768h57.619
		C254.449,521.795,250.902,502.292,247.208,486.483z"/>
	<path fill="#FFFFFF" stroke="#58595B" stroke-width="1.5" stroke-miterlimit="10" d="M93.138,437.234
		c4.212-4.437,5.091-6.293,4.921-7.784c-0.171-1.491-1.39-2.616-3.756-4.324c-2.368-1.707-5.883-3.996-14.881-8.311
		c-9-4.313-23.482-10.65-16.57-7.696c6.836,3.123-7.6-3.319-16.848-7.069c-9.246-3.75-13.307-4.809-16.163-5.41
		c-2.857-0.6-4.509-0.743-5.726,0.137c-1.217,0.877-2,2.776-2.443,8.878c-2.179,27.072-2.524,42.335-2.654,52.19
		s-0.05,14.311,1.021,18.646c1.069,4.336,3.126,8.555,8.059,11.275c5.333,1.815,9.838,0.496,13.764-1.633
		c3.926-2.129,7.274-5.065,14.474-11.799C63.537,467.603,74.587,457.072,93.138,437.234z"/>
	<path fill="#FFFFFF" stroke="#58595B" stroke-width="1.5" stroke-miterlimit="10" d="M144.388,527.396
		c6.107-0.382,8.015-1.144,8.903-2.353c0.891-1.209,0.764-2.863,0.191-5.725c-0.573-2.862-1.59-6.933-5.247-16.219
		c-3.656-9.284-9.953-23.784-6.9-16.916c2.886,6.939-3.306-7.604-7.53-16.646c-4.224-9.042-6.477-12.581-8.159-14.965
		c-1.684-2.386-2.797-3.616-4.286-3.801c-1.49-0.185-3.356,0.674-7.833,4.842c-20.024,18.352-30.663,29.298-37.467,36.431
		c-6.807,7.132-9.775,10.449-11.943,14.354c-2.167,3.901-3.532,8.394-1.77,13.744c2.672,4.962,6.869,7.061,11.192,8.174
		c4.326,1.112,8.777,1.239,18.636,1.208C102.032,529.495,117.296,529.306,144.388,527.396z"/>
	<path fill="#FFFFFF" stroke="#58595B" stroke-width="1.5" stroke-miterlimit="10" d="M0.001,508.979
		c14.677,3.77,20.329,5.418,23.863,6.715c3.535,1.296,4.948,2.236,6.948,5.535c2.003,3.297,4.595,8.951,11.661,28.771H0.001V508.979
		z"/>
	<path fill="#FFFFFF" stroke="#58595B" stroke-width="1.5" stroke-miterlimit="10" d="M196.459,511.231
		c-1.698-9.235-3.767-16.621-6.721-24.6c-2.956-7.979-6.797-16.549-12.116-26.594c-5.318-10.046-12.115-21.57-21.274-33.095
		c-9.161-11.524-20.684-23.049-31.617-32.503c-10.933-9.456-21.275-16.843-32.207-22.899c-10.933-6.059-22.457-10.785-36.198-14.922
		c-13.739-4.139-29.695-7.682-56.325-6.798V508.98c14.677,3.769,20.329,5.416,23.863,6.714c3.535,1.296,4.948,2.236,6.948,5.536
		c2.003,3.296,4.595,8.95,11.661,28.77H199.49C199.489,531.546,198.159,520.465,196.459,511.231z M28.097,487.765
		c-4.932-2.722-6.99-6.939-8.059-11.275c-1.071-4.335-1.153-8.789-1.021-18.646c0.131-9.855,0.475-25.118,2.654-52.19
		c0.443-6.102,1.226-8.001,2.443-8.878c1.216-0.879,2.869-0.735,5.726-0.136c2.855,0.602,6.917,1.659,16.163,5.409
		c5.707,2.315,13.385,5.65,16.826,7.136c-2.126-0.963-2.628-1.198,0.022-0.065c2.617,1.195,2.111,0.988-0.022,0.065
		c3.416,1.547,11.045,4.973,16.593,7.631c8.998,4.313,12.513,6.604,14.881,8.311c2.366,1.707,3.584,2.832,3.756,4.323
		c0.17,1.491-0.708,3.349-4.921,7.784c-18.55,19.837-29.603,30.367-36.803,37.099c-7.2,6.732-10.548,9.671-14.474,11.799
		C37.935,488.261,33.431,489.58,28.097,487.765z M73.54,528.319c-4.324-1.112-8.521-3.212-11.192-8.173
		c-1.762-5.353-0.398-9.844,1.77-13.745c2.167-3.904,5.137-7.224,11.943-14.354c6.805-7.133,17.443-18.079,37.467-36.431
		c4.478-4.168,6.344-5.026,7.833-4.842c1.489,0.185,2.602,1.415,4.286,3.801c1.682,2.384,3.936,5.922,8.159,14.965
		c2.607,5.58,5.961,13.253,7.469,16.68c-0.902-2.152-1.111-2.67,0.06-0.033c1.105,2.655,0.877,2.158-0.06,0.033
		c1.453,3.46,4.707,11.158,6.961,16.882c3.657,9.285,4.674,13.357,5.247,16.219c0.572,2.86,0.7,4.516-0.191,5.725
		c-0.889,1.209-2.796,1.971-8.903,2.354c-27.092,1.907-42.356,2.098-52.212,2.13C82.317,529.56,77.866,529.433,73.54,528.319z"/>
	<path fill="#FFFFFF" stroke="#58595B" stroke-width="1.5" stroke-miterlimit="10" d="M486.484,247.209
		c-15.809-3.694-27.924-7.536-41.072-13.74c-13.149-6.205-27.332-14.774-40.482-23.787c-13.147-9.013-25.264-18.469-36.345-29.696
		c-11.081-11.228-21.126-24.23-28.957-35.31c-7.831-11.08-13.444-20.24-18.764-29.695c-5.318-9.456-10.343-19.207-15.069-36.049
		c-4.729-16.843-9.16-40.777-12.707-78.93h56.732c-0.887,26.629,2.66,42.585,6.797,56.326c4.138,13.74,8.865,25.264,14.922,36.198
		c6.059,10.933,13.443,21.274,22.9,32.208c9.455,10.933,20.979,22.456,32.503,31.617c11.522,9.16,23.048,15.956,33.094,21.274
		s18.615,9.161,26.595,12.115c7.979,2.955,15.364,5.023,24.598,6.722c9.234,1.699,20.314,3.029,38.769,3.029v57.62
		C521.795,254.449,502.293,250.903,486.484,247.209z"/>
	<path fill="#FFFFFF" stroke="#58595B" stroke-width="1.5" stroke-miterlimit="10" d="M437.234,93.138
		c-4.436,4.213-6.293,5.091-7.784,4.922c-1.491-0.171-2.615-1.39-4.323-3.757c-1.707-2.367-3.997-5.883-8.311-14.881
		c-4.313-9-10.65-23.482-7.696-16.57c3.122,6.837-3.319-7.599-7.069-16.847c-3.751-9.248-4.81-13.308-5.41-16.164
		c-0.601-2.856-0.744-4.508,0.135-5.726c0.877-1.217,2.777-2,8.879-2.443c27.072-2.179,42.335-2.524,52.189-2.654
		c9.856-0.13,14.311-0.049,18.646,1.021c4.336,1.07,8.554,3.126,11.274,8.06c1.815,5.334,0.496,9.838-1.633,13.764
		c-2.128,3.926-5.064,7.274-11.799,14.474C467.603,63.535,457.072,74.587,437.234,93.138z"/>
	<path fill="#FFFFFF" stroke="#58595B" stroke-width="1.5" stroke-miterlimit="10" d="M527.397,144.389
		c-0.382,6.106-1.145,8.014-2.354,8.903c-1.208,0.891-2.862,0.764-5.724,0.191c-2.861-0.573-6.933-1.591-16.219-5.247
		c-9.284-3.657-23.785-9.953-16.916-6.9c6.939,2.885-7.604-3.307-16.646-7.53c-9.042-4.224-12.581-6.478-14.965-8.16
		c-2.385-1.684-3.615-2.797-3.8-4.286c-0.186-1.49,0.674-3.356,4.843-7.833c18.35-20.023,29.296-30.662,36.429-37.467
		c7.132-6.806,10.449-9.775,14.354-11.943c3.903-2.168,8.396-3.532,13.746-1.77c4.961,2.672,7.06,6.869,8.172,11.193
		c1.112,4.325,1.239,8.777,1.209,18.635C529.496,102.033,529.306,117.296,527.397,144.389z"/>
	<path fill="#FFFFFF" stroke="#58595B" stroke-width="1.5" stroke-miterlimit="10" d="M508.979,0.001
		c3.771,14.677,5.418,20.33,6.715,23.864c1.296,3.534,2.237,4.947,5.535,6.948c3.297,2.003,8.951,4.594,28.771,11.661V0.001H508.979
		z"/>
	<path fill="#FFFFFF" stroke="#58595B" stroke-width="1.5" stroke-miterlimit="10" d="M549.999,199.489V42.472
		c-19.819-7.065-25.474-9.656-28.771-11.66c-3.298-2-4.239-3.415-5.534-6.948c-1.297-3.534-2.945-9.188-6.714-23.864H349.822
		c-0.887,26.629,2.658,42.585,6.797,56.326c4.138,13.74,8.865,25.264,14.923,36.198c6.058,10.933,13.442,21.274,22.899,32.207
		c9.455,10.934,20.979,22.457,32.503,31.617c11.522,9.16,23.048,15.956,33.094,21.274s18.615,9.161,26.595,12.116
		c7.979,2.955,15.364,5.022,24.599,6.722C520.465,198.16,531.546,199.489,549.999,199.489z M486.133,41.86
		c-2.128,3.926-5.064,7.274-11.799,14.474c-6.731,7.201-17.262,18.252-37.099,36.803c-4.436,4.213-6.293,5.091-7.784,4.922
		c-1.491-0.171-2.615-1.39-4.323-3.757c-1.707-2.367-3.997-5.883-8.31-14.881c-2.659-5.548-6.086-13.176-7.631-16.594
		c0.92,2.133,1.129,2.641-0.065,0.022c-1.134-2.65-0.896-2.149,0.065-0.022c-1.484-3.44-4.82-11.118-7.136-16.825
		c-3.751-9.248-4.81-13.308-5.409-16.164c-0.602-2.856-0.744-4.508,0.135-5.726c0.877-1.217,2.777-2,8.877-2.443
		c27.073-2.179,42.336-2.524,52.191-2.654c9.855-0.13,14.311-0.049,18.646,1.021c4.336,1.07,8.554,3.127,11.274,8.06
		C489.58,33.432,488.261,37.936,486.133,41.86z M529.528,92.176c-0.032,9.857-0.224,25.122-2.131,52.213
		c-0.382,6.106-1.145,8.014-2.354,8.903c-1.208,0.891-2.862,0.764-5.724,0.191c-2.861-0.573-6.933-1.591-16.219-5.247
		c-5.723-2.254-13.423-5.509-16.883-6.961c2.125,0.937,2.622,1.165-0.033,0.06c-2.635-1.171-2.119-0.963,0.033-0.06
		c-3.427-1.51-11.099-4.863-16.68-7.469c-9.042-4.224-12.581-6.478-14.965-8.16c-2.385-1.684-3.615-2.797-3.8-4.286
		c-0.186-1.49,0.674-3.356,4.843-7.833c18.35-20.023,29.296-30.662,36.429-37.467c7.132-6.805,10.449-9.775,14.354-11.943
		c3.903-2.168,8.396-3.532,13.746-1.77c4.961,2.672,7.06,6.869,8.172,11.193C529.433,77.866,529.56,82.318,529.528,92.176z"/>
	<path fill="#FFFFFF" stroke="#58595B" stroke-width="1.5" stroke-miterlimit="10" d="M247.208,63.517
		c-3.693,15.809-7.536,27.923-13.739,41.072c-6.205,13.15-14.775,27.333-23.788,40.483c-9.011,13.147-18.468,25.263-29.695,36.344
		c-11.228,11.081-24.231,21.126-35.311,28.959c-11.081,7.829-20.24,13.443-29.695,18.762c-9.457,5.318-19.208,10.342-36.05,15.069
		c-16.843,4.729-40.776,9.161-78.929,12.706v-56.733c26.629,0.885,42.585-2.66,56.325-6.796
		c13.741-4.137,25.265-8.864,36.198-14.921c10.932-6.058,21.274-13.446,32.207-22.9c10.933-9.455,22.457-20.979,31.617-32.503
		c9.16-11.524,15.956-23.048,21.274-33.094c5.32-10.046,9.16-18.616,12.115-26.593c2.954-7.979,5.023-15.365,6.721-24.6
		c1.7-9.234,3.03-20.314,3.03-38.768h57.619C254.449,28.205,250.902,47.708,247.208,63.517z"/>
	<path fill="#FFFFFF" stroke="#58595B" stroke-width="1.5" stroke-miterlimit="10" d="M93.138,112.765
		c4.212,4.436,5.091,6.293,4.921,7.784c-0.171,1.491-1.39,2.617-3.756,4.324c-2.368,1.708-5.883,3.996-14.881,8.311
		c-9,4.312-23.482,10.651-16.57,7.697c6.836-3.123-7.6,3.32-16.848,7.069c-9.246,3.75-13.307,4.809-16.163,5.41
		c-2.857,0.601-4.509,0.745-5.726-0.135c-1.217-0.877-2-2.777-2.443-8.879c-2.179-27.073-2.524-42.334-2.654-52.19
		c-0.13-9.857-0.05-14.31,1.021-18.646c1.069-4.335,3.126-8.554,8.059-11.276c5.333-1.815,9.838-0.497,13.764,1.632
		c3.926,2.129,7.274,5.067,14.474,11.799C63.537,82.396,74.587,92.927,93.138,112.765z"/>
	<path fill="#FFFFFF" stroke="#58595B" stroke-width="1.5" stroke-miterlimit="10" d="M144.388,22.602
		c6.107,0.383,8.015,1.145,8.903,2.354c0.891,1.208,0.764,2.862,0.191,5.724c-0.572,2.861-1.59,6.933-5.247,16.217
		c-3.656,9.286-9.953,23.786-6.9,16.917c2.886-6.94-3.306,7.604-7.53,16.646c-4.224,9.042-6.477,12.582-8.159,14.965
		c-1.684,2.385-2.797,3.616-4.286,3.801c-1.49,0.183-3.356-0.674-7.833-4.843C93.503,76.031,82.864,65.085,76.06,57.953
		c-6.807-7.132-9.775-10.449-11.943-14.355c-2.167-3.903-3.532-8.394-1.77-13.745c2.672-4.96,6.869-7.06,11.192-8.172
		c4.326-1.114,8.777-1.241,18.636-1.209C102.032,20.504,117.296,20.694,144.388,22.602z"/>
	<path fill="#FFFFFF" stroke="#58595B" stroke-width="1.5" stroke-miterlimit="10" d="M0.001,41.021
		c14.677-3.77,20.329-5.417,23.863-6.714c3.535-1.296,4.948-2.238,6.948-5.536C32.815,25.474,35.407,19.819,42.473,0H0.001V41.021z"
		/>
	<path fill="#FFFFFF" stroke="#58595B" stroke-width="1.5" stroke-miterlimit="10" d="M199.489,0.001H42.472
		c-7.065,19.82-9.657,25.474-11.661,28.771c-2,3.298-3.415,4.24-6.948,5.536C20.33,35.604,14.677,37.252,0,41.022v159.157
		c26.629,0.885,42.585-2.66,56.325-6.796c13.741-4.137,25.265-8.864,36.198-14.921c10.932-6.058,21.274-13.446,32.207-22.9
		c10.933-9.455,22.457-20.979,31.617-32.503c9.16-11.524,15.956-23.048,21.274-33.094c5.319-10.046,9.159-18.616,12.116-26.593
		c2.954-7.979,5.023-15.365,6.721-24.6C198.159,29.535,199.489,18.454,199.489,0.001z M41.86,63.867
		c3.926,2.129,7.274,5.067,14.474,11.799c7.201,6.732,18.252,17.262,36.803,37.1c4.212,4.436,5.091,6.293,4.921,7.784
		c-0.171,1.491-1.39,2.617-3.756,4.324c-2.368,1.708-5.883,3.996-14.881,8.311c-5.548,2.658-13.177,6.083-16.594,7.63
		c2.133-0.92,2.64-1.129,0.022,0.066c-2.65,1.133-2.149,0.896-0.022-0.066c-3.441,1.485-11.119,4.821-16.826,7.135
		c-9.247,3.75-13.307,4.809-16.163,5.41c-2.857,0.601-4.509,0.745-5.726-0.135c-1.217-0.877-2-2.777-2.443-8.879
		c-2.179-27.073-2.524-42.333-2.654-52.19c-0.13-9.857-0.05-14.31,1.021-18.646c1.069-4.335,3.127-8.554,8.059-11.276
		C33.431,60.42,37.935,61.739,41.86,63.867z M92.176,20.473c9.856,0.032,25.122,0.222,52.212,2.129
		c6.107,0.383,8.015,1.145,8.903,2.354c0.891,1.208,0.764,2.862,0.191,5.724c-0.572,2.861-1.59,6.933-5.247,16.217
		c-2.254,5.724-5.508,13.423-6.961,16.883c0.938-2.124,1.166-2.623,0.06,0.034c-1.171,2.636-0.962,2.119-0.06-0.034
		c-1.509,3.427-4.862,11.099-7.469,16.679c-4.224,9.042-6.477,12.582-8.159,14.965c-1.684,2.385-2.797,3.616-4.286,3.801
		c-1.49,0.184-3.356-0.674-7.833-4.843c-20.024-18.351-30.664-29.297-37.468-36.43c-6.807-7.132-9.775-10.449-11.943-14.355
		c-2.167-3.903-3.532-8.394-1.77-13.745c2.672-4.96,6.869-7.06,11.192-8.172C77.866,20.567,82.317,20.439,92.176,20.473z"/>
</g>
</svg>
