<?xml version="1.0" encoding="utf-8"?>
<!-- Generator: Adobe Illustrator 16.0.0, SVG Export Plug-In . SVG Version: 6.00 Build 0)  -->
<!DOCTYPE svg PUBLIC "-//W3C//DTD SVG 1.1//EN" "http://www.w3.org/Graphics/SVG/1.1/DTD/svg11.dtd" [
	<!ENTITY ns_flows "http://ns.adobe.com/Flows/1.0/">
	<!ENTITY ns_extend "http://ns.adobe.com/Extensibility/1.0/">
	<!ENTITY ns_ai "http://ns.adobe.com/AdobeIllustrator/10.0/">
	<!ENTITY ns_graphs "http://ns.adobe.com/Graphs/1.0/">
]>
<svg version="1.1" id="Layer_1" xmlns:x="&ns_extend;" xmlns:i="&ns_ai;" xmlns:graph="&ns_graphs;"
	 xmlns="http://www.w3.org/2000/svg" xmlns:xlink="http://www.w3.org/1999/xlink" xmlns:a="http://ns.adobe.com/AdobeSVGViewerExtensions/3.0/"
	 x="0px" y="0px" width="550px" height="550px" viewBox="0 0 550 550" enable-background="new 0 0 550 550" xml:space="preserve">
<g>
	<polygon fill="#FFFFFF" stroke="#58595B" stroke-width="1.5" stroke-miterlimit="10" points="275.258,549.989 549.677,549.989 
		549.677,495.017 329.174,495.017 	"/>
	<polygon fill="#FFFFFF" stroke="#58595B" stroke-width="1.5" stroke-miterlimit="10" points="220.842,496.461 219.374,495.017 
		0.323,495.017 0.323,549.989 274.73,549.989 	"/>
	<polygon fill="#FFFFFF" stroke="#58595B" stroke-width="1.5" stroke-miterlimit="10" points="275.258,0 549.677,0 549.677,54.974 
		329.174,54.974 	"/>
	<polygon fill="#FFFFFF" stroke="#58595B" stroke-width="1.5" stroke-miterlimit="10" points="220.842,53.529 219.374,54.974 
		0.323,54.974 0.323,0 274.73,0 	"/>
	<polygon fill="#FFFFFF" stroke="#58595B" stroke-width="1.5" stroke-miterlimit="10" points="186.514,462.645 185.507,461.649 
		0.323,461.649 0.323,495.118 219.537,495.118 	"/>
	<polygon fill="#FFFFFF" stroke="#58595B" stroke-width="1.5" stroke-miterlimit="10" points="361.84,461.649 329.015,495.118 
		550,495.118 550,461.649 	"/>
	<polygon fill="#FFFFFF" stroke="#58595B" stroke-width="1.5" stroke-miterlimit="10" points="186.514,87.345 185.507,88.341 
		0.323,88.341 0.323,54.872 219.537,54.872 	"/>
	<polygon fill="#FFFFFF" stroke="#58595B" stroke-width="1.5" stroke-miterlimit="10" points="361.84,88.341 329.015,54.872 
		550,54.872 550,88.341 	"/>
	<path fill="#FFFFFF" stroke="#58595B" stroke-width="1.5" stroke-miterlimit="10" d="M0,88.092v33.097
		c0.038,0.033,0.074,0.067,0.112,0.101v-2.369l82.019,76.285L185.501,88.341L0,88.092z"/>
	<polygon fill="#FFFFFF" stroke="#58595B" stroke-width="1.5" stroke-miterlimit="10" points="80.722,357.582 0.112,433.264 
		0,461.588 185.834,461.588 	"/>
	<polygon fill="#FFFFFF" stroke="#58595B" stroke-width="1.5" stroke-miterlimit="10" points="465.061,195.5 549.839,118.998 
		549.839,88.092 361.959,88.376 	"/>
	<polygon fill="#FFFFFF" stroke="#58595B" stroke-width="1.5" stroke-miterlimit="10" points="463.072,358.046 361.522,461.588 
		549.839,461.588 549.839,433.227 	"/>
	<path fill="#FFFFFF" stroke="#58595B" stroke-width="1.5" stroke-miterlimit="10" d="M465.061,195.689L274.997,0.011
		l-55.996,55.428L185.567,89.4L82.13,195.395L0.112,119.11v314.344l80.61-75.683l105.792,104.678l34.329,33.758L274.997,550
		l188.075-191.767l86.811,75.22V119.147L465.061,195.689z M2.051,161.656l51.592,53.514l-40.232,37.37l-11.36-8.347V161.656z
		 M2.262,395.486l0.324-81.813L273.693,47.101l168.561,172.097l-34.882,37.803l-133.13-137.256L2.262,395.486z M389.682,278.108
		L274.127,395.861L155.702,277.388l118.426-119.908L389.682,278.108z M547.984,397.592l-56.92-56.589l43.063-43.082l13.857,19.057
		V397.592z M274.325,512.555L96.327,337.357l37.321-34.463l138.264,133.377l276.031-274.574l0.041,82.495L274.325,512.555z"/>
	<polygon fill="#FFFFFF" stroke="#58595B" stroke-width="1.5" stroke-miterlimit="10" points="2.586,313.673 273.693,47.101 
		442.255,219.197 407.373,257 274.242,119.745 2.262,395.486 	"/>
	<polygon fill="#FFFFFF" stroke="#58595B" stroke-width="1.5" stroke-miterlimit="10" points="547.984,397.592 491.064,341.003 
		534.127,297.919 547.984,316.977 	"/>
	<polygon fill="#FFFFFF" stroke="#58595B" stroke-width="1.5" stroke-miterlimit="10" points="2.051,244.193 13.412,252.54 
		53.644,215.17 2.051,161.656 	"/>
	<polygon fill="#FFFFFF" stroke="#58595B" stroke-width="1.5" stroke-miterlimit="10" points="547.984,244.193 274.325,512.555 
		96.327,337.357 133.648,302.893 271.912,436.271 547.943,161.697 	"/>
	<path fill="#FFFFFF" stroke="#58595B" stroke-width="1.5" stroke-miterlimit="10" d="M274.127,157.48L155.702,277.388
		l118.426,118.474l115.554-117.755L274.127,157.48z M350.807,295.738c-3.655,3.71-7.259,6.801-9.475,8.655
		c-2.214,1.854-3.039,2.473-4.634,2.267s-3.964-1.236-7.775-3.245c-3.813-2.009-9.064-4.997-14.367-7.985
		c-5.304-2.987-10.659-5.975-14.108-7.418c-3.451-1.44-4.996-1.337-6.334-0.668c-1.339,0.668-2.472,1.906-3.604,3.863
		s-2.266,4.637-2.832,7.882s-0.566,7.057,0.153,9.529c0.722,2.473,2.163,3.606,3.605,4.585c1.442,0.979,2.884,1.802,4.634,3.04
		c1.751,1.235,3.812,2.885,5.765,5.365c1.957,2.481,3.808,5.796,5.115,8.027c1.308,2.232,2.075,3.383,2.267,4.313
		c0.191,0.931-0.191,1.644-0.821,2.874c-0.629,1.234-1.506,2.984-4.351,6.517c-2.846,3.531-7.662,8.843-11.904,12.813
		c-4.241,3.97-7.908,6.598-10.429,8.484c-2.521,1.886-3.893,3.03-5.375,3.59c-1.481,0.56-3.071,0.537-4.491,0.107
		c-1.421-0.428-2.672-1.263-4.757-2.724s-5.004-3.547-8.092-6.468c-3.086-2.921-6.339-6.675-9.801-10.306
		c-3.461-3.63-7.131-7.136-9.3-9.348c-2.169-2.211-2.837-3.13-2.253-4.798c0.585-1.669,2.419-4.089,5.798-8.387
		s8.301-10.475,11.554-14.438c3.253-3.965,4.838-5.717,5.631-7.678c0.793-1.96,0.792-4.131,0.418-6.133
		c-0.376-2.001-1.127-3.838-2.503-5.426c-1.375-1.585-3.378-2.919-5.339-3.629c-1.959-0.708-3.879-0.793-6.631,0.251
		c-2.753,1.043-6.34,3.214-10.177,5.925c-3.837,2.711-7.925,5.966-11.888,8.595c-3.962,2.628-7.8,4.632-10.176,5.925
		c-2.378,1.294-3.295,1.878-5.172,0.75c-1.877-1.127-4.712-3.963-9.446-9.325s-11.366-13.248-20.87-26.116
		c9.504-12.869,16.136-20.755,20.87-26.117c4.734-5.362,7.57-8.2,9.446-9.326c1.877-1.127,2.794-0.542,5.172,0.751
		c2.376,1.293,6.214,3.296,10.176,5.926c3.963,2.628,8.051,5.882,11.888,8.595c3.837,2.711,7.424,4.882,10.177,5.924
		c2.752,1.043,4.67,0.96,6.631,0.251c1.96-0.709,3.964-2.045,5.339-3.63c1.376-1.586,2.126-3.421,2.503-5.424
		c0.375-2.003,0.375-4.173-0.418-6.135c-0.793-1.961-2.376-3.713-5.631-7.677c-3.252-3.964-8.175-10.139-11.554-14.438
		c-3.377-4.297-5.213-6.718-5.798-8.388c-0.584-1.668,0.083-2.587,2.253-4.798c2.168-2.21,5.838-5.716,9.3-9.346
		c3.462-3.63,6.716-7.385,9.801-10.307c3.088-2.921,6.006-5.007,8.092-6.468s3.336-2.295,4.757-2.724
		c1.42-0.429,3.009-0.452,4.491,0.108c1.482,0.561,2.854,1.704,5.375,3.591c2.521,1.886,6.188,4.515,10.429,8.485
		c4.242,3.969,9.059,9.28,11.904,12.812s3.722,5.285,4.351,6.516c0.629,1.232,1.013,1.944,0.821,2.875
		c-0.191,0.93-0.958,2.081-2.267,4.312s-3.16,5.546-5.115,8.027c-1.954,2.482-4.014,4.13-5.765,5.366
		c-1.75,1.236-3.191,2.061-4.634,3.039c-1.441,0.979-2.884,2.112-3.605,4.585c-0.72,2.473-0.72,6.286-0.153,9.531
		c0.566,3.245,1.699,5.923,2.832,7.882c1.133,1.957,2.266,3.193,3.604,3.863c1.338,0.669,2.884,0.772,6.334-0.669
		c3.448-1.442,8.805-4.43,14.108-7.418c5.304-2.987,10.556-5.975,14.367-7.983c3.81-2.009,6.179-3.04,7.775-3.246
		c1.596-0.206,2.42,0.413,4.634,2.266c2.214,1.855,5.819,4.946,9.475,8.655c3.657,3.709,7.364,8.037,10.299,11.261
		c2.936,3.226,5.098,5.35,7.9,9.473c-2.803,4.123-4.964,6.247-7.9,9.473C358.171,287.703,354.463,292.03,350.807,295.738z"/>
	<path fill="#FFFFFF" stroke="#58595B" stroke-width="1.5" stroke-miterlimit="10" d="M178.837,275.006
		c9.504,12.868,16.136,20.754,20.87,26.117c4.734,5.361,7.57,8.197,9.446,9.324c1.877,1.128,2.794,0.544,5.172-0.75
		c2.376-1.293,6.214-3.297,10.176-5.925c3.964-2.628,8.051-5.883,11.888-8.595c3.837-2.713,7.424-4.882,10.177-5.925
		c2.752-1.045,4.67-0.959,6.631-0.251c1.959,0.709,3.963,2.044,5.339,3.63c1.376,1.587,2.126,3.422,2.503,5.425
		c0.375,2.002,0.375,4.173-0.418,6.133c-0.793,1.961-2.376,3.713-5.631,7.678c-3.252,3.964-8.175,10.141-11.554,14.438
		c-3.377,4.299-5.213,6.719-5.798,8.388c-0.584,1.67,0.083,2.587,2.252,4.798c2.168,2.212,5.839,5.718,9.301,9.348
		c3.461,3.631,6.715,7.385,9.801,10.306c3.088,2.921,6.006,5.007,8.092,6.468c2.085,1.462,3.336,2.295,4.757,2.724
		c1.42,0.429,3.009,0.453,4.491-0.107c1.481-0.56,2.854-1.704,5.375-3.59c2.521-1.887,6.188-4.515,10.429-8.484
		c4.242-3.97,9.059-9.281,11.904-12.813c2.845-3.532,3.722-5.282,4.351-6.517c0.629-1.23,1.013-1.943,0.821-2.874
		c-0.191-0.93-0.958-2.08-2.267-4.313c-1.309-2.231-3.16-5.547-5.115-8.028c-1.954-2.479-4.014-4.129-5.764-5.364
		c-1.751-1.237-3.193-2.061-4.635-3.039c-1.441-0.979-2.885-2.114-3.604-4.587c-0.722-2.473-0.722-6.284-0.155-9.528
		c0.566-3.245,1.7-5.925,2.833-7.882c1.133-1.958,2.266-3.195,3.604-3.863c1.338-0.669,2.884-0.772,6.334,0.668
		c3.449,1.443,8.805,4.431,14.108,7.418c5.304,2.988,10.556,5.977,14.366,7.985c3.812,2.007,6.18,3.04,7.776,3.245
		c1.596,0.206,2.42-0.413,4.634-2.267c2.214-1.854,5.819-4.945,9.475-8.655c3.657-3.708,7.364-8.035,10.299-11.26
		c2.936-3.226,5.098-5.351,7.899-9.473c-2.802-4.123-4.963-6.247-7.899-9.472c-2.935-3.226-6.643-7.553-10.299-11.261
		c-3.655-3.709-7.26-6.799-9.475-8.654c-2.214-1.854-3.039-2.473-4.634-2.267c-1.596,0.206-3.965,1.236-7.776,3.246
		c-3.811,2.009-9.063,4.997-14.366,7.984c-5.304,2.988-10.659,5.976-14.108,7.417c-3.451,1.441-4.996,1.34-6.334,0.669
		c-1.339-0.669-2.472-1.906-3.604-3.863c-1.134-1.958-2.267-4.637-2.833-7.883c-0.566-3.246-0.566-7.057,0.155-9.53
		c0.72-2.473,2.162-3.605,3.604-4.584c1.441-0.979,2.884-1.804,4.635-3.04c1.75-1.236,3.811-2.885,5.764-5.365
		c1.956-2.481,3.808-5.796,5.115-8.028c1.308-2.231,2.075-3.382,2.267-4.312c0.19-0.931-0.191-1.642-0.821-2.875
		c-0.629-1.232-1.506-2.984-4.351-6.516c-2.847-3.531-7.662-8.842-11.904-12.813c-4.241-3.969-7.907-6.597-10.429-8.484
		c-2.52-1.886-3.894-3.03-5.375-3.591c-1.481-0.561-3.071-0.537-4.491-0.107c-1.421,0.428-2.672,1.264-4.757,2.724
		s-5.005,3.547-8.092,6.468c-3.086,2.921-6.339,6.677-9.801,10.307c-3.461,3.63-7.132,7.136-9.301,9.347
		c-2.169,2.211-2.836,3.129-2.252,4.797c0.585,1.67,2.419,4.09,5.798,8.388c3.378,4.298,8.301,10.474,11.554,14.438
		c3.253,3.963,4.838,5.716,5.631,7.677c0.793,1.96,0.792,4.131,0.418,6.134c-0.376,2.002-1.127,3.839-2.503,5.425
		c-1.375,1.584-3.378,2.92-5.339,3.63c-1.96,0.708-3.879,0.792-6.631-0.25c-2.753-1.043-6.34-3.213-10.177-5.924
		c-3.837-2.713-7.924-5.967-11.888-8.596c-3.962-2.629-7.8-4.631-10.176-5.925c-2.378-1.293-3.295-1.878-5.172-0.751
		c-1.877,1.126-4.712,3.964-9.446,9.326C194.974,254.251,188.342,262.138,178.837,275.006z"/>
</g>
</svg>
