<?xml version="1.0" encoding="utf-8"?>
<!-- Generator: Adobe Illustrator 16.0.0, SVG Export Plug-In . SVG Version: 6.00 Build 0)  -->
<!DOCTYPE svg PUBLIC "-//W3C//DTD SVG 1.1//EN" "http://www.w3.org/Graphics/SVG/1.1/DTD/svg11.dtd" [
	<!ENTITY ns_flows "http://ns.adobe.com/Flows/1.0/">
	<!ENTITY ns_extend "http://ns.adobe.com/Extensibility/1.0/">
	<!ENTITY ns_ai "http://ns.adobe.com/AdobeIllustrator/10.0/">
	<!ENTITY ns_graphs "http://ns.adobe.com/Graphs/1.0/">
]>
<svg version="1.1" id="Layer_1" xmlns:x="&ns_extend;" xmlns:i="&ns_ai;" xmlns:graph="&ns_graphs;"
	 xmlns="http://www.w3.org/2000/svg" xmlns:xlink="http://www.w3.org/1999/xlink" xmlns:a="http://ns.adobe.com/AdobeSVGViewerExtensions/3.0/"
	 x="0px" y="0px" width="550px" height="550px" viewBox="0 0 550 550" enable-background="new 0 0 550 550" xml:space="preserve">
	<g>
		<path fill="#FFFFFF" stroke="#58595B" stroke-width="1.5" stroke-miterlimit="10" d="M0,164.923v216.34h550v-216.34H0z
			 M455.963,367.843l-90.51-90.644l-90.779,90.644l-90.357-90.492L93.69,367.843L3.167,277.186l90.78-90.645l90.358,90.492
			l90.626-90.492l90.512,90.645l90.777-90.645l90.524,90.658L455.963,367.843z"/>
		<rect y="490.93" fill="#FFFFFF" stroke="#58595B" stroke-width="1.5" stroke-miterlimit="10" width="550" height="59.069"/>
		<rect fill="#FFFFFF" stroke="#58595B" stroke-width="1.5" stroke-miterlimit="10" width="550" height="58.464"/>
		<rect x="0.056" y="58.208" fill="#FFFFFF" stroke="#58595B" stroke-width="1.5" stroke-miterlimit="10" width="549.231" height="53.359"/>
		<rect x="0.056" y="438.219" fill="#FFFFFF" stroke="#58595B" stroke-width="1.5" stroke-miterlimit="10" width="549.231" height="53.316"/>
		<rect x="0.056" y="111.243" fill="#FFFFFF" stroke="#58595B" stroke-width="1.5" stroke-miterlimit="10" width="549.231" height="54.328"/>
		<rect x="0.056" y="381.072" fill="#FFFFFF" stroke="#58595B" stroke-width="1.5" stroke-miterlimit="10" width="549.231" height="57.43"/>
		<rect x="391.959" y="213.157" transform="matrix(0.7076 -0.7066 0.7066 0.7076 -62.5192 403.3426)" fill="#FFFFFF" stroke="#58595B" stroke-width="1.5" stroke-miterlimit="10" width="128.286" height="128.113"/>
		<rect x="210.664" y="213.154" transform="matrix(0.7076 -0.7066 0.7066 0.7076 -115.5269 275.2318)" fill="#FFFFFF" stroke="#58595B" stroke-width="1.5" stroke-miterlimit="10" width="128.285" height="128.112"/>
		<rect x="29.674" y="213.146" transform="matrix(0.7076 -0.7066 0.7066 0.7076 -168.4414 147.3428)" fill="#FFFFFF" stroke="#58595B" stroke-width="1.5" stroke-miterlimit="10" width="128.285" height="128.112"/>
	</g>
</svg>
