<?xml version="1.0" encoding="utf-8"?>
<!-- Generator: Adobe Illustrator 16.0.0, SVG Export Plug-In . SVG Version: 6.00 Build 0)  -->
<!DOCTYPE svg PUBLIC "-//W3C//DTD SVG 1.1//EN" "http://www.w3.org/Graphics/SVG/1.1/DTD/svg11.dtd" [
	<!ENTITY ns_flows "http://ns.adobe.com/Flows/1.0/">
	<!ENTITY ns_extend "http://ns.adobe.com/Extensibility/1.0/">
	<!ENTITY ns_ai "http://ns.adobe.com/AdobeIllustrator/10.0/">
	<!ENTITY ns_graphs "http://ns.adobe.com/Graphs/1.0/">
]>
<svg version="1.1" id="Layer_1" xmlns:x="&ns_extend;" xmlns:i="&ns_ai;" xmlns:graph="&ns_graphs;"
	 xmlns="http://www.w3.org/2000/svg" xmlns:xlink="http://www.w3.org/1999/xlink" xmlns:a="http://ns.adobe.com/AdobeSVGViewerExtensions/3.0/"
	 x="0px" y="0px" width="550px" height="550px" viewBox="0 0 550 550" enable-background="new 0 0 550 550" xml:space="preserve">
<g>
	<path fill="#FFFFFF" stroke="#58595B" stroke-width="1.5" stroke-miterlimit="10" d="M0.382,0v106.715H550V0H0.382z
		 M492.535,106.54L438.24,53.843l-54.257,52.696L329.36,53.676l-54.431,52.863l-54.617-52.856l-54.421,52.856l-54.546-52.787
		L56.997,106.54L2.35,53.657L58.764,0.392l52.784,52.98L167.66,0.391l52.853,53.049l56.186-53.049l52.861,53.055l56.191-53.055
		l52.693,52.889L494.3,0.392l52.726,53.074L492.535,106.54z"/>
	<polygon fill="#FFFFFF" stroke="#58595B" stroke-width="1.5" stroke-miterlimit="10" points="58.764,0.392 111.641,53.466 
		56.997,106.54 2.35,53.657 	"/>
	<polygon fill="#FFFFFF" stroke="#58595B" stroke-width="1.5" stroke-miterlimit="10" points="276.699,0.391 329.574,53.465 
		274.931,106.539 220.286,53.656 	"/>
	<polygon fill="#FFFFFF" stroke="#58595B" stroke-width="1.5" stroke-miterlimit="10" points="167.66,0.391 220.538,53.465 
		165.892,106.539 111.248,53.656 	"/>
	<polygon fill="#FFFFFF" stroke="#58595B" stroke-width="1.5" stroke-miterlimit="10" points="494.3,0.392 547.025,53.466 
		492.535,106.54 438.046,53.657 	"/>
	<polygon fill="#FFFFFF" stroke="#58595B" stroke-width="1.5" stroke-miterlimit="10" points="385.751,0.392 438.63,53.466 
		383.983,106.54 329.337,53.657 	"/>
	<path fill="#FFFFFF" stroke="#58595B" stroke-width="1.5" stroke-miterlimit="10" d="M549.999,0H0v465.258h549.999V106.715H0.382V0
		H549.999L549.999,0z M549.96,133.164v28.7v49.989V275c-11.297-23.119-20.006-39.372-28.284-52.289
		c-8.277-12.916-16.124-22.495-23.656-31.995c-7.532-9.5-14.748-18.922-23.892-28.108c-9.142-9.186-20.203-18.136-33.856-29.444
		C476.834,133.164,513.398,133.164,549.96,133.164z M110.035,133.164c-13.653,11.308-24.715,20.258-33.856,29.444
		c-9.141,9.187-16.359,18.608-23.892,28.108c-7.533,9.5-15.378,19.079-23.656,31.995C20.353,235.627,11.645,251.88,0.346,275
		v-63.146v-49.989v-28.7C36.908,133.164,73.472,133.164,110.035,133.164z"/>
	<path fill="#FFFFFF" stroke="#58595B" stroke-width="1.5" stroke-miterlimit="10" d="M549.96,133.164c-36.562,0-73.126,0-109.688,0
		c13.653,11.308,24.715,20.258,33.856,29.444c9.144,9.187,16.359,18.608,23.892,28.108c7.534,9.5,15.379,19.079,23.656,31.995
		c8.278,12.916,16.987,29.169,28.284,52.289v-63.146c-9.183-18.316-22.531-33.962-42.739-49.989c14.243,0,28.493,0,42.739,0V133.164
		L549.96,133.164z"/>
	<path fill="#FFFFFF" stroke="#58595B" stroke-width="1.5" stroke-miterlimit="10" d="M549.96,161.864c-14.246,0-28.496,0-42.739,0
		c20.208,16.027,33.556,31.671,42.739,49.989V161.864z"/>
	<path fill="#FFFFFF" stroke="#58595B" stroke-width="1.5" stroke-miterlimit="10" d="M0.346,133.164v28.7
		c14.247,0,28.495,0,42.741,0c-20.209,16.027-33.556,31.671-42.741,49.989V275c11.297-23.119,20.007-39.372,28.285-52.289
		c8.278-12.916,16.124-22.495,23.656-31.995c7.532-9.5,14.751-18.922,23.892-28.108c9.141-9.186,20.204-18.136,33.856-29.444
		C73.472,133.164,36.908,133.164,0.346,133.164z"/>
	<path fill="#FFFFFF" stroke="#58595B" stroke-width="1.5" stroke-miterlimit="10" d="M0.346,211.853
		c9.185-18.316,22.532-33.962,42.741-49.989c-14.246,0-28.495,0-42.741,0V211.853z"/>
	<path fill="#FFFFFF" stroke="#58595B" stroke-width="1.5" stroke-miterlimit="10" d="M331.149,323.469
		c-6.12-6.046-13.025-12.328-19.066-19.63c-6.042-7.302-11.221-15.624-15.301-22.297c-4.08-6.675-7.061-11.7-10.587-17.105
		c-3.526-5.403-7.595-11.188-11.042-18.084c-3.445,6.895-7.516,12.68-11.041,18.084c-3.526,5.405-6.509,10.43-10.588,17.105
		c-4.082,6.673-9.26,14.995-15.299,22.297c-6.043,7.302-12.947,13.584-19.067,19.63c-3.058,3.02-5.92,5.982-9.058,8.976
		l-0.002,0.003c18.02,26.46,27.609,35.476,36.75,42.404c9.141,6.931,17.834,11.774,28.305,16.409
		c10.471-4.635,19.163-9.479,28.302-16.409c9.143-6.929,18.731-15.944,36.752-42.404h-0.001
		C337.071,329.452,334.208,326.49,331.149,323.469z"/>
	<path fill="#FFFFFF" stroke="#58595B" stroke-width="1.5" stroke-miterlimit="10" d="M510.434,355.412
		c-0.863-13.309-2.118-25.085-4.626-37.02c-2.513-11.934-6.28-24.026-10.438-35.332c-4.16-11.307-8.71-21.828-13.89-30.936
		c-5.177-9.107-10.981-16.802-17.104-24.418c-6.119-7.615-12.554-15.153-20.01-22.691c-7.451-7.538-15.928-15.075-25.891-21.984
		c-9.965-6.91-21.421-13.191-33.896-19.237c-12.475-6.045-25.97-11.856-42.959-16.763c-16.985-4.907-37.465-8.912-66.469-8.44
		c-29.005-0.472-49.483,3.533-66.47,8.44c-16.986,4.907-30.482,10.717-42.958,16.763c-12.476,6.046-23.931,12.328-33.896,19.237
		c-9.964,6.909-18.439,14.447-25.891,21.984c-7.455,7.538-13.89,15.077-20.01,22.691c-6.119,7.616-11.926,15.311-17.104,24.418
		c-5.178,9.108-9.729,19.629-13.888,30.936c-4.158,11.306-7.923,23.398-10.435,35.332c-2.511,11.935-3.766,23.711-4.629,37.02
		c-0.864,13.311-1.333,28.15,0.079,35.216c37.662-0.942,55.315-3.77,69.399-6.83c14.084-3.063,24.598-6.362,33.855-9.973
		c9.259-3.611,17.263-7.538,26.914-12.875c9.651-5.34,20.949-12.092,29.266-18.374c8.317-6.282,13.654-12.091,19.773-18.137
		c6.12-6.045,13.024-12.326,19.067-19.63c6.04-7.299,11.218-15.623,15.299-22.297c4.079-6.675,7.062-11.7,10.587-17.104
		c3.526-5.405,7.596-11.189,11.042-18.084c3.446,6.894,7.515,12.678,11.041,18.084c3.528,5.404,6.508,10.429,10.588,17.104
		c4.08,6.674,9.259,14.998,15.301,22.297c6.04,7.304,12.946,13.585,19.066,19.63c6.118,6.046,11.453,11.854,19.771,18.137
		c8.317,6.282,19.615,13.034,29.266,18.374c9.652,5.339,17.654,9.266,26.913,12.875c9.259,3.612,19.773,6.91,33.857,9.973
		c14.083,3.061,31.736,5.888,69.398,6.83C511.767,383.563,511.299,368.723,510.434,355.412z M249.853,213.313
		c-3.765,12.963-6.95,21.657-11.713,31.264c-4.765,9.604-11.104,20.123-17.898,29.947c-6.795,9.824-14.043,18.954-21.817,26.884
		c-7.773,7.93-16.071,14.656-24.632,20.625c-8.564,5.969-17.392,11.178-26.986,16.08c-9.594,4.9-19.955,9.494-33.12,13.521
		c-13.167,4.028-29.137,7.489-47.799,9.271c1.525-18.697,4.766-34.726,8.612-47.952c3.844-13.23,8.293-23.66,13.06-33.327
		c4.767-9.667,9.851-18.571,15.697-27.22c5.848-8.65,12.458-17.044,20.274-24.931c7.817-7.886,16.841-15.263,26.565-22.196
		c9.725-6.932,20.147-13.419,29.68-18.316c9.533-4.896,18.176-8.205,31.079-12.147c12.901-3.941,30.061-8.521,49.507-11.192
		C257.958,183.118,253.617,200.351,249.853,213.313z M436.621,351.634c-13.165-4.027-23.526-8.621-33.118-13.521
		c-9.594-4.9-18.423-10.109-26.987-16.078c-8.563-5.969-16.861-12.697-24.632-20.627c-7.775-7.93-15.024-17.059-21.818-26.883
		c-6.794-9.824-13.134-20.342-17.896-29.947c-4.764-9.606-7.95-18.299-11.715-31.264c-3.765-12.963-8.105-30.195-10.51-49.691
		c19.449,2.671,36.607,7.251,49.509,11.193c12.9,3.942,21.545,7.251,31.077,12.147c9.534,4.898,19.957,11.385,29.681,18.316
		c9.722,6.933,18.749,14.31,26.565,22.196c7.815,7.887,14.428,16.281,20.273,24.931c5.846,8.649,10.93,17.552,15.697,27.219
		c4.767,9.668,9.215,20.098,13.06,33.328c3.845,13.227,7.087,29.254,8.612,47.951C465.758,359.122,449.789,355.661,436.621,351.634z
		"/>
	<path fill="#FFFFFF" stroke="#58595B" stroke-width="1.5" stroke-miterlimit="10" d="M260.362,163.623
		c-2.404,19.496-6.745,36.728-10.51,49.691c-3.765,12.963-6.951,21.657-11.713,31.264c-4.765,9.604-11.103,20.123-17.898,29.947
		c-6.795,9.825-14.043,18.954-21.817,26.883c-7.772,7.93-16.071,14.657-24.632,20.627c-8.564,5.969-17.391,11.177-26.986,16.078
		s-19.956,9.494-33.12,13.521c-13.167,4.027-29.138,7.489-47.799,9.271c1.525-18.696,4.766-34.725,8.612-47.951
		c3.844-13.23,8.293-23.661,13.06-33.328c4.767-9.667,9.851-18.57,15.697-27.219c5.848-8.65,12.458-17.044,20.274-24.931
		c7.817-7.886,16.841-15.263,26.565-22.196c9.725-6.932,20.147-13.419,29.68-18.316c9.533-4.896,18.176-8.205,31.079-12.147
		C223.754,170.874,240.915,166.293,260.362,163.623z"/>
	<path fill="#FFFFFF" stroke="#58595B" stroke-width="1.5" stroke-miterlimit="10" d="M289.944,163.623
		c2.402,19.496,6.745,36.728,10.51,49.691c3.765,12.963,6.951,21.657,11.715,31.264c4.763,9.605,11.103,20.123,17.896,29.947
		c6.794,9.825,14.043,18.954,21.818,26.883c7.771,7.93,16.069,14.657,24.632,20.627c8.564,5.969,17.393,11.177,26.987,16.078
		c9.593,4.901,19.953,9.494,33.118,13.521c13.168,4.027,29.137,7.489,47.799,9.271c-1.524-18.696-4.768-34.725-8.612-47.951
		c-3.846-13.23-8.293-23.661-13.06-33.328c-4.767-9.667-9.852-18.57-15.697-27.219c-5.847-8.65-12.458-17.044-20.274-24.931
		c-7.815-7.886-16.843-15.263-26.564-22.196c-9.724-6.932-20.146-13.419-29.681-18.316c-9.532-4.896-18.176-8.205-31.077-12.147
		C326.552,170.874,309.394,166.293,289.944,163.623z"/>
	
		<rect x="0.382" y="465.258" fill="#FFFFFF" stroke="#58595B" stroke-width="1.5" stroke-miterlimit="10" width="549.618" height="84.742"/>
</g>
</svg>
