<?xml version="1.0" encoding="utf-8"?>
<!-- Generator: Adobe Illustrator 16.0.0, SVG Export Plug-In . SVG Version: 6.00 Build 0)  -->
<!DOCTYPE svg PUBLIC "-//W3C//DTD SVG 1.1//EN" "http://www.w3.org/Graphics/SVG/1.1/DTD/svg11.dtd">
<svg version="1.1" id="t1" xmlns="http://www.w3.org/2000/svg" xmlns:xlink="http://www.w3.org/1999/xlink" x="0px" y="0px"
	 width="600px" height="600px" viewBox="0 0 600 600" enable-background="new 0 0 600 600" xml:space="preserve">
    <g>
	<path fill="#FFFFFF" stroke="#000000" stroke-width="1.5" stroke-miterlimit="10" d="M25.001,544.267
		c4.028-17.439,6.902-28.589,9.102-36.707s3.727-13.205,7.033-21.283c3.306-8.078,8.395-19.143,13.165-29.382
		c4.769-10.24,9.222-19.651,14.627-28.811c5.406-9.159,11.766-18.062,18.316-25.885c6.55-7.822,13.292-14.564,20.542-21.749
		c7.25-7.188,15.01-14.818,23.977-22.006s19.144-13.928,29.318-19.525c10.177-5.595,20.353-10.048,31.101-14.499
		c10.748-4.453,22.068-8.904,32.943-12.402c10.875-3.499,21.306-6.043,32.817-7.887c11.512-1.844,24.104-2.988,42.058-4.13
		c0-21.508-1.867-32.635-3.688-43.198c-1.822-10.563-3.598-20.559-8.936-35.832c-5.338-15.274-14.239-35.826-23.116-52.683
		c-8.877-16.858-17.734-30.021-30.059-44.742c-12.326-14.72-28.123-30.995-42.244-42.364
		c-14.121-11.369-26.567-17.832-45.175-26.088c-18.609-8.256-43.381-18.31-99.666-30.092H25.001V544.267z"/>
	<path fill="#FFFFFF" stroke="#000000" stroke-width="1.5" stroke-miterlimit="10" d="M552.885,25
		c-56.284,11.783-81.056,21.835-99.666,30.092c-18.608,8.257-31.055,14.719-45.177,26.088
		c-14.12,11.369-29.917,27.644-42.243,42.364c-12.326,14.719-21.182,27.884-30.06,44.742c-8.878,16.858-17.776,37.41-23.115,52.683
		c-5.339,15.274-7.114,25.27-8.936,35.833c-1.821,10.562-3.688,21.69-3.688,43.198c17.955,1.142,30.545,2.287,42.057,4.13
		c11.511,1.845,21.94,4.388,32.817,7.887c10.875,3.498,22.195,7.949,32.944,12.402c10.748,4.451,20.924,8.903,31.101,14.499
		c10.175,5.598,20.351,12.338,29.317,19.525c8.969,7.188,16.728,14.818,23.977,22.006c7.251,7.185,13.993,13.926,20.543,21.749
		c6.551,7.824,12.91,16.727,18.316,25.884c5.406,9.159,9.857,18.57,14.628,28.811c4.769,10.241,9.857,21.306,13.164,29.383
		c3.306,8.077,4.832,13.165,7.033,21.283c2.2,8.118,5.074,19.269,9.102,36.707V25H552.885z"/>
	<path fill="#FFFFFF" stroke="#000000" stroke-width="1.5" stroke-miterlimit="10" d="M571.453,529.273
		c-0.661-1.239-1.199-2.563-1.563-3.973c-2.36-9.188-5.369-18.102-6.792-27.451c-1.145-3.62-2.422-7.148-4.233-11.573
		c-3.307-8.078-8.396-19.143-13.164-29.383c-4.771-10.24-9.222-19.65-14.628-28.81s-11.766-18.062-18.316-25.885
		c-6.549-7.822-13.291-14.564-20.543-21.749c-7.25-7.188-15.008-14.818-23.977-22.006c-8.967-7.188-19.143-13.928-29.317-19.525
		c-10.177-5.596-20.352-10.048-31.101-14.499c-10.747-4.453-22.068-8.904-32.944-12.402c-10.876-3.499-21.307-6.043-32.817-7.887
		c-11.512-1.844-24.103-2.988-42.057-4.13c-17.954,1.142-30.546,2.286-42.058,4.13c-11.511,1.845-21.941,4.388-32.817,7.887
		c-10.875,3.498-22.195,7.949-32.943,12.402c-10.748,4.451-20.924,8.903-31.101,14.499c-10.175,5.598-20.352,12.338-29.318,19.525
		s-16.727,14.818-23.977,22.006c-7.25,7.185-13.991,13.927-20.542,21.749c-6.551,7.824-12.91,16.728-18.316,25.885
		c-5.405,9.159-9.858,18.569-14.627,28.81c-4.77,10.241-9.858,21.306-13.165,29.383c-3.307,8.078-4.833,13.165-7.033,21.283
		c-1.339,4.941-2.931,11.017-4.877,18.939c-0.144,1.76-0.271,3.519-0.366,5.283c-0.212,3.932-1.434,7.626-3.448,10.714
		c-0.137,0.589-0.271,1.166-0.411,1.77v30.733h40.228c1.414-13.715,2.356-22.901,3.769-32.911
		c1.413-10.011,3.298-20.848,6.596-30.582c3.297-9.735,8.009-18.374,12.405-27.717c4.397-9.342,8.48-19.393,14.997-30.542
		c6.517-11.148,15.467-23.397,24.027-32.741c8.558-9.343,16.723-15.781,23.476-21.904c6.753-6.125,12.092-11.935,18.608-16.961
		c6.517-5.023,14.211-9.265,21.828-13.033c7.616-3.77,15.155-7.066,22.142-9.578c6.987-2.515,13.427-4.241,20.414-6.126
		c6.987-1.885,14.525-3.925,24.889-6.008c9.812-1.97,22.16-3.971,38.774-4.179c0-0.001,0-0.002,0-0.003l2.848-0.018l2.847,0.018
		c0,0.001,0,0.002,0,0.003c16.613,0.208,28.965,2.211,38.774,4.179c10.364,2.083,17.9,4.123,24.889,6.008
		c6.989,1.885,13.426,3.611,20.414,6.126c6.989,2.512,14.526,5.808,22.142,9.578c7.616,3.769,15.312,8.01,21.827,13.033
		c6.518,5.026,11.856,10.836,18.609,16.961c6.751,6.123,14.917,12.562,23.475,21.904c8.559,9.344,17.51,21.594,24.027,32.741
		c6.516,11.15,10.599,21.2,14.995,30.542c4.397,9.343,9.108,17.981,12.405,27.717c3.3,9.735,5.183,20.571,6.597,30.582
		c1.413,10.011,2.355,19.196,3.769,32.911h40.227v-30.733C573.703,538.65,572.528,533.694,571.453,529.273z"/>
	<path fill="#FFFFFF" stroke="#000000" stroke-width="1.5" stroke-miterlimit="10" d="M191.958,81.181
		c14.122,11.369,29.917,27.643,42.244,42.364c12.326,14.72,21.182,27.884,30.059,44.741c8.877,16.858,17.777,37.41,23.116,52.684
		c5.338,15.273,7.114,25.271,8.936,35.832C298.134,267.364,300,278.492,300,300c0-21.509,1.867-32.635,3.688-43.198
		c1.821-10.562,3.597-20.559,8.937-35.833c5.338-15.274,14.237-35.825,23.114-52.684c8.877-16.858,17.732-30.021,30.06-44.741
		c12.326-14.72,28.123-30.994,42.243-42.364c14.122-11.369,26.569-17.833,45.177-26.089c18.609-8.257,43.382-18.31,99.666-30.091
		H47.117c56.285,11.782,81.057,21.834,99.666,30.091C165.391,63.349,177.837,69.813,191.958,81.181z"/>
	<path fill="#FFFFFF" stroke="#000000" stroke-width="1.5" stroke-miterlimit="10" d="M302.848,342.713
		c2.072,13.116,4.818,27.159,8.615,39.704c3.797,12.547,8.643,23.598,13.877,34.744c5.234,11.147,10.857,22.391,17.254,32.376
		c6.397,9.984,13.573,18.708,19.581,26.172c6.011,7.463,10.856,13.667,16.382,19.677c5.525,6.011,11.729,11.826,19.872,18.225
		c8.142,6.397,18.225,13.377,27.529,18.902c9.305,5.524,17.836,9.596,27.039,13.955s19.077,9.006,27.466,12.515
		c8.389,3.508,15.291,5.88,23.417,8.187c8.123,2.309,17.469,4.553,30.894,7.83c-1.413-13.715-2.355-22.901-3.769-32.911
		c-1.414-10.011-3.298-20.848-6.597-30.582c-3.297-9.735-8.007-18.374-12.405-27.717c-4.396-9.342-8.479-19.393-14.995-30.542
		c-6.519-11.148-15.469-23.397-24.027-32.741c-8.557-9.343-16.724-15.78-23.475-21.904c-6.753-6.125-12.092-11.935-18.609-16.961
		c-6.516-5.023-14.211-9.265-21.827-13.033c-7.616-3.77-15.153-7.066-22.141-9.578c-6.989-2.515-13.426-4.241-20.414-6.126
		c-6.99-1.885-14.526-3.925-24.89-6.007c-10.364-2.08-23.555-4.2-41.623-4.2"/>
	<path fill="#FFFFFF" stroke="#000000" stroke-width="1.5" stroke-miterlimit="10" d="M297.153,342.713
		c-2.072,13.116-4.819,27.159-8.615,39.704c-3.797,12.547-8.644,23.598-13.878,34.744c-5.234,11.147-10.855,22.391-17.253,32.376
		c-6.398,9.984-13.571,18.708-19.582,26.172c-6.01,7.463-10.856,13.667-16.38,19.677c-5.526,6.011-11.729,11.826-19.872,18.225
		c-8.143,6.397-18.223,13.377-27.529,18.902c-9.306,5.524-17.835,9.596-27.039,13.955c-9.203,4.359-19.078,9.006-27.467,12.515
		c-8.39,3.508-15.292,5.88-23.417,8.187c-8.124,2.309-17.468,4.553-30.893,7.83c1.414-13.715,2.356-22.901,3.769-32.911
		c1.412-10.011,3.297-20.848,6.595-30.582c3.297-9.735,8.009-18.374,12.405-27.717c4.397-9.342,8.48-19.393,14.997-30.542
		c6.517-11.148,15.467-23.397,24.027-32.741c8.558-9.343,16.723-15.78,23.476-21.904c6.753-6.125,12.092-11.935,18.608-16.961
		c6.517-5.023,14.211-9.265,21.828-13.033c7.616-3.77,15.155-7.066,22.142-9.578c6.987-2.515,13.427-4.241,20.414-6.126
		c6.987-1.885,14.525-3.925,24.889-6.007c10.364-2.08,23.555-4.2,41.622-4.2"/>
	<path fill="#FFFFFF" stroke="#000000" stroke-width="1.5" stroke-miterlimit="10" d="M503.88,567.17
		c-8.126-2.308-15.028-4.678-23.417-8.187s-18.264-8.155-27.466-12.515c-9.203-4.359-17.733-8.431-27.039-13.955
		c-9.305-5.526-19.388-12.505-27.529-18.902c-8.143-6.398-14.347-12.213-19.872-18.225c-5.525-6.009-10.371-12.213-16.382-19.677
		c-6.008-7.464-13.184-16.188-19.581-26.172c-6.396-9.985-12.02-21.229-17.254-32.376s-10.081-22.197-13.877-34.744
		c-3.797-12.544-6.542-26.585-8.615-39.701c-0.938-0.013-1.882-0.021-2.847-0.021c-0.965,0-1.909,0.008-2.848,0.021
		c-2.072,13.116-4.819,27.157-8.615,39.701c-3.797,12.547-8.644,23.597-13.878,34.744c-5.234,11.147-10.855,22.391-17.253,32.376
		c-6.397,9.984-13.57,18.708-19.582,26.172c-6.01,7.463-10.856,13.667-16.38,19.677c-5.525,6.011-11.729,11.826-19.872,18.225
		c-8.143,6.397-18.223,13.376-27.529,18.902c-9.306,5.524-17.835,9.596-27.039,13.955c-9.203,4.359-19.078,9.006-27.467,12.515
		c-8.39,3.509-15.292,5.88-23.416,8.187c-8.124,2.308-17.468,4.552-30.894,7.83h469.545
		C521.349,571.722,512.002,569.478,503.88,567.17z"/>
    </g>
</svg>
