<?xml version="1.0" encoding="utf-8"?>
<!-- Generator: Adobe Illustrator 16.0.0, SVG Export Plug-In . SVG Version: 6.00 Build 0)  -->
<!DOCTYPE svg PUBLIC "-//W3C//DTD SVG 1.1//EN" "http://www.w3.org/Graphics/SVG/1.1/DTD/svg11.dtd">
<svg version="1.1" id="Layer_1" xmlns="http://www.w3.org/2000/svg" xmlns:xlink="http://www.w3.org/1999/xlink" x="0px" y="0px"
	 width="600px" height="600px" viewBox="0 0 600 600" enable-background="new 0 0 600 600" xml:space="preserve">
    <g>
	<path fill="#FFFFFF" stroke="#000000" stroke-width="1.5" stroke-miterlimit="10" d="M573.564,483.596
		c-18.122,3.521-26.938,6.161-35.166,9.391c-8.229,3.229-15.869,7.042-22.481,11.735c-6.612,4.694-12.195,10.271-17.853,18.778
		c-5.656,8.509-11.389,19.952-15.798,51.499h91.299L573.564,483.596L573.564,483.596z"/>
	<path fill="#FFFFFF" stroke="#000000" stroke-width="1.5" stroke-miterlimit="10" d="M482.268,28.855
		c4.409,31.546,10.142,42.989,15.798,51.499c5.655,8.508,11.238,14.083,17.854,18.778c6.61,4.695,14.253,8.508,22.48,11.736
		c8.229,3.228,17.044,5.868,35.166,9.39V25L482.268,28.855z"/>
	<path fill="#FFFFFF" stroke="#000000" stroke-width="1.5" stroke-miterlimit="10" d="M117.859,574.999
		c-4.409-31.547-10.139-42.989-15.795-51.499c-5.657-8.51-11.241-14.083-17.853-18.778c-6.612-4.693-14.252-8.509-22.481-11.735
		c-8.229-3.229-17.045-5.869-35.167-9.391v91.403H117.859L117.859,574.999z"/>
	<path fill="#FFFFFF" stroke="#000000" stroke-width="1.5" stroke-miterlimit="10" d="M26.562,120.257
		c18.122-3.521,26.938-6.162,35.167-9.39c8.228-3.228,15.869-7.042,22.481-11.736c6.612-4.695,12.196-10.27,17.853-18.778
		c5.657-8.51,11.387-19.952,15.795-51.499H26.561L26.562,120.257z"/>
	<path fill="#FFFFFF" stroke="#000000" stroke-width="1.5" stroke-miterlimit="10" d="M392.343,574.999
		c0.881-34.188,4.407-46.511,8.963-58.981c4.558-12.469,10.142-25.086,15.576-34.769c5.438-9.684,10.729-16.432,17.189-23.62
		c6.467-7.188,14.105-14.816,21.748-21.271c7.641-6.456,15.279-11.737,23.654-16.578c8.376-4.843,17.485-9.242,26.45-13.058
		c8.962-3.813,17.777-7.043,27.917-9.537c10.14-2.492,21.602-4.254,39.724-4.254v90.664c-18.122,3.521-26.938,6.161-35.166,9.391
		c-8.229,3.228-15.869,7.042-22.481,11.735c-6.612,4.694-12.195,10.271-17.853,18.777c-5.656,8.51-11.389,19.953-15.798,51.5
		H392.343L392.343,574.999z"/>
	<path fill="#FFFFFF" stroke="#000000" stroke-width="1.5" stroke-miterlimit="10" d="M26.562,210.922
		c18.122,0,29.582-1.76,39.722-4.254c10.139-2.495,18.955-5.721,27.917-9.537c8.963-3.813,18.074-8.215,26.449-13.056
		c8.375-4.842,16.016-10.124,23.657-16.578c7.641-6.455,15.281-14.085,21.748-21.273c6.465-7.188,11.755-13.938,17.192-23.621
		c5.438-9.683,11.02-22.299,15.575-34.769c4.555-12.47,8.082-24.794,8.963-58.981h-89.926c-4.409,31.548-10.139,42.99-15.795,51.5
		c-5.658,8.507-11.241,14.083-17.853,18.778c-6.612,4.695-14.252,8.509-22.481,11.736c-8.228,3.229-17.045,5.868-35.167,9.391
		L26.562,210.922L26.562,210.922z"/>
	<path fill="#FFFFFF" stroke="#000000" stroke-width="1.5" stroke-miterlimit="10" d="M538.398,110.867
		c-8.229-3.227-15.869-7.041-22.481-11.736c-6.612-4.695-12.195-10.271-17.853-18.778c-5.656-8.51-11.389-19.951-15.798-51.499
		h-90.102c-1.736,10.402-1.447,18.487-0.242,26.67c1.206,8.182,3.326,16.459,5.833,24.063c2.507,7.605,5.398,14.534,9.447,22.716
		c4.049,8.182,9.255,17.614,14.461,25.989s10.412,15.689,16.773,22.524c6.362,6.833,13.884,13.188,21.4,18.962
		c7.521,5.775,15.04,10.973,26.754,16.749c11.713,5.775,27.621,12.128,57.762,24.026c10.979-1.411,19.498-2.081,29.209-0.451
		v-89.845C555.442,116.736,546.627,114.096,538.398,110.867z"/>
	<path fill="#FFFFFF" stroke="#000000" stroke-width="1.5" stroke-miterlimit="10" d="M208.203,548.328
		c-1.206-8.182-3.327-16.458-5.833-24.063c-2.505-7.604-5.398-14.533-9.448-22.716c-4.05-8.181-9.255-17.615-14.461-25.989
		c-5.207-8.372-10.412-15.688-16.775-22.521c-6.362-6.835-13.882-13.188-21.401-18.962c-7.52-5.775-15.04-10.976-26.753-16.749
		c-11.713-5.775-27.621-12.127-57.761-24.023l2.074-0.271c-12.002,1.588-20.969,2.453-31.283,0.723v-2.137
		c-0.518,0.104-1.038,0.197-1.562,0.264l1.562,91.715c18.122,3.521,26.938,6.161,35.167,9.391
		c8.229,3.229,15.869,7.042,22.481,11.735c6.612,4.694,12.196,10.271,17.853,18.778c5.656,8.51,11.387,19.952,15.795,51.499h90.103
		C209.698,564.595,209.408,556.51,208.203,548.328z"/>
	<path fill="#FFFFFF" stroke="#000000" stroke-width="1.5" stroke-miterlimit="10" d="M365.268,204.141
		c6.269,7.217,12.242,14.149,18.85,20.646c6.604,6.497,13.834,12.562,29.767,23.452h0.002c5.215-2.817,10.334-5.424,15.939-8.01
		c12.726-5.872,27.958-11.646,40.104-15.497c12.146-3.851,21.209-5.775,33.262-7.893c12.051-2.117,27.091-4.428,39.093-6.016
		c0.702-0.092,1.393-0.183,2.073-0.271c-30.142-11.896-46.05-18.25-57.763-24.026c-11.715-5.775-19.231-10.974-26.754-16.749
		c-7.52-5.774-15.038-12.129-21.399-18.962c-6.362-6.834-11.568-14.149-16.774-22.524s-10.412-17.807-14.461-25.989
		c-4.049-8.182-6.941-15.111-9.447-22.716c-2.507-7.603-4.627-15.882-5.833-24.063c-1.205-8.183-1.494-16.267,0.242-26.67h-92.103
		c1.793,36.262,4.679,49.28,8.256,62.156c3.579,12.876,7.85,25.609,11.721,36.305c3.87,10.699,7.342,19.361,11.583,28.121
		c4.242,8.759,9.255,17.615,15.039,25.796C352.446,189.414,359.001,196.922,365.268,204.141z"/>
	<path fill="#FFFFFF" stroke="#000000" stroke-width="1.5" stroke-miterlimit="10" d="M512.998,309.555
		c-13.109,3.383-27.393,7.6-41.588,12.938c-14.194,5.338-28.301,11.792-38.88,17.659c-10.58,5.867-17.635,11.149-27.992,19.514
		c-10.358,8.361-24.022,19.805-52.106,54.83l0.001,0.006c4.059,7.755,7.77,15.066,11.118,22.489
		c4.173,9.235,7.801,18.656,11.121,30.369c3.319,11.712,6.332,25.721,9.072,39.924c2.739,14.205,5.206,28.603,8.599,67.715
		c0.881-34.188,4.407-46.51,8.963-58.981c4.558-12.469,10.142-25.086,15.576-34.769c5.438-9.684,10.729-16.432,17.189-23.62
		c6.467-7.188,14.105-14.816,21.748-21.271c7.641-6.456,15.279-11.737,23.654-16.578c8.376-4.841,17.485-9.242,26.45-13.059
		c8.962-3.813,17.777-7.041,27.917-9.535c10.14-2.493,21.602-4.253,39.724-4.253v-91.007
		C538.05,303.627,526.109,306.174,512.998,309.555z"/>
	<path fill="#FFFFFF" stroke="#000000" stroke-width="1.5" stroke-miterlimit="10" d="M236.576,166.861
		c-4.172-9.237-7.801-18.655-11.121-30.369c-3.319-11.713-6.332-25.722-9.071-39.924c-2.74-14.204-5.207-28.602-8.599-67.714
		c-0.882,34.187-4.409,46.511-8.963,58.981c-4.556,12.47-10.139,25.086-15.575,34.769s-10.727,16.431-17.192,23.621
		c-6.465,7.188-14.105,14.817-21.748,21.273c-7.641,6.454-15.281,11.736-23.657,16.578c-8.375,4.842-17.486,9.243-26.449,13.056
		c-8.963,3.814-17.78,7.042-27.917,9.537c-10.139,2.494-21.601,4.254-39.722,4.254v91.005c35.517-1.701,47.455-4.248,60.567-7.629
		c13.11-3.383,27.394-7.602,41.587-12.938c14.195-5.337,28.301-11.792,38.881-17.661c10.579-5.87,17.632-11.149,27.991-19.511
		c10.359-8.362,24.024-19.806,52.108-54.831l-0.001-0.005C243.64,181.599,239.929,174.284,236.576,166.861z"/>
	<path fill="#FFFFFF" stroke="#000000" stroke-width="1.5" stroke-miterlimit="10" d="M300.063,574.999
		c-1.793-36.262-4.678-49.281-8.255-62.157c-3.577-12.876-7.849-25.605-11.719-36.306c-3.872-10.698-7.342-19.361-11.583-28.12
		c-4.243-8.757-9.255-17.615-15.04-25.796c-5.785-8.182-12.34-15.688-18.606-22.908c-6.266-7.218-12.244-14.149-18.848-20.646
		c-6.604-6.498-13.834-12.563-29.768-23.452h-0.001c-5.215,2.817-10.334,5.424-15.941,8.011
		c-12.726,5.87-27.958,11.646-40.104,15.496c-12.147,3.85-21.209,5.775-33.26,7.893c-12.051,2.116-27.091,4.428-39.092,6.018
		c-0.702,0.092-1.391,0.183-2.072,0.271h-0.001c30.142,11.898,46.048,18.251,57.761,24.024
		c11.713,5.773,19.233,10.974,26.753,16.749c7.521,5.771,15.04,12.127,21.401,18.961c6.363,6.836,11.568,14.151,16.775,22.521
		c5.207,8.375,10.412,17.811,14.461,25.989c4.048,8.182,6.941,15.111,9.448,22.716c2.507,7.605,4.627,15.884,5.833,24.063
		c1.205,8.182,1.495,16.267-0.241,26.671L300.063,574.999L300.063,574.999z"/>
	<path fill="#FFFFFF" stroke="#000000" stroke-width="1.5" stroke-miterlimit="10" d="M299.568,266.849l32.392,35.079
		c26.609-22.521,45.408-33.206,59.917-41.532c8.116-4.658,14.891-8.578,21.512-12.153v-0.002
		c-15.934-10.891-23.163-16.955-29.768-23.451c-6.604-6.498-12.581-13.429-18.847-20.647c-6.271-7.219-12.821-14.727-18.607-22.909
		c-5.783-8.182-10.798-17.037-15.038-25.796c-4.242-8.759-7.714-17.422-11.584-28.121c-3.871-10.696-8.145-23.428-11.721-36.305
		c-3.578-12.876-6.461-25.894-8.256-62.156H207.29c3.393,39.111,5.859,53.51,8.599,67.714c2.74,14.204,5.752,28.211,9.072,39.925
		c3.32,11.714,6.948,21.131,11.121,30.369c4.173,9.237,8.889,18.292,14.149,28.255c5.261,9.961,11.066,20.829,18.391,32.045
		c7.325,11.213,16.169,22.776,30.949,40.68v-0.996L299.568,266.849L299.568,266.849z"/>
	<polygon fill="#FFFFFF" stroke="#000000" stroke-width="1.5" stroke-miterlimit="10" points="267.673,301.926 300.064,267.841 
		332.455,301.926 300.064,336.012 	"/>
	<path fill="#FFFFFF" stroke="#000000" stroke-width="1.5" stroke-miterlimit="10" d="M385.179,507.284
		c-2.736-14.204-5.751-28.212-9.068-39.924c-3.32-11.714-6.948-21.134-11.12-30.369c-4.172-9.236-8.893-18.293-14.15-28.255
		c-5.262-9.961-11.063-20.827-18.391-32.045c-7.325-11.213-16.171-22.777-30.947-40.681v0.991l-32.392-35.078
		c-26.609,22.523-45.409,33.207-59.918,41.534c-8.116,4.657-14.89,8.576-21.511,12.153l0,0
		c15.934,10.893,23.164,16.953,29.767,23.451c6.604,6.498,12.582,13.43,18.848,20.646c6.266,7.219,12.822,14.727,18.605,22.908
		c5.784,8.181,10.798,17.038,15.04,25.796c4.242,8.759,7.712,17.422,11.584,28.12c3.871,10.697,8.143,23.431,11.719,36.306
		c3.578,12.875,6.463,25.896,8.257,62.157h92.279C390.387,535.887,387.919,521.488,385.179,507.284z"/>
	<path fill="#FFFFFF" stroke="#000000" stroke-width="1.5" stroke-miterlimit="10" d="M543.719,210.767
		c-12.005,1.588-27.043,3.898-39.095,6.016c-12.052,2.118-21.113,4.042-33.259,7.893c-12.146,3.851-27.38,9.625-40.105,15.497
		c-12.727,5.871-22.942,11.838-37.455,20.165c-14.508,8.327-33.307,19.01-59.916,41.531l-32.391,34.086
		c14.777,17.902,23.622,29.466,30.947,40.682c7.321,11.215,13.129,22.081,18.391,32.043c1.032,1.953,2.035,3.864,3.026,5.759
		l0.003,0.002c28.083-35.024,41.749-46.47,52.106-54.831c10.358-8.36,17.41-13.645,27.988-19.514
		c10.582-5.867,24.688-12.322,38.883-17.658c14.192-5.34,28.479-9.557,41.589-12.938c13.109-3.383,25.051-5.929,60.566-7.629
		v-91.824C564.686,208.313,555.721,209.178,543.719,210.767z"/>
	<path fill="#FFFFFF" stroke="#000000" stroke-width="1.5" stroke-miterlimit="10" d="M249.995,195.787
		c-1.031-1.954-2.035-3.865-3.025-5.757l-0.003-0.003c-28.083,35.025-41.749,46.469-52.108,54.832
		c-10.358,8.362-17.412,13.643-27.991,19.511c-10.58,5.868-24.685,12.324-38.88,17.661c-14.194,5.337-28.477,9.555-41.588,12.938
		c-13.112,3.382-25.051,5.928-60.567,7.629v91.824c10.313,1.73,19.281,0.866,31.283-0.723c12.002-1.588,27.042-3.898,39.092-6.016
		c12.05-2.119,21.112-4.043,33.26-7.893c12.146-3.854,27.379-9.628,40.104-15.499c12.727-5.871,22.946-11.838,37.454-20.164
		c14.509-8.325,33.309-19.011,59.916-41.53l32.392-34.089c-14.779-17.904-23.623-29.467-30.948-40.68
		C261.062,216.616,255.256,205.748,249.995,195.787z"/>
    </g>
</svg>
