<?xml version="1.0" encoding="utf-8"?>
<!-- Generator: Adobe Illustrator 16.0.0, SVG Export Plug-In . SVG Version: 6.00 Build 0)  -->
<!DOCTYPE svg PUBLIC "-//W3C//DTD SVG 1.1//EN" "http://www.w3.org/Graphics/SVG/1.1/DTD/svg11.dtd" [
	<!ENTITY ns_flows "http://ns.adobe.com/Flows/1.0/">
	<!ENTITY ns_extend "http://ns.adobe.com/Extensibility/1.0/">
	<!ENTITY ns_ai "http://ns.adobe.com/AdobeIllustrator/10.0/">
	<!ENTITY ns_graphs "http://ns.adobe.com/Graphs/1.0/">
]>
<svg version="1.1" id="Layer_1" xmlns:x="&ns_extend;" xmlns:i="&ns_ai;" xmlns:graph="&ns_graphs;"
	 xmlns="http://www.w3.org/2000/svg" xmlns:xlink="http://www.w3.org/1999/xlink" xmlns:a="http://ns.adobe.com/AdobeSVGViewerExtensions/3.0/"
	 x="0px" y="0px" width="550px" height="550px" viewBox="0 0 550 550" enable-background="new 0 0 550 550" xml:space="preserve">
<g>
	<path fill="#FFFFFF" stroke="#000000" stroke-width="1.5" stroke-miterlimit="10" d="M548.568,458.594
		c-18.122,3.521-26.938,6.161-35.166,9.393c-8.229,3.229-15.869,7.042-22.481,11.733c-6.612,4.695-12.196,10.272-17.854,18.779
		c-5.656,8.508-11.391,19.951-15.8,51.498h91.302L548.568,458.594L548.568,458.594z"/>
	<path fill="#FFFFFF" stroke="#000000" stroke-width="1.5" stroke-miterlimit="10" d="M457.271,3.855
		c4.409,31.546,10.144,42.989,15.8,51.499c5.654,8.508,11.237,14.083,17.854,18.777c6.61,4.695,14.253,8.508,22.48,11.736
		c8.229,3.228,17.044,5.868,35.166,9.39V0L457.271,3.855z"/>
	<path fill="#FFFFFF" stroke="#000000" stroke-width="1.5" stroke-miterlimit="10" d="M92.859,549.997
		c-4.409-31.547-10.139-42.989-15.795-51.498c-5.657-8.51-11.241-14.083-17.853-18.779c-6.612-4.691-14.252-8.509-22.481-11.733
		c-8.229-3.229-17.045-5.869-35.167-9.393v91.403H92.859L92.859,549.997z"/>
	<path fill="#FFFFFF" stroke="#000000" stroke-width="1.5" stroke-miterlimit="10" d="M1.562,95.256
		c18.122-3.521,26.938-6.162,35.167-9.39c8.228-3.228,15.869-7.042,22.481-11.736c6.612-4.695,12.196-10.27,17.853-18.777
		c5.657-8.51,11.387-19.952,15.795-51.499H1.561L1.562,95.256z"/>
	<path fill="#FFFFFF" stroke="#000000" stroke-width="1.5" stroke-miterlimit="10" d="M367.346,549.997
		c0.881-34.188,4.407-46.511,8.963-58.98c4.56-12.469,10.144-25.087,15.576-34.77c5.438-9.684,10.729-16.432,17.189-23.62
		c6.467-7.188,14.104-14.816,21.748-21.27c7.641-6.456,15.277-11.737,23.652-16.578c8.376-4.843,17.485-9.242,26.451-13.06
		c8.962-3.813,17.777-7.043,27.917-9.537c10.142-2.49,21.604-4.252,39.726-4.252v90.661c-18.122,3.521-26.938,6.161-35.166,9.393
		c-8.229,3.228-15.869,7.042-22.481,11.733c-6.612,4.695-12.196,10.272-17.854,18.778c-5.656,8.509-11.391,19.952-15.8,51.499
		L367.346,549.997L367.346,549.997z"/>
	<path fill="#FFFFFF" stroke="#000000" stroke-width="1.5" stroke-miterlimit="10" d="M1.562,185.921
		c18.122,0,29.582-1.76,39.723-4.254c10.139-2.495,18.955-5.721,27.917-9.537c8.963-3.813,18.074-8.215,26.449-13.056
		c8.375-4.842,16.017-10.124,23.658-16.578c7.641-6.455,15.281-14.085,21.748-21.273c6.465-7.188,11.755-13.938,17.192-23.621
		c5.438-9.683,11.02-22.299,15.575-34.769s8.082-24.794,8.963-58.981H92.859c-4.409,31.548-10.139,42.99-15.795,51.5
		C71.406,63.86,65.824,69.436,59.211,74.13C52.6,78.826,44.959,82.64,36.73,85.867c-8.229,3.229-17.045,5.868-35.167,9.391
		L1.562,185.921L1.562,185.921z"/>
	<path fill="#FFFFFF" stroke="#000000" stroke-width="1.5" stroke-miterlimit="10" d="M513.402,85.867
		c-8.229-3.227-15.869-7.041-22.481-11.736c-6.612-4.695-12.196-10.271-17.854-18.777c-5.656-8.51-11.391-19.951-15.8-51.499
		h-90.102c-1.736,10.402-1.447,18.487-0.242,26.669c1.206,8.183,3.326,16.459,5.833,24.063c2.507,7.605,5.398,14.534,9.447,22.715
		c4.049,8.182,9.255,17.614,14.461,25.99c5.206,8.375,10.412,15.688,16.771,22.523c6.362,6.833,13.886,13.188,21.4,18.962
		c7.521,5.775,15.04,10.973,26.754,16.749c11.713,5.775,27.622,12.129,57.763,24.026c10.979-1.411,19.498-2.081,29.209-0.451V95.256
		C530.446,91.735,521.631,89.096,513.402,85.867z"/>
	<path fill="#FFFFFF" stroke="#000000" stroke-width="1.5" stroke-miterlimit="10" d="M183.205,523.326
		c-1.206-8.182-3.327-16.458-5.833-24.063c-2.505-7.604-5.398-14.531-9.449-22.716c-4.05-8.182-9.255-17.616-14.461-25.99
		c-5.207-8.372-10.412-15.688-16.775-22.521c-6.362-6.835-13.882-13.188-21.401-18.961c-7.52-5.775-15.041-10.978-26.753-16.749
		c-11.713-5.775-27.621-12.127-57.762-24.023l2.074-0.271c-12.002,1.588-20.969,2.452-31.283,0.723v-2.137
		c-0.518,0.104-1.038,0.196-1.562,0.264l1.562,91.714c18.122,3.521,26.938,6.161,35.167,9.393
		c8.229,3.229,15.869,7.042,22.481,11.734c6.612,4.694,12.196,10.271,17.853,18.778c5.656,8.509,11.387,19.951,15.795,51.498h90.104
		C184.7,539.593,184.41,531.508,183.205,523.326z"/>
	<path fill="#FFFFFF" stroke="#000000" stroke-width="1.5" stroke-miterlimit="10" d="M340.27,179.141
		c6.271,7.217,12.243,14.149,18.853,20.646c6.604,6.497,13.834,12.562,29.767,23.452h0.002c5.216-2.817,10.334-5.424,15.939-8.01
		c12.726-5.872,27.958-11.646,40.104-15.497c12.146-3.851,21.209-5.775,33.264-7.893c12.052-2.117,27.092-4.428,39.094-6.016
		c0.702-0.092,1.393-0.183,2.073-0.271c-30.144-11.896-46.053-18.25-57.766-24.026c-11.715-5.774-19.229-10.974-26.754-16.749
		c-7.52-5.774-15.038-12.129-21.397-18.962c-6.362-6.834-11.568-14.148-16.774-22.523c-5.206-8.375-10.412-17.808-14.461-25.99
		c-4.049-8.182-6.941-15.11-9.447-22.715c-2.507-7.603-4.627-15.882-5.833-24.063c-1.205-8.183-1.493-16.267,0.242-26.669H275.07
		c1.793,36.262,4.679,49.28,8.256,62.156c3.579,12.875,7.85,25.609,11.721,36.305c3.87,10.7,7.342,19.361,11.583,28.121
		c4.242,8.759,9.255,17.615,15.039,25.796C327.448,164.413,334.003,171.921,340.27,179.141z"/>
	<path fill="#FFFFFF" stroke="#000000" stroke-width="1.5" stroke-miterlimit="10" d="M488.002,284.554
		c-13.11,3.383-27.394,7.6-41.589,12.938c-14.194,5.338-28.301,11.792-38.88,17.659c-10.58,5.866-17.637,11.146-27.992,19.513
		c-10.358,8.361-24.022,19.806-52.107,54.831l0.001,0.006c4.061,7.755,7.771,15.066,11.118,22.489
		c4.174,9.232,7.802,18.655,11.122,30.368c3.319,11.712,6.332,25.721,9.072,39.925c2.739,14.205,5.206,28.602,8.599,67.714
		c0.881-34.188,4.407-46.509,8.963-58.98c4.56-12.469,10.144-25.087,15.576-34.77c5.438-9.684,10.729-16.432,17.189-23.62
		c6.467-7.188,14.104-14.816,21.748-21.27c7.641-6.456,15.277-11.737,23.652-16.578c8.376-4.841,17.485-9.242,26.451-13.061
		c8.962-3.813,17.777-7.041,27.917-9.535c10.142-2.491,21.604-4.251,39.726-4.251v-91.009
		C513.054,278.626,501.113,281.173,488.002,284.554z"/>
	<path fill="#FFFFFF" stroke="#000000" stroke-width="1.5" stroke-miterlimit="10" d="M211.578,141.86
		c-4.172-9.237-7.801-18.655-11.121-30.368c-3.319-11.714-6.332-25.723-9.071-39.925c-2.74-14.203-5.207-28.602-8.599-67.713
		c-0.882,34.187-4.409,46.511-8.963,58.981c-4.557,12.47-10.14,25.085-15.576,34.769c-5.436,9.684-10.727,16.432-17.192,23.621
		c-6.465,7.188-14.105,14.817-21.748,21.273c-7.641,6.454-15.281,11.736-23.658,16.578c-8.375,4.841-17.486,9.242-26.449,13.056
		c-8.963,3.814-17.78,7.042-27.917,9.537c-10.14,2.494-21.602,4.254-39.723,4.254v91.004c35.518-1.701,47.456-4.248,60.567-7.629
		c13.11-3.383,27.394-7.602,41.587-12.938c14.195-5.338,28.301-11.792,38.881-17.661c10.579-5.871,17.632-11.15,27.991-19.512
		c10.36-8.362,24.024-19.806,52.108-54.831l-0.001-0.005C218.642,156.599,214.931,149.284,211.578,141.86z"/>
	<path fill="#FFFFFF" stroke="#000000" stroke-width="1.5" stroke-miterlimit="10" d="M275.064,549.997
		c-1.793-36.262-4.678-49.28-8.254-62.156c-3.578-12.877-7.85-25.604-11.72-36.307c-3.872-10.698-7.342-19.361-11.583-28.12
		c-4.243-8.757-9.255-17.614-15.041-25.795c-5.785-8.182-12.34-15.688-18.606-22.908c-6.266-7.218-12.244-14.149-18.848-20.646
		c-6.604-6.498-13.834-12.563-29.769-23.453h-0.001c-5.215,2.817-10.334,5.424-15.941,8.011
		c-12.726,5.871-27.958,11.647-40.104,15.497c-12.147,3.85-21.209,5.775-33.26,7.893c-12.051,2.116-27.091,4.428-39.092,6.02
		c-0.702,0.092-1.391,0.184-2.072,0.271h-0.001c30.143,11.897,46.048,18.25,57.762,24.023c11.713,5.771,19.233,10.974,26.753,16.749
		c7.521,5.77,15.04,12.126,21.401,18.96c6.363,6.836,11.568,14.151,16.775,22.521c5.207,8.375,10.412,17.813,14.461,25.989
		c4.049,8.185,6.942,15.112,9.449,22.717s4.627,15.885,5.833,24.063c1.205,8.182,1.495,16.267-0.241,26.671L275.064,549.997
		L275.064,549.997z"/>
	<path fill="#FFFFFF" stroke="#000000" stroke-width="1.5" stroke-miterlimit="10" d="M274.57,241.849l32.392,35.078
		c26.609-22.521,45.409-33.205,59.918-41.532c8.116-4.658,14.891-8.578,21.512-12.153v-0.002
		c-15.934-10.891-23.163-16.955-29.768-23.451c-6.604-6.498-12.581-13.429-18.847-20.647c-6.272-7.219-12.822-14.728-18.608-22.909
		c-5.783-8.182-10.798-17.037-15.038-25.796c-4.242-8.759-7.714-17.421-11.584-28.121c-3.871-10.696-8.145-23.428-11.721-36.305
		c-3.578-12.876-6.461-25.894-8.256-62.156h-92.279c3.393,39.111,5.859,53.51,8.599,67.713c2.74,14.204,5.752,28.211,9.072,39.926
		c3.32,11.713,6.948,21.13,11.121,30.369c4.173,9.237,8.889,18.292,14.149,28.254c5.261,9.961,11.066,20.83,18.392,32.045
		c7.325,11.212,16.169,22.775,30.948,40.68v-0.996L274.57,241.849L274.57,241.849z"/>
	<polygon fill="#FFFFFF" stroke="#000000" stroke-width="1.5" stroke-miterlimit="10" points="242.675,276.925 275.066,242.84 
		307.457,276.925 275.066,311.011 	"/>
	<path fill="#FFFFFF" stroke="#000000" stroke-width="1.5" stroke-miterlimit="10" d="M360.182,482.283
		c-2.734-14.205-5.751-28.213-9.066-39.925c-3.32-11.714-6.948-21.136-11.121-30.368c-4.172-9.236-8.895-18.293-14.15-28.255
		c-5.262-9.961-11.063-20.827-18.391-32.045c-7.325-11.214-16.171-22.778-30.947-40.683v0.991l-32.392-35.078
		c-26.609,22.521-45.409,33.207-59.918,41.534c-8.116,4.654-14.89,8.574-21.511,12.15l0,0
		c15.935,10.895,23.165,16.954,29.768,23.452c6.604,6.498,12.582,13.432,18.848,20.646c6.266,7.219,12.822,14.727,18.605,22.908
		c5.784,8.181,10.799,17.037,15.041,25.795c4.242,8.759,7.712,17.422,11.584,28.12c3.871,10.695,8.143,23.431,11.719,36.307
		c3.578,12.875,6.463,25.895,8.257,62.156h92.28C365.39,510.885,362.922,496.487,360.182,482.283z"/>
	<path fill="#FFFFFF" stroke="#000000" stroke-width="1.5" stroke-miterlimit="10" d="M518.723,185.767
		c-12.005,1.588-27.043,3.898-39.096,6.016c-12.052,2.118-21.113,4.042-33.259,7.893c-12.146,3.851-27.38,9.625-40.105,15.497
		c-12.727,5.871-22.94,11.838-37.455,20.165c-14.508,8.328-33.308,19.01-59.917,41.531L276.5,310.954
		c14.777,17.901,23.622,29.466,30.947,40.682c7.319,11.215,13.129,22.081,18.391,32.043c1.032,1.953,2.035,3.864,3.026,5.761
		l0.003,0.002c28.084-35.024,41.75-46.473,52.105-54.834c10.358-8.358,17.41-13.645,27.988-19.513
		c10.582-5.867,24.688-12.322,38.883-17.658c14.192-5.34,28.48-9.557,41.59-12.938c13.109-3.383,25.053-5.929,60.566-7.629v-91.824
		C539.689,183.313,530.725,184.177,518.723,185.767z"/>
	<path fill="#FFFFFF" stroke="#000000" stroke-width="1.5" stroke-miterlimit="10" d="M224.997,170.786
		c-1.031-1.954-2.035-3.865-3.025-5.757l-0.003-0.003c-28.083,35.025-41.749,46.469-52.108,54.832
		c-10.358,8.362-17.413,13.643-27.991,19.512c-10.58,5.868-24.685,12.323-38.88,17.661c-14.194,5.337-28.478,9.555-41.588,12.938
		c-13.112,3.383-25.051,5.928-60.567,7.629v91.824c10.313,1.73,19.281,0.866,31.283-0.723c12.002-1.588,27.042-3.898,39.092-6.016
		c12.05-2.119,21.112-4.043,33.26-7.895c12.146-3.854,27.379-9.628,40.104-15.499c12.727-5.872,22.946-11.839,37.455-20.164
		c14.509-8.325,33.309-19.011,59.917-41.528l32.392-34.09c-14.779-17.904-23.623-29.467-30.948-40.68
		C236.063,191.616,230.257,180.748,224.997,170.786z"/>
</g>
</svg>
