<?xml version="1.0" encoding="utf-8"?>
<!-- Generator: Adobe Illustrator 16.0.0, SVG Export Plug-In . SVG Version: 6.00 Build 0)  -->
<!DOCTYPE svg PUBLIC "-//W3C//DTD SVG 1.1//EN" "http://www.w3.org/Graphics/SVG/1.1/DTD/svg11.dtd" [
	<!ENTITY ns_flows "http://ns.adobe.com/Flows/1.0/">
	<!ENTITY ns_extend "http://ns.adobe.com/Extensibility/1.0/">
	<!ENTITY ns_ai "http://ns.adobe.com/AdobeIllustrator/10.0/">
	<!ENTITY ns_graphs "http://ns.adobe.com/Graphs/1.0/">
]>
<svg version="1.1" id="Layer_1" xmlns:x="&ns_extend;" xmlns:i="&ns_ai;" xmlns:graph="&ns_graphs;"
	 xmlns="http://www.w3.org/2000/svg" xmlns:xlink="http://www.w3.org/1999/xlink" xmlns:a="http://ns.adobe.com/AdobeSVGViewerExtensions/3.0/"
	 x="0px" y="0px" width="550px" height="550px" viewBox="0 0 550 550" enable-background="new 0 0 550 550" xml:space="preserve">
<g>
	<path fill="#FFFFFF" stroke="#000000" stroke-width="1.5" stroke-miterlimit="10" d="M0,367.334
		c25.83-0.719,41.267-3.59,53.533-7.061c12.267-3.474,21.362-7.539,30.576-12.207c9.215-4.668,18.549-9.936,25.61-15.438
		c7.06-5.506,11.848-11.249,15.796-17.112c3.949-5.863,7.061-11.85,9.249-16.594c2.187-4.747,3.451-8.257,4.237-11.71
		c0.787-3.455,1.096-6.854,1.096-12.216c0-5.362-0.309-8.762-1.096-12.217c-0.786-3.454-2.049-6.963-4.237-11.708
		c-2.187-4.747-5.298-10.729-9.249-16.594c-3.949-5.863-8.736-11.608-15.796-17.113c-7.061-5.505-16.395-10.771-25.61-15.438
		c-9.214-4.667-18.309-8.736-30.576-12.206C41.267,186.25,25.83,183.379,0,182.66V367.334z"/>
	<path fill="#FFFFFF" stroke="#000000" stroke-width="1.5" stroke-miterlimit="10" d="M550,411.074
		c-7.435-0.405-11.716,0.188-15.406,1.355c-3.688,1.169-6.791,2.914-11.295,5.563c-4.504,2.645-10.408,6.188-16.111,10.476
		c-5.704,4.283-11.211,9.313-15.993,15.652c-4.788,6.342-8.855,14.001-12.81,22.141c-3.947,8.14-7.774,16.753-10.771,28.063
		c-2.992,11.308-5.146,25.311-9.454,55.672H550V411.074z"/>
	<path fill="#FFFFFF" stroke="#000000" stroke-width="1.5" stroke-miterlimit="10" d="M458.16,0.002
		c4.308,30.363,6.462,44.365,9.455,55.673c2.99,11.309,6.817,19.925,10.77,28.063c3.95,8.138,8.021,15.796,12.81,22.138
		c4.782,6.343,10.288,11.37,15.993,15.655c5.703,4.286,11.607,7.83,16.111,10.475c4.504,2.644,7.605,4.389,11.296,5.559
		c3.689,1.17,7.976,1.765,15.405,1.359V0.002H458.16z"/>
	<path fill="#FFFFFF" stroke="#000000" stroke-width="1.5" stroke-miterlimit="10" d="M218.129,549.996
		c11.524-30.771,21.275-41.854,30.583-52.857c9.308-11.006,18.171-21.938,29.104-33.464c10.935-11.521,23.936-23.638,36.051-34.865
		c12.114-11.229,23.344-21.566,36.936-33.095c13.592-11.521,29.548-24.229,42.105-33.833c12.557-9.603,21.719-16.103,33.089-24.015
		c11.371-7.912,24.952-17.238,34.414-23.809c9.461-6.568,14.804-10.388,19.827-13.564c5.021-3.182,9.729-5.723,14.266-8.143
		c4.535-2.418,8.899-4.709,12.668-6.539c3.771-1.828,6.945-3.195,10.874-4.703c3.929-1.506,8.61-3.148,12.229-6.109
		c-3.614-2.96-8.3-4.604-12.229-6.107c-3.929-1.506-7.104-2.875-10.874-4.705c-3.769-1.83-8.133-4.121-12.668-6.539
		c-4.534-2.418-9.24-4.961-14.266-8.141c-5.023-3.18-10.366-6.995-19.827-13.567c-9.462-6.57-23.043-15.893-34.414-23.806
		c-11.37-7.913-20.531-14.413-33.089-24.016c-12.562-9.603-28.518-22.309-42.105-33.833c-13.592-11.523-24.817-21.866-36.936-33.094
		S288.75,97.85,277.816,86.326c-10.936-11.524-19.797-22.457-29.104-33.463c-9.308-11.006-19.059-22.088-30.583-52.857H0v30.029
		c29.375-0.886,49.764,6.206,66.607,13.149c16.843,6.944,30.14,13.74,44.323,22.751c14.184,9.013,29.254,20.241,46.244,33.982
		c16.991,13.74,35.901,29.99,57.916,49.346c22.013,19.353,47.131,41.811,66.042,58.505c18.91,16.694,31.616,27.628,42.405,36.209
		c10.788,8.582,19.66,14.811,24.938,18.77c5.279,3.959,6.975,5.649,8.563,6.597c1.587,0.945,3.074,1.148,4.346,1.658
		s2.328,1.329,3.943,4.001c-1.616,2.672-2.672,3.49-3.943,4c-1.27,0.511-2.758,0.713-4.346,1.659
		c-1.589,0.945-3.28,2.638-8.563,6.596c-5.276,3.961-14.148,10.189-24.938,18.771c-10.789,8.58-23.495,19.515-42.405,36.209
		c-18.911,16.693-44.029,39.146-66.042,58.505c-22.014,19.354-40.924,35.604-57.916,49.346
		c-16.989,13.741-32.06,24.968-46.244,33.981c-14.183,9.012-27.479,15.808-44.323,22.753C49.765,513.765,29.376,520.857,0,519.971
		V550h218.129V549.996L218.129,549.996z"/>
	<path fill="#FFFFFF" stroke="#000000" stroke-width="1.5" stroke-miterlimit="10" d="M0,454.154
		c34.037-3.59,45.167-8.258,55.518-13.347c10.352-5.087,19.926-10.591,28.422-16.335c8.496-5.74,15.916-11.728,23.695-18.188
		c7.778-6.462,15.917-13.402,26.208-22.617c10.292-9.215,22.737-20.703,35.183-33.027c12.447-12.326,24.893-25.49,35.064-35.543
		c10.172-10.054,18.071-16.994,23.557-21.479c5.486-4.481,8.561-6.513,11.416-8.298c2.854-1.785,5.49-3.331,7.054-4.321
		c1.565-0.992,2.058-1.433,2.797-1.679c0.738-0.245,1.725-0.301,2.668-0.723c0.943-0.427,1.843-1.217,3.568-3.604
		c-1.726-2.389-2.625-3.178-3.568-3.602c-0.943-0.422-1.93-0.478-2.668-0.724c-0.739-0.246-1.232-0.685-2.797-1.677
		c-1.565-0.991-4.201-2.537-7.054-4.324c-2.855-1.785-5.93-3.813-11.416-8.295c-5.485-4.484-13.384-11.425-23.557-21.478
		c-10.172-10.053-22.618-23.216-35.064-35.541c-12.446-12.326-24.892-23.814-35.183-33.03c-10.292-9.214-18.43-16.156-26.208-22.619
		c-7.779-6.462-15.198-12.445-23.695-18.19c-8.497-5.744-18.071-11.249-28.422-16.335C45.167,104.095,34.037,99.43,0,95.839v86.82
		c25.83,0.718,41.267,3.591,53.533,7.061c12.267,3.471,21.362,7.539,30.576,12.207c9.215,4.667,18.549,9.932,25.61,15.438
		c7.06,5.504,11.847,11.25,15.796,17.112c3.949,5.863,7.061,11.847,9.249,16.593c2.187,4.746,3.451,8.256,4.237,11.709
		c0.787,3.455,1.096,6.854,1.096,12.216c0,5.36-0.309,8.76-1.096,12.216c-0.786,3.453-2.049,6.963-4.237,11.71
		c-2.187,4.745-5.298,10.729-9.249,16.595c-3.95,5.861-8.736,11.604-15.796,17.111c-7.061,5.504-16.395,10.771-25.61,15.438
		c-9.214,4.666-18.309,8.733-30.576,12.207c-12.266,3.471-27.703,6.34-53.533,7.061V454.154L0,454.154z"/>
	<path fill="#FFFFFF" stroke="#000000" stroke-width="1.5" stroke-miterlimit="10" d="M550,353.854
		c-11.992,1.526-19.624,3.057-27.453,5.342c-7.828,2.287-15.853,5.342-24.055,9.262c-8.2,3.919-16.578,8.706-25.194,14.211
		c-8.617,5.504-17.471,11.727-25.97,18.31c-8.496,6.582-16.634,13.523-24.532,21.426c-7.896,7.896-15.557,16.753-22.736,25.729
		c-7.182,8.976-13.882,18.069-19.023,26.087c-5.146,8.021-8.737,14.96-13.046,25.789c-4.311,10.829-9.335,25.55-13.646,49.993
		H458.16c4.308-30.363,6.462-44.364,9.454-55.673c2.992-11.313,6.821-19.926,10.771-28.063c3.95-8.14,8.021-15.799,12.809-22.141
		c4.783-6.342,10.291-11.369,15.997-15.652c5.7-4.286,11.604-7.831,16.108-10.476c4.504-2.646,7.605-4.395,11.295-5.563
		c3.69-1.171,7.977-1.765,15.406-1.355V353.854L550,353.854z"/>
	<path fill="#FFFFFF" stroke="#000000" stroke-width="1.5" stroke-miterlimit="10" d="M354.344,0.002
		c4.312,24.442,9.336,39.163,13.646,49.993c4.307,10.829,7.896,17.771,13.045,25.788c5.146,8.017,11.848,17.112,19.023,26.088
		c7.185,8.975,14.844,17.831,22.736,25.73c7.898,7.898,16.036,14.838,24.532,21.421c8.499,6.581,17.353,12.804,25.971,18.309
		c8.615,5.504,16.993,10.29,25.193,14.21c8.202,3.918,16.227,6.969,24.055,9.258c7.829,2.289,15.461,3.815,27.453,5.341v-57.218
		c-7.435,0.406-11.716-0.188-15.405-1.359c-3.688-1.17-6.792-2.914-11.296-5.559c-4.504-2.646-10.408-6.189-16.111-10.475
		c-5.706-4.286-11.211-9.312-15.993-15.655c-4.788-6.342-8.855-14-12.81-22.138c-3.947-8.139-7.776-16.754-10.77-28.064
		c-2.992-11.308-5.146-25.309-9.455-55.672H354.344V0.002z"/>
	<path fill="#FFFFFF" stroke="#000000" stroke-width="1.5" stroke-miterlimit="10" d="M0,95.843
		c34.037,3.59,45.167,8.257,55.518,13.343c10.352,5.087,19.926,10.591,28.422,16.335s15.916,11.728,23.695,18.19
		c7.778,6.462,15.917,13.403,26.208,22.619c10.292,9.214,22.737,20.703,35.183,33.029c12.447,12.326,24.893,25.49,35.064,35.542
		c10.172,10.053,18.071,16.994,23.557,21.478s8.561,6.51,11.416,8.296c2.854,1.787,5.49,3.333,7.054,4.324
		c1.564,0.991,2.058,1.431,2.797,1.676c0.738,0.247,1.725,0.302,2.668,0.724s1.843,1.213,3.568,3.602
		c-1.726,2.389-2.625,3.18-3.568,3.602c-0.943,0.424-1.93,0.479-2.668,0.728c-0.739,0.246-1.232,0.685-2.797,1.678
		c-1.565,0.99-4.201,2.535-7.054,4.321c-2.855,1.783-5.93,3.813-11.416,8.298c-5.485,4.479-13.384,11.425-23.557,21.479
		c-10.172,10.053-22.618,23.219-35.064,35.545c-12.446,12.324-24.892,23.813-35.183,33.024
		c-10.292,9.215-18.43,16.155-26.208,22.617c-7.779,6.462-15.198,12.446-23.695,18.188c-8.497,5.744-18.071,11.247-28.422,16.338
		C45.167,445.9,34.036,450.567,0,454.157v65.811c29.375,0.886,49.764-6.206,66.607-13.146c16.843-6.945,30.14-13.741,44.323-22.753
		c14.184-9.017,29.254-20.24,46.244-33.981c16.991-13.74,35.901-29.99,57.916-49.346c22.013-19.354,47.131-41.813,66.042-58.508
		c18.91-16.691,31.616-27.627,42.405-36.209c10.788-8.582,19.66-14.813,24.938-18.771c5.279-3.959,6.975-5.646,8.563-6.596
		c1.587-0.945,3.074-1.146,4.346-1.658c1.272-0.512,2.328-1.329,3.943-4.001c-1.616-2.673-2.672-3.49-3.943-4
		c-1.27-0.511-2.758-0.713-4.346-1.659c-1.591-0.945-3.28-2.637-8.563-6.596c-5.276-3.959-14.148-10.188-24.938-18.77
		c-10.789-8.581-23.495-19.515-42.405-36.208c-18.911-16.695-44.029-39.152-66.042-58.507
		c-22.014-19.354-40.924-35.604-57.916-49.345c-16.989-13.741-32.06-24.969-46.244-33.981
		c-14.183-9.011-27.479-15.808-44.323-22.751C49.764,36.238,29.375,29.146,0,30.032V95.843z"/>
	<path fill="#FFFFFF" stroke="#000000" stroke-width="1.5" stroke-miterlimit="10" d="M550,196.144
		c-11.992-1.526-19.624-3.053-27.453-5.341c-7.828-2.29-15.853-5.34-24.055-9.259c-8.2-3.919-16.578-8.706-25.194-14.21
		c-8.617-5.505-17.471-11.728-25.97-18.309c-8.496-6.583-16.634-13.522-24.532-21.421c-7.896-7.898-15.557-16.754-22.736-25.73
		c-7.182-8.975-13.882-18.07-19.023-26.088c-5.146-8.017-8.737-14.958-13.046-25.788c-4.312-10.831-9.335-25.552-13.646-49.995
		H218.129c11.524,30.77,21.275,41.851,30.583,52.858c9.308,11.007,18.171,21.939,29.104,33.463
		c10.935,11.524,23.936,23.64,36.051,34.867c12.114,11.228,23.344,21.57,36.936,33.094c13.592,11.524,29.548,24.23,42.105,33.833
		c12.558,9.603,21.719,16.104,33.089,24.016c11.371,7.913,24.952,17.236,34.414,23.807c9.461,6.571,14.804,10.386,19.827,13.566
		c5.021,3.181,9.729,5.724,14.266,8.14c4.535,2.418,8.899,4.709,12.668,6.539c3.771,1.832,6.945,3.201,10.874,4.707
		c3.929,1.504,8.61,3.148,12.229,6.107c-3.614,2.96-8.3,4.604-12.229,6.109c-3.929,1.508-7.104,2.875-10.874,4.703
		c-3.769,1.832-8.133,4.121-12.668,6.539c-4.534,2.418-9.24,4.963-14.266,8.143c-5.023,3.18-10.366,6.994-19.827,13.564
		c-9.462,6.568-23.043,15.896-34.414,23.809c-11.37,7.912-20.531,14.412-33.089,24.015c-12.562,9.604-28.518,22.313-42.105,33.833
		c-13.591,11.524-24.817,21.867-36.936,33.095c-12.115,11.229-25.117,23.345-36.051,34.865
		c-10.935,11.524-19.797,22.458-29.104,33.464c-9.308,11.006-19.059,22.087-30.583,52.857h136.214
		c4.312-24.443,9.336-39.164,13.646-49.993c4.307-10.829,7.896-17.771,13.045-25.789c5.146-8.018,11.848-17.112,19.023-26.087
		c7.185-8.976,14.844-17.832,22.736-25.729c7.898-7.898,16.036-14.844,24.532-21.426c8.499-6.582,17.353-12.804,25.971-18.311
		c8.615-5.505,16.993-10.291,25.193-14.21c8.202-3.92,16.227-6.974,24.055-9.259c7.829-2.288,15.461-3.814,27.453-5.344"/>
</g>
</svg>
