<?xml version="1.0" encoding="utf-8"?>
<!-- Generator: Adobe Illustrator 16.0.0, SVG Export Plug-In . SVG Version: 6.00 Build 0)  -->
<!DOCTYPE svg PUBLIC "-//W3C//DTD SVG 1.1//EN" "http://www.w3.org/Graphics/SVG/1.1/DTD/svg11.dtd">
<svg version="1.1" id="Layer_1" xmlns="http://www.w3.org/2000/svg" xmlns:xlink="http://www.w3.org/1999/xlink" x="0px" y="0px"
	 width="600px" height="600px" viewBox="0 0 600 600" enable-background="new 0 0 600 600" xml:space="preserve">
    <g>
	<path fill="#FFFFFF" stroke="#000000" stroke-width="1.5" stroke-miterlimit="10" d="M517.029,264.237
		c-14.539,2.632-26.027,5.744-39.072,10.051c-13.045,4.308-27.645,9.813-39.826,15.232c-12.186,5.418-21.951,10.75-32.688,17.919
		c-10.736,7.17-22.447,16.179-33.031,24.51c-10.582,8.332-20.041,15.986-29.724,26.121c-9.684,10.135-19.592,22.744-28.824,36.254
		c-9.231,13.513-17.788,27.924-24.847,42.357c-7.059,14.435-12.619,28.89-17.483,48.628c-4.866,19.738-9.035,44.76-12.371,89.688
		h-0.276v0.001h316.115V258.731C549.16,259.449,531.57,261.604,517.029,264.237z"/>
	<path fill="#FFFFFF" stroke="#000000" stroke-width="1.5" stroke-miterlimit="10" d="M163.317,310.982
		c14.434-7.06,28.846-15.615,42.357-24.849c13.511-9.232,26.121-19.14,36.254-28.824c10.133-9.682,17.79-19.14,26.121-29.724
		c8.332-10.583,17.339-22.293,24.51-33.031c7.169-10.737,12.501-20.505,17.919-32.688c5.418-12.183,10.924-26.782,15.232-39.827
		c4.307-13.044,7.418-24.531,10.051-39.072c2.635-14.54,4.787-32.131,5.506-57.968H25.003v315.838
		c44.929-3.336,69.948-7.506,89.687-12.371S148.884,318.042,163.317,310.982z"/>
	<path fill="#FFFFFF" stroke="#000000" stroke-width="1.5" stroke-miterlimit="10" d="M38.625,43.861
		c2.549,3.42,3.822,6.347,5.284,9.844c1.463,3.498,3.116,7.569,4.325,12.466c1.209,4.896,1.972,10.62,2.417,16.809
		s0.572,12.842,0.687,16.685c0.116,3.841,0.219,4.871,0.889,5.645c0.669,0.773,1.905,1.287,3.57,1.445
		c1.665,0.159,3.758-0.04,7.437-0.141c3.679-0.099,8.944-0.099,13.013,0.38c4.069,0.479,6.941,1.436,9.813,3.47
		c2.872,2.035,5.744,5.146,8.019,9.574c2.273,4.427,3.949,10.171,4.427,14.958c0.478,4.788-0.239,8.617-1.795,11.49
		c-1.556,2.872-3.949,4.787-7.539,6.223s-8.377,2.393-12.924,3.829s-8.855,3.351-12.087,7.779
		c-3.232,4.428-5.385,11.369-6.94,16.276c-1.556,4.906-2.514,7.778-2.393,9.933c0.12,2.153,1.316,3.589,4.427,4.667
		c3.112,1.076,8.138,1.795,14.48,2.873c6.343,1.076,14.002,2.513,23.456,3.948c9.454,1.436,20.703,2.873,31.445,5.457
		c10.742,2.584,20.976,6.318,30.262,9.734c9.285,3.417,17.622,6.52,29.798,13.28c12.176,6.761,28.192,17.179,50.409,29.468
		c0.959-0.882,1.905-1.763,2.825-2.642c6.616-6.323,12.175-12.551,17.558-19.058c-12.083-21.772-22.325-37.543-28.997-49.563
		c-6.761-12.177-9.864-20.513-13.28-29.798c-3.417-9.286-7.15-19.52-9.734-30.262c-2.584-10.741-4.021-21.991-5.457-31.444
		c-1.436-9.455-2.872-17.114-3.949-23.456c-1.077-6.344-1.795-11.369-2.872-14.481c-1.077-3.111-2.513-4.308-4.667-4.426
		c-2.154-0.12-5.026,0.837-9.933,2.393c-4.905,1.556-11.847,3.71-16.274,6.94c-4.428,3.229-6.343,7.539-7.779,12.087
		c-1.436,4.548-2.393,9.333-3.829,12.924c-1.436,3.59-3.351,5.984-6.223,7.539c-2.873,1.555-6.702,2.274-11.488,1.796
		c-4.787-0.479-10.531-2.155-14.959-4.428c-4.427-2.274-7.539-5.146-9.573-8.018c-2.035-2.873-2.992-5.744-3.471-9.813
		c-0.479-4.068-0.479-9.333-0.379-13.013c0.099-3.68,0.298-5.772,0.14-7.437c-0.159-1.665-0.673-2.901-1.446-3.571
		c-0.773-0.669-1.804-0.772-5.646-0.888c-3.842-0.116-10.5-0.244-16.688-0.689s-11.913-1.208-16.81-2.416
		c-4.896-1.208-8.967-2.863-12.465-4.326c-3.498-1.462-6.423-2.733-9.845-5.284C40.442,36.072,36.525,32.244,31.658,25h-6.655v6.656
		C32.247,36.523,36.075,40.441,38.625,43.861z"/>
	<path fill="#FFFFFF" stroke="#000000" stroke-width="1.5" stroke-miterlimit="10" d="M561.377,556.138
		c-2.551-3.422-3.82-6.347-5.283-9.845c-1.463-3.497-3.117-7.568-4.326-12.465c-1.209-4.897-1.971-10.621-2.416-16.811
		c-0.444-6.188-0.571-12.843-0.688-16.685s-0.219-4.872-0.889-5.644c-0.668-0.774-1.906-1.289-3.57-1.447s-3.758,0.041-7.438,0.141
		c-3.678,0.101-8.942,0.101-13.014-0.38c-4.068-0.479-6.938-1.437-9.813-3.471c-2.87-2.034-5.743-5.146-8.018-9.573
		c-2.273-4.428-3.949-10.172-4.428-14.96c-0.479-4.786,0.238-8.616,1.795-11.487c1.557-2.873,3.949-4.789,7.539-6.224
		c3.59-1.437,8.379-2.395,12.924-3.83c4.549-1.434,8.857-3.35,12.088-7.777c3.23-4.429,5.385-11.37,6.939-16.274
		c1.557-4.907,2.514-7.779,2.395-9.934s-1.315-3.591-4.428-4.668c-3.111-1.074-8.137-1.796-14.48-2.871
		c-6.342-1.078-14.002-2.515-23.455-3.949c-9.454-1.437-20.702-2.873-31.444-5.457s-20.978-6.316-30.263-9.732
		c-9.282-3.418-17.62-6.521-29.799-13.281c-12.02-6.672-27.789-16.914-49.563-28.998c-6.506,5.385-12.734,10.941-19.058,17.56
		c-0.879,0.92-1.76,1.866-2.643,2.825c12.289,22.218,22.707,38.231,29.467,50.408c6.763,12.178,9.863,20.514,13.281,29.8
		c3.416,9.284,7.15,19.52,9.732,30.262c2.586,10.74,4.022,21.99,5.457,31.442c1.436,9.454,2.872,17.114,3.948,23.457
		c1.078,6.344,1.797,11.369,2.871,14.48c1.078,3.111,2.515,4.308,4.67,4.428c2.152,0.118,5.025-0.839,9.933-2.395
		c4.906-1.557,11.848-3.709,16.274-6.94c4.429-3.229,6.342-7.539,7.779-12.087c1.434-4.548,2.393-9.333,3.828-12.924
		c1.436-3.59,3.35-5.984,6.223-7.54c2.871-1.556,6.701-2.273,11.488-1.794c4.789,0.479,10.531,2.152,14.959,4.426
		c4.428,2.275,7.539,5.147,9.574,8.02c2.035,2.873,2.992,5.745,3.471,9.813s0.479,9.335,0.381,13.014
		c-0.102,3.681-0.301,5.771-0.143,7.438c0.158,1.664,0.674,2.898,1.447,3.57c0.771,0.67,1.803,0.772,5.645,0.888
		s10.494,0.242,16.684,0.688c6.19,0.446,11.912,1.208,16.812,2.417c4.896,1.208,8.967,2.862,12.465,4.325s6.422,2.733,9.844,5.283
		s7.34,6.378,12.207,13.622h6.654v-6.654C567.756,563.476,563.928,559.56,561.377,556.138z"/>
	<path fill="#FFFFFF" stroke="#000000" stroke-width="1.5" stroke-miterlimit="10" d="M176.072,541.947
		c-1.523-8.889-3.943-17.401-7.323-25.745c-3.38-8.346-7.719-16.524-13.395-25.309c-5.675-8.783-12.685-18.172-19.58-21.942
		c-0.06,0.321-0.142,0.607-0.226,0.879c-0.338,1.075-0.733,1.902-1.38,2.62c-0.647,0.719-1.544,1.329-2.353,2.21
		c-0.808,0.88-1.527,2.029-2.215,3.654s-1.345,3.726-4.426,11.28c-3.079,7.556-8.582,20.565-11.969,29.17
		c-3.386,8.604-4.659,12.803-5.867,15.729c-0.545,1.319-1.083,2.372-1.719,3.273l-0.001,0.02
		c23.783,12.404,47.567,24.808,71.35,37.212C178.222,560.099,177.595,550.835,176.072,541.947z"/>
	<path fill="#FFFFFF" stroke="#000000" stroke-width="1.5" stroke-miterlimit="10" d="M62.235,494.299
		c0.901-0.636,1.953-1.173,3.271-1.719c2.926-1.209,7.123-2.48,15.727-5.868c8.604-3.387,21.616-8.889,29.171-11.969
		c7.557-3.08,9.656-3.737,11.281-4.425c1.625-0.688,2.774-1.406,3.654-2.215c0.88-0.81,1.491-1.707,2.209-2.354
		c0.718-0.646,1.544-1.042,2.621-1.38c0.271-0.085,0.558-0.166,0.878-0.227v-0.001c-3.772-6.895-13.16-13.903-21.943-19.578
		c-8.783-5.678-16.961-10.017-25.307-13.396c-8.346-3.38-16.858-5.8-25.746-7.323c-8.889-1.521-18.151-2.148-33.051-0.896
		c12.404,23.783,24.808,47.567,37.212,71.352L62.235,494.299z"/>
	<path fill="#FFFFFF" stroke="#000000" stroke-width="1.5" stroke-miterlimit="10" d="M30.577,569.426
		c6.387,0.725,7.604,0.725,8.584,0.049s1.724-2.027,2.569-3.312c0.845-1.285,1.792-2.502,3.075-3.178
		c1.284-0.677,2.907-0.813,4.698-1.115c1.791-0.304,3.752-0.778,11.056-3.693c7.304-2.916,19.951-8.273,28.055-11.59
		c8.104-3.315,11.666-4.588,14.019-6.05c2.354-1.464,3.498-3.115,4.706-6.042c1.209-2.926,2.481-7.124,5.867-15.729
		c3.387-8.604,8.89-21.614,11.969-29.171c3.081-7.555,3.738-9.654,4.426-11.279s1.407-2.773,2.215-3.654s1.707-1.491,2.353-2.21
		c0.647-0.718,1.042-1.545,1.379-2.62c0.338-1.076,0.617-2.404-0.262-5.116c-2.713-0.878-4.039-0.599-5.116-0.262
		c-1.076,0.338-1.902,0.733-2.621,1.38c-0.719,0.646-1.329,1.544-2.209,2.354c-0.879,0.809-2.029,1.526-3.654,2.215
		c-1.625,0.688-3.725,1.347-11.281,4.426c-7.555,3.08-20.566,8.581-29.171,11.968c-8.604,3.39-12.801,4.66-15.727,5.868
		c-2.926,1.208-4.579,2.354-6.042,4.707s-2.735,5.915-6.05,14.02c-3.315,8.105-8.674,20.752-11.59,28.057
		c-2.915,7.303-3.388,9.264-3.693,11.055c-0.305,1.792-0.439,3.415-1.116,4.698c-0.676,1.285-1.892,2.23-3.177,3.075
		c-1.284,0.846-2.636,1.59-3.312,2.568C29.853,561.82,29.853,563.037,30.577,569.426z"/>
	<path fill="#FFFFFF" stroke="#000000" stroke-width="1.5" stroke-miterlimit="10" d="M463.902,132.179
		c0.061-0.32,0.143-0.606,0.227-0.877c0.336-1.077,0.732-1.904,1.379-2.622c0.647-0.718,1.545-1.329,2.354-2.208
		c0.809-0.879,1.524-2.03,2.213-3.654c0.688-1.626,1.348-3.726,4.428-11.282c3.08-7.554,8.58-20.566,11.969-29.17
		c3.388-8.604,4.658-12.802,5.867-15.728c0.545-1.319,1.082-2.372,1.719-3.274v-0.018c-23.782-12.403-47.563-24.808-71.35-37.211
		c-1.252,14.899-0.625,24.162,0.896,33.05c1.523,8.888,3.943,17.4,7.324,25.745c3.379,8.347,7.719,16.524,13.396,25.308
		C449.996,119.02,457.006,128.408,463.902,132.179L463.902,132.179z"/>
	<path fill="#FFFFFF" stroke="#000000" stroke-width="1.5" stroke-miterlimit="10" d="M537.787,105.58l-0.021,0.002
		c-0.899,0.635-1.953,1.174-3.27,1.718c-2.928,1.208-7.123,2.48-15.729,5.867c-8.604,3.387-21.614,8.889-29.17,11.968
		c-7.557,3.082-9.655,3.739-11.28,4.426s-2.773,1.406-3.654,2.215c-0.879,0.809-1.49,1.707-2.209,2.354
		c-0.719,0.646-1.545,1.041-2.621,1.379c-0.271,0.085-0.56,0.166-0.879,0.225c3.771,6.895,13.16,13.906,21.942,19.581
		c8.783,5.675,16.961,10.014,25.308,13.395c8.346,3.379,16.856,5.801,25.746,7.323c8.887,1.522,18.149,2.149,33.051,0.897
		C562.596,153.146,550.191,129.363,537.787,105.58z"/>
	<path fill="#FFFFFF" stroke="#000000" stroke-width="1.5" stroke-miterlimit="10" d="M574.705,176.363
		c0.098,0.188,0.195,0.378,0.295,0.566v-0.588C574.898,176.35,574.805,176.356,574.705,176.363z"/>
	<path fill="#FFFFFF" stroke="#000000" stroke-width="1.5" stroke-miterlimit="10" d="M541.947,176.033
		c-8.888-1.522-17.4-3.942-25.744-7.323c-8.346-3.38-16.525-7.719-25.31-13.395c-8.783-5.676-18.17-12.686-21.942-19.581
		c0.111-0.021,0.201-0.054,0.305-0.079c-0.102-0.17-0.211-0.341-0.305-0.51l0.115,0.207c-1.773-1.318-3.326-3.196-4.572-5.035
		c-0.131,0.307-0.254,0.627-0.365,0.984c-0.086,0.271-0.166,0.557-0.227,0.877v0.001c-6.896-3.772-13.906-13.16-19.58-21.944
		c-5.676-8.783-10.015-16.96-13.396-25.308c-3.381-8.345-5.801-16.857-7.323-25.745c-1.521-8.888-2.148-18.151-0.896-33.05
		c0.248,0.129,0.498,0.26,0.746,0.389c0.074-0.517,0.16-1.026,0.271-1.521h-82.459c-0.717,25.837-2.871,43.429-5.504,57.969
		c-2.633,14.541-5.744,26.029-10.051,39.072c-4.31,13.044-9.813,27.644-15.231,39.827c-5.418,12.184-10.75,21.95-17.92,32.688
		c-7.17,10.738-16.177,22.448-24.51,33.031c-8.331,10.584-15.988,20.041-26.121,29.724c-10.133,9.683-22.743,19.591-36.254,28.824
		c-13.511,9.234-27.922,17.791-42.357,24.848c-14.434,7.06-28.89,12.619-48.628,17.483c-19.738,4.865-44.759,9.034-89.687,12.371
		v82.192c14.9-1.251,24.163-0.626,33.051,0.896c8.888,1.523,17.4,3.943,25.746,7.323c8.345,3.38,16.523,7.72,25.307,13.396
		s18.171,12.685,21.943,19.58l-0.244,0.199c0.106,0.096,0.221,0.182,0.325,0.279c0.425,0.354,0.833,0.726,1.21,1.113
		c1.082,1.112,2.08,2.311,3.017,3.553l0.418-0.421c6.895,3.771,13.905,13.159,19.58,21.942s10.015,16.962,13.395,25.309
		c3.38,8.345,5.801,16.856,7.323,25.745c1.523,8.889,2.148,18.15,0.897,33.051h82.193c3.336-44.929,7.505-69.949,12.371-89.688
		c4.866-19.738,10.425-34.193,17.484-48.628s15.615-28.846,24.848-42.357c9.231-13.51,19.141-26.119,28.824-36.254
		c9.682-10.133,19.139-17.789,29.723-26.121c10.584-8.331,22.295-17.34,33.031-24.51c10.739-7.169,20.506-12.501,32.688-17.919
		c12.183-5.419,26.781-10.924,39.826-15.232c13.045-4.307,24.533-7.419,39.072-10.051c14.539-2.633,32.131-4.788,57.971-5.506
		v-81.802C560.098,178.181,550.836,177.555,541.947,176.033z"/>
	<path fill="#FFFFFF" stroke="#000000" stroke-width="1.5" stroke-miterlimit="10" d="M569.426,30.575
		c-6.387-0.725-7.604-0.725-8.584-0.049c-0.981,0.676-1.725,2.028-2.57,3.312c-0.844,1.285-1.791,2.501-3.073,3.177
		c-1.285,0.676-2.906,0.811-4.699,1.115c-1.791,0.305-3.752,0.778-11.055,3.693c-7.306,2.917-19.951,8.275-28.058,11.591
		c-8.104,3.315-11.664,4.587-14.02,6.049c-2.353,1.463-3.496,3.116-4.705,6.042c-1.209,2.926-2.48,7.124-5.867,15.728
		c-3.389,8.604-8.889,21.616-11.969,29.171c-3.082,7.555-3.738,9.655-4.428,11.281c-0.688,1.625-1.404,2.773-2.213,3.654
		c-0.81,0.881-1.707,1.491-2.354,2.209c-0.646,0.719-1.043,1.544-1.379,2.622c-0.338,1.076-0.617,2.402,0.262,5.115
		c2.713,0.879,4.039,0.599,5.115,0.262c1.076-0.338,1.902-0.733,2.621-1.38s1.33-1.544,2.209-2.353s2.028-1.527,3.653-2.215
		s3.726-1.346,11.281-4.426s20.566-8.582,29.17-11.969c8.605-3.387,12.802-4.659,15.729-5.867c2.924-1.208,4.578-2.353,6.041-4.706
		s2.733-5.915,6.049-14.019c3.316-8.105,8.674-20.751,11.592-28.056c2.916-7.304,3.388-9.264,3.693-11.056
		c0.303-1.792,0.438-3.414,1.113-4.698c0.676-1.285,1.893-2.229,3.178-3.076c1.285-0.845,2.635-1.589,3.313-2.569
		C570.148,38.179,570.15,36.962,569.426,30.575z"/>
        <path fill="#FFFFFF" stroke="#000000" stroke-width="1.5" stroke-miterlimit="10" d="M105.62,537.77l0.001-0.003
                c-0.773,1.098-1.696,1.968-2.988,2.771c-2.353,1.463-5.915,2.734-14.019,6.05c-8.104,3.316-20.751,8.674-28.055,11.59
                c-7.303,2.915-9.264,3.39-11.056,3.694c-1.792,0.303-3.414,0.438-4.698,1.114c-1.285,0.676-2.23,1.893-3.075,3.178
                c-0.845,1.284-1.588,2.635-2.569,3.312c-0.98,0.676-2.196,0.676-8.584-0.049c-0.725-6.389-0.725-7.604-0.049-8.585
                c0.676-0.979,2.028-1.723,3.312-2.567c1.285-0.846,2.501-1.791,3.177-3.075c0.677-1.284,0.812-2.906,1.116-4.699
                c0.304-1.791,0.777-3.751,3.693-11.055c2.917-7.306,8.274-19.951,11.59-28.057c3.315-8.104,4.588-11.666,6.05-14.02
                c0.882-1.418,1.838-2.395,3.095-3.214c-0.007-0.02-0.011-0.037-0.019-0.058c-0.101,0.067-0.208,0.132-0.307,0.2l-0.02,0.003
                c-12.392-23.755-24.782-47.514-37.173-71.271c-0.014,0.001-0.026,0.002-0.04,0.003V575h151.964
                c-23.783-12.404-47.566-24.807-71.348-37.211L105.62,537.77z"/>
			
        <path fill="#FFFFFF" stroke="#000000" stroke-width="1.5" stroke-miterlimit="10" d="M106.513,536.29
                c0.002-0.008,0.006-0.014,0.009-0.021C106.519,536.277,106.515,536.282,106.513,536.29z"/>

        <path fill="#FFFFFF" stroke="#000000" stroke-width="1.5" stroke-miterlimit="10" d="M106.923,535.45
                c0.14-0.304,0.277-0.62,0.416-0.955C107.2,534.831,107.062,535.146,106.923,535.45z"/>
	
	<path fill="#FFFFFF" stroke="#000000" stroke-width="1.5" stroke-miterlimit="10" d="M575,25H423.725
		c-0.108,0.496-0.194,1.003-0.271,1.519c-0.248-0.129-0.498-0.259-0.746-0.388c-0.049,0.573-0.086,1.116-0.129,1.673l0,0
		c0.043-0.556,0.08-1.1,0.129-1.672c23.688,12.353,47.377,24.709,71.063,37.063c0.9-1.581,1.953-2.708,3.599-3.732
		c2.354-1.462,5.916-2.734,14.02-6.049c8.105-3.315,20.752-8.673,28.056-11.59c7.303-2.916,9.264-3.389,11.057-3.694
		c1.791-0.305,3.412-0.438,4.697-1.115c1.285-0.677,2.229-1.893,3.076-3.177c0.844-1.283,1.588-2.636,2.567-3.312
		c0.98-0.675,2.197-0.675,8.584,0.05c0.726,6.387,0.726,7.604,0.049,8.583c-0.676,0.981-2.026,1.725-3.313,2.569
		c-1.283,0.845-2.5,1.791-3.176,3.076c-0.677,1.284-0.813,2.906-1.115,4.699c-0.303,1.791-0.777,3.751-3.693,11.055
		c-2.916,7.305-8.272,19.952-11.59,28.057c-3.313,8.104-4.588,11.666-6.051,14.018c-0.795,1.279-1.656,2.198-2.74,2.968
		c12.402,23.777,24.803,47.554,37.205,71.33c-0.1-0.188-0.197-0.377-0.295-0.566c0.1-0.008,0.193-0.015,0.295-0.022V25H575z"/>
    </g>
</svg>
