<?xml version="1.0" encoding="utf-8"?>
<!-- Generator: Adobe Illustrator 16.0.0, SVG Export Plug-In . SVG Version: 6.00 Build 0)  -->
<!DOCTYPE svg PUBLIC "-//W3C//DTD SVG 1.1//EN" "http://www.w3.org/Graphics/SVG/1.1/DTD/svg11.dtd" [
	<!ENTITY ns_flows "http://ns.adobe.com/Flows/1.0/">
	<!ENTITY ns_extend "http://ns.adobe.com/Extensibility/1.0/">
	<!ENTITY ns_ai "http://ns.adobe.com/AdobeIllustrator/10.0/">
	<!ENTITY ns_graphs "http://ns.adobe.com/Graphs/1.0/">
]>
<svg version="1.1" id="Layer_1" xmlns:x="&ns_extend;" xmlns:i="&ns_ai;" xmlns:graph="&ns_graphs;"
	 xmlns="http://www.w3.org/2000/svg" xmlns:xlink="http://www.w3.org/1999/xlink" xmlns:a="http://ns.adobe.com/AdobeSVGViewerExtensions/3.0/"
	 x="0px" y="0px" width="550px" height="550px" viewBox="0 0 550 550" enable-background="new 0 0 550 550" xml:space="preserve">
<g>
	<path fill="#FFFFFF" stroke="#000000" stroke-width="1.5" stroke-miterlimit="10" d="M492.026,239.236
		c-14.539,2.632-26.027,5.744-39.071,10.051c-13.045,4.308-27.645,9.813-39.826,15.231c-12.186,5.418-21.951,10.75-32.688,17.919
		c-10.736,7.17-22.447,16.179-33.031,24.51c-10.582,8.332-20.041,15.986-29.725,26.121c-9.686,10.135-19.594,22.744-28.824,36.254
		c-9.23,13.513-17.787,27.924-24.845,42.354c-7.06,14.438-12.619,28.893-17.483,48.627c-4.866,19.738-9.035,44.763-12.371,89.688
		h-0.276v0.001h316.113V233.73C524.157,234.449,506.567,236.604,492.026,239.236z"/>
	<path fill="#FFFFFF" stroke="#000000" stroke-width="1.5" stroke-miterlimit="10" d="M138.316,285.98
		c14.434-7.061,28.846-15.614,42.356-24.85c13.511-9.231,26.121-19.14,36.254-28.824c10.133-9.682,17.79-19.14,26.121-29.723
		c8.332-10.583,17.34-22.293,24.51-33.031c7.17-10.737,12.501-20.505,17.917-32.688c5.42-12.183,10.926-26.782,15.231-39.827
		c4.308-13.044,7.418-24.531,10.051-39.072c2.636-14.54,4.787-32.13,5.506-57.967H0.003v315.835
		c44.929-3.336,69.948-7.506,89.687-12.371C109.429,298.602,123.883,293.041,138.316,285.98z"/>
	<path fill="#FFFFFF" stroke="#000000" stroke-width="1.5" stroke-miterlimit="10" d="M13.625,18.863
		c2.549,3.42,3.822,6.347,5.284,9.844c1.463,3.498,3.116,7.569,4.325,12.466c1.209,4.896,1.972,10.62,2.417,16.809
		c0.445,6.189,0.572,12.842,0.687,16.685c0.116,3.841,0.219,4.871,0.889,5.645c0.669,0.773,1.905,1.287,3.57,1.445
		c1.665,0.159,3.758-0.04,7.437-0.141c3.679-0.099,8.944-0.099,13.013,0.38s6.941,1.436,9.813,3.47
		c2.872,2.035,5.744,5.146,8.019,9.574c2.273,4.427,3.949,10.171,4.427,14.958c0.478,4.788-0.239,8.617-1.795,11.49
		c-1.556,2.872-3.949,4.787-7.539,6.223c-3.59,1.436-8.377,2.393-12.924,3.829s-8.854,3.351-12.086,7.779
		c-3.232,4.428-5.385,11.369-6.94,16.275c-1.556,4.906-2.514,7.778-2.393,9.933c0.12,2.153,1.316,3.589,4.427,4.667
		c3.112,1.076,8.138,1.795,14.479,2.873c6.343,1.076,14.002,2.513,23.456,3.948c9.454,1.436,20.703,2.873,31.445,5.457
		c10.742,2.584,20.976,6.318,30.262,9.734c9.285,3.417,17.622,6.52,29.797,13.28c12.176,6.761,28.192,17.179,50.409,29.467
		c0.959-0.882,1.905-1.763,2.825-2.642c6.616-6.322,12.174-12.551,17.557-19.058c-12.083-21.771-22.324-37.542-28.996-49.563
		c-6.761-12.177-9.864-20.513-13.28-29.797c-3.417-9.286-7.15-19.52-9.734-30.262c-2.584-10.741-4.021-21.991-5.457-31.444
		c-1.436-9.455-2.872-17.113-3.949-23.456c-1.077-6.344-1.795-11.369-2.872-14.48c-1.077-3.111-2.513-4.308-4.667-4.426
		c-2.154-0.12-5.026,0.837-9.933,2.393c-4.905,1.556-11.847,3.71-16.274,6.94c-4.428,3.229-6.343,7.538-7.779,12.086
		c-1.436,4.548-2.393,9.333-3.829,12.924c-1.436,3.589-3.351,5.983-6.223,7.539c-2.873,1.555-6.702,2.274-11.488,1.796
		c-4.787-0.479-10.531-2.155-14.959-4.428c-4.427-2.274-7.539-5.146-9.573-8.018c-2.035-2.873-2.992-5.744-3.471-9.813
		c-0.479-4.068-0.479-9.333-0.379-13.013c0.099-3.68,0.298-5.772,0.14-7.437c-0.159-1.665-0.673-2.901-1.446-3.571
		c-0.773-0.669-1.804-0.772-5.646-0.888c-3.842-0.116-10.5-0.244-16.688-0.689s-11.913-1.208-16.81-2.416
		c-4.896-1.208-8.967-2.863-12.465-4.326c-3.498-1.462-6.423-2.733-9.845-5.284c-3.422-2.547-7.339-6.375-12.206-13.619H0.003v6.656
		C7.247,11.525,11.075,15.443,13.625,18.863z"/>
	<path fill="#FFFFFF" stroke="#000000" stroke-width="1.5" stroke-miterlimit="10" d="M536.374,531.135
		c-2.551-3.422-3.82-6.347-5.283-9.845c-1.463-3.497-3.117-7.568-4.326-12.465c-1.209-4.897-1.971-10.621-2.416-16.813
		c-0.441-6.188-0.568-12.843-0.688-16.685s-0.219-4.872-0.889-5.646c-0.669-0.772-1.906-1.287-3.57-1.445s-3.758,0.041-7.438,0.141
		c-3.678,0.104-8.939,0.104-13.014-0.38c-4.067-0.479-6.938-1.438-9.813-3.471c-2.87-2.033-5.743-5.146-8.021-9.572
		c-2.271-4.428-3.949-10.172-4.428-14.96c-0.479-4.786,0.237-8.616,1.795-11.487c1.557-2.873,3.949-4.789,7.539-6.224
		c3.59-1.438,8.379-2.396,12.924-3.83c4.549-1.434,8.857-3.35,12.088-7.776c3.23-4.43,5.385-11.37,6.939-16.271
		c1.557-4.907,2.514-7.779,2.395-9.937c-0.119-2.152-1.313-3.591-4.428-4.668c-3.111-1.072-8.137-1.796-14.479-2.871
		c-6.343-1.076-14.003-2.515-23.453-3.947c-9.454-1.438-20.701-2.873-31.443-5.457s-20.979-6.315-30.263-9.731
		c-9.282-3.418-17.62-6.521-29.802-13.28c-12.02-6.673-27.787-16.914-49.563-28.998c-6.506,5.385-12.734,10.94-19.059,17.562
		c-0.881,0.92-1.762,1.864-2.645,2.823c12.289,22.22,22.707,38.23,29.467,50.408c6.766,12.18,9.863,20.515,13.281,29.801
		c3.416,9.281,7.15,19.52,9.732,30.262c2.586,10.74,4.021,21.989,5.457,31.441c1.436,9.451,2.87,17.111,3.945,23.454
		c1.078,6.347,1.798,11.369,2.871,14.48c1.078,3.111,2.518,4.308,4.67,4.428c2.152,0.118,5.025-0.839,9.936-2.395
		c4.904-1.56,11.848-3.709,16.271-6.94c4.432-3.229,6.343-7.539,7.779-12.087c1.434-4.548,2.393-9.333,3.828-12.924
		c1.436-3.59,3.35-5.984,6.223-7.54c2.871-1.556,6.701-2.273,11.488-1.794c4.789,0.479,10.531,2.152,14.959,4.426
		c4.427,2.275,7.538,5.147,9.573,8.021c2.033,2.873,2.99,5.743,3.471,9.813c0.479,4.069,0.479,9.335,0.381,13.014
		c-0.102,3.684-0.301,5.771-0.143,7.438c0.156,1.664,0.674,2.896,1.445,3.57c0.771,0.67,1.805,0.771,5.646,0.888
		s10.494,0.242,16.684,0.688c6.19,0.446,11.912,1.208,16.813,2.417c4.896,1.208,8.967,2.862,12.465,4.325s6.422,2.733,9.844,5.283
		s7.341,6.378,12.207,13.622h6.654v-6.654C542.753,538.473,538.925,534.557,536.374,531.135z"/>
	<path fill="#FFFFFF" stroke="#000000" stroke-width="1.5" stroke-miterlimit="10" d="M151.071,516.944
		c-1.523-8.892-3.943-17.401-7.323-25.745c-3.38-8.347-7.719-16.524-13.395-25.312c-5.675-8.779-12.685-18.171-19.58-21.938
		c-0.06,0.32-0.142,0.604-0.226,0.879c-0.338,1.075-0.733,1.902-1.38,2.62c-0.647,0.719-1.544,1.329-2.353,2.21
		c-0.808,0.88-1.527,2.028-2.215,3.653s-1.345,3.727-4.426,11.277c-3.079,7.558-8.582,20.565-11.969,29.17
		c-3.386,8.604-4.659,12.806-5.867,15.729c-0.545,1.317-1.083,2.372-1.719,3.271l-0.001,0.021
		c23.783,12.403,47.567,24.808,71.349,37.212C153.221,535.096,152.594,525.832,151.071,516.944z"/>
	<path fill="#FFFFFF" stroke="#000000" stroke-width="1.5" stroke-miterlimit="10" d="M37.235,469.296
		c0.901-0.636,1.953-1.173,3.271-1.719c2.926-1.209,7.123-2.48,15.727-5.868c8.604-3.387,21.616-8.888,29.171-11.968
		c7.557-3.08,9.656-3.737,11.281-4.425c1.625-0.688,2.774-1.406,3.654-2.216c0.88-0.812,1.491-1.707,2.209-2.354
		c0.718-0.646,1.544-1.042,2.621-1.38c0.271-0.085,0.558-0.166,0.878-0.229v-0.001c-3.772-6.895-13.16-13.9-21.943-19.576
		c-8.783-5.68-16.961-10.019-25.307-13.396c-8.346-3.38-16.857-5.8-25.746-7.323c-8.889-1.52-18.151-2.146-33.051-0.895
		c12.404,23.781,24.808,47.563,37.212,71.35L37.235,469.296z"/>
	<path fill="#FFFFFF" stroke="#000000" stroke-width="1.5" stroke-miterlimit="10" d="M5.577,544.423
		c6.387,0.728,7.604,0.728,8.584,0.049c0.98-0.676,1.724-2.024,2.569-3.312s1.792-2.502,3.075-3.178
		c1.284-0.68,2.907-0.813,4.698-1.115c1.791-0.305,3.752-0.778,11.056-3.693c7.304-2.916,19.95-8.271,28.054-11.59
		c8.104-3.313,11.666-4.588,14.019-6.05c2.354-1.464,3.498-3.115,4.706-6.042c1.209-2.926,2.481-7.124,5.867-15.729
		c3.387-8.604,8.89-21.611,11.969-29.171c3.081-7.554,3.738-9.65,4.426-11.275s1.407-2.773,2.215-3.654s1.707-1.491,2.353-2.21
		c0.647-0.718,1.042-1.545,1.379-2.62c0.338-1.076,0.617-2.404-0.262-5.116c-2.713-0.878-4.039-0.599-5.116-0.262
		c-1.076,0.338-1.902,0.733-2.621,1.38c-0.719,0.646-1.329,1.544-2.209,2.354c-0.879,0.809-2.029,1.523-3.654,2.215
		c-1.625,0.688-3.725,1.347-11.281,4.426c-7.555,3.08-20.566,8.58-29.171,11.967c-8.604,3.393-12.8,4.66-15.727,5.868
		c-2.926,1.208-4.579,2.354-6.042,4.707s-2.735,5.915-6.05,14.021c-3.315,8.104-8.674,20.753-11.59,28.058
		c-2.915,7.303-3.388,9.264-3.693,11.055c-0.305,1.792-0.439,3.415-1.116,4.698c-0.676,1.285-1.892,2.229-3.177,3.075
		c-1.284,0.846-2.636,1.59-3.312,2.565C4.853,536.817,4.853,538.034,5.577,544.423z"/>
	<path fill="#FFFFFF" stroke="#000000" stroke-width="1.5" stroke-miterlimit="10" d="M438.9,107.18
		c0.061-0.32,0.143-0.606,0.227-0.877c0.336-1.077,0.732-1.904,1.379-2.622c0.647-0.718,1.545-1.329,2.354-2.208
		c0.809-0.879,1.521-2.03,2.213-3.654c0.688-1.626,1.348-3.726,4.428-11.282c3.08-7.554,8.579-20.565,11.968-29.169
		c3.391-8.604,4.658-12.802,5.867-15.728c0.545-1.319,1.082-2.372,1.719-3.274v-0.018c-23.778-12.403-47.562-24.808-71.349-37.211
		c-1.252,14.899-0.625,24.162,0.896,33.05c1.523,8.888,3.943,17.399,7.324,25.745c3.379,8.347,7.719,16.523,13.396,25.308
		C424.994,94.021,432.004,103.409,438.9,107.18L438.9,107.18z"/>
	<path fill="#FFFFFF" stroke="#000000" stroke-width="1.5" stroke-miterlimit="10" d="M512.784,80.581l-0.021,0.002
		c-0.896,0.635-1.953,1.174-3.27,1.718c-2.928,1.208-7.123,2.48-15.729,5.867c-8.604,3.387-21.611,8.889-29.17,11.968
		c-7.556,3.082-9.651,3.739-11.276,4.426s-2.773,1.406-3.654,2.215c-0.879,0.809-1.49,1.707-2.209,2.354
		c-0.719,0.646-1.545,1.041-2.621,1.379c-0.271,0.085-0.562,0.166-0.879,0.225c3.771,6.895,13.16,13.906,21.939,19.581
		c8.782,5.675,16.962,10.014,25.31,13.395c8.346,3.379,16.854,5.801,25.746,7.323c8.887,1.522,18.146,2.149,33.051,0.897
		C537.593,128.147,525.188,104.364,512.784,80.581z"/>
	<path fill="#FFFFFF" stroke="#000000" stroke-width="1.5" stroke-miterlimit="10" d="M549.702,151.364
		c0.098,0.188,0.195,0.378,0.295,0.566v-0.588C549.896,151.351,549.802,151.356,549.702,151.364z"/>
	<path fill="#FFFFFF" stroke="#000000" stroke-width="1.5" stroke-miterlimit="10" d="M516.944,151.034
		c-8.891-1.522-17.4-3.942-25.744-7.323c-8.347-3.38-16.525-7.718-25.313-13.395c-8.779-5.676-18.169-12.686-21.938-19.581
		c0.11-0.021,0.201-0.054,0.305-0.079c-0.102-0.17-0.211-0.341-0.305-0.51l0.115,0.207c-1.773-1.318-3.326-3.196-4.572-5.035
		c-0.131,0.307-0.254,0.627-0.365,0.984c-0.086,0.271-0.166,0.557-0.227,0.877v0.001c-6.896-3.772-13.906-13.16-19.58-21.944
		c-5.677-8.783-10.018-16.959-13.396-25.308c-3.381-8.345-5.801-16.855-7.322-25.744c-1.521-8.888-2.146-18.151-0.896-33.05
		c0.248,0.129,0.498,0.26,0.746,0.389c0.074-0.517,0.16-1.026,0.271-1.521h-82.459c-0.717,25.837-2.868,43.429-5.504,57.968
		c-2.633,14.541-5.742,26.029-10.051,39.072c-4.311,13.044-9.813,27.644-15.229,39.827c-5.42,12.184-10.75,21.95-17.92,32.688
		c-7.17,10.738-16.177,22.448-24.51,33.031c-8.331,10.583-15.987,20.041-26.12,29.723c-10.133,9.683-22.743,19.591-36.254,28.824
		c-13.511,9.234-27.922,17.791-42.356,24.848c-14.434,7.062-28.89,12.619-48.628,17.482c-19.738,4.865-44.758,9.034-89.687,12.371
		v82.192c14.9-1.251,24.163-0.626,33.051,0.896c8.888,1.523,17.399,3.943,25.745,7.322c8.345,3.381,16.523,7.72,25.307,13.396
		c8.784,5.679,18.171,12.688,21.943,19.58l-0.244,0.199c0.106,0.096,0.221,0.185,0.325,0.279c0.425,0.354,0.833,0.726,1.21,1.112
		c1.082,1.11,2.08,2.312,3.017,3.554l0.418-0.421c6.895,3.771,13.905,13.158,19.58,21.938c5.675,8.783,10.015,16.962,13.395,25.312
		c3.38,8.345,5.801,16.854,7.323,25.745c1.523,8.889,2.148,18.147,0.897,33.051h82.192c3.336-44.929,7.505-69.949,12.371-89.688
		c4.866-19.734,10.425-34.189,17.483-48.627c7.06-14.434,15.615-28.845,24.848-42.354c9.229-13.512,19.141-26.119,28.824-36.256
		c9.682-10.133,19.139-17.789,29.723-26.119c10.584-8.331,22.295-17.342,33.031-24.512c10.738-7.167,20.506-12.5,32.688-17.917
		c12.186-5.418,26.781-10.924,39.826-15.231c13.044-4.307,24.532-7.419,39.071-10.051c14.539-2.633,32.131-4.788,57.971-5.506
		v-81.801C535.095,153.182,525.833,152.556,516.944,151.034z"/>
	<path fill="#FFFFFF" stroke="#000000" stroke-width="1.5" stroke-miterlimit="10" d="M544.423,5.577
		c-6.387-0.725-7.604-0.725-8.584-0.049c-0.979,0.676-1.725,2.028-2.567,3.312c-0.847,1.285-1.791,2.501-3.073,3.177
		c-1.285,0.676-2.906,0.811-4.699,1.115c-1.791,0.305-3.752,0.778-11.055,3.693c-7.309,2.917-19.951,8.275-28.061,11.591
		c-8.104,3.315-11.664,4.587-14.02,6.049c-2.354,1.463-3.496,3.116-4.705,6.042c-1.209,2.926-2.48,7.124-5.866,15.728
		c-3.389,8.604-8.889,21.616-11.969,29.17c-3.082,7.555-3.738,9.655-4.428,11.281c-0.688,1.625-1.404,2.773-2.214,3.654
		c-0.812,0.881-1.706,1.491-2.354,2.209c-0.646,0.719-1.043,1.544-1.379,2.622c-0.338,1.076-0.617,2.402,0.262,5.115
		c2.713,0.879,4.039,0.599,5.115,0.262c1.076-0.338,1.901-0.733,2.621-1.38c0.719-0.647,1.33-1.544,2.209-2.353
		s2.028-1.527,3.653-2.215s3.726-1.346,11.277-4.426c7.558-3.08,20.566-8.582,29.17-11.969c8.605-3.387,12.805-4.659,15.729-5.867
		c2.924-1.208,4.578-2.353,6.041-4.706s2.73-5.915,6.049-14.019c3.315-8.105,8.674-20.75,11.592-28.055
		c2.916-7.304,3.39-9.264,3.693-11.056c0.303-1.792,0.438-3.414,1.112-4.698c0.677-1.285,1.894-2.229,3.179-3.076
		c1.284-0.845,2.635-1.589,3.313-2.569C545.146,13.181,545.146,11.964,544.423,5.577z"/>
	<path fill="#FFFFFF" stroke="#000000" stroke-width="1.5" stroke-miterlimit="10" d="M80.62,512.767l0.001-0.003
		c-0.773,1.101-1.696,1.971-2.988,2.771c-2.353,1.463-5.915,2.734-14.019,6.05c-8.104,3.316-20.751,8.674-28.055,11.59
		c-7.303,2.915-9.264,3.393-11.056,3.694s-3.414,0.438-4.698,1.114c-1.285,0.676-2.23,1.893-3.075,3.178
		c-0.845,1.284-1.588,2.635-2.569,3.312c-0.98,0.679-2.196,0.679-8.584-0.049c-0.725-6.389-0.725-7.604-0.049-8.585
		c0.676-0.979,2.028-1.723,3.312-2.564c1.285-0.849,2.501-1.791,3.177-3.075c0.677-1.284,0.812-2.906,1.116-4.699
		c0.304-1.791,0.777-3.751,3.693-11.055c2.917-7.309,8.274-19.951,11.59-28.06c3.315-8.104,4.588-11.666,6.05-14.02
		c0.882-1.418,1.838-2.396,3.095-3.214c-0.007-0.021-0.011-0.037-0.019-0.061c-0.101,0.067-0.208,0.133-0.307,0.2l-0.02,0.003
		c-12.392-23.754-24.782-47.513-37.173-71.269c-0.014,0.001-0.026,0.002-0.04,0.003v151.967h151.963
		c-23.782-12.404-47.565-24.807-71.347-37.211L80.62,512.767z"/>
	<path fill="#FFFFFF" stroke="#000000" stroke-width="1.5" stroke-miterlimit="10" d="M81.513,511.287
		c0.002-0.008,0.006-0.014,0.009-0.021C81.519,511.274,81.515,511.279,81.513,511.287z"/>
	<path fill="#FFFFFF" stroke="#000000" stroke-width="1.5" stroke-miterlimit="10" d="M81.922,510.447
		c0.14-0.305,0.277-0.62,0.416-0.955C82.2,509.828,82.062,510.144,81.922,510.447z"/>
	<path fill="#FFFFFF" stroke="#000000" stroke-width="1.5" stroke-miterlimit="10" d="M549.997,0.002H398.723
		c-0.105,0.496-0.191,1.003-0.271,1.519c-0.248-0.129-0.498-0.259-0.746-0.388c-0.049,0.573-0.086,1.116-0.129,1.673l0,0
		c0.043-0.556,0.08-1.1,0.129-1.672c23.688,12.353,47.377,24.709,71.063,37.063c0.898-1.581,1.951-2.708,3.6-3.732
		c2.354-1.462,5.916-2.734,14.02-6.049c8.105-3.315,20.752-8.673,28.059-11.59c7.303-2.916,9.264-3.389,11.057-3.694
		c1.791-0.305,3.412-0.438,4.697-1.115c1.285-0.677,2.229-1.893,3.076-3.177c0.844-1.283,1.588-2.636,2.564-3.312
		c0.98-0.675,2.197-0.675,8.584,0.05c0.729,6.387,0.729,7.604,0.049,8.583c-0.676,0.981-2.023,1.725-3.313,2.569
		c-1.283,0.845-2.5,1.791-3.176,3.076c-0.68,1.284-0.813,2.906-1.115,4.699c-0.303,1.791-0.777,3.751-3.693,11.055
		c-2.916,7.305-8.271,19.951-11.59,28.057c-3.313,8.103-4.588,11.666-6.051,14.017c-0.795,1.279-1.656,2.198-2.74,2.968
		c12.402,23.777,24.803,47.554,37.205,71.33c-0.1-0.188-0.197-0.377-0.295-0.566c0.1-0.008,0.193-0.015,0.295-0.022V0.002H549.997z"
		/>
</g>
</svg>
