<?xml version="1.0" encoding="utf-8"?>
<!-- Generator: Adobe Illustrator 16.0.0, SVG Export Plug-In . SVG Version: 6.00 Build 0)  -->
<!DOCTYPE svg PUBLIC "-//W3C//DTD SVG 1.1//EN" "http://www.w3.org/Graphics/SVG/1.1/DTD/svg11.dtd">
<svg version="1.1" id="Layer_1" xmlns="http://www.w3.org/2000/svg" xmlns:xlink="http://www.w3.org/1999/xlink" x="0px" y="0px"
	 width="600px" height="600px" viewBox="0 0 600 600" enable-background="new 0 0 600 600" xml:space="preserve">
<g>
	<path fill="#FFFFFF" stroke="#000000" stroke-width="1.5" stroke-miterlimit="10" d="M131.685,170.075l-1.617,1.618L25,67.09
		v268.396c7.322-11.829,11.429-22.657,17.619-35.312c6.19-12.653,14.464-27.131,25.914-45.23
		c11.45-18.099,26.077-39.817,61.535-83.253L131.685,170.075L131.685,170.075z"/>
	<path fill="#FFFFFF" stroke="#000000" stroke-width="1.5" stroke-miterlimit="10" d="M67.09,25l104.601,105.067l-3.778,3.778l0,0
		l3.778-3.778c43.437-35.458,65.155-50.084,83.252-61.534c18.099-11.45,32.578-19.724,45.231-25.914
		c12.653-6.19,23.483-10.296,35.311-17.619H67.09z"/>
	<path fill="#FFFFFF" stroke="#000000" stroke-width="1.5" stroke-miterlimit="10" d="M464.983,98.172
		c-16.663,4.053-35.13,9.908-49.99,15.087c-14.862,5.179-26.122,9.683-40.533,16.213c-14.411,6.53-31.976,15.087-45.486,22.744
		c-13.512,7.655-22.97,14.412-35.128,23.193c-9.534,6.884-20.732,15.021-43.405,34.541l113.619,113.993h210.94V85.563
		c-33.904,0-48.766,2.025-63.63,4.166C496.509,91.866,481.646,94.119,464.983,98.172z"/>
	<path fill="#FFFFFF" stroke="#000000" stroke-width="1.5" stroke-miterlimit="10" d="M209.952,250.441
		c-19.509,22.661-27.659,33.873-34.542,43.404c-8.782,12.159-15.538,21.617-23.193,35.128
		c-7.657,13.512-16.213,31.075-22.744,45.485c-6.529,14.412-11.034,25.673-16.213,40.534c-5.18,14.859-11.034,33.327-15.087,49.99
		c-4.054,16.664-6.306,31.524-8.445,46.388s-4.166,29.725-4.166,63.629h238.383V364.057L209.952,250.441z"/>
	
		<rect x="383.95" y="383.949" fill="#FFFFFF" stroke="#000000" stroke-width="1.5" stroke-miterlimit="10" width="191.049" height="191.049"/>
	<path fill="#FFFFFF" stroke="#000000" stroke-width="1.5" stroke-miterlimit="10" d="M85.563,574.998
		c0-33.905,2.026-48.766,4.166-63.629c2.139-14.861,4.391-29.725,8.445-46.388c4.053-16.663,9.908-35.129,15.087-49.99
		c5.179-14.861,9.683-26.122,16.213-40.534c6.531-14.41,15.087-31.975,22.744-45.484c7.655-13.513,14.412-22.971,23.193-35.13
		c8.782-12.159,19.59-27.022,53.475-64.959c37.938-33.884,52.799-44.693,64.959-53.476c12.16-8.783,21.618-15.538,35.128-23.193
		c13.512-7.657,31.075-16.213,45.486-22.744c14.411-6.529,25.671-11.034,40.533-16.213c14.859-5.18,33.327-11.034,49.99-15.087
		c16.663-4.054,31.524-6.306,46.387-8.445c14.863-2.14,29.725-4.166,63.63-4.166V25H335.486
		c-11.829,7.323-22.657,11.429-35.311,17.619c-12.653,6.189-27.132,14.463-45.231,25.914c-18.097,11.45-39.815,26.076-83.252,61.534
		c-13.875,13.875-27.75,27.75-41.625,41.625c-35.458,43.436-50.084,65.154-61.535,83.253c-11.45,18.098-19.724,32.577-25.914,45.23
		c-6.19,12.653-10.297,23.483-17.619,35.312v239.513L85.563,574.998L85.563,574.998z"/>
	<path fill="#FFFFFF" stroke="#000000" stroke-width="1.5" stroke-miterlimit="10" d="M250.439,209.951
		c-6.247,5.377-13.36,11.616-21.554,18.935c-7.319,8.194-13.557,15.308-18.935,21.554l113.995,113.619v210.94h60.006v-191.05H575
		v-60.008H364.059L250.439,209.951z"/>
	<path fill="#FFFFFF" stroke="#000000" stroke-width="1.5" stroke-miterlimit="10" d="M171.692,130.067L67.09,25H25v42.09
		l105.067,104.602C143.942,157.817,157.817,143.941,171.692,130.067z"/>
</g>
</svg>
