<?xml version="1.0" encoding="utf-8"?>
<!-- Generator: Adobe Illustrator 16.0.0, SVG Export Plug-In . SVG Version: 6.00 Build 0)  -->
<!DOCTYPE svg PUBLIC "-//W3C//DTD SVG 1.1//EN" "http://www.w3.org/Graphics/SVG/1.1/DTD/svg11.dtd" [
	<!ENTITY ns_flows "http://ns.adobe.com/Flows/1.0/">
	<!ENTITY ns_extend "http://ns.adobe.com/Extensibility/1.0/">
	<!ENTITY ns_ai "http://ns.adobe.com/AdobeIllustrator/10.0/">
	<!ENTITY ns_graphs "http://ns.adobe.com/Graphs/1.0/">
]>
<svg version="1.1" id="Layer_1" xmlns:x="&ns_extend;" xmlns:i="&ns_ai;" xmlns:graph="&ns_graphs;"
	 xmlns="http://www.w3.org/2000/svg" xmlns:xlink="http://www.w3.org/1999/xlink" xmlns:a="http://ns.adobe.com/AdobeSVGViewerExtensions/3.0/"
	 x="0px" y="0px" width="550px" height="550px" viewBox="0 0 550 550" enable-background="new 0 0 550 550" xml:space="preserve">
<g>
	<path fill="#FFFFFF" stroke="#000000" stroke-width="1.5" stroke-miterlimit="10" d="M106.687,145.075l-1.617,1.618L0.002,42.09
		v268.396c7.322-11.829,11.429-22.657,17.619-35.313c6.19-12.653,14.464-27.131,25.914-45.23
		c11.45-18.099,26.076-39.817,61.534-83.253L106.687,145.075L106.687,145.075z"/>
	<path fill="#FFFFFF" stroke="#000000" stroke-width="1.5" stroke-miterlimit="10" d="M42.092,0l104.601,105.067l-3.778,3.778l0,0
		l3.778-3.778c43.437-35.458,65.155-50.084,83.251-61.534c18.099-11.45,32.579-19.724,45.231-25.914
		C287.828,11.429,298.658,7.323,310.487,0H42.092z"/>
	<path fill="#FFFFFF" stroke="#000000" stroke-width="1.5" stroke-miterlimit="10" d="M439.983,73.172
		c-16.663,4.053-35.13,9.908-49.989,15.087c-14.862,5.179-26.122,9.683-40.533,16.213c-14.411,6.53-31.976,15.087-45.486,22.744
		c-13.512,7.655-22.97,14.412-35.125,23.193c-9.535,6.884-20.732,15.021-43.406,34.541l113.622,113.993H550V60.563
		c-33.904,0-48.766,2.025-63.63,4.166C471.509,66.866,456.646,69.119,439.983,73.172z"/>
	<path fill="#FFFFFF" stroke="#000000" stroke-width="1.5" stroke-miterlimit="10" d="M184.954,225.441
		c-19.509,22.661-27.659,33.874-34.542,43.405c-8.782,12.158-15.538,21.616-23.193,35.126
		c-7.657,13.512-16.213,31.074-22.744,45.484c-6.529,14.412-11.034,25.673-16.213,40.534c-5.18,14.856-11.034,33.327-15.087,49.989
		c-4.053,16.664-6.305,31.522-8.444,46.389s-4.166,29.725-4.166,63.629h238.382V339.057L184.954,225.441z"/>
	
		<rect x="358.951" y="358.949" fill="#FFFFFF" stroke="#000000" stroke-width="1.5" stroke-miterlimit="10" width="191.048" height="191.049"/>
	<path fill="#FFFFFF" stroke="#000000" stroke-width="1.5" stroke-miterlimit="10" d="M60.565,549.998
		c0-33.905,2.026-48.766,4.166-63.629c2.139-14.861,4.391-29.728,8.444-46.388c4.053-16.663,9.908-35.132,15.087-49.99
		c5.179-14.861,9.683-26.122,16.213-40.534c6.531-14.41,15.087-31.975,22.744-45.484c7.655-13.513,14.412-22.971,23.193-35.13
		c8.782-12.159,19.59-27.022,53.475-64.959c37.938-33.884,52.799-44.693,64.959-53.476c12.159-8.783,21.617-15.538,35.126-23.193
		c13.514-7.657,31.074-16.213,45.485-22.744c14.411-6.529,25.671-11.034,40.533-16.213c14.856-5.18,33.326-11.034,49.989-15.087
		c16.66-4.054,31.521-6.306,46.387-8.445c14.863-2.14,29.725-4.166,63.63-4.166V0h-239.51
		c-11.829,7.323-22.657,11.429-35.313,17.619c-12.652,6.189-27.132,14.463-45.231,25.914c-18.097,11.45-39.814,26.076-83.251,61.534
		c-13.875,13.875-27.75,27.75-41.625,41.625c-35.458,43.436-50.083,65.154-61.535,83.253c-11.45,18.098-19.724,32.577-25.914,45.23
		C11.429,287.828,7.322,298.658,0,310.486V550L60.565,549.998L60.565,549.998z"/>
	<path fill="#FFFFFF" stroke="#000000" stroke-width="1.5" stroke-miterlimit="10" d="M225.44,184.951
		c-6.247,5.377-13.36,11.616-21.554,18.935c-7.318,8.194-13.556,15.308-18.934,21.554l113.995,113.619v210.94h60.006v-191.05H550
		v-60.008H339.06L225.44,184.951z"/>
	<path fill="#FFFFFF" stroke="#000000" stroke-width="1.5" stroke-miterlimit="10" d="M146.693,105.067L42.092,0H0.002v42.09
		l105.066,104.602C118.943,132.817,132.818,118.941,146.693,105.067z"/>
</g>
</svg>
