<?xml version="1.0" encoding="utf-8"?>
<!-- Generator: Adobe Illustrator 16.0.0, SVG Export Plug-In . SVG Version: 6.00 Build 0)  -->
<!DOCTYPE svg PUBLIC "-//W3C//DTD SVG 1.1//EN" "http://www.w3.org/Graphics/SVG/1.1/DTD/svg11.dtd" [
	<!ENTITY ns_flows "http://ns.adobe.com/Flows/1.0/">
	<!ENTITY ns_extend "http://ns.adobe.com/Extensibility/1.0/">
	<!ENTITY ns_ai "http://ns.adobe.com/AdobeIllustrator/10.0/">
	<!ENTITY ns_graphs "http://ns.adobe.com/Graphs/1.0/">
]>
<svg version="1.1" id="Layer_1" xmlns:x="&ns_extend;" xmlns:i="&ns_ai;" xmlns:graph="&ns_graphs;"
	 xmlns="http://www.w3.org/2000/svg" xmlns:xlink="http://www.w3.org/1999/xlink" xmlns:a="http://ns.adobe.com/AdobeSVGViewerExtensions/3.0/"
	 x="0px" y="0px" width="550px" height="550px" viewBox="0 0 550 550" enable-background="new 0 0 550 550" xml:space="preserve">
<g>
	<path fill="#FFFFFF" stroke="#000000" stroke-width="1.5" stroke-miterlimit="10" d="M281.452,446.063
		c-1.556,1.039-3.11,2.078-4.659,3.092c-1.305-0.852-2.617-1.727-3.927-2.597c-0.009,0.002-0.017,0.004-0.026,0.009
		c1.335,0.886,2.672,1.775,4.002,2.644c1.563-1.02,3.133-2.068,4.701-3.118C281.512,446.079,281.482,446.071,281.452,446.063z"/>
	<path fill="#FFFFFF" stroke="#000000" stroke-width="1.5" stroke-miterlimit="10" d="M0,0v550h550V0H0z M452.143,272.971
		c-0.238,0.375-0.486,0.754-0.73,1.131c0,0.004,0.001,0.008,0.001,0.015c0.219-0.337,0.438-0.675,0.656-1.011
		c2.818,4.319,5.538,8.615,8.141,12.885c12.596,20.659,22.679,40.733,31.875,61.104c9.198,20.37,17.511,41.041,23.9,61.417
		c6.39,20.377,10.855,40.462,14.364,61.833c3.513,21.37,6.06,44.026,6.677,63.221c-19.192-0.583-41.854-3.093-63.23-6.562
		s-41.47-7.898-61.856-14.254c-20.392-6.354-41.071-14.627-61.464-23.787c-20.389-9.16-40.479-19.207-61.165-31.765
		c-4.156-2.526-8.342-5.156-12.549-7.892c-4.175,2.725-8.325,5.347-12.45,7.859c-20.662,12.595-40.736,22.679-61.107,31.875
		c-20.372,9.197-41.041,17.51-61.417,23.9c-20.377,6.39-40.462,10.855-61.832,14.364c-21.371,3.512-44.027,6.06-63.219,6.677
		c0.583-19.192,3.089-41.854,6.558-63.23c3.469-21.378,7.902-41.47,14.254-61.857c6.353-20.391,14.626-41.071,23.787-61.462
		c9.16-20.39,19.206-40.48,31.765-61.166c2.589-4.266,5.294-8.56,8.103-12.875c-0.021-0.03-0.041-0.062-0.06-0.092
		c0.526-0.811,1.076-1.625,1.61-2.437c-0.082-0.188-0.174-0.37-0.25-0.563c-0.562,0.853-1.138,1.707-1.691,2.557
		c-8.383-13.004-15.959-26.003-23.165-39.908c-10.489-20.241-20.241-42.402-28.219-61.313c-7.977-18.91-14.183-34.571-19.28-52.375
		C25.05,101.46,21.061,81.514,15.855,13.021c68.503,5.082,88.456,9.034,106.267,14.099c17.813,5.065,33.484,11.241,52.41,19.185
		c18.926,7.943,41.105,17.654,61.364,28.106c14.031,7.239,27.14,14.854,40.261,23.293c-1.113,0.719-2.228,1.449-3.343,2.179
		c0.308,0.007,0.611,0.018,0.918,0.027c1.498-0.979,2.999-1.949,4.497-2.906l-1.748,1.132c1.104,0.711,2.213,1.433,3.317,2.156
		c0.396,0.037,0.796,0.068,1.193,0.11c-1.291-0.843-2.577-1.682-3.865-2.51c13.106-8.463,26.203-16.103,40.22-23.366
		c20.239-10.49,42.401-20.241,61.313-28.219c18.91-7.979,34.572-14.184,52.375-19.282c17.804-5.097,37.748-9.085,106.24-14.292
		c-5.08,68.503-9.033,88.456-14.101,106.268c-5.063,17.812-11.24,33.485-19.185,52.41c-7.943,18.926-17.653,41.104-28.106,61.364
		c-7.182,13.919-14.731,26.933-23.092,39.95c-0.521-0.799-1.066-1.603-1.597-2.401c0.034,0.457,0.075,0.914,0.104,1.374
		C451.579,272.124,451.868,272.549,452.143,272.971z"/>
	<path fill="#FFFFFF" stroke="#000000" stroke-width="1.5" stroke-miterlimit="10" d="M49.425,171.642
		c7.979,18.911,17.73,41.073,28.219,61.313c7.206,13.905,14.782,26.904,23.165,39.908c10.807-16.608,23.265-33.608,37.683-51.073
		c18.172-22.014,39.448-44.766,60.131-63.972c20.684-19.207,40.777-34.867,59.984-48.312c5.906-4.134,11.728-8.039,17.547-11.797
		c-13.121-8.439-26.23-16.054-40.26-23.293c-20.259-10.451-42.438-20.163-61.364-28.106c-18.925-7.943-34.598-14.12-52.41-19.185
		S84.356,18.108,15.853,13.026c5.207,68.494,9.196,88.439,14.292,106.242C35.242,137.07,41.447,152.731,49.425,171.642z"/>
	<path fill="#FFFFFF" stroke="#000000" stroke-width="1.5" stroke-miterlimit="10" d="M530.349,470.348
		c-3.508-21.371-7.978-41.456-14.364-61.833c-6.393-20.376-14.701-41.046-23.899-61.419c-9.197-20.369-19.281-40.443-31.876-61.104
		c-2.604-4.271-5.318-8.564-8.142-12.885c-3.812,5.932-7.771,11.862-11.967,17.881c-13.406,19.229-29.032,39.354-48.201,60.072
		c-19.171,20.719-41.885,42.034-63.862,60.246c-17.548,14.54-34.628,27.1-51.316,37.98c4.225,2.742,8.418,5.382,12.59,7.914
		c20.686,12.558,40.775,22.604,61.164,31.765c20.393,9.159,41.072,17.437,61.465,23.787c20.389,6.354,40.479,10.785,61.855,14.254
		c21.377,3.47,44.038,5.979,63.23,6.562C536.406,514.374,533.859,491.717,530.349,470.348z"/>
	<path fill="#FFFFFF" stroke="#000000" stroke-width="1.5" stroke-miterlimit="10" d="M294.697,109.661
		c19.229,13.409,39.352,29.034,60.067,48.203c20.723,19.169,42.036,41.883,60.249,63.862c14.45,17.44,26.939,34.417,37.777,51.004
		c8.357-13.018,15.909-26.03,23.092-39.95c10.452-20.26,20.163-42.438,28.106-61.364c7.941-18.926,14.12-34.598,19.185-52.41
		c5.065-17.813,9.021-37.765,14.102-106.268c-68.493,5.207-88.438,9.196-106.241,14.292c-17.804,5.098-33.465,11.303-52.375,19.282
		c-18.911,7.978-41.073,17.729-61.313,28.219c-14.017,7.263-27.111,14.902-40.22,23.366
		C282.954,101.644,288.782,105.538,294.697,109.661z"/>
	<path fill="#FFFFFF" stroke="#000000" stroke-width="1.5" stroke-miterlimit="10" d="M225.497,411.347
		c-22.014-18.171-44.767-39.444-63.973-60.13c-19.207-20.685-34.867-40.777-48.312-59.982c-4.208-6.012-8.178-11.938-11.998-17.857
		c-2.814,4.325-5.523,8.626-8.117,12.896c-12.559,20.686-22.604,40.776-31.764,61.164c-9.161,20.393-17.435,41.073-23.787,61.465
		c-6.353,20.39-10.785,40.479-14.254,61.856c-3.47,21.377-5.977,44.038-6.558,63.23c19.192-0.617,41.848-3.165,63.219-6.675
		c21.37-3.51,41.455-7.979,61.832-14.366c20.377-6.394,41.046-14.702,61.418-23.9c20.372-9.196,40.446-19.28,61.107-31.875
		c4.166-2.54,8.356-5.188,12.572-7.938C260.174,438.381,243.071,425.855,225.497,411.347z"/>
	<path fill="#FFFFFF" stroke="#000000" stroke-width="1.5" stroke-miterlimit="10" d="M278.229,97.007
		c-6.403,4.091-12.803,8.376-19.294,12.92c-19.208,13.444-39.3,29.105-59.984,48.313c-20.684,19.207-41.958,41.959-60.131,63.973
		c-14.424,17.474-26.868,34.475-37.677,51.09c3.817,5.922,7.785,11.846,11.992,17.854c13.444,19.204,29.105,39.299,48.312,59.981
		c19.207,20.684,41.958,41.959,63.973,60.129c17.572,14.509,34.672,27.031,51.377,37.886c16.69-10.889,33.773-23.443,51.322-37.984
		c21.979-18.211,44.692-39.526,63.86-60.248c19.168-20.721,34.793-40.841,48.203-60.071c4.195-6.02,8.153-11.947,11.961-17.877
		c-10.836-16.589-23.322-33.563-37.771-51.001c-18.212-21.979-39.528-44.692-60.249-63.862
		c-20.718-19.168-40.841-34.792-60.071-48.203c-5.914-4.123-11.743-8.018-17.567-11.765"/>
</g>
</svg>
