<?xml version="1.0" encoding="utf-8"?>
<!-- Generator: Adobe Illustrator 16.0.0, SVG Export Plug-In . SVG Version: 6.00 Build 0)  -->
<!DOCTYPE svg PUBLIC "-//W3C//DTD SVG 1.1//EN" "http://www.w3.org/Graphics/SVG/1.1/DTD/svg11.dtd">
<svg version="1.1" id="Layer_1" xmlns="http://www.w3.org/2000/svg" xmlns:xlink="http://www.w3.org/1999/xlink" x="0px" y="0px"
	 width="600px" height="600px" viewBox="-16.5 -16.5 600 600" enable-background="new -16.5 -16.5 600 600" xml:space="preserve">
<g>
	<path fill="#FFFFFF" stroke="#000000" stroke-width="1.5" stroke-miterlimit="10" d="M289.952,454.563
		c-1.556,1.039-3.11,2.078-4.659,3.089c-1.305-0.849-2.617-1.724-3.927-2.594c-0.009,0.002-0.017,0.004-0.026,0.006
		c1.335,0.886,2.672,1.778,4.002,2.644c1.562-1.02,3.132-2.068,4.701-3.118C290.012,454.579,289.982,454.571,289.952,454.563z"/>
	<path fill="#FFFFFF" stroke="#000000" stroke-width="1.5" stroke-miterlimit="10" d="M8.5,8.5v550h550V8.5H8.5z M460.643,281.471
		c-0.241,0.375-0.489,0.753-0.733,1.13c0,0.005,0.001,0.009,0.001,0.015c0.219-0.337,0.439-0.674,0.656-1.01
		c2.821,4.319,5.538,8.615,8.141,12.884c12.596,20.661,22.679,40.735,31.875,61.106c9.198,20.371,17.511,41.042,23.9,61.418
		c6.39,20.377,10.858,40.462,14.367,61.833c3.51,21.37,6.057,44.026,6.674,63.218c-19.192-0.583-41.854-3.09-63.23-6.559
		s-41.47-7.901-61.858-14.254c-20.39-6.354-41.072-14.627-61.462-23.787c-20.389-9.16-40.481-19.207-61.165-31.765
		c-4.158-2.526-8.343-5.156-12.549-7.889c-4.175,2.722-8.325,5.344-12.451,7.859c-20.661,12.595-40.736,22.679-61.107,31.875
		c-20.372,9.197-41.041,17.51-61.417,23.9c-20.377,6.39-40.462,10.858-61.832,14.367c-21.371,3.509-44.027,6.057-63.219,6.674
		c0.583-19.192,3.089-41.854,6.558-63.23c3.469-21.378,7.902-41.47,14.254-61.859c6.353-20.389,14.626-41.072,23.787-61.462
		c9.16-20.388,19.206-40.481,31.765-61.165c2.589-4.265,5.294-8.559,8.103-12.876c-0.021-0.031-0.041-0.062-0.06-0.093
		c0.526-0.81,1.076-1.625,1.61-2.436c-0.082-0.188-0.174-0.37-0.25-0.562c-0.562,0.852-1.138,1.707-1.691,2.557
		c-8.383-13.004-15.959-26.003-23.165-39.908c-10.489-20.241-20.241-42.402-28.219-61.313c-7.977-18.91-14.183-34.571-19.28-52.375
		c-5.097-17.803-9.086-37.749-14.292-106.242c68.503,5.082,88.456,9.034,106.267,14.099c17.813,5.065,33.484,11.241,52.41,19.185
		c18.926,7.943,41.105,17.654,61.364,28.106c14.031,7.239,27.14,14.854,40.261,23.293c-1.113,0.719-2.227,1.449-3.342,2.179
		c0.307,0.007,0.611,0.018,0.917,0.027c1.499-0.979,2.997-1.949,4.495-2.906l-1.748,1.132c1.107,0.711,2.213,1.433,3.32,2.156
		c0.397,0.037,0.795,0.068,1.193,0.11c-1.291-0.843-2.577-1.682-3.865-2.51c13.106-8.463,26.203-16.103,40.22-23.366
		c20.239-10.49,42.401-20.241,61.313-28.219c18.91-7.979,34.572-14.184,52.375-19.282c17.804-5.097,37.748-9.085,106.24-14.292
		c-5.08,68.503-9.033,88.456-14.098,106.268c-5.065,17.812-11.24,33.485-19.185,52.41c-7.943,18.926-17.653,41.104-28.106,61.364
		c-7.182,13.919-14.734,26.933-23.092,39.95c-0.522-0.799-1.067-1.603-1.597-2.402c0.034,0.457,0.075,0.914,0.104,1.374
		C460.079,280.624,460.368,281.049,460.643,281.471z"/>
	<path fill="#FFFFFF" stroke="#000000" stroke-width="1.5" stroke-miterlimit="10" d="M57.925,180.142
		c7.979,18.911,17.73,41.073,28.219,61.313c7.206,13.905,14.782,26.904,23.165,39.909c10.807-16.609,23.265-33.609,37.683-51.074
		c18.172-22.014,39.448-44.766,60.131-63.972c20.684-19.207,40.777-34.867,59.984-48.312c5.907-4.134,11.728-8.039,17.547-11.797
		c-13.121-8.439-26.23-16.054-40.26-23.293c-20.259-10.451-42.438-20.163-61.364-28.106c-18.925-7.943-34.598-14.12-52.41-19.185
		c-17.812-5.065-37.764-9.017-106.267-14.099c5.207,68.494,9.196,88.439,14.292,106.242
		C43.742,145.57,49.947,161.231,57.925,180.142z"/>
	<path fill="#FFFFFF" stroke="#000000" stroke-width="1.5" stroke-miterlimit="10" d="M538.849,478.848
		c-3.508-21.371-7.978-41.456-14.367-61.833c-6.39-20.376-14.701-41.046-23.899-61.419c-9.197-20.37-19.281-40.444-31.876-61.105
		c-2.604-4.27-5.318-8.564-8.142-12.885c-3.809,5.932-7.768,11.863-11.964,17.882c-13.409,19.231-29.035,39.353-48.204,60.072
		c-19.168,20.72-41.882,42.036-63.862,60.248c-17.548,14.54-34.628,27.097-51.317,37.98c4.223,2.742,8.418,5.382,12.59,7.914
		c20.684,12.558,40.776,22.604,61.165,31.765c20.39,9.159,41.072,17.434,61.462,23.787c20.389,6.354,40.481,10.785,61.858,14.254
		s44.038,5.976,63.23,6.559C544.906,522.874,542.359,500.217,538.849,478.848z"/>
	<path fill="#FFFFFF" stroke="#000000" stroke-width="1.5" stroke-miterlimit="10" d="M303.197,118.161
		c19.23,13.409,39.352,29.034,60.07,48.203c20.72,19.169,42.036,41.883,60.249,63.862c14.45,17.44,26.939,34.416,37.777,51.005
		c8.357-13.018,15.909-26.031,23.092-39.951c10.452-20.26,20.163-42.438,28.106-61.364c7.944-18.926,14.12-34.598,19.185-52.41
		c5.065-17.813,9.018-37.765,14.099-106.268c-68.493,5.207-88.438,9.196-106.241,14.292c-17.804,5.098-33.465,11.303-52.375,19.282
		c-18.911,7.978-41.073,17.729-61.313,28.219c-14.017,7.263-27.113,14.902-40.22,23.366
		C291.454,110.144,297.282,114.038,303.197,118.161z"/>
	<path fill="#FFFFFF" stroke="#000000" stroke-width="1.5" stroke-miterlimit="10" d="M233.997,419.847
		c-22.014-18.171-44.767-39.446-63.973-60.13c-19.207-20.685-34.867-40.777-48.312-59.983c-4.208-6.012-8.178-11.938-11.998-17.859
		c-2.814,4.325-5.523,8.626-8.117,12.898c-12.559,20.684-22.604,40.777-31.764,61.165c-9.161,20.39-17.435,41.073-23.787,61.462
		c-6.353,20.39-10.785,40.481-14.254,61.859c-3.47,21.377-5.977,44.038-6.558,63.23c19.192-0.617,41.848-3.165,63.219-6.674
		c21.37-3.508,41.455-7.978,61.832-14.367c20.377-6.391,41.046-14.702,61.418-23.9c20.372-9.196,40.446-19.28,61.107-31.875
		c4.166-2.54,8.357-5.188,12.573-7.938C268.674,446.881,251.571,434.355,233.997,419.847z"/>
	<path fill="#FFFFFF" stroke="#000000" stroke-width="1.5" stroke-miterlimit="10" d="M286.728,105.507
		c-6.405,4.091-12.802,8.376-19.296,12.92c-19.207,13.444-39.299,29.105-59.984,48.312c-20.684,19.207-41.958,41.959-60.131,63.973
		c-14.424,17.474-26.868,34.474-37.677,51.09c3.817,5.92,7.785,11.844,11.992,17.852c13.444,19.206,29.105,39.299,48.312,59.983
		c19.207,20.684,41.958,41.959,63.973,60.13c17.572,14.506,34.672,27.031,51.377,37.883c16.691-10.886,33.773-23.443,51.322-37.984
		c21.981-18.211,44.695-39.527,63.863-60.248c19.168-20.72,34.793-40.841,48.203-60.073c4.195-6.018,8.153-11.946,11.961-17.876
		c-10.836-16.589-23.325-33.563-37.773-51.001c-18.212-21.979-39.528-44.692-60.249-63.862
		c-20.718-19.168-40.841-34.792-60.071-48.203c-5.914-4.123-11.743-8.018-17.569-11.765"/>
</g>
</svg>
