<?xml version="1.0" encoding="utf-8"?>
<!-- Generator: Adobe Illustrator 16.0.0, SVG Export Plug-In . SVG Version: 6.00 Build 0)  -->
<!DOCTYPE svg PUBLIC "-//W3C//DTD SVG 1.1//EN" "http://www.w3.org/Graphics/SVG/1.1/DTD/svg11.dtd" [
	<!ENTITY ns_flows "http://ns.adobe.com/Flows/1.0/">
	<!ENTITY ns_extend "http://ns.adobe.com/Extensibility/1.0/">
	<!ENTITY ns_ai "http://ns.adobe.com/AdobeIllustrator/10.0/">
	<!ENTITY ns_graphs "http://ns.adobe.com/Graphs/1.0/">
]>
<svg version="1.1" id="Layer_1" xmlns:x="&ns_extend;" xmlns:i="&ns_ai;" xmlns:graph="&ns_graphs;"
	 xmlns="http://www.w3.org/2000/svg" xmlns:xlink="http://www.w3.org/1999/xlink" xmlns:a="http://ns.adobe.com/AdobeSVGViewerExtensions/3.0/"
	 x="0px" y="0px" width="550px" height="550px" viewBox="0 0 550 550" enable-background="new 0 0 550 550" xml:space="preserve">
<g>
	<path fill="#FFFFFF" stroke="#000000" stroke-width="1.5" stroke-linecap="round" stroke-linejoin="round" d="M549.598,0.005
		c-7.541,22.345-18.082,43.713-30.854,63.662c-12.779,19.956-27.791,38.489-46.213,53.586
		c-15.387,12.607-33.148,22.815-52.08,27.895c-14.879,3.99-30.479,4.813-46.213,4.404c-10.873-0.283-21.813-1.153-31.541-5.873
		c-5.359-2.599-10.354-6.363-13.205-11.745c-2.574-4.858-3.408-11.032-2.199-15.806c0.871-3.446,2.809-6.162,5.457-10.143
		c1.207-1.814,2.563-3.89,3.898-3.51c0.643,0.183,1.278,0.933,1.942,1.609c5.67,5.784,13.162,6.129,20.826,5.654
		c5.914-0.367,11.93-1.221,15.982-4.681c3.86-3.299,5.944-8.964,6.627-14.434c0.672-5.402-0.021-10.612-1.562-15.604
		c-1.59-5.166-4.084-10.097-7.405-14.434c-4.029-5.261-9.281-9.646-15.204-12.484c-6.266-3.001-13.272-4.271-20.271-4.681
		c-9.094-0.535-18.164,0.38-26.898,2.731c-8.45,2.275-16.595,5.895-23.778,10.923c-7.721,5.404-14.34,12.434-19.489,20.286
		c-7.069,10.776-11.375,23.101-15.203,35.5c-2.824,9.143-5.388,18.326-6.627,27.698c-1.816,13.743-0.785,27.888,1.559,41.741
		c2.781,16.43,7.407,32.451,14.288,47.432c7.894,17.18,18.751,32.994,30.809,47.714c9.036,11.033,18.746,21.449,29.342,30.828
		c14.104,12.483,29.771,23.121,45.479,33.77c14.688,9.957,29.407,19.918,45.477,27.16c13.941,6.281,28.896,10.521,44.014,13.213
		c15.296,2.729,30.755,3.877,46.214,5.141c11.729,0.957,23.452,1.979,35.209,2.201c3.87,0.074,7.748,0.063,11.62,0"/>
	<path fill="#FFFFFF" stroke="#000000" stroke-width="1.5" stroke-miterlimit="10" d="M549.598,492.013V389.755
		c-3.873,0.063-7.75,0.074-11.621,0c-11.756-0.223-23.479-1.243-35.209-2.2c-15.459-1.263-30.918-2.414-46.213-5.142
		c-15.114-2.692-30.069-6.931-44.014-13.213c-16.066-7.242-30.787-17.203-45.477-27.16c-15.709-10.646-31.377-21.283-45.479-33.769
		c-10.596-9.379-20.305-19.797-29.342-30.83c-12.058-14.722-22.916-30.533-30.808-47.713c-6.883-14.981-11.507-31.001-14.289-47.432
		c-2.344-13.853-3.376-27.999-1.559-41.742c1.239-9.37,3.804-18.554,6.626-27.697c3.829-12.399,8.134-24.724,15.204-35.501
		c5.15-7.852,11.771-14.881,19.489-20.286c7.188-5.027,15.328-8.647,23.777-10.922c8.735-2.351,17.811-3.266,26.899-2.731
		c6.996,0.412,14.006,1.68,20.271,4.682c5.923,2.837,11.173,7.223,15.204,12.483c3.321,4.337,5.813,9.269,7.405,14.434
		c1.537,4.992,2.23,10.204,1.562,15.604c-0.683,5.471-2.767,11.135-6.627,14.434c-4.056,3.46-10.068,4.314-15.982,4.68
		c-7.662,0.476-15.156,0.131-20.826-5.654c-0.664-0.676-1.303-1.427-1.942-1.609c-1.338-0.38-2.691,1.696-3.898,3.51
		c-2.648,3.981-4.586,6.697-5.457,10.143c-1.209,4.774-0.375,10.948,2.199,15.806c2.854,5.381,7.846,9.146,13.205,11.744
		c9.729,4.72,20.668,5.59,31.541,5.873c15.731,0.41,31.334-0.414,46.213-4.404c18.932-5.079,36.693-15.288,52.08-27.894
		c18.422-15.096,33.434-33.631,46.213-53.587C531.515,43.714,542.056,22.345,549.597,0H46.051c0.007,0.057,0.013,0.113,0.019,0.169
		c1.004,8.695-0.555,10.14-1.614,11.795c-1.058,1.654-1.618,3.518-1.832,5.383c-0.214,1.865-0.082,3.731,0.635,5.566
		c0.719,1.833,2.023,3.635,3.743,5.75c1.718,2.114,3.85,4.541,6.363,6.485c2.514,1.944,5.409,3.406,8.063,4.561
		c2.654,1.155,5.068,2.002,7.768,2.175c2.701,0.172,5.685-0.329,7.989-0.576c2.303-0.247,3.922-0.242,4.773,0.188
		c0.851,0.43,0.934,1.283,0.46,2.433c-0.474,1.15-1.501,2.597-2.148,4.686c-0.647,2.088-0.913,4.817-0.838,7.804
		c0.074,2.986,0.488,6.23,1.288,8.878c0.801,2.648,1.985,4.7,3.344,6.24c1.358,1.54,2.889,2.57,5.06,3.474
		c2.171,0.903,4.981,1.682,7.965,1.992c2.983,0.309,6.137,0.15,9.082-0.564c2.945-0.714,5.677-1.983,7.855-3.256
		c2.179-1.271,3.804-2.545,4.769-3.778c0.964-1.232,1.271-2.422,1.438-6.74c0.166-4.317,0.194-11.762,0.21-16.1
		s0.021-5.57,1.249-6.362s3.68-1.146,6.252-1.282c2.573-0.137,5.266-0.059,8.406,0.576c3.139,0.633,6.727,1.822,10.552,3.598
		c3.825,1.776,7.892,4.141,11.404,6.779c3.512,2.639,6.471,5.553,8.668,8.843c2.198,3.29,3.635,6.959,4.725,11.074
		c1.09,4.116,1.833,8.679,1.882,13.967c0.05,5.287-0.593,11.296-1.651,17.028c-1.057,5.732-2.526,11.187-4.13,15.223
		c-1.603,4.037-3.339,6.657-5.176,8.551c-1.837,1.895-3.775,3.061-4.816,4.405c-1.041,1.344-1.184,2.864-1.19,4.314
		c-0.005,1.452,0.128,2.834,0.33,4.217c0.202,1.382,0.474,2.766,1.4,4.255c0.926,1.489,2.509,3.084,3.884,4.92
		c1.374,1.837,2.541,3.915,3.5,6.061s1.71,4.359,1.717,7.175c0.007,2.817-0.73,6.234-1.168,7.104
		c-0.871,0.435-4.29,1.16-7.104,1.143c-2.814-0.016-5.024-0.777-7.164-1.744c-2.141-0.968-4.213-2.143-6.043-3.525
		c-1.83-1.382-3.417-2.972-4.903-3.904c-1.484-0.933-2.865-1.209-4.247-1.417c-1.381-0.208-2.763-0.346-4.212-0.346
		c-1.451,0-2.97,0.139-4.315,1.175c-1.347,1.036-2.521,2.972-4.42,4.802c-1.898,1.831-4.523,3.56-8.563,5.149
		c-4.04,1.589-9.496,3.041-15.227,4.078c-5.733,1.036-11.741,1.658-17.023,1.589c-5.283-0.07-9.84-0.829-13.949-1.935
		c-4.108-1.106-7.77-2.558-11.05-4.769c-3.279-2.211-6.18-5.183-8.805-8.707c-2.624-3.524-4.973-7.602-6.732-11.438
		c-1.761-3.835-2.935-7.429-3.556-10.574c-0.622-3.145-0.691-5.839-0.544-8.413c0.147-2.574,0.509-5.026,1.305-6.253
		s2.027-1.227,6.362-1.227s11.775,0,16.09-0.15c4.314-0.151,5.506-0.453,6.741-1.415c1.235-0.96,2.513-2.582,3.792-4.757
		c1.278-2.176,2.558-4.905,3.282-7.85c0.724-2.943,0.895-6.101,0.596-9.086c-0.298-2.986-1.066-5.802-1.961-7.977
		s-1.918-3.711-3.452-5.077c-1.534-1.366-3.581-2.56-6.224-3.37s-5.883-1.236-8.866-1.322c-2.984-0.085-5.712,0.171-7.8,0.811
		c-2.089,0.639-3.539,1.664-4.689,2.133c-1.15,0.469-2.003,0.384-2.43-0.469c-0.426-0.853-0.426-2.474-0.17-4.777
		c0.255-2.304,0.767-5.289,0.604-7.993c-0.164-2.702-1-5.121-2.145-7.782c-1.144-2.661-2.593-5.563-4.527-8.085
		c-1.934-2.521-4.351-4.665-6.457-6.392c-2.105-1.728-3.902-3.041-5.731-3.766s-3.695-0.865-5.559-0.657
		c-1.864,0.208-3.729,0.761-5.387,1.815c-1.657,1.053-3.107,2.609-11.792,1.572v503.893c22.329-7.547,43.682-18.096,63.616-30.879
		c19.942-12.787,38.463-27.813,53.548-46.248c12.597-15.396,22.799-33.172,27.874-52.117c3.987-14.891,4.81-30.502,4.401-46.246
		c-0.282-10.883-1.153-21.828-5.868-31.563c-2.596-5.361-6.358-10.357-11.736-13.213c-4.853-2.578-11.023-3.41-15.794-2.201
		c-3.443,0.873-6.157,2.809-10.136,5.461c-1.812,1.209-3.887,2.563-3.509,3.9c0.182,0.643,0.933,1.278,1.608,1.944
		c5.781,5.674,6.125,13.172,5.65,20.84c-0.367,5.92-1.221,11.938-4.678,15.996c-3.295,3.865-8.956,5.949-14.423,6.631
		c-5.397,0.673-10.605-0.021-15.593-1.559c-5.162-1.593-10.089-4.086-14.423-7.412c-5.256-4.033-9.639-9.291-12.475-15.215
		c-3-6.271-4.268-13.283-4.678-20.287c-0.534-9.103,0.379-18.175,2.728-26.918c2.273-8.459,5.891-16.604,10.916-23.797
		c5.399-7.728,12.425-14.35,20.271-19.504c10.768-7.074,23.084-11.383,35.474-15.215c9.137-2.824,18.313-5.393,27.678-6.631
		c13.733-1.819,27.868-0.786,41.712,1.561c16.417,2.783,32.426,7.412,47.396,14.299c17.167,7.896,32.968,18.767,47.68,30.83
		c11.022,9.043,21.438,18.76,30.809,29.358c12.478,14.113,23.104,29.795,33.742,45.515c9.949,14.7,19.904,29.432,27.142,45.512
		c6.276,13.951,10.512,28.918,13.202,44.045c2.729,15.31,3.873,30.775,5.138,46.244c0.959,11.738,1.979,23.474,2.198,35.234
		c0.072,3.877,0.063,7.754,0,11.631h102.271l-15.447-73.873L549.598,492.013z"/>
	<path fill="#FFFFFF" stroke="#000000" stroke-width="1.5" stroke-miterlimit="10" d="M0,550.001
		c22.329-7.547,43.682-18.096,63.616-30.879c19.942-12.787,38.463-27.813,53.548-46.248c12.597-15.396,22.799-33.172,27.874-52.117
		c3.987-14.889,4.81-30.502,4.401-46.246c-0.283-10.883-1.153-21.825-5.868-31.563c-2.597-5.359-6.359-10.355-11.737-13.213
		c-4.853-2.578-11.023-3.409-15.794-2.203c-3.443,0.875-6.157,2.813-10.136,5.465c-1.813,1.209-3.887,2.563-3.509,3.898
		c0.183,0.646,0.932,1.28,1.608,1.946c5.781,5.675,6.125,13.172,5.65,20.843c-0.367,5.918-1.221,11.938-4.678,15.993
		c-3.295,3.865-8.957,5.949-14.423,6.632c-5.397,0.672-10.605-0.021-15.593-1.56c-5.162-1.593-10.089-4.086-14.423-7.412
		c-5.256-4.032-9.639-9.291-12.475-15.215c-3-6.269-4.268-13.283-4.678-20.287c-0.534-9.099,0.379-18.174,2.728-26.918
		c2.273-8.457,5.891-16.604,10.916-23.797c5.399-7.728,12.425-14.351,20.271-19.504c10.769-7.074,23.084-11.384,35.475-15.214
		c9.137-2.825,18.313-5.393,27.678-6.631c13.733-1.819,27.868-0.786,41.712,1.561c16.417,2.782,32.426,7.412,47.396,14.299
		c17.167,7.896,32.968,18.766,47.679,30.83c11.023,9.043,21.438,18.762,30.811,29.359c12.473,14.113,23.104,29.797,33.74,45.514
		c9.949,14.701,19.904,29.432,27.141,45.512c6.279,13.951,10.515,28.918,13.203,44.045c2.729,15.31,3.875,30.775,5.135,46.244
		c0.959,11.738,1.979,23.476,2.203,35.236c0.072,3.875,0.063,7.752,0,11.629L0,550.001L0,550.001z"/>
	<path fill="#FFFFFF" stroke="#000000" stroke-width="1.5" stroke-miterlimit="10" d="M549.598,0.005
		c-7.541,22.345-18.082,43.713-30.854,63.662c-12.779,19.956-27.791,38.489-46.213,53.586
		c-15.387,12.607-33.148,22.815-52.08,27.895c-14.879,3.99-30.479,4.813-46.213,4.404c-10.873-0.283-21.813-1.153-31.541-5.873
		c-5.359-2.599-10.354-6.363-13.205-11.745c-2.574-4.858-3.408-11.032-2.199-15.806c0.871-3.446,2.809-6.162,5.457-10.143
		c1.207-1.814,2.563-3.89,3.898-3.51c0.643,0.183,1.278,0.933,1.942,1.609c5.67,5.784,13.162,6.129,20.826,5.654
		c5.914-0.367,11.93-1.221,15.982-4.681c3.86-3.299,5.944-8.964,6.627-14.434c0.672-5.402-0.021-10.612-1.562-15.604
		c-1.59-5.166-4.084-10.097-7.405-14.434c-4.029-5.261-9.281-9.646-15.204-12.484c-6.266-3.001-13.272-4.271-20.271-4.681
		c-9.094-0.535-18.164,0.38-26.898,2.731c-8.45,2.275-16.595,5.895-23.778,10.923c-7.721,5.404-14.34,12.434-19.489,20.286
		c-7.069,10.776-11.375,23.101-15.203,35.5c-2.824,9.143-5.388,18.326-6.627,27.698c-1.816,13.743-0.785,27.888,1.559,41.741
		c2.781,16.43,7.407,32.451,14.288,47.432c7.894,17.18,18.751,32.994,30.809,47.714c9.036,11.033,18.746,21.449,29.342,30.828
		c14.104,12.483,29.771,23.121,45.479,33.77c14.688,9.957,29.407,19.918,45.477,27.16c13.941,6.281,28.896,10.521,44.014,13.213
		c15.296,2.729,30.755,3.877,46.214,5.141c11.729,0.957,23.452,1.979,35.209,2.201c3.87,0.074,7.748,0.063,11.62,0L549.598,0.005
		L549.598,0.005z"/>
	<polygon fill="#FFFFFF" stroke="#000000" stroke-width="1.5" stroke-miterlimit="10" points="476.289,476.128 491.736,550.001 
		549.598,550.001 550,492.099 	"/>
	<path fill="#FFFFFF" stroke="#000000" stroke-width="1.5" stroke-miterlimit="10" d="M0,46.108
		c8.685,1.037,10.135-0.518,11.792-1.572c1.657-1.054,3.523-1.607,5.387-1.815c1.864-0.207,3.73-0.069,5.559,0.656
		c1.83,0.726,3.626,2.039,5.732,3.767c2.105,1.727,4.523,3.869,6.457,6.392c1.934,2.522,3.384,5.425,4.527,8.086
		c1.145,2.661,1.981,5.08,2.145,7.782c0.163,2.704-0.349,5.689-0.604,7.993c-0.256,2.304-0.256,3.925,0.17,4.777
		c0.426,0.853,1.279,0.938,2.43,0.469c1.15-0.469,2.6-1.493,4.689-2.133c2.088-0.64,4.816-0.895,7.8-0.81
		c2.983,0.085,6.224,0.512,8.866,1.322c2.643,0.81,4.689,2.005,6.224,3.37c1.535,1.364,2.558,2.9,3.452,5.077
		c0.895,2.175,1.663,4.991,1.961,7.977c0.298,2.985,0.128,6.143-0.596,9.086c-0.725,2.943-2.004,5.674-3.282,7.85
		c-1.279,2.175-2.557,3.796-3.793,4.757c-1.235,0.961-2.426,1.263-6.74,1.414c-4.315,0.151-11.755,0.151-16.091,0.151
		c-4.335,0-5.565,0-6.361,1.227s-1.158,3.678-1.305,6.253c-0.146,2.574-0.077,5.268,0.544,8.413
		c0.621,3.144,1.795,6.738,3.557,10.574c1.761,3.835,4.108,7.912,6.732,11.437s5.525,6.496,8.805,8.708
		c3.28,2.212,6.94,3.662,11.049,4.769c4.109,1.105,8.667,1.865,13.949,1.935c5.283,0.069,11.291-0.553,17.023-1.589
		c5.731-1.037,11.187-2.488,15.227-4.078c4.04-1.589,6.664-3.317,8.563-5.148c1.899-1.831,3.073-3.767,4.419-4.803
		c1.346-1.036,2.866-1.175,4.315-1.175c1.45,0,2.831,0.139,4.212,0.346c1.381,0.207,2.763,0.483,4.247,1.417
		c1.485,0.932,3.073,2.521,4.903,3.904c1.83,1.382,3.902,2.557,6.042,3.525c2.142,0.968,4.351,1.728,7.164,1.744
		c2.814,0.018,6.233-0.708,7.104-1.144c0.438-0.87,1.174-4.288,1.168-7.104c-0.007-2.816-0.758-5.031-1.717-7.176
		c-0.959-2.146-2.125-4.223-3.5-6.063c-1.374-1.836-2.957-3.431-3.883-4.92c-0.928-1.49-1.198-2.873-1.4-4.255
		c-0.202-1.383-0.335-2.766-0.33-4.218c0.006-1.451,0.149-2.97,1.19-4.314c1.041-1.344,2.979-2.512,4.815-4.405
		c1.837-1.894,3.572-4.513,5.177-8.55c1.604-4.037,3.074-9.491,4.13-15.223c1.056-5.733,1.701-11.742,1.651-17.028
		c-0.049-5.288-0.792-9.853-1.881-13.967c-1.09-4.115-2.527-7.783-4.725-11.074c-2.197-3.29-5.157-6.204-8.668-8.843
		c-3.513-2.639-7.578-5.003-11.404-6.779c-3.826-1.777-7.413-2.965-10.552-3.598c-3.14-0.634-5.833-0.713-8.406-0.576
		c-2.572,0.137-5.025,0.49-6.252,1.282c-1.229,0.792-1.233,2.024-1.249,6.362c-0.016,4.338-0.044,11.783-0.21,16.1
		c-0.167,4.318-0.473,5.509-1.438,6.74s-2.589,2.506-4.769,3.778c-2.179,1.272-4.912,2.542-7.855,3.255
		c-2.944,0.715-6.099,0.874-9.082,0.564c-2.983-0.309-5.794-1.089-7.965-1.992c-2.17-0.904-3.701-1.934-5.06-3.474
		s-2.544-3.593-3.344-6.24c-0.8-2.646-1.214-5.891-1.289-8.878c-0.074-2.986,0.191-5.716,0.838-7.804
		c0.647-2.087,1.676-3.534,2.148-4.684c0.474-1.15,0.392-2.003-0.459-2.434c-0.851-0.43-2.471-0.435-4.773-0.188
		c-2.304,0.248-5.288,0.749-7.988,0.576c-2.701-0.172-5.114-1.02-7.769-2.175c-2.653-1.154-5.549-2.615-8.063-4.561
		c-2.514-1.944-4.645-4.371-6.363-6.484c-1.72-2.115-3.024-3.917-3.743-5.75c-0.718-1.834-0.849-3.701-0.635-5.565
		c0.214-1.865,0.774-3.73,1.832-5.384c1.06-1.655,2.619-3.1,1.614-11.795c-0.006-0.056-0.012-0.113-0.019-0.169H0V46.108z"/>
</g>
</svg>
